<?xml version="1.0" encoding="UTF-8"?>
<svg id="_レイヤー_2" data-name="レイヤー 2" xmlns="http://www.w3.org/2000/svg" viewBox="0 0 26.29 29.67">
  <defs>
    <style>
      .cls-1 {
        fill: #fac014;
      }

      .cls-2 {
        fill: #fff;
      }
    </style>
  </defs>
  <g id="_レイヤー_4" data-name="レイヤー 4">
    <g>
      <path class="cls-1" d="m7.05,4.3l14.29,8.83c1.26.78,1.26,2.62,0,3.4l-14.29,8.83c-1.33.82-3.05-.14-3.05-1.7V6c0-1.57,1.72-2.52,3.05-1.7Z"/>
      <path class="cls-2" d="m6,4c.35,0,.71.09,1.05.3l14.29,8.83c1.27.78,1.27,2.62,0,3.4l-14.29,8.83c-.34.21-.7.3-1.05.3-1.04,0-2-.83-2-2V6c0-1.17.96-2,2-2m0-4h0C2.69,0,0,2.69,0,6v17.66c0,3.31,2.69,6,6,6,1.11,0,2.2-.31,3.15-.9l14.29-8.83c1.78-1.1,2.85-3.01,2.85-5.1s-1.06-4-2.85-5.1L9.15.9c-.95-.59-2.04-.9-3.15-.9h0Z"/>
    </g>
  </g>
</svg>