<?xml version="1.0" encoding="UTF-8"?>
<svg id="_レイヤー_2" data-name="レイヤー 2" xmlns="http://www.w3.org/2000/svg" viewBox="0 0 254.09 137.7">
  <defs>
    <style>
      .cls-1 {
        fill: none;
      }

      .cls-2 {
        fill: #fac014;
      }

      .cls-3 {
        fill: #fff;
      }

      .cls-4 {
        fill: #fff4c0;
      }

      .cls-5 {
        fill: #f2b705;
      }

      .cls-6 {
        fill: #f2d338;
      }

      .cls-7 {
        fill: #ffb6b6;
      }

      .cls-8 {
        fill: #e78005;
      }

      .cls-9 {
        fill: #a0616a;
      }

      .cls-10 {
        fill: #8ec31f;
      }

      .cls-11 {
        fill: #a7abb0;
      }

      .cls-12 {
        fill: #3f3d56;
      }

      .cls-13 {
        fill: #2f2e41;
      }

      .cls-14 {
        isolation: isolate;
        opacity: .1;
      }

      .cls-15 {
        fill: #ffdd13;
        opacity: .36;
      }
    </style>
  </defs>
  <g id="_レイヤー_1-2" data-name="レイヤー 1">
    <g>
      <rect class="cls-4" y="0" width="254.09" height="137.7" rx="6" ry="6"/>
      <g>
        <rect class="cls-1" x="9.72" y="101.04" width="244.37" height="32.39"/>
        <g>
          <path class="cls-15" d="m141.19,83.38c-2.24,1.13-4.63,2.56-6.81,3.95h3.91c.37-1.24,1.64-2.69,2.91-3.95Z"/>
          <path class="cls-15" d="m200.24,47.35c.13-.76.33-1.49.61-2.18-.4.67-.63,1.42-.61,2.18Z"/>
          <polygon class="cls-15" points="146.83 104.94 149.18 104.94 146.97 98.29 146.83 104.94"/>
          <path class="cls-7" d="m156.73,49.19c-.31,1.83-.65,4.06-.77,5.69l1.79,2.06,4.3-1.75-.02-.05c-2.53-1.1-4.49-3.28-5.3-5.95Z"/>
          <path class="cls-14" d="m156.73,49.19c-.31,1.83-.65,4.06-.77,5.69l1.79,2.06,4.3-1.75-.02-.05c-2.53-1.1-4.49-3.28-5.3-5.95Z"/>
          <path class="cls-5" d="m114.07,80.44l7.84,6.89h12.47c2.18-1.39,4.57-2.82,6.81-3.95.21-.21.42-.41.62-.61l-.22-.66-.94-8.19,1.72.3c-.2-.22-.41-.45-.64-.68-3.72-3.87,1.17-18.25,3.78-20.8,2.21-2.16,1.76-3.9,1.01-5.83-1.24-.16-2.84-.29-4.73-.29-4.8,0-22.96,24.84-22.96,24.84l-6.26,9.21c.64-.17,1.04-.24,1.04-.24h.45Z"/>
          <path class="cls-5" d="m156.03,56.9c.48,1.25-2.65,8.33-2.13,14.62,3.08-6.22,5.23-13,5.23-13l-1.38-1.59-1.79-2.06c-.07.95-.06,1.69.07,2.03Z"/>
          <path class="cls-13" d="m121.91,87.33l-7.84-6.89h-.45s-.39.07-1.04.24c-2.23.58-7.47,2.36-9.79,6.65h19.12Z"/>
          <path class="cls-11" d="m248.14,104.94c.27-4.65-3.1-8.83-7.86-9.41l-4.2-.51-1.4,9.92h13.47Z"/>
          <path class="cls-9" d="m218.12,60.01c.31.99.85,1.9,1.58,2.63l.29-.02.59.03-2.06-2.92c-.11.11-.23.22-.33.33-.02-.01-.04-.04-.07-.06Z"/>
          <path class="cls-14" d="m218.12,60.01c.31.99.85,1.9,1.58,2.63l.29-.02.59.03-2.06-2.92c-.11.11-.23.22-.33.33-.02-.01-.04-.04-.07-.06Z"/>
          <path class="cls-9" d="m215.71,59.97c-.12-.72-.03-1.44.14-2.15-1.58.98-3.44,1.56-5.43,1.56-1.07,0-2.11-.16-3.08-.47l.61,4.36,10.05-.54c-1.15-.49-2.08-1.52-2.29-2.76Z"/>
          <path class="cls-14" d="m215.71,59.97c-.12-.72-.03-1.44.14-2.15-1.58.98-3.44,1.56-5.43,1.56-1.07,0-2.11-.16-3.08-.47l.61,4.36,10.05-.54c-1.15-.49-2.08-1.52-2.29-2.76Z"/>
          <path class="cls-9" d="m172.32,84.61c.18-1.36.03-2.74-.44-4.04-1.12-3.24-3.71-5.29-5.77-4.58-2.06.72-2.83,3.93-1.7,7.17.43,1.3,1.17,2.48,2.15,3.44l.82,2.28,5.26-3.51-.32-.76Z"/>
          <path class="cls-5" d="m226.46,70.36l-1.08,16.27h0s-.18.7-.18.7h.79c2.15,0,3.88,1.77,3.84,3.92l-.29,13.69h5.15l1.4-9.92.17-1.24-2.81-16.46c.13-5.78-2.78-11.21-7.66-14.3-.04-.03-.09-.06-.13-.08-.02-.01-.03-.02-.05-.03v.07s0,0,0,0l.84,7.39Z"/>
          <path class="cls-5" d="m180.95,93.01c-1.47,3.07-2.51,5.25-2.51,5.25l-5.02-13.4-.78.52-5.26,3.51-.48.32s2.34,9.27,5.35,15.72h9.36l-.65-11.93Z"/>
          <path class="cls-5" d="m225.19,87.33l.18-.7h0s1.08-16.27,1.08-16.27l-.84-7.39h0s-.08-.02-.08-.02l-4.95-.29-.59-.03-.29.02c.11.12.22.24.34.34-.69.13-1.4.02-2.05-.25l-10.05.54-1.36.07-1.36.13-7.87,4.57-.02.19-.18-.19s-6.53,2.94-6.86,4.58c-.18.88-3.62,8.27-6.74,14.89.36-.11.74-.19,1.14-.19h40.5Z"/>
          <path class="cls-12" d="m229.52,104.94l.29-13.69c.05-2.15-1.68-3.92-3.84-3.92h-41.29c-.4,0-.78.08-1.14.19-1.63.51-2.79,2.06-2.69,3.85l.09,1.63.65,11.93h47.92Z"/>
          <path class="cls-7" d="m170.32,44.71c-2.48,1.13-8.34,3.22-8.34,3.22-.32-2.61-4.66-1.98-4.66-1.98,0,0-.28,1.41-.59,3.23.81,2.67,2.76,4.85,5.3,5.95,1.16.5,2.44.79,3.78.79,4.92,0,8.97-3.75,9.44-8.55-1.61-1.33-3.61-3.26-4.92-2.66Z"/>
          <path class="cls-7" d="m144.08,87.41c1.77.37,3.08,1.96,3.04,3.84l-.15,7.04,2.21,6.65h7.37l-5.55-22.38c-1.79.93-3.86,1.9-5.64,3.46-.59.52-1,.98-1.28,1.4Z"/>
          <path class="cls-7" d="m142.38,74.23l-1.72-.3.94,8.19.22.66c.49-.47.96-.9,1.34-1.27,2.39-2.26,2.32-3.88-.78-7.28Z"/>
          <path class="cls-12" d="m146.83,104.94l.14-6.65.15-7.04c.04-1.88-1.28-3.47-3.04-3.84-2.05,3.01,2.75,3.44-2.98,2.64-2.62-.37-3.21-1.43-2.82-2.73h-36.28c-2.2,0-3.95,1.85-3.83,4.05l.74,13.56h47.92Z"/>
          <path class="cls-13" d="m145.52,52.74c-2.61,2.55-7.5,16.93-3.78,20.8.23.23.44.46.64.68,3.1,3.4,3.17,5.02.78,7.28-.39.37-.85.8-1.34,1.27-.21.2-.41.4-.62.61-1.27,1.26-2.53,2.71-2.91,3.95-.39,1.3.2,2.36,2.82,2.73,5.72.8.93.37,2.98-2.64.28-.42.69-.88,1.28-1.4,1.78-1.56,3.85-2.53,5.64-3.46,3.1-1.62,5.34-3.14,3.66-7.49-.43-1.12-.66-2.32-.76-3.54-.51-6.29,2.61-13.37,2.13-14.62-.13-.34-.13-1.08-.07-2.03.12-1.63.46-3.86.77-5.69.31-1.82.59-3.23.59-3.23,0,0,4.34-.64,4.66,1.98,0,0,5.87-2.09,8.34-3.22,1.31-.6,3.32,1.34,4.92,2.66,1.42,1.17,2.53,1.86,2.58-.08.11-4.15-1.59-5.89-1.59-5.89,0,0-.42-9.08-9.57-7.95,0,0,2.01-4.54-4.59-5.25-6.61-.7-16.88,15.25-15.96,17.63.14.37.29.72.42,1.07.75,1.93,1.2,3.67-1.01,5.83Z"/>
          <path class="cls-9" d="m215.85,57.83c.37-1.51,1.11-3,.97-4.54-.18-2-1.76-3.54-3.1-5.04-.96-1.07-1.87-2.4-2.09-3.77-1.41-1-3.08-1.66-4.8-1.82-1.62-.15-3.33.12-4.65,1.06-.54.38-.99.88-1.33,1.45-.28.69-.48,1.42-.61,2.18,0,.19.02.39.06.58-.05-.05-.08-.1-.13-.15-.05.42-.09.84-.09,1.27,0,4.63,3.05,8.55,7.24,9.86.97.3,2.01.47,3.08.47,2,0,3.85-.58,5.43-1.56Z"/>
          <path class="cls-13" d="m200.24,47.35c-.02-.76.22-1.51.61-2.18.34-.57.79-1.07,1.33-1.45,1.33-.94,3.04-1.22,4.65-1.06,1.73.16,3.39.82,4.8,1.82.22,1.37,1.12,2.69,2.09,3.77,1.34,1.5,2.92,3.04,3.1,5.04.14,1.54-.6,3.04-.97,4.54-.17.71-.27,1.43-.14,2.15.21,1.24,1.15,2.27,2.29,2.76.64.27,1.35.38,2.05.25-.12-.11-.23-.23-.34-.34-.73-.73-1.27-1.64-1.58-2.63.02.02.04.04.07.06.11-.11.22-.22.33-.33,3.07-3,7.45-6.84,7.6-11.01.16-4.32-.83-7.95-3.68-11.21,1.99-1.33,2.46-4.29,1.36-6.42s-3.44-3.41-5.82-3.73c-1.85-.25-3.9.09-5.19,1.44-.86.89-1.28,2.1-1.67,3.27l-.56,1.65c-.11.33-.22.68-.13,1.01.1.33.5.6.79.42l.16.27c-2.02-.4-7.63-.66-9.02.86-1.38,1.53-1.89,3.79-1.3,5.76-.98.57-1.67,1.61-1.82,2.74-.14,1.06.21,2.17.92,2.97.04.05.08.1.13.15-.04-.19-.06-.39-.06-.58Z"/>
          <rect class="cls-10" x="114.59" y="123.44" width="3.39" height="2.56"/>
          <path class="cls-10" d="m53.5,137.7h194.59c3.31,0,6-2.69,6-6v-26.76H55.5c-1.1,0-2,.9-2,2v30.76Zm128.27-17.33c-1.33-1.41-2.67-2.46-4.21-3.31l1.57-1.89c2.06,1.25,2.98,1.92,4.26,3.11l-1.62,2.1Zm22.47-3.23c0-.98.8-1.78,1.78-1.78s1.76.78,1.76,1.78-.78,1.78-1.76,1.78-1.78-.8-1.78-1.78Zm7.78,2.69c.72.1,1.3.13,2.93.13h8.1c1.62,0,2.19-.02,2.93-.11v2.62c-.64-.05-1.7-.08-2.95-.08h-8.08c-1.39,0-2.31.03-2.93.1v-2.66Zm21.54.54c-1.33-1.41-2.67-2.46-4.21-3.31l1.57-1.89c2.06,1.25,2.98,1.92,4.26,3.11l-1.62,2.1Zm-113.24-4.72c-.05,1.76-.19,3.15-.38,3.91-.24.96-.88,1.28-2.53,1.28-.26,0-.5-.02-1.12-.05-.06-.82-.18-1.3-.5-1.99.64.13,1.15.19,1.54.19.45,0,.62-.08.72-.35.13-.38.21-1.18.24-2.59h-1.92c-.19,2.42-1.12,3.91-3.14,5.04-.35-.69-.74-1.15-1.33-1.67.93-.43,1.31-.72,1.75-1.28.42-.56.64-1.2.7-2.1h-.69c-.72,0-1.28.03-1.73.08v-2c.54.06,1.2.1,1.86.1h5.07c.67,0,1.2-.02,1.55-.06q-.05.32-.1,1.49Zm-18.63,2.91c-.45-.05-.75-.06-1.54-.06h-.56c-.13.32-.27.66-.4.91h.67c.86,0,1.14-.02,1.54-.06v1.68c-.42-.05-.7-.06-1.54-.06h-2.61v.66h2.27c.56,0,1.02-.02,1.38-.06v1.58c-.4-.05-.85-.06-1.36-.06h-2.29v.66h2.75c.74,0,1.06-.02,1.52-.06v1.63c-.43-.05-.82-.06-1.52-.06h-2.75c.02.46.03.62.08.91h-2.16q.05-.24.06-.91h-2.37c-.74,0-1.09.02-1.54.06v-1.63c.45.05.78.06,1.54.06h2.38v-.66h-2.1c-.53,0-.96.02-1.38.06v-1.58c.35.05.82.06,1.38.06h2.1v-.66h-2.27c-.82,0-1.14.02-1.54.06v-1.68c.4.05.67.06,1.54.06h.38c-.14-.35-.26-.59-.43-.91h-.35c-.8,0-1.1.02-1.54.06v-1.63l-1.3,1.3c-.9-1.23-1.44-1.81-2.74-2.96l1.54-1.44c1.14.94,2.02,1.86,2.77,2.83l-.21.22c.38.03.67.05,1.47.05h2.67v-.66h-2.29c-.72,0-.99.02-1.36.05v-1.68c.43.06.85.08,1.58.08h2.06c-.02-.45-.03-.72-.08-1.01h2.15c-.05.29-.06.5-.08,1.01h2.21c.62,0,1.14-.03,1.62-.08v1.7c-.38-.05-.78-.06-1.36-.06h-2.46v.66h2.91c.83,0,1.12-.02,1.54-.06v1.7Zm-19.64,10.05c-2.3-.72-3.57-1.31-5.04-2.39-1.34,1.1-2.54,1.75-4.64,2.5-.4-.85-.66-1.23-1.25-1.9,1.74-.45,3.07-1.04,4.32-1.95-.77-.8-1.39-1.68-1.87-2.59-.35.98-.86,2-1.5,3.07-.7,1.17-1.5,2.14-2.54,3.12-.66-.88-1.01-1.23-1.63-1.65,1.54-1.36,2.46-2.59,3.22-4.26.66-1.46,1.09-3.07,1.28-4.82h-2.1c-.88,0-1.62.03-2.08.1v-2.18c.62.08,1.22.11,2.08.11h2.27q.06-.91.06-1.31c0-.3-.02-.5-.05-.83l2.42.08q-.1.42-.21,2.06h6.03c.88,0,1.44-.03,2.08-.11v2.18c-.59-.08-1.1-.1-2.08-.1h-6.23c-.1.72-.13.88-.22,1.46h4.39c.72,0,1.06-.02,1.42-.08l1.02,1.1c-.08.16-.13.26-.45,1.02-.21.51-.93,1.78-1.38,2.43-.27.4-.5.69-.86,1.09,1.26.77,2.61,1.26,4.66,1.71-.51.72-.8,1.26-1.12,2.13Zm19.57-.32c-1.52.06-3.97.1-5.99.1s-3.2-.11-3.91-.34c-.7-.21-1.3-.62-1.87-1.28q-.9.8-2.24,1.76l-.91-2.18c.45-.16,1.39-.78,2.11-1.41v-3.25h-.77c-.42,0-.62.02-1.04.08v-2.07c.45.06.67.08,1.3.08h1.36c.5,0,.83-.02,1.22-.06-.05.46-.06.9-.06,1.78v3.59c.34.53.64.77,1.26,1.02.64.26,1.63.34,3.94.34,2.56,0,4.35-.1,6.13-.3-.24.66-.4,1.26-.53,2.15Zm3.99-1.04c.42-1.14.59-2.35.67-4.48l1.5.24c-.05,2.11-.19,3.33-.58,4.9l-1.6-.66Zm2.53,1.42c.08-.53.1-.88.1-1.73v-4.8q-.22.02-.83.05-1.12.08-1.41.13l-.19-1.94c.3.05.42.05,1.41.05.26-.34.27-.35.54-.72-.72-1.01-1.15-1.54-2.08-2.48l.93-1.7.53.58c.59-1.01.98-1.89,1.12-2.54l1.82.72c-.1.13-.14.22-.26.45-.64,1.26-1.02,1.95-1.54,2.72q.34.4.53.66c.69-1.09,1.26-2.18,1.47-2.77l1.68.94c-.11.14-.18.24-.69,1.06-.8,1.23-1.5,2.24-2.15,3.04.7-.03,1.01-.05,1.42-.1-.1-.3-.19-.56-.43-1.18l1.22-.53c.67,1.62.7,1.68,1.2,3.46l-1.36.58q-.08-.34-.16-.69c-.48.05-.77.06-.9.08v4.95c0,.88.02,1.2.1,1.73h-2.08Zm2.62-1.62v-.37c0-1.1-.1-2.32-.29-3.67l1.33-.27c.3,2.11.34,2.46.38,4.02l-1.42.29Zm7.22,1.6v-.78h-3.38v.75h-2.06c.05-.5.06-1.02.06-1.71v-3.91c0-.66-.02-1.06-.06-1.5.35.03.7.05,1.3.05h4.83c.7,0,1.06-.02,1.38-.06-.03.4-.05.88-.05,1.54v3.95c0,.72.02,1.25.06,1.68h-2.08Zm7.87.11c-.42-.78-.77-1.23-1.5-1.89,1.39-.62,2.15-1.18,2.71-2,.62-.91.88-2.02.88-3.91,0-.7-.02-1.02-.1-1.47-.93.67-1.86,1.23-2.77,1.68-.3-.94-.53-1.38-1.06-2.13,1.47-.59,2.53-1.23,3.7-2.19,1.18-.98,1.94-1.83,2.62-2.96h2.4c.78,1.2,1.54,2,2.87,3.01,1.17.88,2.26,1.47,3.71,2.05-.48.85-.69,1.28-1.01,2.21-1.41-.66-2.54-1.38-3.91-2.45-1.25-1.01-1.9-1.7-2.8-2.96-.7.96-1.09,1.41-1.78,2.06-.58.56-1.28,1.17-1.89,1.62h2.29c-.05.38-.05.64-.06,1.23-.02,1.2-.13,2.51-.29,3.27-.45,2.13-1.66,3.6-4.02,4.83Zm7.09-.24c.08-.61.11-1.2.11-1.99v-5.3c0-.7-.03-1.28-.1-1.81h2.37c-.08.51-.1.94-.1,1.84v5.25c0,.77.03,1.34.11,2h-2.4Zm16.91-.06c-.02-.46-.11-1.22-.3-2.24l-.45-2.45-3.46.54c-.99.16-1.36.22-2.02.42l-.38-2.32c.66-.02,1.06-.06,2.11-.22l3.36-.53-.42-2.35-2.5.38c-1.12.18-1.3.22-2.18.43l-.37-2.34c.7-.02.99-.05,2.16-.22l2.5-.38-.18-.91q-.24-1.33-.43-1.84l2.51-.4c.02.51.08.98.24,1.84l.19.94,2.82-.43c1.04-.16,1.41-.24,2.03-.43l.38,2.3q-.7.06-2.02.26l-2.82.45.43,2.34,3.2-.51c1.06-.16,1.49-.26,2.15-.46l.4,2.3q-.56.03-2.1.29l-3.25.5.45,2.38c.22,1.25.3,1.6.51,2.24l-2.59.43Zm15.81,0c-.05-.62-.11-1.06-.26-1.86l-.96-5.38-1.02.18c-.85.14-1.1.21-1.68.38l-.38-2.11c.56-.02.88-.05,1.79-.21l.96-.14-.18-.99c-.14-.77-.19-.99-.35-1.42l2.26-.34c.03.53.08.96.18,1.46l.19.94,4.59-.77c.67-.11.86-.16,1.17-.32l1.3,1.18c-.14.21-.22.34-.4.82-.69,1.81-1.6,3.06-3.17,4.35-.69-.7-.98-.93-1.76-1.33,1.15-.74,1.97-1.6,2.58-2.72l-3.95.69,1.01,5.33c.19.96.26,1.22.46,1.84l-2.37.42Zm14.17-1.12q-.4.08-.7.14c-.37.08-.46.11-.8.22l-.7-2.62c1.47-.1,3.3-.53,4.77-1.17,2.03-.85,3.46-2.05,4.71-3.92.72-1.07,1.15-1.94,1.62-3.18.75.88,1.04,1.15,2.03,1.86-1.58,3.43-3.47,5.54-6.26,7.01-1.28.67-3.12,1.33-4.66,1.67Zm20.58-7.75c-.26-.29-.42-.38-.61-.38-.24,0-.26.02-.91.88-.74.98-1.66,2.14-2.87,3.6-.24.27-.34.4-.58.7l-1.62-2.34c.26-.18.38-.29.62-.53.46-.46,1.97-2.26,2.9-3.44.56-.74.93-1.09,1.26-1.3.35-.21.74-.3,1.15-.3.86,0,1.28.27,2.54,1.71,1.6,1.81,3.12,3.33,5.04,5.04.86.78,1.15,1.02,1.62,1.33l-1.2,2.61c-2.42-2.21-3.79-3.63-7.36-7.59Zm35.87,6.08c-1.28.67-3.12,1.33-4.66,1.67q-.4.08-.7.14c-.37.08-.46.11-.8.22l-.7-2.62c1.47-.1,3.3-.53,4.77-1.17,2.03-.85,3.46-2.05,4.71-3.92.72-1.07,1.15-1.94,1.62-3.18.75.88,1.04,1.15,2.03,1.86-1.58,3.43-3.47,5.54-6.26,7.01Z"/>
          <path class="cls-10" d="m78.48,121.07h-3.35c.5.96,1.02,1.7,1.79,2.45.67-.77,1.07-1.41,1.55-2.45Z"/>
          <path class="cls-10" d="m97.5,118.49h-2.54c.16.32.24.51.38.91h1.79c.14-.3.24-.53.37-.91Z"/>
          <path class="cls-10" d="m206.02,117.92c.42,0,.77-.35.77-.79s-.35-.78-.77-.78-.78.35-.78.78.35.79.78.79Z"/>
          <path class="cls-3" d="m78.52,124.77c.37-.4.59-.69.86-1.09.45-.66,1.17-1.92,1.38-2.43.32-.77.37-.86.45-1.02l-1.02-1.1c-.37.06-.7.08-1.42.08h-4.39c.1-.58.13-.74.22-1.46h6.23c.98,0,1.49.02,2.08.1v-2.18c-.64.08-1.2.11-2.08.11h-6.03q.11-1.65.21-2.06l-2.42-.08c.03.34.05.53.05.83q0,.4-.06,1.31h-2.27c-.86,0-1.46-.03-2.08-.11v2.18c.46-.06,1.2-.1,2.08-.1h2.1c-.19,1.75-.62,3.36-1.28,4.82-.75,1.67-1.68,2.9-3.22,4.26.62.42.98.77,1.63,1.65,1.04-.98,1.84-1.95,2.54-3.12.64-1.07,1.15-2.1,1.5-3.07.48.91,1.1,1.79,1.87,2.59-1.25.91-2.58,1.5-4.32,1.95.59.67.85,1.06,1.25,1.9,2.1-.75,3.3-1.39,4.64-2.5,1.47,1.07,2.74,1.67,5.04,2.39.32-.87.61-1.41,1.12-2.13-2.05-.45-3.39-.94-4.66-1.71Zm-.03-3.7c-.48,1.04-.88,1.68-1.55,2.45-.77-.75-1.3-1.49-1.79-2.45h3.35Z"/>
          <path class="cls-3" d="m92.09,126.11c-.62-.26-.93-.5-1.26-1.02v-3.59c0-.88.02-1.31.06-1.78-.38.05-.72.06-1.22.06h-1.36c-.62,0-.85-.02-1.3-.08v2.07c.42-.06.62-.08,1.04-.08h.77v3.25c-.72.62-1.66,1.25-2.11,1.41l.91,2.18q1.34-.96,2.24-1.76c.58.66,1.17,1.07,1.87,1.28.7.22,1.98.34,3.91.34,2.02,0,4.47-.03,5.99-.1.13-.88.29-1.49.53-2.15-1.78.21-3.57.3-6.13.3-2.31,0-3.3-.08-3.94-.34Z"/>
          <path class="cls-3" d="m97.24,116.92v-.66h2.46c.58,0,.98.02,1.36.06v-1.7c-.48.05-.99.08-1.62.08h-2.21c.02-.51.03-.72.08-1.01h-2.15c.05.29.06.56.08,1.01h-2.06c-.74,0-1.15-.02-1.58-.08v1.68c.37-.03.64-.05,1.36-.05h2.29v.66h-2.67c-.8,0-1.09-.02-1.47-.05l.21-.22c-.75-.98-1.63-1.89-2.77-2.83l-1.54,1.44c1.3,1.15,1.84,1.73,2.74,2.96l1.3-1.3v1.63c.43-.05.74-.06,1.54-.06h.35c.18.32.29.56.43.91h-.38c-.86,0-1.14-.02-1.54-.06v1.68c.4-.05.72-.06,1.54-.06h2.27v.66h-2.1c-.56,0-1.02-.02-1.38-.06v1.58c.42-.05.85-.06,1.38-.06h2.1v.66h-2.38c-.75,0-1.09-.02-1.54-.06v1.63c.45-.05.8-.06,1.54-.06h2.37q-.02.67-.06.91h2.16c-.05-.29-.06-.45-.08-.91h2.75c.7,0,1.09.02,1.52.06v-1.63c-.46.05-.78.06-1.52.06h-2.75v-.66h2.29c.51,0,.96.02,1.36.06v-1.58c-.35.05-.82.06-1.38.06h-2.27v-.66h2.61c.83,0,1.12.02,1.54.06v-1.68c-.4.05-.67.06-1.54.06h-.67c.13-.26.27-.59.4-.91h.56c.78,0,1.09.02,1.54.06v-1.7c-.42.05-.7.06-1.54.06h-2.91Zm-1.9,2.48c-.14-.4-.22-.59-.38-.91h2.54c-.13.38-.22.61-.37.91h-1.79Z"/>
          <path class="cls-3" d="m120,123.02c0-.66.02-1.14.05-1.54-.32.05-.67.06-1.38.06h-4.83c-.59,0-.94-.02-1.3-.05.05.45.06.85.06,1.5v3.91c0,.69-.02,1.22-.06,1.71h2.06v-.75h3.38v.78h2.08c-.05-.43-.06-.96-.06-1.68v-3.95Zm-5.41,2.98v-2.56h3.39v2.56h-3.39Z"/>
          <path class="cls-3" d="m107.79,123.01l-1.5-.24c-.08,2.13-.26,3.35-.67,4.48l1.6.66c.38-1.57.53-2.79.58-4.9Z"/>
          <path class="cls-3" d="m111.81,122.75l-1.33.27c.19,1.34.29,2.56.29,3.67v.37l1.42-.29c-.05-1.55-.08-1.91-.38-4.02Z"/>
          <path class="cls-3" d="m110.13,122c.13-.02.42-.03.9-.08q.08.35.16.69l1.36-.58c-.5-1.78-.53-1.84-1.2-3.46l-1.22.53c.24.62.34.88.43,1.18-.42.05-.72.06-1.42.1.64-.8,1.34-1.81,2.15-3.04.51-.82.58-.91.69-1.06l-1.68-.94c-.21.59-.78,1.68-1.47,2.77q-.19-.26-.53-.66c.51-.77.9-1.46,1.54-2.72.11-.22.16-.32.26-.45l-1.82-.72c-.14.66-.53,1.54-1.12,2.54l-.53-.58-.93,1.7c.93.94,1.36,1.47,2.08,2.48-.27.37-.29.38-.54.72-.99,0-1.1,0-1.41-.05l.19,1.94q.29-.05,1.41-.13.61-.03.83-.05v4.8c0,.85-.02,1.2-.1,1.73h2.08c-.08-.53-.1-.85-.1-1.73v-4.95Z"/>
          <path class="cls-3" d="m113.79,114.22c-.66,0-1.31-.03-1.86-.1v2c.45-.05,1.01-.08,1.73-.08h.69c-.06.9-.29,1.54-.7,2.1-.43.56-.82.85-1.75,1.28.59.51.98.98,1.33,1.67,2.02-1.14,2.95-2.62,3.14-5.04h1.92c-.03,1.41-.11,2.21-.24,2.59-.1.27-.27.35-.72.35-.38,0-.9-.06-1.54-.19.32.69.43,1.17.5,1.99.62.03.86.05,1.12.05,1.65,0,2.29-.32,2.53-1.28.19-.75.34-2.14.38-3.91q.05-1.17.1-1.49c-.35.05-.88.06-1.55.06h-5.07Z"/>
          <path class="cls-3" d="m135.24,121.28c0-.9.02-1.33.1-1.84h-2.37c.06.53.1,1.1.1,1.81v5.3c0,.78-.03,1.38-.11,1.99h2.4c-.08-.66-.11-1.23-.11-2v-5.25Z"/>
          <path class="cls-3" d="m129.88,123.94c.16-.75.27-2.07.29-3.27.02-.59.02-.85.06-1.23h-2.29c.61-.45,1.31-1.06,1.89-1.62.69-.66,1.07-1.1,1.78-2.06.9,1.26,1.55,1.95,2.8,2.96,1.36,1.07,2.5,1.79,3.91,2.45.32-.93.53-1.36,1.01-2.21-1.46-.58-2.54-1.17-3.71-2.05-1.33-1.01-2.08-1.81-2.87-3.01h-2.4c-.69,1.14-1.44,1.98-2.62,2.96-1.17.96-2.23,1.6-3.7,2.19.53.75.75,1.18,1.06,2.13.91-.45,1.84-1.01,2.77-1.68.08.45.1.77.1,1.47,0,1.89-.26,2.99-.88,3.91-.56.82-1.31,1.38-2.71,2,.74.66,1.09,1.1,1.5,1.89,2.35-1.23,3.57-2.71,4.02-4.83Z"/>
          <path class="cls-3" d="m151.49,123.41l3.25-.5q1.54-.26,2.1-.29l-.4-2.3c-.66.21-1.09.3-2.15.46l-3.2.51-.43-2.34,2.82-.45q1.31-.19,2.02-.26l-.38-2.3c-.62.19-.99.27-2.03.43l-2.82.43-.19-.94c-.16-.86-.22-1.33-.24-1.84l-2.51.4q.19.51.43,1.84l.18.91-2.5.38c-1.17.18-1.46.21-2.16.22l.37,2.34c.88-.21,1.06-.26,2.18-.43l2.5-.38.42,2.35-3.36.53c-1.06.16-1.46.21-2.11.22l.38,2.32c.66-.19,1.02-.26,2.02-.42l3.46-.54.45,2.45c.19,1.02.29,1.78.3,2.24l2.59-.43c-.21-.64-.29-.99-.51-2.24l-.45-2.38Z"/>
          <path class="cls-3" d="m166.56,120.88l3.95-.69c-.61,1.12-1.42,1.99-2.58,2.72.78.4,1.07.62,1.76,1.33,1.57-1.3,2.48-2.54,3.17-4.35.18-.48.26-.61.4-.82l-1.3-1.18c-.3.16-.5.21-1.17.32l-4.59.77-.19-.94c-.1-.5-.14-.93-.18-1.46l-2.26.34c.16.43.21.66.35,1.42l.18.99-.96.14c-.91.16-1.23.19-1.79.21l.38,2.11c.58-.18.83-.24,1.68-.38l1.02-.18.96,5.38c.14.8.21,1.23.26,1.86l2.37-.42c-.21-.62-.27-.88-.46-1.84l-1.01-5.33Z"/>
          <path class="cls-3" d="m190.75,118.67c-.99-.7-1.28-.98-2.03-1.86-.46,1.25-.9,2.11-1.62,3.18-1.25,1.87-2.67,3.07-4.71,3.92-1.47.64-3.3,1.07-4.77,1.17l.7,2.62c.34-.11.43-.14.8-.22q.3-.06.7-.14c1.54-.34,3.38-.99,4.66-1.67,2.79-1.47,4.67-3.58,6.26-7.01Z"/>
          <path class="cls-3" d="m179.13,115.16l-1.57,1.89c1.54.85,2.88,1.9,4.21,3.31l1.62-2.1c-1.28-1.18-2.19-1.86-4.26-3.11Z"/>
          <path class="cls-3" d="m208.98,124.58c-.46-.3-.75-.54-1.62-1.33-1.92-1.71-3.44-3.23-5.04-5.04-1.26-1.44-1.68-1.71-2.54-1.71-.42,0-.8.1-1.15.3-.34.21-.7.56-1.26,1.3-.93,1.18-2.43,2.98-2.9,3.44-.24.24-.37.35-.62.53l1.62,2.34c.24-.3.34-.43.58-.7,1.2-1.46,2.13-2.62,2.87-3.6.66-.86.67-.88.91-.88.19,0,.35.1.61.38,3.57,3.95,4.95,5.38,7.36,7.59l1.2-2.61Z"/>
          <path class="cls-3" d="m207.78,117.13c0-.99-.78-1.78-1.76-1.78s-1.78.8-1.78,1.78.8,1.78,1.78,1.78,1.76-.8,1.76-1.78Zm-1.76-.78c.42,0,.77.35.77.78s-.35.79-.77.79-.78-.35-.78-.79.35-.78.78-.78Z"/>
          <path class="cls-3" d="m223.04,122.38c1.25,0,2.31.03,2.95.08v-2.62c-.74.1-1.31.11-2.93.11h-8.1c-1.63,0-2.21-.03-2.93-.13v2.66c.62-.06,1.54-.1,2.93-.1h8.08Z"/>
          <path class="cls-3" d="m242.54,118.67c-.99-.7-1.28-.98-2.03-1.86-.46,1.25-.9,2.11-1.62,3.18-1.25,1.87-2.67,3.07-4.71,3.92-1.47.64-3.3,1.07-4.77,1.17l.7,2.62c.34-.11.43-.14.8-.22q.3-.06.7-.14c1.54-.34,3.38-.99,4.66-1.67,2.79-1.47,4.67-3.58,6.26-7.01Z"/>
          <path class="cls-3" d="m230.92,115.16l-1.57,1.89c1.54.85,2.88,1.9,4.21,3.31l1.62-2.1c-1.28-1.18-2.19-1.86-4.26-3.11Z"/>
        </g>
        <g>
          <g>
            <path class="cls-3" d="m39.78,22.63c-.29,0-.57-.12-.76-.35l-.99-1.17c-.23-.27-.3-.64-.18-.97.05-.14.07-.21.07-.87l.05-6.96c0-.06,0-.13.02-.19,0-.7-.04-1.1-.07-1.3-.04-.29.04-.58.24-.8.19-.22.48-.32.77-.34l2.21.03c.29,0,.56.13.74.34.19.22.27.5.24.79-.06.47-.08.84-.08,1.48l-.06,5.69c.69-.24,1.29-.55,1.87-.97.97-.7,1.65-1.49,2.22-2.58.16-.31.47-.51.81-.54.35-.03.68.13.89.41.52.72.67.88,1.3,1.4.4.32.49.89.21,1.32-2,3.08-4.47,4.64-8.52,5.38-.36.07-.42.09-.55.15-.13.06-.27.09-.4.09Zm.1-2.43l.24.28c.08-.02.16-.03.25-.05.26-.05.52-.1.77-.16-.29.06-.6-.02-.83-.21-.23-.19-.37-.48-.36-.78l.08-6.99c0-.23,0-.43,0-.61h-.05c0,.14,0,.29,0,.46,0,.06,0,.15-.01.26l-.05,6.88c0,.4,0,.68-.04.93Zm7.18-3.6c-.57.78-1.24,1.44-2.06,2.03-.55.39-1.11.72-1.71.98,1.58-.65,2.77-1.59,3.8-2.98-.01-.01-.02-.02-.03-.03Z"/>
            <path class="cls-3" d="m58.42,22.86c-.34,0-.68-.18-.86-.5-.36-.62-.49-.78-1.06-1.33-.25-.24-.36-.58-.29-.92.07-.34.3-.61.62-.74.89-.34,1.38-.59,2.07-1.08.43-.31.8-.64,1.11-1.02l-.42.13c-.25.08-.52.05-.75-.07-.1.08-.22.15-.34.18l-1.74.53c-.26.08-.55.05-.79-.09s-.41-.36-.48-.63c-.33-1.34-.55-1.94-1.1-3.05-.13-.27-.14-.58-.02-.85.12-.27.35-.48.64-.56l1.62-.47c.29-.08.59-.03.82.12.11-.1.25-.18.4-.22l1.61-.44c.45-.12.93.08,1.15.5.36.7.62,1.21.83,1.73.09-.42.14-.73.15-1.03,0-.3.15-.58.39-.76.24-.18.55-.25.84-.18l1.85.43c.28.06.51.24.65.49s.16.55.07.81c-.07.19-.07.22-.16.61-.41,1.91-1.02,3.43-1.85,4.65-1.03,1.48-2.3,2.5-4.51,3.62-.14.07-.3.11-.45.11Z"/>
            <path class="cls-3" d="m80.99,22.7s-.02,0-.04,0c-.29-.01-.56-.15-.74-.37-.87-1.09-1.87-2.11-2.98-3.04-1.2,1.21-2.77,2.31-4.51,3.16-.49.24-1.07.04-1.32-.44-.38-.73-.5-.9-1.08-1.5-.23-.24-.33-.58-.26-.9.07-.33.3-.59.61-.72,1.08-.43,1.78-.81,2.66-1.46,1.28-.93,2.31-2.06,3.07-3.34l-2.16.04c-1.07.03-1.26.04-1.68.1-.29.05-.58-.04-.8-.22-.22-.19-.35-.46-.36-.75l-.03-1.98c0-.29.12-.58.35-.77.22-.19.52-.28.81-.23.33.05.63.07,1.43.07h.25l4.42-.08c.18,0,.51,0,.58-.02.03-.01.07-.03.12-.05.39-.18.84-.09,1.14.22l1,1.04c.37.38.37.99.01,1.37-.06.06-.11.12-.24.43-.49,1.15-.97,2.07-1.51,2.92,1.12.83,1.7,1.37,3.54,3.12.4.38.42,1,.04,1.41l-1.57,1.69c-.19.2-.46.32-.73.32Zm-8.34-2.51s.01.02.02.03c.28-.16.55-.32.82-.49-.27.17-.55.32-.84.46Zm6.03-2.3c.84.72,1.63,1.49,2.35,2.3l.13-.14c-1.19-1.13-1.71-1.59-2.48-2.16Zm-1.55-.98c.14,0,.27.03.4.08-.09-.13-.16-.28-.18-.43-.02-.1-.02-.21,0-.31-.19.25-.39.5-.6.74.12-.05.25-.07.38-.07Zm1.49-4.66c.09.07.16.15.23.24.19.29.22.65.08.96-.04.08-.07.16-.11.23.19-.38.37-.78.56-1.22.03-.07.06-.14.09-.2l-.04-.04c-.21.02-.44.03-.79.03h-.02Z"/>
            <path class="cls-3" d="m89.19,22.38c-.16,0-.33-.04-.47-.12-.24-.13-.42-.36-.49-.62l-.57-2.13c-.08-.29-.02-.6.15-.84.17-.24.45-.4.75-.42,1.12-.07,2.48-.41,3.54-.87,1.47-.61,2.48-1.45,3.39-2.82.53-.79.85-1.42,1.21-2.38.12-.33.41-.57.76-.64s.7.07.94.34c.57.67.75.83,1.47,1.34.39.28.53.8.33,1.24-1.37,2.96-3.07,4.86-5.52,6.16-1.12.59-2.7,1.15-4.04,1.44l-.58.12c-.24.05-.31.08-.54.15-.1.03-.21.05-.32.05Zm.69-2.28l.02.07.32-.06c1.14-.25,2.56-.76,3.52-1.26,1.86-.98,3.17-2.35,4.29-4.5-.02-.02-.04-.03-.06-.05-.23.46-.49.9-.81,1.38-1.13,1.7-2.45,2.79-4.27,3.55-.89.39-1.97.7-3,.88Zm2.1-3.69c-.27,0-.54-.11-.73-.31-1.01-1.07-2.02-1.86-3.18-2.5-.26-.14-.44-.4-.5-.69-.06-.29.02-.6.21-.82l1.27-1.53c.32-.38.86-.47,1.29-.22,1.71,1.03,2.52,1.63,3.62,2.64.38.35.43.94.11,1.34l-1.31,1.7c-.18.23-.45.37-.74.39-.02,0-.03,0-.05,0Zm-1.27-3.49c.4.3.79.63,1.17.98l.05-.07c-.38-.32-.76-.61-1.22-.92Z"/>
            <path class="cls-3" d="m108.49,23.17h-1.75c-.29,0-.56-.12-.75-.34-.19-.22-.28-.5-.24-.79.02-.17.04-.34.05-.55-.21.11-.45.14-.68.09-.35-.08-.63-.34-.74-.68-.17-.55-.37-.98-.63-1.39-.26-.4-.21-.93.14-1.27.4-.39.76-.84,1.08-1.36-.29.04-.58-.04-.79-.23-.22-.19-.35-.47-.35-.76v-1.62c0-.29.13-.58.36-.77.05-.04.1-.08.16-.11-.14-.66-.31-1.17-.54-1.73-.21-.49,0-1.05.48-1.29l1.2-.58c.11-.05.22-.08.33-.1.04-.11.1-.22.18-.31.19-.22.47-.35.76-.35h1.75c.29,0,.57.13.76.35.08.1.14.2.18.32.07.02.14.04.21.07l1.06.49.08-.09c.34-.37.9-.43,1.31-.15.26.18.48.33.68.48,0-.11-.02-.21-.04-.31-.04-.29.04-.58.23-.8.19-.22.47-.35.76-.35h1.85c.29,0,.57.13.76.35s.27.51.23.8c-.05.37-.07.66-.07,1.43v4.2c.22-.02.43.04.61.15.25.16.42.43.46.73l.21,1.74c.03.26-.04.53-.21.74-.17.21-.41.34-.67.37-.13.02-.26.03-.4.05v.95c0,.78.01,1.06.07,1.44.04.29-.04.58-.23.8s-.47.34-.76.34h-1.85c-.29,0-.57-.13-.76-.35-.19-.22-.27-.51-.23-.8.05-.37.07-.65.07-1.45v-.16l-1.33.29c-.58.12-.91.21-1.12.28-.28.1-.59.07-.85-.09-.03-.02-.06-.04-.08-.06v.03c0,.59.01.88.06,1.17.04.29-.04.58-.23.8-.19.22-.47.34-.76.34Zm5.87-4.85s.05.03.07.05c.04.03.08.07.11.11.07-.21.21-.4.4-.52-.02-.02-.05-.03-.07-.05-.04-.03-.08-.07-.12-.11-.07.21-.21.4-.4.52Zm-7.24-1.22c.11.03.21.08.3.14.09-.24.26-.44.49-.55-.07-.1-.14-.2-.21-.31-.06-.1-.11-.21-.13-.32-.01.05-.03.1-.05.16-.13.31-.26.6-.4.88Zm.22-1.92s.05.06.08.1c.07.1.12.22.15.34.02-.09.05-.18.1-.26.04-.08.1-.15.16-.22-.08-.06-.15-.13-.21-.22-.07.1-.16.19-.27.25Z"/>
            <path class="cls-3" d="m133.26,22.83s-.07,0-.11,0c-.43-.05-.96-.07-1.51-.07h-8.22c-.59,0-1.07.02-1.59.07-.28.03-.56-.06-.77-.25-.21-.19-.33-.46-.33-.74v-1.7c0-.28.12-.56.33-.74s.49-.28.78-.25c.22.02.45.04.69.05-.08-.15-.17-.29-.27-.44-.03-.05-.06-.1-.08-.15-.26.02-.53-.07-.73-.25-.22-.19-.34-.46-.34-.75v-1.66c0-.09.01-.18.03-.26-.26-.64-.35-.79-.69-1.28-.18-.26-.23-.59-.14-.89s.34-.54.64-.64c2.1-.69,3.94-1.95,4.68-3.2.18-.3.51-.49.86-.49h1.9c.32,0,.63.16.82.42.45.63.88,1.05,1.64,1.62.95.71,1.87,1.16,3.16,1.57.29.09.53.31.64.6s.08.61-.08.87c-.31.51-.49.91-.7,1.52,0,.05.01.1.01.15v1.66c0,.29-.13.57-.35.76-.22.19-.51.28-.8.23,0,.01-.01.03-.02.04-.11.22-.2.4-.27.56.25-.01.47-.03.69-.06.28-.03.57.06.78.25.21.19.34.46.34.75v1.7c0,.28-.12.55-.33.74-.18.17-.42.26-.67.26Zm-5.87-2.08h.06s-.02-.03-.03-.04c0,.02-.02.03-.03.04Zm-.19-4c.09.07.16.16.22.26.06-.1.13-.19.22-.26-.09-.07-.16-.16-.22-.26-.06.1-.13.19-.22.26Zm-2.73-3.32s.06.02.1.03c0-.03,0-.06,0-.1-.03.02-.07.04-.1.06Zm5.93-.11s.01.08.01.11c.04-.01.08-.03.11-.04-.04-.03-.08-.05-.13-.08Z"/>
          </g>
          <g>
            <path class="cls-8" d="m41.12,10.68c-.06.49-.09.9-.09,1.61l-.08,6.99c1.39-.29,2.46-.74,3.47-1.47,1.1-.79,1.89-1.7,2.52-2.94.57.79.78,1.01,1.48,1.59-1.85,2.85-4.08,4.25-7.87,4.94-.4.08-.55.12-.78.22l-.99-1.17c.1-.3.13-.49.13-1.2l.05-6.96c.01-.06.01-.12.01-.18,0-.62-.03-1.12-.08-1.47l2.21.03Z"/>
            <path class="cls-8" d="m56.93,13.38c.57,1.07.83,1.72,1.29,3.19l-1.74.53c-.35-1.42-.6-2.09-1.17-3.25l1.62-.47Zm7.53.16c-.08.22-.09.26-.19.73-.38,1.75-.94,3.18-1.7,4.3-.92,1.33-2.08,2.25-4.13,3.29-.4-.69-.58-.92-1.23-1.55.99-.38,1.55-.68,2.29-1.2,1.51-1.09,2.37-2.43,2.9-4.51.16-.64.22-1.07.23-1.5l1.85.43Zm-4.71-.69c.69,1.31.94,1.9,1.26,3.08l-1.7.52c-.25-1.03-.66-2.15-1.17-3.16l1.61-.44Z"/>
            <path class="cls-8" d="m80.99,21.7c-1.1-1.38-2.4-2.65-3.86-3.78-1.16,1.38-2.87,2.67-4.85,3.63-.43-.82-.61-1.07-1.25-1.73,1.14-.46,1.91-.87,2.89-1.59,1.43-1.04,2.57-2.3,3.41-3.76.17-.29.39-.75.69-1.42l-3.8.07c-1.08.03-1.33.04-1.82.12l-.03-1.98c.42.07.78.08,1.59.08h.25l4.43-.08c.72,0,.78-.01,1.09-.16l1,1.04c-.17.18-.27.35-.43.73-.62,1.46-1.21,2.51-1.96,3.54,1.68,1.2,2,1.48,4.23,3.6l-1.57,1.69Z"/>
            <path class="cls-8" d="m89.84,11.19c1.68,1.01,2.42,1.56,3.46,2.52l-1.31,1.7c-1.08-1.14-2.17-2-3.42-2.69l1.27-1.53Zm-1.22,8.06c1.2-.08,2.68-.43,3.87-.95,1.65-.69,2.81-1.66,3.82-3.18.58-.87.94-1.57,1.31-2.59.61.71.84.94,1.65,1.51-1.29,2.78-2.82,4.5-5.08,5.69-1.04.55-2.54,1.08-3.78,1.35q-.33.07-.57.12c-.3.07-.38.09-.65.18l-.57-2.13Z"/>
            <path class="cls-8" d="m109.76,18.32c-.13.3-.17.4-.31.78-.64-.78-.69-.86-1.09-1.52.06.78.06.85.06,1.26v2.01c0,.61.01.95.06,1.31h-1.75c.05-.4.08-.78.08-1.35v-1.43c0-.49.01-.96.04-1.33-.57,1.31-.9,1.86-1.52,2.55-.19-.62-.43-1.14-.75-1.64.83-.81,1.47-1.79,2.02-3.13h-.58c-.58,0-.87.01-1.2.07v-1.62c.3.05.57.06,1.18.06h.81v-3.08c0-.57-.01-.87-.06-1.21h1.75c-.05.31-.06.61-.06,1.2v2.17c.43-1.13.58-1.64.81-2.72l1.22.56c-.38,1.39-.6,2.02-.98,2.82l-1.05-.57v.83h.53c.52,0,.74-.01,1.01-.06v1.62c-.31-.05-.56-.07-1.04-.07h-.39c.38.58.88,1.11,1.64,1.7-.21.36-.26.46-.39.71.3-.01.78-.08,1.23-.18l2.78-.58v-5.86c0-.79-.01-1.16-.08-1.57h1.85c-.06.44-.08.79-.08,1.57v5.5c.51-.12.73-.18,1.08-.3l.21,1.74c-.35.04-.65.09-1.29.22v1.78c0,.79.01,1.13.08,1.59h-1.85c.06-.44.08-.78.08-1.6v-1.4l-2.55.56c-.61.13-.98.22-1.23.31l-.26-1.7Zm-3.86-7.62c.42,1.17.58,1.79.78,2.79l-1.21.57c-.21-1.21-.42-1.95-.77-2.78l1.2-.58Zm5.23,3.41c.99.69,1.53,1.16,2.22,1.87l-1.03,1.25c-.88-.94-1.34-1.34-2.26-1.99l1.07-1.13Zm.4-3.25c1.09.75,1.52,1.12,2.24,1.86l-1.04,1.29c-.91-.95-1.07-1.09-2.26-1.98l1.07-1.17Z"/>
            <path class="cls-8" d="m125.5,14.93c-.52,0-.9.01-1.3.05v-.58c-.69.42-1.23.69-2.05,1.03-.33-.82-.44-1.03-.86-1.61,2.33-.77,4.36-2.17,5.23-3.64h1.9c.51.71,1,1.21,1.86,1.85,1.07.79,2.08,1.29,3.46,1.72-.36.6-.57,1.07-.79,1.73-.94-.39-1.42-.62-2.17-1.09v.61c-.38-.04-.77-.05-1.33-.05h-1.16v1.07h3.13c.73,0,1.17-.03,1.48-.06v1.66c-.35-.05-.86-.08-1.49-.08h-3.12v2.69h2.47l-1.48-.55c.4-.66.66-1.22.92-2.03l1.64.56c-.58,1.21-.66,1.35-1.05,2.01h.91c.68,0,1.13-.03,1.57-.08v1.7c-.48-.05-1.05-.08-1.61-.08h-8.22c-.65,0-1.16.03-1.69.08v-1.7c.48.05.98.08,1.66.08h3.15v-2.69h-2.94c-.58,0-1.07.03-1.48.08v-1.66c.35.04.79.06,1.5.06h2.93v-1.07h-1.05Zm-.81,2.7c.42.73.69,1.3.96,2.03l-1.55.53c-.38-.92-.61-1.4-.99-1.99l1.57-.57Zm4.72-4.15c-.86-.64-1.37-1.11-1.94-1.83-.58.74-1.05,1.2-1.91,1.83h3.85Z"/>
          </g>
          <g>
            <path class="cls-8" d="m41.12,10.68c-.06.49-.09.9-.09,1.61l-.08,6.99c1.39-.29,2.46-.74,3.47-1.47,1.1-.79,1.89-1.7,2.52-2.94.57.79.78,1.01,1.48,1.59-1.85,2.85-4.08,4.25-7.87,4.94-.4.08-.55.12-.78.22l-.99-1.17c.1-.3.13-.49.13-1.2l.05-6.96c.01-.06.01-.12.01-.18,0-.62-.03-1.12-.08-1.47l2.21.03Z"/>
            <path class="cls-8" d="m56.93,13.38c.57,1.07.83,1.72,1.29,3.19l-1.74.53c-.35-1.42-.6-2.09-1.17-3.25l1.62-.47Zm7.53.16c-.08.22-.09.26-.19.73-.38,1.75-.94,3.18-1.7,4.3-.92,1.33-2.08,2.25-4.13,3.29-.4-.69-.58-.92-1.23-1.55.99-.38,1.55-.68,2.29-1.2,1.51-1.09,2.37-2.43,2.9-4.51.16-.64.22-1.07.23-1.5l1.85.43Zm-4.71-.69c.69,1.31.94,1.9,1.26,3.08l-1.7.52c-.25-1.03-.66-2.15-1.17-3.16l1.61-.44Z"/>
            <path class="cls-8" d="m80.99,21.7c-1.1-1.38-2.4-2.65-3.86-3.78-1.16,1.38-2.87,2.67-4.85,3.63-.43-.82-.61-1.07-1.25-1.73,1.14-.46,1.91-.87,2.89-1.59,1.43-1.04,2.57-2.3,3.41-3.76.17-.29.39-.75.69-1.42l-3.8.07c-1.08.03-1.33.04-1.82.12l-.03-1.98c.42.07.78.08,1.59.08h.25l4.43-.08c.72,0,.78-.01,1.09-.16l1,1.04c-.17.18-.27.35-.43.73-.62,1.46-1.21,2.51-1.96,3.54,1.68,1.2,2,1.48,4.23,3.6l-1.57,1.69Z"/>
            <path class="cls-8" d="m89.84,11.19c1.68,1.01,2.42,1.56,3.46,2.52l-1.31,1.7c-1.08-1.14-2.17-2-3.42-2.69l1.27-1.53Zm-1.22,8.06c1.2-.08,2.68-.43,3.87-.95,1.65-.69,2.81-1.66,3.82-3.18.58-.87.94-1.57,1.31-2.59.61.71.84.94,1.65,1.51-1.29,2.78-2.82,4.5-5.08,5.69-1.04.55-2.54,1.08-3.78,1.35q-.33.07-.57.12c-.3.07-.38.09-.65.18l-.57-2.13Z"/>
            <path class="cls-8" d="m109.76,18.32c-.13.3-.17.4-.31.78-.64-.78-.69-.86-1.09-1.52.06.78.06.85.06,1.26v2.01c0,.61.01.95.06,1.31h-1.75c.05-.4.08-.78.08-1.35v-1.43c0-.49.01-.96.04-1.33-.57,1.31-.9,1.86-1.52,2.55-.19-.62-.43-1.14-.75-1.64.83-.81,1.47-1.79,2.02-3.13h-.58c-.58,0-.87.01-1.2.07v-1.62c.3.05.57.06,1.18.06h.81v-3.08c0-.57-.01-.87-.06-1.21h1.75c-.05.31-.06.61-.06,1.2v2.17c.43-1.13.58-1.64.81-2.72l1.22.56c-.38,1.39-.6,2.02-.98,2.82l-1.05-.57v.83h.53c.52,0,.74-.01,1.01-.06v1.62c-.31-.05-.56-.07-1.04-.07h-.39c.38.58.88,1.11,1.64,1.7-.21.36-.26.46-.39.71.3-.01.78-.08,1.23-.18l2.78-.58v-5.86c0-.79-.01-1.16-.08-1.57h1.85c-.06.44-.08.79-.08,1.57v5.5c.51-.12.73-.18,1.08-.3l.21,1.74c-.35.04-.65.09-1.29.22v1.78c0,.79.01,1.13.08,1.59h-1.85c.06-.44.08-.78.08-1.6v-1.4l-2.55.56c-.61.13-.98.22-1.23.31l-.26-1.7Zm-3.86-7.62c.42,1.17.58,1.79.78,2.79l-1.21.57c-.21-1.21-.42-1.95-.77-2.78l1.2-.58Zm5.23,3.41c.99.69,1.53,1.16,2.22,1.87l-1.03,1.25c-.88-.94-1.34-1.34-2.26-1.99l1.07-1.13Zm.4-3.25c1.09.75,1.52,1.12,2.24,1.86l-1.04,1.29c-.91-.95-1.07-1.09-2.26-1.98l1.07-1.17Z"/>
            <path class="cls-8" d="m125.5,14.93c-.52,0-.9.01-1.3.05v-.58c-.69.42-1.23.69-2.05,1.03-.33-.82-.44-1.03-.86-1.61,2.33-.77,4.36-2.17,5.23-3.64h1.9c.51.71,1,1.21,1.86,1.85,1.07.79,2.08,1.29,3.46,1.72-.36.6-.57,1.07-.79,1.73-.94-.39-1.42-.62-2.17-1.09v.61c-.38-.04-.77-.05-1.33-.05h-1.16v1.07h3.13c.73,0,1.17-.03,1.48-.06v1.66c-.35-.05-.86-.08-1.49-.08h-3.12v2.69h2.47l-1.48-.55c.4-.66.66-1.22.92-2.03l1.64.56c-.58,1.21-.66,1.35-1.05,2.01h.91c.68,0,1.13-.03,1.57-.08v1.7c-.48-.05-1.05-.08-1.61-.08h-8.22c-.65,0-1.16.03-1.69.08v-1.7c.48.05.98.08,1.66.08h3.15v-2.69h-2.94c-.58,0-1.07.03-1.48.08v-1.66c.35.04.79.06,1.5.06h2.93v-1.07h-1.05Zm-.81,2.7c.42.73.69,1.3.96,2.03l-1.55.53c-.38-.92-.61-1.4-.99-1.99l1.57-.57Zm4.72-4.15c-.86-.64-1.37-1.11-1.94-1.83-.58.74-1.05,1.2-1.91,1.83h3.85Z"/>
          </g>
        </g>
        <g>
          <g>
            <path class="cls-8" d="m144.74,22.43c-2.1,0-3.49-.46-4.23-1.4-.42-.53-.67-1.25-.67-1.98,0-1.03.45-1.98,1.26-2.68.29-.25.56-.44.89-.64-.16-.6-.29-1.2-.46-2.05-.08-.38-.08-.41-.12-.52-.1-.28-.07-.59.08-.85.15-.26.41-.43.71-.48l1.59-.25c.28-.04.56.03.78.21.22.18.35.44.37.72.02.39.14,1.12.32,1.89.31-.1.7-.22,1.25-.39l.35-.11c.15-.04.19-.06.29-.11.26-.12.56-.12.82-.01.26.11.46.33.55.6l.51,1.56c.09.28.06.58-.09.83s-.4.42-.69.47c-.96.16-2.22.5-3.34.92-.81.3-1.18.56-1.34.72.19.04.51.09,1.07.09,1.15,0,2.43-.16,3.1-.4.29-.1.62-.06.88.11.26.17.42.45.45.76l.12,1.67c.02.27-.07.53-.25.74-.18.2-.43.32-.7.34-.15,0-.21.01-.46.04l-.34.04c-1.22.12-1.94.17-2.67.17Z"/>
            <path class="cls-8" d="m157.56,22.53c-.95,0-1.81-.22-2.44-.62-.63-.42-1.1-1.05-1.33-1.77-.13-.47-.2-1.09-.2-1.77,0-.47.01-1.14.04-2.5.03-1.4.04-2.02.04-2.32s0-.41-.04-.66c-.03-.29.06-.57.26-.78.19-.21.47-.32.76-.33l1.71.03c.29,0,.57.14.75.36.19.22.27.52.22.81-.09.51-.21,3.16-.21,4.94,0,.79.04,1.02.07,1.07.01,0,.16.07.45.07.67,0,1.15-.37,1.46-1.12.19-.48.28-.88.36-1.52.04-.36.28-.67.61-.8.33-.14.72-.09,1,.14.61.48.77.58,1.28.8.46.2.69.71.56,1.18-.46,1.63-.83,2.43-1.48,3.15-.99,1.09-2.29,1.64-3.88,1.64Z"/>
            <path class="cls-8" d="m173.96,22.45c-.07,0-.15,0-.22-.02-.1-.02-.13-.03-.25-.04-1.29-.14-2.12-.35-2.84-.73-1.38-.72-2.15-1.96-2.15-3.5,0-.61.12-1.34.51-2.08,0,0,0,0,0,0l-.62.05c-.52.05-1.04.12-1.4.18-.28.05-.57-.02-.8-.2-.23-.18-.36-.45-.38-.73l-.08-1.59c-.01-.28.09-.56.29-.76.2-.2.48-.31.75-.29.21,0,.32,0,.35,0,.19,0,.25,0,1.65-.09.74-.05,2.66-.14,5.3-.26.83-.04.87-.05.97-.07.29-.06.59,0,.82.18.23.18.38.45.39.74l.08,1.57c.02.3-.11.6-.33.8-.23.2-.53.29-.83.24-.57,0-1.24.19-1.77.49-.83.48-1.35,1.12-1.35,1.68,0,.14,0,.42.61.6.41.12.96.18,1.24.2.04,0,.09,0,.17,0,.3-.02.6.09.8.31s.31.52.27.82l-.21,1.66c-.04.28-.19.53-.42.69-.17.12-.37.18-.57.18Zm-1.37-8s.01.03.02.04c.03-.02.06-.03.1-.05-.04,0-.08,0-.11,0Z"/>
            <path class="cls-8" d="m181.92,22.9h-1.41c-.29,0-.56-.12-.75-.33-.19-.21-.28-.5-.25-.78.04-.38.05-.58.05-1.07v-2.13c-.29-.13-.5-.38-.57-.7-.12-.54-.22-.85-.43-1.34-.16-.36-.09-.79.18-1.08.5-.55.92-1.28,1.25-2.18.18-.51.27-.84.32-1.18.04-.28.19-.53.42-.69.23-.16.52-.21.79-.15l1.38.32c.27.06.51.24.65.48.04.06.06.13.08.19h.36c.01-.22.1-.44.25-.61.19-.22.46-.34.75-.34h1.35c.29,0,.57.13.76.35.15.17.23.38.24.61h.6c.45,0,.77-.02,1.12-.06.28-.03.56.06.77.25s.33.46.33.74v1.29c0,.28-.12.55-.33.74-.03.03-.07.06-.1.08-.01.19-.02.38-.02.67v1.37c0,.45,0,.62.03.86.04.3-.07.6-.28.82-.21.22-.51.33-.81.29-.27-.03-.48-.04-.89-.04h-.48c.55.11,1.2.17,2.05.19.34,0,.65.19.83.49.18.29.19.66.04.96-.19.39-.32.74-.42,1.15-.12.48-.56.8-1.06.76-1.63-.15-2.81-.43-3.86-.95-.54.38-1.15.66-1.99.93-.19.06-.39.06-.58.01-.12.05-.25.08-.39.08Z"/>
            <path class="cls-8" d="m194.41,22.71c-.29,0-.56-.12-.75-.34l-1.14-1.29c-.19-.22-.28-.5-.24-.79.04-.29.19-.54.43-.7.43-.29,1.19-.93,2.26-1.91-.16.02-.3.04-.43.06-.28.05-.57-.03-.79-.2-.22-.18-.36-.44-.38-.72l-.09-1.47c-.02-.29.09-.57.29-.77.18-.17.41-.28.65-.29-.08-.21-.09-.44-.02-.66l.42-1.34c.16-.52.71-.81,1.23-.66,1.11.32,2.38.47,4,.49.29,0,.56.13.75.35.19.22.27.51.22.8l-.21,1.37s0,.04,0,.05l.5.65c.17.22.24.51.19.79s-.21.52-.45.67c-.11.07-.15.1-.7.61-.13.12-.23.21-.32.29.11.13.21.27.29.43.18.36.21.58.27,1.17.48-.03,1-.14,1.43-.32.29-.12.62-.1.9.07.27.16.45.44.48.76l.15,1.52c.03.28-.06.56-.25.77-.19.21-.46.33-.74.33-.1,0-.23.02-.77.1-.68.1-1.12.14-1.67.14-.78,0-1.88-.12-2.5-1.12-.23-.35-.31-.69-.35-1.13-.14.12-.33.29-.57.52-.48.47-.96.99-1.31,1.41-.19.23-.46.36-.76.37h-.02Z"/>
            <path class="cls-8" d="m211.15,22.6c-1.13,0-2.08-.25-2.69-.72-.56-.41-.91-1.03-1-1.72-.03,0-.06,0-.09,0-.29-.04-.55-.21-.71-.46l-.82-1.32c-.15-.24-.19-.53-.11-.81.08-.27.27-.5.53-.62.43-.21,1.26-.79,2.17-1.53-.09,0-.17.02-.3.03-.28.04-.56-.04-.77-.23-.22-.18-.34-.44-.36-.72l-.06-1.45c-.01-.3.11-.58.33-.78.22-.2.52-.29.81-.25.3.04.58.06,1.2.06.84,0,2.08-.05,3.03-.12.17-.01.26-.02.33-.04.44-.21.99-.07,1.26.34l.73,1.06c.16.23.21.52.15.79-.06.27-.24.51-.48.64-.13.07-.15.09-.81.67.58.15,1.09.41,1.54.78.72.61,1.11,1.46,1.11,2.47,0,1.35-.68,2.48-1.9,3.19-.84.49-1.9.75-3.07.75Z"/>
          </g>
          <g>
            <path class="cls-3" d="m143.93,12.57c.04.69.31,2.05.62,3.12.56-.21.99-.34,2.59-.84.21-.06.26-.08.41-.15l.51,1.56c-1.04.17-2.34.53-3.52.96-1.4.52-2.12,1.12-2.12,1.77s.68.97,2.19.97c1.26,0,2.63-.17,3.43-.45l.12,1.67c-.23.01-.28.02-.86.08-1.12.11-1.84.16-2.57.16-1.77,0-2.91-.34-3.45-1.02-.29-.36-.45-.86-.45-1.36,0-.74.32-1.41.91-1.92.41-.35.75-.56,1.41-.89-.25-.84-.41-1.5-.66-2.74-.1-.49-.11-.52-.16-.67l1.59-.25Z"/>
            <path class="cls-3" d="m156.34,12.81c-.1.6-.23,3.34-.23,5.11,0,.99.05,1.34.25,1.63.21.33.68.51,1.28.51,1.09,0,1.92-.61,2.39-1.74.21-.54.34-1.02.43-1.78.67.52.89.67,1.5.93-.41,1.46-.73,2.16-1.26,2.75-.79.87-1.82,1.31-3.13,1.31-.76,0-1.43-.16-1.89-.46-.43-.29-.76-.73-.92-1.24-.09-.33-.15-.86-.15-1.46,0-.46.01-1.13.04-2.48.03-1.41.04-2.04.04-2.34,0-.34-.01-.48-.04-.77l1.71.03Z"/>
            <path class="cls-3" d="m166.73,13.72c.24.01.36.01.4.01.19,0,.26,0,1.71-.09.71-.05,2.47-.13,5.28-.26.9-.04.96-.05,1.15-.09l.08,1.57c-.12-.02-.15-.02-.25-.02-.67,0-1.49.24-2.18.62-1.16.67-1.85,1.61-1.85,2.55,0,.76.47,1.31,1.33,1.56.47.13,1.14.24,1.52.24.06,0,.13,0,.26,0l-.21,1.66c-.13-.03-.17-.04-.36-.06-1.15-.12-1.86-.3-2.48-.62-1.06-.55-1.62-1.44-1.62-2.62,0-1.37.74-2.5,2.16-3.32-1.01.11-1.06.11-3.35.29-.56.05-1.12.12-1.5.19l-.08-1.59Z"/>
            <path class="cls-3" d="m183.43,14.45c-.42,0-.66,0-1,.04v-1.13c-.15.48-.3.84-.57,1.45v5.91c0,.43.02.75.06,1.18h-1.41c.05-.44.06-.69.06-1.19v-2.84c0-.21,0-.33.02-1.1-.18.33-.34.54-.61.89-.13-.6-.26-.98-.49-1.53.6-.66,1.09-1.5,1.45-2.52.19-.54.31-.94.37-1.38l1.38.32c-.07.22-.08.26-.15.47-.02.06-.03.12-.05.17.28.03.72.05,1.11.05h1.47c0-.56-.02-.66-.06-.95h1.35c-.04.28-.04.46-.04.95h1.64c.49,0,.84-.02,1.23-.06v1.29c-.31-.03-.65-.04-1.05-.04h-1.82v.61h1.49c.46,0,.69-.01.97-.04-.03.28-.04.53-.04.96v1.37c0,.51.01.71.04.97-.3-.03-.53-.04-.99-.04h-1.69c-.12.58-.29,1.01-.55,1.46,1.01.48,2.02.68,3.79.73-.24.47-.39.9-.5,1.36-1.79-.16-2.96-.49-4.05-1.16-.57.52-1.18.85-2.19,1.18-.26-.51-.43-.81-.7-1.16.85-.23,1.39-.46,1.87-.8-.27-.26-.41-.41-.78-.86-.06-.07-.1-.11-.17-.19l1.11-.51.03.07c.1.17.31.42.58.68.16-.27.23-.42.32-.8h-1.48c-.31,0-.55.01-.8.04.03-.29.04-.52.04-.93v-1.43c0-.47-.01-.67-.04-.94.3.03.47.04.96.04h1.55v-.61h-1.63Zm.43,1.76v.94h1.13c.03-.3.04-.55.05-.94h-1.18Zm2.43,0c-.01.39-.03.67-.04.94h1.2v-.94h-1.16Z"/>
            <path class="cls-3" d="m194.29,15.28c.29.02.42.03.6.03,1.02,0,2.11-.06,3.75-.22.47-.05.69-.09.88-.17l.8,1.03c-.19.12-.28.2-.85.73-.61.56-.65.58-1.15,1.02-.06.05-.13.11-.24.21-.15.12-.19.16-.32.26.23-.08.34-.1.53-.1.43,0,.75.17.92.52.1.21.11.27.17.91.05.69.18.82.78.82.68,0,1.42-.15,2.02-.4l.15,1.52c-.17,0-.34.02-.92.11-.62.09-1.01.12-1.52.12-.88,0-1.37-.19-1.65-.65-.15-.24-.19-.43-.23-1.06-.03-.37-.05-.51-.1-.62-.07-.12-.23-.2-.41-.2-.45,0-.9.29-1.73,1.09-.51.5-1.01,1.04-1.38,1.5l-1.14-1.29c.66-.44,1.89-1.53,3.8-3.33.35-.34.48-.46.78-.73-.48.09-.95.14-2.28.26-.52.04-.88.08-1.19.13l-.09-1.47Zm1.3-2.7c1.22.35,2.56.51,4.26.53l-.21,1.37c-2.18-.11-3.06-.22-4.46-.56l.42-1.34Z"/>
            <path class="cls-3" d="m207.94,13c.38.05.72.07,1.33.07.88,0,2.15-.05,3.1-.12.4-.03.52-.05.7-.13l.73,1.06c-.21.12-.23.12-1.02.83-1.06.95-1.39,1.22-2.22,1.8.58-.17,1.1-.25,1.69-.25.87,0,1.59.24,2.14.7.5.42.75.98.75,1.7,0,.99-.48,1.79-1.4,2.32-.69.4-1.59.61-2.57.61-.89,0-1.65-.18-2.08-.51-.4-.3-.62-.75-.62-1.25,0-.88.8-1.55,1.88-1.55.73,0,1.37.3,1.8.83.2.25.32.46.47.88.73-.3,1.02-.69,1.02-1.33,0-.75-.76-1.23-1.94-1.23-1.5,0-2.91.58-4.18,1.72l-.82-1.32c.96-.46,3.1-2.16,4.55-3.6-.84.07-1.01.08-2.52.15-.33.02-.42.02-.73.06l-.06-1.45Zm2.39,6.45c-.31,0-.51.16-.51.41,0,.36.39.56,1.05.56.15,0,.19,0,.43-.05-.15-.6-.49-.92-.97-.92Z"/>
          </g>
        </g>
        <g>
          <path class="cls-3" d="m138.84,89.29c-2.38,0-3.76-.41-4.61-1.37-.51-.58-.8-1.35-.8-2.18,0-.13,0-.27.03-.42-.01,0-.02,0-.04,0-.29.02-.57-.08-.77-.29l-1.51-1.5c-.21-.21-.31-.49-.29-.78.02-.29.17-.56.41-.73.42-.31,1.09-1.03,1.71-1.85h0c-.11,0-.22,0-.33-.01h-.1c-.29.05-.61-.03-.84-.23s-.38-.48-.37-.77l.03-1.89c0-.3.15-.59.39-.78s.55-.25.85-.18c.24.06.85.15,2.33.15h.02c.13-.36.16-.54.19-.76.07-.54.53-.92,1.08-.88l2.17.2c.35.03.65.24.81.55.12.24.13.51.05.75,1.15-.09,2.02-.21,2.65-.38.29-.08.6-.02.85.16.24.18.39.46.41.76l.08,1.89c0,.21-.05.42-.16.59.11,0,.21.02.31.06.28.1.5.31.6.58l.74,1.9c.11.29.09.61-.07.87-.15.26-.42.44-.73.48-.4.06-.83.16-1.44.33-.28.07-.33.08-1.3.41v.7c0,.24,0,.41.01.57.55-.09,1.04-.22,1.45-.37.3-.11.62-.07.89.1.26.17.43.46.46.77l.15,2.14c.02.27-.07.53-.25.73-.18.2-.43.32-.7.34-.24.01-.31.02-.6.06-1.21.17-2.5.26-3.75.26Zm-3.22-4.19c-.12.22-.19.44-.19.64,0,.33.11.64.29.85.13.14.31.26.54.36-.41-.28-.7-.71-.7-1.39,0-.12.01-.28.06-.46Zm3.02-2.1s.09.03.13.05c.16.08.29.19.39.33v-.07c-.01-.37.18-.71.49-.9-.06-.02-.12-.04-.18-.08-.17-.09-.31-.23-.4-.39,0,0,0,.02,0,.03.07.4-.1.81-.44,1.02Zm-5.35-.13h0c.2-.2.42-.41.67-.63.43-.38.85-.69,1.26-.93-.02-.02-.03-.03-.05-.05-.11-.13-.19-.28-.22-.44-.51.75-1.1,1.48-1.66,2.05Zm7-2.85c.06.07.12.14.17.21l.08-.03c.33-.12.47-.17.85-.3l-.2.02c-.27.03-.57.06-.9.09Zm-4.84-1.54c.08.08.16.17.21.28.05.1.09.21.1.32.06-.1.12-.21.19-.34.17-.31.49-.51.85-.52.06,0,.12,0,.18,0-.06-.05-.12-.11-.16-.18-.1-.14-.16-.31-.18-.48-.04.1-.08.2-.13.31-.15.37-.52.62-.92.62h-.14Z"/>
          <path class="cls-8" d="m132.33,77.28c.52.13,1.41.18,2.56.18h.7c.35-.84.45-1.18.5-1.64l2.17.2q-.1.15-.52,1.16c-.06.13-.06.14-.11.25.21-.03.25-.03.87-.06,1.67-.1,2.82-.25,3.61-.46l.08,1.89q-.43.04-1.11.11c-1.02.13-2.84.24-4.26.28-.27.49-.46.78-.91,1.39.73-.41,1.23-.55,1.93-.55,1.13,0,1.83.48,2.09,1.41.13-.04.38-.13.74-.25.55-.2.62-.22,1.25-.43.8-.27.85-.28,1.09-.42l.74,1.9c-.41.06-.87.15-1.58.36q-.34.08-2.03.66v.46s.01.25.01.25v.7c0,.42.01.66.04.94l-1.95.06c.06-.27.08-.88.08-1.62,0-.01,0-.06-.01-.11-.57.27-.85.42-1.12.6-.43.31-.66.66-.66,1.01,0,.64.6.9,2.13.9,1.69,0,3.21-.22,4.3-.63l.15,2.14c-.27.01-.32.01-.7.07-1.18.17-2.42.25-3.6.25-2.06,0-3.22-.31-3.87-1.04-.35-.39-.55-.94-.55-1.51,0-.87.56-1.74,1.62-2.51.46-.34,1.08-.66,2.04-1.08-.07-.38-.31-.56-.71-.56-.76,0-1.71.48-2.76,1.39-.57.5-.92.88-1.27,1.34l-1.51-1.5c.78-.57,2-2.03,2.73-3.28.13-.24.14-.25.21-.35-.78,0-.9,0-1.3-.01-.27-.01-.49-.01-.53-.01-.13,0-.21,0-.24-.01h-.2c-.06,0-.13,0-.21.01l.03-1.89Z"/>
        </g>
        <g>
          <g>
            <path class="cls-3" d="m161.67,90.51c-1.49,0-2.82-.33-3.76-.92-1.54-.95-2.29-2.41-2.29-4.47,0-.18,0-.31,0-.46-.47-.07-.91-.15-1.45-.26-.18-.03-.32-.06-.57-.09-.54-.06-.93-.54-.89-1.07l.19-2.31c.03-.31.2-.6.46-.77.15-.1.33-.15.51-.15-.44-.14-.74-.56-.7-1.04l.19-2.24c.03-.31.2-.59.46-.76s.59-.2.88-.09c.52.19,1.09.32,1.88.43.1-.7.14-1.18.14-1.53v-.2c0-.28.12-.55.32-.74.21-.19.48-.28.76-.26l2.69.24c.31.03.58.19.75.45s.21.58.11.87c-.11.33-.16.5-.3,1.32.99-.05,1.7-.15,2.37-.32.3-.08.63,0,.87.19.24.2.38.5.37.81l-.08,2.38c-.02.51-.42.93-.93.96-.03,0-.06,0-.08,0,.09.03.18.08.26.14.07.05.13.12.18.19.5-.06.85-.16,1.47-.37.4-.14.84-.01,1.11.32,1.19,1.48,1.7,2.78,1.7,4.35s-.78,3.06-2.09,4.03c-1.18.91-2.71,1.37-4.54,1.37Zm-6.88-8.02c.74.15,1.26.22,2.01.32.53.07.91.53.87,1.06-.05.69-.05.85-.05,1.26,0,1.36.4,2.19,1.34,2.77.62.39,1.62.62,2.71.62,1.38,0,2.5-.33,3.33-.97.8-.59,1.29-1.52,1.29-2.44s-.24-1.67-.85-2.55c-.09.03-.18.05-.27.07.4.69.61,1.4.61,2.1,0,1.66-1.1,3.43-4.18,3.43-1.12,0-1.98-.27-2.64-.83-.63-.58-.93-1.34-.93-2.36,0-.36.02-.77.06-1.12.05-.52.51-.92,1.02-.9.58.02.71.02.89.02.68,0,1.54-.05,2.18-.12v-.2c-.69.1-1.47.15-2.35.15-.13,0-.36,0-.66-.02-.28-.02-.53-.15-.71-.36-.18-.21-.26-.49-.22-.76.11-.86.16-1.22.26-1.9l.03-.21c.07-.49.49-.86.99-.86h.26c1.22,0,1.44-.02,2.49-.1.13-.01.25-.02.35-.03v-.24c-.73.1-1.58.15-2.72.17-.3,0-.58-.12-.77-.34s-.28-.52-.24-.81c.12-.76.19-1.27.26-1.64l-.48-.04c-.05.49-.13,1.09-.25,1.9-.08.52-.56.89-1.08.84-.85-.08-1.51-.17-2.09-.3v.13c1,.21,1.29.26,2.01.33.27.03.52.17.69.39.17.22.24.49.19.77q-.17,1.05-.28,2.03c-.03.27-.17.51-.38.67-.21.16-.48.23-.74.2-.85-.11-1.44-.2-1.95-.31v.17Zm5.25,2.48h0c0,.63.17.79.25.86.26.22.69.33,1.31.33,2.18,0,2.18-1.08,2.18-1.43,0-.06,0-.12-.01-.19-.22.17-.5.18-.77.22l-.27.03c-.7.1-1.81.17-2.69.18Zm.36-4.29v.1c.77-.02,1.44-.09,2.03-.21-.92.07-1.26.1-2.03.1Zm-6.13-.6c.51.19.92.3,1.74.43,0-.03,0-.06.01-.08-.37-.06-.79-.15-1.46-.29-.13-.02-.2-.04-.29-.06Z"/>
            <path class="cls-3" d="m181.29,90.34c-1.51,0-2.66-.14-4.54-.57-.45-.1-.77-.5-.78-.96-.02-1.04-.06-1.42-.28-2.38-.04-.16-.03-.31,0-.46l-.58-.02c-.29,0-.55-.14-.74-.36-.18-.22-.26-.51-.22-.79l.07-.46c.13-1.11.42-3.28.78-5.64.04-.32.06-.52.08-.82v-.14c.06-.54.54-.95,1.07-.91l.3.02s0,0,0,0c-.09-.27-.06-.56.08-.8l1.19-2.09c.27-.47.87-.64,1.35-.38,1.12.61,4.39,1.55,6.26,1.81.3.04.56.21.72.47.16.26.19.57.09.85l-.82,2.35c-.17.48-.66.76-1.16.65-1.83-.4-3.31-.79-4.64-1.24-.1.43-.25,1.23-.4,2.1,1.09-.43,2.26-.63,3.67-.63,3.57,0,5.96,1.92,5.96,4.77,0,1.68-.85,3.28-2.27,4.26-1.37.94-3.02,1.38-5.21,1.38Zm-3.34-2.36c1.29.26,2.21.36,3.34.36,1.78,0,3.04-.32,4.07-1.03.88-.61,1.4-1.58,1.4-2.61,0-2.04-2.05-2.77-3.96-2.77-1.63,0-2.82.3-3.98,1.02,1.13-.54,2.39-.81,3.69-.81,2.65,0,3.6,1.37,3.6,2.65,0,1.94-2,3.24-4.98,3.24-1.01,0-2.05-.13-3.22-.42.01.12.02.24.03.37Zm.45-2.32c1,.24,1.9.36,2.74.36,1.7,0,2.98-.53,2.98-1.24,0-.63-1.44-.65-1.6-.65-1.25,0-2.49.35-3.49.98-.26.17-.35.23-.62.55Zm-2.11-1.67l.9.03c.23-.23.44-.39.76-.59.02-.01.04-.03.07-.04-.23.04-.48,0-.69-.13-.34-.21-.53-.59-.48-.99.14-1.04.36-2.37.55-3.36l-.39-.02s0,.06-.01.09c-.3,1.99-.55,3.81-.7,5.02Zm2.54-7.93c1.4.56,2.92,1.02,4.9,1.48l.14-.39c-1.62-.33-3.56-.9-4.85-1.42l-.19.33Z"/>
            <path class="cls-3" d="m199.47,90.37c-1.21,0-2.59-.44-3.6-1.15-1.19-.8-1.85-1.93-1.85-3.16,0-1.17.66-2.39,1.85-3.44.57-.49,1.24-.91,2.16-1.35v-.66c-.26,0-.43.01-.54.01-.15,0-.21,0-1.1-.04h-.25c-.07,0-.19,0-.33.01-.27.02-.55-.07-.76-.25-.21-.19-.33-.45-.33-.73l-.02-2.26c0-.3.13-.59.37-.79.24-.19.55-.26.85-.2.36.08,1.08.13,1.92.13.06,0,.1,0,.17,0,0-1-.02-1.36-.09-1.84-.04-.29.04-.58.23-.8.19-.22.47-.35.76-.35h2.52c.29,0,.57.13.76.34.19.22.28.51.23.8-.07.48-.09.77-.09,1.52.68-.11,1.36-.26,1.91-.43.22-.07.46-.05.67.03l1.5-1.06c.36-.26.85-.24,1.2.03,1.6,1.27,2.65,2.4,3.61,3.89.28.43.19,1.01-.22,1.33l-1.89,1.5s-.06.04-.09.06c1.01.95,1.59,2.3,1.59,3.73,0,2.89-2.17,5.06-5.05,5.06-1.52,0-2.69-.6-3.4-1.7-.07.23-.17.44-.31.65-.45.69-1.35,1.12-2.38,1.12Zm-.44-11.79c.26,0,.51.1.7.29.19.19.3.45.3.71v2.33c0,.4-.23.76-.6.92-1.05.46-1.72.85-2.25,1.3-.73.64-1.17,1.36-1.17,1.93s.33,1.08.99,1.52c.69.48,1.67.8,2.47.8.42,0,.66-.15.73-.24.09-.12.13-.38.13-1.42v-3.2c0-.44.29-.83.71-.96,1.14-.35,2.13-.5,3.23-.5,2.33,0,3.89,1.28,3.89,3.19,0,1.52-1.07,2.67-2.48,2.67-.71,0-1.86-.29-2.08-2.09-.06.02-.13.05-.2.07.15,2.42,1.67,2.42,2.18,2.42,1.79,0,3.05-1.26,3.05-3.06,0-1.03-.48-1.98-1.29-2.55-.74-.49-1.74-.74-3.03-.74-1.05,0-1.62.07-2.77.33-.3.07-.61,0-.85-.19-.24-.19-.38-.48-.38-.78v-1.85c0-.51.38-.94.89-.99.76-.08,1.21-.15,2.04-.28.13-.02.24-.04.33-.06v-.16c-.71.15-1.46.27-2.15.34-.28.03-.56-.06-.77-.25-.21-.19-.33-.46-.33-.74v-.83c0-.4,0-.7.01-.97h-.34c0,.3.01.65.01,1.11v.85c0,.5-.37.92-.86.99-.17.02-.17.03-.48.03-.62.02-.69.02-.83.02-.34,0-.74,0-1.13-.03v.13c.62.02.66.02.79.02.11,0,.28,0,.53-.01l.98-.02h.02Zm6.6,5.76s0,.03,0,.05c-.06.34-.07.55-.07.76,0,.63.1.79.11.79.37-.04.49-.4.49-.71,0-.44-.22-.72-.52-.9Zm-.84-4.38c.86.04,1.63.17,2.31.41-.44-.62-.96-1.22-1.52-1.77v.34c.03.5-.32.93-.8,1.02Zm1.94-3.04c.74.7,1.42,1.48,2,2.28l.3-.24c-.59-.79-1.23-1.47-2.09-2.2l-.21.15Zm-8.02,11.1c-.46,0-1.01-.18-1.48-.48-.77-.49-.93-1.09-.93-1.5,0-.97.86-1.98,2.29-2.68.31-.15.68-.13.97.05.29.18.47.5.47.85v2.07c0,1.4-.72,1.7-1.32,1.7Z"/>
            <path class="cls-3" d="m221,90.61c-.46,0-.87-.32-.97-.78-.23-.98-.37-1.33-.91-2.19-.19-.3-.2-.68-.04-.99s.48-.52.83-.54c2.66-.16,4.32-.59,5.38-1.41.43-.33.93-.87.93-1.62,0-.21-.08-.4-.21-.48-.26-.15-.67-.22-1.23-.22-1.85,0-5.01.54-6.51,1.11-.27.1-.58.08-.83-.06s-.44-.39-.5-.67l-.56-2.67c-.06-.29,0-.58.18-.81.18-.23.45-.37.74-.39q.56-.03,2-.28c.86-.14,1.6-.26,2.28-.34-.83-.14-1.65-.31-2.49-.5-.27-.06-.5-.24-.64-.48-.14-.24-.17-.53-.08-.8l.76-2.4c.17-.53.73-.82,1.26-.65,1.89.6,4.21.92,6.72.92.11,0,.4,0,.81-.02.3,0,.58.11.78.32.2.22.29.51.25.8l-.32,2.48c-.04.28-.18.51-.39.67.46.21.87.47,1.22.78.96.87,1.51,2.18,1.51,3.6,0,2.41-1.42,4.57-3.9,5.93-1.58.85-3.01,1.26-5.9,1.66-.05,0-.09,0-.14,0Zm.56-2.63c.07.16.13.33.18.51,2.06-.32,3.15-.66,4.34-1.31,1.82-.99,2.86-2.51,2.86-4.17,0-.86-.31-1.63-.85-2.12-.63-.56-1.67-.86-3-.86-1.64,0-3.02.14-5.48.55-.48.08-.82.14-1.07.18l.11.51c1.83-.5,4.4-.89,6.12-.89.94,0,1.67.16,2.24.49.74.43,1.21,1.28,1.21,2.21,0,1.23-.61,2.37-1.72,3.21-1.15.88-2.71,1.42-4.95,1.68Zm-.97-11.92c1.96.4,3.89.64,6.15.74l.06-.43c-2.2-.02-4.27-.27-6.07-.74l-.14.43Z"/>
            <path class="cls-3" d="m243.15,89.97h-2.91c-.55,0-1-.45-1-1v-2.75c0-.33.16-.62.4-.8-.09-.16-.14-.34-.13-.53l.02-.44c0-.13.01-.22.01-.32q0-.21-.05-1.17l-.29-5.59c-.03-.71-.1-1.52-.17-2.11-.03-.28.06-.57.25-.78.19-.21.46-.34.75-.34h3.31c.29,0,.56.12.75.34s.28.51.24.79c-.06.4-.13,1.15-.16,2.08l-.29,5.61q-.05.99-.05,1.19c0,.09,0,.18.01.3l.02.44c0,.19-.04.37-.13.53.24.18.4.47.4.8v2.75c0,.55-.45,1-1,1Zm-1.91-2h.91v-.75h-.91v.75Zm.3-4.05h.3c0-.15.02-.4.05-1.07l.29-5.6c.01-.38.04-.76.06-1.12h-1.11c.03.38.05.77.07,1.13l.29,5.58c.04.7.05.93.05,1.07Z"/>
          </g>
          <g>
            <path class="cls-8" d="m153.9,81.01c.8.31,1.41.42,2.98.63q.12-1,.29-2.07c-.82-.08-1.12-.14-2.4-.41-.25-.05-.34-.07-.59-.1l.19-2.24c.78.29,1.65.46,3.08.59.2-1.31.29-2.07.29-2.63v-.2l2.69.24c-.19.54-.24.78-.53,2.69,1.73-.03,2.77-.14,3.79-.39l-.08,2.38q-.26.02-1.24.1c-1.09.08-1.33.1-2.57.1h-.26c-.12.82-.17,1.16-.29,2.09.27.02.48.02.59.02,1.34,0,2.46-.12,3.38-.37l-.05,2.33c-.19,0-.22.02-.54.05-.71.1-1.8.17-2.62.17-.19,0-.32,0-.92-.02-.03.32-.05.7-.05,1.02,0,.75.19,1.24.58,1.6.46.39,1.1.6,1.99.6,2.02,0,3.18-.88,3.18-2.43,0-.94-.51-1.92-1.48-2.86,1.12-.07,1.55-.15,2.52-.49,1.05,1.31,1.48,2.38,1.48,3.72,0,1.22-.63,2.45-1.68,3.23-1.02.78-2.35,1.17-3.94,1.17-1.27,0-2.45-.27-3.23-.77-1.24-.76-1.82-1.9-1.82-3.62,0-.42,0-.59.05-1.33-.82-.1-1.41-.19-2.29-.37-.19-.03-.36-.07-.66-.1l.19-2.31Z"/>
            <path class="cls-8" d="m178.63,77.99c-.19.66-.58,2.87-.78,4.42,1.46-1.04,2.92-1.48,4.96-1.48,3.03,0,4.96,1.48,4.96,3.77,0,1.36-.68,2.63-1.84,3.43-1.21.83-2.67,1.21-4.64,1.21-1.43,0-2.52-.14-4.32-.54-.02-1.09-.07-1.55-.31-2.58,1.68.54,3.13.82,4.47.82,2.38,0,3.98-.9,3.98-2.24,0-1.04-.97-1.65-2.6-1.65-1.46,0-2.87.41-4.03,1.14-.37.24-.53.37-.87.76l-2.46-.08c.03-.22.03-.24.07-.46.15-1.26.44-3.4.78-5.64.05-.41.07-.63.1-1.02l2.52.15Zm-.02-3.54c1.22.66,4.62,1.65,6.6,1.92l-.82,2.35c-2.96-.65-5-1.27-6.97-2.18l1.19-2.09Z"/>
            <path class="cls-8" d="m204.6,78.99c-.34.03-.49.05-1.21.19-.85.14-1.31.2-2.09.29v1.85c1.19-.27,1.84-.36,2.99-.36,1.5,0,2.69.31,3.6.92,1.07.75,1.72,1.99,1.72,3.37,0,2.35-1.72,4.06-4.05,4.06-2.06,0-3.2-1.36-3.2-3.81,0-.07,0-.2.02-.36,1.05-.31,1.39-.44,2.24-.92-.07.39-.08.66-.08.94,0,1.22.34,1.75,1.12,1.75.85,0,1.48-.7,1.48-1.67,0-1.34-1.1-2.19-2.89-2.19-.99,0-1.89.14-2.94.46v3.2c0,1.27-.05,1.63-.29,1.97-.29.44-.88.7-1.56.7-.99,0-2.18-.37-3.03-.97-.94-.63-1.43-1.44-1.43-2.35s.54-1.84,1.51-2.69c.61-.53,1.38-.97,2.5-1.46v-2.33c-.85.02-1.31.03-1.53.03-.15,0-.19,0-1.07-.03h-.29c-.08,0-.24,0-.42.02l-.02-2.26c.46.1,1.24.15,2.14.15.15,0,.2,0,.83-.02q.22,0,.34-.02v-.85c0-1.1-.02-1.53-.1-2.11h2.52c-.08.59-.1.95-.1,1.97v.83c1.05-.1,2.29-.34,3.2-.61l.08,2.29Zm-5.58,5.27c-1.04.51-1.73,1.22-1.73,1.78,0,.24.15.46.48.66.29.19.66.32.94.32.25,0,.32-.14.32-.7v-2.07Zm9.47-3.59c-.83-1.38-2.02-2.74-3.38-3.82l1.87-1.33c1.51,1.21,2.48,2.24,3.4,3.65l-1.89,1.5Z"/>
            <path class="cls-8" d="m217.35,79.89q.61-.03,2.11-.29c2.45-.41,3.91-.56,5.64-.56,1.6,0,2.86.39,3.67,1.12.75.68,1.17,1.72,1.17,2.86,0,2.02-1.24,3.88-3.38,5.05-1.44.78-2.75,1.16-5.56,1.55-.25-1.1-.44-1.55-1.04-2.5,2.86-.17,4.69-.66,5.93-1.61.85-.65,1.33-1.5,1.33-2.41,0-.58-.27-1.09-.71-1.34-.41-.24-.97-.36-1.73-.36-1.99,0-5.25.56-6.87,1.17l-.56-2.67Zm2.72-5.49c1.97.63,4.39.97,7.02.97.12,0,.42,0,.85-.02l-.32,2.48c-3.23-.1-5.71-.43-8.31-1.04l.76-2.4Z"/>
            <path class="cls-8" d="m240.52,84.92c.02-.43.03-.61.03-.8q0-.22-.05-1.22l-.29-5.59c-.03-.77-.1-1.6-.17-2.18h3.31c-.07.49-.14,1.29-.17,2.18l-.29,5.59q-.05,1.04-.05,1.24c0,.19.02.36.03.78h-2.36Zm-.27,4.05v-2.75h2.91v2.75h-2.91Z"/>
          </g>
        </g>
        <g>
          <g>
            <path class="cls-8" d="m114.69,61.69c-1.19,0-2.24-.27-3.03-.78-.8-.54-1.4-1.33-1.7-2.25-.17-.59-.25-1.35-.25-2.17,0-.55.01-1.33.05-2.94.04-1.63.05-2.36.05-2.71,0-.33-.01-.46-.04-.74-.05-.43.09-.86.38-1.17s.71-.49,1.13-.49l2,.04c.44,0,.85.21,1.13.54.28.34.4.78.32,1.21-.09.53-.24,3.56-.24,5.73,0,.55.02.84.03.99.3.05,1.15.17,1.66-1.09.18-.45.3-.87.4-1.7.07-.54.42-1,.92-1.2.5-.21,1.07-.13,1.5.21.72.57.88.66,1.43.9.68.3,1.04,1.06.84,1.78-.47,1.67-.91,2.83-1.8,3.82-1.22,1.35-2.83,2.03-4.79,2.03Zm-.13-4.61h.01-.01Z"/>
            <path class="cls-8" d="m132.3,61.6c-.11,0-.23-.01-.34-.04-.1-.02-.13-.03-.25-.04-1.56-.17-2.56-.43-3.44-.9-1.73-.9-2.69-2.46-2.69-4.39,0-.61.09-1.33.39-2.07h-.17c-.58.07-1.19.14-1.61.22-.43.08-.86-.03-1.2-.3-.34-.27-.55-.67-.57-1.1l-.1-1.86c-.02-.42.14-.83.43-1.13.3-.3.7-.46,1.13-.44.24.01.36.01.4.01.22,0,.29,0,1.91-.1.87-.06,3.11-.17,6.22-.3.95-.04.99-.05,1.08-.07.43-.1.88,0,1.23.27.35.27.57.68.59,1.12l.1,1.84c.02.46-.16.9-.5,1.2-.34.3-.8.44-1.25.36h-.01c-.56,0-1.28.21-1.84.53-.85.49-1.41,1.15-1.41,1.68,0,.1,0,.25.47.38.44.13,1.08.21,1.37.22.04,0,.09,0,.17,0,.45-.04.89.13,1.21.46.31.33.46.78.4,1.23l-.25,1.94c-.05.42-.28.8-.63,1.04-.25.18-.55.27-.86.27Z"/>
          </g>
          <g>
            <path class="cls-3" d="m113.26,49.98c-.12.71-.26,3.91-.26,5.98,0,1.16.06,1.57.29,1.91.25.38.79.6,1.5.6,1.27,0,2.25-.72,2.79-2.04.25-.64.4-1.2.5-2.09.78.61,1.04.78,1.75,1.09-.48,1.71-.85,2.53-1.48,3.23-.92,1.02-2.13,1.54-3.67,1.54-.89,0-1.68-.19-2.22-.54-.5-.34-.89-.85-1.08-1.45-.11-.38-.18-1.01-.18-1.72,0-.54.01-1.32.05-2.9.04-1.65.05-2.39.05-2.75,0-.4-.01-.56-.05-.9l2,.04Z"/>
            <path class="cls-3" d="m123.83,51.04c.28.01.42.01.47.01.23,0,.3,0,2-.11.83-.06,2.89-.16,6.19-.3,1.06-.05,1.13-.06,1.34-.11l.1,1.84c-.14-.02-.18-.02-.29-.02-.78,0-1.75.28-2.55.73-1.35.78-2.17,1.88-2.17,2.99,0,.89.55,1.54,1.56,1.82.55.16,1.33.28,1.77.28.07,0,.16,0,.3-.01l-.25,1.94c-.16-.04-.2-.05-.42-.07-1.34-.14-2.18-.35-2.9-.73-1.25-.65-1.9-1.69-1.9-3.07,0-1.61.86-2.93,2.53-3.89-1.19.13-1.25.13-3.92.34-.66.06-1.31.14-1.76.23l-.1-1.86Z"/>
          </g>
        </g>
        <g>
          <g>
            <path class="cls-3" d="m29.65,90.1h-3.06c-.28,0-.55-.12-.74-.33-.19-.21-.28-.49-.25-.77.08-.74.11-1.44.11-2.5v-4.78c-.25,1.01-.68,2.27-1.2,3.47-.55,1.24-.96,1.98-1.77,3.15-.31.45-.92.57-1.38.27-1.1-.74-1.42-.9-2.42-1.28-.3-.11-.52-.36-.61-.66-.09-.3-.02-.63.17-.88,1.23-1.61,1.88-2.88,2.48-4.87.24-.8.35-1.32.42-1.99,0-.02,0-.05.01-.07-.4.01-.7.04-1.13.07-.28.02-.56-.07-.76-.26-.21-.19-.32-.46-.32-.74v-2.75c0-.29.12-.56.34-.75.22-.19.51-.28.79-.24.8.1,1.09.12,2.61.12h2.78c0-.8-.05-1.32-.11-1.83-.03-.28.06-.57.25-.78.19-.21.46-.33.75-.33h3.08c.29,0,.56.12.75.34s.28.5.24.78c-.07.54-.1,1.11-.11,1.82h1.56c-.04-.21-.07-.43-.07-.65,0-1.71,1.39-3.11,3.11-3.11s3.09,1.39,3.09,3.11c0,.87-.36,1.69-.99,2.27v2.02c0,.29-.12.56-.34.75-.21.19-.5.28-.78.24-.48-.06-.78-.09-1.4-.1.12.55.25,1,.58,1.95.79,2.18,1.46,3.5,2.45,4.88.17.23.23.53.16.81-.07.28-.25.52-.51.66-1.32.7-1.58.85-2.51,1.48-.23.16-.51.21-.78.15-.27-.06-.5-.23-.64-.47-1.4-2.4-2.11-4.07-2.94-6.97v5.17c0,.93.03,1.87.09,2.51.02.28-.07.56-.26.76s-.46.32-.74.32Zm-1.98-2h.92c-.02-.5-.03-1.05-.03-1.6v-8.66c0-.55.45-1,1-1h3.97c.81,0,1.32,0,1.74.02v-1.29c-.15,0-.3,0-.44-.03,0,.03-.02.06-.03.1-.14.4-.52.68-.95.68h-4.29c-.55,0-1-.45-1-1v-.74c0-.44,0-.84.03-1.2h-.9c.02.37.03.75.03,1.2v.74c0,.55-.45,1-1,1h-3.78c-.81,0-1.31,0-1.74-.03v.58c.42-.02.91-.02,1.74-.02h3.78c.55,0,1,.45,1,1v8.66c0,.62-.01,1.13-.03,1.6Zm-6.83-2.15c.26.13.51.27.79.44.41-.65.69-1.2,1.05-2.01.52-1.22.97-2.57,1.17-3.51.04-.17.07-.32.1-.45l-.73-.17c-.08.38-.18.77-.32,1.23-.53,1.78-1.13,3.09-2.06,4.47Zm11.53-5.56c.72,2.58,1.3,4.08,2.34,5.98.25-.16.5-.3.81-.47-.78-1.23-1.38-2.54-2.07-4.43-.17-.49-.3-.88-.41-1.24l-.66.17Zm-6.68-1.55s.01,0,.02.01h-.02Zm4.87,0h0s0,0,0,0h0Zm4.6-5.27s-.09.02-.09.07c0,.11.16.09.16,0,0-.04-.03-.07-.07-.07Z"/>
            <path class="cls-3" d="m54.02,90.01h-3.13c-.29,0-.56-.12-.75-.34-.19-.22-.28-.5-.24-.79.09-.67.11-1.11.11-2.62v-4.06c-1.31.69-2.6,1.22-5.15,2.17-.49.18-1.05-.05-1.26-.54-.48-1.09-.66-1.4-1.41-2.37-.2-.26-.26-.61-.16-.93.1-.32.36-.56.68-.65,3.72-1.03,6.79-2.55,9.67-4.77,1.55-1.19,2.77-2.41,3.27-3.24.14-.24.37-.4.64-.46.27-.06.55,0,.78.15l2.6,1.77c.26.17.42.46.44.77.02.31-.11.61-.35.82-.36.3-.39.34-.64.61-1.35,1.4-2.72,2.61-4.17,3.7v6.98c0,1.51.02,2.11.09,2.69.03.28-.06.57-.25.78-.19.21-.46.34-.75.34Zm-2.04-2h.97c-.02-.45-.02-1.01-.02-1.81v-7.48c0-.32.15-.62.42-.81,1.47-1.06,2.83-2.24,4.17-3.61l-.78-.53c-.73.89-1.81,1.9-3.15,2.93-2.73,2.11-5.61,3.62-8.99,4.7.15.24.29.49.43.77,2.68-1.01,3.72-1.5,5.46-2.54.31-.18.69-.19,1.01-.01.31.18.51.51.51.87v5.77c0,.8,0,1.33-.02,1.75Z"/>
            <path class="cls-3" d="m67.86,89.47c-.16,0-.33-.04-.47-.12-.24-.13-.42-.35-.49-.62l-.84-3.12c-.08-.29-.02-.6.15-.84.17-.24.45-.4.75-.42,1.69-.11,3.73-.61,5.33-1.31,2.23-.93,3.76-2.21,5.15-4.29.8-1.19,1.28-2.13,1.81-3.57.12-.33.41-.57.76-.64.35-.06.7.07.93.34.86,1,1.15,1.27,2.23,2.04.39.28.53.8.33,1.24-1.96,4.23-4.39,6.94-7.87,8.79-1.59.84-3.86,1.65-5.78,2.07l-.84.17c-.38.08-.48.12-.84.23-.1.03-.21.05-.32.05Zm.43-3.24l.27,1.01s.02,0,.03,0l.85-.17c1.71-.38,3.83-1.13,5.26-1.88,2.91-1.54,4.92-3.69,6.63-7.12-.31-.24-.57-.45-.82-.69-.4.88-.84,1.64-1.42,2.51-1.6,2.4-3.46,3.95-6.03,5.02-1.42.62-3.17,1.1-4.78,1.33Zm3.65-5.47c-.27,0-.54-.11-.73-.31-1.5-1.59-3.01-2.78-4.75-3.74-.26-.14-.44-.4-.5-.69-.06-.29.02-.6.21-.82l1.86-2.24c.32-.38.86-.47,1.29-.22,2.46,1.49,3.63,2.34,5.21,3.81.38.35.43.94.11,1.35l-1.92,2.49c-.18.23-.45.37-.74.39-.02,0-.03,0-.05,0Zm-3.48-5.2c1.2.76,2.3,1.63,3.38,2.68l.65-.85c-1.02-.89-1.95-1.56-3.48-2.5l-.56.67Z"/>
            <path class="cls-3" d="m95.14,89.95h-3.1c-.29,0-.56-.12-.75-.34-.19-.22-.28-.5-.24-.79.09-.69.11-1.34.11-2.55v-11.25c0-1.35-.02-1.82-.1-2.4-.04-.29.04-.58.23-.8.19-.22.47-.34.76-.34h3.1c.29,0,.56.12.75.34.19.22.28.5.24.79-.09.67-.11,1.07-.11,2.42v2.18c2.83,1.01,5.3,2.18,8.15,3.84.47.28.64.88.37,1.36l-1.56,2.74c-.14.24-.37.42-.65.48-.27.06-.56,0-.79-.15-1.46-1-3.56-2.16-5.52-3.06v3.91c0,1.25.04,1.9.11,2.54.03.28-.06.56-.25.77-.19.21-.46.33-.74.33Zm-2.01-2h.93c-.02-.48-.03-1-.03-1.64v-5.47c0-.35.18-.68.49-.86.3-.18.67-.19.98-.03.25.13.32.17.64.3,1.89.82,3.99,1.93,5.63,2.96l.54-.94c-2.59-1.45-4.91-2.5-7.6-3.42-.4-.14-.68-.52-.68-.95v-2.89c0-.69,0-1.16.02-1.55h-.91c.02.4.02.88.02,1.55v11.25c0,.69,0,1.22-.03,1.68Z"/>
          </g>
          <g>
            <path class="cls-8" d="m25.15,79.68c-.06.23-.08.3-.32,1.41-.23,1.08-.72,2.51-1.23,3.7-.51,1.16-.89,1.84-1.67,2.98-1.14-.76-1.52-.97-2.62-1.39,1.31-1.71,2.01-3.1,2.64-5.19.27-.89.38-1.46.46-2.17l2.75.65Zm11.11-1.73c-.78-.09-1.14-.11-2.74-.11h-3.97v8.66c0,1.01.04,1.96.1,2.6h-3.06c.08-.72.11-1.44.11-2.6v-8.66h-3.78c-1.52,0-1.88.02-2.74.09v-2.75c.87.11,1.22.13,2.74.13h3.78v-.74c0-.93-.04-1.54-.11-2.2h3.08c-.08.63-.11,1.29-.11,2.2v.74h4.29c-.51-.4-.8-1.01-.8-1.65,0-1.16.95-2.11,2.11-2.11s2.09.93,2.09,2.11c0,.72-.36,1.39-.99,1.79v2.51Zm-2.51,1.06c.13.65.28,1.14.63,2.11.84,2.3,1.54,3.69,2.58,5.13-1.37.72-1.65.89-2.6,1.54-1.48-2.55-2.15-4.18-3.06-7.5-.06-.23-.1-.34-.21-.61l2.66-.67Zm.47-5.38c0,.51.42.93.93.93s.91-.42.91-.93-.42-.91-.91-.91-.93.42-.93.91Z"/>
            <path class="cls-8" d="m59.09,74.15c-.4.34-.44.38-.72.68-1.44,1.5-2.89,2.75-4.45,3.88v7.48c0,1.52.02,2.17.1,2.81h-3.13c.1-.72.11-1.2.11-2.75v-5.77c-1.98,1.18-3.06,1.67-6.5,2.94-.51-1.18-.74-1.56-1.54-2.58,3.84-1.06,7.01-2.62,10.01-4.94,1.67-1.29,2.94-2.56,3.51-3.51l2.6,1.77Z"/>
            <path class="cls-8" d="m68.8,73.58c2.45,1.48,3.53,2.28,5.05,3.69l-1.92,2.49c-1.58-1.67-3.17-2.93-5-3.93l1.86-2.24Zm-1.79,11.78c1.75-.11,3.91-.63,5.66-1.39,2.41-1.01,4.1-2.43,5.58-4.65.85-1.27,1.37-2.3,1.92-3.78.89,1.04,1.23,1.37,2.41,2.2-1.88,4.07-4.12,6.57-7.43,8.32-1.52.8-3.7,1.58-5.53,1.98q-.48.09-.84.17c-.44.09-.55.13-.95.27l-.84-3.12Z"/>
            <path class="cls-8" d="m92.05,88.95c.1-.72.11-1.39.11-2.68v-11.25c0-1.35-.02-1.88-.11-2.55h3.1c-.1.72-.11,1.16-.11,2.55v2.89c2.94,1.01,5.55,2.19,8.64,3.99l-1.56,2.74c-1.69-1.16-4.18-2.51-6.36-3.46-.36-.15-.44-.19-.72-.34v5.47c0,1.22.04,1.92.11,2.64h-3.1Z"/>
          </g>
        </g>
        <g>
          <g>
            <path class="cls-8" d="m24.93,61.74c-.57,0-1.1-.32-1.36-.86-.05-.11-.1-.21-.15-.3-.16.16-.33.32-.5.48-.31.29-.74.44-1.16.4-.43-.04-.82-.25-1.07-.6-.63-.84-.88-1.08-1.36-1.4-.39-.26-.63-.68-.66-1.15-.03-.46.15-.92.5-1.23,1.47-1.31,2.33-2.43,3.04-4.02.42-.93.75-1.94.97-3h-.47c-1.19,0-1.77.05-2.01.09-.43.06-.86-.07-1.19-.35-.33-.29-.51-.7-.51-1.13v-2.31c0-.43.19-.84.51-1.13.32-.29.76-.42,1.18-.36.6.08,1.17.11,2.02.11h.98c0-.21-.02-.38-.04-.64-.04-.43.11-.85.4-1.17.29-.31.71-.48,1.14-.47l2.57.08c.45.01.87.23,1.14.58.27.36.37.81.27,1.25-.03.13-.05.21-.07.36h4.79c.85,0,1.4-.03,2.02-.11.43-.05.86.08,1.18.36.32.28.51.69.51,1.12v2.31c0,.43-.19.84-.51,1.13-.33.28-.76.42-1.19.36-.19-.03-.37-.04-.58-.06l.08.08c.42.46.52,1.13.24,1.69h0c-.08.16-.12.25-.43.99-.25.62-.96,1.87-1.47,2.64.82.34,1.77.61,2.97.87.49.11.9.46,1.08.92.18.47.11,1-.18,1.41-.47.66-.71,1.13-1.01,1.91-.28.75-1.09,1.15-1.85.91-2.14-.67-3.51-1.25-4.86-2.11-1.24.89-2.53,1.52-4.47,2.21-.17.06-.34.09-.51.09Zm1.08-10.54c-.06.25-.12.49-.19.74.09-.02.19-.04.28-.05.1,0,.19,0,.29,0,.02-.13.06-.26.11-.38-.18-.07-.34-.18-.48-.31Zm.1-3.57s0,0,.01.01c.06-.08.13-.15.21-.21,0,0,0-.01-.01-.02-.06.08-.13.15-.21.22Z"/>
            <path class="cls-8" d="m43.52,61.53c-.14,0-.27-.02-.41-.06-.44-.12-.8-.44-.97-.86l-.97-2.31c-.16-.38-.16-.81.01-1.19.17-.38.48-.67.87-.81.17-.06.69-.37,1.25-.8v-1.2c-.06,0-.12.02-.19.03-.43.07-.87-.06-1.2-.34-.33-.28-.52-.7-.52-1.14v-2.19c0-.43.19-.85.52-1.13.33-.29.76-.41,1.19-.35.34.05.51.07.94.07-.59-.74-1.12-1.28-2.15-2.19-.31-.28-.5-.68-.5-1.1,0-.42.17-.83.47-1.11l1.63-1.53c.55-.52,1.4-.54,1.98-.06.41.34.8.69,1.16,1.03.04-.05.09-.1.15-.14.33-.28.77-.41,1.2-.35.35.05.71.07,1.46.07h.67c.06-.2.16-.38.29-.54.29-.34.7-.53,1.15-.53h2.28c.44,0,.86.19,1.14.53.14.16.23.34.29.54h.82c.55,0,1.03-.02,1.57-.08.42-.04.84.1,1.16.38.31.28.49.69.49,1.11v1.12c.06.04.11.08.16.12.32.28.5.69.5,1.12v1.8c0,.33-.11.65-.31.91v1.71c0,.43-.18.83-.5,1.12l-.02.02v.42c.06.04.11.08.17.13.32.28.5.69.5,1.11v1.39c.13.09.24.19.34.31.32.41.41.96.23,1.44-.24.65-.37,1.2-.48,1.98-.1.71-.7,1.25-1.42,1.28-1.49.06-4.01.1-6.42.1-2.22,0-3.69-.14-4.6-.43-.55-.16-1.07-.42-1.56-.78-.33.26-.71.53-1.48,1.08-.26.18-.56.28-.87.28Z"/>
            <path class="cls-8" d="m69.9,61.68h-2.21c-.44,0-.85-.19-1.14-.52-.09-.1-.16-.22-.22-.34-.07-.02-.13-.04-.2-.07l-1.7-.7c-.75-.31-1.12-1.15-.84-1.9.35-.95.52-2.01.6-3.84-.16-.21-.25-.47-.28-.74l-.2-2.06c-.05-.46.12-.92.46-1.24.18-.17.4-.29.63-.35-.23-.26-.49-.53-.8-.85-.46-.47-.56-1.19-.25-1.77l.99-1.8c.23-.42.65-.71,1.14-.77.05,0,.1,0,.15-.01.15-.35.26-.66.32-.91.09-.43.37-.8.76-1,.39-.21.85-.23,1.26-.07l1.94.76c.12.05.24.11.34.19.03-.03.06-.06.09-.08.32-.28.75-.42,1.17-.37.5.06,1.14.09,1.8.09h5.39c.26,0,1.05,0,1.45-.05.47-.06.94.1,1.27.43.33.34.49.81.42,1.28q-.04.26-.09,1.42c-.05,1.93-.21,3.52-.45,4.46-.06.25-.14.47-.24.67.28.31.43.72.4,1.14-.03.39-.05.87-.05,1.51v4.2c0,.76.02,1.25.06,1.62.05.42-.09.85-.37,1.17-.28.32-.69.5-1.12.5h-2.21c-.59,0-1.1-.34-1.34-.83h-.92c-.25.48-.75.8-1.33.8h-2.19c-.42,0-.83-.18-1.11-.49-.04-.04-.07-.08-.1-.13-.03.05-.07.1-.11.15-.28.33-.7.52-1.14.52Z"/>
            <path class="cls-8" d="m88.88,61.79c-.54,0-1.06-.29-1.33-.8-.37-.69-.63-1.01-1.27-1.59-.38-.34-.56-.85-.48-1.35.08-.5.4-.93.87-1.14,1.38-.62,1.88-1.07,2.25-1.61.31-.46.54-1.03.63-2.17-.28.16-.56.3-.84.44-.39.19-.85.2-1.25.03-.4-.17-.71-.51-.84-.92-.28-.88-.46-1.2-.92-1.86-.26-.38-.34-.85-.21-1.29.13-.44.45-.79.88-.97,1.39-.56,2.38-1.15,3.53-2.1,1.13-.93,1.82-1.7,2.46-2.76.27-.45.76-.72,1.28-.72h2.55c.51,0,.98.26,1.26.68.75,1.15,1.43,1.86,2.69,2.82,1.1.83,2.14,1.4,3.59,1.98.4.16.72.49.86.9s.1.86-.11,1.24c-.47.83-.65,1.2-.96,2.1-.14.4-.44.73-.83.89-.39.17-.83.16-1.22-.02-.39-.18-.77-.37-1.13-.57v4.9c0,.76.03,1.31.11,1.94.05.43-.08.85-.37,1.18s-.69.51-1.12.51h-2.55c-.43,0-.84-.19-1.13-.51-.28-.32-.42-.76-.36-1.19.08-.57.11-1.13.11-1.91v-5.63c0-.52-.02-.96-.05-1.37,0,.16-.01.32-.02.55v.25c-.02,1.39-.16,2.86-.34,3.74-.57,2.69-2.17,4.65-5.04,6.15-.22.12-.46.17-.69.17Zm5.69-12.48s.05.05.07.08c.16.18.27.39.33.62.06-.23.17-.44.33-.62.02-.02.04-.05.07-.07-.14-.14-.27-.28-.4-.43-.13.14-.26.28-.4.43Z"/>
          </g>
          <g>
            <path class="cls-3" d="m34.32,51.21c-.08.17-.14.27-.48,1.09-.22.54-.99,1.89-1.46,2.58-.29.42-.53.73-.92,1.16,1.34.82,2.77,1.34,4.95,1.82-.54.77-.85,1.34-1.19,2.26-2.45-.76-3.79-1.39-5.35-2.53-1.43,1.17-2.7,1.85-4.93,2.65-.42-.9-.7-1.31-1.33-2.02,1.85-.48,3.26-1.1,4.59-2.07-.82-.85-1.48-1.78-1.99-2.75-.37,1.04-.92,2.12-1.6,3.26-.75,1.24-1.6,2.28-2.7,3.31-.7-.94-1.07-1.31-1.73-1.75,1.63-1.44,2.62-2.75,3.42-4.52.7-1.55,1.16-3.26,1.36-5.12h-2.23c-.94,0-1.72.03-2.21.1v-2.31c.66.08,1.29.12,2.21.12h2.41q.07-.97.07-1.39c0-.32-.02-.53-.05-.88l2.57.08q-.1.44-.22,2.19h6.41c.94,0,1.53-.03,2.21-.12v2.31c-.63-.08-1.17-.1-2.21-.1h-6.61c-.1.76-.14.93-.24,1.55h4.66c.77,0,1.12-.02,1.51-.09l1.09,1.17Zm-6.44.9c.53,1.02,1.09,1.8,1.9,2.6.71-.82,1.14-1.5,1.65-2.6h-3.55Z"/>
            <path class="cls-3" d="m42.87,50.67c.48.07.71.08,1.38.08h1.44c.53,0,.88-.02,1.29-.07-.05.49-.07.95-.07,1.89v3.81c.36.56.68.82,1.34,1.09.68.27,1.73.36,4.18.36,2.72,0,4.62-.1,6.51-.32-.25.7-.42,1.34-.56,2.28-1.62.07-4.22.1-6.36.1s-3.4-.12-4.15-.36c-.75-.22-1.38-.66-1.99-1.36q-.95.85-2.38,1.87l-.97-2.31c.48-.17,1.48-.83,2.24-1.5v-3.45h-.82c-.44,0-.66.02-1.1.08v-2.19Zm6.32-3.65c-.76,0-1.05.02-1.44.05v-1.78c.46.07.9.08,1.68.08h2.19c-.02-.48-.03-.77-.08-1.07h2.28c-.05.31-.07.53-.08,1.07h2.35c.66,0,1.21-.03,1.72-.08v1.8c-.41-.05-.83-.07-1.44-.07h-2.62v.7h3.09c.88,0,1.19-.02,1.63-.07v1.8c-.48-.05-.8-.07-1.63-.07h-.6c-.14.34-.29.7-.42.97h.71c.92,0,1.21-.02,1.63-.07v1.78c-.44-.05-.75-.07-1.63-.07h-2.77v.7h2.41c.6,0,1.09-.02,1.46-.07v1.68c-.42-.05-.9-.07-1.44-.07h-2.43v.7h2.92c.78,0,1.12-.02,1.61-.07v1.73c-.46-.05-.87-.07-1.61-.07h-2.92c.02.49.03.66.08.97h-2.29q.05-.25.07-.97h-2.52c-.78,0-1.16.02-1.63.07v-1.73c.48.05.83.07,1.63.07h2.53v-.7h-2.23c-.56,0-1.02.02-1.46.07v-1.68c.37.05.87.07,1.46.07h2.23v-.7h-2.41c-.87,0-1.21.02-1.63.07v-1.78c.42.05.71.07,1.63.07h.41c-.15-.37-.27-.63-.46-.97h-.37c-.85,0-1.17.02-1.63.07v-1.73l-1.38,1.38c-.95-1.31-1.53-1.92-2.91-3.14l1.63-1.53c1.21,1,2.14,1.97,2.94,3.01l-.22.24c.41.03.71.05,1.56.05h2.84v-.7h-2.43Zm2.11,2.36c.17.34.25.54.41.97h1.9c.15-.32.26-.56.39-.97h-2.7Z"/>
            <path class="cls-3" d="m67.31,54.17c-.05,2.24-.2,3.54-.61,5.2l-1.7-.7c.44-1.21.63-2.5.71-4.76l1.6.25Zm-2.11-2.79c.32.05.44.05,1.5.05.27-.36.29-.37.58-.76-.76-1.07-1.22-1.63-2.21-2.63l.99-1.8.56.61c.63-1.07,1.04-2.01,1.19-2.7l1.94.76c-.1.14-.15.24-.27.48-.68,1.34-1.09,2.07-1.63,2.89q.36.42.56.7c.73-1.16,1.34-2.31,1.56-2.94l1.78,1c-.12.15-.19.25-.73,1.12-.85,1.31-1.6,2.38-2.28,3.23.75-.03,1.07-.05,1.51-.1-.1-.32-.2-.6-.46-1.26l1.29-.56c.71,1.72.75,1.78,1.27,3.67l-1.44.61q-.08-.36-.17-.73c-.51.05-.82.07-.95.08v5.25c0,.93.02,1.27.1,1.84h-2.21c.08-.56.1-.93.1-1.84v-5.1q-.24.02-.88.05-1.19.09-1.5.14l-.2-2.06Zm6.37,2.52c.32,2.24.36,2.62.41,4.27l-1.51.31v-.39c0-1.17-.1-2.46-.31-3.89l1.41-.29Zm1.97-7.12c-.76,0-1.36.03-1.84.09v-2.12c.58.07,1.27.1,1.97.1h5.39c.71,0,1.27-.02,1.65-.07q-.05.34-.1,1.58c-.05,1.87-.2,3.35-.41,4.15-.26,1.02-.94,1.36-2.69,1.36-.27,0-.53-.02-1.19-.05-.07-.87-.19-1.38-.53-2.11.68.14,1.22.2,1.63.2.48,0,.66-.08.77-.37.14-.41.22-1.26.25-2.75h-2.04c-.2,2.57-1.19,4.15-3.33,5.35-.37-.73-.78-1.22-1.41-1.77.99-.46,1.39-.77,1.85-1.36.44-.6.68-1.27.75-2.23h-.73Zm1,13.36h-2.19c.05-.53.07-1.09.07-1.82v-4.15c0-.7-.02-1.12-.07-1.6.37.03.75.05,1.38.05h5.13c.75,0,1.12-.02,1.46-.07-.03.42-.05.93-.05,1.63v4.2c0,.77.02,1.33.07,1.79h-2.21v-.83h-3.59v.8Zm-.02-2.79h3.6v-2.72h-3.6v2.72Z"/>
            <path class="cls-3" d="m93.52,50.38c-.05.41-.05.68-.07,1.31-.02,1.27-.14,2.67-.31,3.47-.48,2.26-1.77,3.82-4.27,5.13-.44-.83-.82-1.31-1.6-2.01,1.48-.66,2.28-1.26,2.87-2.12.66-.97.93-2.14.93-4.15,0-.75-.02-1.09-.1-1.56-.99.71-1.97,1.31-2.94,1.78-.32-1-.56-1.46-1.12-2.26,1.56-.63,2.69-1.31,3.93-2.33,1.26-1.04,2.06-1.94,2.79-3.14h2.55c.83,1.27,1.63,2.12,3.04,3.2,1.24.94,2.4,1.56,3.94,2.18-.51.9-.73,1.36-1.07,2.35-1.5-.7-2.7-1.46-4.15-2.6-1.33-1.07-2.02-1.8-2.98-3.14-.75,1.02-1.16,1.5-1.89,2.19-.61.59-1.36,1.24-2.01,1.72h2.43Zm5.42,0c-.08.54-.1,1-.1,1.95v5.58c0,.82.03,1.43.12,2.12h-2.55c.08-.65.12-1.27.12-2.11v-5.63c0-.75-.03-1.36-.1-1.92h2.52Z"/>
          </g>
        </g>
        <g>
          <g>
            <circle class="cls-6" cx="118.39" cy="81.48" r="8.46"/>
            <path class="cls-6" d="m117.89,89.52c-4.71,0-8.55-3.83-8.55-8.55s3.83-8.55,8.55-8.55,8.55,3.83,8.55,8.55-3.83,8.55-8.55,8.55Zm0-14.1c-3.06,0-5.55,2.49-5.55,5.55s2.49,5.55,5.55,5.55,5.55-2.49,5.55-5.55-2.49-5.55-5.55-5.55Z"/>
          </g>
          <circle class="cls-3" cx="117.89" cy="80.98" r="7.05"/>
          <path class="cls-2" d="m115.32,85.24c.06-.42.08-.82.08-1.4v-5.5c0-.52-.02-.9-.08-1.39.46.02.79.03,1.39.03h2.16c1.03,0,1.78.25,2.29.76.43.43.66,1.07.66,1.83,0,.81-.24,1.48-.72,1.96-.52.53-1.27.78-2.26.78h-1.78v1.5c0,.58.02,1.02.08,1.42h-1.83Zm3.49-4.36c.82,0,1.29-.46,1.29-1.26,0-.37-.1-.67-.3-.87-.21-.23-.53-.34-.99-.34h-1.74v2.47h1.74Z"/>
        </g>
        <rect class="cls-8" x="21.27" y="6.92" width="1" height="17.06" transform="translate(-4.55 19.92) rotate(-45)"/>
        <rect class="cls-8" x="222.76" y="14.95" width="17.06" height="1" transform="translate(56.82 168.07) rotate(-45)"/>
      </g>
    </g>
  </g>
</svg>