<?xml version="1.0" encoding="UTF-8"?>
<svg id="_レイヤー_2" data-name="レイヤー 2" xmlns="http://www.w3.org/2000/svg" viewBox="0 0 299.95 328.07">
  <defs>
    <style>
      .cls-1 {
        opacity: .07;
      }

      .cls-2 {
        fill: #f77c5b;
      }

      .cls-3 {
        fill: #edf3f3;
      }

      .cls-4 {
        fill: #fffcbb;
      }

      .cls-5 {
        fill: #cdd1d1;
      }

      .cls-6 {
        fill: #231f20;
      }

      .cls-7 {
        fill: #243239;
      }

      .cls-8 {
        fill: #058789;
      }
    </style>
  </defs>
  <g id="_レイヤー_4" data-name="レイヤー 4">
    <path class="cls-3" d="m200.4,49.95c-2.02,27.84-25.23,49.8-53.59,49.8s-51.56-21.96-53.59-49.8H0v278.12h299.95V49.95h-99.55Z"/>
    <g>
      <circle class="cls-4" cx="146.81" cy="46" r="46" transform="translate(10.47 117.29) rotate(-45)"/>
      <g>
        <path class="cls-7" d="m125.7,16.24h42.22c.74,0,1.34.6,1.34,1.34v57.71c0,.74-.6,1.34-1.34,1.34h-42.22c-.74,0-1.34-.6-1.34-1.34V17.59c0-.74.6-1.34,1.34-1.34Z"/>
        <rect class="cls-3" x="129.16" y="18.44" width="35.31" height="54.33"/>
        <g>
          <rect class="cls-5" x="142.76" y="31.16" width="13.99" height=".81"/>
          <rect class="cls-5" x="142.76" y="28.82" width="13.99" height=".81"/>
          <g>
            <path class="cls-2" d="m138.93,28.66c.18,0,.33.15.33.33v2.8c0,.18-.15.34-.33.34h-2.8c-.18,0-.33-.15-.33-.34v-2.8c0-.18.15-.33.33-.33h2.8m0-.8h-2.8c-.62,0-1.13.51-1.13,1.13v2.8c0,.62.51,1.13,1.13,1.13h2.8c.62,0,1.13-.51,1.13-1.13v-2.8c0-.62-.51-1.13-1.13-1.13h0Z"/>
            <path class="cls-7" d="m137.09,32.14h0c-.14,0-.28-.06-.38-.16l-1.78-1.78c-.21-.21-.21-.54,0-.75.21-.21.54-.21.75,0l1.4,1.4,2.84-2.84c.21-.21.54-.21.75,0s.21.54,0,.75l-3.21,3.21c-.1.1-.24.16-.38.16Z"/>
          </g>
          <rect class="cls-5" x="142.76" y="39.67" width="13.99" height=".81"/>
          <rect class="cls-5" x="142.76" y="37.33" width="13.99" height=".81"/>
          <g>
            <path class="cls-2" d="m138.93,37.18c.18,0,.33.15.33.33v2.8c0,.18-.15.34-.33.34h-2.8c-.18,0-.33-.15-.33-.34v-2.8c0-.18.15-.33.33-.33h2.8m0-.8h-2.8c-.62,0-1.13.51-1.13,1.13v2.8c0,.62.51,1.13,1.13,1.13h2.8c.62,0,1.13-.51,1.13-1.13v-2.8c0-.62-.51-1.13-1.13-1.13h0Z"/>
            <path class="cls-7" d="m137.09,40.66h0c-.14,0-.28-.06-.38-.16l-1.78-1.78c-.21-.21-.21-.54,0-.75.21-.21.54-.21.75,0l1.4,1.4,2.84-2.84c.21-.21.54-.21.75,0s.21.54,0,.75l-3.21,3.21c-.1.1-.24.16-.38.16Z"/>
          </g>
          <rect class="cls-5" x="142.76" y="48.18" width="13.99" height=".81"/>
          <rect class="cls-5" x="142.76" y="45.85" width="13.99" height=".81"/>
          <g>
            <path class="cls-2" d="m138.93,45.69c.18,0,.33.15.33.33v2.8c0,.18-.15.34-.33.34h-2.8c-.18,0-.33-.15-.33-.34v-2.8c0-.18.15-.33.33-.33h2.8m0-.8h-2.8c-.62,0-1.13.51-1.13,1.13v2.8c0,.62.51,1.13,1.13,1.13h2.8c.62,0,1.13-.51,1.13-1.13v-2.8c0-.62-.51-1.13-1.13-1.13h0Z"/>
            <path class="cls-7" d="m137.09,49.17h0c-.14,0-.28-.06-.38-.16l-1.78-1.78c-.21-.21-.21-.54,0-.75.21-.21.54-.21.75,0l1.4,1.4,2.84-2.84c.21-.21.54-.21.75,0s.21.54,0,.75l-3.21,3.21c-.1.1-.24.16-.38.16Z"/>
          </g>
          <rect class="cls-5" x="142.76" y="56.7" width="13.99" height=".81"/>
          <rect class="cls-5" x="142.76" y="54.36" width="13.99" height=".81"/>
          <g>
            <path class="cls-2" d="m138.93,54.2c.18,0,.33.15.33.33v2.8c0,.18-.15.34-.33.34h-2.8c-.18,0-.33-.15-.33-.34v-2.8c0-.18.15-.33.33-.33h2.8m0-.8h-2.8c-.62,0-1.13.51-1.13,1.13v2.8c0,.62.51,1.13,1.13,1.13h2.8c.62,0,1.13-.51,1.13-1.13v-2.8c0-.62-.51-1.13-1.13-1.13h0Z"/>
            <path class="cls-7" d="m137.09,57.68h0c-.14,0-.28-.06-.38-.16l-1.78-1.78c-.21-.21-.21-.54,0-.75.21-.21.54-.21.75,0l1.4,1.4,2.84-2.84c.21-.21.54-.21.75,0s.21.54,0,.75l-3.21,3.21c-.1.1-.24.16-.38.16Z"/>
          </g>
          <rect class="cls-5" x="142.76" y="65.21" width="13.99" height=".81"/>
          <rect class="cls-5" x="142.76" y="62.87" width="13.99" height=".81"/>
          <g>
            <path class="cls-2" d="m138.93,62.72c.18,0,.33.15.33.33v2.8c0,.18-.15.34-.33.34h-2.8c-.18,0-.33-.15-.33-.34v-2.8c0-.18.15-.33.33-.33h2.8m0-.8h-2.8c-.62,0-1.13.51-1.13,1.13v2.8c0,.62.51,1.13,1.13,1.13h2.8c.62,0,1.13-.51,1.13-1.13v-2.8c0-.62-.51-1.13-1.13-1.13h0Z"/>
            <path class="cls-7" d="m137.09,66.2h0c-.14,0-.28-.06-.38-.16l-1.78-1.78c-.21-.21-.21-.54,0-.75.21-.21.54-.21.75,0l1.4,1.4,2.84-2.84c.21-.21.54-.21.75,0,.21.21.21.54,0,.75l-3.21,3.21c-.1.1-.24.16-.38.16Z"/>
          </g>
        </g>
        <g>
          <path class="cls-8" d="m156.94,14.05v6.91c0,1.04-.84,1.87-1.87,1.87h-16.5c-1.03,0-1.87-.83-1.87-1.87v-6.91h20.24Z"/>
          <path class="cls-8" d="m146.82,6.26c-2.61,0-4.71,2.11-4.71,4.71v4.72h9.42v-4.72c0-2.6-2.11-4.71-4.71-4.71Zm0,1.9c1.55,0,2.81,1.24,2.81,2.8s-1.27,2.81-2.81,2.81-2.81-1.26-2.81-2.81,1.26-2.8,2.81-2.8Z"/>
          <g class="cls-1">
            <path class="cls-6" d="m156.94,14.05v6.91c0,1.04-.84,1.87-1.87,1.87h-8.25v-9.05c1.55,0,2.81-1.26,2.81-2.81s-1.27-2.8-2.81-2.8v-1.9c2.6,0,4.71,2.11,4.71,4.71v3.08h5.41Z"/>
          </g>
        </g>
      </g>
    </g>
  </g>
</svg>