<?xml version="1.0" encoding="UTF-8"?>
<svg id="_レイヤー_2" data-name="レイヤー 2" xmlns="http://www.w3.org/2000/svg" viewBox="0 0 254.09 137.7">
  <defs>
    <style>
      .cls-1 {
        stroke: #f2d338;
      }

      .cls-1, .cls-2, .cls-3, .cls-4, .cls-5 {
        fill: none;
      }

      .cls-1, .cls-4 {
        stroke-miterlimit: 10;
      }

      .cls-1, .cls-5 {
        stroke-width: 3px;
      }

      .cls-6 {
        fill: #fac014;
      }

      .cls-7 {
        fill: #fff;
      }

      .cls-8 {
        fill: #f2b705;
      }

      .cls-9 {
        fill: #f2d338;
      }

      .cls-10 {
        fill: #ffb6b6;
      }

      .cls-11 {
        fill: #e78005;
      }

      .cls-12 {
        fill: #a0616a;
      }

      .cls-13 {
        fill: #8ec31f;
      }

      .cls-14 {
        fill: #a7abb0;
      }

      .cls-15 {
        fill: #3f3d56;
      }

      .cls-16 {
        fill: #2f2e41;
      }

      .cls-17 {
        isolation: isolate;
        opacity: .1;
      }

      .cls-2 {
        stroke: #fff;
      }

      .cls-2, .cls-3 {
        stroke-width: 2px;
      }

      .cls-2, .cls-3, .cls-5 {
        stroke-linecap: round;
        stroke-linejoin: round;
      }

      .cls-3, .cls-4, .cls-5 {
        stroke: #e78005;
      }

      .cls-18 {
        fill: #ffdd13;
        opacity: .36;
      }
    </style>
  </defs>
  <g id="_レイヤー_1-2" data-name="レイヤー 1">
    <g>
      <g>
        <path class="cls-18" d="m0,6v98.94h32.74V0H6C2.69,0,0,2.69,0,6Z"/>
        <path class="cls-18" d="m75.17,104.94l-.86-15.71c-.14-2.55,1.89-4.69,4.44-4.69h.92c2.7-4.97,8.76-7.04,11.35-7.71l7.25-10.68s21.05-28.79,26.62-28.79c2.19,0,4.04.15,5.48.33-.16-.41-.32-.82-.49-1.24-1.07-2.76,10.84-21.25,18.5-20.44,7.66.81,5.32,6.08,5.32,6.08,10.6-1.32,11.1,9.21,11.1,9.21,0,0,1.97,2.02,1.84,6.83-.06,2.26-1.34,1.45-2.99.1-.54,5.56-5.23,9.91-10.94,9.91-1.56,0-3.04-.33-4.38-.91l.03.06-4.98,2.03,1.59,1.84s-2.49,7.86-6.06,15.07c.12,1.42.38,2.81.88,4.11,1.95,5.04-.65,6.8-4.24,8.68l6.44,25.94h18.19c-3.49-7.48-6.2-18.22-6.2-18.22l.56-.37-.95-2.64c-1.14-1.11-1.99-2.48-2.49-3.99-1.3-3.76-.42-7.48,1.97-8.31s5.39,1.55,6.69,5.31c.54,1.5.72,3.1.51,4.68l.37.89.91-.61,5.81,15.53s1.21-2.52,2.91-6.08l-.1-1.89c-.11-2.08,1.23-3.88,3.12-4.47,3.63-7.67,7.61-16.24,7.82-17.26.38-1.89,7.95-5.31,7.95-5.31l.21.22.03-.22,9.12-5.3,1.57-.15,1.58-.09-.71-5.05c-4.87-1.52-8.4-6.06-8.4-11.43,0-.5.04-.99.1-1.48-.82-.93-1.23-2.22-1.06-3.45.17-1.3.98-2.51,2.11-3.17-.69-2.28-.1-4.91,1.5-6.68,1.6-1.77,8.11-1.47,10.45-1l-.18-.31c-.35.2-.81-.1-.92-.49-.11-.39.02-.79.15-1.17l.65-1.91c.46-1.36.94-2.76,1.94-3.79,1.5-1.56,3.88-1.95,6.02-1.67,2.75.37,5.46,1.86,6.74,4.32s.73,5.9-1.58,7.44c3.29,3.77,4.44,7.98,4.26,12.99-.17,4.83-5.26,9.29-8.81,12.76l2.39,3.38,5.74.33.1.03v-.08s.03.02.05.04c.05.03.1.06.15.1,5.65,3.59,9.02,9.88,8.87,16.58h0s3.25,19.08,3.25,19.08l-.2,1.43,4.87.59c5.51.67,9.43,5.52,9.11,10.91h5.95V6c0-3.31-2.69-6-6-6H32.74v104.94h42.43Z"/>
        <path class="cls-18" d="m192.62,38.18c.15-.88.38-1.72.71-2.53-.46.77-.73,1.64-.71,2.53Z"/>
        <polygon class="cls-18" points="130.71 104.94 133.44 104.94 130.87 97.23 130.71 104.94"/>
        <path class="cls-18" d="m124.17,79.95c-2.6,1.31-5.37,2.97-7.9,4.58h4.53c.43-1.44,1.9-3.12,3.37-4.58Z"/>
        <path class="cls-10" d="m142.19,40.32c-.36,2.12-.75,4.71-.89,6.6l2.07,2.39,4.98-2.03-.03-.06c-2.93-1.28-5.2-3.8-6.14-6.9Z"/>
        <path class="cls-17" d="m142.19,40.32c-.36,2.12-.75,4.71-.89,6.6l2.07,2.39,4.98-2.03-.03-.06c-2.93-1.28-5.2-3.8-6.14-6.9Z"/>
        <path class="cls-8" d="m92.74,76.55l9.09,7.98h14.45c2.53-1.61,5.3-3.27,7.9-4.58.24-.24.49-.48.72-.71l-.25-.76-1.08-9.49,1.99.35c-.23-.25-.48-.52-.74-.79-4.31-4.49,1.36-21.16,4.38-24.11,2.56-2.5,2.04-4.52,1.17-6.76-1.44-.18-3.29-.33-5.48-.33-5.57,0-26.62,28.79-26.62,28.79l-7.25,10.68c.75-.19,1.2-.27,1.2-.27h.52Z"/>
        <path class="cls-8" d="m141.38,49.26c.56,1.45-3.07,9.65-2.47,16.95,3.57-7.2,6.06-15.07,6.06-15.07l-1.59-1.84-2.07-2.39c-.08,1.1-.07,1.96.08,2.35Z"/>
        <path class="cls-16" d="m101.82,84.53l-9.09-7.98h-.52s-.46.08-1.2.27c-2.59.67-8.65,2.74-11.35,7.71h22.16Z"/>
        <path class="cls-14" d="m248.14,104.94c.32-5.39-3.6-10.24-9.11-10.91l-4.87-.59-1.63,11.5h15.61Z"/>
        <path class="cls-12" d="m210.54,52.82c-.14-.84-.04-1.66.17-2.49-1.83,1.14-3.98,1.81-6.3,1.81-1.24,0-2.44-.19-3.57-.54l.71,5.05,11.65-.63c-1.33-.57-2.41-1.76-2.66-3.2Z"/>
        <path class="cls-17" d="m210.54,52.82c-.14-.84-.04-1.66.17-2.49-1.83,1.14-3.98,1.81-6.3,1.81-1.24,0-2.44-.19-3.57-.54l.71,5.05,11.65-.63c-1.33-.57-2.41-1.76-2.66-3.2Z"/>
        <path class="cls-12" d="m213.35,52.86c.36,1.15.98,2.2,1.83,3.05l.34-.02.69.04-2.39-3.38c-.13.13-.26.26-.39.38-.03-.02-.05-.05-.08-.07Z"/>
        <path class="cls-17" d="m213.35,52.86c.36,1.15.98,2.2,1.83,3.05l.34-.02.69.04-2.39-3.38c-.13.13-.26.26-.39.38-.03-.02-.05-.05-.08-.07Z"/>
        <path class="cls-12" d="m160.26,81.38c.21-1.58.03-3.18-.51-4.68-1.3-3.76-4.3-6.14-6.69-5.31s-3.28,4.55-1.97,8.31c.5,1.51,1.36,2.88,2.49,3.99l.95,2.64,6.1-4.07-.37-.89Z"/>
        <path class="cls-8" d="m223.01,64.86l-1.25,18.86h0s-.21.81-.21.81h.91c2.49,0,4.5,2.05,4.45,4.54l-.34,15.86h5.97l1.63-11.5.2-1.43-3.25-19.08h0c.15-6.7-3.22-12.99-8.87-16.58-.05-.03-.1-.07-.15-.1-.02-.01-.04-.02-.06-.04v.08s0,0,0,0l.97,8.57Z"/>
        <path class="cls-8" d="m170.26,91.11c-1.7,3.56-2.91,6.08-2.91,6.08l-5.81-15.53-.91.61-6.1,4.07-.56.37s2.71,10.74,6.2,18.22h10.85l-.76-13.83Z"/>
        <path class="cls-8" d="m221.54,84.53l.21-.81h0s1.25-18.86,1.25-18.86l-.97-8.57h0s-.1-.03-.1-.03l-5.74-.33-.69-.04-.34.02c.13.13.25.28.4.4-.8.15-1.63.03-2.37-.29l-11.65.63-1.58.09-1.57.15-9.12,5.3-.03.22-.21-.22s-7.57,3.41-7.95,5.31c-.2,1.02-4.19,9.59-7.82,17.26.42-.13.86-.22,1.32-.22h46.94Z"/>
        <path class="cls-15" d="m226.56,104.94l.34-15.86c.05-2.49-1.95-4.54-4.45-4.54h-47.85c-.46,0-.9.09-1.32.22-1.89.59-3.23,2.38-3.12,4.47l.1,1.89.76,13.83h55.54Z"/>
        <path class="cls-10" d="m157.94,35.13c-2.87,1.31-9.67,3.73-9.67,3.73-.38-3.03-5.4-2.29-5.4-2.29,0,0-.32,1.64-.68,3.75.94,3.1,3.2,5.62,6.14,6.9,1.34.58,2.82.91,4.38.91,5.71,0,10.4-4.35,10.94-9.91-1.86-1.54-4.18-3.78-5.71-3.09Z"/>
        <path class="cls-10" d="m127.52,84.63c2.05.43,3.58,2.27,3.53,4.45l-.17,8.15,2.56,7.71h8.54l-6.44-25.94c-2.07,1.08-4.47,2.2-6.53,4.01-.68.6-1.16,1.14-1.48,1.62Z"/>
        <path class="cls-10" d="m125.55,69.34l-1.99-.35,1.08,9.49.25.76c.57-.55,1.11-1.04,1.56-1.47,2.77-2.62,2.69-4.5-.9-8.44Z"/>
        <path class="cls-15" d="m130.71,104.94l.17-7.71.17-8.15c.05-2.18-1.48-4.02-3.53-4.45-2.37,3.49,3.18,3.99-3.45,3.06-3.03-.42-3.72-1.66-3.26-3.16h-42.06c-2.55,0-4.58,2.14-4.44,4.69l.86,15.71h55.54Z"/>
        <path class="cls-16" d="m129.2,44.44c-3.03,2.95-8.69,19.63-4.38,24.11.26.27.51.53.74.79,3.59,3.94,3.68,5.81.9,8.44-.45.42-.99.92-1.56,1.47-.24.23-.48.46-.72.71-1.47,1.46-2.94,3.14-3.37,4.58-.45,1.5.23,2.74,3.26,3.16,6.63.93,1.08.43,3.45-3.06.33-.48.8-1.02,1.48-1.62,2.06-1.81,4.46-2.93,6.53-4.01,3.59-1.88,6.19-3.64,4.24-8.68-.5-1.3-.76-2.69-.88-4.11-.6-7.3,3.03-15.5,2.47-16.95-.15-.39-.16-1.25-.08-2.35.14-1.89.53-4.48.89-6.6.36-2.11.68-3.75.68-3.75,0,0,5.03-.74,5.4,2.29,0,0,6.8-2.43,9.67-3.73,1.52-.69,3.85,1.55,5.71,3.09,1.64,1.36,2.93,2.16,2.99-.1.13-4.81-1.84-6.83-1.84-6.83,0,0-.49-10.52-11.1-9.21,0,0,2.33-5.27-5.32-6.08-7.66-.81-19.57,17.67-18.5,20.44.16.42.33.84.49,1.24.87,2.24,1.39,4.26-1.17,6.76Z"/>
        <path class="cls-12" d="m210.71,50.33c.43-1.74,1.29-3.48,1.13-5.27-.21-2.32-2.04-4.11-3.59-5.84-1.11-1.24-2.17-2.78-2.42-4.37-1.64-1.16-3.57-1.92-5.57-2.11-1.88-.18-3.86.14-5.39,1.23-.62.44-1.15,1.02-1.54,1.68-.33.8-.56,1.65-.71,2.53,0,.23.03.45.07.68-.05-.05-.1-.11-.15-.17-.06.48-.1.97-.1,1.48,0,5.37,3.53,9.91,8.4,11.43,1.13.35,2.33.54,3.57.54,2.31,0,4.47-.67,6.3-1.81Z"/>
        <path class="cls-16" d="m192.62,38.18c-.02-.88.25-1.76.71-2.53.39-.66.92-1.24,1.54-1.68,1.54-1.09,3.52-1.41,5.39-1.23,2,.19,3.93.95,5.57,2.11.25,1.59,1.3,3.12,2.42,4.37,1.56,1.74,3.38,3.52,3.59,5.84.16,1.79-.7,3.52-1.13,5.27-.2.83-.31,1.65-.17,2.49.25,1.43,1.33,2.63,2.66,3.2.75.32,1.57.45,2.37.29-.14-.12-.27-.27-.4-.4-.85-.85-1.47-1.9-1.83-3.05.03.02.05.05.08.07.13-.12.26-.25.39-.38,3.55-3.48,8.63-7.93,8.81-12.76.18-5.01-.97-9.21-4.26-12.99,2.31-1.54,2.86-4.97,1.58-7.44s-3.99-3.95-6.74-4.32c-2.14-.29-4.52.11-6.02,1.67-.99,1.03-1.48,2.44-1.94,3.79l-.65,1.91c-.13.38-.26.79-.15,1.17.11.39.57.69.92.49l.18.31c-2.34-.47-8.85-.77-10.45,1-1.6,1.77-2.2,4.4-1.5,6.68-1.14.66-1.94,1.87-2.11,3.17-.16,1.23.24,2.52,1.06,3.45.05.06.1.12.15.17-.04-.22-.07-.45-.07-.68Z"/>
        <rect class="cls-13" x="114.59" y="123.44" width="3.39" height="2.56"/>
        <path class="cls-13" d="m232.53,104.94H0v26.76c0,3.31,2.69,6,6,6h242.09c3.31,0,6-2.69,6-6v-26.76h-21.56Zm-20.5,14.89c.72.1,1.3.13,2.93.13h8.1c1.62,0,2.19-.02,2.93-.11v2.62c-.64-.05-1.7-.08-2.95-.08h-8.08c-1.39,0-2.31.03-2.93.1v-2.66Zm-30.26.54c-1.33-1.41-2.67-2.46-4.21-3.31l1.57-1.89c2.06,1.25,2.98,1.92,4.26,3.11l-1.62,2.1Zm22.47-3.23c0-.98.8-1.78,1.78-1.78s1.76.78,1.76,1.78-.78,1.78-1.76,1.78-1.78-.8-1.78-1.78Zm29.32,3.23c-1.33-1.41-2.67-2.46-4.21-3.31l1.57-1.89c2.06,1.25,2.98,1.92,4.26,3.11l-1.62,2.1Zm-113.24-4.72c-.05,1.76-.19,3.15-.38,3.91-.24.96-.88,1.28-2.53,1.28-.26,0-.5-.02-1.12-.05-.06-.82-.18-1.3-.5-1.98.64.13,1.15.19,1.54.19.45,0,.62-.08.72-.35.13-.38.21-1.18.24-2.59h-1.92c-.19,2.42-1.12,3.91-3.14,5.04-.35-.69-.74-1.15-1.33-1.66.93-.43,1.31-.72,1.75-1.28.42-.56.64-1.2.7-2.1h-.69c-.72,0-1.28.03-1.73.08v-2c.54.06,1.2.1,1.86.1h5.07c.67,0,1.2-.02,1.55-.06q-.05.32-.1,1.49Zm-18.63,2.91c-.45-.05-.75-.06-1.54-.06h-.56c-.13.32-.27.66-.4.91h.67c.86,0,1.14-.02,1.54-.06v1.68c-.42-.05-.7-.06-1.54-.06h-2.61v.66h2.27c.56,0,1.02-.02,1.38-.06v1.58c-.4-.05-.85-.06-1.36-.06h-2.29v.66h2.75c.74,0,1.06-.02,1.52-.06v1.63c-.43-.05-.82-.06-1.52-.06h-2.75c.02.46.03.62.08.91h-2.16q.05-.24.06-.91h-2.37c-.74,0-1.09.02-1.54.06v-1.63c.45.05.78.06,1.54.06h2.38v-.66h-2.1c-.53,0-.96.02-1.38.06v-1.58c.35.05.82.06,1.38.06h2.1v-.66h-2.27c-.82,0-1.14.02-1.54.06v-1.68c.4.05.67.06,1.54.06h.38c-.14-.35-.26-.59-.43-.91h-.35c-.8,0-1.1.02-1.54.06v-1.63l-1.3,1.3c-.9-1.23-1.44-1.81-2.74-2.96l1.54-1.44c1.14.94,2.02,1.86,2.77,2.83l-.21.22c.38.03.67.05,1.47.05h2.67v-.66h-2.29c-.72,0-.99.02-1.36.05v-1.68c.43.06.85.08,1.58.08h2.06c-.02-.45-.03-.72-.08-1.01h2.15c-.05.29-.06.5-.08,1.01h2.21c.62,0,1.14-.03,1.62-.08v1.7c-.38-.05-.78-.06-1.36-.06h-2.46v.66h2.91c.83,0,1.12-.02,1.54-.06v1.7Zm-19.64,10.05c-2.3-.72-3.57-1.31-5.04-2.39-1.34,1.1-2.54,1.74-4.64,2.5-.4-.85-.66-1.23-1.25-1.9,1.74-.45,3.07-1.04,4.32-1.95-.77-.8-1.39-1.68-1.87-2.59-.35.98-.86,2-1.5,3.07-.7,1.17-1.5,2.15-2.54,3.12-.66-.88-1.01-1.23-1.63-1.65,1.54-1.36,2.46-2.59,3.22-4.26.66-1.46,1.09-3.07,1.28-4.82h-2.1c-.88,0-1.62.03-2.08.1v-2.18c.62.08,1.22.11,2.08.11h2.27q.06-.91.06-1.31c0-.3-.02-.5-.05-.83l2.42.08q-.1.42-.21,2.06h6.03c.88,0,1.44-.03,2.08-.11v2.18c-.59-.08-1.1-.1-2.08-.1h-6.23c-.1.72-.13.88-.22,1.46h4.39c.72,0,1.06-.02,1.42-.08l1.02,1.1c-.08.16-.13.26-.45,1.02-.21.51-.93,1.78-1.38,2.43-.27.4-.5.69-.86,1.09,1.26.77,2.61,1.26,4.66,1.71-.51.72-.8,1.26-1.12,2.13Zm19.57-.32c-1.52.06-3.97.1-5.99.1s-3.2-.11-3.91-.34c-.7-.21-1.3-.62-1.87-1.28q-.9.8-2.24,1.76l-.91-2.18c.45-.16,1.39-.78,2.11-1.41v-3.25h-.77c-.42,0-.62.02-1.04.08v-2.06c.45.06.67.08,1.3.08h1.36c.5,0,.83-.02,1.22-.06-.05.46-.06.9-.06,1.78v3.59c.34.53.64.77,1.26,1.02.64.26,1.63.34,3.94.34,2.56,0,4.35-.1,6.13-.3-.24.66-.4,1.26-.53,2.15Zm3.99-1.04c.42-1.14.59-2.35.67-4.48l1.5.24c-.05,2.11-.19,3.33-.58,4.9l-1.6-.66Zm2.53,1.42c.08-.53.1-.88.1-1.73v-4.8q-.22.02-.83.05-1.12.08-1.41.13l-.19-1.94c.3.05.42.05,1.41.05.26-.34.27-.35.54-.72-.72-1.01-1.15-1.54-2.08-2.48l.93-1.7.53.58c.59-1.01.98-1.89,1.12-2.54l1.82.72c-.1.13-.14.22-.26.45-.64,1.26-1.02,1.95-1.54,2.72q.34.4.53.66c.69-1.09,1.26-2.18,1.47-2.77l1.68.94c-.11.14-.18.24-.69,1.06-.8,1.23-1.5,2.24-2.15,3.04.7-.03,1.01-.05,1.42-.1-.1-.3-.19-.56-.43-1.18l1.22-.53c.67,1.62.7,1.68,1.2,3.46l-1.36.58q-.08-.34-.16-.69c-.48.05-.77.06-.9.08v4.95c0,.88.02,1.2.1,1.73h-2.08Zm2.62-1.62v-.37c0-1.1-.1-2.32-.29-3.67l1.33-.27c.3,2.11.34,2.46.38,4.02l-1.42.29Zm7.22,1.6v-.78h-3.38v.75h-2.06c.05-.5.06-1.02.06-1.71v-3.91c0-.66-.02-1.06-.06-1.5.35.03.7.05,1.3.05h4.83c.7,0,1.06-.02,1.38-.06-.03.4-.05.88-.05,1.54v3.95c0,.72.02,1.25.06,1.68h-2.08Zm7.87.11c-.42-.78-.77-1.23-1.5-1.89,1.39-.62,2.15-1.18,2.71-2,.62-.91.88-2.02.88-3.91,0-.7-.02-1.02-.1-1.47-.93.67-1.86,1.23-2.77,1.68-.3-.94-.53-1.38-1.06-2.13,1.47-.59,2.53-1.23,3.7-2.19,1.18-.98,1.94-1.82,2.62-2.96h2.4c.78,1.2,1.54,2,2.87,3.01,1.17.88,2.26,1.47,3.71,2.05-.48.85-.69,1.28-1.01,2.21-1.41-.66-2.54-1.38-3.91-2.45-1.25-1.01-1.9-1.7-2.8-2.96-.7.96-1.09,1.41-1.78,2.06-.58.56-1.28,1.17-1.89,1.62h2.29c-.05.38-.05.64-.06,1.23-.02,1.2-.13,2.51-.29,3.27-.45,2.13-1.66,3.6-4.02,4.83Zm7.09-.24c.08-.61.11-1.2.11-1.98v-5.3c0-.7-.03-1.28-.1-1.81h2.37c-.08.51-.1.94-.1,1.84v5.25c0,.77.03,1.34.11,2h-2.4Zm16.91-.06c-.02-.46-.11-1.22-.3-2.24l-.45-2.45-3.46.54c-.99.16-1.36.22-2.02.42l-.38-2.32c.66-.02,1.06-.06,2.11-.22l3.36-.53-.42-2.35-2.5.38c-1.12.18-1.3.22-2.18.43l-.37-2.34c.7-.02.99-.05,2.16-.22l2.5-.38-.18-.91q-.24-1.33-.43-1.84l2.51-.4c.02.51.08.98.24,1.84l.19.94,2.82-.43c1.04-.16,1.41-.24,2.03-.43l.38,2.3q-.7.06-2.02.26l-2.82.45.43,2.34,3.2-.51c1.06-.16,1.49-.26,2.15-.46l.4,2.3q-.56.03-2.1.29l-3.25.5.45,2.38c.22,1.25.3,1.6.51,2.24l-2.59.43Zm15.81,0c-.05-.62-.11-1.06-.26-1.86l-.96-5.38-1.02.18c-.85.14-1.1.21-1.68.38l-.38-2.11c.56-.02.88-.05,1.79-.21l.96-.14-.18-.99c-.14-.77-.19-.99-.35-1.42l2.26-.34c.03.53.08.96.18,1.46l.19.94,4.59-.77c.67-.11.86-.16,1.17-.32l1.3,1.18c-.14.21-.22.34-.4.82-.69,1.81-1.6,3.06-3.17,4.35-.69-.7-.98-.93-1.76-1.33,1.15-.74,1.97-1.6,2.58-2.72l-3.95.69,1.01,5.33c.19.96.26,1.22.46,1.84l-2.37.42Zm14.17-1.12q-.4.08-.7.14c-.37.08-.46.11-.8.22l-.7-2.62c1.47-.1,3.3-.53,4.77-1.17,2.03-.85,3.46-2.05,4.71-3.92.72-1.07,1.15-1.94,1.62-3.19.75.88,1.04,1.15,2.03,1.86-1.58,3.43-3.47,5.54-6.26,7.01-1.28.67-3.12,1.33-4.66,1.66Zm20.58-7.75c-.26-.29-.42-.38-.61-.38-.24,0-.26.02-.91.88-.74.98-1.66,2.15-2.87,3.6-.24.27-.34.4-.58.7l-1.62-2.34c.26-.18.38-.29.62-.53.46-.46,1.97-2.26,2.9-3.44.56-.74.93-1.09,1.26-1.3.35-.21.74-.3,1.15-.3.86,0,1.28.27,2.54,1.71,1.6,1.81,3.12,3.33,5.04,5.04.86.78,1.15,1.02,1.62,1.33l-1.2,2.61c-2.42-2.21-3.79-3.63-7.36-7.59Zm35.87,6.08c-1.28.67-3.12,1.33-4.66,1.66q-.4.08-.7.14c-.37.08-.46.11-.8.22l-.7-2.62c1.47-.1,3.3-.53,4.77-1.17,2.03-.85,3.46-2.05,4.71-3.92.72-1.07,1.15-1.94,1.62-3.19.75.88,1.04,1.15,2.03,1.86-1.58,3.43-3.47,5.54-6.26,7.01Z"/>
        <path class="cls-13" d="m78.48,121.07h-3.35c.5.96,1.02,1.7,1.79,2.45.67-.77,1.07-1.41,1.55-2.45Z"/>
        <path class="cls-13" d="m97.5,118.49h-2.54c.16.32.24.51.38.91h1.79c.14-.3.24-.53.37-.91Z"/>
        <path class="cls-13" d="m206.02,117.92c.42,0,.77-.35.77-.78s-.35-.78-.77-.78-.78.35-.78.78.35.78.78.78Z"/>
        <path class="cls-7" d="m78.52,124.77c.37-.4.59-.69.86-1.09.45-.66,1.17-1.92,1.38-2.43.32-.77.37-.86.45-1.02l-1.02-1.1c-.37.06-.7.08-1.42.08h-4.39c.1-.58.13-.74.22-1.46h6.23c.98,0,1.49.02,2.08.1v-2.18c-.64.08-1.2.11-2.08.11h-6.03q.11-1.65.21-2.06l-2.42-.08c.03.34.05.53.05.83q0,.4-.06,1.31h-2.27c-.86,0-1.46-.03-2.08-.11v2.18c.46-.06,1.2-.1,2.08-.1h2.1c-.19,1.74-.62,3.36-1.28,4.82-.75,1.67-1.68,2.9-3.22,4.26.62.42.98.77,1.63,1.65,1.04-.98,1.84-1.95,2.54-3.12.64-1.07,1.15-2.1,1.5-3.07.48.91,1.1,1.79,1.87,2.59-1.25.91-2.58,1.5-4.32,1.95.59.67.85,1.06,1.25,1.9,2.1-.75,3.3-1.39,4.64-2.5,1.47,1.07,2.74,1.66,5.04,2.39.32-.86.61-1.41,1.12-2.13-2.05-.45-3.39-.94-4.66-1.71Zm-.03-3.7c-.48,1.04-.88,1.68-1.55,2.45-.77-.75-1.3-1.49-1.79-2.45h3.35Z"/>
        <path class="cls-7" d="m92.09,126.11c-.62-.26-.93-.5-1.26-1.02v-3.59c0-.88.02-1.31.06-1.78-.38.05-.72.06-1.22.06h-1.36c-.62,0-.85-.02-1.3-.08v2.06c.42-.06.62-.08,1.04-.08h.77v3.25c-.72.62-1.66,1.25-2.11,1.41l.91,2.18q1.34-.96,2.24-1.76c.58.66,1.17,1.07,1.87,1.28.7.22,1.98.34,3.91.34,2.02,0,4.47-.03,5.99-.1.13-.88.29-1.49.53-2.15-1.78.21-3.57.3-6.13.3-2.31,0-3.3-.08-3.94-.34Z"/>
        <path class="cls-7" d="m97.24,116.92v-.66h2.46c.58,0,.98.02,1.36.06v-1.7c-.48.05-.99.08-1.62.08h-2.21c.02-.51.03-.72.08-1.01h-2.15c.05.29.06.56.08,1.01h-2.06c-.74,0-1.15-.02-1.58-.08v1.68c.37-.03.64-.05,1.36-.05h2.29v.66h-2.67c-.8,0-1.09-.02-1.47-.05l.21-.22c-.75-.98-1.63-1.89-2.77-2.83l-1.54,1.44c1.3,1.15,1.84,1.73,2.74,2.96l1.3-1.3v1.63c.43-.05.74-.06,1.54-.06h.35c.18.32.29.56.43.91h-.38c-.86,0-1.14-.02-1.54-.06v1.68c.4-.05.72-.06,1.54-.06h2.27v.66h-2.1c-.56,0-1.02-.02-1.38-.06v1.58c.42-.05.85-.06,1.38-.06h2.1v.66h-2.38c-.75,0-1.09-.02-1.54-.06v1.63c.45-.05.8-.06,1.54-.06h2.37q-.02.67-.06.91h2.16c-.05-.29-.06-.45-.08-.91h2.75c.7,0,1.09.02,1.52.06v-1.63c-.46.05-.78.06-1.52.06h-2.75v-.66h2.29c.51,0,.96.02,1.36.06v-1.58c-.35.05-.82.06-1.38.06h-2.27v-.66h2.61c.83,0,1.12.02,1.54.06v-1.68c-.4.05-.67.06-1.54.06h-.67c.13-.26.27-.59.4-.91h.56c.78,0,1.09.02,1.54.06v-1.7c-.42.05-.7.06-1.54.06h-2.91Zm-1.9,2.48c-.14-.4-.22-.59-.38-.91h2.54c-.13.38-.22.61-.37.91h-1.79Z"/>
        <path class="cls-7" d="m120,123.02c0-.66.02-1.14.05-1.54-.32.05-.67.06-1.38.06h-4.83c-.59,0-.94-.02-1.3-.05.05.45.06.85.06,1.5v3.91c0,.69-.02,1.22-.06,1.71h2.06v-.75h3.38v.78h2.08c-.05-.43-.06-.96-.06-1.68v-3.95Zm-5.41,2.98v-2.56h3.39v2.56h-3.39Z"/>
        <path class="cls-7" d="m110.13,122c.13-.02.42-.03.9-.08q.08.35.16.69l1.36-.58c-.5-1.78-.53-1.84-1.2-3.46l-1.22.53c.24.62.34.88.43,1.18-.42.05-.72.06-1.42.1.64-.8,1.34-1.81,2.15-3.04.51-.82.58-.91.69-1.06l-1.68-.94c-.21.59-.78,1.68-1.47,2.77q-.19-.26-.53-.66c.51-.77.9-1.46,1.54-2.72.11-.22.16-.32.26-.45l-1.82-.72c-.14.66-.53,1.54-1.12,2.54l-.53-.58-.93,1.7c.93.94,1.36,1.47,2.08,2.48-.27.37-.29.38-.54.72-.99,0-1.1,0-1.41-.05l.19,1.94q.29-.05,1.41-.13.61-.03.83-.05v4.8c0,.85-.02,1.2-.1,1.73h2.08c-.08-.53-.1-.85-.1-1.73v-4.95Z"/>
        <path class="cls-7" d="m107.79,123.01l-1.5-.24c-.08,2.13-.26,3.35-.67,4.48l1.6.66c.38-1.57.53-2.79.58-4.9Z"/>
        <path class="cls-7" d="m111.81,122.75l-1.33.27c.19,1.34.29,2.56.29,3.67v.37l1.42-.29c-.05-1.55-.08-1.9-.38-4.02Z"/>
        <path class="cls-7" d="m113.79,114.22c-.66,0-1.31-.03-1.86-.1v2c.45-.05,1.01-.08,1.73-.08h.69c-.06.9-.29,1.54-.7,2.1-.43.56-.82.85-1.75,1.28.59.51.98.98,1.33,1.66,2.02-1.14,2.95-2.62,3.14-5.04h1.92c-.03,1.41-.11,2.21-.24,2.59-.1.27-.27.35-.72.35-.38,0-.9-.06-1.54-.19.32.69.43,1.17.5,1.98.62.03.86.05,1.12.05,1.65,0,2.29-.32,2.53-1.28.19-.75.34-2.14.38-3.91q.05-1.17.1-1.49c-.35.05-.88.06-1.55.06h-5.07Z"/>
        <path class="cls-7" d="m135.24,121.28c0-.9.02-1.33.1-1.84h-2.37c.06.53.1,1.1.1,1.81v5.3c0,.78-.03,1.38-.11,1.98h2.4c-.08-.66-.11-1.23-.11-2v-5.25Z"/>
        <path class="cls-7" d="m129.88,123.94c.16-.75.27-2.06.29-3.27.02-.59.02-.85.06-1.23h-2.29c.61-.45,1.31-1.06,1.89-1.62.69-.66,1.07-1.1,1.78-2.06.9,1.26,1.55,1.95,2.8,2.96,1.36,1.07,2.5,1.79,3.91,2.45.32-.93.53-1.36,1.01-2.21-1.46-.58-2.54-1.17-3.71-2.05-1.33-1.01-2.08-1.81-2.87-3.01h-2.4c-.69,1.14-1.44,1.98-2.62,2.96-1.17.96-2.23,1.6-3.7,2.19.53.75.75,1.18,1.06,2.13.91-.45,1.84-1.01,2.77-1.68.08.45.1.77.1,1.47,0,1.89-.26,2.99-.88,3.91-.56.82-1.31,1.38-2.71,2,.74.66,1.09,1.1,1.5,1.89,2.35-1.23,3.57-2.71,4.02-4.83Z"/>
        <path class="cls-7" d="m151.49,123.41l3.25-.5q1.54-.26,2.1-.29l-.4-2.3c-.66.21-1.09.3-2.15.46l-3.2.51-.43-2.34,2.82-.45q1.31-.19,2.02-.26l-.38-2.3c-.62.19-.99.27-2.03.43l-2.82.43-.19-.94c-.16-.86-.22-1.33-.24-1.84l-2.51.4q.19.51.43,1.84l.18.91-2.5.38c-1.17.18-1.46.21-2.16.22l.37,2.34c.88-.21,1.06-.26,2.18-.43l2.5-.38.42,2.35-3.36.53c-1.06.16-1.46.21-2.11.22l.38,2.32c.66-.19,1.02-.26,2.02-.42l3.46-.54.45,2.45c.19,1.02.29,1.78.3,2.24l2.59-.43c-.21-.64-.29-.99-.51-2.24l-.45-2.38Z"/>
        <path class="cls-7" d="m166.56,120.88l3.95-.69c-.61,1.12-1.42,1.98-2.58,2.72.78.4,1.07.62,1.76,1.33,1.57-1.3,2.48-2.54,3.17-4.35.18-.48.26-.61.4-.82l-1.3-1.18c-.3.16-.5.21-1.17.32l-4.59.77-.19-.94c-.1-.5-.14-.93-.18-1.46l-2.26.34c.16.43.21.66.35,1.42l.18.99-.96.14c-.91.16-1.23.19-1.79.21l.38,2.11c.58-.18.83-.24,1.68-.38l1.02-.18.96,5.38c.14.8.21,1.23.26,1.86l2.37-.42c-.21-.62-.27-.88-.46-1.84l-1.01-5.33Z"/>
        <path class="cls-7" d="m190.75,118.67c-.99-.7-1.28-.98-2.03-1.86-.46,1.25-.9,2.11-1.62,3.19-1.25,1.87-2.67,3.07-4.71,3.92-1.47.64-3.3,1.07-4.77,1.17l.7,2.62c.34-.11.43-.14.8-.22q.3-.06.7-.14c1.54-.34,3.38-.99,4.66-1.66,2.79-1.47,4.67-3.59,6.26-7.01Z"/>
        <path class="cls-7" d="m179.13,115.16l-1.57,1.89c1.54.85,2.88,1.9,4.21,3.31l1.62-2.1c-1.28-1.18-2.19-1.86-4.26-3.11Z"/>
        <path class="cls-7" d="m208.98,124.58c-.46-.3-.75-.54-1.62-1.33-1.92-1.71-3.44-3.23-5.04-5.04-1.26-1.44-1.68-1.71-2.54-1.71-.42,0-.8.1-1.15.3-.34.21-.7.56-1.26,1.3-.93,1.18-2.43,2.98-2.9,3.44-.24.24-.37.35-.62.53l1.62,2.34c.24-.3.34-.43.58-.7,1.2-1.46,2.13-2.62,2.87-3.6.66-.86.67-.88.91-.88.19,0,.35.1.61.38,3.57,3.95,4.95,5.38,7.36,7.59l1.2-2.61Z"/>
        <path class="cls-7" d="m207.78,117.13c0-.99-.78-1.78-1.76-1.78s-1.78.8-1.78,1.78.8,1.78,1.78,1.78,1.76-.8,1.76-1.78Zm-1.76-.78c.42,0,.77.35.77.78s-.35.78-.77.78-.78-.35-.78-.78.35-.78.78-.78Z"/>
        <path class="cls-7" d="m223.04,122.38c1.25,0,2.31.03,2.95.08v-2.62c-.74.1-1.31.11-2.93.11h-8.1c-1.63,0-2.21-.03-2.93-.13v2.66c.62-.06,1.54-.1,2.93-.1h8.08Z"/>
        <path class="cls-7" d="m242.54,118.67c-.99-.7-1.28-.98-2.03-1.86-.46,1.25-.9,2.11-1.62,3.19-1.25,1.87-2.67,3.07-4.71,3.92-1.47.64-3.3,1.07-4.77,1.17l.7,2.62c.34-.11.43-.14.8-.22q.3-.06.7-.14c1.54-.34,3.38-.99,4.66-1.66,2.79-1.47,4.67-3.59,6.26-7.01Z"/>
        <path class="cls-7" d="m230.92,115.16l-1.57,1.89c1.54.85,2.88,1.9,4.21,3.31l1.62-2.1c-1.28-1.18-2.19-1.86-4.26-3.11Z"/>
      </g>
      <g>
        <g>
          <path class="cls-2" d="m41.12,6.68c-.06.49-.09.9-.09,1.61l-.08,6.99c1.39-.29,2.46-.74,3.47-1.47,1.1-.79,1.89-1.7,2.52-2.94.57.79.78,1.01,1.48,1.59-1.85,2.85-4.08,4.25-7.87,4.94-.4.08-.55.12-.78.22l-.99-1.17c.1-.3.13-.49.13-1.2l.05-6.96c.01-.06.01-.12.01-.18,0-.62-.03-1.12-.08-1.47l2.21.03Z"/>
          <path class="cls-2" d="m56.93,9.38c.57,1.07.83,1.72,1.29,3.19l-1.74.53c-.35-1.42-.6-2.09-1.17-3.25l1.62-.47Zm7.53.16c-.08.22-.09.26-.19.73-.38,1.75-.94,3.19-1.7,4.3-.92,1.33-2.08,2.25-4.13,3.29-.4-.69-.58-.92-1.23-1.55.99-.38,1.55-.68,2.29-1.2,1.51-1.09,2.37-2.43,2.9-4.51.16-.64.22-1.07.23-1.5l1.85.43Zm-4.71-.69c.69,1.31.94,1.9,1.26,3.08l-1.7.52c-.25-1.03-.66-2.15-1.17-3.16l1.61-.44Z"/>
          <path class="cls-2" d="m80.99,17.7c-1.1-1.38-2.4-2.65-3.86-3.78-1.16,1.38-2.87,2.67-4.85,3.63-.43-.82-.61-1.07-1.25-1.73,1.14-.46,1.91-.87,2.89-1.59,1.43-1.04,2.57-2.3,3.41-3.76.17-.29.39-.75.69-1.42l-3.8.07c-1.08.03-1.33.04-1.82.12l-.03-1.98c.42.06.78.08,1.59.08h.25l4.43-.08c.72,0,.78-.01,1.09-.16l1,1.04c-.17.18-.27.35-.43.73-.62,1.46-1.21,2.51-1.96,3.54,1.68,1.2,2,1.48,4.23,3.6l-1.57,1.69Z"/>
          <path class="cls-2" d="m89.84,7.19c1.68,1.01,2.42,1.56,3.46,2.52l-1.31,1.7c-1.08-1.14-2.17-2-3.42-2.69l1.27-1.53Zm-1.22,8.06c1.2-.08,2.68-.43,3.87-.95,1.65-.69,2.81-1.66,3.82-3.19.58-.87.94-1.57,1.31-2.59.61.71.84.94,1.65,1.51-1.29,2.78-2.82,4.5-5.08,5.69-1.04.55-2.54,1.08-3.78,1.35q-.33.06-.57.12c-.3.06-.38.09-.65.18l-.57-2.13Z"/>
          <path class="cls-2" d="m109.76,14.32c-.13.3-.17.4-.31.78-.64-.78-.69-.86-1.09-1.52.06.78.06.85.06,1.26v2.02c0,.61.01.95.06,1.31h-1.75c.05-.4.08-.78.08-1.35v-1.43c0-.49.01-.96.04-1.33-.57,1.31-.9,1.86-1.52,2.55-.19-.62-.43-1.14-.75-1.64.83-.81,1.47-1.79,2.02-3.13h-.58c-.58,0-.87.01-1.2.06v-1.62c.3.05.57.06,1.18.06h.81v-3.08c0-.57-.01-.87-.06-1.21h1.75c-.05.31-.06.61-.06,1.2v2.17c.43-1.13.58-1.64.81-2.72l1.22.56c-.38,1.39-.6,2.02-.98,2.82l-1.05-.57v.83h.53c.52,0,.74-.01,1.01-.06v1.62c-.31-.05-.56-.06-1.04-.06h-.39c.38.58.88,1.1,1.64,1.7-.21.36-.26.46-.39.71.3-.01.78-.08,1.23-.18l2.78-.58v-5.86c0-.79-.01-1.16-.08-1.57h1.85c-.06.44-.08.79-.08,1.57v5.5c.51-.12.73-.18,1.08-.3l.21,1.74c-.35.04-.65.09-1.29.22v1.78c0,.79.01,1.13.08,1.59h-1.85c.06-.44.08-.78.08-1.6v-1.4l-2.55.56c-.61.13-.98.22-1.23.31l-.26-1.7Zm-3.86-7.62c.42,1.17.58,1.79.78,2.8l-1.21.57c-.21-1.21-.42-1.95-.77-2.78l1.2-.59Zm5.23,3.41c.99.69,1.53,1.16,2.22,1.87l-1.03,1.25c-.88-.94-1.34-1.34-2.26-1.99l1.07-1.13Zm.4-3.25c1.09.75,1.52,1.12,2.24,1.86l-1.04,1.29c-.91-.95-1.07-1.09-2.26-1.98l1.07-1.17Z"/>
          <path class="cls-2" d="m125.5,10.93c-.52,0-.9.01-1.3.05v-.58c-.69.42-1.23.69-2.05,1.03-.33-.82-.44-1.03-.86-1.61,2.33-.77,4.36-2.17,5.23-3.64h1.9c.51.71,1,1.21,1.86,1.85,1.07.79,2.08,1.29,3.46,1.72-.36.6-.57,1.07-.79,1.73-.94-.39-1.42-.62-2.17-1.09v.61c-.38-.04-.77-.05-1.33-.05h-1.16v1.07h3.13c.73,0,1.17-.03,1.48-.06v1.66c-.35-.05-.86-.08-1.49-.08h-3.12v2.69h2.47l-1.48-.55c.4-.66.66-1.22.92-2.03l1.64.56c-.58,1.21-.66,1.35-1.05,2.02h.91c.68,0,1.13-.03,1.57-.08v1.7c-.48-.05-1.05-.08-1.61-.08h-8.22c-.65,0-1.16.03-1.69.08v-1.7c.48.05.98.08,1.66.08h3.15v-2.69h-2.94c-.58,0-1.07.03-1.48.08v-1.66c.35.04.79.06,1.5.06h2.93v-1.07h-1.05Zm-.81,2.7c.42.73.69,1.3.96,2.03l-1.55.53c-.38-.92-.61-1.4-.99-1.99l1.57-.57Zm4.72-4.15c-.86-.64-1.37-1.1-1.94-1.83-.58.74-1.05,1.2-1.91,1.83h3.85Z"/>
        </g>
        <g>
          <path class="cls-11" d="m41.12,6.68c-.06.49-.09.9-.09,1.61l-.08,6.99c1.39-.29,2.46-.74,3.47-1.47,1.1-.79,1.89-1.7,2.52-2.94.57.79.78,1.01,1.48,1.59-1.85,2.85-4.08,4.25-7.87,4.94-.4.08-.55.12-.78.22l-.99-1.17c.1-.3.13-.49.13-1.2l.05-6.96c.01-.06.01-.12.01-.18,0-.62-.03-1.12-.08-1.47l2.21.03Z"/>
          <path class="cls-11" d="m56.93,9.38c.57,1.07.83,1.72,1.29,3.19l-1.74.53c-.35-1.42-.6-2.09-1.17-3.25l1.62-.47Zm7.53.16c-.08.22-.09.26-.19.73-.38,1.75-.94,3.19-1.7,4.3-.92,1.33-2.08,2.25-4.13,3.29-.4-.69-.58-.92-1.23-1.55.99-.38,1.55-.68,2.29-1.2,1.51-1.09,2.37-2.43,2.9-4.51.16-.64.22-1.07.23-1.5l1.85.43Zm-4.71-.69c.69,1.31.94,1.9,1.26,3.08l-1.7.52c-.25-1.03-.66-2.15-1.17-3.16l1.61-.44Z"/>
          <path class="cls-11" d="m80.99,17.7c-1.1-1.38-2.4-2.65-3.86-3.78-1.16,1.38-2.87,2.67-4.85,3.63-.43-.82-.61-1.07-1.25-1.73,1.14-.46,1.91-.87,2.89-1.59,1.43-1.04,2.57-2.3,3.41-3.76.17-.29.39-.75.69-1.42l-3.8.07c-1.08.03-1.33.04-1.82.12l-.03-1.98c.42.06.78.08,1.59.08h.25l4.43-.08c.72,0,.78-.01,1.09-.16l1,1.04c-.17.18-.27.35-.43.73-.62,1.46-1.21,2.51-1.96,3.54,1.68,1.2,2,1.48,4.23,3.6l-1.57,1.69Z"/>
          <path class="cls-11" d="m89.84,7.19c1.68,1.01,2.42,1.56,3.46,2.52l-1.31,1.7c-1.08-1.14-2.17-2-3.42-2.69l1.27-1.53Zm-1.22,8.06c1.2-.08,2.68-.43,3.87-.95,1.65-.69,2.81-1.66,3.82-3.19.58-.87.94-1.57,1.31-2.59.61.71.84.94,1.65,1.51-1.29,2.78-2.82,4.5-5.08,5.69-1.04.55-2.54,1.08-3.78,1.35q-.33.06-.57.12c-.3.06-.38.09-.65.18l-.57-2.13Z"/>
          <path class="cls-11" d="m109.76,14.32c-.13.3-.17.4-.31.78-.64-.78-.69-.86-1.09-1.52.06.78.06.85.06,1.26v2.02c0,.61.01.95.06,1.31h-1.75c.05-.4.08-.78.08-1.35v-1.43c0-.49.01-.96.04-1.33-.57,1.31-.9,1.86-1.52,2.55-.19-.62-.43-1.14-.75-1.64.83-.81,1.47-1.79,2.02-3.13h-.58c-.58,0-.87.01-1.2.06v-1.62c.3.05.57.06,1.18.06h.81v-3.08c0-.57-.01-.87-.06-1.21h1.75c-.05.31-.06.61-.06,1.2v2.17c.43-1.13.58-1.64.81-2.72l1.22.56c-.38,1.39-.6,2.02-.98,2.82l-1.05-.57v.83h.53c.52,0,.74-.01,1.01-.06v1.62c-.31-.05-.56-.06-1.04-.06h-.39c.38.58.88,1.1,1.64,1.7-.21.36-.26.46-.39.71.3-.01.78-.08,1.23-.18l2.78-.58v-5.86c0-.79-.01-1.16-.08-1.57h1.85c-.06.44-.08.79-.08,1.57v5.5c.51-.12.73-.18,1.08-.3l.21,1.74c-.35.04-.65.09-1.29.22v1.78c0,.79.01,1.13.08,1.59h-1.85c.06-.44.08-.78.08-1.6v-1.4l-2.55.56c-.61.13-.98.22-1.23.31l-.26-1.7Zm-3.86-7.62c.42,1.17.58,1.79.78,2.8l-1.21.57c-.21-1.21-.42-1.95-.77-2.78l1.2-.59Zm5.23,3.41c.99.69,1.53,1.16,2.22,1.87l-1.03,1.25c-.88-.94-1.34-1.34-2.26-1.99l1.07-1.13Zm.4-3.25c1.09.75,1.52,1.12,2.24,1.86l-1.04,1.29c-.91-.95-1.07-1.09-2.26-1.98l1.07-1.17Z"/>
          <path class="cls-11" d="m125.5,10.93c-.52,0-.9.01-1.3.05v-.58c-.69.42-1.23.69-2.05,1.03-.33-.82-.44-1.03-.86-1.61,2.33-.77,4.36-2.17,5.23-3.64h1.9c.51.71,1,1.21,1.86,1.85,1.07.79,2.08,1.29,3.46,1.72-.36.6-.57,1.07-.79,1.73-.94-.39-1.42-.62-2.17-1.09v.61c-.38-.04-.77-.05-1.33-.05h-1.16v1.07h3.13c.73,0,1.17-.03,1.48-.06v1.66c-.35-.05-.86-.08-1.49-.08h-3.12v2.69h2.47l-1.48-.55c.4-.66.66-1.22.92-2.03l1.64.56c-.58,1.21-.66,1.35-1.05,2.02h.91c.68,0,1.13-.03,1.57-.08v1.7c-.48-.05-1.05-.08-1.61-.08h-8.22c-.65,0-1.16.03-1.69.08v-1.7c.48.05.98.08,1.66.08h3.15v-2.69h-2.94c-.58,0-1.07.03-1.48.08v-1.66c.35.04.79.06,1.5.06h2.93v-1.07h-1.05Zm-.81,2.7c.42.73.69,1.3.96,2.03l-1.55.53c-.38-.92-.61-1.4-.99-1.99l1.57-.57Zm4.72-4.15c-.86-.64-1.37-1.1-1.94-1.83-.58.74-1.05,1.2-1.91,1.83h3.85Z"/>
        </g>
        <g>
          <path class="cls-11" d="m41.12,6.68c-.06.49-.09.9-.09,1.61l-.08,6.99c1.39-.29,2.46-.74,3.47-1.47,1.1-.79,1.89-1.7,2.52-2.94.57.79.78,1.01,1.48,1.59-1.85,2.85-4.08,4.25-7.87,4.94-.4.08-.55.12-.78.22l-.99-1.17c.1-.3.13-.49.13-1.2l.05-6.96c.01-.06.01-.12.01-.18,0-.62-.03-1.12-.08-1.47l2.21.03Z"/>
          <path class="cls-11" d="m56.93,9.38c.57,1.07.83,1.72,1.29,3.19l-1.74.53c-.35-1.42-.6-2.09-1.17-3.25l1.62-.47Zm7.53.16c-.08.22-.09.26-.19.73-.38,1.75-.94,3.19-1.7,4.3-.92,1.33-2.08,2.25-4.13,3.29-.4-.69-.58-.92-1.23-1.55.99-.38,1.55-.68,2.29-1.2,1.51-1.09,2.37-2.43,2.9-4.51.16-.64.22-1.07.23-1.5l1.85.43Zm-4.71-.69c.69,1.31.94,1.9,1.26,3.08l-1.7.52c-.25-1.03-.66-2.15-1.17-3.16l1.61-.44Z"/>
          <path class="cls-11" d="m80.99,17.7c-1.1-1.38-2.4-2.65-3.86-3.78-1.16,1.38-2.87,2.67-4.85,3.63-.43-.82-.61-1.07-1.25-1.73,1.14-.46,1.91-.87,2.89-1.59,1.43-1.04,2.57-2.3,3.41-3.76.17-.29.39-.75.69-1.42l-3.8.07c-1.08.03-1.33.04-1.82.12l-.03-1.98c.42.06.78.08,1.59.08h.25l4.43-.08c.72,0,.78-.01,1.09-.16l1,1.04c-.17.18-.27.35-.43.73-.62,1.46-1.21,2.51-1.96,3.54,1.68,1.2,2,1.48,4.23,3.6l-1.57,1.69Z"/>
          <path class="cls-11" d="m89.84,7.19c1.68,1.01,2.42,1.56,3.46,2.52l-1.31,1.7c-1.08-1.14-2.17-2-3.42-2.69l1.27-1.53Zm-1.22,8.06c1.2-.08,2.68-.43,3.87-.95,1.65-.69,2.81-1.66,3.82-3.19.58-.87.94-1.57,1.31-2.59.61.71.84.94,1.65,1.51-1.29,2.78-2.82,4.5-5.08,5.69-1.04.55-2.54,1.08-3.78,1.35q-.33.06-.57.12c-.3.06-.38.09-.65.18l-.57-2.13Z"/>
          <path class="cls-11" d="m109.76,14.32c-.13.3-.17.4-.31.78-.64-.78-.69-.86-1.09-1.52.06.78.06.85.06,1.26v2.02c0,.61.01.95.06,1.31h-1.75c.05-.4.08-.78.08-1.35v-1.43c0-.49.01-.96.04-1.33-.57,1.31-.9,1.86-1.52,2.55-.19-.62-.43-1.14-.75-1.64.83-.81,1.47-1.79,2.02-3.13h-.58c-.58,0-.87.01-1.2.06v-1.62c.3.05.57.06,1.18.06h.81v-3.08c0-.57-.01-.87-.06-1.21h1.75c-.05.31-.06.61-.06,1.2v2.17c.43-1.13.58-1.64.81-2.72l1.22.56c-.38,1.39-.6,2.02-.98,2.82l-1.05-.57v.83h.53c.52,0,.74-.01,1.01-.06v1.62c-.31-.05-.56-.06-1.04-.06h-.39c.38.58.88,1.1,1.64,1.7-.21.36-.26.46-.39.71.3-.01.78-.08,1.23-.18l2.78-.58v-5.86c0-.79-.01-1.16-.08-1.57h1.85c-.06.44-.08.79-.08,1.57v5.5c.51-.12.73-.18,1.08-.3l.21,1.74c-.35.04-.65.09-1.29.22v1.78c0,.79.01,1.13.08,1.59h-1.85c.06-.44.08-.78.08-1.6v-1.4l-2.55.56c-.61.13-.98.22-1.23.31l-.26-1.7Zm-3.86-7.62c.42,1.17.58,1.79.78,2.8l-1.21.57c-.21-1.21-.42-1.95-.77-2.78l1.2-.59Zm5.23,3.41c.99.69,1.53,1.16,2.22,1.87l-1.03,1.25c-.88-.94-1.34-1.34-2.26-1.99l1.07-1.13Zm.4-3.25c1.09.75,1.52,1.12,2.24,1.86l-1.04,1.29c-.91-.95-1.07-1.09-2.26-1.98l1.07-1.17Z"/>
          <path class="cls-11" d="m125.5,10.93c-.52,0-.9.01-1.3.05v-.58c-.69.42-1.23.69-2.05,1.03-.33-.82-.44-1.03-.86-1.61,2.33-.77,4.36-2.17,5.23-3.64h1.9c.51.71,1,1.21,1.86,1.85,1.07.79,2.08,1.29,3.46,1.72-.36.6-.57,1.07-.79,1.73-.94-.39-1.42-.62-2.17-1.09v.61c-.38-.04-.77-.05-1.33-.05h-1.16v1.07h3.13c.73,0,1.17-.03,1.48-.06v1.66c-.35-.05-.86-.08-1.49-.08h-3.12v2.69h2.47l-1.48-.55c.4-.66.66-1.22.92-2.03l1.64.56c-.58,1.21-.66,1.35-1.05,2.02h.91c.68,0,1.13-.03,1.57-.08v1.7c-.48-.05-1.05-.08-1.61-.08h-8.22c-.65,0-1.16.03-1.69.08v-1.7c.48.05.98.08,1.66.08h3.15v-2.69h-2.94c-.58,0-1.07.03-1.48.08v-1.66c.35.04.79.06,1.5.06h2.93v-1.07h-1.05Zm-.81,2.7c.42.73.69,1.3.96,2.03l-1.55.53c-.38-.92-.61-1.4-.99-1.99l1.57-.57Zm4.72-4.15c-.86-.64-1.37-1.1-1.94-1.83-.58.74-1.05,1.2-1.91,1.83h3.85Z"/>
        </g>
      </g>
      <g>
        <g>
          <path class="cls-3" d="m143.93,8.57c.04.69.31,2.05.62,3.12.56-.2.99-.34,2.59-.84.21-.06.26-.08.41-.15l.51,1.56c-1.04.17-2.34.53-3.52.96-1.4.52-2.12,1.12-2.12,1.77s.68.97,2.19.97c1.26,0,2.63-.17,3.43-.45l.12,1.67c-.23.01-.28.02-.86.08-1.12.11-1.84.16-2.57.16-1.77,0-2.91-.34-3.45-1.02-.29-.36-.45-.86-.45-1.36,0-.74.32-1.41.91-1.92.41-.35.75-.56,1.41-.89-.25-.84-.41-1.51-.66-2.74-.1-.49-.11-.52-.16-.67l1.59-.25Z"/>
          <path class="cls-3" d="m156.34,8.81c-.1.6-.23,3.34-.23,5.11,0,.99.05,1.34.25,1.63.21.33.68.51,1.28.51,1.09,0,1.92-.61,2.39-1.74.21-.54.34-1.02.43-1.78.67.52.89.67,1.5.93-.41,1.46-.73,2.16-1.26,2.75-.79.87-1.82,1.31-3.13,1.31-.76,0-1.43-.16-1.89-.46-.43-.29-.76-.73-.92-1.24-.09-.33-.15-.86-.15-1.46,0-.46.01-1.13.04-2.48.03-1.41.04-2.04.04-2.34,0-.34-.01-.48-.04-.77l1.71.03Z"/>
          <path class="cls-3" d="m166.73,9.72c.24.01.36.01.4.01.19,0,.26,0,1.71-.09.71-.05,2.47-.13,5.28-.26.9-.04.96-.05,1.15-.09l.08,1.57c-.12-.02-.15-.02-.25-.02-.67,0-1.49.24-2.18.62-1.16.67-1.85,1.61-1.85,2.55,0,.76.47,1.31,1.33,1.56.47.13,1.14.24,1.52.24.06,0,.13,0,.26-.01l-.21,1.66c-.13-.03-.17-.04-.36-.06-1.15-.12-1.86-.3-2.48-.62-1.06-.55-1.62-1.44-1.62-2.62,0-1.37.74-2.5,2.16-3.32-1.01.11-1.06.11-3.35.29-.56.05-1.12.12-1.5.19l-.08-1.59Z"/>
          <path class="cls-3" d="m183.43,10.45c-.42,0-.66.01-1,.04v-1.13c-.15.48-.3.84-.57,1.45v5.91c0,.43.02.75.06,1.18h-1.41c.05-.44.06-.69.06-1.19v-2.84c0-.22,0-.33.02-1.1-.18.33-.34.54-.61.89-.13-.6-.26-.98-.49-1.53.6-.66,1.09-1.5,1.45-2.52.19-.54.31-.94.37-1.38l1.38.32c-.07.23-.08.26-.15.47-.02.06-.03.12-.05.17.28.03.72.05,1.11.05h1.47c0-.56-.02-.66-.06-.95h1.35c-.04.28-.04.46-.04.95h1.64c.49,0,.84-.02,1.23-.06v1.29c-.31-.03-.65-.04-1.05-.04h-1.82v.61h1.49c.46,0,.69-.01.97-.04-.03.28-.04.53-.04.96v1.37c0,.51.01.71.04.97-.3-.03-.53-.04-.99-.04h-1.69c-.12.58-.29,1.01-.55,1.46,1.01.48,2.02.68,3.79.73-.24.47-.39.9-.5,1.36-1.79-.16-2.96-.49-4.05-1.16-.57.52-1.18.85-2.19,1.18-.26-.51-.43-.81-.7-1.16.85-.23,1.39-.46,1.87-.8-.27-.26-.41-.41-.78-.86-.06-.07-.1-.11-.17-.19l1.11-.51.03.07c.1.17.31.42.58.68.16-.27.23-.42.32-.8h-1.48c-.31,0-.55.01-.8.04.03-.29.04-.52.04-.93v-1.43c0-.47-.01-.67-.04-.94.3.03.47.04.96.04h1.55v-.61h-1.63Zm.43,1.76v.94h1.13c.03-.3.04-.55.05-.94h-1.18Zm2.43,0c-.01.39-.03.67-.04.94h1.2v-.94h-1.16Z"/>
          <path class="cls-3" d="m194.29,11.28c.29.02.42.03.6.03,1.02,0,2.11-.06,3.75-.23.47-.05.69-.09.88-.17l.8,1.03c-.19.12-.28.19-.85.73-.61.56-.65.58-1.15,1.02-.06.05-.13.11-.24.2-.15.12-.19.16-.32.26.23-.08.34-.1.53-.1.43,0,.75.17.92.52.1.21.11.27.17.91.05.69.18.82.78.82.68,0,1.42-.15,2.02-.4l.15,1.52c-.17,0-.34.02-.92.11-.62.09-1.01.12-1.52.12-.88,0-1.37-.19-1.65-.65-.15-.24-.19-.43-.23-1.06-.03-.37-.05-.51-.1-.62-.07-.12-.23-.2-.41-.2-.45,0-.9.29-1.73,1.1-.51.5-1.01,1.04-1.38,1.5l-1.14-1.29c.66-.44,1.89-1.53,3.8-3.33.35-.34.48-.46.78-.73-.48.09-.95.14-2.28.26-.52.04-.88.08-1.19.13l-.09-1.47Zm1.3-2.7c1.22.35,2.56.51,4.26.53l-.21,1.37c-2.18-.11-3.06-.23-4.46-.56l.42-1.34Z"/>
          <path class="cls-3" d="m207.94,9c.38.05.72.07,1.33.07.88,0,2.15-.05,3.1-.12.4-.03.52-.05.7-.13l.73,1.06c-.21.12-.23.12-1.02.83-1.06.95-1.39,1.22-2.22,1.8.58-.17,1.1-.25,1.69-.25.87,0,1.59.24,2.14.7.5.42.75.98.75,1.7,0,.99-.48,1.79-1.4,2.32-.69.4-1.59.61-2.57.61-.89,0-1.65-.18-2.08-.51-.4-.3-.62-.75-.62-1.25,0-.88.8-1.55,1.88-1.55.73,0,1.37.3,1.8.83.2.25.32.46.47.88.73-.3,1.02-.69,1.02-1.33,0-.75-.76-1.23-1.94-1.23-1.5,0-2.91.58-4.18,1.72l-.82-1.32c.96-.46,3.1-2.16,4.55-3.6-.84.07-1.01.08-2.52.15-.33.02-.42.02-.73.06l-.06-1.45Zm2.39,6.45c-.31,0-.51.16-.51.41,0,.36.39.56,1.05.56.15,0,.19,0,.43-.05-.15-.6-.49-.92-.97-.92Z"/>
        </g>
        <g>
          <path class="cls-7" d="m143.93,8.57c.04.69.31,2.05.62,3.12.56-.2.99-.34,2.59-.84.21-.06.26-.08.41-.15l.51,1.56c-1.04.17-2.34.53-3.52.96-1.4.52-2.12,1.12-2.12,1.77s.68.97,2.19.97c1.26,0,2.63-.17,3.43-.45l.12,1.67c-.23.01-.28.02-.86.08-1.12.11-1.84.16-2.57.16-1.77,0-2.91-.34-3.45-1.02-.29-.36-.45-.86-.45-1.36,0-.74.32-1.41.91-1.92.41-.35.75-.56,1.41-.89-.25-.84-.41-1.51-.66-2.74-.1-.49-.11-.52-.16-.67l1.59-.25Z"/>
          <path class="cls-7" d="m156.34,8.81c-.1.6-.23,3.34-.23,5.11,0,.99.05,1.34.25,1.63.21.33.68.51,1.28.51,1.09,0,1.92-.61,2.39-1.74.21-.54.34-1.02.43-1.78.67.52.89.67,1.5.93-.41,1.46-.73,2.16-1.26,2.75-.79.87-1.82,1.31-3.13,1.31-.76,0-1.43-.16-1.89-.46-.43-.29-.76-.73-.92-1.24-.09-.33-.15-.86-.15-1.46,0-.46.01-1.13.04-2.48.03-1.41.04-2.04.04-2.34,0-.34-.01-.48-.04-.77l1.71.03Z"/>
          <path class="cls-7" d="m166.73,9.72c.24.01.36.01.4.01.19,0,.26,0,1.71-.09.71-.05,2.47-.13,5.28-.26.9-.04.96-.05,1.15-.09l.08,1.57c-.12-.02-.15-.02-.25-.02-.67,0-1.49.24-2.18.62-1.16.67-1.85,1.61-1.85,2.55,0,.76.47,1.31,1.33,1.56.47.13,1.14.24,1.52.24.06,0,.13,0,.26-.01l-.21,1.66c-.13-.03-.17-.04-.36-.06-1.15-.12-1.86-.3-2.48-.62-1.06-.55-1.62-1.44-1.62-2.62,0-1.37.74-2.5,2.16-3.32-1.01.11-1.06.11-3.35.29-.56.05-1.12.12-1.5.19l-.08-1.59Z"/>
          <path class="cls-7" d="m183.43,10.45c-.42,0-.66.01-1,.04v-1.13c-.15.48-.3.84-.57,1.45v5.91c0,.43.02.75.06,1.18h-1.41c.05-.44.06-.69.06-1.19v-2.84c0-.22,0-.33.02-1.1-.18.33-.34.54-.61.89-.13-.6-.26-.98-.49-1.53.6-.66,1.09-1.5,1.45-2.52.19-.54.31-.94.37-1.38l1.38.32c-.07.23-.08.26-.15.47-.02.06-.03.12-.05.17.28.03.72.05,1.11.05h1.47c0-.56-.02-.66-.06-.95h1.35c-.04.28-.04.46-.04.95h1.64c.49,0,.84-.02,1.23-.06v1.29c-.31-.03-.65-.04-1.05-.04h-1.82v.61h1.49c.46,0,.69-.01.97-.04-.03.28-.04.53-.04.96v1.37c0,.51.01.71.04.97-.3-.03-.53-.04-.99-.04h-1.69c-.12.58-.29,1.01-.55,1.46,1.01.48,2.02.68,3.79.73-.24.47-.39.9-.5,1.36-1.79-.16-2.96-.49-4.05-1.16-.57.52-1.18.85-2.19,1.18-.26-.51-.43-.81-.7-1.16.85-.23,1.39-.46,1.87-.8-.27-.26-.41-.41-.78-.86-.06-.07-.1-.11-.17-.19l1.11-.51.03.07c.1.17.31.42.58.68.16-.27.23-.42.32-.8h-1.48c-.31,0-.55.01-.8.04.03-.29.04-.52.04-.93v-1.43c0-.47-.01-.67-.04-.94.3.03.47.04.96.04h1.55v-.61h-1.63Zm.43,1.76v.94h1.13c.03-.3.04-.55.05-.94h-1.18Zm2.43,0c-.01.39-.03.67-.04.94h1.2v-.94h-1.16Z"/>
          <path class="cls-7" d="m194.29,11.28c.29.02.42.03.6.03,1.02,0,2.11-.06,3.75-.23.47-.05.69-.09.88-.17l.8,1.03c-.19.12-.28.19-.85.73-.61.56-.65.58-1.15,1.02-.06.05-.13.11-.24.2-.15.12-.19.16-.32.26.23-.08.34-.1.53-.1.43,0,.75.17.92.52.1.21.11.27.17.91.05.69.18.82.78.82.68,0,1.42-.15,2.02-.4l.15,1.52c-.17,0-.34.02-.92.11-.62.09-1.01.12-1.52.12-.88,0-1.37-.19-1.65-.65-.15-.24-.19-.43-.23-1.06-.03-.37-.05-.51-.1-.62-.07-.12-.23-.2-.41-.2-.45,0-.9.29-1.73,1.1-.51.5-1.01,1.04-1.38,1.5l-1.14-1.29c.66-.44,1.89-1.53,3.8-3.33.35-.34.48-.46.78-.73-.48.09-.95.14-2.28.26-.52.04-.88.08-1.19.13l-.09-1.47Zm1.3-2.7c1.22.35,2.56.51,4.26.53l-.21,1.37c-2.18-.11-3.06-.23-4.46-.56l.42-1.34Z"/>
          <path class="cls-7" d="m207.94,9c.38.05.72.07,1.33.07.88,0,2.15-.05,3.1-.12.4-.03.52-.05.7-.13l.73,1.06c-.21.12-.23.12-1.02.83-1.06.95-1.39,1.22-2.22,1.8.58-.17,1.1-.25,1.69-.25.87,0,1.59.24,2.14.7.5.42.75.98.75,1.7,0,.99-.48,1.79-1.4,2.32-.69.4-1.59.61-2.57.61-.89,0-1.65-.18-2.08-.51-.4-.3-.62-.75-.62-1.25,0-.88.8-1.55,1.88-1.55.73,0,1.37.3,1.8.83.2.25.32.46.47.88.73-.3,1.02-.69,1.02-1.33,0-.75-.76-1.23-1.94-1.23-1.5,0-2.91.58-4.18,1.72l-.82-1.32c.96-.46,3.1-2.16,4.55-3.6-.84.07-1.01.08-2.52.15-.33.02-.42.02-.73.06l-.06-1.45Zm2.39,6.45c-.31,0-.51.16-.51.41,0,.36.39.56,1.05.56.15,0,.19,0,.43-.05-.15-.6-.49-.92-.97-.92Z"/>
        </g>
      </g>
      <g>
        <path class="cls-2" d="m133.33,77.28c.52.13,1.41.18,2.56.18h.7c.35-.84.45-1.18.5-1.64l2.17.2q-.1.15-.52,1.16c-.06.13-.06.14-.11.25.21-.03.25-.03.87-.06,1.67-.1,2.82-.25,3.61-.46l.08,1.89q-.43.04-1.11.11c-1.02.13-2.84.24-4.26.28-.27.49-.46.78-.91,1.39.73-.41,1.23-.55,1.93-.55,1.13,0,1.83.48,2.09,1.41.13-.04.38-.13.74-.25.55-.2.62-.22,1.25-.43.8-.27.85-.28,1.09-.42l.74,1.9c-.41.06-.87.15-1.58.36q-.34.08-2.03.66v.46s.01.25.01.25v.7c0,.42.01.66.04.94l-1.95.06c.06-.27.08-.88.08-1.62,0-.01,0-.06-.01-.11-.57.27-.85.42-1.12.6-.43.31-.66.66-.66,1.01,0,.64.6.9,2.13.9,1.69,0,3.21-.22,4.3-.63l.15,2.14c-.27.01-.32.01-.7.07-1.18.17-2.42.25-3.6.25-2.06,0-3.22-.31-3.87-1.04-.35-.39-.55-.94-.55-1.51,0-.87.56-1.74,1.62-2.51.46-.34,1.08-.66,2.04-1.08-.07-.38-.31-.56-.71-.56-.76,0-1.71.48-2.76,1.39-.57.5-.92.88-1.27,1.34l-1.51-1.5c.78-.57,2-2.03,2.73-3.28.13-.24.14-.25.21-.35-.78,0-.9,0-1.3-.01-.27-.01-.49-.01-.53-.01-.13,0-.21,0-.24-.01h-.2c-.06,0-.13,0-.21.01l.03-1.89Z"/>
        <path class="cls-11" d="m133.33,77.28c.52.13,1.41.18,2.56.18h.7c.35-.84.45-1.18.5-1.64l2.17.2q-.1.15-.52,1.16c-.06.13-.06.14-.11.25.21-.03.25-.03.87-.06,1.67-.1,2.82-.25,3.61-.46l.08,1.89q-.43.04-1.11.11c-1.02.13-2.84.24-4.26.28-.27.49-.46.78-.91,1.39.73-.41,1.23-.55,1.93-.55,1.13,0,1.83.48,2.09,1.41.13-.04.38-.13.74-.25.55-.2.62-.22,1.25-.43.8-.27.85-.28,1.09-.42l.74,1.9c-.41.06-.87.15-1.58.36q-.34.08-2.03.66v.46s.01.25.01.25v.7c0,.42.01.66.04.94l-1.95.06c.06-.27.08-.88.08-1.62,0-.01,0-.06-.01-.11-.57.27-.85.42-1.12.6-.43.31-.66.66-.66,1.01,0,.64.6.9,2.13.9,1.69,0,3.21-.22,4.3-.63l.15,2.14c-.27.01-.32.01-.7.07-1.18.17-2.42.25-3.6.25-2.06,0-3.22-.31-3.87-1.04-.35-.39-.55-.94-.55-1.51,0-.87.56-1.74,1.62-2.51.46-.34,1.08-.66,2.04-1.08-.07-.38-.31-.56-.71-.56-.76,0-1.71.48-2.76,1.39-.57.5-.92.88-1.27,1.34l-1.51-1.5c.78-.57,2-2.03,2.73-3.28.13-.24.14-.25.21-.35-.78,0-.9,0-1.3-.01-.27-.01-.49-.01-.53-.01-.13,0-.21,0-.24-.01h-.2c-.06,0-.13,0-.21.01l.03-1.89Z"/>
      </g>
      <g>
        <g>
          <path class="cls-2" d="m154.9,80.01c.8.31,1.41.42,2.98.63q.12-1,.29-2.07c-.82-.08-1.12-.14-2.4-.41-.25-.05-.34-.07-.59-.1l.19-2.24c.78.29,1.65.46,3.08.59.2-1.31.29-2.07.29-2.63v-.2l2.69.24c-.19.54-.24.78-.53,2.69,1.73-.03,2.77-.14,3.79-.39l-.08,2.38q-.26.02-1.24.1c-1.09.08-1.33.1-2.57.1h-.26c-.12.82-.17,1.16-.29,2.09.27.02.48.02.59.02,1.34,0,2.46-.12,3.38-.37l-.05,2.33c-.19,0-.22.02-.54.05-.71.1-1.8.17-2.62.17-.19,0-.32,0-.92-.02-.03.32-.05.7-.05,1.02,0,.75.19,1.24.58,1.6.46.39,1.1.6,1.99.6,2.02,0,3.18-.88,3.18-2.43,0-.94-.51-1.92-1.48-2.86,1.12-.07,1.55-.15,2.52-.49,1.05,1.31,1.48,2.38,1.48,3.72,0,1.22-.63,2.45-1.68,3.23-1.02.78-2.35,1.17-3.94,1.17-1.27,0-2.45-.27-3.23-.77-1.24-.76-1.82-1.9-1.82-3.62,0-.42,0-.59.05-1.33-.82-.1-1.41-.19-2.29-.37-.19-.03-.36-.07-.66-.1l.19-2.31Z"/>
          <path class="cls-2" d="m179.63,76.99c-.19.66-.58,2.87-.78,4.42,1.46-1.04,2.92-1.48,4.96-1.48,3.03,0,4.96,1.48,4.96,3.77,0,1.36-.68,2.63-1.84,3.43-1.21.83-2.67,1.21-4.64,1.21-1.43,0-2.52-.14-4.32-.54-.02-1.09-.07-1.55-.31-2.58,1.68.54,3.13.82,4.47.82,2.38,0,3.98-.9,3.98-2.24,0-1.04-.97-1.65-2.6-1.65-1.46,0-2.87.41-4.03,1.14-.37.24-.53.37-.87.76l-2.46-.08c.03-.22.03-.24.07-.46.15-1.26.44-3.4.78-5.64.05-.41.07-.63.1-1.02l2.52.15Zm-.02-3.54c1.22.66,4.62,1.65,6.6,1.92l-.82,2.35c-2.96-.65-5-1.27-6.97-2.18l1.19-2.09Z"/>
          <path class="cls-2" d="m205.6,77.99c-.34.03-.49.05-1.21.19-.85.14-1.31.2-2.09.29v1.85c1.19-.27,1.84-.36,2.99-.36,1.5,0,2.69.31,3.6.92,1.07.75,1.72,1.99,1.72,3.37,0,2.35-1.72,4.06-4.05,4.06-2.06,0-3.2-1.36-3.2-3.81,0-.07,0-.2.02-.36,1.05-.31,1.39-.44,2.24-.92-.07.39-.08.66-.08.94,0,1.22.34,1.75,1.12,1.75.85,0,1.48-.7,1.48-1.67,0-1.34-1.1-2.19-2.89-2.19-.99,0-1.89.14-2.94.46v3.2c0,1.27-.05,1.63-.29,1.97-.29.44-.88.7-1.56.7-.99,0-2.18-.37-3.03-.97-.94-.63-1.43-1.44-1.43-2.35s.54-1.84,1.51-2.69c.61-.53,1.38-.97,2.5-1.46v-2.33c-.85.02-1.31.03-1.53.03-.15,0-.19,0-1.07-.03h-.29c-.08,0-.24,0-.42.02l-.02-2.26c.46.1,1.24.15,2.14.15.15,0,.2,0,.83-.02q.22,0,.34-.02v-.85c0-1.1-.02-1.53-.1-2.11h2.52c-.08.59-.1.95-.1,1.97v.83c1.05-.1,2.29-.34,3.2-.61l.08,2.29Zm-5.58,5.27c-1.04.51-1.73,1.22-1.73,1.78,0,.24.15.46.48.66.29.19.66.32.94.32.25,0,.32-.14.32-.7v-2.07Zm9.47-3.59c-.83-1.38-2.02-2.74-3.38-3.82l1.87-1.33c1.51,1.21,2.48,2.24,3.4,3.65l-1.89,1.5Z"/>
          <path class="cls-2" d="m218.35,78.89q.61-.03,2.11-.29c2.45-.41,3.91-.56,5.64-.56,1.6,0,2.86.39,3.67,1.12.75.68,1.17,1.72,1.17,2.86,0,2.02-1.24,3.88-3.38,5.05-1.44.78-2.75,1.16-5.56,1.55-.25-1.1-.44-1.55-1.04-2.5,2.86-.17,4.69-.66,5.93-1.61.85-.65,1.33-1.5,1.33-2.41,0-.58-.27-1.09-.71-1.34-.41-.24-.97-.36-1.73-.36-1.99,0-5.25.56-6.87,1.17l-.56-2.67Zm2.72-5.49c1.97.63,4.39.97,7.02.97.12,0,.42,0,.85-.02l-.32,2.48c-3.23-.1-5.71-.43-8.31-1.04l.76-2.4Z"/>
          <path class="cls-2" d="m241.52,83.92c.02-.43.03-.61.03-.8q0-.22-.05-1.22l-.29-5.59c-.03-.77-.1-1.6-.17-2.18h3.31c-.07.49-.14,1.29-.17,2.18l-.29,5.59q-.05,1.04-.05,1.24c0,.19.02.36.03.78h-2.36Zm-.27,4.05v-2.75h2.91v2.75h-2.91Z"/>
        </g>
        <g>
          <path class="cls-11" d="m154.9,80.01c.8.31,1.41.42,2.98.63q.12-1,.29-2.07c-.82-.08-1.12-.14-2.4-.41-.25-.05-.34-.07-.59-.1l.19-2.24c.78.29,1.65.46,3.08.59.2-1.31.29-2.07.29-2.63v-.2l2.69.24c-.19.54-.24.78-.53,2.69,1.73-.03,2.77-.14,3.79-.39l-.08,2.38q-.26.02-1.24.1c-1.09.08-1.33.1-2.57.1h-.26c-.12.82-.17,1.16-.29,2.09.27.02.48.02.59.02,1.34,0,2.46-.12,3.38-.37l-.05,2.33c-.19,0-.22.02-.54.05-.71.1-1.8.17-2.62.17-.19,0-.32,0-.92-.02-.03.32-.05.7-.05,1.02,0,.75.19,1.24.58,1.6.46.39,1.1.6,1.99.6,2.02,0,3.18-.88,3.18-2.43,0-.94-.51-1.92-1.48-2.86,1.12-.07,1.55-.15,2.52-.49,1.05,1.31,1.48,2.38,1.48,3.72,0,1.22-.63,2.45-1.68,3.23-1.02.78-2.35,1.17-3.94,1.17-1.27,0-2.45-.27-3.23-.77-1.24-.76-1.82-1.9-1.82-3.62,0-.42,0-.59.05-1.33-.82-.1-1.41-.19-2.29-.37-.19-.03-.36-.07-.66-.1l.19-2.31Z"/>
          <path class="cls-11" d="m179.63,76.99c-.19.66-.58,2.87-.78,4.42,1.46-1.04,2.92-1.48,4.96-1.48,3.03,0,4.96,1.48,4.96,3.77,0,1.36-.68,2.63-1.84,3.43-1.21.83-2.67,1.21-4.64,1.21-1.43,0-2.52-.14-4.32-.54-.02-1.09-.07-1.55-.31-2.58,1.68.54,3.13.82,4.47.82,2.38,0,3.98-.9,3.98-2.24,0-1.04-.97-1.65-2.6-1.65-1.46,0-2.87.41-4.03,1.14-.37.24-.53.37-.87.76l-2.46-.08c.03-.22.03-.24.07-.46.15-1.26.44-3.4.78-5.64.05-.41.07-.63.1-1.02l2.52.15Zm-.02-3.54c1.22.66,4.62,1.65,6.6,1.92l-.82,2.35c-2.96-.65-5-1.27-6.97-2.18l1.19-2.09Z"/>
          <path class="cls-11" d="m205.6,77.99c-.34.03-.49.05-1.21.19-.85.14-1.31.2-2.09.29v1.85c1.19-.27,1.84-.36,2.99-.36,1.5,0,2.69.31,3.6.92,1.07.75,1.72,1.99,1.72,3.37,0,2.35-1.72,4.06-4.05,4.06-2.06,0-3.2-1.36-3.2-3.81,0-.07,0-.2.02-.36,1.05-.31,1.39-.44,2.24-.92-.07.39-.08.66-.08.94,0,1.22.34,1.75,1.12,1.75.85,0,1.48-.7,1.48-1.67,0-1.34-1.1-2.19-2.89-2.19-.99,0-1.89.14-2.94.46v3.2c0,1.27-.05,1.63-.29,1.97-.29.44-.88.7-1.56.7-.99,0-2.18-.37-3.03-.97-.94-.63-1.43-1.44-1.43-2.35s.54-1.84,1.51-2.69c.61-.53,1.38-.97,2.5-1.46v-2.33c-.85.02-1.31.03-1.53.03-.15,0-.19,0-1.07-.03h-.29c-.08,0-.24,0-.42.02l-.02-2.26c.46.1,1.24.15,2.14.15.15,0,.2,0,.83-.02q.22,0,.34-.02v-.85c0-1.1-.02-1.53-.1-2.11h2.52c-.08.59-.1.95-.1,1.97v.83c1.05-.1,2.29-.34,3.2-.61l.08,2.29Zm-5.58,5.27c-1.04.51-1.73,1.22-1.73,1.78,0,.24.15.46.48.66.29.19.66.32.94.32.25,0,.32-.14.32-.7v-2.07Zm9.47-3.59c-.83-1.38-2.02-2.74-3.38-3.82l1.87-1.33c1.51,1.21,2.48,2.24,3.4,3.65l-1.89,1.5Z"/>
          <path class="cls-11" d="m218.35,78.89q.61-.03,2.11-.29c2.45-.41,3.91-.56,5.64-.56,1.6,0,2.86.39,3.67,1.12.75.68,1.17,1.72,1.17,2.86,0,2.02-1.24,3.88-3.38,5.05-1.44.78-2.75,1.16-5.56,1.55-.25-1.1-.44-1.55-1.04-2.5,2.86-.17,4.69-.66,5.93-1.61.85-.65,1.33-1.5,1.33-2.41,0-.58-.27-1.09-.71-1.34-.41-.24-.97-.36-1.73-.36-1.99,0-5.25.56-6.87,1.17l-.56-2.67Zm2.72-5.49c1.97.63,4.39.97,7.02.97.12,0,.42,0,.85-.02l-.32,2.48c-3.23-.1-5.71-.43-8.31-1.04l.76-2.4Z"/>
          <path class="cls-11" d="m241.52,83.92c.02-.43.03-.61.03-.8q0-.22-.05-1.22l-.29-5.59c-.03-.77-.1-1.6-.17-2.18h3.31c-.07.49-.14,1.29-.17,2.18l-.29,5.59q-.05,1.04-.05,1.24c0,.19.02.36.03.78h-2.36Zm-.27,4.05v-2.75h2.91v2.75h-2.91Z"/>
        </g>
      </g>
      <g>
        <g>
          <path class="cls-5" d="m125.21,49.98c-.12.71-.26,3.91-.26,5.98,0,1.16.06,1.57.29,1.91.25.38.79.6,1.5.6,1.27,0,2.25-.72,2.79-2.04.25-.64.4-1.2.5-2.09.78.61,1.04.78,1.75,1.09-.48,1.71-.85,2.53-1.48,3.23-.92,1.02-2.13,1.54-3.67,1.54-.89,0-1.68-.19-2.22-.54-.5-.34-.89-.85-1.08-1.45-.11-.38-.18-1.01-.18-1.72,0-.54.01-1.32.05-2.9.04-1.65.05-2.39.05-2.75,0-.4-.01-.56-.05-.9l2,.04Z"/>
          <path class="cls-5" d="m135.79,51.04c.28.01.42.01.47.01.23,0,.3,0,2-.11.83-.06,2.89-.16,6.19-.3,1.06-.05,1.13-.06,1.34-.11l.1,1.84c-.14-.02-.18-.02-.29-.02-.78,0-1.75.28-2.55.73-1.35.78-2.17,1.88-2.17,2.99,0,.89.55,1.54,1.56,1.82.55.16,1.33.28,1.77.28.07,0,.16,0,.3-.01l-.25,1.94c-.16-.04-.2-.05-.42-.07-1.34-.14-2.18-.35-2.9-.73-1.25-.65-1.9-1.69-1.9-3.07,0-1.61.86-2.93,2.53-3.89-1.19.13-1.25.13-3.92.34-.66.06-1.31.14-1.76.23l-.1-1.86Z"/>
        </g>
        <g>
          <path class="cls-7" d="m125.21,49.98c-.12.71-.26,3.91-.26,5.98,0,1.16.06,1.57.29,1.91.25.38.79.6,1.5.6,1.27,0,2.25-.72,2.79-2.04.25-.64.4-1.2.5-2.09.78.61,1.04.78,1.75,1.09-.48,1.71-.85,2.53-1.48,3.23-.92,1.02-2.13,1.54-3.67,1.54-.89,0-1.68-.19-2.22-.54-.5-.34-.89-.85-1.08-1.45-.11-.38-.18-1.01-.18-1.72,0-.54.01-1.32.05-2.9.04-1.65.05-2.39.05-2.75,0-.4-.01-.56-.05-.9l2,.04Z"/>
          <path class="cls-7" d="m135.79,51.04c.28.01.42.01.47.01.23,0,.3,0,2-.11.83-.06,2.89-.16,6.19-.3,1.06-.05,1.13-.06,1.34-.11l.1,1.84c-.14-.02-.18-.02-.29-.02-.78,0-1.75.28-2.55.73-1.35.78-2.17,1.88-2.17,2.99,0,.89.55,1.54,1.56,1.82.55.16,1.33.28,1.77.28.07,0,.16,0,.3-.01l-.25,1.94c-.16-.04-.2-.05-.42-.07-1.34-.14-2.18-.35-2.9-.73-1.25-.65-1.9-1.69-1.9-3.07,0-1.61.86-2.93,2.53-3.89-1.19.13-1.25.13-3.92.34-.66.06-1.31.14-1.76.23l-.1-1.86Z"/>
        </g>
      </g>
      <g>
        <g>
          <path class="cls-2" d="m25.15,79.68c-.06.23-.08.3-.32,1.41-.23,1.08-.72,2.51-1.23,3.7-.51,1.16-.89,1.84-1.67,2.98-1.14-.76-1.52-.97-2.62-1.39,1.31-1.71,2.01-3.1,2.64-5.19.27-.89.38-1.46.46-2.17l2.75.65Zm11.11-1.73c-.78-.09-1.14-.11-2.74-.11h-3.97v8.66c0,1.01.04,1.96.1,2.6h-3.06c.08-.72.11-1.44.11-2.6v-8.66h-3.78c-1.52,0-1.88.02-2.74.09v-2.75c.87.11,1.22.13,2.74.13h3.78v-.74c0-.93-.04-1.54-.11-2.2h3.08c-.08.63-.11,1.29-.11,2.2v.74h4.29c-.51-.4-.8-1.01-.8-1.65,0-1.16.95-2.11,2.11-2.11s2.09.93,2.09,2.11c0,.72-.36,1.39-.99,1.79v2.51Zm-2.51,1.06c.13.65.28,1.14.63,2.11.84,2.3,1.54,3.69,2.58,5.13-1.37.72-1.65.89-2.6,1.54-1.48-2.55-2.15-4.18-3.06-7.5-.06-.23-.1-.34-.21-.61l2.66-.67Zm.47-5.38c0,.51.42.93.93.93s.91-.42.91-.93-.42-.91-.91-.91-.93.42-.93.91Z"/>
          <path class="cls-2" d="m59.09,74.15c-.4.34-.44.38-.72.68-1.44,1.5-2.89,2.75-4.45,3.88v7.48c0,1.52.02,2.17.1,2.81h-3.13c.1-.72.11-1.2.11-2.75v-5.77c-1.98,1.18-3.06,1.67-6.5,2.94-.51-1.18-.74-1.56-1.54-2.58,3.84-1.06,7.01-2.62,10.01-4.94,1.67-1.29,2.94-2.56,3.51-3.51l2.6,1.77Z"/>
          <path class="cls-2" d="m68.8,73.58c2.45,1.48,3.53,2.28,5.05,3.69l-1.92,2.49c-1.58-1.67-3.17-2.93-5-3.93l1.86-2.24Zm-1.79,11.78c1.75-.11,3.91-.63,5.66-1.39,2.41-1.01,4.1-2.43,5.58-4.65.85-1.27,1.37-2.3,1.92-3.78.89,1.04,1.23,1.37,2.41,2.2-1.88,4.07-4.12,6.57-7.43,8.32-1.52.8-3.7,1.58-5.53,1.98q-.48.09-.84.17c-.44.09-.55.13-.95.27l-.84-3.12Z"/>
          <path class="cls-2" d="m92.05,88.95c.1-.72.11-1.39.11-2.68v-11.25c0-1.35-.02-1.88-.11-2.55h3.1c-.1.72-.11,1.16-.11,2.55v2.89c2.94,1.01,5.55,2.19,8.64,3.99l-1.56,2.74c-1.69-1.16-4.18-2.51-6.36-3.46-.36-.15-.44-.19-.72-.34v5.47c0,1.22.04,1.92.11,2.64h-3.1Z"/>
        </g>
        <g>
          <path class="cls-11" d="m25.15,79.68c-.06.23-.08.3-.32,1.41-.23,1.08-.72,2.51-1.23,3.7-.51,1.16-.89,1.84-1.67,2.98-1.14-.76-1.52-.97-2.62-1.39,1.31-1.71,2.01-3.1,2.64-5.19.27-.89.38-1.46.46-2.17l2.75.65Zm11.11-1.73c-.78-.09-1.14-.11-2.74-.11h-3.97v8.66c0,1.01.04,1.96.1,2.6h-3.06c.08-.72.11-1.44.11-2.6v-8.66h-3.78c-1.52,0-1.88.02-2.74.09v-2.75c.87.11,1.22.13,2.74.13h3.78v-.74c0-.93-.04-1.54-.11-2.2h3.08c-.08.63-.11,1.29-.11,2.2v.74h4.29c-.51-.4-.8-1.01-.8-1.65,0-1.16.95-2.11,2.11-2.11s2.09.93,2.09,2.11c0,.72-.36,1.39-.99,1.79v2.51Zm-2.51,1.06c.13.65.28,1.14.63,2.11.84,2.3,1.54,3.69,2.58,5.13-1.37.72-1.65.89-2.6,1.54-1.48-2.55-2.15-4.18-3.06-7.5-.06-.23-.1-.34-.21-.61l2.66-.67Zm.47-5.38c0,.51.42.93.93.93s.91-.42.91-.93-.42-.91-.91-.91-.93.42-.93.91Z"/>
          <path class="cls-11" d="m59.09,74.15c-.4.34-.44.38-.72.68-1.44,1.5-2.89,2.75-4.45,3.88v7.48c0,1.52.02,2.17.1,2.81h-3.13c.1-.72.11-1.2.11-2.75v-5.77c-1.98,1.18-3.06,1.67-6.5,2.94-.51-1.18-.74-1.56-1.54-2.58,3.84-1.06,7.01-2.62,10.01-4.94,1.67-1.29,2.94-2.56,3.51-3.51l2.6,1.77Z"/>
          <path class="cls-11" d="m68.8,73.58c2.45,1.48,3.53,2.28,5.05,3.69l-1.92,2.49c-1.58-1.67-3.17-2.93-5-3.93l1.86-2.24Zm-1.79,11.78c1.75-.11,3.91-.63,5.66-1.39,2.41-1.01,4.1-2.43,5.58-4.65.85-1.27,1.37-2.3,1.92-3.78.89,1.04,1.23,1.37,2.41,2.2-1.88,4.07-4.12,6.57-7.43,8.32-1.52.8-3.7,1.58-5.53,1.98q-.48.09-.84.17c-.44.09-.55.13-.95.27l-.84-3.12Z"/>
          <path class="cls-11" d="m92.05,88.95c.1-.72.11-1.39.11-2.68v-11.25c0-1.35-.02-1.88-.11-2.55h3.1c-.1.72-.11,1.16-.11,2.55v2.89c2.94,1.01,5.55,2.19,8.64,3.99l-1.56,2.74c-1.69-1.16-4.18-2.51-6.36-3.46-.36-.15-.44-.19-.72-.34v5.47c0,1.22.04,1.92.11,2.64h-3.1Z"/>
        </g>
      </g>
      <g>
        <g>
          <path class="cls-5" d="m43.27,51.21c-.08.17-.14.27-.48,1.09-.22.54-.99,1.89-1.46,2.58-.29.42-.53.73-.92,1.16,1.34.82,2.77,1.34,4.95,1.82-.54.77-.85,1.34-1.19,2.26-2.45-.76-3.79-1.39-5.35-2.53-1.43,1.17-2.7,1.85-4.93,2.65-.42-.9-.7-1.31-1.33-2.02,1.85-.48,3.26-1.1,4.59-2.07-.82-.85-1.48-1.78-1.99-2.75-.37,1.04-.92,2.12-1.6,3.26-.75,1.24-1.6,2.28-2.7,3.31-.7-.94-1.07-1.31-1.73-1.75,1.63-1.44,2.62-2.75,3.42-4.52.7-1.55,1.16-3.26,1.36-5.12h-2.23c-.94,0-1.72.03-2.21.1v-2.31c.66.08,1.29.12,2.21.12h2.41q.07-.97.07-1.39c0-.32-.02-.53-.05-.88l2.57.08q-.1.44-.22,2.19h6.41c.94,0,1.53-.03,2.21-.12v2.31c-.63-.08-1.17-.1-2.21-.1h-6.61c-.1.76-.14.93-.24,1.55h4.66c.77,0,1.12-.02,1.51-.09l1.09,1.17Zm-6.44.9c.53,1.02,1.09,1.8,1.9,2.6.71-.82,1.14-1.5,1.65-2.6h-3.55Z"/>
          <path class="cls-5" d="m51.82,50.67c.48.07.71.08,1.38.08h1.44c.53,0,.88-.02,1.29-.07-.05.49-.07.95-.07,1.89v3.81c.36.56.68.82,1.34,1.09.68.27,1.73.36,4.18.36,2.72,0,4.62-.1,6.51-.32-.25.7-.42,1.34-.56,2.28-1.62.07-4.22.1-6.36.1s-3.4-.12-4.15-.36c-.75-.22-1.38-.66-1.99-1.36q-.95.85-2.38,1.87l-.97-2.31c.48-.17,1.48-.83,2.24-1.5v-3.45h-.82c-.44,0-.66.02-1.1.08v-2.19Zm6.32-3.65c-.76,0-1.05.02-1.44.05v-1.78c.46.07.9.08,1.68.08h2.19c-.02-.48-.03-.77-.08-1.07h2.28c-.05.31-.07.53-.08,1.07h2.35c.66,0,1.21-.03,1.72-.08v1.8c-.41-.05-.83-.07-1.44-.07h-2.62v.7h3.09c.88,0,1.19-.02,1.63-.07v1.8c-.48-.05-.8-.07-1.63-.07h-.6c-.14.34-.29.7-.42.97h.71c.92,0,1.21-.02,1.63-.07v1.78c-.44-.05-.75-.07-1.63-.07h-2.77v.7h2.41c.6,0,1.09-.02,1.46-.07v1.68c-.42-.05-.9-.07-1.44-.07h-2.43v.7h2.92c.78,0,1.12-.02,1.61-.07v1.73c-.46-.05-.87-.07-1.61-.07h-2.92c.02.49.03.66.08.97h-2.29q.05-.25.07-.97h-2.52c-.78,0-1.16.02-1.63.07v-1.73c.48.05.83.07,1.63.07h2.53v-.7h-2.23c-.56,0-1.02.02-1.46.07v-1.68c.37.05.87.07,1.46.07h2.23v-.7h-2.41c-.87,0-1.21.02-1.63.07v-1.78c.42.05.71.07,1.63.07h.41c-.15-.37-.27-.63-.46-.97h-.37c-.85,0-1.17.02-1.63.07v-1.73l-1.38,1.38c-.95-1.31-1.53-1.92-2.91-3.14l1.63-1.53c1.21,1,2.14,1.97,2.94,3.01l-.22.24c.41.03.71.05,1.56.05h2.84v-.7h-2.43Zm2.11,2.36c.17.34.25.54.41.97h1.9c.15-.32.26-.56.39-.97h-2.7Z"/>
          <path class="cls-5" d="m76.27,54.17c-.05,2.24-.2,3.54-.61,5.2l-1.7-.7c.44-1.21.63-2.5.71-4.76l1.6.25Zm-2.11-2.79c.32.05.44.05,1.5.05.27-.36.29-.37.58-.76-.76-1.07-1.22-1.63-2.21-2.63l.99-1.8.56.61c.63-1.07,1.04-2.01,1.19-2.7l1.94.76c-.1.14-.15.24-.27.48-.68,1.34-1.09,2.07-1.63,2.89q.36.42.56.7c.73-1.16,1.34-2.31,1.56-2.94l1.78,1c-.12.15-.19.25-.73,1.12-.85,1.31-1.6,2.38-2.28,3.23.75-.03,1.07-.05,1.51-.1-.1-.32-.2-.6-.46-1.26l1.29-.56c.71,1.72.75,1.78,1.27,3.67l-1.44.61q-.08-.36-.17-.73c-.51.05-.82.07-.95.08v5.25c0,.93.02,1.27.1,1.84h-2.21c.08-.56.1-.93.1-1.84v-5.1q-.24.02-.88.05-1.19.09-1.5.14l-.2-2.06Zm6.37,2.52c.32,2.24.36,2.62.41,4.27l-1.51.31v-.39c0-1.17-.1-2.46-.31-3.89l1.41-.29Zm1.97-7.12c-.76,0-1.36.03-1.84.09v-2.12c.58.07,1.27.1,1.97.1h5.39c.71,0,1.27-.02,1.65-.07q-.05.34-.1,1.58c-.05,1.87-.2,3.35-.41,4.15-.26,1.02-.94,1.36-2.69,1.36-.27,0-.53-.02-1.19-.05-.07-.87-.19-1.38-.53-2.11.68.14,1.22.2,1.63.2.48,0,.66-.08.77-.37.14-.41.22-1.26.25-2.75h-2.04c-.2,2.57-1.19,4.15-3.33,5.35-.37-.73-.78-1.22-1.41-1.77.99-.46,1.39-.77,1.85-1.36.44-.6.68-1.27.75-2.23h-.73Zm1,13.36h-2.19c.05-.53.07-1.09.07-1.82v-4.15c0-.7-.02-1.12-.07-1.6.37.03.75.05,1.38.05h5.13c.75,0,1.12-.02,1.46-.07-.03.42-.05.93-.05,1.63v4.2c0,.77.02,1.33.07,1.79h-2.21v-.83h-3.59v.8Zm-.02-2.79h3.6v-2.72h-3.6v2.72Z"/>
          <path class="cls-5" d="m102.48,50.38c-.05.41-.05.68-.07,1.31-.02,1.27-.14,2.67-.31,3.47-.48,2.26-1.77,3.82-4.27,5.13-.44-.83-.82-1.31-1.6-2.01,1.48-.66,2.28-1.26,2.87-2.12.66-.97.93-2.14.93-4.15,0-.75-.02-1.09-.1-1.56-.99.71-1.97,1.31-2.94,1.78-.32-1-.56-1.46-1.12-2.26,1.56-.63,2.69-1.31,3.93-2.33,1.26-1.04,2.06-1.94,2.79-3.14h2.55c.83,1.27,1.63,2.12,3.04,3.2,1.24.94,2.4,1.56,3.94,2.18-.51.9-.73,1.36-1.07,2.35-1.5-.7-2.7-1.46-4.15-2.6-1.33-1.07-2.02-1.8-2.98-3.14-.75,1.02-1.16,1.5-1.89,2.19-.61.59-1.36,1.24-2.01,1.72h2.43Zm5.42,0c-.08.54-.1,1-.1,1.95v5.58c0,.82.03,1.43.12,2.12h-2.55c.08-.65.12-1.27.12-2.11v-5.63c0-.75-.03-1.36-.1-1.92h2.52Z"/>
        </g>
        <g>
          <path class="cls-7" d="m43.27,51.21c-.08.17-.14.27-.48,1.09-.22.54-.99,1.89-1.46,2.58-.29.42-.53.73-.92,1.16,1.34.82,2.77,1.34,4.95,1.82-.54.77-.85,1.34-1.19,2.26-2.45-.76-3.79-1.39-5.35-2.53-1.43,1.17-2.7,1.85-4.93,2.65-.42-.9-.7-1.31-1.33-2.02,1.85-.48,3.26-1.1,4.59-2.07-.82-.85-1.48-1.78-1.99-2.75-.37,1.04-.92,2.12-1.6,3.26-.75,1.24-1.6,2.28-2.7,3.31-.7-.94-1.07-1.31-1.73-1.75,1.63-1.44,2.62-2.75,3.42-4.52.7-1.55,1.16-3.26,1.36-5.12h-2.23c-.94,0-1.72.03-2.21.1v-2.31c.66.08,1.29.12,2.21.12h2.41q.07-.97.07-1.39c0-.32-.02-.53-.05-.88l2.57.08q-.1.44-.22,2.19h6.41c.94,0,1.53-.03,2.21-.12v2.31c-.63-.08-1.17-.1-2.21-.1h-6.61c-.1.76-.14.93-.24,1.55h4.66c.77,0,1.12-.02,1.51-.09l1.09,1.17Zm-6.44.9c.53,1.02,1.09,1.8,1.9,2.6.71-.82,1.14-1.5,1.65-2.6h-3.55Z"/>
          <path class="cls-7" d="m51.82,50.67c.48.07.71.08,1.38.08h1.44c.53,0,.88-.02,1.29-.07-.05.49-.07.95-.07,1.89v3.81c.36.56.68.82,1.34,1.09.68.27,1.73.36,4.18.36,2.72,0,4.62-.1,6.51-.32-.25.7-.42,1.34-.56,2.28-1.62.07-4.22.1-6.36.1s-3.4-.12-4.15-.36c-.75-.22-1.38-.66-1.99-1.36q-.95.85-2.38,1.87l-.97-2.31c.48-.17,1.48-.83,2.24-1.5v-3.45h-.82c-.44,0-.66.02-1.1.08v-2.19Zm6.32-3.65c-.76,0-1.05.02-1.44.05v-1.78c.46.07.9.08,1.68.08h2.19c-.02-.48-.03-.77-.08-1.07h2.28c-.05.31-.07.53-.08,1.07h2.35c.66,0,1.21-.03,1.72-.08v1.8c-.41-.05-.83-.07-1.44-.07h-2.62v.7h3.09c.88,0,1.19-.02,1.63-.07v1.8c-.48-.05-.8-.07-1.63-.07h-.6c-.14.34-.29.7-.42.97h.71c.92,0,1.21-.02,1.63-.07v1.78c-.44-.05-.75-.07-1.63-.07h-2.77v.7h2.41c.6,0,1.09-.02,1.46-.07v1.68c-.42-.05-.9-.07-1.44-.07h-2.43v.7h2.92c.78,0,1.12-.02,1.61-.07v1.73c-.46-.05-.87-.07-1.61-.07h-2.92c.02.49.03.66.08.97h-2.29q.05-.25.07-.97h-2.52c-.78,0-1.16.02-1.63.07v-1.73c.48.05.83.07,1.63.07h2.53v-.7h-2.23c-.56,0-1.02.02-1.46.07v-1.68c.37.05.87.07,1.46.07h2.23v-.7h-2.41c-.87,0-1.21.02-1.63.07v-1.78c.42.05.71.07,1.63.07h.41c-.15-.37-.27-.63-.46-.97h-.37c-.85,0-1.17.02-1.63.07v-1.73l-1.38,1.38c-.95-1.31-1.53-1.92-2.91-3.14l1.63-1.53c1.21,1,2.14,1.97,2.94,3.01l-.22.24c.41.03.71.05,1.56.05h2.84v-.7h-2.43Zm2.11,2.36c.17.34.25.54.41.97h1.9c.15-.32.26-.56.39-.97h-2.7Z"/>
          <path class="cls-7" d="m76.27,54.17c-.05,2.24-.2,3.54-.61,5.2l-1.7-.7c.44-1.21.63-2.5.71-4.76l1.6.25Zm-2.11-2.79c.32.05.44.05,1.5.05.27-.36.29-.37.58-.76-.76-1.07-1.22-1.63-2.21-2.63l.99-1.8.56.61c.63-1.07,1.04-2.01,1.19-2.7l1.94.76c-.1.14-.15.24-.27.48-.68,1.34-1.09,2.07-1.63,2.89q.36.42.56.7c.73-1.16,1.34-2.31,1.56-2.94l1.78,1c-.12.15-.19.25-.73,1.12-.85,1.31-1.6,2.38-2.28,3.23.75-.03,1.07-.05,1.51-.1-.1-.32-.2-.6-.46-1.26l1.29-.56c.71,1.72.75,1.78,1.27,3.67l-1.44.61q-.08-.36-.17-.73c-.51.05-.82.07-.95.08v5.25c0,.93.02,1.27.1,1.84h-2.21c.08-.56.1-.93.1-1.84v-5.1q-.24.02-.88.05-1.19.09-1.5.14l-.2-2.06Zm6.37,2.52c.32,2.24.36,2.62.41,4.27l-1.51.31v-.39c0-1.17-.1-2.46-.31-3.89l1.41-.29Zm1.97-7.12c-.76,0-1.36.03-1.84.09v-2.12c.58.07,1.27.1,1.97.1h5.39c.71,0,1.27-.02,1.65-.07q-.05.34-.1,1.58c-.05,1.87-.2,3.35-.41,4.15-.26,1.02-.94,1.36-2.69,1.36-.27,0-.53-.02-1.19-.05-.07-.87-.19-1.38-.53-2.11.68.14,1.22.2,1.63.2.48,0,.66-.08.77-.37.14-.41.22-1.26.25-2.75h-2.04c-.2,2.57-1.19,4.15-3.33,5.35-.37-.73-.78-1.22-1.41-1.77.99-.46,1.39-.77,1.85-1.36.44-.6.68-1.27.75-2.23h-.73Zm1,13.36h-2.19c.05-.53.07-1.09.07-1.82v-4.15c0-.7-.02-1.12-.07-1.6.37.03.75.05,1.38.05h5.13c.75,0,1.12-.02,1.46-.07-.03.42-.05.93-.05,1.63v4.2c0,.77.02,1.33.07,1.79h-2.21v-.83h-3.59v.8Zm-.02-2.79h3.6v-2.72h-3.6v2.72Z"/>
          <path class="cls-7" d="m102.48,50.38c-.05.41-.05.68-.07,1.31-.02,1.27-.14,2.67-.31,3.47-.48,2.26-1.77,3.82-4.27,5.13-.44-.83-.82-1.31-1.6-2.01,1.48-.66,2.28-1.26,2.87-2.12.66-.97.93-2.14.93-4.15,0-.75-.02-1.09-.1-1.56-.99.71-1.97,1.31-2.94,1.78-.32-1-.56-1.46-1.12-2.26,1.56-.63,2.69-1.31,3.93-2.33,1.26-1.04,2.06-1.94,2.79-3.14h2.55c.83,1.27,1.63,2.12,3.04,3.2,1.24.94,2.4,1.56,3.94,2.18-.51.9-.73,1.36-1.07,2.35-1.5-.7-2.7-1.46-4.15-2.6-1.33-1.07-2.02-1.8-2.98-3.14-.75,1.02-1.16,1.5-1.89,2.19-.61.59-1.36,1.24-2.01,1.72h2.43Zm5.42,0c-.08.54-.1,1-.1,1.95v5.58c0,.82.03,1.43.12,2.12h-2.55c.08-.65.12-1.27.12-2.11v-5.63c0-.75-.03-1.36-.1-1.92h2.52Z"/>
        </g>
      </g>
      <g>
        <g>
          <circle class="cls-9" cx="118.39" cy="81.48" r="8.46"/>
          <circle class="cls-1" cx="117.89" cy="80.98" r="7.05"/>
          <circle class="cls-7" cx="117.89" cy="80.98" r="7.05"/>
        </g>
        <path class="cls-6" d="m115.32,85.24c.06-.42.08-.82.08-1.4v-5.5c0-.52-.02-.9-.08-1.39.46.02.79.03,1.39.03h2.16c1.03,0,1.78.25,2.29.76.43.43.66,1.07.66,1.83,0,.81-.24,1.48-.72,1.96-.52.53-1.27.78-2.26.78h-1.78v1.5c0,.58.02,1.02.08,1.42h-1.83Zm3.49-4.36c.82,0,1.29-.46,1.29-1.26,0-.37-.1-.67-.3-.87-.21-.23-.53-.34-.99-.34h-1.74v2.47h1.74Z"/>
      </g>
      <line class="cls-4" x1="15.74" y1="5.42" x2="27.8" y2="17.48"/>
      <line class="cls-4" x1="237.5" y1="5.42" x2="225.43" y2="17.48"/>
    </g>
  </g>
</svg>