<?xml version="1.0" encoding="UTF-8"?>
<svg id="_レイヤー_2" data-name="レイヤー 2" xmlns="http://www.w3.org/2000/svg" viewBox="0 0 63.06 34.33">
  <defs>
    <style>
      .cls-1 {
        fill: #e78005;
        stroke: #e78005;
        stroke-miterlimit: 10;
      }
    </style>
  </defs>
  <g id="_レイヤー_4" data-name="レイヤー 4">
    <g>
      <path class="cls-1" d="m23.28,1.41c.87,0,1.78.94,2.21,1.81,2.68.4,3.99,2.72,3.99,5.26,0,9.32-13.2,24.92-23.03,24.92-3.52,0-5.91-2.07-5.95-5.77C.36,15.37,16.6,1.41,23.28,1.41ZM2.57,29.15c0,2.07,1.02,3.19,3.08,3.19,6.49,0,21.65-16.72,21.65-25.43,0-1.99-1.27-2.54-2.65-2.54C16.39,4.38,2.57,19.03,2.57,29.15Z"/>
      <path class="cls-1" d="m50.99,7.65c-.36.91-1.7,1.81-2.97,1.99-1.02.15-2-.65-2-1.78,0-3.63,6.93-7.36,12.44-7.36,2.25,0,4.1.91,4.1,3.48,0,4.32-6.31,7.87-9.94,9.72,3.66.04,5.77,1.81,5.77,4.42,0,7.62-13.75,15.71-21.07,15.71-2.1,0-5.19-.29-5-3.55.29-4.9,9.03-10.45,11.97-10.45.18,0,.18.11.07.11-1.74,0-10.59,6.02-10.59,9.72,0,1.31,1.02,1.63,2.83,1.63,8.02,0,19.73-10.12,19.73-14.29,0-1.67-1.38-2.5-2.87-2.5-3.84,0-6.42,1.74-8.12,1.74-1.12,0-1.52-2.47-.72-2.47,4.03,0,16.18-7.29,16.97-10.41.33-1.34-.98-1.85-2.25-1.85-5.48,0-10.95,5.3-10.95,6.64,0,.8,1.67.44,2.61-.51Z"/>
    </g>
  </g>
</svg>