<?xml version="1.0" encoding="UTF-8"?>
<svg id="_レイヤー_2" data-name="レイヤー 2" xmlns="http://www.w3.org/2000/svg" viewBox="0 0 62.78 34.62">
  <defs>
    <style>
      .cls-1 {
        fill: #e78005;
        stroke: #e78005;
        stroke-miterlimit: 10;
      }
    </style>
  </defs>
  <g id="_レイヤー_4" data-name="レイヤー 4">
    <g>
      <path class="cls-1" d="m23.28,1.01c.87,0,1.78.94,2.21,1.81,2.68.4,3.99,2.72,3.99,5.26,0,9.32-13.2,24.92-23.03,24.92-3.52,0-5.91-2.07-5.95-5.77C.36,14.97,16.6,1.01,23.28,1.01ZM2.57,28.75c0,2.07,1.02,3.19,3.08,3.19,6.49,0,21.65-16.72,21.65-25.43,0-1.99-1.27-2.54-2.65-2.54C16.39,3.98,2.57,18.64,2.57,28.75Z"/>
      <path class="cls-1" d="m37.39,20.34c1.74-1.2,2.65-1.85,3.48-2.5C50.78,10.04,56.91.5,59.05.5h.22c1.12.04,1.78.54,2.36,1.16h-.33c-1.99.33-6.53,6.2-11.17,13.75-2.87,4.68-7.76,12.8-8.45,16.87-.18.87-.18,1.6.65,1.7-.87.33-1.63.04-2.29-.47-.76-.58-.83-1.45-.69-2.39.47-2.87,2.29-7.15,4.61-11.21,1.31-2.32,2.47-4.24,3.63-6.02-4.5,3.88-8.56,6.6-10.16,6.6-.18,0-.04-.15-.04-.15Z"/>
    </g>
  </g>
</svg>