<?xml version="1.0" encoding="UTF-8"?>
<svg id="_レイヤー_2" data-name="レイヤー 2" xmlns="http://www.w3.org/2000/svg" viewBox="0 0 64.44 34.88">
  <defs>
    <style>
      .cls-1 {
        fill: #e78005;
        stroke: #e78005;
        stroke-miterlimit: 10;
      }
    </style>
  </defs>
  <g id="_レイヤー_4" data-name="レイヤー 4">
    <g>
      <path class="cls-1" d="m23.28.97c.87,0,1.78.94,2.21,1.81,2.68.4,3.99,2.72,3.99,5.26,0,9.32-13.2,24.92-23.03,24.92-3.52,0-5.91-2.07-5.95-5.77C.36,14.94,16.6.97,23.28.97ZM2.57,28.72c0,2.07,1.02,3.19,3.08,3.19,6.49,0,21.65-16.72,21.65-25.43,0-1.99-1.27-2.54-2.65-2.54C16.39,3.95,2.57,18.6,2.57,28.72Z"/>
      <path class="cls-1" d="m45.63,11.63c0,1.16,2.21.15,2.79-.15-.43.47-1.81,1.38-2.94,1.74-1.2.36-2.68-.15-2.68-1.6,0-.44.14-.98.47-1.63C45.73,5.4,54.04.5,59.7.5c2.83,0,4.24,1.34,4.24,3.92,0,8.2-17.77,20.96-22.67,23.97,2.39-.62,5.19-.8,7.22-.8.54,0,1.02.04,1.41.04,5.44.22,8.42,2.43,8.6,3.23-.11.07-1.92-1.96-6.93-1.96-11.9,0-20.49,5.48-21.25,5.48-.94,0-1.6-2.97-.98-2.97,6.38,0,33.08-22.2,33.08-27.78,0-1.81-.91-2.1-2.25-2.1-4.9,0-14.54,7.87-14.54,10.12Z"/>
    </g>
  </g>
</svg>