<?xml version="1.0" encoding="UTF-8"?>
<svg id="_レイヤー_2" data-name="レイヤー 2" xmlns="http://www.w3.org/2000/svg" viewBox="0 0 67.27 34.74">
  <defs>
    <style>
      .cls-1 {
        fill: #e78005;
        stroke: #e78005;
        stroke-miterlimit: 10;
      }
    </style>
  </defs>
  <g id="_レイヤー_4" data-name="レイヤー 4">
    <g>
      <path class="cls-1" d="m23.28,1.45c.87,0,1.78.94,2.21,1.81,2.68.4,3.99,2.72,3.99,5.26,0,9.32-13.2,24.92-23.03,24.92-3.52,0-5.91-2.07-5.95-5.77C.36,15.41,16.6,1.45,23.28,1.45ZM2.57,29.2c0,2.07,1.02,3.19,3.08,3.19,6.49,0,21.65-16.72,21.65-25.43,0-1.99-1.27-2.54-2.65-2.54C16.39,4.42,2.57,19.08,2.57,29.2Z"/>
      <path class="cls-1" d="m52.44,1.78c.44.33,1.41,1.41,5.19,1.49,4.53,0,7.22-1.6,6.93-2.58.91.22,2.21,1.49,2.21,2.47,0,.87-3.23,2.21-6.17,2.21-3.19,0-5.73-.65-7.18-1.89-1.27,2.14-3.52,5.66-5.22,8.12,1.01-.33,2.76-.69,4.06-.69,3.99,0,7.22,2.39,7.22,6.13,0,8.74-12.88,17.19-22.27,17.19-2.61,0-5.15-1.2-5.15-3.55,0-5.04,10.88-11.21,15.05-12.19.29-.07.94-.15.83.04-.07.04-.29.07-.36.11-2.68.69-13.49,7.22-13.49,11.61,0,1.12,1.23,1.31,2.29,1.31,9.32,0,20.71-9.43,20.71-15.81,0-2.1-1.45-3.99-4.32-3.99-4.13.15-7.44,2.9-8.12,3.19-1.52.11-2.72-1.67-2.21-1.67,1.38,0,9.32-10.16,9.32-11.24,0-.47.44-.44.69-.25Z"/>
    </g>
  </g>
</svg>