<?xml version="1.0" encoding="UTF-8"?>
<svg id="_レイヤー_2" data-name="レイヤー 2" xmlns="http://www.w3.org/2000/svg" viewBox="0 0 68.37 35.56">
  <defs>
    <style>
      .cls-1 {
        fill: #e78005;
        stroke: #e78005;
        stroke-miterlimit: 10;
      }
    </style>
  </defs>
  <g id="_レイヤー_4" data-name="レイヤー 4">
    <g>
      <path class="cls-1" d="m23.28,1.41c.87,0,1.78.94,2.21,1.81,2.68.4,3.99,2.72,3.99,5.26,0,9.32-13.2,24.92-23.03,24.92-3.52,0-5.91-2.07-5.95-5.77C.36,15.38,16.6,1.41,23.28,1.41ZM2.57,29.16c0,2.07,1.02,3.19,3.08,3.19,6.49,0,21.65-16.72,21.65-25.42,0-2-1.27-2.54-2.65-2.54C16.39,4.39,2.57,19.04,2.57,29.16Z"/>
      <path class="cls-1" d="m53.79,19.22c-2.5,4.24-5.44,10.88-5.95,13.96-.18.91-.18,1.63.65,1.74-.87.33-1.63.04-2.32-.47-.76-.58-.83-1.49-.69-2.43.47-2.9,2.97-9.39,4.39-12.15-11.28,2.1-13.49,3.88-13.96,3.88-.18,0-1.78-1.78-1.27-2.14,2.29-1.49,20.49-13.53,26.44-19.15.76-.72,2.07-1.89,2.68-1.96,1.12-.07,2.29.51,2.83,1.16-.4-.18-1.27.54-1.63.87-1.63,1.6-3.01,3.34-4.35,5.15-2.65,3.48-5.73,9.39-6.49,10.74.44-.04.91-.04,1.38-.04,2.5,0,5.04.4,5.62.87-.76-.18-2.18-.25-3.59-.25-1.49,0-3.05.11-3.74.22Zm4.35-12.98c-5.08,4.46-14.91,12.95-17.12,14.18,2.03-.62,4.86-1.23,9.36-1.63.87-1.92,5.04-9.18,7.76-12.55Z"/>
    </g>
  </g>
</svg>