<svg width="83" height="83" viewBox="0 0 83 83" fill="none" xmlns="http://www.w3.org/2000/svg">
<path fill-rule="evenodd" clip-rule="evenodd" d="M41.5 81.4C63.5362 81.4 81.4 63.5362 81.4 41.5C81.4 19.4638 63.5362 1.6 41.5 1.6C19.4638 1.6 1.6 19.4638 1.6 41.5C1.6 63.5362 19.4638 81.4 41.5 81.4ZM41.5 83C64.4198 83 83 64.4198 83 41.5C83 18.5802 64.4198 0 41.5 0C18.5802 0 0 18.5802 0 41.5C0 64.4198 18.5802 83 41.5 83Z" fill="#8EB21F"/>
<path fill-rule="evenodd" clip-rule="evenodd" d="M44.5147 30.3934L54.0607 39.9394C54.6464 40.5252 54.6464 41.4749 54.0607 42.0607L44.5147 51.6066C43.9289 52.1924 42.9792 52.1924 42.3934 51.6066C41.8076 51.0209 41.8076 50.0711 42.3934 49.4853L49.3787 42.5H29V39.5H49.3787L42.3934 32.5148C41.8076 31.929 41.8076 30.9792 42.3934 30.3934C42.9792 29.8077 43.9289 29.8077 44.5147 30.3934Z" fill="#8EB21F"/>
</svg>
