<?xml version="1.0" encoding="UTF-8"?>
<svg id="_レイヤー_2" data-name="レイヤー 2" xmlns="http://www.w3.org/2000/svg" viewBox="0 0 92 92">
  <defs>
    <style>
      .cls-1 {
        fill: #f77c5b;
      }

      .cls-2 {
        fill: #fffcbb;
      }

      .cls-3 {
        fill: #243239;
      }

      .cls-4 {
        fill: #262626;
      }
    </style>
  </defs>
  <g id="_レイヤー_4" data-name="レイヤー 4">
    <g>
      <circle class="cls-2" cx="46" cy="46" r="46"/>
      <g>
        <g>
          <g>
            <rect class="cls-4" x="41.65" y="41.98" width="1.81" height="1.81"/>
            <path class="cls-4" d="m39.92,43.78h-1.74v-1.81h1.74v1.81Zm-3.47,0h-1.74v-1.81h1.74v1.81Zm-3.47,0h-1.74v-1.81h1.74v1.81Zm-3.47,0h-1.74v-1.81h1.74v1.81Zm-3.47,0h-1.74v-1.81h1.74v1.81Z"/>
            <rect class="cls-4" x="20.76" y="41.98" width="1.81" height="1.81"/>
            <path class="cls-4" d="m22.56,40.24h-1.81v-1.74h1.81v1.74Zm0-3.47h-1.81v-1.74h1.81v1.74Zm0-3.47h-1.81v-1.74h1.81v1.74Zm0-3.47h-1.81v-1.74h1.81v1.74Zm0-3.47h-1.81v-1.74h1.81v1.74Z"/>
            <rect class="cls-4" x="20.76" y="21.08" width="1.81" height="1.81"/>
            <path class="cls-4" d="m39.92,22.89h-1.74v-1.81h1.74v1.81Zm-3.47,0h-1.74v-1.81h1.74v1.81Zm-3.47,0h-1.74v-1.81h1.74v1.81Zm-3.47,0h-1.74v-1.81h1.74v1.81Zm-3.47,0h-1.74v-1.81h1.74v1.81Z"/>
            <rect class="cls-4" x="41.65" y="21.08" width="1.81" height="1.81"/>
            <path class="cls-4" d="m43.46,40.24h-1.81v-1.74h1.81v1.74Zm0-3.47h-1.81v-1.74h1.81v1.74Zm0-3.47h-1.81v-1.74h1.81v1.74Zm0-3.47h-1.81v-1.74h1.81v1.74Zm0-3.47h-1.81v-1.74h1.81v1.74Z"/>
          </g>
          <g>
            <rect class="cls-4" x="69.44" y="41.98" width="1.81" height="1.81"/>
            <path class="cls-4" d="m67.7,43.78h-1.74v-1.81h1.74v1.81Zm-3.47,0h-1.74v-1.81h1.74v1.81Zm-3.47,0h-1.74v-1.81h1.74v1.81Zm-3.47,0h-1.74v-1.81h1.74v1.81Zm-3.47,0h-1.74v-1.81h1.74v1.81Z"/>
            <rect class="cls-4" x="48.54" y="41.98" width="1.81" height="1.81"/>
            <path class="cls-4" d="m50.35,40.24h-1.81v-1.74h1.81v1.74Zm0-3.47h-1.81v-1.74h1.81v1.74Zm0-3.47h-1.81v-1.74h1.81v1.74Zm0-3.47h-1.81v-1.74h1.81v1.74Zm0-3.47h-1.81v-1.74h1.81v1.74Z"/>
            <rect class="cls-4" x="48.54" y="21.08" width="1.81" height="1.81"/>
            <path class="cls-4" d="m67.7,22.89h-1.74v-1.81h1.74v1.81Zm-3.47,0h-1.74v-1.81h1.74v1.81Zm-3.47,0h-1.74v-1.81h1.74v1.81Zm-3.47,0h-1.74v-1.81h1.74v1.81Zm-3.47,0h-1.74v-1.81h1.74v1.81Z"/>
            <rect class="cls-4" x="69.44" y="21.08" width="1.81" height="1.81"/>
            <path class="cls-4" d="m71.24,40.24h-1.81v-1.74h1.81v1.74Zm0-3.47h-1.81v-1.74h1.81v1.74Zm0-3.47h-1.81v-1.74h1.81v1.74Zm0-3.47h-1.81v-1.74h1.81v1.74Zm0-3.47h-1.81v-1.74h1.81v1.74Z"/>
          </g>
          <g>
            <rect class="cls-4" x="41.65" y="68.26" width="1.81" height="1.81"/>
            <path class="cls-4" d="m39.92,70.07h-1.74v-1.81h1.74v1.81Zm-3.47,0h-1.74v-1.81h1.74v1.81Zm-3.47,0h-1.74v-1.81h1.74v1.81Zm-3.47,0h-1.74v-1.81h1.74v1.81Zm-3.47,0h-1.74v-1.81h1.74v1.81Z"/>
            <rect class="cls-4" x="20.76" y="68.26" width="1.81" height="1.81"/>
            <path class="cls-4" d="m22.56,66.52h-1.81v-1.74h1.81v1.74Zm0-3.47h-1.81v-1.74h1.81v1.74Zm0-3.47h-1.81v-1.74h1.81v1.74Zm0-3.47h-1.81v-1.74h1.81v1.74Zm0-3.47h-1.81v-1.74h1.81v1.74Z"/>
            <rect class="cls-4" x="20.76" y="47.36" width="1.81" height="1.81"/>
            <path class="cls-4" d="m39.92,49.17h-1.74v-1.81h1.74v1.81Zm-3.47,0h-1.74v-1.81h1.74v1.81Zm-3.47,0h-1.74v-1.81h1.74v1.81Zm-3.47,0h-1.74v-1.81h1.74v1.81Zm-3.47,0h-1.74v-1.81h1.74v1.81Z"/>
            <rect class="cls-4" x="41.65" y="47.36" width="1.81" height="1.81"/>
            <path class="cls-4" d="m43.46,66.52h-1.81v-1.74h1.81v1.74Zm0-3.47h-1.81v-1.74h1.81v1.74Zm0-3.47h-1.81v-1.74h1.81v1.74Zm0-3.47h-1.81v-1.74h1.81v1.74Zm0-3.47h-1.81v-1.74h1.81v1.74Z"/>
          </g>
          <g>
            <rect class="cls-4" x="69.44" y="68.26" width="1.81" height="1.81"/>
            <path class="cls-4" d="m67.7,70.07h-1.74v-1.81h1.74v1.81Zm-3.47,0h-1.74v-1.81h1.74v1.81Zm-3.47,0h-1.74v-1.81h1.74v1.81Zm-3.47,0h-1.74v-1.81h1.74v1.81Zm-3.47,0h-1.74v-1.81h1.74v1.81Z"/>
            <rect class="cls-4" x="48.54" y="68.26" width="1.81" height="1.81"/>
            <path class="cls-4" d="m50.35,66.52h-1.81v-1.74h1.81v1.74Zm0-3.47h-1.81v-1.74h1.81v1.74Zm0-3.47h-1.81v-1.74h1.81v1.74Zm0-3.47h-1.81v-1.74h1.81v1.74Zm0-3.47h-1.81v-1.74h1.81v1.74Z"/>
            <rect class="cls-4" x="48.54" y="47.36" width="1.81" height="1.81"/>
            <path class="cls-4" d="m67.7,49.17h-1.74v-1.81h1.74v1.81Zm-3.47,0h-1.74v-1.81h1.74v1.81Zm-3.47,0h-1.74v-1.81h1.74v1.81Zm-3.47,0h-1.74v-1.81h1.74v1.81Zm-3.47,0h-1.74v-1.81h1.74v1.81Z"/>
            <rect class="cls-4" x="69.44" y="47.36" width="1.81" height="1.81"/>
            <path class="cls-4" d="m71.24,66.52h-1.81v-1.74h1.81v1.74Zm0-3.47h-1.81v-1.74h1.81v1.74Zm0-3.47h-1.81v-1.74h1.81v1.74Zm0-3.47h-1.81v-1.74h1.81v1.74Zm0-3.47h-1.81v-1.74h1.81v1.74Z"/>
          </g>
        </g>
        <g>
          <path class="cls-1" d="m58.55,61.05c-.6,0-1.16-.23-1.59-.66l-5.5-5.5-3.01,4.64c-.26.4-.71.65-1.19.65-.6,0-1.14-.38-1.34-.95l-6.02-17.26c-.15-.43-.08-.91.18-1.29.27-.38.7-.6,1.15-.6.16,0,.32.03.47.08l17.26,6.02c.51.18.87.63.94,1.17.07.54-.18,1.06-.64,1.36l-4.64,3.01,5.5,5.5c.88.88.88,2.3,0,3.18-.42.42-.99.66-1.59.66h0Z"/>
          <path class="cls-3" d="m41.25,40.99c.06,0,.11,0,.17.03l17.26,6.02c.4.14.47.68.11.92l-5.57,3.61,6.28,6.28c.53.53.53,1.38,0,1.9-.26.26-.61.39-.95.39s-.69-.13-.95-.39l-6.28-6.28-3.61,5.57c-.1.16-.27.23-.43.23-.21,0-.41-.12-.49-.35l-6.02-17.26c-.12-.35.15-.68.48-.68m0-1.81c-.75,0-1.45.37-1.89.98-.43.61-.54,1.4-.3,2.11l6.02,17.26c.32.93,1.21,1.56,2.19,1.56.79,0,1.51-.4,1.94-1.06l2.4-3.7,4.71,4.71c.59.59,1.39.92,2.23.92s1.63-.33,2.23-.92c.6-.6.92-1.39.92-2.23s-.33-1.63-.92-2.23l-4.71-4.71,3.7-2.4c.75-.49,1.15-1.34,1.04-2.22-.11-.89-.7-1.62-1.54-1.91l-17.26-6.02c-.25-.09-.51-.13-.77-.13h0Z"/>
        </g>
      </g>
    </g>
  </g>
</svg>