<?xml version="1.0" encoding="UTF-8"?>
<svg id="_レイヤー_2" data-name="レイヤー 2" xmlns="http://www.w3.org/2000/svg" xmlns:xlink="http://www.w3.org/1999/xlink" viewBox="0 0 157.41 157.41">
  <defs>
    <style>
      .cls-1 {
        fill: none;
      }

      .cls-2 {
        clip-path: url(#clippath);
      }

      .cls-3 {
        opacity: .07;
      }

      .cls-4 {
        fill: #f0ecc9;
      }

      .cls-5 {
        fill: #f77c5b;
      }

      .cls-6 {
        fill: #edf3f3;
      }

      .cls-7 {
        fill: #231f20;
      }

      .cls-8 {
        fill: #243239;
      }

      .cls-9 {
        opacity: .4;
      }
    </style>
    <clipPath id="clippath">
      <circle class="cls-1" cx="78.71" cy="78.71" r="78.71"/>
    </clipPath>
  </defs>
  <g id="_レイヤー_4" data-name="レイヤー 4">
    <g>
      <circle class="cls-6" cx="78.71" cy="78.71" r="78.71"/>
      <g class="cls-2">
        <g>
          <g>
            <rect class="cls-5" x="59.46" y="81.03" width="38.43" height="268.69"/>
            <polygon class="cls-4" points="97.89 80.99 59.45 80.99 70.97 52.18 86.35 52.18 97.89 80.99"/>
            <polygon class="cls-8" points="86.35 52.18 70.97 52.18 78.71 33.01 86.35 52.18"/>
            <g class="cls-9">
              <path class="cls-6" d="m66.85,88.98c2.27,0,4.12,1.84,4.12,4.12v209.72c0,2.27-1.84,4.12-4.12,4.12s-4.12-1.84-4.12-4.12V93.09c0-2.27,1.84-4.12,4.12-4.12Z"/>
            </g>
          </g>
          <g class="cls-3">
            <polygon class="cls-7" points="97.89 80.99 78.71 80.99 78.71 33.01 86.35 52.18 97.89 80.99"/>
          </g>
          <g class="cls-3">
            <path class="cls-7" d="m78.71,81.03h19.19v294.9c0,10.63-8.57,19.26-19.19,19.26V81.03Z"/>
          </g>
        </g>
      </g>
    </g>
  </g>
</svg>