<?xml version="1.0" encoding="UTF-8"?>
<svg id="_レイヤー_2" data-name="レイヤー 2" xmlns="http://www.w3.org/2000/svg" viewBox="0 0 11.79 11.79">
  <defs>
    <style>
      .cls-1 {
        fill: #d92332;
      }
    </style>
  </defs>
  <g id="newDesign">
    <g>
      <polygon class="cls-1" points="5.47 7.63 6.25 8.42 7.99 6.68 8.77 5.89 7.99 5.11 6.25 3.37 5.47 4.15 6.66 5.34 0 5.34 0 6.45 6.66 6.45 5.47 7.63"/>
      <polygon class="cls-1" points="10.68 0 9.58 0 4.42 0 3.32 0 2.21 0 2.21 1.11 2.21 1.84 2.21 3.68 3.32 3.68 3.68 3.68 3.68 1.47 10.32 1.47 10.32 10.32 3.68 10.32 3.68 8.1 3.32 8.1 2.21 8.1 2.21 9.95 2.21 10.68 2.21 11.79 3.32 11.79 4.42 11.79 9.58 11.79 10.68 11.79 11.79 11.79 11.79 10.68 11.79 9.58 11.79 2.21 11.79 1.11 11.79 0 10.68 0"/>
    </g>
  </g>
</svg>