<?xml version="1.0" encoding="UTF-8"?>
<svg id="_レイヤー_2" data-name="レイヤー 2" xmlns="http://www.w3.org/2000/svg" viewBox="0 0 120.96 37.88">
  <defs>
    <style>
      .cls-1 {
        fill: #fff;
      }

      .cls-2 {
        fill: #ffc73b;
      }

      .cls-3 {
        fill: #9b9b9b;
      }
    </style>
  </defs>
  <g id="_2023Design" data-name="2023Design">
    <path class="cls-2" d="m60.48.16H12.56C5.9.16.5,5.56.5,12.22v12.75c0,6.66,5.4,12.06,12.06,12.06h47.92V.16Z"/>
    <g>
      <path class="cls-2" d="m108.4,37.88H12.56c-6.93,0-12.56-5.63-12.56-12.56v-12.76C0,5.63,5.63,0,12.56,0h95.84c6.93,0,12.56,5.63,12.56,12.56v12.76c0,6.93-5.63,12.56-12.56,12.56ZM12.56,1C6.19,1,1,6.19,1,12.56v12.76c0,6.37,5.19,11.56,11.56,11.56h95.84c6.37,0,11.56-5.19,11.56-11.56v-12.76c0-6.37-5.19-11.56-11.56-11.56H12.56Z"/>
      <path class="cls-1" d="m32.83,32.34c-7.58,0-13.75-6.17-13.75-13.74s6.17-13.75,13.75-13.75,13.74,6.17,13.74,13.75-6.17,13.74-13.74,13.74Zm0-25.49c-6.48,0-11.75,5.27-11.75,11.75s5.27,11.74,11.75,11.74,11.74-5.27,11.74-11.74-5.27-11.75-11.74-11.75Z"/>
      <path class="cls-1" d="m39.56,24.69c-.21,0-.42-.07-.6-.2l-7.13-5.4v-9.08c0-.55.45-1,1-1s1,.45,1,1v8.09l6.34,4.79c.44.33.53.96.19,1.4-.2.26-.5.4-.8.4Z"/>
      <circle class="cls-3" cx="89.27" cy="15.4" r="6.56"/>
      <path class="cls-3" d="m76.02,30.58c0-3.51,5.93-6.36,13.25-6.36s13.25,2.85,13.25,6.36"/>
    </g>
  </g>
</svg>