<?xml version="1.0" encoding="UTF-8"?>
<svg id="_レイヤー_2" data-name="レイヤー 2" xmlns="http://www.w3.org/2000/svg" xmlns:xlink="http://www.w3.org/1999/xlink" viewBox="0 0 92 92">
  <defs>
    <style>
      .cls-1 {
        fill: none;
      }

      .cls-2 {
        clip-path: url(#clippath);
      }

      .cls-3 {
        fill: #f77c5b;
      }

      .cls-4 {
        fill: #edf3f3;
      }

      .cls-5 {
        fill: #fffcbb;
      }

      .cls-6 {
        fill: #fdda92;
      }

      .cls-7 {
        fill: #243239;
      }
    </style>
    <clipPath id="clippath">
      <circle class="cls-1" cx="46" cy="46" r="38.93"/>
    </clipPath>
  </defs>
  <g id="_レイヤー_4" data-name="レイヤー 4">
    <g>
      <circle class="cls-5" cx="46" cy="46" r="46" transform="translate(-6.93 83.82) rotate(-80.55)"/>
      <g class="cls-2">
        <g>
          <g>
            <path class="cls-4" d="m64.81,66.2v20.98H27.19v-20.98c0-10.38,8.42-18.81,18.81-18.81,5.19,0,9.9,2.11,13.3,5.51,3.41,3.41,5.51,8.11,5.51,13.3Z"/>
            <path class="cls-3" d="m51.78,70.35l-4.92,5.47c-.46.51-1.26.51-1.72,0l-4.92-5.47c-.67-.75-.88-1.8-.56-2.75l6.33-18.15,6.32,18.15c.33.95.12,2-.55,2.75Z"/>
          </g>
          <g>
            <path class="cls-6" d="m60.2,23.35v7.96c0,7.84-6.36,14.2-14.2,14.2s-14.19-6.36-14.19-14.2v-7.96c0-.1,0-.21,0-.31.16-7.7,6.45-13.89,14.19-13.89,3.92,0,7.47,1.59,10.04,4.16,2.57,2.57,4.16,6.12,4.16,10.04Z"/>
            <path class="cls-3" d="m46,40.17c-2.12,0-4.09-1.14-5.15-2.97-.25-.44-.1-1,.33-1.25.44-.25,1-.1,1.25.33.74,1.27,2.1,2.06,3.57,2.06s2.84-.79,3.57-2.06c.25-.44.81-.59,1.25-.33.44.25.59.81.33,1.25-1.06,1.83-3.04,2.97-5.15,2.97Z"/>
            <path class="cls-7" d="m60.2,23.35v.37c-12.78.82-20.89-7.34-20.89-7.34-3.18,5.3-5.17,5.95-7.5,6.67.16-7.7,6.45-13.89,14.19-13.89,3.92,0,7.47,1.59,10.04,4.16,2.57,2.57,4.16,6.12,4.16,10.04Z"/>
          </g>
        </g>
      </g>
    </g>
  </g>
</svg>