<?xml version="1.0" encoding="UTF-8"?>
<svg id="_レイヤー_2" data-name="レイヤー 2" xmlns="http://www.w3.org/2000/svg" viewBox="0 0 120.85 37.84">
  <defs>
    <style>
      .cls-1 {
        fill: #fff;
      }

      .cls-2 {
        fill: #f2b705;
      }

      .cls-3 {
        fill: #9c9c9c;
      }
    </style>
  </defs>
  <g id="_2023Design" data-name="2023Design">
    <g>
      <path class="cls-2" d="m108.29,37.84H12.56c-6.93,0-12.56-5.63-12.56-12.56v-12.72C0,5.63,5.63,0,12.56,0h95.73c6.93,0,12.56,5.63,12.56,12.56v12.72c0,6.93-5.63,12.56-12.56,12.56ZM12.56,1C6.19,1,1,6.19,1,12.56v12.72c0,6.37,5.19,11.56,11.56,11.56h95.73c6.37,0,11.56-5.19,11.56-11.56v-12.72c0-6.37-5.19-11.56-11.56-11.56H12.56Z"/>
      <path class="cls-3" d="m32.8,32.31c-7.57,0-13.73-6.16-13.73-13.73s6.16-13.73,13.73-13.73,13.73,6.16,13.73,13.73-6.16,13.73-13.73,13.73Zm0-25.47c-6.47,0-11.73,5.26-11.73,11.73s5.26,11.73,11.73,11.73,11.73-5.26,11.73-11.73-5.26-11.73-11.73-11.73Z"/>
      <path class="cls-3" d="m39.52,24.67c-.21,0-.42-.07-.6-.2l-7.13-5.39v-9.07c0-.55.45-1,1-1s1,.45,1,1v8.08l6.33,4.79c.44.33.53.96.19,1.4-.2.26-.5.4-.8.4Z"/>
      <circle class="cls-2" cx="89.19" cy="15.39" r="6.55"/>
      <path class="cls-2" d="m75.95,30.55c0-3.51,5.93-6.35,13.24-6.35s13.24,2.84,13.24,6.35"/>
    </g>
    <g>
      <path class="cls-2" d="m60.42,37.34h47.88c6.65,0,12.05-5.39,12.05-12.05v-12.74c0-6.65-5.39-12.05-12.05-12.05h-47.88v36.84Z"/>
      <path class="cls-3" d="m32.8,32.31c-7.57,0-13.73-6.16-13.73-13.73s6.16-13.73,13.73-13.73,13.73,6.16,13.73,13.73-6.16,13.73-13.73,13.73Zm0-25.47c-6.47,0-11.73,5.26-11.73,11.73s5.26,11.73,11.73,11.73,11.73-5.26,11.73-11.73-5.26-11.73-11.73-11.73Z"/>
      <path class="cls-3" d="m39.52,24.67c-.21,0-.42-.07-.6-.2l-7.13-5.39v-9.07c0-.55.45-1,1-1s1,.45,1,1v8.08l6.33,4.79c.44.33.53.96.19,1.4-.2.26-.5.4-.8.4Z"/>
      <circle class="cls-1" cx="89.19" cy="15.39" r="6.55"/>
      <path class="cls-1" d="m75.95,30.55c0-3.51,5.93-6.35,13.24-6.35s13.24,2.84,13.24,6.35"/>
    </g>
  </g>
</svg>