<?xml version="1.0" encoding="UTF-8"?>
<svg id="_レイヤー_2" data-name="レイヤー 2" xmlns="http://www.w3.org/2000/svg" xmlns:xlink="http://www.w3.org/1999/xlink" viewBox="0 0 73.94 17.58">
  <defs>
    <style>
      .cls-1 {
        fill: #fff;
      }

      .cls-2 {
        fill: url(#_名称未設定グラデーション_4);
      }
    </style>
    <linearGradient id="_名称未設定グラデーション_4" data-name="名称未設定グラデーション 4" x1="27.34" y1="29.99" x2="46.59" y2="-12.41" gradientUnits="userSpaceOnUse">
      <stop offset="0" stop-color="#80b236"/>
      <stop offset="1" stop-color="#4a982a"/>
    </linearGradient>
  </defs>
  <g id="newDesign">
    <rect class="cls-2" width="73.94" height="17.58"/>
    <g>
      <path class="cls-1" d="m10.73,13.05c-.37-.37-.65-.8-.83-1.27-.31-.84-.47-1.77-.47-2.75,0-1.27.29-2.58.74-3.32.68-1.15,1.85-1.78,3.27-1.78,1.08,0,2.03.36,2.71,1.04.37.37.66.8.83,1.27.31.84.47,1.77.47,2.76,0,1.26-.29,2.59-.73,3.32-.68,1.13-1.86,1.76-3.29,1.76-1.09,0-2.03-.36-2.71-1.04Zm.74-4.1c0,2.28.67,3.45,1.98,3.45.48,0,.89-.17,1.19-.48.5-.52.78-1.55.78-2.87,0-2.27-.67-3.43-1.97-3.43s-1.98,1.22-1.98,3.32Z"/>
      <path class="cls-1" d="m25.67,9.63c.28.41.56.89.82,1.37-.04-.42-.07-1.06-.07-1.5v-3.63c0-.78-.02-1.21-.11-1.73h2.15c-.07.5-.1.97-.1,1.74v6.34c0,.71.02,1.22.1,1.67h-2.25c-.14-.32-.43-.82-.82-1.4l-2.76-4.1c-.24-.36-.44-.72-.77-1.34q.01.14.05.56c.01.2.04.71.04.95v3.5c0,.82.02,1.37.1,1.83h-2.13c.07-.43.1-1,.1-1.85v-6.24c0-.66-.02-1.14-.1-1.67h2.23c.11.31.35.74.78,1.38l2.76,4.11Z"/>
      <path class="cls-1" d="m32.88,13.89c-.74,0-1.19.01-1.63.04.07-.44.1-.91.1-1.67v-6.27c0-.83-.02-1.3-.1-1.85h2.18c-.08.73-.1.89-.1,1.82v6.15h3.21c.83,0,1.25-.02,1.78-.08v1.94c-.35-.05-1.02-.08-1.78-.08h-3.67Z"/>
      <path class="cls-1" d="m42.61,4.14c-.07.48-.1.85-.1,1.66v6.44c0,.77.02,1.19.1,1.66h-2.21c.07-.47.1-.91.1-1.66v-6.44c0-.83-.02-1.14-.1-1.66h2.21Z"/>
      <path class="cls-1" d="m51.18,9.63c.28.41.56.89.82,1.37-.04-.42-.07-1.06-.07-1.5v-3.63c0-.78-.02-1.21-.11-1.73h2.15c-.07.5-.1.97-.1,1.74v6.34c0,.71.02,1.22.1,1.67h-2.25c-.14-.32-.43-.82-.82-1.4l-2.76-4.1c-.24-.36-.44-.72-.77-1.34q.01.14.05.56c.01.2.04.71.04.95v3.5c0,.82.02,1.37.1,1.83h-2.13c.07-.43.1-1,.1-1.85v-6.24c0-.66-.02-1.14-.1-1.67h2.23c.11.31.35.74.78,1.38l2.76,4.11Z"/>
      <path class="cls-1" d="m63.91,13.97c-.44-.06-.89-.08-1.67-.08h-3.84c-.82,0-1.15.01-1.64.04.07-.48.1-.9.1-1.67v-6.51c0-.68-.02-1.08-.1-1.64.49.02.8.04,1.63.04h3.72c.65,0,1.06-.02,1.67-.08v1.9c-.5-.06-.91-.08-1.67-.08h-3.27v2.15h2.73c.67,0,1.12-.02,1.68-.08v1.87c-.52-.06-.89-.08-1.68-.08h-2.75v2.43h3.43c.74,0,1.13-.02,1.66-.08v1.91Z"/>
    </g>
  </g>
</svg>