<?xml version="1.0" encoding="UTF-8"?>
<svg id="_レイヤー_2" data-name="レイヤー 2" xmlns="http://www.w3.org/2000/svg" viewBox="0 0 15 15">
  <defs>
    <style>
      .cls-1 {
        fill: none;
      }
    </style>
  </defs>
  <g id="_2023Design" data-name="2023Design">
    <g>
      <g>
        <path d="m12.93,14.13c-.31,0-.61-.12-.85-.35L1.22,2.92c-.47-.47-.47-1.23,0-1.7.47-.47,1.23-.47,1.7,0l10.86,10.86c.47.47.47,1.23,0,1.7-.23.23-.54.35-.85.35Z"/>
        <path d="m2.07,14.13c-.31,0-.61-.12-.85-.35-.47-.47-.47-1.23,0-1.7L12.08,1.22c.47-.47,1.23-.47,1.7,0,.47.47.47,1.23,0,1.7L2.92,13.78c-.23.23-.54.35-.85.35Z"/>
      </g>
      <rect class="cls-1" width="15" height="15"/>
    </g>
  </g>
</svg>