<?xml version="1.0" encoding="UTF-8"?>
<svg id="_レイヤー_2" data-name="レイヤー 2" xmlns="http://www.w3.org/2000/svg" viewBox="0 0 72.94 49.85">
  <defs>
    <style>
      .cls-1 {
        fill: #fff;
      }

      .cls-2 {
        fill: #8ec31f;
      }
    </style>
  </defs>
  <g id="_レイヤー_1-2" data-name="レイヤー 1">
    <g>
      <polygon class="cls-2" points="72.94 0 0 0 0 42.9 31.04 42.9 30.95 42.99 45.93 49.85 44.68 42.99 53.61 42.9 72.94 42.9 72.94 0"/>
      <g>
        <path class="cls-1" d="m40.26,31.41c-.48-.59-.78-.89-2.28-2.34-1.28.72-2.5,1-4.1,1-5.38,0-8.82-3.69-8.82-9.45s3.45-9.42,8.84-9.42,8.71,3.65,8.71,9.36c0,2.56-.56,4.3-2.08,6.34l.78.76c.46.41.91.8,1.39,1.15l-2.43,2.61Zm-4.5-9.12q.37.43,1.67,1.67c.5-.93.69-1.87.69-3.34,0-3.54-1.63-5.69-4.3-5.69s-4.28,2.13-4.28,5.58c0,2.08.52,3.71,1.54,4.73.69.72,1.67,1.11,2.74,1.11.41,0,.8-.07,1.13-.2-.67-.61-1.06-.96-1.67-1.43l2.48-2.43Z"/>
        <path class="cls-1" d="m48.86,26.98v2.55h-2.55v-2.55h2.55Z"/>
      </g>
    </g>
  </g>
</svg>