<?xml version="1.0" encoding="UTF-8"?>
<svg id="_レイヤー_2" data-name="レイヤー 2" xmlns="http://www.w3.org/2000/svg" viewBox="0 0 15 15">
  <defs>
    <style>
      .cls-1 {
        fill: none;
      }

      .cls-2 {
        fill: #f43400;
      }
    </style>
  </defs>
  <g id="_2023Design" data-name="2023Design">
    <g>
      <g>
        <path class="cls-2" d="m7.5,1.93c3.07,0,5.57,2.5,5.57,5.57s-2.5,5.57-5.57,5.57S1.93,10.57,1.93,7.5,4.43,1.93,7.5,1.93m0-1.93C3.36,0,0,3.36,0,7.5s3.36,7.5,7.5,7.5,7.5-3.36,7.5-7.5S11.64,0,7.5,0h0Z"/>
        <path class="cls-2" d="m7.5,11.39c-2.14,0-3.89-1.74-3.89-3.89s1.74-3.89,3.89-3.89,3.89,1.74,3.89,3.89-1.74,3.89-3.89,3.89Zm0-5.84c-1.08,0-1.96.88-1.96,1.96s.88,1.96,1.96,1.96,1.96-.88,1.96-1.96-.88-1.96-1.96-1.96Z"/>
      </g>
      <rect class="cls-1" width="15" height="15"/>
    </g>
  </g>
</svg>