<?xml version="1.0" encoding="UTF-8"?>
<svg id="_レイヤー_2" data-name="レイヤー 2" xmlns="http://www.w3.org/2000/svg" viewBox="0 0 16.93 21.39">
  <defs>
    <style>
      .cls-1 {
        fill: #070707;
      }
    </style>
  </defs>
  <g id="_レイヤー_4" data-name="レイヤー 4">
    <g>
      <path class="cls-1" d="m8.46,0C3.79,0,0,3.79,0,8.46c0,2.14.8,4.11,2.12,5.59.39.44.79.78,1.21,1.1.42.32.86.62,1.4,1.03.27.2.42.37.48.45,0,0,0,0,0,0-.02.02-.04.04-.06.07-.17.16-.36.3-.62.51-.25.22-.54.51-.83.92-.14.2-.24.48-.24.74,0,.33.12.59.25.79.24.34.52.55.85.75.49.29,1.08.52,1.75.69.67.17,1.4.27,2.16.27,1.15,0,2.26-.24,3.14-.59.44-.18.83-.38,1.16-.64.16-.13.32-.28.45-.48.13-.2.25-.46.25-.79,0-.26-.09-.54-.24-.74-.29-.41-.58-.7-.83-.92-.26-.22-.45-.35-.62-.51h0s-.05-.05-.06-.06c.02-.02.03-.05.06-.09.08-.09.21-.22.42-.38.54-.4.98-.71,1.4-1.03.42-.32.82-.66,1.21-1.1,1.32-1.49,2.12-3.45,2.12-5.59C16.93,3.79,13.14,0,8.46,0Zm1.71,15.58c-.22.32-.36.7-.36,1.08,0,.34.11.65.25.88.14.23.3.4.45.54h0c.28.26.5.41.67.56.07.06.13.11.19.18,0,0,0,0-.01,0-.29.16-.74.34-1.25.46-.51.13-1.09.21-1.65.2-.88,0-1.8-.2-2.45-.46-.18-.07-.34-.15-.46-.22.06-.06.12-.12.19-.18.17-.15.39-.31.67-.56h0c.15-.14.31-.31.45-.54.14-.23.25-.54.25-.88,0-.38-.14-.76-.36-1.08-.22-.32-.52-.61-.9-.9-.57-.43-1.02-.74-1.38-1.02-.37-.28-.65-.52-.94-.86-1.03-1.16-1.65-2.68-1.65-4.35,0-1.82.74-3.46,1.93-4.65,1.19-1.19,2.83-1.93,4.65-1.93,1.82,0,3.46.73,4.65,1.93,1.19,1.19,1.93,2.83,1.93,4.65,0,1.67-.62,3.19-1.65,4.35-.29.33-.58.58-.94.86-.36.28-.81.59-1.38,1.02-.39.29-.68.58-.9.9Z"/>
      <path class="cls-1" d="m8.46,4.47c-2.21,0-4,1.79-4,4,0,2.21,1.79,4,4,4,2.21,0,4-1.79,4-4,0-2.21-1.79-4-4-4Zm0,7.05c-.85,0-1.61-.34-2.16-.9-.55-.55-.9-1.31-.9-2.16s.34-1.61.9-2.16c.55-.55,1.32-.89,2.16-.89s1.61.34,2.16.89c.55.55.89,1.32.89,2.16,0,.85-.34,1.61-.89,2.16-.55.55-1.32.89-2.16.9Z"/>
      <path class="cls-1" d="m8.46,7.05c-.78,0-1.41.63-1.41,1.41s.63,1.41,1.41,1.41,1.41-.63,1.41-1.41-.63-1.41-1.41-1.41Z"/>
    </g>
  </g>
</svg>