<?xml version="1.0" encoding="UTF-8"?>
<svg id="_レイヤー_2" data-name="レイヤー 2" xmlns="http://www.w3.org/2000/svg" viewBox="0 0 16.55 21.17">
  <defs>
    <style>
      .cls-1 {
        fill: #4b4b4b;
      }
    </style>
  </defs>
  <g id="_レイヤー_4" data-name="レイヤー 4">
    <path class="cls-1" d="m14.87,3.95c-2.2-.12-4.11-.97-5.24-2.32l-1.36-1.63-1.36,1.63c-1.13,1.35-3.04,2.2-5.24,2.32l-1.67.09v7.74c0,4.92,6.69,8.56,7.45,8.96l.82.43.82-.43c.76-.4,7.45-4.04,7.45-8.96v-7.74l-1.67-.09Zm-6.6-1.18c1.48,1.77,3.84,2.81,6.5,2.96v6.06c0,3.99-6.5,7.39-6.5,7.39,0,0-6.5-3.4-6.5-7.39v-6.06c2.66-.15,5.02-1.18,6.5-2.96Z"/>
  </g>
</svg>