<?xml version="1.0" encoding="UTF-8"?>
<svg id="_レイヤー_2" data-name="レイヤー 2" xmlns="http://www.w3.org/2000/svg" viewBox="0 0 23.88 20.8">
  <defs>
    <style>
      .cls-1 {
        fill: #4b4b4b;
      }
    </style>
  </defs>
  <g id="_レイヤー_4" data-name="レイヤー 4">
    <g>
      <path class="cls-1" d="m3.8,3.92c1.08,0,1.96-.88,1.96-1.96s-.88-1.96-1.96-1.96-1.96.88-1.96,1.96c0,1.08.88,1.96,1.96,1.96Z"/>
      <path class="cls-1" d="m10.45,9.89s0-.08-.01-.12l2.93-2.12c.18-.13.23-.39.09-.58-.08-.11-.2-.17-.33-.17-.09,0-.17.03-.24.08l-2.93,2.13c-.11-.05-.23-.08-.36-.08h-1.59l-.39-2.2c-.21-1.11-.66-1.98-1.61-1.98H1.98c-.95,0-1.98,1.03-1.98,1.98v6.59c0,.47.38.86.86.86h.6l.33,5.62c0,.51.41.91.91.91h1.83c.51,0,.91-.41.91-.91l.43-11.12h.02l.25,1.09c.08.52.53.9,1.05.9h2.4c.47,0,.86-.38.86-.86Zm-7.28-1.22v-3.13h1.13v3.13l-.6.71-.53-.71Z"/>
      <polygon class="cls-1" points="8.88 .68 8.88 7.83 10 7.83 10 1.8 22.75 1.8 22.75 12.55 10 12.55 10 11.2 8.88 11.2 8.88 13.68 23.88 13.68 23.88 .68 8.88 .68"/>
    </g>
  </g>
</svg>