<?xml version="1.0" encoding="UTF-8"?>
<svg id="_レイヤー_2" data-name="レイヤー 2" xmlns="http://www.w3.org/2000/svg" viewBox="0 0 37.46 19.04">
  <defs>
    <style>
      .cls-1 {
        fill: none;
        stroke: #000;
        stroke-miterlimit: 10;
      }
    </style>
  </defs>
  <g id="_レイヤー_4" data-name="レイヤー 4">
    <g>
      <g>
        <path d="m10.88,15.55c-.07,0-.1-.03-.1-.1v-5.06h-4.49v5.06c0,.07-.03.1-.1.1h-1.79c-.07,0-.1-.03-.1-.1V3.65c0-.07.03-.1.1-.1h1.79c.07,0,.1.03.1.1v4.96h4.49V3.65c0-.07.03-.1.1-.1h1.79c.07,0,.1.03.1.1v11.8c0,.07-.03.1-.1.1h-1.79Z"/>
        <path d="m15.41,12.52s.04-.03.07-.03.05,0,.07.03c.43.35.93.63,1.49.84.56.21,1.16.32,1.78.32.7,0,1.26-.15,1.66-.44.38-.28.58-.65.58-1.11,0-.87-.49-1.37-1.46-1.5h0c-.14-.02-.27-.03-.39-.05-.12-.02-.25-.03-.37-.05-.12-.02-.25-.04-.38-.05-.13-.02-.27-.04-.42-.06-.52-.07-.98-.2-1.38-.39-.4-.19-.74-.44-1.02-.75-.27-.32-.48-.67-.62-1.04-.14-.38-.21-.79-.21-1.23,0-1.04.35-1.89,1.04-2.54.7-.66,1.67-1,2.91-1,.37,0,.73.03,1.08.09.35.06.69.15,1.01.26.33.11.64.24.94.39.3.15.59.32.86.5.05.04.06.08.02.14l-1,1.47s-.08.06-.13.02c-.43-.27-.88-.48-1.37-.65-.48-.16-.98-.24-1.5-.24-.26,0-.51.03-.73.09-.23.06-.43.17-.61.31-.36.26-.54.65-.54,1.18,0,.3.12.6.36.88.12.13.28.24.49.33.2.09.45.16.75.2.16.03.35.06.56.09s.47.06.76.09c1.13.14,1.96.55,2.5,1.24.54.67.82,1.43.82,2.26,0,1.11-.39,1.98-1.16,2.6-.78.62-1.81.92-3.08.92-1.8,0-3.32-.55-4.58-1.65-.02-.02-.03-.04-.03-.07s0-.05.02-.07l1.19-1.34Z"/>
        <path d="m25.01,15.55c-.06,0-.09-.03-.09-.1V3.65c0-.07.03-.1.09-.1h1.8c.07,0,.1.03.1.1v5.86c.79-.99,1.57-1.98,2.36-2.96.79-.98,1.57-1.97,2.36-2.96.03-.03.05-.04.07-.04h2.12s.07.02.09.06c.02.04.01.07-.02.11l-3.74,4.6c.7,1.19,1.39,2.37,2.07,3.54.68,1.17,1.38,2.35,2.08,3.54.02.04.02.07,0,.1s-.04.04-.09.04h-2.12s-.06-.02-.08-.05l-3.16-5.65c-.34.35-.67.69-.98,1.02-.31.33-.64.67-.97,1.02v3.56c0,.07-.03.1-.1.1h-1.8Z"/>
      </g>
      <rect class="cls-1" x=".5" y=".5" width="36.46" height="18.04"/>
    </g>
  </g>
</svg>