<?xml version="1.0" encoding="UTF-8"?>
<svg id="_レイヤー_2" data-name="レイヤー 2" xmlns="http://www.w3.org/2000/svg" viewBox="0 0 13.89 22.88">
  <defs>
    <style>
      .cls-1 {
        fill: #4b4b4b;
      }
    </style>
  </defs>
  <g id="_レイヤー_4" data-name="レイヤー 4">
    <g>
      <path class="cls-1" d="m4.09,4.31c1.19,0,2.15-.97,2.15-2.15,0-1.19-.96-2.15-2.15-2.15S1.94.96,1.94,2.15c0,1.19.96,2.15,2.15,2.15Z"/>
      <path class="cls-1" d="m11.49,10.87c.26,0,.47-.21.47-.47v-.97c0-.26-.21-.47-.47-.47h-2.25c-.17,0-.32-.09-.41-.24l-.7-1.22c-.56-1.02-1.14-2.18-2.18-2.18h-3.78c-1.04,0-2.18,1.14-2.18,2.18v7.24c0,.52.42.95.94.95h.66l.36,6.18c0,.56.45,1.01,1.01,1.01h2.2c.56,0,1.01-.45,1.01-1.01l.36-6.18.19-6.44,1.23,1.45c.09.1.22.16.36.16h3.18Z"/>
      <path class="cls-1" d="m9.58,12.49c0,.82.67,1.49,1.49,1.49s1.49-.67,1.49-1.49-.67-1.49-1.49-1.49-1.49.67-1.49,1.49Z"/>
      <path class="cls-1" d="m12.38,14.44h-2.62c-.72,0-1.51.79-1.51,1.51v2.54c0,.36.29.65.65.65h.46l.25,3.04c0,.38.31.7.7.7h1.52c.38,0,.7-.31.7-.7l.25-3.04h.46c.36,0,.65-.29.65-.65v-2.54c0-.72-.79-1.51-1.51-1.51Z"/>
    </g>
  </g>
</svg>