<?xml version="1.0" encoding="UTF-8"?>
<svg id="_レイヤー_2" data-name="レイヤー 2" xmlns="http://www.w3.org/2000/svg" xmlns:xlink="http://www.w3.org/1999/xlink" viewBox="0 0 15.8 21.53">
  <defs>
    <style>
      .cls-1 {
        fill: url(#_名称未設定グラデーション_13);
      }
    </style>
    <linearGradient id="_名称未設定グラデーション_13" data-name="名称未設定グラデーション 13" x1="0" y1="10.77" x2="15.8" y2="10.77" gradientUnits="userSpaceOnUse">
      <stop offset="0" stop-color="#80b136"/>
      <stop offset="1" stop-color="#4a972a"/>
    </linearGradient>
  </defs>
  <g id="_レイヤー_4" data-name="レイヤー 4">
    <path class="cls-1" d="m7.9,5.05L3.23.54C2.68,0,1.87-.15,1.16.15.46.45,0,1.14,0,1.91v11.52c0,.77.31,1.52.87,2.05l5.7,5.51c.74.71,1.91.71,2.65,0l5.7-5.51c.56-.54.87-1.28.87-2.05V1.91c0-.76-.46-1.46-1.16-1.75-.7-.3-1.52-.15-2.07.39l-4.67,4.51Zm5.21,8.05c0,.26-.1.51-.29.68l-4.92,4.76v-9.75l.93-.9,3.47-3.35c.14-.13.34-.17.52-.1.18.07.29.25.29.44v8.22Z"/>
  </g>
</svg>