<?xml version="1.0" encoding="UTF-8"?>
<svg id="_レイヤー_2" data-name="レイヤー 2" xmlns="http://www.w3.org/2000/svg" viewBox="0 0 295.08 142.12">
  <defs>
    <style>
      .cls-1 {
        fill: none;
      }

      .cls-2 {
        fill: #fff;
      }

      .cls-3 {
        fill: #ce2332;
      }

      .cls-4 {
        fill: #111;
      }
    </style>
  </defs>
  <g id="_レイヤー_4" data-name="レイヤー 4">
    <g>
      <g>
        <g>
          <g>
            <path d="m38.52,65.29c.8-.9,1.38-1.58,1.76-2.02l4.54-5.44c.92-1.12,1.26-1.54,1.74-2.3h3.38c-.1,1.16-.14,1.9-.14,3.36v6.52h.56c.72,0,1.34-.04,2.08-.16v3.08c-.66-.08-1.32-.12-2.08-.12h-.56v1.22c0,1.06.04,1.62.16,2.36h-3.48c.12-.72.16-1.36.16-2.4v-1.2h-5.58c-1.2,0-1.88.02-2.54.08v-2.98Zm8.16-3.54c0-.6.02-1.08.1-2.18-.3.44-.7.94-1.22,1.58l-3.48,4.28h4.6v-3.68Z"/>
            <path d="m57.78,70.39c-.62-.62-1.08-1.34-1.38-2.12-.52-1.4-.78-2.96-.78-4.58,0-2.12.48-4.3,1.24-5.54,1.14-1.92,3.08-2.96,5.46-2.96,1.8,0,3.38.6,4.52,1.74.62.62,1.1,1.34,1.38,2.12.52,1.4.78,2.96.78,4.6,0,2.1-.48,4.32-1.22,5.54-1.14,1.88-3.1,2.94-5.48,2.94-1.82,0-3.38-.6-4.52-1.74Zm1.24-6.84c0,3.8,1.12,5.76,3.3,5.76.8,0,1.48-.28,1.98-.8.84-.86,1.3-2.58,1.3-4.78,0-3.78-1.12-5.72-3.28-5.72s-3.3,2.04-3.3,5.54Z"/>
            <path d="m74.6,70.39c-.62-.62-1.08-1.34-1.38-2.12-.52-1.4-.78-2.96-.78-4.58,0-2.12.48-4.3,1.24-5.54,1.14-1.92,3.08-2.96,5.46-2.96,1.8,0,3.38.6,4.52,1.74.62.62,1.1,1.34,1.38,2.12.52,1.4.78,2.96.78,4.6,0,2.1-.48,4.32-1.22,5.54-1.14,1.88-3.1,2.94-5.48,2.94-1.82,0-3.38-.6-4.52-1.74Zm1.24-6.84c0,3.8,1.12,5.76,3.3,5.76.8,0,1.48-.28,1.98-.8.84-.86,1.3-2.58,1.3-4.78,0-3.78-1.12-5.72-3.28-5.72s-3.3,2.04-3.3,5.54Z"/>
          </g>
          <g>
            <path d="m43.81,89.18c-.03.13-.04.18-.19.81-.13.63-.42,1.45-.72,2.15-.3.67-.52,1.07-.97,1.73-.66-.44-.88-.56-1.52-.8.76-.99,1.17-1.79,1.53-3,.15-.52.22-.85.26-1.25l1.6.37Zm6.44-1c-.45-.05-.66-.07-1.58-.07h-2.3v5.02c0,.58.02,1.13.05,1.51h-1.77c.04-.42.07-.84.07-1.51v-5.02h-2.19c-.88,0-1.09.01-1.58.05v-1.6c.51.07.7.08,1.58.08h2.19v-.43c0-.54-.02-.89-.07-1.28h1.78c-.04.36-.07.75-.07,1.28v.43h2.49c-.3-.23-.46-.58-.46-.96,0-.67.55-1.22,1.22-1.22s1.21.54,1.21,1.22c0,.42-.21.8-.57,1.03v1.45Zm-1.45.62c.08.37.16.66.36,1.22.48,1.33.89,2.13,1.5,2.97-.79.42-.96.52-1.51.89-.86-1.47-1.24-2.42-1.77-4.35-.03-.13-.05-.2-.12-.35l1.54-.38Zm.27-3.11c0,.3.24.54.54.54s.53-.24.53-.54-.24-.53-.53-.53-.54.24-.54.53Z"/>
            <path d="m62.07,85.98c-.23.2-.25.22-.42.4-.84.87-1.67,1.59-2.57,2.24v4.33c0,.88.01,1.25.06,1.63h-1.82c.06-.42.07-.69.07-1.6v-3.34c-1.14.68-1.77.97-3.76,1.71-.3-.68-.43-.9-.89-1.5,2.22-.62,4.06-1.52,5.8-2.86.97-.75,1.71-1.49,2.04-2.04l1.51,1.02Z"/>
            <path d="m66.52,85.65c1.42.86,2.05,1.32,2.93,2.13l-1.11,1.44c-.91-.97-1.84-1.69-2.89-2.28l1.08-1.3Zm-1.03,6.82c1.01-.07,2.27-.36,3.28-.8,1.4-.58,2.38-1.41,3.23-2.7.5-.74.79-1.33,1.11-2.19.52.6.71.79,1.4,1.28-1.09,2.35-2.39,3.81-4.3,4.82-.88.46-2.15.91-3.2,1.14q-.27.06-.48.1c-.25.05-.32.08-.55.15l-.48-1.8Z"/>
            <path d="m79.18,94.55c.05-.42.07-.8.07-1.55v-6.51c0-.78-.01-1.09-.07-1.47h1.79c-.05.42-.07.67-.07,1.47v1.67c1.71.58,3.21,1.26,5.01,2.31l-.9,1.58c-.98-.67-2.42-1.45-3.69-2-.21-.09-.25-.11-.42-.2v3.17c0,.7.02,1.11.07,1.53h-1.79Z"/>
          </g>
        </g>
        <g>
          <path d="m150.5,45.25c-.34-1.04-.93-1.47-2.02-1.47s-1.84.54-2.34,1.58c-.32.67-.48,1.33-.54,2.31.4-.45.62-.64,1.07-.86.62-.32,1.31-.46,2.18-.46,2.82,0,4.55,1.66,4.55,4.39,0,1.17-.48,2.35-1.25,3.14-.88.88-2.23,1.38-3.75,1.38-1.65,0-2.98-.56-3.86-1.62-.96-1.17-1.47-2.88-1.47-4.99,0-1.75.42-3.52,1.07-4.59.94-1.55,2.46-2.38,4.34-2.38,1.26,0,2.34.3,3.1.88.7.53,1.14,1.1,1.52,2.13l-2.61.59Zm-2.11,3.2c-1.47,0-2.5.94-2.5,2.29s1.06,2.32,2.48,2.32c.9,0,1.68-.4,2.1-1.06.21-.34.32-.77.32-1.28,0-1.46-.86-2.27-2.4-2.27Z"/>
          <path d="m158.98,53.82c-.5-.5-.86-1.07-1.1-1.7-.42-1.12-.62-2.37-.62-3.67,0-1.7.38-3.44.99-4.43.91-1.54,2.46-2.37,4.37-2.37,1.44,0,2.71.48,3.62,1.39.5.5.88,1.07,1.1,1.7.42,1.12.62,2.37.62,3.68,0,1.68-.38,3.46-.98,4.43-.91,1.5-2.48,2.35-4.39,2.35-1.46,0-2.71-.48-3.62-1.39Zm.99-5.47c0,3.04.9,4.61,2.64,4.61.64,0,1.18-.22,1.58-.64.67-.69,1.04-2.06,1.04-3.83,0-3.02-.9-4.58-2.63-4.58s-2.64,1.63-2.64,4.43Z"/>
          <path d="m182.65,41.7c.77,0,1.25-.02,1.74-.08-.06.67-.08,1.17-.08,1.71v10.37c0,.86.03,1.44.1,2.05h-2.29v-.88h-7.07v.88h-2.26c.06-.61.1-1.28.1-2.05v-10.32c0-.61-.03-1.17-.08-1.76.51.05,1.07.08,1.81.08h8.04Zm-.53,5.44v-3.43h-7.07v3.43h7.07Zm-7.07,1.98v3.73h7.07v-3.73h-7.07Z"/>
          <path d="m191.4,53.8c0,.99.03,1.6.1,2.05h-2.21c.06-.5.1-1.02.1-2.06v-10.53c0-.86-.02-1.3-.06-1.81.48.05.85.06,1.63.06h3.07c.85,0,1.22-.02,1.63-.06-.03.46-.05.83-.05,1.47v2.69c0,.78,0,1.06.03,1.42-.37-.02-.9-.03-1.39-.03h-2.85v6.8Zm0-10.16h2.34v-.66h-2.34v.66Zm0,1.95h2.34v-.66h-2.34v.66Zm8.12,7.23c0,.35,0,.59.02.91.42.03.62.05.83.05.56,0,.67-.06.67-.4v-6.39h-3.07c-.5,0-1.02.02-1.39.03.03-.48.03-.64.03-1.42v-2.69c0-.56-.02-.96-.05-1.47.48.05.82.06,1.65.06h3.27c.8,0,1.15-.02,1.63-.06-.05.58-.06.99-.06,1.79v10.45c0,1.07-.21,1.55-.78,1.81-.35.16-.94.22-1.94.22-.24,0-.29,0-1.15-.03-.1-.69-.18-1.06-.34-1.52-.3-.02-.45-.02-.74-.02h-3.38v.8h-1.92c.05-.46.06-1.04.06-1.66v-4.08c0-.56-.02-.99-.05-1.39.48.03.8.05,1.44.05h3.87c.66,0,.94-.02,1.44-.05-.03.38-.05.78-.05,1.39v3.62Zm-4.8-2.56h2.96v-.82h-2.96v.82Zm0,2.31h2.96v-.8h-2.96v.8Zm3.79-8.93h2.53v-.66h-2.53v.66Zm0,1.95h2.53v-.66h-2.53v.66Z"/>
          <path d="m209.46,48.86c-.61.62-1.22,1.17-2.06,1.84-.42-.88-.7-1.31-1.25-1.9,1.98-1.26,3.41-2.69,4.43-4.4h-2.02c-.82,0-1.41.03-1.97.1v-2.08c.54.06,1.15.1,1.98.1h2.91c.21-.56.35-1.09.43-1.6l2.35.26c-.11.24-.16.34-.37.9-.05.16-.06.18-.18.45h5.43c.83,0,1.44-.03,1.95-.1v2.08c-.54-.06-1.15-.1-1.95-.1h-6.34c-.26.46-.37.64-.67,1.12h5.43c.77,0,1.23-.02,1.66-.06-.06.5-.08,1.01-.08,1.81v6.8c0,.7-.22,1.17-.7,1.42-.35.21-.94.29-1.98.29-.38,0-.72-.02-1.46-.05-.08-.82-.19-1.25-.5-1.98.86.1,1.42.14,1.87.14.61,0,.72-.06.72-.43v-.9h-5.6v1.22c0,.88.03,1.52.1,2.08h-2.24c.06-.56.1-1.22.1-2.11v-4.88Zm7.65-1.52h-5.6v.93h5.6v-.93Zm-5.6,2.59v.96h5.6v-.96h-5.6Z"/>
          <path d="m226.93,48.26c.56.46.7.59,1.14.99.3-.69.42-1.04.56-1.76l1.7.85c-.59-.82-.9-1.36-1.52-2.74l1.58-.72c.66,1.42,1.12,2.13,2.13,3.12-.56.45-.8.7-1.34,1.36-.38-.43-.51-.59-.77-.93-.5,1.33-.61,1.62-.91,2.24.61.67.85.94,1.5,1.7l-1.44,1.49c-.53-.74-.7-.96-1.1-1.44-1.01,1.44-1.94,2.35-3.44,3.35-.35-.69-.74-1.22-1.23-1.74,1.47-.78,2.5-1.71,3.38-3.06-.58-.62-.8-.83-1.5-1.44l1.28-1.26Zm.8-2.69c-.86,1.97-1.39,2.75-2.72,4.07-.37-.82-.58-1.14-1.12-1.74.62-.53.86-.8,1.28-1.39.38-.58.54-.9.82-1.65l1.74.72Zm5.23.48c-.59,0-.9.02-1.22.06v-1.31c-.34-.03-.67-.03-1.26-.03h-4.77c-.53,0-.98.03-1.49.08v-2.02c.51.06.83.08,1.57.08h1.34v-.54c0-.62-.02-.93-.08-1.33h2.18c-.06.42-.08.77-.08,1.33v.54h1.1c.7,0,1.15-.02,1.58-.08v1.3c.32.03.54.05,1.15.05h.24c.02-.91.02-1.23.02-1.55,0-.66-.02-1.01-.1-1.46h2.19q-.06.58-.1,3.01h1.55c1.01,0,1.33-.02,1.73-.06-.06.64-.06.7-.1,3.25-.05,3.49-.3,6.08-.72,7.12-.22.61-.53.9-1.12,1.06-.34.1-.62.13-1.34.13-.54,0-.7,0-1.2-.05-.05-.9-.14-1.33-.42-2.08.66.13,1.12.18,1.47.18.62,0,.74-.13.9-.96.29-1.63.4-3.25.42-6.71h-1.26c-.32,4.8-1.46,7.63-3.94,9.81-.5-.7-.82-1.02-1.5-1.5,2.22-1.84,3.2-4.18,3.46-8.31h-.21Z"/>
        </g>
        <g>
          <g>
            <g>
              <path class="cls-3" d="m139.22,93.75c0-1.41.28-2.66.83-3.75s1.37-2.04,2.45-2.83c-.83-.78-1.5-1.64-2.01-2.58s-.76-2.05-.76-3.32c0-2.42.82-4.47,2.46-6.15,1.68-1.7,3.73-2.54,6.15-2.54s4.48.85,6.13,2.54c1.67,1.71,2.5,3.76,2.5,6.15,0,.63-.07,1.22-.21,1.76s-.33,1.06-.57,1.55-.54.94-.88,1.37-.71.84-1.11,1.22c2.19,1.57,3.28,3.77,3.28,6.58,0,1.31-.23,2.52-.69,3.61s-1.14,2.06-2.04,2.91c-.89.79-1.87,1.4-2.95,1.84s-2.24.65-3.47.65c-2.5,0-4.64-.83-6.42-2.48-1.8-1.7-2.71-3.87-2.71-6.52Zm4.66-.04c0,.63.12,1.21.36,1.74s.56,1,.97,1.39c.92.83,1.96,1.25,3.14,1.25s2.22-.42,3.14-1.25c.44-.41.77-.88,1-1.4s.35-1.1.35-1.73c0-1.27-.45-2.32-1.35-3.14-.89-.85-1.93-1.27-3.14-1.27s-2.22.42-3.14,1.27c-.89.82-1.33,1.87-1.33,3.14Zm.53-12.53c0,1.31.4,2.3,1.19,2.95.83.67,1.75,1,2.75,1s1.91-.33,2.73-1,1.23-1.65,1.23-2.95-.41-2.24-1.23-2.91c-.78-.68-1.69-1.03-2.73-1.03s-1.93.34-2.75,1.03c-.79.66-1.19,1.63-1.19,2.91Z"/>
              <path class="cls-3" d="m148.35,103.26c-2.62,0-4.9-.88-6.76-2.62-1.9-1.79-2.87-4.1-2.87-6.89,0-1.48.3-2.82.88-3.98.51-1,1.22-1.89,2.14-2.65-.68-.71-1.25-1.48-1.69-2.3-.54-1.01-.82-2.21-.82-3.56,0-2.54.88-4.73,2.6-6.5,1.77-1.79,3.96-2.69,6.51-2.69s4.75.91,6.49,2.69c1.75,1.8,2.64,3.99,2.64,6.5,0,.67-.07,1.3-.22,1.88-.15.58-.35,1.14-.61,1.65-.26.51-.57,1-.94,1.46-.23.3-.48.58-.74.86,2.01,1.64,3.03,3.87,3.03,6.63,0,1.37-.24,2.65-.73,3.8-.48,1.15-1.21,2.19-2.16,3.08-.94.84-1.98,1.49-3.11,1.94-1.13.45-2.36.68-3.65.68Zm0-30.19c-2.3,0-4.2.78-5.8,2.4-1.54,1.57-2.32,3.53-2.32,5.8,0,1.18.24,2.22.7,3.09.48.89,1.12,1.72,1.91,2.45l.44.41-.49.36c-1.01.74-1.78,1.63-2.3,2.65-.52,1.02-.78,2.21-.78,3.53,0,2.53.83,4.55,2.55,6.16,1.67,1.56,3.72,2.35,6.08,2.35,1.16,0,2.26-.21,3.28-.61,1.02-.41,1.96-.99,2.81-1.74.84-.79,1.48-1.71,1.91-2.73.43-1.03.65-2.18.65-3.42,0-2.67-1.01-4.69-3.07-6.18l-.49-.35.43-.42c.38-.37.74-.76,1.06-1.17.32-.4.6-.84.83-1.29.23-.45.41-.94.54-1.44.13-.5.19-1.06.19-1.64,0-2.25-.79-4.2-2.36-5.8-1.57-1.61-3.46-2.39-5.77-2.39Zm0,25.53c-1.3,0-2.47-.46-3.47-1.38-.46-.45-.83-.97-1.09-1.56-.27-.6-.4-1.25-.4-1.95,0-1.41.5-2.59,1.49-3.51,1.01-.93,2.18-1.4,3.48-1.4s2.5.47,3.48,1.41c1,.91,1.51,2.09,1.51,3.5,0,.7-.13,1.35-.39,1.93-.26.59-.64,1.11-1.12,1.57-1.01.92-2.18,1.39-3.48,1.39Zm0-8.8c-1.06,0-1.97.37-2.8,1.14-.79.73-1.17,1.63-1.17,2.77,0,.55.11,1.07.32,1.54.21.47.5.89.87,1.24.82.74,1.73,1.11,2.79,1.11s1.97-.37,2.8-1.12c.38-.36.68-.77.88-1.24.2-.46.31-.97.31-1.53,0-1.13-.39-2.04-1.19-2.77-.81-.77-1.72-1.14-2.8-1.14Zm0-4.16c-1.11,0-2.14-.38-3.06-1.12-.92-.76-1.38-1.88-1.38-3.34s.46-2.54,1.37-3.3c.91-.76,1.94-1.14,3.07-1.14s2.19.39,3.06,1.15c.93.75,1.4,1.87,1.4,3.29s-.48,2.57-1.41,3.34c-.91.74-1.93,1.12-3.04,1.12Zm0-7.9c-.9,0-1.69.3-2.43.91-.68.56-1.01,1.39-1.01,2.53s.33,2.01,1.01,2.57c1.49,1.19,3.37,1.2,4.84,0,.7-.58,1.05-1.41,1.05-2.57s-.34-1.95-1.05-2.52c-.7-.62-1.49-.91-2.41-.91Z"/>
            </g>
            <g>
              <path class="cls-3" d="m159.89,108.11c-.08.05-.16.06-.25.02s-.12-.12-.12-.23v-7.2c0-.16.08-.25.25-.25h4.18c.15,0,.23.08.23.25v4.16c0,.08-.03.15-.08.21l-4.2,3.04Z"/>
              <path class="cls-3" d="m159.75,108.66c-.11,0-.22-.03-.33-.08-.25-.13-.4-.37-.4-.67v-7.2c0-.44.31-.75.75-.75h4.18c.43,0,.73.31.73.75v4.16c0,.22-.08.41-.23.56l-4.28,3.1c-.13.09-.27.13-.42.13Zm.27-7.7v6.44l3.66-2.64v-3.8h-3.66Z"/>
            </g>
            <g>
              <path class="cls-3" d="m167.52,81.22c0-2.76.87-4.89,2.6-6.38,1.72-1.52,3.7-2.28,5.93-2.28,1.11,0,2.16.19,3.15.58s1.92.95,2.78,1.69c.86.77,1.51,1.68,1.96,2.74s.67,2.27.67,3.64v12.9c0,2.75-.88,4.87-2.62,6.38-1.72,1.5-3.7,2.26-5.93,2.26s-4.2-.75-5.93-2.26c-1.74-1.49-2.6-3.62-2.6-6.38v-12.9Zm12.41.25c0-1.33-.35-2.36-1.06-3.11s-1.64-1.12-2.82-1.12-2.11.37-2.81,1.12-1.05,1.78-1.05,3.11v12.41c0,1.34.35,2.38,1.05,3.12s1.63,1.11,2.81,1.11,2.12-.37,2.82-1.11,1.06-1.78,1.06-3.12v-12.41Z"/>
              <path class="cls-3" d="m176.06,103.26c-2.34,0-4.45-.8-6.26-2.38-1.84-1.58-2.78-3.85-2.78-6.75v-12.9c0-2.9.94-5.17,2.78-6.76,1.8-1.59,3.91-2.4,6.25-2.4,1.16,0,2.29.21,3.33.62,1.04.41,2.02,1.01,2.92,1.78.92.82,1.62,1.8,2.09,2.92.47,1.12.71,2.41.71,3.83v12.9c0,2.89-.94,5.16-2.8,6.76-1.81,1.58-3.91,2.38-6.25,2.38Zm0-30.19c-2.09,0-3.98.72-5.6,2.15-1.64,1.41-2.44,3.37-2.44,6v12.9c0,2.63.79,4.6,2.43,6,1.62,1.42,3.51,2.14,5.6,2.14s3.98-.72,5.6-2.13c1.65-1.42,2.45-3.38,2.45-6v-12.9c0-1.29-.21-2.45-.63-3.45-.41-.99-1.03-1.85-1.83-2.56-.81-.69-1.7-1.23-2.63-1.6-.93-.36-1.93-.55-2.96-.55Zm0,25.53c-1.31,0-2.38-.43-3.17-1.26-.78-.83-1.18-2-1.18-3.46v-12.41c0-1.45.4-2.61,1.18-3.45.79-.85,1.86-1.28,3.17-1.28s2.38.43,3.18,1.27c.79.84,1.19,2,1.19,3.45v12.41c0,1.47-.4,2.63-1.19,3.46-.8.84-1.87,1.26-3.18,1.26Zm0-20.86c-1.04,0-1.84.31-2.44.96-.6.65-.91,1.58-.91,2.77v12.41c0,1.2.31,2.13.91,2.77.6.64,1.4.95,2.45.95s1.85-.31,2.46-.95c.61-.64.92-1.57.92-2.77v-12.41c0-1.19-.31-2.12-.92-2.76-.61-.65-1.41-.96-2.46-.96Z"/>
            </g>
            <g>
              <path class="cls-3" d="m190.2,81.22c0-2.76.87-4.89,2.6-6.38,1.72-1.52,3.7-2.28,5.93-2.28,1.11,0,2.16.19,3.15.58s1.92.95,2.78,1.69c.86.77,1.51,1.68,1.96,2.74s.67,2.27.67,3.64v12.9c0,2.75-.88,4.87-2.62,6.38-1.72,1.5-3.7,2.26-5.93,2.26s-4.2-.75-5.93-2.26c-1.74-1.49-2.6-3.62-2.6-6.38v-12.9Zm12.41.25c0-1.33-.35-2.36-1.06-3.11s-1.64-1.12-2.82-1.12-2.11.37-2.81,1.12-1.05,1.78-1.05,3.11v12.41c0,1.34.35,2.38,1.05,3.12s1.63,1.11,2.81,1.11,2.12-.37,2.82-1.11,1.06-1.78,1.06-3.12v-12.41Z"/>
              <path class="cls-3" d="m198.73,103.26c-2.34,0-4.45-.8-6.26-2.38-1.84-1.58-2.78-3.85-2.78-6.75v-12.9c0-2.9.94-5.17,2.78-6.76,1.8-1.59,3.91-2.4,6.25-2.4,1.17,0,2.29.21,3.33.62,1.04.41,2.02,1.01,2.92,1.78.92.82,1.62,1.8,2.09,2.92.47,1.12.71,2.41.71,3.83v12.9c0,2.89-.94,5.16-2.8,6.76-1.81,1.58-3.91,2.38-6.25,2.38Zm0-30.19c-2.09,0-3.98.72-5.6,2.15-1.64,1.41-2.44,3.37-2.44,6v12.9c0,2.63.79,4.6,2.43,6,1.62,1.42,3.51,2.14,5.6,2.14s3.98-.72,5.6-2.13c1.65-1.42,2.45-3.38,2.45-6v-12.9c0-1.29-.21-2.45-.63-3.45-.41-.98-1.03-1.85-1.83-2.56-.81-.69-1.7-1.23-2.63-1.6-.93-.36-1.93-.55-2.97-.55Zm0,25.53c-1.31,0-2.38-.43-3.17-1.26-.78-.83-1.18-2-1.18-3.46v-12.41c0-1.45.4-2.61,1.18-3.45.79-.85,1.86-1.28,3.17-1.28s2.38.43,3.18,1.27c.79.84,1.19,2,1.19,3.45v12.41c0,1.47-.4,2.63-1.19,3.46-.8.84-1.87,1.26-3.18,1.26Zm0-20.86c-1.04,0-1.84.31-2.44.96-.6.65-.91,1.58-.91,2.77v12.41c0,1.2.31,2.13.91,2.77.6.64,1.4.95,2.45.95s1.85-.31,2.46-.95c.61-.64.92-1.57.92-2.77v-12.41c0-1.19-.31-2.12-.92-2.76-.61-.65-1.42-.96-2.46-.96Z"/>
            </g>
            <g>
              <path class="cls-3" d="m212.88,81.22c0-2.76.87-4.89,2.6-6.38,1.72-1.52,3.7-2.28,5.93-2.28,1.11,0,2.16.19,3.15.58s1.92.95,2.78,1.69c.86.77,1.51,1.68,1.96,2.74s.67,2.27.67,3.64v12.9c0,2.75-.88,4.87-2.62,6.38-1.72,1.5-3.7,2.26-5.93,2.26s-4.2-.75-5.93-2.26c-1.74-1.49-2.6-3.62-2.6-6.38v-12.9Zm12.41.25c0-1.33-.35-2.36-1.06-3.11s-1.64-1.12-2.82-1.12-2.11.37-2.81,1.12-1.05,1.78-1.05,3.11v12.41c0,1.34.35,2.38,1.05,3.12s1.63,1.11,2.81,1.11,2.12-.37,2.82-1.11,1.06-1.78,1.06-3.12v-12.41Z"/>
              <path class="cls-3" d="m221.41,103.26c-2.34,0-4.45-.8-6.26-2.38-1.84-1.58-2.78-3.85-2.78-6.75v-12.9c0-2.9.94-5.17,2.78-6.76,1.8-1.59,3.91-2.4,6.25-2.4,1.16,0,2.29.21,3.33.62,1.04.41,2.02,1.01,2.92,1.78.92.82,1.62,1.8,2.09,2.92.47,1.12.71,2.41.71,3.83v12.9c0,2.89-.94,5.16-2.8,6.76-1.81,1.58-3.91,2.38-6.25,2.38Zm0-30.19c-2.09,0-3.98.72-5.6,2.15-1.64,1.41-2.44,3.37-2.44,6v12.9c0,2.63.79,4.6,2.43,6,1.62,1.42,3.51,2.14,5.6,2.14s3.98-.72,5.6-2.13c1.65-1.42,2.45-3.38,2.45-6v-12.9c0-1.29-.21-2.45-.63-3.45-.41-.99-1.03-1.85-1.83-2.56-.81-.69-1.7-1.23-2.63-1.6-.93-.36-1.93-.55-2.96-.55Zm0,25.53c-1.31,0-2.38-.43-3.17-1.26-.78-.83-1.18-2-1.18-3.46v-12.41c0-1.45.4-2.61,1.18-3.45.79-.85,1.86-1.28,3.17-1.28s2.38.43,3.18,1.27c.79.84,1.19,2,1.19,3.45v12.41c0,1.47-.4,2.63-1.19,3.46-.8.84-1.87,1.26-3.18,1.26Zm0-20.86c-1.04,0-1.84.31-2.44.96-.6.65-.91,1.58-.91,2.77v12.41c0,1.2.31,2.13.91,2.77.6.64,1.4.95,2.45.95s1.85-.31,2.46-.95c.61-.64.92-1.57.92-2.77v-12.41c0-1.19-.31-2.12-.92-2.76-.61-.65-1.41-.96-2.46-.96Z"/>
            </g>
          </g>
          <path d="m248.19,105.31c0,.97.02,1.5.08,1.88h-2.29c.08-.58.11-1.11.11-1.96v-10.32c0-.69-.02-1.11-.06-1.57.55.05.99.06,1.88.06h9.5c.96,0,1.41-.02,1.83-.06-.05.47-.06.89-.06,1.83v10.08c0,.8-.25,1.3-.74,1.53-.33.17-.88.23-1.82.23-.52,0-1.24-.02-1.94-.05-.11-.74-.27-1.24-.6-1.99.92.09,1.83.16,2.24.16.66,0,.78-.06.78-.38v-3.38h-8.92v3.91Zm3.33-9.94h-3.33v4.1h3.33v-4.1Zm5.59,4.1v-4.1h-3.54v4.1h3.54Z"/>
          <g>
            <path class="cls-4" d="m246.32,79.49c-.34.06-.49.09-.99.17-.08-.39-.21-.7-.47-1.17,1.16-.14,1.95-.31,2.78-.65.17-.06.31-.15.45-.24l.77,1.1q-.08.04-.27.12c-.31.13-.52.21-.97.34v1.25h.25c.35,0,.53-.01.73-.04v1.29c-.21-.03-.4-.04-.73-.04h-.21c.37.76.62,1.12,1.16,1.65-.27.53-.34.7-.52,1.2-.29-.37-.44-.59-.72-1.17.02.22.04.73.04,1.01v1.81c0,.63.01.95.06,1.31h-1.42c.04-.41.06-.73.06-1.31v-1.47c0-.21.03-.86.05-1.11-.28.85-.57,1.39-1.11,2.07-.19-.6-.32-.89-.59-1.33.69-.78,1.23-1.76,1.48-2.66h-.45c-.39,0-.56.01-.81.05v-1.31c.25.04.41.05.81.05h.62v-.93Zm3.58.3c-.29-.72-.51-1.15-.85-1.63l1.22-.52c.4.62.63,1.08.86,1.66l-1.1.49h1.64c.39-.74.6-1.3.81-2.14l1.38.42q-.58,1.28-.85,1.72h.2c.38,0,.56-.01.87-.04-.03.25-.04.43-.04.75v2.01c0,.33.01.52.04.78-.28-.03-.52-.04-.87-.04h-.39v2.63c0,.15.04.19.2.19.06.01.11.01.14.01h.03c.33,0,.34-.06.35-1.4.41.26.69.4,1.05.49-.06,1.17-.14,1.53-.32,1.78-.21.29-.53.37-1.54.37-.93,0-1.2-.21-1.2-.95v-3.12h-.62.1c-.11,1.36-.27,1.96-.7,2.72-.37.66-.8,1.08-1.56,1.5-.26-.45-.45-.67-.9-1.1.63-.3,1.04-.67,1.35-1.15.31-.51.5-1.22.5-1.88v-.1h-.06c-.34,0-.55.01-.82.04.02-.26.03-.49.03-.78v-2c0-.25-.01-.51-.03-.76.29.03.48.04.83.04h.23Zm.28,2.24h2.53v-1.02h-2.53v1.02Z"/>
            <path class="cls-4" d="m256.36,81.57c.27.04.45.05.85.05h.97c.3,0,.56-.01.79-.04-.03.32-.04.56-.04,1.16v2.24c.12.27.19.35.46.54.48.33,1.01.42,2.68.42s3.04-.08,4.12-.23c-.19.57-.26.89-.34,1.46-.77.03-2.77.07-3.54.07-2.62,0-3.29-.19-4.09-1.16-.31.3-.55.51-1.08.92-.14.1-.2.16-.26.21-.08.06-.09.07-.15.11l-.6-1.43c.34-.14,1-.54,1.47-.92v-2.11h-.57c-.27,0-.41.01-.68.05v-1.36Zm1.05-3.75c.8.68,1.38,1.25,1.89,1.91l-1.03,1.02c-.66-.87-1.02-1.26-1.86-1.98l1-.95Zm3.3,1.51c-.37,0-.62.01-.88.04v-1.36c.23.04.45.05.88.05h1.69c.34,0,.55-.01.76-.04-.01.15-.02.48-.02.63,0,.61.15,1.5.35,2.13.27.81.69,1.58,1.19,2.18.39.47.72.76,1.37,1.22-.34.45-.53.76-.79,1.33-.73-.53-1.16-.95-1.63-1.57-.51-.69-.8-1.28-1.13-2.29-.3,1.08-.58,1.66-1.12,2.37-.39.51-.73.86-1.4,1.4-.3-.47-.46-.65-.97-1.12.95-.68,1.54-1.38,1.99-2.31.26-.56.47-1.2.58-1.78.03-.18.05-.33.13-.89h-1.01Z"/>
          </g>
        </g>
        <path class="cls-2" d="m102.26,113.77H22.51V45.15l19.74-16.8h60.01v85.42Zm-78.75-1h77.75V29.35h-58.64l-19.11,16.26v67.16Z"/>
      </g>
      <rect class="cls-1" width="288.7" height="142.12"/>
      <rect class="cls-1" x="6.38" width="288.7" height="142.12"/>
    </g>
  </g>
</svg>