<?xml version="1.0" encoding="utf-8"?>
<!-- Generator: Adobe Illustrator 27.1.1, SVG Export Plug-In . SVG Version: 6.00 Build 0)  -->
<svg version="1.1" id="_レイヤー_2" xmlns="http://www.w3.org/2000/svg" xmlns:xlink="http://www.w3.org/1999/xlink" x="0px"
	 y="0px" viewBox="0 0 223.6 81" style="enable-background:new 0 0 223.6 81;" xml:space="preserve">
<style type="text/css">
	.st0{fill:url(#SVGID_1_);}
	.st1{fill:url(#SVGID_00000152979039749031531970000002101321313131332267_);}
	.st2{fill:#F2762E;}
	.st3{fill:#FFFFFF;}
	.st4{fill:#D92332;}
	.st5{fill:#111111;}
	.st6{fill:url(#SVGID_00000165201492442240416700000004504264071093920954_);}
	.st7{fill:url(#SVGID_00000146477162884034727390000005644945055502836117_);}
</style>
<g>
	<g>
		<path d="M31.6,24.1c0,0.3-0.1,0.5-0.1,1l0,4.3c0.9-0.2,1.5-0.5,2.1-0.9c0.7-0.5,1.2-1,1.6-1.8c0.3,0.5,0.5,0.6,0.9,1
			c-1.1,1.8-2.5,2.6-4.9,3c-0.2,0-0.3,0.1-0.5,0.1l-0.6-0.7c0.1-0.2,0.1-0.3,0.1-0.7l0-4.3c0,0,0-0.1,0-0.1c0-0.4,0-0.7,0-0.9H31.6
			L31.6,24.1z"/>
		<path d="M38.2,25.8c0.3,0.7,0.5,1.1,0.8,2l-1.1,0.3c-0.2-0.9-0.4-1.3-0.7-2L38.2,25.8L38.2,25.8z M42.8,25.9
			c0,0.1-0.1,0.2-0.1,0.5c-0.2,1.1-0.6,2-1,2.7c-0.6,0.8-1.3,1.4-2.5,2c-0.2-0.4-0.4-0.6-0.8-1c0.6-0.2,1-0.4,1.4-0.7
			c0.9-0.7,1.5-1.5,1.8-2.8c0.1-0.4,0.1-0.7,0.1-0.9L42.8,25.9L42.8,25.9z M39.9,25.5c0.4,0.8,0.6,1.2,0.8,1.9l-1,0.3
			c-0.2-0.6-0.4-1.3-0.7-2L39.9,25.5L39.9,25.5z"/>
		<path d="M50,31c-0.7-0.9-1.5-1.6-2.4-2.3c-0.7,0.9-1.8,1.6-3,2.2c-0.3-0.5-0.4-0.7-0.8-1.1c0.7-0.3,1.2-0.5,1.8-1
			c0.9-0.6,1.6-1.4,2.1-2.3c0.1-0.2,0.2-0.5,0.4-0.9l-2.3,0c-0.7,0-0.8,0-1.1,0.1l0-1.2c0.3,0,0.5,0,1,0h0.2l2.7,0
			c0.4,0,0.5,0,0.7-0.1l0.6,0.6c-0.1,0.1-0.2,0.2-0.3,0.5c-0.4,0.9-0.8,1.5-1.2,2.2c1,0.7,1.2,0.9,2.6,2.2L50,31L50,31z"/>
		<path d="M52.8,24.5c1,0.6,1.5,1,2.1,1.6l-0.8,1c-0.7-0.7-1.3-1.2-2.1-1.7C52,25.4,52.8,24.5,52.8,24.5z M52.1,29.4
			c0.7,0,1.7-0.3,2.4-0.6c1-0.4,1.7-1,2.4-2c0.4-0.5,0.6-1,0.8-1.6c0.4,0.4,0.5,0.6,1,0.9c-0.8,1.7-1.7,2.8-3.1,3.5
			c-0.6,0.3-1.6,0.7-2.3,0.8c-0.1,0-0.2,0.1-0.3,0.1c-0.2,0-0.2,0.1-0.4,0.1L52.1,29.4L52.1,29.4z"/>
	</g>
	<g>
		
			<linearGradient id="SVGID_1_" gradientUnits="userSpaceOnUse" x1="35.1267" y1="90.9446" x2="-11.7568" y2="9.7485" gradientTransform="matrix(1 0 0 -1 0 84)">
			<stop  offset="0" style="stop-color:#E1FF49"/>
			<stop  offset="0.35" style="stop-color:#AFF952"/>
			<stop  offset="0.5" style="stop-color:#87F559"/>
			<stop  offset="0.67" style="stop-color:#6CF598"/>
			<stop  offset="1" style="stop-color:#43F5F5"/>
		</linearGradient>
		<path class="st0" d="M11,81H0V8.5C0,3.8,3.8,0,8.5,0h38.2c0.8,0,1.5,0.7,1.5,1.5S47.6,3,46.8,3H8.5C5.5,3,3,5.5,3,8.5V78h8
			c0.8,0,1.5,0.7,1.5,1.5S11.8,81,11,81z"/>
		
			<linearGradient id="SVGID_00000176731240195981608090000013185921814463445670_" gradientUnits="userSpaceOnUse" x1="78.0738" y1="76.7574" x2="31.5544" y2="-3.8117" gradientTransform="matrix(1 0 0 -1 0 84)">
			<stop  offset="0" style="stop-color:#E1FF49"/>
			<stop  offset="0.35" style="stop-color:#AFF952"/>
			<stop  offset="0.5" style="stop-color:#87F559"/>
			<stop  offset="0.67" style="stop-color:#6CF598"/>
			<stop  offset="1" style="stop-color:#43F5F5"/>
		</linearGradient>
		<path style="fill:url(#SVGID_00000176731240195981608090000013185921814463445670_);" d="M57,81H20.2c-0.8,0-1.5-0.7-1.5-1.5
			s0.7-1.5,1.5-1.5H57c3,0,5.5-2.5,5.5-5.5V3h-5.9c-0.8,0-1.5-0.7-1.5-1.5S55.8,0,56.6,0h8.9v72.5C65.5,77.2,61.7,81,57,81z"/>
	</g>
	<rect x="29.9" y="8.5" class="st2" width="28.8" height="12.3"/>
	<g>
		<path class="st3" d="M36.1,14.6c0.1-0.8,0.1-1.2,0.2-1.7c-0.4,0.4-0.5,0.6-0.9,0.9c-0.3-0.5-0.4-0.7-0.7-1.1
			c0.8-0.6,1.4-1.2,1.8-2c0.1-0.3,0.2-0.5,0.3-0.7l1.3,0.2c-0.1,0.1-0.1,0.2-0.1,0.3c-0.1,0.2-0.1,0.3-0.2,0.5H42
			c0.5,0,0.9,0,1.2-0.1v1.3c-0.3,0-0.7-0.1-1.2-0.1h-5.1c-0.2,0.2-0.2,0.3-0.4,0.5c0.3,0,0.3,0,0.4,0h4.5c0.4,0,0.7,0,0.9,0
			c0,0.2,0,0.3-0.1,1.4c0,0.1,0,0.3,0,0.7h0.2c0.4,0,0.7,0,0.9,0v1.2c-0.3,0-0.5,0-0.9,0h-0.2c0,0.4,0,0.6-0.1,0.9h0.1
			c0.4,0,0.7,0,0.9,0v1.2c-0.2,0-0.5,0-0.9,0H42c-0.2,1.1-0.5,1.3-1.6,1.3c-0.2,0-0.4,0-0.8,0c0-0.5-0.1-0.7-0.2-1.1
			c0.4,0.1,0.7,0.1,0.9,0.1c0.3,0,0.4-0.1,0.5-0.3h-4c0,0.2-0.1,0.3-0.2,0.6l-1.3-0.1c0.3-0.9,0.5-1.7,0.7-2.6h-0.2
			c-0.5,0-0.7,0-1,0v-1.2c0.3,0,0.6,0,1.1,0L36.1,14.6L36.1,14.6z M38.3,16.7c0.1-0.3,0.1-0.6,0.1-0.9h-1.3
			c-0.1,0.4-0.1,0.6-0.2,0.9C37,16.7,38.3,16.7,38.3,16.7z M38.6,14.6c0-0.1,0-0.4,0.1-0.9h-1.2c0,0.4-0.1,0.6-0.1,0.9H38.6
			L38.6,14.6z M41,16.7c0-0.3,0.1-0.5,0.1-0.9h-1.4c0,0.3-0.1,0.7-0.1,0.9H41z M41.1,14.6c0-0.3,0-0.4,0-0.9h-1.3
			c0,0.4,0,0.7-0.1,0.9C39.8,14.6,41.1,14.6,41.1,14.6z"/>
		<path class="st3" d="M47.7,16.2c-0.2,1.2-0.6,2.1-1.4,3c-0.3-0.4-0.6-0.7-1.1-1.1c1.1-1.2,1.4-2.2,1.4-6.1c0-0.7,0-1.1-0.1-1.5
			c0.4,0,0.7,0,1.2,0h4.1c0.6,0,0.8,0,1.1,0c0,0.3,0,0.5,0,1.1v6.1c0,0.6-0.1,0.8-0.4,1C52.3,19,52,19,51.3,19c-0.3,0-0.6,0-1.1,0
			c-0.1-0.5-0.1-0.8-0.3-1.3c0.5,0.1,1.1,0.1,1.4,0.1c0.3,0,0.3,0,0.3-0.2v-1.5L47.7,16.2L47.7,16.2z M51.7,15v-1.1h-3.8
			c0,0.3,0,0.7-0.1,1.1H51.7L51.7,15z M51.7,12.8v-1h-3.8v1C47.9,12.8,51.7,12.8,51.7,12.8z"/>
	</g>
</g>
<g id="_レイヤー_4">
	<g>
		<g>
			<g>
				<g>
					<g>
						<path class="st4" d="M87.9,45.2c0-1.4,0.3-2.7,0.7-3.9s1.2-2.1,2-2.9c0.8-0.8,1.8-1.3,2.8-1.7s2.1-0.6,3.2-0.6
							c2.1,0,3.9,0.6,5.6,1.8c1.6,1.2,2.6,3,3.1,5.4c0,0.1,0,0.2,0,0.2c-0.1,0.1-0.1,0.1-0.2,0.1h-4.4c-0.1,0-0.2,0-0.2-0.2
							c-0.7-1.6-1.9-2.4-3.7-2.5c-2.6,0.1-3.9,1.6-3.9,4.5v2.6c0.9-0.3,1.9-0.5,2.8-0.7s1.8-0.2,2.7-0.2c2,0,3.8,0.7,5.2,2.1
							c1.4,1.5,2.1,3.7,2.1,6.7v2.8c0,3-0.9,5.2-2.6,6.8c-1.6,1.5-3.7,2.3-6.1,2.4c-2.4-0.1-4.4-0.9-6-2.4c-1.8-1.6-2.7-3.8-2.8-6.8
							C87.9,58.9,87.9,45.2,87.9,45.2z M92.7,58.7c0,3,1.3,4.5,3.9,4.5c2.6,0,3.9-1.5,4-4.5v-2.5c-0.1-2.9-1.4-4.4-4-4.5
							c-2.6,0.1-3.9,1.6-3.9,4.5V58.7z"/>
						<path class="st4" d="M96.6,68.6c-2.5-0.1-4.7-0.9-6.4-2.5c-1.9-1.7-2.9-4.1-2.9-7.1V45.2c0-1.5,0.3-2.9,0.8-4
							c0.5-1.2,1.2-2.2,2.1-3.1c0.9-0.8,1.8-1.4,2.9-1.8s2.2-0.7,3.4-0.7c2.2,0,4.1,0.7,5.9,1.9c1.7,1.3,2.8,3.2,3.2,5.7
							c0.1,0.2,0,0.5-0.2,0.7c-0.2,0.2-0.3,0.2-0.6,0.2h-4.4c-0.3,0-0.6-0.2-0.7-0.5c-0.6-1.4-1.6-2.1-3.3-2.1
							c-2.3,0.1-3.4,1.3-3.4,4v1.9c0.7-0.2,1.5-0.4,2.2-0.5c1-0.2,1.9-0.2,2.8-0.2c2.1,0,4,0.8,5.5,2.3c1.5,1.6,2.2,3.9,2.2,7.1v2.8
							c0,3.1-1,5.5-2.8,7.1C101.4,67.7,99.2,68.5,96.6,68.6L96.6,68.6z M88.4,45.3v13.7c0,2.8,0.9,4.9,2.6,6.4
							c1.5,1.4,3.4,2.2,5.7,2.3c2.3-0.1,4.2-0.8,5.8-2.3c1.6-1.5,2.4-3.6,2.5-6.4v-2.8c0-2.9-0.6-5-1.9-6.4c-1.3-1.3-2.9-2-4.8-2
							c-0.8,0-1.7,0.1-2.6,0.2c-0.9,0.2-1.8,0.4-2.8,0.6l-0.6,0.2v-3.2c0-4,2.4-5,4.4-5c2,0,3.4,0.9,4.1,2.6h4
							c-0.5-2.1-1.4-3.7-2.8-4.8c-1.6-1.2-3.3-1.7-5.2-1.7c-1.1,0-2.1,0.2-3,0.6c-1,0.4-1.8,0.9-2.6,1.7c-0.8,0.8-1.4,1.7-1.9,2.7
							C88.6,42.7,88.4,43.9,88.4,45.3L88.4,45.3z M104.8,43.4C104.8,43.4,104.8,43.5,104.8,43.4C104.8,43.5,104.8,43.5,104.8,43.4z
							 M96.6,63.6c-2,0-4.4-0.9-4.4-5v-2.5c0-4,2.4-4.9,4.4-5c2,0,4.3,0.9,4.5,5v2.5C101,62.8,98.6,63.6,96.6,63.6L96.6,63.6z
							 M93.2,58.7c0,2.7,1.1,4,3.4,4c2.3,0,3.4-1.3,3.5-4v-2.5c-0.1-2.7-1.2-3.9-3.5-4c-2.3,0.1-3.4,1.3-3.4,4V58.7z"/>
					</g>
					<g>
						<path class="st4" d="M107.9,73.5c-0.1,0.1-0.2,0.1-0.3,0c-0.1,0-0.1-0.1-0.1-0.2v-7.6c0-0.2,0.1-0.3,0.3-0.3h4.4
							c0.2,0,0.2,0.1,0.2,0.3v4.4c0,0.1,0,0.2-0.1,0.2L107.9,73.5L107.9,73.5z"/>
						<path class="st4" d="M107.7,74c-0.1,0-0.2,0-0.3-0.1c-0.3-0.1-0.4-0.4-0.4-0.7v-7.6c0-0.4,0.3-0.8,0.8-0.8h4.4
							c0.4,0,0.7,0.3,0.7,0.8V70c0,0.2-0.1,0.4-0.2,0.6l-4.5,3.3C108,74,107.9,74,107.7,74z M108,65.9v6.9l3.9-2.8v-4.1
							C111.9,65.9,108,65.9,108,65.9z"/>
					</g>
					<g>
						<path class="st4" d="M118.6,63.1c-0.2,0-0.3-0.1-0.3-0.3v-4.2l10.3-22.1c0,0,0.1-0.1,0.1-0.1c0,0,0.1,0,0.1,0h4.9
							c0.1,0,0.2,0,0.2,0.1s0.1,0.2,0,0.3l-10.3,21.7h7.4v-8.6c0-0.2,0.1-0.2,0.3-0.2h4.4c0.2,0,0.3,0.1,0.3,0.2v8.6h2.2
							c0.2,0,0.2,0.1,0.2,0.3v4.2c0,0.2-0.1,0.3-0.2,0.3h-2.2v4.3c0,0.2-0.1,0.3-0.3,0.3h-4.4c-0.2,0-0.3-0.1-0.3-0.3v-4.3
							L118.6,63.1L118.6,63.1z"/>
						<path class="st4" d="M135.9,68.2h-4.4c-0.4,0-0.8-0.3-0.8-0.8v-3.8h-12.1c-0.4,0-0.8-0.3-0.8-0.8l0.1-4.4l10.4-22.3
							c0,0,0.1-0.1,0.1-0.1c0.2-0.1,0.3-0.2,0.4-0.2h4.9c0.2,0,0.5,0.1,0.6,0.3c0.1,0.2,0.2,0.5,0.1,0.8l-9.9,21h6.1v-8.1
							c0-0.4,0.3-0.7,0.8-0.7h4.4c0.4,0,0.8,0.3,0.8,0.7V58h1.7c0.4,0,0.7,0.3,0.7,0.8v4.2c0,0.5-0.3,0.8-0.7,0.8h-1.7v3.8
							C136.7,67.9,136.3,68.2,135.9,68.2L135.9,68.2z M131.7,67.2h3.9v-4.6h2.5v-3.7h-2.5v-8.9h-3.9v8.9h-8.7l10.4-22.1h-4.4
							l-10.2,21.9v3.9h12.9V67.2z M118.6,62.6v0.5V62.6L118.6,62.6z"/>
					</g>
					<g>
						<path class="st4" d="M145.5,58.5c0-1.5,0.3-2.8,0.9-4c0.6-1.2,1.4-2.2,2.6-3c-0.9-0.8-1.6-1.7-2.1-2.7s-0.8-2.2-0.8-3.5
							c0-2.6,0.9-4.7,2.6-6.5c1.8-1.8,3.9-2.7,6.5-2.7s4.7,0.9,6.5,2.7c1.8,1.8,2.6,4,2.6,6.5c0,0.7-0.1,1.3-0.2,1.9
							c-0.1,0.6-0.4,1.1-0.6,1.6c-0.3,0.5-0.6,1-0.9,1.5c-0.4,0.5-0.8,0.9-1.2,1.3c2.3,1.7,3.5,4,3.5,7c0,1.4-0.2,2.7-0.7,3.8
							c-0.5,1.2-1.2,2.2-2.1,3.1c-0.9,0.8-2,1.5-3.1,1.9s-2.4,0.7-3.7,0.7c-2.6,0-4.9-0.9-6.8-2.6C146.4,63.6,145.5,61.3,145.5,58.5
							L145.5,58.5z M150.4,58.4c0,0.7,0.1,1.3,0.4,1.8s0.6,1,1,1.5c1,0.9,2.1,1.3,3.3,1.3s2.4-0.4,3.3-1.3c0.5-0.4,0.8-0.9,1.1-1.5
							c0.2-0.6,0.4-1.2,0.4-1.8c0-1.3-0.5-2.5-1.4-3.3c-0.9-0.9-2-1.3-3.3-1.3s-2.4,0.5-3.3,1.3C150.9,56,150.4,57.1,150.4,58.4z
							 M150.9,45.2c0,1.4,0.4,2.4,1.3,3.1c0.9,0.7,1.9,1.1,2.9,1.1s2-0.3,2.9-1.1c0.9-0.7,1.3-1.8,1.3-3.1s-0.4-2.4-1.3-3.1
							c-0.8-0.7-1.8-1.1-2.9-1.1s-2,0.4-2.9,1.1C151.4,42.8,150.9,43.8,150.9,45.2z"/>
						<path class="st4" d="M155.1,68.5c-2.8,0-5.2-0.9-7.1-2.8c-2-1.9-3-4.3-3-7.2c0-1.6,0.3-3,0.9-4.2c0.5-1.1,1.3-2,2.3-2.8
							c-0.7-0.8-1.3-1.6-1.8-2.5c-0.6-1.1-0.9-2.3-0.9-3.8c0-2.7,0.9-5,2.7-6.8c1.9-1.9,4.2-2.8,6.9-2.8s5,1,6.8,2.8
							c1.9,1.9,2.8,4.2,2.8,6.8c0,0.7-0.1,1.4-0.2,2s-0.4,1.2-0.6,1.7c-0.3,0.5-0.6,1-1,1.5c-0.2,0.3-0.5,0.6-0.8,0.9
							c2.1,1.7,3.2,4.1,3.2,7c0,1.5-0.3,2.8-0.8,4c-0.5,1.2-1.3,2.3-2.3,3.2c-1,0.9-2.1,1.6-3.3,2S156.5,68.5,155.1,68.5L155.1,68.5
							z M155.1,36.6c-2.4,0-4.4,0.8-6.1,2.5c-1.6,1.7-2.4,3.7-2.4,6.1c0,1.2,0.2,2.3,0.7,3.3c0.5,0.9,1.2,1.8,2,2.6l0.4,0.4
							l-0.5,0.4c-1.1,0.8-1.9,1.7-2.4,2.8s-0.8,2.3-0.8,3.7c0,2.7,0.9,4.8,2.7,6.5c1.8,1.7,3.9,2.5,6.4,2.5c1.2,0,2.4-0.2,3.5-0.7
							s2.1-1.1,3-1.8c0.9-0.8,1.6-1.8,2-2.9c0.5-1.1,0.7-2.3,0.7-3.6c0-2.8-1.1-5-3.3-6.5l-0.5-0.3l0.4-0.4c0.4-0.4,0.8-0.8,1.1-1.2
							c0.3-0.4,0.6-0.9,0.9-1.4c0.2-0.5,0.4-1,0.6-1.5c0.1-0.5,0.2-1.1,0.2-1.7c0-2.4-0.8-4.5-2.5-6.2
							C159.6,37.4,157.5,36.6,155.1,36.6L155.1,36.6z M155.1,63.5c-1.4,0-2.6-0.5-3.6-1.5c-0.5-0.5-0.9-1-1.1-1.6s-0.4-1.3-0.4-2
							c0-1.5,0.5-2.7,1.6-3.7c1.1-1,2.3-1.5,3.6-1.5s2.6,0.5,3.7,1.5c1.1,1,1.6,2.2,1.6,3.7c0,0.7-0.1,1.4-0.4,2
							c-0.3,0.6-0.7,1.2-1.2,1.7C157.7,63.1,156.5,63.5,155.1,63.5L155.1,63.5z M155.1,54.2c-1.1,0-2.1,0.4-3,1.2
							c-0.8,0.8-1.2,1.7-1.2,3c0,0.6,0.1,1.1,0.3,1.6c0.2,0.5,0.5,1,0.9,1.3c0.9,0.8,1.8,1.2,3,1.2s2.1-0.4,3-1.2
							c0.4-0.4,0.7-0.8,0.9-1.3c0.2-0.5,0.3-1,0.3-1.6c0-1.2-0.4-2.2-1.3-2.9C157.2,54.7,156.2,54.3,155.1,54.2L155.1,54.2z
							 M155.1,49.8c-1.2,0-2.2-0.4-3.2-1.2c-1-0.8-1.4-2-1.4-3.5s0.5-2.7,1.4-3.5c0.9-0.8,2-1.2,3.2-1.2s2.3,0.4,3.2,1.2
							c1,0.8,1.5,2,1.5,3.5s-0.5,2.7-1.5,3.5C157.4,49.5,156.3,49.8,155.1,49.8L155.1,49.8z M155.1,41.5c-1,0-1.8,0.3-2.6,1
							c-0.7,0.6-1.1,1.5-1.1,2.7s0.4,2.1,1.1,2.7c0.8,0.6,1.6,1,2.6,1s1.8-0.3,2.6-1c0.8-0.6,1.1-1.5,1.1-2.7s-0.4-2.1-1.1-2.7
							C156.9,41.8,156.1,41.5,155.1,41.5L155.1,41.5z"/>
					</g>
					<g>
						<path class="st4" d="M171.8,45.2c0-2.9,0.9-5.2,2.8-6.7c1.8-1.6,3.9-2.4,6.3-2.4c1.2,0,2.3,0.2,3.3,0.6s2,1,2.9,1.8
							c0.9,0.8,1.6,1.8,2.1,2.9s0.7,2.4,0.7,3.8v13.6c0,2.9-0.9,5.2-2.8,6.7c-1.8,1.6-3.9,2.4-6.3,2.4s-4.4-0.8-6.3-2.4
							c-1.8-1.6-2.8-3.8-2.8-6.7L171.8,45.2L171.8,45.2z M184.9,45.5c0-1.4-0.4-2.5-1.1-3.3c-0.7-0.8-1.7-1.2-3-1.2s-2.2,0.4-3,1.2
							s-1.1,1.9-1.1,3.3v13.1c0,1.4,0.4,2.5,1.1,3.3s1.7,1.2,3,1.2s2.2-0.4,3-1.2c0.7-0.8,1.1-1.9,1.1-3.3
							C184.9,58.6,184.9,45.5,184.9,45.5z"/>
						<path class="st4" d="M180.8,68.5c-2.5,0-4.7-0.8-6.6-2.5c-1.9-1.7-2.9-4.1-2.9-7.1V45.2c0-3.1,1-5.5,2.9-7.1
							c1.9-1.7,4.1-2.5,6.6-2.5c1.2,0,2.4,0.2,3.5,0.7c1.1,0.4,2.1,1.1,3.1,1.9c1,0.9,1.7,1.9,2.2,3.1c0.5,1.2,0.7,2.5,0.7,4v13.6
							c0,3-1,5.4-2.9,7.1C185.5,67.6,183.3,68.4,180.8,68.5L180.8,68.5z M180.8,36.6c-2.2,0-4.2,0.8-5.9,2.3
							c-1.7,1.5-2.6,3.6-2.6,6.4v13.6c0,2.8,0.9,4.9,2.6,6.4c1.7,1.5,3.7,2.3,5.9,2.3s4.2-0.8,5.9-2.3c1.8-1.5,2.6-3.6,2.6-6.4V45.2
							c0-1.4-0.2-2.6-0.7-3.7c-0.4-1-1.1-2-1.9-2.7c-0.9-0.7-1.8-1.3-2.8-1.7C183,36.8,181.9,36.6,180.8,36.6L180.8,36.6z
							 M180.8,63.5c-1.4,0-2.5-0.5-3.3-1.3c-0.8-0.9-1.2-2.1-1.2-3.6V45.5c0-1.5,0.4-2.7,1.2-3.6c0.8-0.9,1.9-1.3,3.3-1.3
							s2.5,0.5,3.3,1.3c0.8,0.9,1.2,2.1,1.2,3.6v13.1c0,1.5-0.4,2.8-1.2,3.6C183.3,63.1,182.2,63.5,180.8,63.5L180.8,63.5z
							 M180.8,41.5c-1.1,0-2,0.3-2.6,1s-1,1.7-1,2.9v13.1c0,1.3,0.3,2.3,1,3s1.5,1,2.6,1s2-0.3,2.6-1c0.6-0.7,1-1.7,1-3V45.5
							c0-1.3-0.3-2.2-1-2.9S181.9,41.5,180.8,41.5L180.8,41.5z"/>
					</g>
				</g>
				<g>
					<path class="st5" d="M90.1,21.7c-0.3,2.1-1,3.4-2.2,4.8c-0.4-0.5-0.7-0.8-1.2-1.1c0.9-0.9,1.3-1.6,1.7-2.8
						c0.4-1.4,0.6-3.1,0.6-6.9c0-1.3,0-1.8-0.1-2.4c0.6,0.1,1,0.1,1.7,0.1h6c0.8,0,1.2,0,1.7-0.1c0,0.4-0.1,0.8-0.1,1.6v9.8
						c0,0.7-0.2,1-0.5,1.3c-0.3,0.2-0.7,0.2-1.5,0.2c-0.5,0-1,0-1.7-0.1c-0.1-0.6-0.2-0.9-0.4-1.4c0.8,0.1,1.5,0.2,2.2,0.2
						c0.4,0,0.6-0.1,0.6-0.4v-2.9L90.1,21.7L90.1,21.7z M96.8,20.4v-2.3h-6.4c0,0.5,0,1.4-0.1,2.3H96.8z M96.8,16.9v-2.1h-6.4v2.1
						H96.8z"/>
					<path class="st5" d="M108.5,15.3h-4.1v1.4h-1.3c0-0.3,0.1-0.6,0.1-0.9v-0.7c0-0.3,0-0.6-0.1-1c0.2,0,0.6,0,1.2,0h1.5v-0.4
						c0-0.4,0-0.6-0.1-1h1.5c-0.1,0.3-0.1,0.5-0.1,1v0.4h1.3c0.6,0,0.9,0,1.1,0v-1c0.4,0.1,0.7,0.1,1.5,0.1h4c0.8,0,1.2,0,1.5-0.1
						v1.4c-0.5-0.1-0.8-0.1-1.5-0.1h-1.2c-0.2,0.5-0.3,0.8-0.4,1.3h1.2c0.8,0,1.1,0,1.4-0.1c0,0.5,0,0.8,0,1.4v5.1c0,0.6,0,1,0,1.5
						c-0.5,0-0.9,0-1.3,0h-3.5c-0.4,0-0.5,0-1.2,0c0-0.4,0-1,0-1.4v-5.2c0-0.6,0-0.9-0.1-1.4c0.4,0,0.6,0,1.3,0h0.8
						c0.3-0.7,0.4-1,0.4-1.3h-1.5c-0.6,0-1.1,0-1.5,0.1c0,0.2,0,0.3,0,0.6v0.4c0,0.5,0,0.7,0,0.9h-1.1l0.6,0.6c0,0,0,0.1-0.1,0.1
						c-0.1,0.1-0.1,0.1-0.2,0.2c-0.6,0.9-1,1.5-1.6,2.1c0.8,0.5,1.3,0.7,2.5,1.1c-0.2,0.4-0.3,0.6-0.5,1.1c-0.3-0.1-0.3-0.1-0.5-0.2
						c0,0.3-0.1,0.6-0.1,1.2v2.7c0.5-0.2,0.7-0.3,1.1-0.5c0.7-0.4,1.1-0.8,1.6-1.4l1,0.8c-0.9,1-1.7,1.6-2.8,2.1
						c-0.4-0.5-0.5-0.7-0.8-1c0,0.2,0,0.3,0,0.6h-1.2v-0.6h-2.3v0.8H104c0-0.3,0.1-0.8,0.1-1.4v-2.3c0-0.3,0-0.4,0-0.7
						c-0.3,0.1-0.4,0.2-0.8,0.4c-0.2-0.5-0.4-0.8-0.7-1.1c1.2-0.4,2.1-0.9,3.1-1.6c-0.5-0.4-0.7-0.7-1-1.1c-0.4,0.5-0.7,0.7-1.1,1
						c-0.2-0.4-0.5-0.7-0.7-0.9c0.9-0.6,1.6-1.3,2.1-2.1c0.3-0.4,0.4-0.7,0.5-1.1l1.2,0.3c0,0.1-0.1,0.1-0.1,0.2
						c-0.1,0.2-0.2,0.3-0.3,0.5h1.3c0.5,0,0.8,0,1-0.1L108.5,15.3L108.5,15.3z M107.9,21.6c0.4,0,0.7,0,0.9,0
						c-0.8-0.4-1.6-0.8-2.2-1.2c-0.6,0.5-1,0.8-1.8,1.3H107.9z M105.3,24.5h2.3v-1.8h-2.3V24.5z M105.6,17.5
						c-0.1,0.1-0.1,0.2-0.2,0.2c0.4,0.5,0.7,0.8,1.1,1.2c0.4-0.4,0.6-0.7,1.1-1.4H105.6L105.6,17.5z M111.3,17.9h3.4v-1.1h-3.4V17.9
						z M111.3,20.1h3.4V19h-3.4V20.1z M111.3,22.4h3.4v-1.2h-3.4V22.4z M114.2,23.6c0.9,0.9,1.4,1.2,2.9,1.8
						c-0.3,0.4-0.6,0.7-0.8,1.2c-1.3-0.6-2-1.2-3-2.2C113.2,24.4,114.2,23.6,114.2,23.6z"/>
				</g>
				<g>
					<path class="st5" d="M202.6,41.7c-0.4,0.1-0.5,0.1-1,0.2c-0.1-0.4-0.2-0.7-0.5-1.2c1.2-0.1,2.1-0.3,2.9-0.7
						c0.2-0.1,0.3-0.2,0.5-0.2l0.8,1.2c-0.1,0-0.2,0.1-0.3,0.1c-0.3,0.1-0.6,0.2-1,0.4v1.3h0.3c0.4,0,0.6,0,0.8,0V44
						c-0.2,0-0.4,0-0.8,0H204c0.4,0.8,0.6,1.2,1.2,1.7c-0.3,0.6-0.4,0.7-0.6,1.3c-0.3-0.4-0.5-0.6-0.8-1.2c0,0.2,0,0.8,0,1.1v1.9
						c0,0.7,0,1,0.1,1.4h-1.5c0-0.4,0.1-0.8,0.1-1.4v-1.5c0-0.2,0-0.9,0.1-1.2c-0.3,0.9-0.6,1.5-1.2,2.2c-0.2-0.6-0.3-0.9-0.6-1.4
						c0.7-0.8,1.3-1.9,1.6-2.8H202c-0.4,0-0.6,0-0.9,0.1v-1.4c0.3,0,0.4,0,0.9,0h0.6L202.6,41.7L202.6,41.7z M206.4,42
						c-0.3-0.8-0.5-1.2-0.9-1.7l1.3-0.5c0.4,0.7,0.7,1.1,0.9,1.8l-1.2,0.5h1.7c0.4-0.8,0.6-1.4,0.9-2.3l1.4,0.4
						c-0.4,0.9-0.7,1.5-0.9,1.8h0.2c0.4,0,0.6,0,0.9,0c0,0.3,0,0.5,0,0.8v2.1c0,0.3,0,0.5,0,0.8c-0.3,0-0.6,0-0.9,0h-0.4v2.8
						c0,0.2,0,0.2,0.2,0.2c0.1,0,0.1,0,0.1,0h0c0.4,0,0.4-0.1,0.4-1.5c0.4,0.3,0.7,0.4,1.1,0.5c-0.1,1.2-0.1,1.6-0.3,1.9
						c-0.2,0.3-0.6,0.4-1.6,0.4c-1,0-1.3-0.2-1.3-1v-3.3h-0.6h0.1c-0.1,1.4-0.3,2.1-0.7,2.9c-0.4,0.7-0.9,1.1-1.6,1.6
						c-0.3-0.5-0.5-0.7-0.9-1.2c0.7-0.3,1.1-0.7,1.4-1.2c0.3-0.5,0.5-1.3,0.5-2v-0.1h-0.1c-0.4,0-0.6,0-0.9,0c0-0.3,0-0.5,0-0.8
						v-2.1c0-0.3,0-0.5,0-0.8c0.3,0,0.5,0,0.9,0L206.4,42L206.4,42z M206.7,44.4h2.7v-1.1h-2.7V44.4z"/>
					<path class="st5" d="M213.2,43.9c0.3,0,0.5,0,0.9,0h1c0.3,0,0.6,0,0.8,0c0,0.3,0,0.6,0,1.2v2.4c0.1,0.3,0.2,0.4,0.5,0.6
						c0.5,0.3,1.1,0.4,2.8,0.4s3.2-0.1,4.4-0.2c-0.2,0.6-0.3,0.9-0.4,1.5c-0.8,0-2.9,0.1-3.7,0.1c-2.8,0-3.5-0.2-4.3-1.2
						c-0.3,0.3-0.6,0.5-1.1,1c-0.1,0.1-0.2,0.2-0.3,0.2c-0.1,0.1-0.1,0.1-0.1,0.1l-0.6-1.5c0.4-0.1,1.1-0.6,1.6-1v-2.2h-0.6
						c-0.3,0-0.4,0-0.7,0.1L213.2,43.9L213.2,43.9z M214.3,39.9c0.9,0.7,1.4,1.3,2,2l-1.1,1.1c-0.7-0.9-1.1-1.3-2-2.1L214.3,39.9z
						 M217.8,41.5c-0.4,0-0.6,0-0.9,0v-1.4c0.2,0,0.5,0.1,0.9,0.1h1.8c0.4,0,0.6,0,0.8,0c0,0.2,0,0.5,0,0.7c0,0.6,0.1,1.6,0.4,2.2
						c0.3,0.9,0.7,1.7,1.2,2.3c0.4,0.5,0.8,0.8,1.4,1.3c-0.4,0.5-0.6,0.8-0.8,1.4c-0.8-0.6-1.2-1-1.7-1.7c-0.5-0.7-0.9-1.3-1.2-2.4
						c-0.3,1.1-0.6,1.8-1.2,2.5c-0.4,0.5-0.8,0.9-1.5,1.5c-0.3-0.5-0.5-0.7-1-1.2c1-0.7,1.6-1.5,2.1-2.4c0.3-0.6,0.5-1.3,0.6-1.9
						c0-0.2,0.1-0.3,0.1-0.9L217.8,41.5L217.8,41.5z"/>
				</g>
				<path d="M204.1,67.9c0,1,0,1.5,0.1,1.9h-2.3c0.1-0.6,0.1-1.1,0.1-2V57.2c0-0.7,0-1.1-0.1-1.6c0.6,0,1,0.1,1.9,0.1h9.7
					c1,0,1.4,0,1.9-0.1c-0.1,0.5-0.1,0.9-0.1,1.9v10.3c0,0.8-0.3,1.3-0.8,1.6c-0.3,0.2-0.9,0.2-1.9,0.2c-0.5,0-1.3,0-2-0.1
					c-0.1-0.8-0.3-1.3-0.6-2c0.9,0.1,1.9,0.2,2.3,0.2c0.7,0,0.8-0.1,0.8-0.4v-3.5h-9.1L204.1,67.9L204.1,67.9z M207.5,57.7h-3.4v4.2
					h3.4V57.7z M213.3,61.9v-4.2h-3.6v4.2H213.3z"/>
			</g>
			<path d="M21.9,20.9c-0.4,0.4-0.9,1-1.5,2c-1.5,2.5-2.2,4.7-2.6,7.7h-2.2c0.5-2.4,0.9-3.7,1.7-5.5c0.6-1.4,1.2-2.4,2.5-4.1h-4.4
				c-0.8,0-1.3,0-1.9,0.1v-1.9c0.6,0.1,1.1,0.1,1.9,0.1H20c1.1,0,1.4,0,1.9-0.1L21.9,20.9L21.9,20.9z"/>
			<g>
				<path d="M15.5,53c0.1,0.7,0.3,1,0.7,1.4c0.5,0.5,1.3,0.8,2.2,0.8c1.7,0,2.7-0.8,2.7-2.2s-1-2.2-2.9-2.2c-1,0-1.6,0-2.3,0.1v-2.8
					c0.6,0.1,1.2,0.1,1.8,0.1c0.9,0,1.6-0.2,2.1-0.4c0.6-0.4,0.9-0.9,0.9-1.6c0-1.2-0.8-1.8-2.4-1.8c-0.9,0-1.6,0.3-2,0.8
					c-0.2,0.3-0.3,0.5-0.5,1l-3.4-0.5c0.4-1.2,0.7-1.7,1.3-2.4c1.1-1.1,2.6-1.6,4.7-1.6s3.5,0.5,4.5,1.5c0.7,0.7,1.1,1.6,1.1,2.6
					s-0.3,1.9-0.8,2.5c-0.5,0.6-1,0.8-2.3,1.2c1.3,0.2,2,0.6,2.7,1.3c0.6,0.7,0.9,1.5,0.9,2.6s-0.4,2.1-1.2,2.8
					c-1.1,1.1-2.8,1.6-5,1.6c-2.3,0-4.1-0.7-5.1-1.9c-0.5-0.6-0.8-1.2-1.1-2.3L15.5,53L15.5,53z"/>
				<path d="M30.4,47.3c0,0.2-0.1,0.6-0.1,0.8c0.9-0.7,1.9-1,3.2-1c1.5,0,2.9,0.5,3.9,1.5c0.9,0.9,1.4,2.1,1.4,3.7
					c0,3.5-2.3,5.6-6,5.6c-2,0-3.6-0.6-4.6-1.7c-0.6-0.7-0.9-1.2-1.3-2.4l3.2-0.6c0.2,0.5,0.3,0.8,0.5,1.1c0.5,0.6,1.2,0.9,2.2,0.9
					c1.8,0,2.9-1.1,2.9-2.8s-1.1-2.8-2.8-2.8c-0.9,0-1.6,0.3-2.1,0.7c-0.2,0.2-0.4,0.4-0.5,0.8l-3-0.3c0.1-0.9,0.2-1.2,0.3-2
					l0.4-4.9c0.1-0.7,0.1-0.8,0.1-2C28.6,42,29,42,30.1,42h5c1.5,0,2,0,2.9-0.1v2.8c-0.9-0.1-1.7-0.2-2.8-0.2h-4.4L30.4,47.3
					L30.4,47.3z"/>
				<path d="M42.4,56.1c-0.6-0.6-1-1.3-1.3-2c-0.5-1.3-0.7-2.8-0.7-4.3c0-2,0.5-4.1,1.2-5.3c1.1-1.8,2.9-2.8,5.2-2.8
					c1.7,0,3.2,0.6,4.3,1.7c0.6,0.6,1,1.3,1.3,2c0.5,1.3,0.7,2.8,0.7,4.4c0,2-0.5,4.1-1.2,5.3c-1.1,1.8-2.9,2.8-5.2,2.8
					C45,57.8,43.5,57.2,42.4,56.1z M43.6,49.6c0,3.6,1.1,5.5,3.1,5.5c0.8,0,1.4-0.3,1.9-0.8c0.8-0.8,1.2-2.5,1.2-4.5
					c0-3.6-1.1-5.4-3.1-5.4S43.6,46.3,43.6,49.6L43.6,49.6z"/>
			</g>
			<g>
				<path d="M15.3,67.8c0,0.1,0,0.2-0.2,0.7c-0.1,0.6-0.4,1.3-0.6,1.9c-0.3,0.6-0.5,1-0.9,1.6c-0.6-0.4-0.8-0.5-1.4-0.7
					c0.7-0.9,1.1-1.6,1.4-2.7c0.1-0.5,0.2-0.8,0.2-1.1L15.3,67.8L15.3,67.8z M21.2,66.9c-0.4-0.1-0.6-0.1-1.4-0.1h-2.1v4.6
					c0,0.5,0,1,0,1.4h-1.6c0-0.4,0.1-0.8,0.1-1.4v-4.6h-2c-0.8,0-1,0-1.4,0.1v-1.4c0.5,0.1,0.6,0.1,1.4,0.1h2v-0.4
					c0-0.5,0-0.8-0.1-1.2h1.6c0,0.3-0.1,0.7-0.1,1.2v0.4h2.3c-0.3-0.2-0.4-0.5-0.4-0.9c0-0.6,0.5-1.1,1.1-1.1s1.1,0.5,1.1,1.1
					c0,0.4-0.2,0.7-0.5,0.9C21.2,65.5,21.2,66.9,21.2,66.9z M19.9,67.4c0.1,0.3,0.1,0.6,0.3,1.1c0.4,1.2,0.8,1.9,1.4,2.7
					c-0.7,0.4-0.9,0.5-1.4,0.8c-0.8-1.3-1.1-2.2-1.6-3.9c0-0.1,0-0.2-0.1-0.3C18.4,67.8,19.8,67.4,19.9,67.4z M20.1,64.6
					c0,0.3,0.2,0.5,0.5,0.5s0.5-0.2,0.5-0.5s-0.2-0.5-0.5-0.5S20.1,64.3,20.1,64.6z"/>
				<path d="M31.9,64.9c-0.2,0.2-0.2,0.2-0.4,0.4c-0.8,0.8-1.5,1.4-2.3,2v3.9c0,0.8,0,1.1,0,1.5h-1.6c0-0.4,0.1-0.6,0.1-1.4v-3
					c-1,0.6-1.6,0.9-3.4,1.6c-0.3-0.6-0.4-0.8-0.8-1.4c2-0.6,3.7-1.4,5.3-2.6c0.9-0.7,1.5-1.3,1.9-1.8L31.9,64.9L31.9,64.9z"/>
				<path d="M36,64.6c1.3,0.8,1.9,1.2,2.7,1.9l-1,1.3c-0.8-0.9-1.7-1.5-2.6-2.1L36,64.6z M35,70.8c0.9-0.1,2.1-0.3,3-0.7
					c1.3-0.5,2.2-1.3,2.9-2.4c0.5-0.7,0.7-1.2,1-2c0.5,0.6,0.7,0.7,1.3,1.2c-1,2.1-2.2,3.5-3.9,4.4c-0.8,0.4-2,0.8-2.9,1
					c-0.2,0-0.3,0.1-0.4,0.1c-0.2,0.1-0.3,0.1-0.5,0.1L35,70.8z"/>
				<path d="M47.5,72.7c0-0.4,0.1-0.7,0.1-1.4v-5.9c0-0.7,0-1-0.1-1.3h1.6c0,0.4-0.1,0.6-0.1,1.3v1.5c1.5,0.5,2.9,1.2,4.5,2.1
					l-0.8,1.4c-0.9-0.6-2.2-1.3-3.3-1.8c-0.2-0.1-0.2-0.1-0.4-0.2v2.9c0,0.6,0,1,0.1,1.4C49.1,72.6,47.5,72.6,47.5,72.7z"/>
			</g>
		</g>
		<g>
			
				<linearGradient id="SVGID_00000027593824508213723210000004052621578417343675_" gradientUnits="userSpaceOnUse" x1="35.1267" y1="90.9446" x2="-11.7568" y2="9.7485" gradientTransform="matrix(1 0 0 -1 0 84)">
				<stop  offset="0" style="stop-color:#E1FF49"/>
				<stop  offset="0.35" style="stop-color:#AFF952"/>
				<stop  offset="0.5" style="stop-color:#87F559"/>
				<stop  offset="0.67" style="stop-color:#6CF598"/>
				<stop  offset="1" style="stop-color:#43F5F5"/>
			</linearGradient>
			<path style="fill:url(#SVGID_00000027593824508213723210000004052621578417343675_);" d="M11,81H0V8.5C0,3.8,3.8,0,8.5,0h38.2
				c0.8,0,1.5,0.7,1.5,1.5S47.6,3,46.8,3H8.5C5.5,3,3,5.5,3,8.5V78h8c0.8,0,1.5,0.7,1.5,1.5S11.8,81,11,81z"/>
			
				<linearGradient id="SVGID_00000124138317463935458160000011104292860354656691_" gradientUnits="userSpaceOnUse" x1="78.0738" y1="76.7574" x2="31.5544" y2="-3.8117" gradientTransform="matrix(1 0 0 -1 0 84)">
				<stop  offset="0" style="stop-color:#E1FF49"/>
				<stop  offset="0.35" style="stop-color:#AFF952"/>
				<stop  offset="0.5" style="stop-color:#87F559"/>
				<stop  offset="0.67" style="stop-color:#6CF598"/>
				<stop  offset="1" style="stop-color:#43F5F5"/>
			</linearGradient>
			<path style="fill:url(#SVGID_00000124138317463935458160000011104292860354656691_);" d="M57,81H20.2c-0.8,0-1.5-0.7-1.5-1.5
				s0.7-1.5,1.5-1.5H57c3,0,5.5-2.5,5.5-5.5V3h-5.9c-0.8,0-1.5-0.7-1.5-1.5S55.8,0,56.6,0h8.9v72.5C65.5,77.2,61.7,81,57,81z"/>
		</g>
	</g>
</g>
</svg>
