<?xml version="1.0" encoding="UTF-8"?>
<svg id="_レイヤー_2" data-name="レイヤー 2" xmlns="http://www.w3.org/2000/svg" viewBox="0 0 388.11 23.7">
  <defs>
    <style>
      .cls-1 {
        fill: #161616;
      }
    </style>
  </defs>
  <g id="_レイヤー_4" data-name="レイヤー 4">
    <g>
      <path class="cls-1" d="m3.2,21.75c-.12,0-.18-.06-.18-.18V3.91c-.46.34-.91.68-1.37,1.02-.46.34-.91.68-1.37,1-.07.05-.13.06-.19.02-.06-.03-.09-.09-.09-.17v-3.23s0-.04.02-.07c.01-.03.03-.05.05-.07L3.14.19h3.11c.12,0,.18.06.18.18v21.2c0,.12-.06.18-.18.18h-3.05Z"/>
      <path class="cls-1" d="m22.36,19.47c2.2-.27,3.93-.96,5.19-2.07,1.27-1.1,2.31-2.81,3.13-5.12l2.77,1.1c-1.19,3.27-2.86,5.61-5,7-2.14,1.39-5.09,2.08-8.85,2.08h-.48V7.43h3.24v12.04Z"/>
      <path class="cls-1" d="m39.54,11.68l2.44-.58c.5,1.74.94,3.39,1.34,4.97l-2.51.6c-.38-1.67-.81-3.34-1.27-4.99Zm12.52-.78c-.02,2.67-.37,4.8-1.03,6.41-.66,1.61-1.69,2.81-3.07,3.62-1.38.81-3.26,1.32-5.63,1.54l-.52-2.44c1.97-.24,3.49-.66,4.56-1.27,1.07-.61,1.84-1.54,2.33-2.78.48-1.25.73-2.99.74-5.22l2.62.13Zm-8.56.32l2.51-.58c.52,1.86.97,3.55,1.34,5.08l-2.51.58c-.5-1.97-.94-3.67-1.34-5.08Z"/>
      <path class="cls-1" d="m60.3,10.62v-2.79h12.09v2.79c-.83,1.79-1.96,3.5-3.39,5.14,1.65,1.46,3.32,3.01,5.02,4.65l-2.07,2.05c-1.89-1.84-3.54-3.39-4.97-4.65-2.1,1.9-4.43,3.43-7.01,4.6l-1.34-2.46c4.71-2.28,8.17-5.39,10.36-9.32h-8.71Z"/>
      <path class="cls-1" d="m79.73,10.19l1.43-2.7c1.81.82,3.75,1.78,5.81,2.88l-1.51,2.7c-2.07-1.1-3.98-2.07-5.73-2.88Zm12.34-.87l2.85.63c-.66,3.75-2.16,6.61-4.49,8.61-2.34,1.99-5.62,3.17-9.83,3.54l-.47-2.92c3.57-.36,6.29-1.31,8.16-2.86,1.87-1.54,3.13-3.88,3.79-7.01Z"/>
      <path class="cls-1" d="m106.65,21.71c-.12,0-.18-.06-.18-.18v-2.9l8.33-10.42h0c.31-.37.51-.73.59-1.05.09-.32.13-.64.13-.94,0-.68-.25-1.33-.74-1.93-.5-.59-1.17-.89-2.01-.89-.77,0-1.44.26-2.01.79-.28.26-.49.56-.63.91-.14.35-.24.75-.27,1.2,0,.05-.02.09-.05.12-.03.03-.08.04-.13.04h-3.03c-.12,0-.18-.06-.18-.18.02-1.76.62-3.25,1.8-4.45,1.2-1.22,2.63-1.83,4.28-1.83,1.79,0,3.31.61,4.53,1.84h-.01c1.22,1.22,1.83,2.69,1.83,4.4,0,.74-.11,1.43-.33,2.07-.22.63-.54,1.22-.98,1.77h0c-.56.7-1.12,1.4-1.67,2.08-.54.68-1.09,1.37-1.64,2.04-.54.68-1.09,1.36-1.64,2.04-.55.68-1.1,1.38-1.67,2.09h7.73c.12,0,.18.06.18.18v3.02c0,.12-.06.18-.18.18h-12.07Z"/>
      <path class="cls-1" d="m124.84,11.98c-.11,0-.16-.05-.16-.16V.37c0-.12.05-.18.16-.18h11.27c.12,0,.18.06.18.18v3.03c0,.12-.06.18-.18.18h-8.24v4.27c.96-.67,2.03-1.01,3.21-1.01.42,0,.82.04,1.2.13.38.08.74.21,1.08.36.33.16.63.33.91.53.28.19.52.39.72.6.29.32.54.66.76,1.02.22.36.4.73.54,1.11.29.77.43,2.04.43,3.79,0,.71-.03,1.34-.08,1.87-.05.54-.14.99-.26,1.35h.01c-.21.67-.55,1.32-1.03,1.95-.47.57-1.09,1.11-1.87,1.59-.82.5-1.77.74-2.85.74-1.4,0-2.75-.43-4.04-1.29-1.33-.89-2.1-2.34-2.32-4.36-.01-.05,0-.09.04-.13.04-.04.08-.06.13-.06h3.03c.1,0,.16.04.18.13.35,1.56,1.3,2.33,2.85,2.33,1.41,0,2.22-.47,2.42-1.4.26-1.03.39-2.02.39-2.97,0-.57-.05-1.09-.15-1.57-.1-.48-.24-.91-.43-1.29-.36-.7-1.13-1.06-2.32-1.06-1.09,0-1.95.56-2.57,1.67-.04.06-.09.09-.15.09h-2.87Z"/>
      <path class="cls-1" d="m146.76,21.43c1.02-.52,1.84-1.11,2.46-1.77.61-.64,1.07-1.46,1.4-2.46.25-.74.42-1.62.5-2.64h-2.34c-.3.31-.6.61-.91.91l-2.08-2.08c2.06-1.9,3.73-4.16,5.02-6.79l2.7.89c-.71,1.64-1.58,3.16-2.62,4.58h8c-1.04-1.41-1.92-2.94-2.62-4.58l2.7-.89c1.29,2.63,2.96,4.89,5.01,6.79l-2.07,2.08c-.37-.36-.74-.73-1.1-1.1v.74c0,.74-.01,1.59-.04,2.53-.01.69-.05,1.34-.11,1.94-.06.66-.12,1.14-.19,1.45-.07.4-.19.74-.33,1.02-.16.33-.32.56-.47.69-.17.16-.39.29-.65.37-.31.11-.58.17-.8.19-.37.02-.72.04-1.04.04-.6,0-1.66-.06-3.18-.19l-.07-2.57c1.46.1,2.4.15,2.81.15.3,0,.51-.09.65-.26.15-.19.26-.59.33-1.21.07-.61.11-1.53.11-2.75v-1.95h-3.8c-.11,1.39-.33,2.59-.67,3.59-.41,1.27-.98,2.31-1.71,3.14-.77.88-1.78,1.68-3.03,2.4l-1.84-2.27Z"/>
      <path class="cls-1" d="m176.77,19.73c2.64-.37,3.96-1.97,3.96-4.8,0-1.15-.33-2.14-1-2.95-.66-.81-1.54-1.32-2.61-1.54-.32,2.32-.69,4.26-1.09,5.81-.4,1.56-.86,2.75-1.36,3.57-.5.83-1.01,1.4-1.54,1.72-.52.32-1.12.48-1.8.48-1.05,0-2.03-.6-2.91-1.79-.89-1.19-1.33-2.64-1.33-4.35,0-2.44.82-4.43,2.47-5.96,1.65-1.53,3.82-2.3,6.51-2.3,2.17,0,3.96.69,5.38,2.06,1.41,1.37,2.12,3.12,2.12,5.24s-.56,3.97-1.67,5.28c-1.12,1.32-2.62,2.05-4.52,2.21l-.61-2.7Zm-2.64-9.17c-1.31.32-2.34.96-3.08,1.9-.74.94-1.11,2.09-1.11,3.44,0,.83.16,1.58.49,2.26.33.68.63,1.01.9,1.01.14,0,.29-.09.46-.26.17-.17.35-.47.55-.89.2-.42.39-.95.59-1.58.19-.63.39-1.45.6-2.47.21-1.01.41-2.15.6-3.41Z"/>
      <path class="cls-1" d="m188.23,10.76v-2.77h15.18v2.77c-.57,1.63-1.41,3.06-2.52,4.31-1.11,1.25-2.56,2.37-4.36,3.38.41.6,1.04,1.51,1.88,2.75l-2.7,1.66c-1.76-2.63-3.59-5.22-5.49-7.78l2.61-1.75c.2.26.51.68.95,1.27.43.58.76,1.02.97,1.32,1.24-.67,2.33-1.46,3.27-2.37.94-.91,1.64-1.84,2.08-2.78h-11.87Z"/>
      <path class="cls-1" d="m209.18,10.19l1.43-2.7c1.81.82,3.75,1.78,5.81,2.88l-1.51,2.7c-2.07-1.1-3.98-2.07-5.73-2.88Zm12.34-.87l2.85.63c-.66,3.75-2.16,6.61-4.49,8.61-2.34,1.99-5.62,3.17-9.83,3.54l-.47-2.92c3.57-.36,6.29-1.31,8.16-2.86,1.87-1.54,3.13-3.88,3.79-7.01Z"/>
      <path class="cls-1" d="m228.85,9.02l2.81-.63c.58,2.02,1.14,4.09,1.67,6.21l-2.88.63c-.5-2.11-1.03-4.18-1.6-6.21Zm15.57-.99c-.02,3.32-.45,5.99-1.27,7.98-.83,2-2.1,3.5-3.82,4.5-1.72,1-4.06,1.66-7.02,1.95l-.56-2.77c1.89-.22,3.42-.56,4.6-1.01,1.18-.45,2.16-1.14,2.93-2.07.78-.92,1.32-2.07,1.64-3.45.32-1.38.49-3.14.51-5.28l3,.15Zm-10.61.39l2.88-.63c.53,1.94,1.09,4.06,1.67,6.36l-2.88.63c-.56-2.25-1.12-4.37-1.67-6.36Z"/>
      <path class="cls-1" d="m249.45,16.44v-3.01h15.52v3.01h-15.52Z"/>
      <path class="cls-1" d="m270.1,10.76v-2.77h15.18v2.77c-.57,1.63-1.41,3.06-2.52,4.31-1.11,1.25-2.56,2.37-4.36,3.38.41.6,1.04,1.51,1.88,2.75l-2.7,1.66c-1.76-2.63-3.59-5.22-5.49-7.78l2.61-1.75c.2.26.51.68.95,1.27.43.58.76,1.02.97,1.32,1.24-.67,2.33-1.46,3.27-2.37.94-.91,1.64-1.84,2.08-2.78h-11.87Z"/>
      <path class="cls-1" d="m291.05,10.19l1.43-2.7c1.81.82,3.75,1.78,5.81,2.88l-1.51,2.7c-2.07-1.1-3.98-2.07-5.73-2.88Zm12.34-.87l2.85.63c-.66,3.75-2.16,6.61-4.49,8.61-2.34,1.99-5.62,3.17-9.83,3.54l-.47-2.92c3.57-.36,6.29-1.31,8.16-2.86,1.87-1.54,3.13-3.88,3.79-7.01Z"/>
      <path class="cls-1" d="m315.56,19.47c2.2-.27,3.93-.96,5.19-2.07,1.27-1.1,2.31-2.81,3.13-5.12l2.77,1.1c-1.19,3.27-2.86,5.61-5,7-2.14,1.39-5.09,2.08-8.85,2.08h-.48V7.43h3.24v12.04Z"/>
      <path class="cls-1" d="m332.73,11.68l2.44-.58c.5,1.74.94,3.39,1.34,4.97l-2.51.6c-.38-1.67-.81-3.34-1.27-4.99Zm12.52-.78c-.02,2.67-.37,4.8-1.03,6.41-.66,1.61-1.69,2.81-3.07,3.62-1.38.81-3.26,1.32-5.63,1.54l-.52-2.44c1.97-.24,3.49-.66,4.56-1.27,1.07-.61,1.84-1.54,2.33-2.78.48-1.25.73-2.99.74-5.22l2.62.13Zm-8.56.32l2.51-.58c.52,1.86.97,3.55,1.34,5.08l-2.51.58c-.5-1.97-.94-3.67-1.34-5.08Z"/>
      <path class="cls-1" d="m353.5,10.62v-2.79h12.09v2.79c-.83,1.79-1.96,3.5-3.39,5.14,1.65,1.46,3.32,3.01,5.02,4.65l-2.07,2.05c-1.89-1.84-3.54-3.39-4.97-4.65-2.1,1.9-4.43,3.43-7.01,4.6l-1.34-2.46c4.71-2.28,8.17-5.39,10.36-9.32h-8.71Z"/>
      <path class="cls-1" d="m372.92,10.19l1.43-2.7c1.81.82,3.75,1.78,5.81,2.88l-1.51,2.7c-2.07-1.1-3.98-2.07-5.73-2.88Zm12.34-.87l2.85.63c-.66,3.75-2.16,6.61-4.49,8.61-2.34,1.99-5.62,3.17-9.83,3.54l-.47-2.92c3.57-.36,6.29-1.31,8.16-2.86,1.87-1.54,3.13-3.88,3.79-7.01Z"/>
    </g>
  </g>
</svg>