<?xml version="1.0" encoding="UTF-8"?>
<svg id="_レイヤー_2" data-name="レイヤー 2" xmlns="http://www.w3.org/2000/svg" viewBox="0 0 184 100">
  <defs>
    <style>
      .cls-1 {
        fill: none;
      }

      .cls-2 {
        fill: #111;
      }

      .cls-3 {
        fill: #d92332;
        stroke: #d92332;
        stroke-miterlimit: 10;
      }
    </style>
  </defs>
  <g id="priceList2">
    <g>
      <g>
        <path class="cls-3" d="m39.35,59.65c.01-1.44.26-2.73.74-3.87s1.15-2.1,2.01-2.91c.82-.75,1.75-1.33,2.77-1.74,1.02-.41,2.1-.62,3.23-.62,2.05,0,3.91.61,5.57,1.84,1.56,1.24,2.58,3.03,3.05,5.37.03.09.01.16-.04.22-.06.06-.13.09-.22.09h-4.44c-.12,0-.2-.05-.24-.15-.65-1.59-1.88-2.4-3.7-2.45-2.61.07-3.92,1.57-3.92,4.5v2.56c.94-.27,1.87-.49,2.8-.65.93-.16,1.82-.23,2.65-.22,2.02,0,3.75.71,5.2,2.12,1.39,1.46,2.07,3.7,2.06,6.74v2.82c-.04,2.96-.92,5.21-2.64,6.76-1.62,1.53-3.66,2.33-6.13,2.4-2.4-.07-4.4-.87-6-2.38-1.82-1.59-2.74-3.84-2.75-6.76v-13.67Zm4.81,13.41c.01,2.96,1.33,4.45,3.94,4.48,2.55-.01,3.88-1.51,3.98-4.48v-2.53c-.12-2.93-1.44-4.43-3.98-4.48-2.61.07-3.93,1.57-3.94,4.48v2.53Z"/>
        <path class="cls-3" d="m59.36,87.88c-.09.06-.17.06-.26.02s-.13-.12-.13-.24v-7.6c0-.17.09-.26.26-.26h4.42c.16,0,.24.09.24.26v4.4c0,.09-.03.16-.09.22l-4.44,3.21Z"/>
        <path class="cls-3" d="m70.1,77.54c-.17,0-.26-.09-.26-.26v-4.22l10.35-22.13s.06-.06.11-.1c.04-.04.09-.05.13-.05h4.94c.09,0,.16.04.21.11.05.07.05.16.01.26l-10.27,21.72h7.38v-8.64c0-.16.09-.24.26-.24h4.42c.17,0,.26.08.26.24v8.64h2.23c.16,0,.24.09.24.26v4.16c0,.17-.08.26-.24.26h-2.23v4.31c0,.17-.09.26-.26.26h-4.42c-.17,0-.26-.09-.26-.26v-4.31h-12.6Z"/>
        <path class="cls-3" d="m96.95,72.86c0-1.49.29-2.81.88-3.96s1.45-2.15,2.59-2.99c-.88-.82-1.59-1.73-2.12-2.73s-.8-2.17-.8-3.51c0-2.56.87-4.72,2.6-6.5,1.78-1.79,3.94-2.69,6.5-2.69s4.73.9,6.48,2.69c1.76,1.81,2.64,3.97,2.64,6.5,0,.66-.07,1.29-.22,1.86-.14.58-.35,1.12-.61,1.64-.26.51-.57,1-.93,1.45-.36.45-.75.88-1.17,1.29,2.31,1.66,3.46,3.98,3.46,6.95,0,1.39-.24,2.66-.73,3.81-.48,1.16-1.2,2.18-2.16,3.08-.94.84-1.98,1.48-3.12,1.94-1.14.46-2.36.68-3.66.68-2.64,0-4.9-.87-6.78-2.62-1.91-1.79-2.86-4.09-2.86-6.89Zm4.92-.04c0,.66.13,1.28.38,1.84s.6,1.05,1.03,1.47c.97.88,2.07,1.32,3.31,1.32s2.35-.44,3.31-1.32c.46-.43.82-.93,1.06-1.48.25-.56.37-1.17.37-1.83,0-1.34-.48-2.45-1.43-3.31-.94-.9-2.04-1.34-3.31-1.34s-2.35.45-3.31,1.34c-.94.87-1.41,1.97-1.41,3.31Zm.56-13.23c0,1.39.42,2.43,1.26,3.12.88.71,1.85,1.06,2.9,1.06s2.01-.35,2.88-1.06c.87-.71,1.3-1.75,1.3-3.12s-.43-2.37-1.3-3.08c-.82-.72-1.78-1.08-2.88-1.08s-2.04.36-2.9,1.08c-.84.69-1.26,1.72-1.26,3.08Z"/>
        <path class="cls-3" d="m123.31,59.63c0-2.92.92-5.16,2.75-6.74,1.82-1.6,3.91-2.4,6.26-2.4,1.17,0,2.28.21,3.32.62s2.03,1.01,2.94,1.79c.91.81,1.6,1.77,2.07,2.89.47,1.12.7,2.4.7,3.84v13.62c0,2.9-.92,5.15-2.77,6.74-1.82,1.59-3.91,2.38-6.26,2.38s-4.44-.79-6.26-2.38c-1.83-1.57-2.75-3.82-2.75-6.74v-13.62Zm13.1.26c0-1.4-.37-2.49-1.12-3.28-.74-.79-1.74-1.18-2.98-1.18s-2.23.39-2.97,1.18c-.74.79-1.1,1.88-1.1,3.28v13.1c0,1.42.37,2.51,1.1,3.29s1.72,1.17,2.97,1.17,2.23-.39,2.98-1.17c.74-.78,1.12-1.88,1.12-3.29v-13.1Z"/>
      </g>
      <g>
        <g>
          <path d="m30.56,22.02c.16-1.2.22-1.8.24-2.57-.55.62-.84.9-1.43,1.42-.41-.72-.67-1.08-1.15-1.64,1.2-.86,2.11-1.92,2.74-3.16.22-.43.35-.77.41-1.02l2.04.25c-.12.22-.12.24-.21.4-.16.33-.22.44-.37.71h6.89c.8,0,1.32-.03,1.83-.09v1.95c-.53-.06-1.08-.09-1.83-.09h-7.93c-.25.35-.34.49-.55.74.41.01.49.01.68.01h7.04c.68,0,1.12-.01,1.43-.04-.04.31-.06.47-.1,2.1-.01.21-.03.49-.06,1.04h.31c.67,0,1.05-.01,1.43-.07v1.86c-.43-.04-.8-.06-1.46-.06h-.38c-.04.58-.07.87-.13,1.46h.19c.67,0,1.05-.02,1.33-.06v1.85c-.35-.04-.72-.06-1.42-.06h-.35c-.37,1.76-.72,2.06-2.51,2.06-.3,0-.55-.02-1.27-.06-.06-.8-.12-1.12-.33-1.66.64.09,1.06.13,1.39.13.46,0,.64-.1.75-.47h-6.2c-.07.33-.12.49-.24.98l-2.06-.16c.47-1.36.77-2.57,1.02-4.01h-.37c-.74,0-1.11.01-1.49.07v-1.88c.44.06.86.07,1.69.07h.43Zm3.42,3.19q.12-.71.22-1.46h-2c-.1.65-.13.86-.25,1.46h2.03Zm.43-3.19q.01-.28.1-1.36h-1.92c-.06.68-.09.92-.15,1.36h1.97Zm3.67,3.19c.06-.53.09-.83.13-1.46h-2.17q-.1.78-.21,1.46h2.25Zm.25-3.19c.01-.41.03-.64.04-1.36h-2.06q-.06.92-.1,1.36h2.11Z"/>
          <path d="m48.48,24.42c-.31,1.88-.93,3.24-2.14,4.64-.53-.68-.96-1.11-1.63-1.63,1.74-1.82,2.1-3.37,2.1-9.45,0-1.14-.03-1.76-.09-2.29.56.06,1.02.07,1.82.07h6.4c.87,0,1.3-.01,1.77-.07-.04.4-.06.83-.06,1.76v9.49c0,.86-.16,1.3-.59,1.6-.37.24-.86.33-1.94.33-.46,0-.98-.01-1.7-.04-.12-.83-.22-1.26-.52-1.97.8.12,1.64.18,2.23.18.43,0,.53-.07.53-.35v-2.26h-6.19Zm6.19-1.77v-1.69h-5.88c-.03.5-.06,1.04-.1,1.69h5.99Zm0-3.46v-1.55h-5.87v1.55h5.87Z"/>
        </g>
        <path d="m79.68,11.07c-.83.81-1.59,1.87-2.7,3.74-2.76,4.6-4.13,8.58-4.84,14.07h-4.11c.86-4.34,1.64-6.84,3.15-10.06,1.2-2.57,2.26-4.34,4.55-7.57h-8.03c-1.53,0-2.34.05-3.41.18v-3.43c1.2.13,2.03.18,3.56.18h8.27c1.95,0,2.63-.03,3.56-.13v3.02Z"/>
        <g>
          <path d="m91.3,15.94c-.07.56-.1,1.02-.1,1.83l-.09,7.96c1.58-.33,2.79-.84,3.95-1.67,1.26-.9,2.14-1.94,2.87-3.34.65.9.89,1.15,1.69,1.8-2.1,3.24-4.64,4.83-8.95,5.62-.46.09-.62.13-.89.25l-1.12-1.33c.12-.34.15-.56.15-1.36l.06-7.91c.01-.07.01-.13.01-.21,0-.71-.03-1.27-.09-1.67l2.51.03Z"/>
          <path d="m106.32,19.02c.65,1.21.95,1.95,1.46,3.62l-1.98.61c-.4-1.61-.68-2.38-1.33-3.7l1.85-.53Zm8.56.18c-.09.25-.1.3-.22.83-.43,2-1.06,3.62-1.94,4.89-1.05,1.51-2.37,2.56-4.7,3.74-.46-.78-.67-1.05-1.41-1.76,1.12-.43,1.76-.77,2.6-1.36,1.71-1.24,2.69-2.77,3.3-5.13.18-.72.25-1.21.27-1.7l2.1.49Zm-5.35-.78c.78,1.49,1.06,2.16,1.43,3.5l-1.94.59c-.28-1.17-.75-2.44-1.33-3.59l1.83-.5Z"/>
          <path d="m130.73,28.48c-1.26-1.57-2.74-3.02-4.39-4.3-1.32,1.57-3.27,3.03-5.51,4.12-.49-.93-.7-1.21-1.42-1.97,1.3-.52,2.17-.99,3.28-1.8,1.63-1.18,2.93-2.62,3.87-4.27.19-.33.44-.86.78-1.61l-4.32.07c-1.23.03-1.51.04-2.07.13l-.03-2.25c.47.07.89.09,1.8.09h.28l5.04-.09c.81,0,.89-.01,1.24-.18l1.14,1.18c-.19.21-.31.4-.49.83-.71,1.66-1.38,2.85-2.23,4.02,1.91,1.36,2.28,1.69,4.81,4.1l-1.79,1.92Z"/>
          <path d="m137.84,16.52c1.91,1.15,2.75,1.77,3.93,2.87l-1.49,1.94c-1.23-1.3-2.47-2.28-3.89-3.06l1.45-1.75Zm-1.39,9.17c1.36-.09,3.05-.49,4.41-1.08,1.88-.78,3.19-1.89,4.35-3.62.67-.99,1.06-1.79,1.49-2.94.7.81.96,1.07,1.88,1.72-1.46,3.16-3.21,5.12-5.78,6.48-1.18.62-2.88,1.23-4.3,1.54q-.37.07-.65.13c-.34.07-.43.1-.74.21l-.65-2.42Z"/>
        </g>
      </g>
      <g>
        <path class="cls-2" d="m19,60.69c-.33,1.99-.99,3.43-2.27,4.92-.56-.72-1.02-1.17-1.72-1.72,1.85-1.93,2.22-3.57,2.22-10,0-1.21-.03-1.86-.09-2.43.59.06,1.08.08,1.93.08h6.78c.92,0,1.38-.02,1.88-.08-.05.42-.06.88-.06,1.86v10.05c0,.91-.17,1.38-.63,1.69-.39.25-.91.34-2.05.34-.48,0-1.03-.02-1.8-.05-.12-.88-.23-1.33-.55-2.08.85.13,1.74.19,2.36.19.45,0,.56-.08.56-.38v-2.4h-6.56Zm6.56-1.88v-1.79h-6.23c-.03.53-.06,1.1-.11,1.79h6.34Zm0-3.66v-1.64h-6.22v1.64h6.22Z"/>
        <path class="cls-2" d="m15.94,78.62v-.39c-.23.09-.25.09-.49.19-.23-.7-.45-1.11-.88-1.64,1.22-.31,1.86-.58,2.83-1.19-.34-.31-.49-.47-.77-.8-.47.42-.55.49-.96.77-.3-.63-.52-.96-.97-1.46.77-.45,1.57-1.13,2.02-1.71h-1.69c.02-.06.02-.11.02-.14.03-.34.05-.63.05-.92v-.86c0-.27-.02-.66-.05-1.08.23.03.59.05,1.24.05h1.39v-.25c0-.41-.02-.61-.06-.94h2.11c-.08.25-.09.45-.09.97v.22h1.22q.67,0,1.08-.03v-.94c.52.06.75.08,1.71.08h4.01c.91,0,1.42-.03,1.72-.08v1.96c-.08-.02-.14-.02-.17-.02-.31-.05-.91-.06-1.55-.06h-.89c-.17.5-.19.56-.34.91h.86c1.05,0,1.27,0,1.58-.05-.03.5-.05.8-.05,1.38v5.42c0,.7.02,1.11.05,1.68-.08,0-.16,0-.19-.02-.31-.02-.89-.03-1.16-.03h-.38c.7.63,1.3.96,2.66,1.46-.49.58-.78,1.06-1.1,1.78-1.38-.63-2.14-1.17-3.19-2.25l1.14-.99h-2.46l1.19.97c-1.13,1.17-1.72,1.63-2.94,2.3-.25-.5-.42-.74-.99-1.31v.22c0,.08.02.3.03.64h-1.82v-.64h-1.91v.77h-1.91c.05-.38.08-.92.08-1.49v-2.46Zm4.42-7.55h-3.48v1.13c.3-.45.41-.67.5-.97l1.74.31q-.05.06-.08.16s-.08.14-.14.23c-.05.08-.06.09-.09.17h1.55v-1.03Zm.39,6.48c-.69-.25-1.27-.53-1.94-.92-.5.38-.85.61-1.42.92h3.37Zm-3.04-3.84c.3.38.53.61.94.92.34-.33.52-.53.92-1.05h-1.77l-.09.12Zm.06,6.51h1.89v-1.14h-1.89v1.14Zm4.02-7.12q-.11.16-.19.28c-.5.83-.94,1.44-1.5,2.07.8.36,1.49.56,2.3.69v-3.46c0-.45-.02-.94-.05-1.47.3.03.44.03,1.3.03h.83c.27-.61.28-.64.36-.91h-1.19c-.59,0-1.33.03-1.61.06v.83c0,.7,0,.88.05,1.11h-.86l.64.67-.08.09Zm-.33,8.11c.86-.34,1.49-.78,2.27-1.6h-.2c-.14,0-.53.02-1.16.03.02-.3.03-1.14.03-1.42v-2c-.31.58-.45.94-.64,1.66l-.28-.08c-.02.3-.02.31-.02.96v2.46Zm2.76-7.66h2.79v-.77h-2.79v.77Zm0,2.21h2.79v-.78h-2.79v.78Zm0,2.24h2.79v-.78h-2.79v.78Z"/>
      </g>
      <g>
        <path class="cls-2" d="m154.02,56.48c-.34.06-.49.09-.99.17-.08-.39-.21-.7-.47-1.17,1.16-.14,1.95-.31,2.78-.65.17-.06.31-.15.45-.24l.77,1.1q-.08.04-.27.12c-.31.13-.52.21-.97.34v1.25h.25c.35,0,.53-.01.73-.04v1.29c-.21-.03-.4-.04-.73-.04h-.21c.37.76.62,1.12,1.16,1.65-.27.53-.34.7-.52,1.2-.29-.37-.44-.59-.72-1.17.02.22.04.73.04,1.01v1.81c0,.63.01.95.06,1.31h-1.42c.04-.41.06-.73.06-1.31v-1.47c0-.21.03-.86.05-1.11-.28.85-.57,1.39-1.11,2.07-.19-.6-.32-.89-.59-1.33.69-.78,1.23-1.76,1.48-2.66h-.45c-.39,0-.56.01-.81.05v-1.31c.25.04.41.05.81.05h.62v-.93Zm3.58.3c-.29-.72-.51-1.15-.85-1.63l1.22-.52c.4.62.63,1.08.86,1.66l-1.1.49h1.64c.39-.74.6-1.3.81-2.14l1.38.42q-.58,1.28-.85,1.72h.2c.38,0,.56-.01.87-.04-.03.25-.04.43-.04.75v2.01c0,.33.01.52.04.78-.28-.03-.52-.04-.87-.04h-.39v2.63c0,.15.04.19.2.19.06.01.11.01.14.01h.03c.33,0,.34-.06.35-1.4.41.26.69.4,1.05.49-.06,1.17-.14,1.53-.32,1.78-.21.29-.53.37-1.54.37-.93,0-1.2-.21-1.2-.95v-3.12h-.62.1c-.11,1.36-.27,1.96-.7,2.72-.37.66-.8,1.08-1.56,1.5-.26-.45-.45-.67-.9-1.1.63-.3,1.04-.67,1.35-1.15.31-.51.5-1.22.5-1.88v-.1h-.06c-.34,0-.55.01-.82.04.02-.26.03-.49.03-.78v-2c0-.25-.01-.51-.03-.76.29.03.48.04.83.04h.23Zm.28,2.24h2.53v-1.02h-2.53v1.02Z"/>
        <path class="cls-2" d="m164.06,58.56c.27.04.45.05.85.05h.97c.3,0,.56-.01.79-.04-.03.32-.04.56-.04,1.16v2.24c.12.27.19.35.46.54.48.33,1.01.42,2.68.42s3.04-.08,4.12-.23c-.19.57-.26.89-.34,1.46-.77.03-2.77.07-3.54.07-2.62,0-3.29-.19-4.09-1.16-.31.3-.55.51-1.08.92-.14.1-.2.16-.26.21-.08.06-.09.07-.15.11l-.6-1.43c.34-.14,1-.54,1.47-.92v-2.11h-.57c-.27,0-.41.01-.68.05v-1.36Zm1.05-3.75c.8.68,1.38,1.25,1.89,1.91l-1.03,1.02c-.66-.87-1.02-1.26-1.86-1.98l1-.95Zm3.3,1.51c-.37,0-.62.01-.88.04v-1.36c.23.04.45.05.88.05h1.69c.34,0,.55-.01.76-.04-.01.15-.02.48-.02.63,0,.61.15,1.5.35,2.13.27.81.69,1.58,1.19,2.18.39.47.72.76,1.37,1.22-.34.45-.53.76-.79,1.33-.73-.53-1.16-.95-1.63-1.57-.51-.69-.8-1.28-1.13-2.29-.3,1.08-.58,1.66-1.12,2.37-.39.51-.73.86-1.4,1.4-.3-.47-.46-.65-.97-1.12.95-.68,1.54-1.38,1.99-2.31.26-.56.47-1.2.58-1.78.03-.18.05-.33.13-.89h-1.01Z"/>
      </g>
      <path d="m155.55,82.3c0,.97.02,1.5.08,1.88h-2.29c.08-.58.11-1.11.11-1.96v-10.32c0-.69-.02-1.11-.06-1.57.55.05.99.06,1.88.06h9.5c.96,0,1.41-.02,1.83-.06-.05.47-.06.89-.06,1.83v10.08c0,.8-.25,1.3-.74,1.53-.33.17-.88.23-1.82.23-.52,0-1.24-.02-1.94-.05-.11-.74-.27-1.24-.6-1.99.92.09,1.83.16,2.24.16.66,0,.78-.06.78-.38v-3.38h-8.92v3.91Zm3.33-9.94h-3.33v4.1h3.33v-4.1Zm5.59,4.1v-4.1h-3.54v4.1h3.54Z"/>
    </g>
    <rect class="cls-1" x="0" width="184" height="100"/>
  </g>
</svg>