<?xml version="1.0" encoding="utf-8"?>
<!-- Generator: Adobe Illustrator 27.1.1, SVG Export Plug-In . SVG Version: 6.00 Build 0)  -->
<svg version="1.1" id="_レイヤー_2" xmlns="http://www.w3.org/2000/svg" xmlns:xlink="http://www.w3.org/1999/xlink" x="0px"
	 y="0px" viewBox="0 0 236.8 81" style="enable-background:new 0 0 236.8 81;" xml:space="preserve">
<style type="text/css">
	.st0{fill:#CE2332;stroke:#CE2332;stroke-miterlimit:10;}
	.st1{fill:#111111;}
	.st2{fill:url(#SVGID_1_);}
	.st3{fill:url(#SVGID_00000088106827332315717530000002919105245410416825_);}
	.st4{fill:#F2762E;}
	.st5{fill:#FFFFFF;}
</style>
<g id="_レイヤー_4">
	<g>
		<g>
			<g>
				<path class="st0" d="M90.4,66.7c-0.2,0-0.3-0.1-0.3-0.3v-4.2l12.1-15.2v0c0.4-0.6,0.7-1.1,0.9-1.5s0.2-0.9,0.2-1.4
					c0-1-0.4-1.9-1.1-2.8c-0.7-0.9-1.7-1.3-2.9-1.3c-1.1,0-2.1,0.4-2.9,1.2c-0.4,0.4-0.7,0.8-0.9,1.3c-0.2,0.5-0.3,1.1-0.4,1.7
					c0,0.1,0,0.1-0.1,0.2c-0.1,0-0.1,0.1-0.2,0.1h-4.4c-0.2,0-0.3-0.1-0.3-0.3c0-2.6,0.9-4.7,2.6-6.5c1.8-1.8,3.8-2.7,6.2-2.7
					c2.6,0,4.8,0.9,6.6,2.7h0c1.8,1.8,2.7,3.9,2.7,6.4c0,1.1-0.2,2.1-0.5,3s-0.8,1.8-1.4,2.6v0c-0.8,1-1.6,2.1-2.4,3
					c-0.8,1-1.6,2-2.4,3c-0.8,1-1.6,2-2.4,3s-1.6,2-2.4,3H108c0.2,0,0.3,0.1,0.3,0.3v4.4c0,0.2-0.1,0.3-0.3,0.3L90.4,66.7L90.4,66.7
					z"/>
				<path class="st0" d="M119.3,66.8c-0.2,0-0.3-0.1-0.3-0.3V40.8c-0.7,0.5-1.3,1-2,1.5c-0.7,0.5-1.3,1-2,1.5
					c-0.1,0.1-0.2,0.1-0.3,0c-0.1,0-0.1-0.1-0.1-0.2v-4.7c0,0,0-0.1,0-0.1s0.1-0.1,0.1-0.1l4.5-3.2h4.5c0.2,0,0.3,0.1,0.3,0.3v30.9
					c0,0.2-0.1,0.3-0.3,0.3L119.3,66.8L119.3,66.8z"/>
				<path class="st0" d="M131.9,72.5c-0.1,0.1-0.2,0.1-0.3,0s-0.1-0.1-0.1-0.2v-7.6c0-0.2,0.1-0.3,0.3-0.3h4.4
					c0.2,0,0.2,0.1,0.2,0.3v4.4c0,0.1,0,0.2-0.1,0.2L131.9,72.5L131.9,72.5z"/>
				<path class="st0" d="M141.3,44.2c0-1.4,0.3-2.7,0.7-3.8s1.1-2.1,2-2.9c0.8-0.8,1.8-1.3,2.8-1.7s2.1-0.6,3.2-0.6
					c2.4,0,4.4,0.8,6.1,2.4c1.7,1.6,2.6,3.8,2.6,6.8v13.6c0,1.4-0.3,2.7-0.7,3.8s-1.1,2.1-1.9,2.9c-0.8,0.7-1.8,1.3-2.8,1.7
					s-2.1,0.6-3.4,0.7c-2.1-0.1-3.9-0.7-5.5-1.9v0c-0.8-0.6-1.5-1.4-2-2.3c-0.5-0.9-0.9-1.9-1.1-3.1c0-0.1,0-0.1,0-0.2
					c0.1-0.1,0.1-0.1,0.2-0.1h4.4c0.1,0,0.2,0.1,0.2,0.2c0.6,1.6,1.9,2.4,3.7,2.4c2.6,0,3.9-1.5,4-4.5v-2.6
					c-0.9,0.3-1.9,0.5-2.8,0.7s-1.8,0.2-2.6,0.2c-2,0-3.7-0.7-5.2-2.2h0c-1.4-1.4-2.1-3.7-2.1-6.7L141.3,44.2L141.3,44.2z
					 M146.1,47.1c0,3,1.3,4.4,3.9,4.5c2.6,0,3.9-1.5,4-4.5v-2.5c-0.1-2.9-1.4-4.4-4-4.5c-2.6,0.1-3.9,1.6-3.9,4.5V47.1z"/>
				<path class="st0" d="M164.8,57.5c0-1.5,0.3-2.8,0.9-4c0.6-1.2,1.4-2.2,2.6-3c-0.9-0.8-1.6-1.7-2.1-2.7s-0.8-2.2-0.8-3.5
					c0-2.6,0.9-4.7,2.6-6.5c1.8-1.8,3.9-2.7,6.5-2.7s4.7,0.9,6.5,2.7c1.8,1.8,2.6,4,2.6,6.5c0,0.7-0.1,1.3-0.2,1.9
					c-0.1,0.6-0.4,1.1-0.6,1.6c-0.3,0.5-0.6,1-0.9,1.5c-0.4,0.5-0.8,0.9-1.2,1.3c2.3,1.7,3.5,4,3.5,7c0,1.4-0.2,2.7-0.7,3.8
					c-0.5,1.2-1.2,2.2-2.1,3.1c-0.9,0.8-2,1.5-3.1,1.9s-2.4,0.7-3.7,0.7c-2.6,0-4.9-0.9-6.8-2.6C165.7,62.6,164.8,60.3,164.8,57.5
					L164.8,57.5z M169.7,57.4c0,0.7,0.1,1.3,0.4,1.8s0.6,1,1,1.5c1,0.9,2.1,1.3,3.3,1.3s2.4-0.4,3.3-1.3c0.5-0.4,0.8-0.9,1.1-1.5
					c0.2-0.6,0.4-1.2,0.4-1.8c0-1.3-0.5-2.5-1.4-3.3c-0.9-0.9-2-1.3-3.3-1.3s-2.4,0.5-3.3,1.3C170.2,55,169.7,56.1,169.7,57.4z
					 M170.3,44.2c0,1.4,0.4,2.4,1.3,3.1c0.9,0.7,1.9,1.1,2.9,1.1s2-0.3,2.9-1.1c0.9-0.7,1.3-1.8,1.3-3.1s-0.4-2.4-1.3-3.1
					c-0.8-0.7-1.8-1.1-2.9-1.1s-2,0.4-2.9,1.1C170.7,41.8,170.3,42.8,170.3,44.2z"/>
				<path class="st0" d="M188.5,44.2c0-2.9,0.9-5.2,2.8-6.7c1.8-1.6,3.9-2.4,6.3-2.4c1.2,0,2.3,0.2,3.3,0.6s2,1,2.9,1.8
					c0.9,0.8,1.6,1.8,2.1,2.9s0.7,2.4,0.7,3.8v13.6c0,2.9-0.9,5.2-2.8,6.7c-1.8,1.6-3.9,2.4-6.3,2.4s-4.4-0.8-6.3-2.4
					c-1.8-1.6-2.8-3.8-2.8-6.7L188.5,44.2L188.5,44.2z M201.6,44.5c0-1.4-0.4-2.5-1.1-3.3c-0.7-0.8-1.7-1.2-3-1.2s-2.2,0.4-3,1.2
					s-1.1,1.9-1.1,3.3v13.1c0,1.4,0.4,2.5,1.1,3.3s1.7,1.2,3,1.2s2.2-0.4,3-1.2c0.7-0.8,1.1-1.9,1.1-3.3
					C201.6,57.6,201.6,44.5,201.6,44.5z"/>
			</g>
			<path d="M218.8,69.5c0,1,0,1.5,0.1,1.9h-2.3c0.1-0.6,0.1-1.1,0.1-2V59.1c0-0.7,0-1.1-0.1-1.6c0.6,0,1,0.1,1.9,0.1h9.5
				c1,0,1.4,0,1.8-0.1c-0.1,0.5-0.1,0.9-0.1,1.8v10.1c0,0.8-0.2,1.3-0.7,1.5c-0.3,0.2-0.9,0.2-1.8,0.2c-0.5,0-1.2,0-1.9-0.1
				c-0.1-0.7-0.3-1.2-0.6-2c0.9,0.1,1.8,0.2,2.2,0.2c0.7,0,0.8-0.1,0.8-0.4v-3.4h-8.9L218.8,69.5L218.8,69.5z M222.1,59.6h-3.3v4.1
				h3.3V59.6z M227.7,63.7v-4.1h-3.5v4.1H227.7z"/>
			<g>
				<path class="st1" d="M94.9,20.9c-0.3,2.1-1,3.4-2.2,4.8c-0.4-0.5-0.7-0.8-1.2-1.1c0.9-0.9,1.3-1.6,1.7-2.8
					c0.4-1.4,0.6-3.1,0.6-6.9c0-1.3,0-1.8-0.1-2.4c0.6,0.1,1,0.1,1.7,0.1h6c0.8,0,1.2,0,1.7-0.1c0,0.4-0.1,0.8-0.1,1.6V24
					c0,0.7-0.2,1-0.5,1.3c-0.3,0.2-0.7,0.2-1.5,0.2c-0.5,0-1,0-1.7-0.1c-0.1-0.6-0.2-0.9-0.4-1.4c0.8,0.1,1.5,0.2,2.2,0.2
					c0.4,0,0.6-0.1,0.6-0.4v-2.9L94.9,20.9L94.9,20.9z M101.5,19.6v-2.3h-6.4c0,0.5,0,1.4-0.1,2.3H101.5z M101.5,16v-2.1h-6.4V16
					H101.5z"/>
				<path class="st1" d="M113.3,14.4h-4.1v1.4h-1.3c0-0.3,0.1-0.6,0.1-0.9v-0.7c0-0.3,0-0.6-0.1-1c0.2,0,0.6,0,1.2,0h1.5v-0.4
					c0-0.4,0-0.6-0.1-1h1.5c-0.1,0.3-0.1,0.5-0.1,1v0.4h1.3c0.6,0,0.9,0,1.1,0v-1c0.4,0.1,0.7,0.1,1.5,0.1h4c0.8,0,1.2,0,1.5-0.1
					v1.4c-0.5-0.1-0.8-0.1-1.5-0.1h-1.2c-0.2,0.5-0.3,0.8-0.4,1.3h1.2c0.8,0,1.1,0,1.4-0.1c0,0.4,0,0.8,0,1.4v5.1c0,0.6,0,1,0,1.5
					c-0.5,0-0.9,0-1.3,0H116c-0.4,0-0.5,0-1.2,0c0-0.4,0-1,0-1.4v-5.2c0-0.6,0-0.9-0.1-1.4c0.4,0,0.6,0,1.3,0h0.8
					c0.3-0.7,0.4-1,0.4-1.3h-1.5c-0.6,0-1.1,0-1.5,0.1c0,0.2,0,0.3,0,0.6v0.4c0,0.5,0,0.7,0,0.9h-1.1l0.6,0.6c0,0,0,0.1-0.1,0.1
					c-0.1,0.1-0.1,0.1-0.2,0.2c-0.6,0.9-1,1.5-1.6,2.1c0.8,0.5,1.3,0.7,2.5,1.1c-0.2,0.4-0.3,0.6-0.5,1.1c-0.3-0.1-0.3-0.1-0.5-0.2
					c0,0.3-0.1,0.6-0.1,1.2v2.7c0.5-0.2,0.7-0.3,1.1-0.5c0.7-0.4,1.1-0.8,1.6-1.4l1,0.8c-0.9,1-1.7,1.6-2.8,2.1
					c-0.4-0.5-0.5-0.7-0.8-1c0,0.2,0,0.3,0,0.6h-1.2v-0.6h-2.3v0.8h-1.3c0-0.3,0.1-0.8,0.1-1.4v-2.3c0-0.3,0-0.4,0-0.7
					c-0.3,0.1-0.4,0.2-0.8,0.4c-0.2-0.5-0.4-0.8-0.7-1.1c1.2-0.4,2.1-0.9,3.1-1.6c-0.5-0.4-0.7-0.7-1-1.1c-0.4,0.5-0.7,0.7-1.1,1
					c-0.2-0.4-0.5-0.7-0.7-0.9c0.9-0.6,1.6-1.3,2.1-2.1c0.3-0.4,0.4-0.7,0.5-1.1l1.2,0.3c0,0.1-0.1,0.1-0.1,0.2
					c-0.1,0.2-0.2,0.3-0.3,0.5h1.3c0.5,0,0.8,0,1-0.1L113.3,14.4L113.3,14.4z M112.6,20.7c0.4,0,0.7,0,0.9,0
					c-0.8-0.4-1.6-0.8-2.2-1.2c-0.6,0.5-1,0.8-1.8,1.3H112.6z M110.1,23.6h2.3v-1.8h-2.3V23.6z M110.3,16.7
					c-0.1,0.1-0.1,0.2-0.2,0.2c0.4,0.5,0.7,0.8,1.1,1.2c0.4-0.4,0.6-0.7,1.1-1.4H110.3L110.3,16.7z M116,17.1h3.4V16H116V17.1z
					 M116,19.3h3.4v-1.1H116V19.3z M116,21.6h3.4v-1.2H116V21.6z M118.9,22.8c0.9,0.9,1.4,1.2,2.9,1.8c-0.3,0.4-0.6,0.7-0.8,1.2
					c-1.3-0.6-2-1.2-3-2.2C118,23.6,118.9,22.8,118.9,22.8z"/>
			</g>
			<g>
				<path class="st1" d="M216.9,43.7c-0.3,0.1-0.5,0.1-1,0.2c-0.1-0.4-0.2-0.7-0.5-1.2c1.2-0.1,1.9-0.3,2.8-0.7
					c0.2-0.1,0.3-0.2,0.4-0.2l0.8,1.1c-0.1,0-0.1,0.1-0.3,0.1c-0.3,0.1-0.5,0.2-1,0.3v1.2h0.2c0.4,0,0.5,0,0.7,0v1.3
					c-0.2,0-0.4,0-0.7,0h-0.2c0.4,0.8,0.6,1.1,1.2,1.7c-0.3,0.5-0.3,0.7-0.5,1.2c-0.3-0.4-0.4-0.6-0.7-1.2c0,0.2,0,0.7,0,1v1.8
					c0,0.6,0,1,0.1,1.3h-1.4c0-0.4,0.1-0.7,0.1-1.3v-1.5c0-0.2,0-0.9,0.1-1.1c-0.3,0.8-0.6,1.4-1.1,2.1c-0.2-0.6-0.3-0.9-0.6-1.3
					c0.7-0.8,1.2-1.8,1.5-2.7h-0.4c-0.4,0-0.6,0-0.8,0v-1.3c0.2,0,0.4,0,0.8,0h0.6L216.9,43.7L216.9,43.7z M220.5,44
					c-0.3-0.7-0.5-1.2-0.9-1.6l1.2-0.5c0.4,0.6,0.6,1.1,0.9,1.7l-1.1,0.5h1.6c0.4-0.7,0.6-1.3,0.8-2.1l1.4,0.4
					c-0.4,0.9-0.7,1.4-0.9,1.7h0.2c0.4,0,0.6,0,0.9,0c0,0.2,0,0.4,0,0.8v2c0,0.3,0,0.5,0,0.8c-0.3,0-0.5,0-0.9,0h-0.4v2.6
					c0,0.2,0,0.2,0.2,0.2c0.1,0,0.1,0,0.1,0h0c0.3,0,0.3-0.1,0.4-1.4c0.4,0.3,0.7,0.4,1.1,0.5c-0.1,1.2-0.1,1.5-0.3,1.8
					c-0.2,0.3-0.5,0.4-1.5,0.4c-0.9,0-1.2-0.2-1.2-1v-3.1h-0.6h0.1c-0.1,1.4-0.3,2-0.7,2.7c-0.4,0.7-0.8,1.1-1.6,1.5
					c-0.3-0.5-0.4-0.7-0.9-1.1c0.6-0.3,1-0.7,1.4-1.2c0.3-0.5,0.5-1.2,0.5-1.9v-0.1h-0.1c-0.3,0-0.6,0-0.8,0c0-0.3,0-0.5,0-0.8v-2
					c0-0.2,0-0.5,0-0.8c0.3,0,0.5,0,0.8,0L220.5,44L220.5,44z M220.8,46.2h2.5v-1h-2.5V46.2z"/>
				<path class="st1" d="M226.9,45.8c0.3,0,0.4,0,0.9,0h1c0.3,0,0.6,0,0.8,0c0,0.3,0,0.6,0,1.2v2.2c0.1,0.3,0.2,0.3,0.5,0.5
					c0.5,0.3,1,0.4,2.7,0.4s3-0.1,4.1-0.2c-0.2,0.6-0.3,0.9-0.3,1.5c-0.8,0-2.8,0.1-3.5,0.1c-2.6,0-3.3-0.2-4.1-1.2
					c-0.3,0.3-0.6,0.5-1.1,0.9c-0.1,0.1-0.2,0.2-0.3,0.2c-0.1,0.1-0.1,0.1-0.1,0.1l-0.6-1.4c0.3-0.1,1-0.5,1.5-0.9v-2.1h-0.6
					c-0.3,0-0.4,0-0.7,0L226.9,45.8L226.9,45.8z M228,42c0.8,0.7,1.4,1.2,1.9,1.9l-1,1c-0.7-0.9-1-1.3-1.9-2L228,42z M231.3,43.5
					c-0.4,0-0.6,0-0.9,0v-1.4c0.2,0,0.4,0,0.9,0h1.7c0.3,0,0.6,0,0.8,0c0,0.2,0,0.5,0,0.6c0,0.6,0.1,1.5,0.4,2.1
					c0.3,0.8,0.7,1.6,1.2,2.2c0.4,0.5,0.7,0.8,1.4,1.2c-0.3,0.5-0.5,0.8-0.8,1.3c-0.7-0.5-1.2-1-1.6-1.6c-0.5-0.7-0.8-1.3-1.1-2.3
					c-0.3,1.1-0.6,1.7-1.1,2.4c-0.4,0.5-0.7,0.9-1.4,1.4c-0.3-0.5-0.5-0.7-1-1.1c0.9-0.7,1.5-1.4,2-2.3c0.3-0.6,0.5-1.2,0.6-1.8
					c0-0.2,0.1-0.3,0.1-0.9L231.3,43.5L231.3,43.5z"/>
			</g>
		</g>
		<g>
			<path d="M14.3,22.3c-0.4-1.1-0.9-1.5-2-1.5s-1.8,0.5-2.3,1.5c-0.4,0.8-0.5,1.5-0.6,2.6c0.8-1.1,1.6-1.5,3.1-1.5s2.7,0.6,3.4,1.7
				c0.4,0.6,0.5,1.3,0.5,2.2c0,2.3-1.8,3.9-4.2,3.9c-1.2,0-2.2-0.4-3-1c-1.1-0.9-1.7-2.7-1.7-4.9C7.6,23.7,8,22,8.8,21
				c0.9-1.2,2-1.7,3.6-1.7c1.3,0,2.3,0.4,3,1.1c0.4,0.4,0.6,0.7,0.9,1.5L14.3,22.3L14.3,22.3z M9.7,27.4c0,1.3,1,2.3,2.5,2.3
				c0.8,0,1.6-0.4,2-1c0.2-0.3,0.3-0.8,0.3-1.3c0-1.4-0.9-2.3-2.3-2.3S9.7,26.1,9.7,27.4L9.7,27.4z"/>
			<path d="M18.9,30.1c-0.4-0.4-0.8-1-1-1.5c-0.4-1-0.6-2.2-0.6-3.4c0-1.6,0.4-3.1,0.9-4c0.8-1.3,2.1-2,3.7-2c1.2,0,2.3,0.4,3.1,1.2
				c0.4,0.4,0.8,1,1,1.5c0.4,1,0.6,2.2,0.6,3.4c0,1.8-0.4,3.4-1.1,4.3c-0.8,1.1-2,1.7-3.5,1.7C20.7,31.3,19.7,30.9,18.9,30.1
				L18.9,30.1z M23.5,29c0.7-0.7,1-2,1-3.7s-0.4-3-1-3.7c-0.4-0.4-0.9-0.6-1.6-0.6c-0.7,0-1.2,0.2-1.6,0.7c-0.6,0.8-1,2-1,3.5
				s0.3,2.8,0.7,3.5c0.4,0.6,1.1,1,1.9,1C22.6,29.6,23.2,29.4,23.5,29L23.5,29z"/>
		</g>
		<g>
			<path d="M31.6,24.1c0,0.3-0.1,0.5-0.1,1l0,4.3c0.9-0.2,1.5-0.5,2.1-0.9c0.7-0.5,1.2-1,1.6-1.8c0.3,0.5,0.5,0.6,0.9,1
				c-1.1,1.8-2.5,2.6-4.9,3c-0.2,0-0.3,0.1-0.5,0.1l-0.6-0.7c0.1-0.2,0.1-0.3,0.1-0.7l0-4.3c0,0,0-0.1,0-0.1c0-0.4,0-0.7,0-0.9H31.6
				L31.6,24.1z"/>
			<path d="M38.2,25.8c0.3,0.7,0.5,1.1,0.8,2l-1.1,0.3c-0.2-0.9-0.4-1.3-0.7-2L38.2,25.8L38.2,25.8z M42.8,25.9
				c0,0.1-0.1,0.2-0.1,0.5c-0.2,1.1-0.6,2-1,2.7c-0.6,0.8-1.3,1.4-2.5,2c-0.2-0.4-0.4-0.6-0.8-1c0.6-0.2,1-0.4,1.4-0.7
				c0.9-0.7,1.5-1.5,1.8-2.8c0.1-0.4,0.1-0.7,0.1-0.9L42.8,25.9L42.8,25.9z M39.9,25.5c0.4,0.8,0.6,1.2,0.8,1.9l-1,0.3
				c-0.2-0.6-0.4-1.3-0.7-2L39.9,25.5L39.9,25.5z"/>
			<path d="M50,31c-0.7-0.9-1.5-1.6-2.4-2.3c-0.7,0.9-1.8,1.6-3,2.2c-0.3-0.5-0.4-0.7-0.8-1.1c0.7-0.3,1.2-0.5,1.8-1
				c0.9-0.6,1.6-1.4,2.1-2.3c0.1-0.2,0.2-0.5,0.4-0.9l-2.3,0c-0.7,0-0.8,0-1.1,0.1l0-1.2c0.3,0,0.5,0,1,0h0.2l2.7,0
				c0.4,0,0.5,0,0.7-0.1l0.6,0.6c-0.1,0.1-0.2,0.2-0.3,0.5c-0.4,0.9-0.8,1.5-1.2,2.2c1,0.7,1.2,0.9,2.6,2.2L50,31L50,31z"/>
			<path d="M52.8,24.5c1,0.6,1.5,1,2.1,1.6l-0.8,1c-0.7-0.7-1.3-1.2-2.1-1.7C52,25.4,52.8,24.5,52.8,24.5z M52.1,29.4
				c0.7,0,1.7-0.3,2.4-0.6c1-0.4,1.7-1,2.4-2c0.4-0.5,0.6-1,0.8-1.6c0.4,0.4,0.5,0.6,1,0.9c-0.8,1.7-1.7,2.8-3.1,3.5
				c-0.6,0.3-1.6,0.7-2.3,0.8c-0.1,0-0.2,0.1-0.3,0.1c-0.2,0-0.2,0.1-0.4,0.1L52.1,29.4L52.1,29.4z"/>
		</g>
		<g>
			<g>
				<path d="M16.1,67.7c0,0.1,0,0.2-0.2,0.7c-0.1,0.6-0.4,1.3-0.6,1.9c-0.3,0.6-0.5,1-0.9,1.6c-0.6-0.4-0.8-0.5-1.4-0.7
					c0.7-0.9,1.1-1.6,1.4-2.7c0.1-0.5,0.2-0.8,0.2-1.1L16.1,67.7L16.1,67.7z M22,66.8c-0.4-0.1-0.6-0.1-1.4-0.1h-2.1v4.6
					c0,0.5,0,1,0,1.4h-1.6c0-0.4,0.1-0.8,0.1-1.4v-4.6h-2c-0.8,0-1,0-1.4,0.1v-1.4c0.5,0.1,0.6,0.1,1.4,0.1h2V65
					c0-0.5,0-0.8-0.1-1.2h1.6c0,0.3-0.1,0.7-0.1,1.2v0.4h2.3c-0.3-0.2-0.4-0.5-0.4-0.9c0-0.6,0.5-1.1,1.1-1.1s1.1,0.5,1.1,1.1
					c0,0.4-0.2,0.7-0.5,0.9C22,65.5,22,66.8,22,66.8z M20.7,67.4c0.1,0.3,0.1,0.6,0.3,1.1c0.4,1.2,0.8,1.9,1.4,2.7
					c-0.7,0.4-0.9,0.5-1.4,0.8c-0.8-1.3-1.1-2.2-1.6-3.9c0-0.1,0-0.2-0.1-0.3C19.3,67.7,20.7,67.4,20.7,67.4z M20.9,64.5
					c0,0.3,0.2,0.5,0.5,0.5s0.5-0.2,0.5-0.5S21.7,64,21.4,64S20.9,64.3,20.9,64.5z"/>
				<path d="M32.7,64.8c-0.2,0.2-0.2,0.2-0.4,0.4c-0.8,0.8-1.5,1.4-2.3,2v3.9c0,0.8,0,1.1,0,1.5h-1.6c0-0.4,0.1-0.6,0.1-1.4v-3
					c-1,0.6-1.6,0.9-3.4,1.6c-0.3-0.6-0.4-0.8-0.8-1.4c2-0.6,3.7-1.4,5.3-2.6c0.9-0.7,1.5-1.3,1.9-1.8L32.7,64.8L32.7,64.8z"/>
				<path d="M36.8,64.5c1.3,0.8,1.9,1.2,2.7,1.9l-1,1.3c-0.8-0.9-1.7-1.5-2.6-2.1L36.8,64.5z M35.8,70.7c0.9-0.1,2.1-0.3,3-0.7
					c1.3-0.5,2.2-1.3,2.9-2.4c0.5-0.7,0.7-1.2,1-2c0.5,0.6,0.7,0.7,1.3,1.2c-1,2.1-2.2,3.5-3.9,4.4c-0.8,0.4-2,0.8-2.9,1
					c-0.2,0-0.3,0.1-0.4,0.1c-0.2,0.1-0.3,0.1-0.5,0.1L35.8,70.7z"/>
				<path d="M48.3,72.6c0-0.4,0.1-0.7,0.1-1.4v-5.9c0-0.7,0-1-0.1-1.3h1.6c0,0.4-0.1,0.6-0.1,1.3v1.5c1.5,0.5,2.9,1.2,4.5,2.1
					l-0.8,1.4c-0.9-0.6-2.2-1.3-3.3-1.8c-0.2-0.1-0.2-0.1-0.4-0.2v2.9c0,0.6,0,1,0.1,1.4C49.9,72.6,48.3,72.6,48.3,72.6z"/>
			</g>
			<g>
				<path d="M10,51.8c0.1,0.7,0.3,1,0.7,1.3c0.5,0.5,1.3,0.8,2.1,0.8c1.6,0,2.6-0.8,2.6-2.1c0-1.3-0.9-2-2.7-2c-0.9,0-1.5,0-2.2,0.1
					v-2.7c0.5,0.1,1.1,0.1,1.7,0.1c0.9,0,1.6-0.1,2-0.4c0.5-0.3,0.8-0.9,0.8-1.5c0-1.2-0.8-1.8-2.2-1.8c-0.8,0-1.5,0.3-1.9,0.8
					c-0.2,0.3-0.3,0.5-0.4,1l-3.2-0.5c0.4-1.1,0.7-1.6,1.3-2.2c1-1,2.5-1.5,4.4-1.5s3.3,0.5,4.3,1.4c0.6,0.6,1,1.5,1,2.5
					s-0.3,1.8-0.8,2.3c-0.5,0.6-1,0.8-2.2,1.2c1.2,0.2,1.9,0.6,2.5,1.2c0.6,0.7,0.9,1.4,0.9,2.5c0,1-0.4,2-1.1,2.7
					c-1,1-2.6,1.5-4.7,1.5c-2.2,0-3.9-0.6-4.9-1.8c-0.5-0.6-0.7-1.1-1-2.2L10,51.8L10,51.8z"/>
				<path d="M22.1,54.7c-0.6-0.6-1-1.2-1.2-1.9c-0.5-1.3-0.7-2.7-0.7-4.1c0-1.9,0.4-3.9,1.1-5c1-1.7,2.8-2.7,4.9-2.7
					c1.6,0,3,0.5,4.1,1.6c0.6,0.6,1,1.2,1.2,1.9c0.5,1.3,0.7,2.7,0.7,4.1c0,1.9-0.4,3.9-1.1,5c-1,1.7-2.8,2.7-4.9,2.7
					C24.5,56.3,23.1,55.7,22.1,54.7L22.1,54.7z M23.2,48.5c0,3.4,1,5.2,3,5.2c0.7,0,1.3-0.2,1.8-0.7c0.8-0.8,1.2-2.3,1.2-4.3
					c0-3.4-1-5.2-3-5.2S23.2,45.4,23.2,48.5L23.2,48.5z"/>
				<path d="M35.6,54.8c-0.6-0.6-1-1.2-1.2-1.9c-0.5-1.3-0.7-2.7-0.7-4.1c0-1.9,0.4-3.9,1.1-5c1-1.7,2.8-2.7,4.9-2.7
					c1.6,0,3,0.5,4.1,1.6c0.6,0.6,1,1.2,1.2,1.9c0.5,1.3,0.7,2.7,0.7,4.1c0,1.9-0.4,3.9-1.1,5c-1,1.7-2.8,2.7-4.9,2.7
					C38,56.4,36.6,55.8,35.6,54.8L35.6,54.8z M36.7,48.6c0,3.4,1,5.2,3,5.2c0.7,0,1.3-0.2,1.8-0.7c0.8-0.8,1.2-2.3,1.2-4.3
					c0-3.4-1-5.2-3-5.2S36.7,45.5,36.7,48.6L36.7,48.6z"/>
				<path d="M49.3,54.8c-0.6-0.6-1-1.2-1.2-1.9c-0.5-1.3-0.7-2.7-0.7-4.1c0-1.9,0.4-3.9,1.1-5c1-1.7,2.8-2.7,4.9-2.7
					c1.6,0,3,0.5,4.1,1.6c0.6,0.6,1,1.2,1.2,1.9c0.5,1.3,0.7,2.7,0.7,4.1c0,1.9-0.4,3.9-1.1,5c-1,1.7-2.8,2.7-4.9,2.7
					C51.7,56.4,50.3,55.8,49.3,54.8L49.3,54.8z M50.4,48.6c0,3.4,1,5.2,3,5.2c0.7,0,1.3-0.2,1.8-0.7c0.8-0.8,1.2-2.3,1.2-4.3
					c0-3.4-1-5.2-3-5.2S50.4,45.5,50.4,48.6L50.4,48.6z"/>
			</g>
		</g>
		<g>
			
				<linearGradient id="SVGID_1_" gradientUnits="userSpaceOnUse" x1="35.1267" y1="90.9446" x2="-11.7568" y2="9.7485" gradientTransform="matrix(1 0 0 -1 0 84)">
				<stop  offset="0" style="stop-color:#E1FF49"/>
				<stop  offset="0.35" style="stop-color:#AFF952"/>
				<stop  offset="0.5" style="stop-color:#87F559"/>
				<stop  offset="0.67" style="stop-color:#6CF598"/>
				<stop  offset="1" style="stop-color:#43F5F5"/>
			</linearGradient>
			<path class="st2" d="M11,81H0V8.5C0,3.8,3.8,0,8.5,0h38.2c0.8,0,1.5,0.7,1.5,1.5S47.6,3,46.8,3H8.5C5.5,3,3,5.5,3,8.5V78h8
				c0.8,0,1.5,0.7,1.5,1.5S11.8,81,11,81z"/>
			
				<linearGradient id="SVGID_00000007401391839041362560000000088690512470543749_" gradientUnits="userSpaceOnUse" x1="78.0738" y1="76.7574" x2="31.5544" y2="-3.8117" gradientTransform="matrix(1 0 0 -1 0 84)">
				<stop  offset="0" style="stop-color:#E1FF49"/>
				<stop  offset="0.35" style="stop-color:#AFF952"/>
				<stop  offset="0.5" style="stop-color:#87F559"/>
				<stop  offset="0.67" style="stop-color:#6CF598"/>
				<stop  offset="1" style="stop-color:#43F5F5"/>
			</linearGradient>
			<path style="fill:url(#SVGID_00000007401391839041362560000000088690512470543749_);" d="M57,81H20.2c-0.8,0-1.5-0.7-1.5-1.5
				s0.7-1.5,1.5-1.5H57c3,0,5.5-2.5,5.5-5.5V3h-5.9c-0.8,0-1.5-0.7-1.5-1.5S55.8,0,56.6,0h8.9v72.5C65.5,77.2,61.7,81,57,81z"/>
		</g>
		<rect x="29.9" y="8.5" class="st4" width="28.8" height="12.3"/>
		<g>
			<path class="st5" d="M36.1,14.6c0.1-0.8,0.1-1.2,0.2-1.7c-0.4,0.4-0.5,0.6-0.9,0.9c-0.3-0.5-0.4-0.7-0.7-1.1
				c0.8-0.6,1.4-1.2,1.8-2c0.1-0.3,0.2-0.5,0.3-0.7l1.3,0.2c-0.1,0.1-0.1,0.2-0.1,0.3c-0.1,0.2-0.1,0.3-0.2,0.5H42
				c0.5,0,0.9,0,1.2-0.1v1.3c-0.3,0-0.7-0.1-1.2-0.1h-5.1c-0.2,0.2-0.2,0.3-0.4,0.5c0.3,0,0.3,0,0.4,0h4.5c0.4,0,0.7,0,0.9,0
				c0,0.2,0,0.3-0.1,1.4c0,0.1,0,0.3,0,0.7h0.2c0.4,0,0.7,0,0.9,0v1.2c-0.3,0-0.5,0-0.9,0h-0.2c0,0.4,0,0.6-0.1,0.9h0.1
				c0.4,0,0.7,0,0.9,0v1.2c-0.2,0-0.5,0-0.9,0H42c-0.2,1.1-0.5,1.3-1.6,1.3c-0.2,0-0.4,0-0.8,0c0-0.5-0.1-0.7-0.2-1.1
				c0.4,0.1,0.7,0.1,0.9,0.1c0.3,0,0.4-0.1,0.5-0.3h-4c0,0.2-0.1,0.3-0.2,0.6l-1.3-0.1c0.3-0.9,0.5-1.7,0.7-2.6h-0.2
				c-0.5,0-0.7,0-1,0v-1.2c0.3,0,0.6,0,1.1,0L36.1,14.6L36.1,14.6z M38.3,16.7c0.1-0.3,0.1-0.6,0.1-0.9h-1.3
				c-0.1,0.4-0.1,0.6-0.2,0.9C37,16.7,38.3,16.7,38.3,16.7z M38.6,14.6c0-0.1,0-0.4,0.1-0.9h-1.2c0,0.4-0.1,0.6-0.1,0.9H38.6
				L38.6,14.6z M41,16.7c0-0.3,0.1-0.5,0.1-0.9h-1.4c0,0.3-0.1,0.7-0.1,0.9H41z M41.1,14.6c0-0.3,0-0.4,0-0.9h-1.3
				c0,0.4,0,0.7-0.1,0.9C39.8,14.6,41.1,14.6,41.1,14.6z"/>
			<path class="st5" d="M47.7,16.2c-0.2,1.2-0.6,2.1-1.4,3c-0.3-0.4-0.6-0.7-1.1-1.1c1.1-1.2,1.4-2.2,1.4-6.1c0-0.7,0-1.1-0.1-1.5
				c0.4,0,0.7,0,1.2,0h4.1c0.6,0,0.8,0,1.1,0c0,0.3,0,0.5,0,1.1v6.1c0,0.6-0.1,0.8-0.4,1C52.3,19,52,19,51.3,19c-0.3,0-0.6,0-1.1,0
				c-0.1-0.5-0.1-0.8-0.3-1.3c0.5,0.1,1.1,0.1,1.4,0.1c0.3,0,0.3,0,0.3-0.2v-1.5L47.7,16.2L47.7,16.2z M51.7,15v-1.1h-3.8
				c0,0.3,0,0.7-0.1,1.1H51.7L51.7,15z M51.7,12.8v-1h-3.8v1C47.9,12.8,51.7,12.8,51.7,12.8z"/>
		</g>
	</g>
</g>
</svg>
