<?xml version="1.0" encoding="utf-8"?>
<!-- Generator: Adobe Illustrator 27.1.1, SVG Export Plug-In . SVG Version: 6.00 Build 0)  -->
<svg version="1.1" id="_レイヤー_2" xmlns="http://www.w3.org/2000/svg" xmlns:xlink="http://www.w3.org/1999/xlink" x="0px"
	 y="0px" viewBox="0 0 236.5 81" style="enable-background:new 0 0 236.5 81;" xml:space="preserve">
<style type="text/css">
	.st0{fill:url(#SVGID_1_);}
	.st1{fill:url(#SVGID_00000014592030598906893030000016204098899602674604_);}
	.st2{fill:#F2762E;}
	.st3{fill:#FFFFFF;}
	.st4{fill:#CE2332;}
	.st5{fill:#111111;}
	.st6{fill:url(#SVGID_00000056389543348980466710000015257132739291844541_);}
	.st7{fill:url(#SVGID_00000104699107773556095490000004241151956993062272_);}
</style>
<g>
	<g>
		<path d="M31.6,24.1c0,0.3-0.1,0.5-0.1,1l0,4.3c0.9-0.2,1.5-0.5,2.1-0.9c0.7-0.5,1.2-1,1.6-1.8c0.3,0.5,0.5,0.6,0.9,1
			c-1.1,1.8-2.5,2.6-4.9,3c-0.2,0-0.3,0.1-0.5,0.1l-0.6-0.7c0.1-0.2,0.1-0.3,0.1-0.7l0-4.3c0,0,0-0.1,0-0.1c0-0.4,0-0.7,0-0.9H31.6
			L31.6,24.1z"/>
		<path d="M38.2,25.8c0.3,0.7,0.5,1.1,0.8,2l-1.1,0.3c-0.2-0.9-0.4-1.3-0.7-2L38.2,25.8L38.2,25.8z M42.8,25.9
			c0,0.1-0.1,0.2-0.1,0.5c-0.2,1.1-0.6,2-1,2.7c-0.6,0.8-1.3,1.4-2.5,2c-0.2-0.4-0.4-0.6-0.8-1c0.6-0.2,1-0.4,1.4-0.7
			c0.9-0.7,1.5-1.5,1.8-2.8c0.1-0.4,0.1-0.7,0.1-0.9L42.8,25.9L42.8,25.9z M39.9,25.5c0.4,0.8,0.6,1.2,0.8,1.9l-1,0.3
			c-0.2-0.6-0.4-1.3-0.7-2L39.9,25.5L39.9,25.5z"/>
		<path d="M50,31c-0.7-0.9-1.5-1.6-2.4-2.3c-0.7,0.9-1.8,1.6-3,2.2c-0.3-0.5-0.4-0.7-0.8-1.1c0.7-0.3,1.2-0.5,1.8-1
			c0.9-0.6,1.6-1.4,2.1-2.3c0.1-0.2,0.2-0.5,0.4-0.9l-2.3,0c-0.7,0-0.8,0-1.1,0.1l0-1.2c0.3,0,0.5,0,1,0h0.2l2.7,0
			c0.4,0,0.5,0,0.7-0.1l0.6,0.6c-0.1,0.1-0.2,0.2-0.3,0.5c-0.4,0.9-0.8,1.5-1.2,2.2c1,0.7,1.2,0.9,2.6,2.2L50,31L50,31z"/>
		<path d="M52.8,24.5c1,0.6,1.5,1,2.1,1.6l-0.8,1c-0.7-0.7-1.3-1.2-2.1-1.7C52,25.4,52.8,24.5,52.8,24.5z M52.1,29.4
			c0.7,0,1.7-0.3,2.4-0.6c1-0.4,1.7-1,2.4-2c0.4-0.5,0.6-1,0.8-1.6c0.4,0.4,0.5,0.6,1,0.9c-0.8,1.7-1.7,2.8-3.1,3.5
			c-0.6,0.3-1.6,0.7-2.3,0.8c-0.1,0-0.2,0.1-0.3,0.1c-0.2,0-0.2,0.1-0.4,0.1L52.1,29.4L52.1,29.4z"/>
	</g>
	<g>
		
			<linearGradient id="SVGID_1_" gradientUnits="userSpaceOnUse" x1="35.1267" y1="90.9446" x2="-11.7568" y2="9.7485" gradientTransform="matrix(1 0 0 -1 0 84)">
			<stop  offset="0" style="stop-color:#E1FF49"/>
			<stop  offset="0.35" style="stop-color:#AFF952"/>
			<stop  offset="0.5" style="stop-color:#87F559"/>
			<stop  offset="0.67" style="stop-color:#6CF598"/>
			<stop  offset="1" style="stop-color:#43F5F5"/>
		</linearGradient>
		<path class="st0" d="M11,81H0V8.5C0,3.8,3.8,0,8.5,0h38.2c0.8,0,1.5,0.7,1.5,1.5S47.6,3,46.8,3H8.5C5.5,3,3,5.5,3,8.5V78h8
			c0.8,0,1.5,0.7,1.5,1.5S11.8,81,11,81z"/>
		
			<linearGradient id="SVGID_00000134229510899120716340000005676624203251114380_" gradientUnits="userSpaceOnUse" x1="78.0738" y1="76.7574" x2="31.5544" y2="-3.8117" gradientTransform="matrix(1 0 0 -1 0 84)">
			<stop  offset="0" style="stop-color:#E1FF49"/>
			<stop  offset="0.35" style="stop-color:#AFF952"/>
			<stop  offset="0.5" style="stop-color:#87F559"/>
			<stop  offset="0.67" style="stop-color:#6CF598"/>
			<stop  offset="1" style="stop-color:#43F5F5"/>
		</linearGradient>
		<path style="fill:url(#SVGID_00000134229510899120716340000005676624203251114380_);" d="M57,81H20.2c-0.8,0-1.5-0.7-1.5-1.5
			s0.7-1.5,1.5-1.5H57c3,0,5.5-2.5,5.5-5.5V3h-5.9c-0.8,0-1.5-0.7-1.5-1.5S55.8,0,56.6,0h8.9v72.5C65.5,77.2,61.7,81,57,81z"/>
	</g>
	<rect x="29.9" y="8.5" class="st2" width="28.8" height="12.3"/>
	<g>
		<path class="st3" d="M36.1,14.6c0.1-0.8,0.1-1.2,0.2-1.7c-0.4,0.4-0.5,0.6-0.9,0.9c-0.3-0.5-0.4-0.7-0.7-1.1
			c0.8-0.6,1.4-1.2,1.8-2c0.1-0.3,0.2-0.5,0.3-0.7l1.3,0.2c-0.1,0.1-0.1,0.2-0.1,0.3c-0.1,0.2-0.1,0.3-0.2,0.5H42
			c0.5,0,0.9,0,1.2-0.1v1.3c-0.3,0-0.7-0.1-1.2-0.1h-5.1c-0.2,0.2-0.2,0.3-0.4,0.5c0.3,0,0.3,0,0.4,0h4.5c0.4,0,0.7,0,0.9,0
			c0,0.2,0,0.3-0.1,1.4c0,0.1,0,0.3,0,0.7h0.2c0.4,0,0.7,0,0.9,0v1.2c-0.3,0-0.5,0-0.9,0h-0.2c0,0.4,0,0.6-0.1,0.9h0.1
			c0.4,0,0.7,0,0.9,0v1.2c-0.2,0-0.5,0-0.9,0H42c-0.2,1.1-0.5,1.3-1.6,1.3c-0.2,0-0.4,0-0.8,0c0-0.5-0.1-0.7-0.2-1.1
			c0.4,0.1,0.7,0.1,0.9,0.1c0.3,0,0.4-0.1,0.5-0.3h-4c0,0.2-0.1,0.3-0.2,0.6l-1.3-0.1c0.3-0.9,0.5-1.7,0.7-2.6h-0.2
			c-0.5,0-0.7,0-1,0v-1.2c0.3,0,0.6,0,1.1,0L36.1,14.6L36.1,14.6z M38.3,16.7c0.1-0.3,0.1-0.6,0.1-0.9h-1.3
			c-0.1,0.4-0.1,0.6-0.2,0.9C37,16.7,38.3,16.7,38.3,16.7z M38.6,14.6c0-0.1,0-0.4,0.1-0.9h-1.2c0,0.4-0.1,0.6-0.1,0.9H38.6
			L38.6,14.6z M41,16.7c0-0.3,0.1-0.5,0.1-0.9h-1.4c0,0.3-0.1,0.7-0.1,0.9H41z M41.1,14.6c0-0.3,0-0.4,0-0.9h-1.3
			c0,0.4,0,0.7-0.1,0.9C39.8,14.6,41.1,14.6,41.1,14.6z"/>
		<path class="st3" d="M47.7,16.2c-0.2,1.2-0.6,2.1-1.4,3c-0.3-0.4-0.6-0.7-1.1-1.1c1.1-1.2,1.4-2.2,1.4-6.1c0-0.7,0-1.1-0.1-1.5
			c0.4,0,0.7,0,1.2,0h4.1c0.6,0,0.8,0,1.1,0c0,0.3,0,0.5,0,1.1v6.1c0,0.6-0.1,0.8-0.4,1C52.3,19,52,19,51.3,19c-0.3,0-0.6,0-1.1,0
			c-0.1-0.5-0.1-0.8-0.3-1.3c0.5,0.1,1.1,0.1,1.4,0.1c0.3,0,0.3,0,0.3-0.2v-1.5L47.7,16.2L47.7,16.2z M51.7,15v-1.1h-3.8
			c0,0.3,0,0.7-0.1,1.1H51.7L51.7,15z M51.7,12.8v-1h-3.8v1C47.9,12.8,51.7,12.8,51.7,12.8z"/>
	</g>
</g>
<g id="_レイヤー_4">
	<g>
		<g>
			<g>
				<g>
					<path class="st4" d="M92.7,68.5c-0.2,0-0.3-0.1-0.3-0.3V42.5c-0.7,0.5-1.3,1-2,1.5c-0.7,0.5-1.3,1-2,1.5
						c-0.1,0.1-0.2,0.1-0.3,0c-0.1,0-0.1-0.1-0.1-0.2v-4.7c0,0,0-0.1,0-0.1s0.1-0.1,0.1-0.1l4.5-3.2h4.5c0.2,0,0.3,0.1,0.3,0.3v30.9
						c0,0.2-0.1,0.3-0.3,0.3L92.7,68.5L92.7,68.5z"/>
					<path class="st4" d="M97.2,69h-4.4c-0.4,0-0.8-0.3-0.8-0.8V43.5c-0.4,0.3-0.8,0.6-1.2,0.9c-0.7,0.5-1.3,1-2,1.5
						c-0.3,0.2-0.6,0.2-0.8,0.1c-0.2-0.1-0.4-0.4-0.4-0.7v-4.7c0-0.1,0-0.2,0.1-0.3c0-0.1,0.1-0.2,0.2-0.2l4.7-3.4h4.7
						c0.4,0,0.8,0.3,0.8,0.8v30.9C97.9,68.7,97.6,69,97.2,69L97.2,69z M92.7,68v0.5V68L92.7,68z M92.9,68h4V37.6h-4.1l-4.2,3.1v4.1
						c0.5-0.4,1.1-0.8,1.6-1.2c0.7-0.5,1.3-1,2-1.5l0.8-0.6C92.9,41.5,92.9,68,92.9,68z"/>
				</g>
				<g>
					<path class="st4" d="M105.4,68.5c-0.2,0-0.3-0.1-0.3-0.3V64l12.1-15.2v0c0.4-0.6,0.7-1.1,0.9-1.5s0.2-0.9,0.2-1.4
						c0-1-0.4-1.9-1.1-2.8c-0.7-0.9-1.7-1.3-2.9-1.3c-1.1,0-2.1,0.4-2.9,1.2c-0.4,0.4-0.7,0.8-0.9,1.3c-0.2,0.5-0.3,1.1-0.4,1.7
						c0,0.1,0,0.1-0.1,0.2c-0.1,0-0.1,0.1-0.2,0.1h-4.4c-0.2,0-0.3-0.1-0.3-0.3c0-2.6,0.9-4.7,2.6-6.5c1.8-1.8,3.8-2.7,6.2-2.7
						c2.6,0,4.8,0.9,6.6,2.7h0c1.8,1.8,2.7,3.9,2.7,6.4c0,1.1-0.2,2.1-0.5,3s-0.8,1.8-1.4,2.6v0c-0.8,1-1.6,2.1-2.4,3
						c-0.8,1-1.6,2-2.4,3c-0.8,1-1.6,2-2.4,3s-1.6,2-2.4,3H123c0.2,0,0.3,0.1,0.3,0.3v4.4c0,0.2-0.1,0.3-0.3,0.3L105.4,68.5
						L105.4,68.5z"/>
					<path class="st4" d="M123,69h-17.6c-0.4,0-0.8-0.3-0.8-0.8v-4.4l12.5-15.6c0.3-0.4,0.4-0.7,0.5-1c0.1-0.4,0.2-0.8,0.2-1.2
						c0-0.9-0.3-1.7-1-2.5c-0.6-0.8-1.5-1.1-2.5-1.1c-1,0-1.8,0.3-2.6,1c-0.3,0.3-0.6,0.7-0.8,1.2c-0.2,0.5-0.3,1-0.4,1.6
						c0,0.2-0.1,0.4-0.2,0.5c-0.1,0.1-0.3,0.2-0.5,0.2h-4.4c-0.4,0-0.8-0.3-0.8-0.8c0-2.7,1-5,2.8-6.8c1.8-1.9,4.1-2.8,6.6-2.8
						c2.7,0,5.1,1,7,2.8l0.8,0.8h-0.1c1.4,1.7,2,3.7,2,5.9c0,1.1-0.2,2.2-0.5,3.2s-0.8,1.9-1.5,2.7l-0.9,1.1l0,0
						c-0.5,0.6-1,1.3-1.5,1.9c-0.8,1-1.6,2-2.4,3l-2.4,3c-0.6,0.7-1.2,1.5-1.8,2.2H123c0.4,0,0.8,0.3,0.8,0.8v4.4
						C123.7,68.6,123.4,68.9,123,69L123,69z M105.4,68v0.5V68L105.4,68z M105.6,68h17.1V64h-12.1l0.6-0.8c0.8-1,1.6-2.1,2.4-3l2.4-3
						c0.8-1,1.6-2,2.4-3s1.6-2,2.4-3l0.3-0.4c0.4-0.6,0.8-1.3,1-2c0.3-0.9,0.4-1.8,0.4-2.8c0-2.3-0.8-4.4-2.5-6.1l-0.4-0.4
						c-1.6-1.4-3.6-2.2-5.9-2.2s-4.2,0.8-5.9,2.5c-1.6,1.6-2.4,3.6-2.5,5.9h4c0.1-0.6,0.2-1.2,0.4-1.7c0.2-0.6,0.6-1.1,1-1.5
						c0.9-0.8,2-1.3,3.3-1.3c1.4,0,2.5,0.5,3.3,1.5c0.8,1,1.2,2,1.2,3.1c0,0.5-0.1,1-0.2,1.5c-0.2,0.5-0.5,1.1-1,1.7l-0.9,1.1v0
						l-11.1,13.9L105.6,68L105.6,68z M109.6,46C109.6,46,109.6,46,109.6,46C109.6,46,109.6,46,109.6,46z"/>
				</g>
				<g>
					<path class="st4" d="M130.1,74.2c-0.1,0.1-0.2,0.1-0.3,0s-0.1-0.1-0.1-0.2v-7.6c0-0.2,0.1-0.3,0.3-0.3h4.4
						c0.2,0,0.2,0.1,0.2,0.3v4.4c0,0.1,0,0.2-0.1,0.2L130.1,74.2L130.1,74.2z"/>
					<path class="st4" d="M130,74.8c-0.1,0-0.2,0-0.3-0.1c-0.3-0.1-0.4-0.4-0.4-0.7v-7.6c0-0.4,0.3-0.8,0.8-0.8h4.4
						c0.4,0,0.7,0.3,0.7,0.8v4.4c0,0.2-0.1,0.4-0.2,0.6l-4.5,3.3C130.3,74.7,130.1,74.8,130,74.8z M130.3,66.7v6.9l3.9-2.8v-4.1
						C134.2,66.6,130.3,66.6,130.3,66.7z"/>
				</g>
				<g>
					<path class="st4" d="M138.2,46c0-2.9,0.9-5.2,2.8-6.7c1.8-1.6,3.9-2.4,6.3-2.4c1.2,0,2.3,0.2,3.3,0.6s2,1,2.9,1.8
						c0.9,0.8,1.6,1.8,2.1,2.9s0.7,2.4,0.7,3.8v13.6c0,2.9-0.9,5.1-2.8,6.7c-1.8,1.6-3.9,2.4-6.3,2.4s-4.4-0.8-6.3-2.4
						c-1.8-1.6-2.8-3.8-2.8-6.7L138.2,46L138.2,46z M151.3,46.2c0-1.4-0.4-2.5-1.1-3.3c-0.7-0.8-1.7-1.2-3-1.2s-2.2,0.4-3,1.2
						s-1.1,1.9-1.1,3.3v13.1c0,1.4,0.4,2.5,1.1,3.3s1.7,1.2,3,1.2s2.2-0.4,3-1.2c0.7-0.8,1.1-1.9,1.1-3.3V46.2z"/>
					<path class="st4" d="M147.2,69.2c-2.5,0-4.7-0.8-6.6-2.5c-1.9-1.7-2.9-4.1-2.9-7.1V46c0-3.1,1-5.5,2.9-7.1
						c1.9-1.7,4.1-2.5,6.6-2.5c1.2,0,2.4,0.2,3.5,0.7c1.1,0.4,2.1,1.1,3.1,1.9c1,0.9,1.7,1.9,2.2,3.1c0.5,1.2,0.7,2.5,0.7,4v13.6
						c0,3-1,5.4-2.9,7.1C151.9,68.4,149.7,69.2,147.2,69.2L147.2,69.2z M147.2,37.3c-2.2,0-4.2,0.8-5.9,2.3
						c-1.7,1.5-2.6,3.6-2.6,6.4v13.6c0,2.8,0.9,4.9,2.6,6.4c1.7,1.5,3.7,2.3,5.9,2.3s4.2-0.8,5.9-2.3c1.8-1.5,2.6-3.6,2.6-6.4V46
						c0-1.4-0.2-2.6-0.7-3.7c-0.4-1-1.1-2-1.9-2.7c-0.9-0.7-1.8-1.3-2.8-1.7C149.4,37.5,148.3,37.3,147.2,37.3L147.2,37.3z
						 M147.2,64.3c-1.4,0-2.5-0.5-3.3-1.3c-0.8-0.9-1.2-2.1-1.2-3.6V46.2c0-1.5,0.4-2.7,1.2-3.6c0.8-0.9,1.9-1.3,3.3-1.3
						s2.5,0.5,3.3,1.3c0.8,0.9,1.2,2.1,1.2,3.6v13.1c0,1.5-0.4,2.8-1.2,3.6C149.7,63.9,148.6,64.3,147.2,64.3L147.2,64.3z
						 M147.2,42.3c-1.1,0-2,0.3-2.6,1s-1,1.7-1,2.9v13.1c0,1.3,0.3,2.3,1,3s1.5,1,2.6,1s2-0.3,2.6-1c0.6-0.7,1-1.7,1-3V46.2
						c0-1.3-0.3-2.2-1-2.9S148.3,42.3,147.2,42.3L147.2,42.3z"/>
				</g>
				<g>
					<path class="st4" d="M162.6,46c0-1.4,0.3-2.7,0.7-3.8s1.1-2.1,2-2.9c0.8-0.8,1.8-1.3,2.8-1.7s2.1-0.6,3.2-0.6
						c2.4,0,4.4,0.8,6.1,2.4c1.7,1.6,2.6,3.8,2.6,6.8v13.6c0,1.4-0.3,2.7-0.7,3.8c-0.5,1.1-1.1,2.1-1.9,2.9
						c-0.8,0.7-1.8,1.3-2.8,1.7s-2.1,0.6-3.4,0.7c-2.1-0.1-3.9-0.7-5.5-1.9v0c-0.8-0.6-1.5-1.4-2-2.3c-0.5-0.9-0.9-1.9-1.1-3.1
						c0-0.1,0-0.1,0-0.2c0.1-0.1,0.1-0.1,0.2-0.1h4.4c0.1,0,0.2,0.1,0.2,0.2c0.6,1.6,1.9,2.4,3.7,2.4c2.6,0,3.9-1.5,4-4.5v-2.6
						c-0.9,0.3-1.9,0.5-2.8,0.7s-1.8,0.2-2.6,0.2c-2,0-3.7-0.7-5.2-2.2h0c-1.4-1.4-2.1-3.7-2.1-6.7L162.6,46L162.6,46z M167.4,48.8
						c0,3,1.3,4.4,3.9,4.5c2.6,0,3.9-1.5,4-4.5v-2.5c-0.1-2.9-1.4-4.4-4-4.5c-2.6,0.1-3.9,1.6-3.9,4.5V48.8z"/>
					<path class="st4" d="M171.4,69.3c-1.8-0.1-3.5-0.5-5-1.4v0.1l-0.8-0.6c-0.9-0.7-1.6-1.5-2.1-2.4c-0.5-0.9-0.9-2-1.2-3.2
						c-0.1-0.2,0-0.4,0.1-0.6c0.1-0.2,0.4-0.3,0.6-0.3h4.4c0.3,0,0.5,0.2,0.7,0.5c0.6,1.5,1.6,2.2,3.2,2.2c2.3,0,3.4-1.3,3.5-4v-1.9
						c-0.8,0.2-1.5,0.4-2.2,0.5c-1,0.2-1.9,0.2-2.7,0.2c-2.1,0-4-0.7-5.5-2.3l-0.8-0.8h0.1c-1-1.5-1.6-3.6-1.5-6.2V46
						c0-1.5,0.3-2.8,0.8-4s1.2-2.2,2.1-3.1c0.9-0.8,1.9-1.4,2.9-1.8c1.1-0.4,2.2-0.7,3.4-0.7c2.5,0,4.7,0.8,6.5,2.5
						c1.8,1.7,2.8,4.1,2.8,7.1v13.7c0,1.5-0.3,2.8-0.8,4c-0.5,1.2-1.2,2.3-2,3.1c-0.9,0.8-1.9,1.4-2.9,1.8
						C173.8,69,172.7,69.3,171.4,69.3L171.4,69.3z M165.9,66.3l0.3,0.2c1.5,1.1,3.2,1.8,5.2,1.8c1.1,0,2.2-0.2,3.1-0.6
						s1.9-0.9,2.6-1.6c0.7-0.7,1.3-1.7,1.8-2.7c0.4-1.1,0.7-2.3,0.7-3.7V46c0-2.8-0.9-4.9-2.5-6.4c-1.6-1.5-3.6-2.2-5.8-2.2
						c-1.1,0-2.1,0.2-3,0.6c-1,0.4-1.9,0.9-2.6,1.7c-0.8,0.8-1.4,1.7-1.9,2.7c-0.4,1.1-0.7,2.3-0.7,3.7v2.9c0,2.9,0.6,5,1.9,6.3
						l0.4,0.4c1.3,1.1,2.7,1.6,4.4,1.6c0.8,0,1.7,0,2.6-0.2c0.9-0.2,1.9-0.4,2.8-0.7l0.6-0.2v3.2c-0.1,4.1-2.5,5-4.5,5
						c-2,0-3.4-0.9-4.1-2.6h-3.9c0.2,1,0.6,1.9,1,2.6C164.8,65.1,165.3,65.7,165.9,66.3L165.9,66.3z M163.3,61.4
						C163.3,61.4,163.3,61.5,163.3,61.4C163.3,61.5,163.3,61.4,163.3,61.4z M171.4,53.8c-2,0-4.4-0.9-4.4-5v-2.5c0-4,2.4-4.9,4.4-5
						c2,0,4.3,0.9,4.5,5v2.5C175.7,52.9,173.4,53.8,171.4,53.8z M171.4,42.3c-2.3,0.1-3.4,1.3-3.4,4v2.5c0,2.7,1.1,3.9,3.4,4
						c2.3,0,3.4-1.3,3.5-4v-2.5C174.7,43.6,173.6,42.3,171.4,42.3z"/>
				</g>
				<g>
					<path class="st4" d="M186.1,59.2c0-1.5,0.3-2.8,0.9-4c0.6-1.2,1.4-2.2,2.6-3c-0.9-0.8-1.6-1.7-2.1-2.7s-0.8-2.2-0.8-3.5
						c0-2.6,0.9-4.7,2.6-6.5c1.8-1.8,3.9-2.7,6.5-2.7s4.7,0.9,6.5,2.7c1.8,1.8,2.6,4,2.6,6.5c0,0.7-0.1,1.3-0.2,1.9
						c-0.1,0.6-0.4,1.1-0.6,1.6c-0.3,0.5-0.6,1-0.9,1.5c-0.4,0.5-0.8,0.9-1.2,1.3c2.3,1.7,3.5,4,3.5,7c0,1.4-0.2,2.7-0.7,3.8
						c-0.5,1.2-1.2,2.2-2.1,3.1c-0.9,0.8-2,1.5-3.1,1.9s-2.4,0.7-3.7,0.7c-2.6,0-4.9-0.9-6.8-2.6C187,64.3,186.1,62,186.1,59.2
						L186.1,59.2z M191,59.2c0,0.7,0.1,1.3,0.4,1.8s0.6,1,1,1.5c1,0.9,2.1,1.3,3.3,1.3s2.4-0.4,3.3-1.3c0.5-0.4,0.8-0.9,1.1-1.5
						c0.2-0.6,0.4-1.2,0.4-1.8c0-1.3-0.5-2.5-1.4-3.3c-0.9-0.9-2-1.3-3.3-1.3s-2.4,0.5-3.3,1.3C191.5,56.7,191,57.8,191,59.2z
						 M191.6,45.9c0,1.4,0.4,2.4,1.3,3.1c0.9,0.7,1.9,1.1,2.9,1.1s2-0.3,2.9-1.1c0.9-0.7,1.3-1.8,1.3-3.1s-0.4-2.4-1.3-3.1
						c-0.8-0.7-1.8-1.1-2.9-1.1s-2,0.4-2.9,1.1C192,43.5,191.6,44.6,191.6,45.9z"/>
					<path class="st4" d="M195.7,69.2c-2.8,0-5.2-0.9-7.1-2.8c-2-1.9-3-4.3-3-7.2c0-1.6,0.3-3,0.9-4.2c0.5-1.1,1.3-2,2.3-2.8
						c-0.7-0.8-1.3-1.6-1.8-2.5c-0.6-1.1-0.9-2.3-0.9-3.8c0-2.7,0.9-5,2.7-6.8c1.9-1.9,4.2-2.8,6.9-2.8s5,1,6.8,2.8
						c1.9,1.9,2.8,4.2,2.8,6.8c0,0.7-0.1,1.4-0.2,2s-0.4,1.2-0.6,1.7c-0.3,0.5-0.6,1-1,1.5c-0.2,0.3-0.5,0.6-0.8,0.9
						c2.1,1.7,3.2,4.1,3.2,7c0,1.5-0.3,2.8-0.8,4c-0.5,1.2-1.3,2.3-2.3,3.3c-1,0.9-2.1,1.6-3.3,2S197.1,69.2,195.7,69.2L195.7,69.2z
						 M195.7,37.3c-2.4,0-4.4,0.8-6.1,2.5c-1.6,1.7-2.4,3.7-2.4,6.1c0,1.2,0.2,2.3,0.7,3.3c0.5,0.9,1.2,1.8,2,2.6l0.4,0.4l-0.5,0.4
						c-1.1,0.8-1.9,1.7-2.4,2.8s-0.8,2.3-0.8,3.7c0,2.7,0.9,4.8,2.7,6.5c1.8,1.7,3.9,2.5,6.4,2.5c1.2,0,2.4-0.2,3.5-0.7
						s2.1-1.1,3-1.8c0.9-0.8,1.6-1.8,2-2.9c0.5-1.1,0.7-2.3,0.7-3.6c0-2.8-1.1-5-3.3-6.5l-0.5-0.3l0.4-0.4c0.4-0.4,0.8-0.8,1.1-1.2
						c0.3-0.4,0.6-0.9,0.9-1.4c0.2-0.5,0.4-1,0.6-1.5c0.1-0.5,0.2-1.1,0.2-1.7c0-2.4-0.8-4.5-2.5-6.2
						C200.2,38.2,198.2,37.3,195.7,37.3L195.7,37.3z M195.7,64.3c-1.4,0-2.6-0.5-3.6-1.5c-0.5-0.5-0.9-1-1.1-1.6s-0.4-1.3-0.4-2
						c0-1.5,0.5-2.7,1.6-3.7c1.1-1,2.3-1.5,3.6-1.5s2.6,0.5,3.7,1.5c1.1,1,1.6,2.2,1.6,3.7c0,0.7-0.1,1.4-0.4,2
						c-0.3,0.6-0.7,1.2-1.2,1.7C198.3,63.8,197.1,64.3,195.7,64.3L195.7,64.3z M195.7,55c-1.1,0-2.1,0.4-3,1.2
						c-0.8,0.8-1.2,1.7-1.2,3c0,0.6,0.1,1.1,0.3,1.6c0.2,0.5,0.5,1,0.9,1.3c0.9,0.8,1.8,1.2,3,1.2s2.1-0.4,3-1.2
						c0.4-0.4,0.7-0.8,0.9-1.3c0.2-0.5,0.3-1,0.3-1.6c0-1.2-0.4-2.2-1.3-2.9C197.8,55.4,196.9,55,195.7,55L195.7,55z M195.7,50.6
						c-1.2,0-2.2-0.4-3.2-1.2c-1-0.8-1.4-2-1.4-3.5s0.5-2.7,1.4-3.5c0.9-0.8,2-1.2,3.2-1.2s2.3,0.4,3.2,1.2c1,0.8,1.5,2,1.5,3.5
						s-0.5,2.7-1.5,3.5C198,50.2,196.9,50.6,195.7,50.6L195.7,50.6z M195.7,42.3c-1,0-1.8,0.3-2.6,1c-0.7,0.6-1.1,1.5-1.1,2.7
						s0.4,2.1,1.1,2.7c0.8,0.6,1.6,1,2.6,1s1.8-0.3,2.6-1c0.8-0.6,1.1-1.5,1.1-2.7s-0.4-2.1-1.1-2.7
						C197.5,42.6,196.7,42.3,195.7,42.3L195.7,42.3z"/>
				</g>
			</g>
			<path d="M217.8,68.7c0,1,0,1.5,0.1,1.9h-2.3c0.1-0.6,0.1-1.1,0.1-2V58.2c0-0.7,0-1.1-0.1-1.6c0.6,0,1,0.1,1.9,0.1h9.5
				c1,0,1.4,0,1.8-0.1c-0.1,0.5-0.1,0.9-0.1,1.8v10.1c0,0.8-0.2,1.3-0.7,1.5c-0.3,0.2-0.9,0.2-1.8,0.2c-0.5,0-1.2,0-1.9-0.1
				c-0.1-0.7-0.3-1.2-0.6-2c0.9,0.1,1.8,0.2,2.2,0.2c0.7,0,0.8-0.1,0.8-0.4v-3.4h-8.9L217.8,68.7L217.8,68.7z M221.1,58.7h-3.3v4.1
				h3.3V58.7z M226.7,62.8v-4.1h-3.5v4.1H226.7z"/>
			<g>
				<path class="st5" d="M93.1,22.5c-0.3,2.1-1,3.4-2.2,4.8c-0.4-0.5-0.7-0.8-1.2-1.1c0.9-0.9,1.3-1.6,1.7-2.8
					c0.4-1.4,0.6-3.1,0.6-6.9c0-1.3,0-1.8-0.1-2.4c0.6,0.1,1,0.1,1.7,0.1h6c0.8,0,1.2,0,1.7-0.1c0,0.4-0.1,0.8-0.1,1.6v9.8
					c0,0.7-0.2,1-0.5,1.3c-0.3,0.2-0.7,0.2-1.5,0.2c-0.5,0-1,0-1.7-0.1c-0.1-0.6-0.2-0.9-0.4-1.4c0.8,0.1,1.5,0.2,2.2,0.2
					c0.4,0,0.6-0.1,0.6-0.4v-2.9L93.1,22.5L93.1,22.5z M99.8,21.2v-2.3h-6.4c0,0.5,0,1.4-0.1,2.3H99.8z M99.8,17.6v-2.1h-6.4v2.1
					H99.8z"/>
				<path class="st5" d="M111.5,16h-4.1v1.4h-1.3c0-0.3,0.1-0.6,0.1-0.9v-0.7c0-0.3,0-0.6-0.1-1c0.2,0,0.6,0,1.2,0h1.5v-0.4
					c0-0.4,0-0.6-0.1-1h1.5c-0.1,0.3-0.1,0.5-0.1,1v0.4h1.3c0.6,0,0.9,0,1.1,0v-1c0.4,0.1,0.7,0.1,1.5,0.1h4c0.8,0,1.2,0,1.5-0.1
					v1.4c-0.5-0.1-0.8-0.1-1.5-0.1h-1.2c-0.2,0.5-0.3,0.8-0.4,1.3h1.2c0.8,0,1.1,0,1.4-0.1c0,0.5,0,0.8,0,1.4v5.1c0,0.6,0,1,0,1.5
					c-0.5,0-0.9,0-1.3,0h-3.5c-0.4,0-0.5,0-1.2,0c0-0.4,0-1,0-1.4v-5.2c0-0.6,0-0.9-0.1-1.4c0.4,0,0.6,0,1.3,0h0.8
					c0.3-0.7,0.4-1,0.4-1.3h-1.5c-0.6,0-1.1,0-1.5,0.1c0,0.2,0,0.3,0,0.6v0.4c0,0.5,0,0.7,0,0.9h-1.1l0.6,0.6c0,0,0,0.1-0.1,0.1
					c-0.1,0.1-0.1,0.1-0.2,0.2c-0.6,0.9-1,1.5-1.6,2.1c0.8,0.5,1.3,0.7,2.5,1.1c-0.2,0.4-0.3,0.6-0.5,1.1c-0.3-0.1-0.3-0.1-0.5-0.2
					c0,0.3-0.1,0.6-0.1,1.2v2.7c0.5-0.2,0.7-0.3,1.1-0.5c0.7-0.4,1.1-0.8,1.6-1.4l1,0.8c-0.9,1-1.7,1.6-2.8,2.1
					c-0.4-0.5-0.5-0.7-0.8-1c0,0.2,0,0.3,0,0.6h-1.2v-0.6h-2.3v0.8H107c0-0.3,0.1-0.8,0.1-1.4v-2.3c0-0.3,0-0.4,0-0.7
					c-0.3,0.1-0.4,0.2-0.8,0.4c-0.2-0.5-0.4-0.8-0.7-1.1c1.2-0.4,2.1-0.9,3.1-1.6c-0.5-0.4-0.7-0.7-1-1.1c-0.4,0.5-0.7,0.7-1.1,1
					c-0.2-0.4-0.5-0.7-0.7-0.9c0.9-0.6,1.6-1.3,2.1-2.1c0.3-0.4,0.4-0.7,0.5-1l1.2,0.3c0,0.1-0.1,0.1-0.1,0.2
					c-0.1,0.2-0.2,0.3-0.3,0.5h1.3c0.5,0,0.8,0,1-0.1L111.5,16L111.5,16z M110.9,22.3c0.4,0,0.7,0,0.9,0c-0.8-0.4-1.6-0.8-2.2-1.2
					c-0.6,0.5-1,0.8-1.8,1.3H110.9z M108.3,25.2h2.3v-1.8h-2.3V25.2z M108.6,18.3c-0.1,0.1-0.1,0.2-0.2,0.2c0.4,0.5,0.7,0.8,1.1,1.2
					c0.4-0.4,0.6-0.7,1.1-1.4H108.6L108.6,18.3z M114.3,18.7h3.4v-1.1h-3.4V18.7z M114.3,20.9h3.4v-1.1h-3.4V20.9z M114.3,23.2h3.4
					V22h-3.4V23.2z M117.2,24.4c0.9,0.9,1.4,1.2,2.9,1.8c-0.3,0.4-0.6,0.7-0.8,1.2c-1.3-0.6-2-1.2-3-2.2
					C116.2,25.2,117.2,24.4,117.2,24.4z"/>
			</g>
			<g>
				<path class="st5" d="M216.7,42.8c-0.3,0.1-0.5,0.1-1,0.2c-0.1-0.4-0.2-0.7-0.5-1.2c1.2-0.1,1.9-0.3,2.8-0.7
					c0.2-0.1,0.3-0.2,0.4-0.2l0.8,1.1c-0.1,0-0.1,0.1-0.3,0.1c-0.3,0.1-0.5,0.2-1,0.3v1.2h0.2c0.4,0,0.5,0,0.7,0V45
					c-0.2,0-0.4,0-0.7,0H218c0.4,0.8,0.6,1.1,1.2,1.7c-0.3,0.5-0.3,0.7-0.5,1.2c-0.3-0.4-0.4-0.6-0.7-1.2c0,0.2,0,0.7,0,1v1.8
					c0,0.6,0,1,0.1,1.3h-1.4c0-0.4,0.1-0.7,0.1-1.3V48c0-0.2,0-0.9,0.1-1.1c-0.3,0.8-0.6,1.4-1.1,2.1c-0.2-0.6-0.3-0.9-0.6-1.3
					c0.7-0.8,1.2-1.8,1.5-2.7H216c-0.4,0-0.6,0-0.8,0v-1.3c0.2,0,0.4,0,0.8,0h0.6L216.7,42.8L216.7,42.8z M220.2,43.1
					c-0.3-0.7-0.5-1.2-0.9-1.6l1.2-0.5c0.4,0.6,0.6,1.1,0.9,1.7l-1.1,0.5h1.6c0.4-0.7,0.6-1.3,0.8-2.1l1.4,0.4
					c-0.4,0.9-0.7,1.4-0.9,1.7h0.2c0.4,0,0.6,0,0.9,0c0,0.2,0,0.4,0,0.8v2c0,0.3,0,0.5,0,0.8c-0.3,0-0.5,0-0.9,0h-0.4v2.6
					c0,0.2,0,0.2,0.2,0.2c0.1,0,0.1,0,0.1,0h0c0.3,0,0.3-0.1,0.4-1.4c0.4,0.3,0.7,0.4,1.1,0.5c-0.1,1.2-0.1,1.5-0.3,1.8
					c-0.2,0.3-0.5,0.4-1.5,0.4c-0.9,0-1.2-0.2-1.2-1v-3.1h-0.6h0.1c-0.1,1.4-0.3,2-0.7,2.7c-0.4,0.7-0.8,1.1-1.6,1.5
					c-0.3-0.5-0.4-0.7-0.9-1.1c0.6-0.3,1-0.7,1.4-1.2c0.3-0.5,0.5-1.2,0.5-1.9v-0.1H220c-0.3,0-0.6,0-0.8,0c0-0.3,0-0.5,0-0.8v-2
					c0-0.2,0-0.5,0-0.8c0.3,0,0.5,0,0.8,0L220.2,43.1L220.2,43.1z M220.5,45.4h2.5v-1h-2.5V45.4z"/>
				<path class="st5" d="M226.7,44.9c0.3,0,0.4,0,0.9,0h1c0.3,0,0.6,0,0.8,0c0,0.3,0,0.6,0,1.2v2.2c0.1,0.3,0.2,0.3,0.5,0.5
					c0.5,0.3,1,0.4,2.7,0.4s3-0.1,4.1-0.2c-0.2,0.6-0.3,0.9-0.3,1.5c-0.8,0-2.8,0.1-3.5,0.1c-2.6,0-3.3-0.2-4.1-1.2
					c-0.3,0.3-0.6,0.5-1.1,0.9c-0.1,0.1-0.2,0.2-0.3,0.2c-0.1,0.1-0.1,0.1-0.1,0.1l-0.6-1.4c0.3-0.1,1-0.5,1.5-0.9v-2.1h-0.6
					c-0.3,0-0.4,0-0.7,0L226.7,44.9L226.7,44.9z M227.8,41.2c0.8,0.7,1.4,1.2,1.9,1.9l-1,1c-0.7-0.9-1-1.3-1.9-2L227.8,41.2z
					 M231.1,42.7c-0.4,0-0.6,0-0.9,0v-1.4c0.2,0,0.4,0,0.9,0h1.7c0.3,0,0.6,0,0.8,0c0,0.2,0,0.5,0,0.6c0,0.6,0.1,1.5,0.4,2.1
					c0.3,0.8,0.7,1.6,1.2,2.2c0.4,0.5,0.7,0.8,1.4,1.2c-0.3,0.5-0.5,0.8-0.8,1.3c-0.7-0.5-1.2-1-1.6-1.6c-0.5-0.7-0.8-1.3-1.1-2.3
					c-0.3,1.1-0.6,1.7-1.1,2.4c-0.4,0.5-0.7,0.9-1.4,1.4c-0.3-0.5-0.5-0.7-1-1.1c0.9-0.7,1.5-1.4,2-2.3c0.3-0.6,0.5-1.2,0.6-1.8
					c0-0.2,0.1-0.3,0.1-0.9L231.1,42.7L231.1,42.7z"/>
			</g>
		</g>
		<g>
			<path d="M9.6,28c0.2,0.7,0.3,0.9,0.7,1.2c0.5,0.4,1.1,0.6,1.8,0.6c1.4,0,2.4-0.8,2.4-1.9c0-0.7-0.3-1.2-0.8-1.5
				c-0.4-0.2-1-0.4-1.7-0.4c-0.6,0-1.1,0-1.6,0.1v-1.8c0.5,0.1,0.8,0.1,1.4,0.1c1.5,0,2.3-0.7,2.3-1.8c0-1-0.7-1.6-1.9-1.6
				c-0.7,0-1.2,0.2-1.6,0.5c-0.3,0.3-0.4,0.5-0.6,1.1l-2.1-0.4C8.2,21,8.6,20.5,9.3,20c0.8-0.5,1.7-0.8,2.9-0.8c2.4,0,4,1.2,4,3.1
				c0,0.9-0.4,1.7-1,2.1c-0.3,0.2-0.6,0.4-1.4,0.6c1,0.2,1.6,0.4,2.1,1c0.5,0.5,0.7,1.2,0.7,2c0,0.8-0.3,1.6-0.9,2.1
				c-0.8,0.8-2,1.2-3.6,1.2c-1.7,0-2.9-0.4-3.7-1.4c-0.4-0.4-0.6-0.8-0.8-1.6L9.6,28L9.6,28z"/>
			<path d="M19,30.2c-0.4-0.4-0.8-1-1-1.5c-0.4-1-0.6-2.2-0.6-3.4c0-1.6,0.4-3.2,0.9-4.1c0.8-1.3,2.1-2,3.7-2c1.2,0,2.3,0.4,3.1,1.2
				c0.4,0.4,0.8,1,1,1.5c0.4,1,0.6,2.2,0.6,3.4c0,1.8-0.4,3.4-1.1,4.3c-0.8,1.1-2,1.7-3.6,1.7C20.8,31.4,19.8,30.9,19,30.2L19,30.2z
				 M23.7,29.1c0.7-0.7,1-2,1-3.8s-0.4-3-1-3.7c-0.4-0.4-0.9-0.6-1.6-0.6c-0.7,0-1.2,0.2-1.6,0.8c-0.6,0.8-1,2-1,3.6
				c0,1.6,0.3,2.8,0.8,3.5c0.5,0.6,1.1,1,1.9,1C22.7,29.7,23.3,29.5,23.7,29.1L23.7,29.1z"/>
		</g>
		<g>
			<g>
				<path d="M10,42.3c0.6,0.1,1,0.1,2,0.1h2c1.1,0,1.3,0,2-0.1c-0.1,1-0.1,1.8-0.1,2.9v9.3c0,1,0,1.7,0.1,2.5h-3.3
					c0.1-0.7,0.1-1.5,0.1-2.5V45H12c-0.7,0-1.3,0-2,0.1L10,42.3L10,42.3z"/>
				<path d="M22.2,47.4c0,0.1-0.1,0.5-0.1,0.7c0.9-0.7,1.8-1,3-1c1.5,0,2.8,0.5,3.7,1.4c0.9,0.9,1.3,2,1.3,3.5
					c0,3.3-2.2,5.3-5.7,5.3c-1.9,0-3.4-0.5-4.4-1.6c-0.6-0.6-0.9-1.1-1.3-2.2l3-0.5c0.2,0.5,0.3,0.7,0.5,1c0.5,0.6,1.1,0.8,2,0.8
					c1.7,0,2.8-1.1,2.8-2.7s-1-2.7-2.6-2.7c-0.8,0-1.5,0.2-2,0.7c-0.2,0.2-0.3,0.4-0.5,0.8l-2.8-0.3c0.1-0.8,0.2-1.1,0.2-1.8
					l0.4-4.7c0-0.7,0-0.8,0.1-1.9c0.6,0,1,0.1,2,0.1h4.7c1.4,0,1.9,0,2.7-0.1V45c-0.9-0.1-1.6-0.1-2.7-0.1h-4.2L22.2,47.4L22.2,47.4
					z"/>
				<path d="M34,55.8c-0.6-0.6-1-1.2-1.2-1.9c-0.5-1.3-0.7-2.7-0.7-4.1c0-1.9,0.4-3.9,1.1-5c1-1.7,2.8-2.7,4.9-2.7
					c1.6,0,3,0.5,4.1,1.6c0.6,0.6,1,1.2,1.2,1.9c0.5,1.3,0.7,2.7,0.7,4.1c0,1.9-0.4,3.9-1.1,5c-1,1.7-2.8,2.7-4.9,2.7
					C36.4,57.4,35,56.8,34,55.8L34,55.8z M35.1,49.6c0,3.4,1,5.2,3,5.2c0.7,0,1.3-0.2,1.8-0.7c0.8-0.8,1.2-2.3,1.2-4.3
					c0-3.4-1-5.2-3-5.2S35.1,46.5,35.1,49.6L35.1,49.6z"/>
				<path d="M48,55.8c-0.6-0.6-1-1.2-1.2-1.9c-0.5-1.3-0.7-2.7-0.7-4.1c0-1.9,0.4-3.9,1.1-5c1-1.7,2.8-2.7,4.9-2.7
					c1.6,0,3,0.5,4.1,1.6c0.6,0.6,1,1.2,1.2,1.9c0.5,1.3,0.7,2.7,0.7,4.1c0,1.9-0.4,3.9-1.1,5c-1,1.7-2.8,2.7-4.9,2.7
					C50.4,57.4,49,56.8,48,55.8L48,55.8z M49.1,49.6c0,3.4,1,5.2,3,5.2c0.7,0,1.3-0.2,1.8-0.7c0.8-0.8,1.2-2.3,1.2-4.3
					c0-3.4-1-5.2-3-5.2S49.1,46.5,49.1,49.6L49.1,49.6z"/>
			</g>
			<g>
				<path d="M15.8,67.7c0,0.1,0,0.2-0.2,0.7c-0.1,0.6-0.4,1.3-0.6,1.9c-0.3,0.6-0.5,1-0.9,1.6c-0.6-0.4-0.8-0.5-1.4-0.7
					c0.7-0.9,1.1-1.6,1.4-2.7c0.1-0.5,0.2-0.8,0.2-1.1L15.8,67.7L15.8,67.7z M21.7,66.8c-0.4-0.1-0.6-0.1-1.4-0.1h-2.1v4.6
					c0,0.5,0,1,0,1.4h-1.6c0-0.4,0.1-0.8,0.1-1.4v-4.6h-2c-0.8,0-1,0-1.4,0.1v-1.4c0.5,0.1,0.6,0.1,1.4,0.1h2V65
					c0-0.5,0-0.8-0.1-1.2h1.6c0,0.3-0.1,0.7-0.1,1.2v0.4h2.3c-0.3-0.2-0.4-0.5-0.4-0.9c0-0.6,0.5-1.1,1.1-1.1s1.1,0.5,1.1,1.1
					c0,0.4-0.2,0.7-0.5,0.9C21.7,65.5,21.7,66.8,21.7,66.8z M20.4,67.4c0.1,0.3,0.1,0.6,0.3,1.1c0.4,1.2,0.8,1.9,1.4,2.7
					c-0.7,0.4-0.9,0.5-1.4,0.8c-0.8-1.3-1.1-2.2-1.6-3.9c0-0.1,0-0.2-0.1-0.3C18.9,67.7,20.3,67.4,20.4,67.4z M20.6,64.5
					c0,0.3,0.2,0.5,0.5,0.5s0.5-0.2,0.5-0.5S21.4,64,21.1,64S20.6,64.3,20.6,64.5z"/>
				<path d="M32.4,64.8C32.2,65,32.2,65,32,65.2c-0.8,0.8-1.5,1.4-2.3,2v3.9c0,0.8,0,1.1,0,1.5h-1.6c0-0.4,0.1-0.6,0.1-1.4v-3
					c-1,0.6-1.6,0.9-3.4,1.6c-0.3-0.6-0.4-0.8-0.8-1.4c2-0.6,3.7-1.4,5.3-2.6c0.9-0.7,1.5-1.3,1.9-1.8L32.4,64.8L32.4,64.8z"/>
				<path d="M36.5,64.5c1.3,0.8,1.9,1.2,2.7,1.9l-1,1.3c-0.8-0.9-1.7-1.5-2.6-2.1L36.5,64.5z M35.5,70.7c0.9-0.1,2.1-0.3,3-0.7
					c1.3-0.5,2.2-1.3,2.9-2.4c0.5-0.7,0.7-1.2,1-2c0.5,0.6,0.7,0.7,1.3,1.2c-1,2.1-2.2,3.5-3.9,4.4c-0.8,0.4-2,0.8-2.9,1
					c-0.2,0-0.3,0.1-0.4,0.1c-0.2,0.1-0.3,0.1-0.5,0.1L35.5,70.7z"/>
				<path d="M48,72.6c0-0.4,0.1-0.7,0.1-1.4v-5.9c0-0.7,0-1-0.1-1.3h1.6c0,0.4-0.1,0.6-0.1,1.3v1.5c1.5,0.5,2.9,1.2,4.5,2.1
					l-0.8,1.4c-0.9-0.6-2.2-1.3-3.3-1.8c-0.2-0.1-0.2-0.1-0.4-0.2v2.9c0,0.6,0,1,0.1,1.4C49.6,72.6,48,72.6,48,72.6z"/>
			</g>
		</g>
		<g>
			
				<linearGradient id="SVGID_00000114773872092731543090000009532699806571657601_" gradientUnits="userSpaceOnUse" x1="35.1267" y1="90.9446" x2="-11.7568" y2="9.7485" gradientTransform="matrix(1 0 0 -1 0 84)">
				<stop  offset="0" style="stop-color:#E1FF49"/>
				<stop  offset="0.35" style="stop-color:#AFF952"/>
				<stop  offset="0.5" style="stop-color:#87F559"/>
				<stop  offset="0.67" style="stop-color:#6CF598"/>
				<stop  offset="1" style="stop-color:#43F5F5"/>
			</linearGradient>
			<path style="fill:url(#SVGID_00000114773872092731543090000009532699806571657601_);" d="M11,81H0V8.5C0,3.8,3.8,0,8.5,0h38.2
				c0.8,0,1.5,0.7,1.5,1.5S47.6,3,46.8,3H8.5C5.5,3,3,5.5,3,8.5V78h8c0.8,0,1.5,0.7,1.5,1.5S11.8,81,11,81z"/>
			
				<linearGradient id="SVGID_00000057131787199755322360000003581428774007201213_" gradientUnits="userSpaceOnUse" x1="78.0738" y1="76.7574" x2="31.5544" y2="-3.8117" gradientTransform="matrix(1 0 0 -1 0 84)">
				<stop  offset="0" style="stop-color:#E1FF49"/>
				<stop  offset="0.35" style="stop-color:#AFF952"/>
				<stop  offset="0.5" style="stop-color:#87F559"/>
				<stop  offset="0.67" style="stop-color:#6CF598"/>
				<stop  offset="1" style="stop-color:#43F5F5"/>
			</linearGradient>
			<path style="fill:url(#SVGID_00000057131787199755322360000003581428774007201213_);" d="M57,81H20.2c-0.8,0-1.5-0.7-1.5-1.5
				s0.7-1.5,1.5-1.5H57c3,0,5.5-2.5,5.5-5.5V3h-5.9c-0.8,0-1.5-0.7-1.5-1.5S55.8,0,56.6,0h8.9v72.5C65.5,77.2,61.7,81,57,81z"/>
		</g>
	</g>
</g>
</svg>
