<?xml version="1.0" encoding="UTF-8"?>
<svg id="_レイヤー_2" data-name="レイヤー 2" xmlns="http://www.w3.org/2000/svg" viewBox="0 0 288.7 142.12">
  <defs>
    <style>
      .cls-1 {
        fill: none;
      }

      .cls-2 {
        fill: #fff;
      }

      .cls-3 {
        fill: #ce2332;
      }

      .cls-4 {
        fill: #111;
      }
    </style>
  </defs>
  <g id="_レイヤー_4" data-name="レイヤー 4">
    <g>
      <g>
        <g>
          <g>
            <path d="m41.33,71.79c-1.7,0-2.02,0-2.78.08.1-1.06.22-1.74.48-2.46.52-1.56,1.46-2.96,2.78-4.16.74-.68,1.34-1.12,3.42-2.54,1.84-1.24,2.28-1.8,2.28-2.84,0-1.1-1-1.86-2.44-1.86-1.04,0-1.84.38-2.32,1.08-.3.44-.42.88-.54,1.78l-3.54-.4c.3-1.62.66-2.46,1.42-3.38,1.08-1.24,2.76-1.9,4.92-1.9,3.68,0,6.02,1.78,6.02,4.58,0,1.34-.6,2.56-1.76,3.6-.48.44-.64.56-3,2.2-.82.58-1.74,1.36-2.2,1.84-.46.5-.68.84-.94,1.48h5.06c1.38,0,2.32-.04,3.06-.16v3.2c-1.06-.1-1.88-.14-3.22-.14h-6.7Z"/>
            <path d="m57.25,70.39c-.62-.62-1.08-1.34-1.38-2.12-.52-1.4-.78-2.96-.78-4.58,0-2.12.48-4.3,1.24-5.54,1.14-1.92,3.08-2.96,5.46-2.96,1.8,0,3.38.6,4.52,1.74.62.62,1.1,1.34,1.38,2.12.52,1.4.78,2.96.78,4.6,0,2.1-.48,4.32-1.22,5.54-1.14,1.88-3.1,2.94-5.48,2.94-1.82,0-3.38-.6-4.52-1.74Zm1.24-6.84c0,3.8,1.12,5.76,3.3,5.76.8,0,1.48-.28,1.98-.8.84-.86,1.3-2.58,1.3-4.78,0-3.78-1.12-5.72-3.28-5.72s-3.3,2.04-3.3,5.54Z"/>
            <path d="m74.07,70.39c-.62-.62-1.08-1.34-1.38-2.12-.52-1.4-.78-2.96-.78-4.58,0-2.12.48-4.3,1.24-5.54,1.14-1.92,3.08-2.96,5.46-2.96,1.8,0,3.38.6,4.52,1.74.62.62,1.1,1.34,1.38,2.12.52,1.4.78,2.96.78,4.6,0,2.1-.48,4.32-1.22,5.54-1.14,1.88-3.1,2.94-5.48,2.94-1.82,0-3.38-.6-4.52-1.74Zm1.24-6.84c0,3.8,1.12,5.76,3.3,5.76.8,0,1.48-.28,1.98-.8.84-.86,1.3-2.58,1.3-4.78,0-3.78-1.12-5.72-3.28-5.72s-3.3,2.04-3.3,5.54Z"/>
          </g>
          <g>
            <path d="m43.28,89.18c-.03.13-.04.18-.19.81-.13.63-.42,1.45-.71,2.15-.3.67-.52,1.07-.97,1.73-.66-.44-.88-.56-1.52-.8.76-.99,1.17-1.79,1.53-3,.15-.52.22-.85.26-1.25l1.6.37Zm6.44-1c-.45-.05-.66-.07-1.58-.07h-2.3v5.02c0,.58.02,1.13.05,1.51h-1.77c.04-.42.07-.84.07-1.51v-5.02h-2.19c-.88,0-1.09.01-1.58.05v-1.6c.51.07.7.08,1.58.08h2.19v-.43c0-.54-.02-.89-.07-1.28h1.78c-.04.36-.07.75-.07,1.28v.43h2.49c-.3-.23-.46-.58-.46-.96,0-.67.55-1.22,1.22-1.22s1.21.54,1.21,1.22c0,.42-.21.8-.57,1.03v1.45Zm-1.45.62c.08.37.17.66.36,1.22.48,1.33.89,2.13,1.5,2.97-.79.42-.96.52-1.51.89-.86-1.47-1.24-2.42-1.77-4.35-.03-.13-.05-.2-.12-.35l1.54-.38Zm.27-3.11c0,.3.24.54.54.54s.53-.24.53-.54-.24-.53-.53-.53-.54.24-.54.53Z"/>
            <path d="m61.54,85.98c-.23.2-.25.22-.42.4-.84.87-1.67,1.59-2.57,2.24v4.33c0,.88.01,1.25.06,1.63h-1.82c.06-.42.07-.69.07-1.6v-3.34c-1.14.68-1.77.97-3.76,1.71-.3-.68-.43-.9-.89-1.5,2.22-.62,4.06-1.52,5.8-2.86.97-.75,1.71-1.49,2.04-2.04l1.51,1.02Z"/>
            <path d="m65.99,85.65c1.42.86,2.05,1.32,2.93,2.13l-1.11,1.44c-.91-.97-1.84-1.69-2.89-2.28l1.08-1.3Zm-1.03,6.82c1.01-.07,2.27-.36,3.28-.8,1.4-.58,2.38-1.41,3.23-2.7.5-.74.79-1.33,1.11-2.19.52.6.72.79,1.4,1.28-1.09,2.35-2.39,3.81-4.3,4.82-.88.46-2.15.91-3.2,1.14q-.27.06-.48.1c-.25.05-.32.08-.55.15l-.48-1.8Z"/>
            <path d="m78.65,94.55c.06-.42.07-.8.07-1.55v-6.51c0-.78-.01-1.09-.07-1.47h1.79c-.06.42-.07.67-.07,1.47v1.67c1.71.58,3.21,1.26,5.01,2.31l-.9,1.58c-.98-.67-2.42-1.45-3.69-2-.21-.09-.25-.11-.42-.2v3.17c0,.7.02,1.11.07,1.53h-1.79Z"/>
          </g>
        </g>
        <g>
          <path d="m136.64,51.18c.13.59.26.86.59,1.17.46.43,1.12.67,1.89.67,1.41,0,2.31-.72,2.31-1.87s-.82-1.82-2.42-1.82c-.8,0-1.34.03-1.94.08v-2.35c.48.06,1.02.1,1.52.1.79,0,1.39-.13,1.76-.37.48-.3.74-.77.74-1.38,0-1.04-.67-1.55-2-1.55-.74,0-1.33.26-1.68.7-.19.24-.27.45-.4.88l-2.85-.43c.32-.98.58-1.46,1.12-2.02.91-.91,2.22-1.38,3.94-1.38s2.96.45,3.79,1.28c.56.56.9,1.36.9,2.18s-.24,1.57-.7,2.1c-.43.5-.85.72-1.94,1.04,1.1.21,1.71.51,2.26,1.12.51.58.75,1.26.75,2.19s-.37,1.76-.98,2.37c-.91.9-2.35,1.36-4.21,1.36-1.95,0-3.43-.54-4.34-1.63-.45-.53-.66-.98-.93-1.9l2.82-.53Z"/>
          <path d="m150.19,53.82c-.5-.5-.86-1.07-1.1-1.7-.42-1.12-.62-2.37-.62-3.67,0-1.7.38-3.44.99-4.43.91-1.54,2.46-2.37,4.37-2.37,1.44,0,2.71.48,3.62,1.39.5.5.88,1.07,1.1,1.7.42,1.12.62,2.37.62,3.68,0,1.68-.38,3.46-.98,4.43-.91,1.5-2.48,2.35-4.39,2.35-1.46,0-2.71-.48-3.62-1.39Zm.99-5.47c0,3.04.9,4.61,2.64,4.61.64,0,1.18-.22,1.58-.64.67-.69,1.04-2.06,1.04-3.83,0-3.02-.9-4.58-2.63-4.58s-2.64,1.63-2.64,4.43Z"/>
          <path d="m173.54,41.7c.77,0,1.25-.02,1.74-.08-.06.67-.08,1.17-.08,1.71v10.37c0,.86.03,1.44.1,2.05h-2.29v-.88h-7.08v.88h-2.26c.06-.61.1-1.28.1-2.05v-10.32c0-.61-.03-1.17-.08-1.76.51.05,1.07.08,1.81.08h8.04Zm-.53,5.44v-3.43h-7.08v3.43h7.08Zm-7.08,1.98v3.73h7.08v-3.73h-7.08Z"/>
          <path d="m182.28,53.8c0,.99.03,1.6.1,2.05h-2.21c.06-.5.1-1.02.1-2.06v-10.53c0-.86-.02-1.3-.06-1.81.48.05.85.06,1.63.06h3.07c.85,0,1.22-.02,1.63-.06-.03.46-.05.83-.05,1.47v2.69c0,.78,0,1.06.03,1.42-.37-.02-.9-.03-1.39-.03h-2.85v6.8Zm0-10.16h2.34v-.66h-2.34v.66Zm0,1.95h2.34v-.66h-2.34v.66Zm8.12,7.23c0,.35,0,.59.02.91.42.03.62.05.83.05.56,0,.67-.06.67-.4v-6.39h-3.07c-.5,0-1.02.02-1.39.03.03-.48.03-.64.03-1.42v-2.69c0-.56-.02-.96-.05-1.47.48.05.82.06,1.65.06h3.27c.8,0,1.15-.02,1.63-.06-.05.58-.06.99-.06,1.79v10.45c0,1.07-.21,1.55-.78,1.81-.35.16-.94.22-1.94.22-.24,0-.29,0-1.15-.03-.1-.69-.18-1.06-.34-1.52-.3-.02-.45-.02-.74-.02h-3.38v.8h-1.92c.05-.46.06-1.04.06-1.66v-4.08c0-.56-.02-.99-.05-1.39.48.03.8.05,1.44.05h3.87c.66,0,.94-.02,1.44-.05-.03.38-.05.78-.05,1.39v3.62Zm-4.8-2.56h2.96v-.82h-2.96v.82Zm0,2.31h2.96v-.8h-2.96v.8Zm3.79-8.93h2.53v-.66h-2.53v.66Zm0,1.95h2.53v-.66h-2.53v.66Z"/>
          <path d="m200.35,48.86c-.61.62-1.22,1.17-2.06,1.84-.42-.88-.7-1.31-1.25-1.9,1.99-1.26,3.41-2.69,4.43-4.4h-2.02c-.82,0-1.41.03-1.97.1v-2.08c.54.06,1.15.1,1.99.1h2.91c.21-.56.35-1.09.43-1.6l2.35.26c-.11.24-.16.34-.37.9-.05.16-.06.18-.18.45h5.43c.83,0,1.44-.03,1.95-.1v2.08c-.54-.06-1.15-.1-1.95-.1h-6.34c-.26.46-.37.64-.67,1.12h5.43c.77,0,1.23-.02,1.67-.06-.06.5-.08,1.01-.08,1.81v6.8c0,.7-.22,1.17-.7,1.42-.35.21-.94.29-1.99.29-.38,0-.72-.02-1.46-.05-.08-.82-.19-1.25-.5-1.98.86.1,1.42.14,1.87.14.61,0,.72-.06.72-.43v-.9h-5.6v1.22c0,.88.03,1.52.1,2.08h-2.24c.06-.56.1-1.22.1-2.11v-4.88Zm7.65-1.52h-5.6v.93h5.6v-.93Zm-5.6,2.59v.96h5.6v-.96h-5.6Z"/>
          <path d="m217.82,48.26c.56.46.7.59,1.14.99.3-.69.42-1.04.56-1.76l1.7.85c-.59-.82-.9-1.36-1.52-2.74l1.58-.72c.66,1.42,1.12,2.13,2.13,3.12-.56.45-.8.7-1.34,1.36-.38-.43-.51-.59-.77-.93-.5,1.33-.61,1.62-.91,2.24.61.67.85.94,1.5,1.7l-1.44,1.49c-.53-.74-.71-.96-1.1-1.44-1.01,1.44-1.94,2.35-3.44,3.35-.35-.69-.74-1.22-1.23-1.74,1.47-.78,2.5-1.71,3.38-3.06-.58-.62-.8-.83-1.5-1.44l1.28-1.26Zm.8-2.69c-.86,1.97-1.39,2.75-2.72,4.07-.37-.82-.58-1.14-1.12-1.74.62-.53.86-.8,1.28-1.39.38-.58.54-.9.82-1.65l1.74.72Zm5.23.48c-.59,0-.9.02-1.22.06v-1.31c-.34-.03-.67-.03-1.26-.03h-4.77c-.53,0-.98.03-1.49.08v-2.02c.51.06.83.08,1.57.08h1.34v-.54c0-.62-.02-.93-.08-1.33h2.18c-.06.42-.08.77-.08,1.33v.54h1.1c.7,0,1.15-.02,1.58-.08v1.3c.32.03.54.05,1.15.05h.24c.02-.91.02-1.23.02-1.55,0-.66-.02-1.01-.1-1.46h2.19q-.06.58-.1,3.01h1.55c1.01,0,1.33-.02,1.73-.06-.06.64-.06.7-.1,3.25-.05,3.49-.3,6.08-.72,7.12-.22.61-.53.9-1.12,1.06-.34.1-.62.13-1.34.13-.54,0-.7,0-1.2-.05-.05-.9-.14-1.33-.42-2.08.66.13,1.12.18,1.47.18.62,0,.74-.13.9-.96.29-1.63.4-3.25.42-6.71h-1.26c-.32,4.8-1.46,7.63-3.94,9.81-.5-.7-.82-1.02-1.5-1.5,2.22-1.84,3.2-4.18,3.46-8.31h-.21Z"/>
        </g>
        <g>
          <g>
            <g>
              <path class="cls-3" d="m131.5,98.18c-.16,0-.25-.08-.25-.25v-4l9.8-20.96s.06-.06.1-.09.08-.05.12-.05h4.68c.08,0,.15.03.2.1s.05.15,0,.25l-9.72,20.57h6.99v-8.18c0-.15.08-.23.25-.23h4.18c.16,0,.25.08.25.23v8.18h2.11c.15,0,.23.08.23.25v3.94c0,.16-.08.25-.23.25h-2.11v4.08c0,.16-.08.25-.25.25h-4.18c-.16,0-.25-.08-.25-.25v-4.08h-11.94Z"/>
              <path class="cls-3" d="m147.87,103.01h-4.18c-.44,0-.75-.31-.75-.75v-3.58h-11.44c-.44,0-.75-.31-.75-.75l.05-4.21,9.9-21.1s.08-.08.14-.12c.17-.14.33-.17.44-.17h4.68c.24,0,.46.12.6.32.15.21.17.48.06.73l-9.39,19.87h5.7v-7.68c0-.43.31-.73.75-.73h4.18c.44,0,.75.3.75.73v7.68h1.61c.43,0,.73.31.73.75v3.94c0,.44-.3.75-.73.75h-1.61v3.58c0,.44-.31.75-.75.75Zm-3.93-1h3.68v-4.33h2.34v-3.43h-2.34v-8.41h-3.68v8.41h-8.28l9.89-20.92h-4.09l-9.7,20.71v3.63h12.18v4.33Z"/>
            </g>
            <g>
              <path class="cls-3" d="m155.76,108.11c-.08.05-.16.06-.25.02s-.12-.12-.12-.23v-7.2c0-.16.08-.25.25-.25h4.18c.15,0,.23.08.23.25v4.16c0,.08-.03.15-.08.21l-4.2,3.04Z"/>
              <path class="cls-3" d="m155.62,108.66c-.11,0-.22-.03-.33-.08-.25-.13-.4-.37-.4-.67v-7.2c0-.44.31-.75.75-.75h4.18c.43,0,.73.31.73.75v4.16c0,.22-.08.41-.23.56l-4.28,3.1c-.13.09-.27.13-.42.13Zm.27-7.7v6.44l3.66-2.64v-3.8h-3.66Z"/>
            </g>
            <g>
              <path class="cls-3" d="m163.39,81.22c0-2.76.87-4.89,2.6-6.38,1.72-1.52,3.7-2.28,5.93-2.28,1.11,0,2.16.19,3.15.58s1.92.95,2.78,1.69c.86.77,1.51,1.68,1.96,2.74s.67,2.27.67,3.64v12.9c0,2.75-.88,4.87-2.62,6.38-1.72,1.5-3.7,2.26-5.93,2.26s-4.2-.75-5.93-2.26c-1.74-1.49-2.6-3.62-2.6-6.38v-12.9Zm12.41.25c0-1.33-.35-2.36-1.06-3.11s-1.64-1.12-2.82-1.12-2.11.37-2.81,1.12-1.05,1.78-1.05,3.11v12.41c0,1.34.35,2.38,1.05,3.12s1.63,1.11,2.81,1.11,2.12-.37,2.82-1.11,1.06-1.78,1.06-3.12v-12.41Z"/>
              <path class="cls-3" d="m171.92,103.26c-2.34,0-4.45-.8-6.26-2.38-1.84-1.58-2.78-3.85-2.78-6.75v-12.9c0-2.9.94-5.17,2.78-6.76,1.8-1.59,3.91-2.4,6.25-2.4,1.16,0,2.29.21,3.33.62,1.04.41,2.02,1.01,2.92,1.78.92.82,1.62,1.8,2.09,2.92.47,1.12.71,2.41.71,3.83v12.9c0,2.89-.94,5.16-2.8,6.76-1.81,1.58-3.91,2.38-6.25,2.38Zm0-30.19c-2.09,0-3.98.72-5.6,2.15-1.64,1.41-2.44,3.37-2.44,6v12.9c0,2.63.79,4.6,2.43,6,1.62,1.42,3.51,2.14,5.6,2.14s3.98-.72,5.6-2.13c1.65-1.42,2.45-3.38,2.45-6v-12.9c0-1.29-.21-2.45-.63-3.45-.41-.99-1.03-1.85-1.83-2.56-.81-.69-1.7-1.23-2.63-1.6-.93-.36-1.93-.55-2.96-.55Zm0,25.53c-1.31,0-2.38-.43-3.17-1.26-.78-.83-1.18-2-1.18-3.46v-12.41c0-1.45.4-2.61,1.18-3.45.79-.85,1.86-1.28,3.17-1.28s2.38.43,3.18,1.27c.79.84,1.19,2,1.19,3.45v12.41c0,1.47-.4,2.63-1.19,3.46-.8.84-1.87,1.26-3.18,1.26Zm0-20.86c-1.04,0-1.84.31-2.44.96-.6.65-.91,1.58-.91,2.77v12.41c0,1.2.31,2.13.91,2.77.6.64,1.4.95,2.45.95s1.85-.31,2.46-.95c.61-.64.92-1.57.92-2.77v-12.41c0-1.19-.31-2.12-.92-2.76-.61-.65-1.41-.96-2.46-.96Z"/>
            </g>
            <g>
              <path class="cls-3" d="m186.07,81.22c0-2.76.87-4.89,2.6-6.38,1.72-1.52,3.7-2.28,5.93-2.28,1.11,0,2.16.19,3.15.58s1.92.95,2.78,1.69c.86.77,1.51,1.68,1.96,2.74s.67,2.27.67,3.64v12.9c0,2.75-.88,4.87-2.62,6.38-1.72,1.5-3.7,2.26-5.93,2.26s-4.2-.75-5.93-2.26c-1.74-1.49-2.6-3.62-2.6-6.38v-12.9Zm12.41.25c0-1.33-.35-2.36-1.06-3.11s-1.64-1.12-2.82-1.12-2.11.37-2.81,1.12-1.05,1.78-1.05,3.11v12.41c0,1.34.35,2.38,1.05,3.12s1.63,1.11,2.81,1.11,2.12-.37,2.82-1.11,1.06-1.78,1.06-3.12v-12.41Z"/>
              <path class="cls-3" d="m194.6,103.26c-2.34,0-4.45-.8-6.26-2.38-1.84-1.58-2.78-3.85-2.78-6.75v-12.9c0-2.9.94-5.17,2.78-6.76,1.8-1.59,3.91-2.4,6.25-2.4,1.17,0,2.29.21,3.33.62,1.04.41,2.02,1.01,2.92,1.78.92.82,1.62,1.8,2.09,2.92.47,1.12.71,2.41.71,3.83v12.9c0,2.89-.94,5.16-2.8,6.76-1.81,1.58-3.91,2.38-6.25,2.38Zm0-30.19c-2.09,0-3.98.72-5.6,2.15-1.64,1.41-2.44,3.37-2.44,6v12.9c0,2.63.79,4.6,2.43,6,1.62,1.42,3.51,2.14,5.6,2.14s3.98-.72,5.6-2.13c1.65-1.42,2.45-3.38,2.45-6v-12.9c0-1.29-.21-2.45-.63-3.45-.41-.98-1.03-1.85-1.83-2.56-.81-.69-1.7-1.23-2.63-1.6-.93-.36-1.93-.55-2.97-.55Zm0,25.53c-1.31,0-2.38-.43-3.17-1.26-.78-.83-1.18-2-1.18-3.46v-12.41c0-1.45.4-2.61,1.18-3.45.79-.85,1.86-1.28,3.17-1.28s2.38.43,3.18,1.27c.79.84,1.19,2,1.19,3.45v12.41c0,1.47-.4,2.63-1.19,3.46-.8.84-1.87,1.26-3.18,1.26Zm0-20.86c-1.04,0-1.84.31-2.44.96-.6.65-.91,1.58-.91,2.77v12.41c0,1.2.31,2.13.91,2.77.6.64,1.4.95,2.45.95s1.85-.31,2.46-.95c.61-.64.92-1.57.92-2.77v-12.41c0-1.19-.31-2.12-.92-2.76-.61-.65-1.42-.96-2.46-.96Z"/>
            </g>
            <g>
              <path class="cls-3" d="m210.43,81.22c0-2.76.87-4.89,2.6-6.38,1.72-1.52,3.7-2.28,5.93-2.28,1.11,0,2.16.19,3.15.58s1.92.95,2.78,1.69c.86.77,1.51,1.68,1.96,2.74s.67,2.27.67,3.64v12.9c0,2.75-.88,4.87-2.62,6.38-1.72,1.5-3.7,2.26-5.93,2.26s-4.2-.75-5.93-2.26c-1.74-1.49-2.6-3.62-2.6-6.38v-12.9Zm12.41.25c0-1.33-.35-2.36-1.06-3.11s-1.64-1.12-2.82-1.12-2.11.37-2.81,1.12-1.05,1.78-1.05,3.11v12.41c0,1.34.35,2.38,1.05,3.12s1.63,1.11,2.81,1.11,2.12-.37,2.82-1.11,1.06-1.78,1.06-3.12v-12.41Z"/>
              <path class="cls-3" d="m218.96,103.26c-2.34,0-4.45-.8-6.26-2.38-1.84-1.58-2.78-3.85-2.78-6.75v-12.9c0-2.9.94-5.17,2.78-6.76,1.8-1.59,3.91-2.4,6.25-2.4,1.17,0,2.29.21,3.33.62,1.04.41,2.02,1.01,2.92,1.78.92.82,1.62,1.8,2.09,2.92.47,1.12.71,2.41.71,3.83v12.9c0,2.89-.94,5.16-2.8,6.76-1.81,1.58-3.91,2.38-6.25,2.38Zm0-30.19c-2.09,0-3.98.72-5.6,2.15-1.64,1.41-2.44,3.37-2.44,6v12.9c0,2.63.79,4.6,2.43,6,1.62,1.42,3.51,2.14,5.6,2.14s3.98-.72,5.6-2.13c1.65-1.42,2.45-3.38,2.45-6v-12.9c0-1.29-.21-2.45-.63-3.45-.41-.98-1.03-1.85-1.83-2.56-.81-.69-1.7-1.23-2.63-1.6-.93-.36-1.93-.55-2.97-.55Zm0,25.53c-1.31,0-2.38-.43-3.17-1.26-.78-.83-1.18-2-1.18-3.46v-12.41c0-1.45.4-2.61,1.18-3.45.79-.85,1.86-1.28,3.17-1.28s2.38.43,3.18,1.27c.79.84,1.19,2,1.19,3.45v12.41c0,1.47-.4,2.63-1.19,3.46-.8.84-1.87,1.26-3.18,1.26Zm0-20.86c-1.04,0-1.84.31-2.44.96-.6.65-.91,1.58-.91,2.77v12.41c0,1.2.31,2.13.91,2.77.6.64,1.4.95,2.45.95s1.85-.31,2.46-.95c.61-.64.92-1.57.92-2.77v-12.41c0-1.19-.31-2.12-.92-2.76-.61-.65-1.42-.96-2.46-.96Z"/>
            </g>
          </g>
          <path d="m248.1,102.7c0,.97.02,1.5.08,1.88h-2.29c.08-.58.11-1.11.11-1.96v-10.32c0-.69-.02-1.11-.06-1.57.55.05.99.06,1.88.06h9.5c.96,0,1.41-.02,1.83-.06-.05.47-.06.89-.06,1.83v10.08c0,.8-.25,1.3-.74,1.53-.33.17-.88.23-1.82.23-.52,0-1.24-.02-1.94-.05-.11-.74-.27-1.24-.6-1.99.92.09,1.83.16,2.24.16.66,0,.78-.06.78-.38v-3.38h-8.92v3.91Zm3.33-9.94h-3.33v4.1h3.33v-4.1Zm5.59,4.1v-4.1h-3.54v4.1h3.54Z"/>
          <g>
            <path class="cls-4" d="m246.97,76.88c-.34.06-.49.09-.99.17-.08-.39-.21-.7-.47-1.17,1.16-.14,1.95-.31,2.78-.65.17-.06.31-.15.45-.24l.77,1.1q-.08.04-.27.12c-.31.13-.52.21-.97.34v1.25h.25c.35,0,.53-.01.73-.04v1.29c-.21-.03-.4-.04-.73-.04h-.21c.37.76.62,1.12,1.16,1.65-.27.53-.34.7-.52,1.2-.29-.37-.44-.59-.72-1.17.02.22.04.73.04,1.01v1.81c0,.63.01.95.06,1.31h-1.42c.04-.41.06-.73.06-1.31v-1.47c0-.21.03-.86.05-1.11-.28.85-.57,1.39-1.11,2.07-.19-.6-.32-.89-.59-1.33.69-.78,1.23-1.76,1.48-2.66h-.45c-.39,0-.56.01-.81.05v-1.31c.25.04.41.05.81.05h.62v-.93Zm3.58.3c-.29-.72-.51-1.15-.85-1.63l1.22-.52c.4.62.63,1.08.86,1.66l-1.1.49h1.64c.39-.74.6-1.3.81-2.14l1.38.42q-.58,1.28-.85,1.72h.2c.38,0,.56-.01.87-.04-.03.25-.04.43-.04.75v2.01c0,.33.01.52.04.78-.28-.03-.52-.04-.87-.04h-.39v2.63c0,.15.04.19.2.19.06.01.11.01.14.01h.03c.33,0,.34-.06.35-1.4.41.26.69.4,1.05.49-.06,1.17-.14,1.53-.32,1.78-.21.29-.53.37-1.54.37-.93,0-1.2-.21-1.2-.95v-3.12h-.62.1c-.11,1.36-.27,1.96-.7,2.72-.37.66-.8,1.08-1.56,1.5-.26-.45-.45-.67-.9-1.1.63-.3,1.04-.67,1.35-1.15.31-.51.5-1.22.5-1.88v-.1h-.06c-.34,0-.55.01-.82.04.02-.26.03-.49.03-.78v-2c0-.25-.01-.51-.03-.76.29.03.48.04.83.04h.23Zm.28,2.24h2.53v-1.02h-2.53v1.02Z"/>
            <path class="cls-4" d="m257.01,78.96c.27.04.45.05.85.05h.97c.3,0,.56-.01.79-.04-.03.32-.04.56-.04,1.16v2.24c.12.27.19.35.46.54.48.33,1.01.42,2.68.42s3.04-.08,4.12-.23c-.19.57-.26.89-.34,1.46-.77.03-2.77.07-3.54.07-2.62,0-3.29-.19-4.09-1.16-.31.3-.55.51-1.08.92-.14.1-.2.16-.26.21-.08.06-.09.07-.15.11l-.6-1.43c.34-.14,1-.54,1.47-.92v-2.11h-.57c-.27,0-.41.01-.68.05v-1.36Zm1.05-3.75c.8.68,1.38,1.25,1.89,1.91l-1.03,1.02c-.66-.87-1.02-1.26-1.86-1.98l1-.95Zm3.3,1.51c-.37,0-.62.01-.88.04v-1.36c.23.04.45.05.88.05h1.69c.34,0,.55-.01.76-.04-.01.15-.02.48-.02.63,0,.61.15,1.5.35,2.13.27.81.69,1.58,1.19,2.18.39.47.72.76,1.37,1.22-.34.45-.53.76-.79,1.33-.73-.53-1.16-.95-1.63-1.57-.51-.69-.8-1.28-1.13-2.29-.3,1.08-.58,1.66-1.12,2.37-.39.51-.73.86-1.4,1.4-.3-.47-.46-.65-.97-1.12.95-.68,1.54-1.38,1.99-2.31.26-.56.47-1.2.58-1.78.03-.18.05-.33.13-.89h-1.01Z"/>
          </g>
        </g>
        <path class="cls-2" d="m101.61,113.77H21.86V45.15l19.74-16.8h60.01v85.42Zm-78.75-1h77.75V29.35h-58.64l-19.11,16.26v67.16Z"/>
      </g>
      <rect class="cls-1" x="0" width="288.7" height="142.12"/>
    </g>
  </g>
</svg>