<?xml version="1.0" encoding="UTF-8"?>
<svg id="_レイヤー_2" data-name="レイヤー 2" xmlns="http://www.w3.org/2000/svg" viewBox="0 0 300 70">
  <defs>
    <style>
      .cls-1 {
        fill: none;
      }

      .cls-2 {
        fill: #b22332;
      }
    </style>
  </defs>
  <g id="newDesign">
    <g>
      <path class="cls-2" d="m54.02,36.56h.09v-17.81h8.68v32.5h-8.68l-9.71-17.81h-.09v17.81h-8.68V18.75h8.68l9.71,17.81Z"/>
      <path class="cls-2" d="m89.77,31.22v6.68h-11.58v6.23h12.47v7.12h-21.37V18.75h21.37v7.12h-12.47v5.34h11.58Z"/>
      <path class="cls-2" d="m122.32,18.75v7.35h-8.81v25.16h-9.08v-25.16h-8.82v-7.35h26.71Z"/>
      <path class="cls-2" d="m143.07,51.7c-5.25,0-9.46-1.49-12.62-4.47-3.16-2.98-4.74-7.06-4.74-12.22s1.52-9.31,4.56-12.27c3.04-2.95,7.31-4.43,12.8-4.43,4.19,0,7.75,1.04,10.69,3.12l-2.45,6.46c-2.46-1.63-4.91-2.45-7.35-2.45-2.88,0-5.12.82-6.72,2.47-1.6,1.65-2.4,4.02-2.4,7.1s.84,5.31,2.52,7.01c1.68,1.71,3.88,2.56,6.61,2.56,2.43,0,4.88-.82,7.35-2.45l2.45,6.46c-2.94,2.08-6.5,3.12-10.69,3.12Z"/>
      <path class="cls-2" d="m177.62,37.89h-9.35v13.36h-8.91V18.75h8.91v12.47h9.35v-12.47h8.9v32.5h-8.9v-13.36Z"/>
      <path class="cls-2" d="m193.47,51.25V18.75h9.8v32.5h-9.8Z"/>
      <path class="cls-2" d="m228.6,36.56h.09v-17.81h8.68v32.5h-8.68l-9.71-17.81h-.09v17.81h-8.68V18.75h8.68l9.71,17.81Z"/>
      <path class="cls-2" d="m252.37,45.02l-1.47,6.23h-9.26l10.69-32.5h9.35l10.69,32.5h-9.44l-1.51-6.23h-9.04Zm1.6-6.68h5.88l-2.89-12.02h-.09l-2.89,12.02Z"/>
    </g>
    <rect class="cls-1" width="300" height="70"/>
  </g>
</svg>