<?xml version="1.0" encoding="UTF-8"?>
<svg id="_レイヤー_2" data-name="レイヤー 2" xmlns="http://www.w3.org/2000/svg" xmlns:xlink="http://www.w3.org/1999/xlink" viewBox="0 0 316.95 52.33">
  <defs>
    <style>
      .cls-1 {
        fill: none;
      }

      .cls-2 {
        clip-path: url(#clippath);
      }

      .cls-3 {
        fill: #fabb00;
      }

      .cls-4 {
        fill: #fac014;
      }

      .cls-5 {
        fill: #fff;
      }

      .cls-6 {
        fill: #bababa;
      }

      .cls-7 {
        fill: #b12332;
      }

      .cls-8 {
        fill: #232323;
      }

      .cls-9 {
        fill: #595959;
      }
    </style>
    <clipPath id="clippath">
      <circle class="cls-1" cx="25.56" cy="26.17" r="14.34"/>
    </clipPath>
  </defs>
  <g id="layer">
    <g>
      <g>
        <rect class="cls-1" y="0" width="316.95" height="52.33"/>
        <g>
          <g>
            <circle class="cls-4" cx="25.56" cy="26.17" r="14.34"/>
            <g class="cls-2">
              <g>
                <path class="cls-5" d="m28.59,39.63c-3.86,0-7.48-1.5-10.21-4.23-5.63-5.63-5.63-14.79,0-20.42,2.73-2.73,6.35-4.23,10.21-4.23s7.48,1.5,10.21,4.23c5.63,5.63,5.63,14.79,0,20.42-2.73,2.73-6.35,4.23-10.21,4.23Zm0-27.67c-3.54,0-6.86,1.38-9.36,3.88-5.16,5.16-5.16,13.56,0,18.72,2.5,2.5,5.82,3.88,9.36,3.88s6.86-1.38,9.36-3.88c5.16-5.16,5.16-13.56,0-18.72-2.5-2.5-5.82-3.88-9.36-3.88Z"/>
                <path class="cls-5" d="m48.7,40.65c-3.96,0-7.92-1.51-10.94-4.52-6.03-6.03-6.03-15.85,0-21.88,2.92-2.92,6.81-4.53,10.94-4.53s8.02,1.61,10.94,4.53c6.03,6.03,6.03,15.85,0,21.88h0c-3.02,3.02-6.98,4.52-10.94,4.52Zm0-29.73c-3.81,0-7.39,1.48-10.09,4.18-5.56,5.56-5.56,14.62,0,20.18,5.56,5.56,14.62,5.56,20.18,0,5.56-5.56,5.56-14.62,0-20.18-2.7-2.7-6.28-4.18-10.09-4.18Z"/>
                <path class="cls-5" d="m33.56,39.63c-3.86,0-7.48-1.5-10.21-4.23-5.63-5.63-5.63-14.79,0-20.42,2.73-2.73,6.35-4.23,10.21-4.23s7.48,1.5,10.21,4.23c5.63,5.63,5.63,14.79,0,20.42-2.73,2.73-6.35,4.23-10.21,4.23Zm0-27.67c-3.54,0-6.86,1.38-9.36,3.88-5.16,5.16-5.16,13.56,0,18.72,2.5,2.5,5.82,3.88,9.36,3.88s6.86-1.38,9.36-3.88c5.16-5.16,5.16-13.56,0-18.72-2.5-2.5-5.82-3.88-9.36-3.88Z"/>
                <path class="cls-5" d="m56.39,39.63c-3.86,0-7.48-1.5-10.21-4.23-5.63-5.63-5.63-14.79,0-20.42,2.73-2.73,6.35-4.23,10.21-4.23s7.48,1.5,10.21,4.23c5.63,5.63,5.63,14.79,0,20.42-2.73,2.73-6.35,4.23-10.21,4.23Zm0-27.67c-3.54,0-6.86,1.38-9.36,3.88-5.16,5.16-5.16,13.56,0,18.72,2.5,2.5,5.82,3.88,9.36,3.88s6.86-1.38,9.36-3.88c5.16-5.16,5.16-13.56,0-18.72-2.5-2.5-5.82-3.88-9.36-3.88Z"/>
                <path class="cls-5" d="m48.22,40.65c-3.96,0-7.92-1.51-10.94-4.52-6.03-6.03-6.03-15.85,0-21.88,2.92-2.92,6.81-4.53,10.94-4.53s8.02,1.61,10.94,4.53c6.03,6.03,6.03,15.85,0,21.88h0c-3.02,3.02-6.98,4.52-10.94,4.52Zm0-29.73c-3.81,0-7.4,1.48-10.09,4.18-5.56,5.56-5.56,14.62,0,20.18,5.56,5.56,14.62,5.56,20.18,0,5.56-5.56,5.56-14.62,0-20.18-2.7-2.7-6.28-4.18-10.09-4.18Z"/>
                <path class="cls-5" d="m52.2,40.65c-3.96,0-7.92-1.51-10.94-4.52-2.92-2.92-4.53-6.81-4.53-10.94s1.61-8.02,4.53-10.94c2.92-2.92,6.81-4.53,10.94-4.53s8.02,1.61,10.94,4.53c6.03,6.03,6.03,15.85,0,21.88h0c-3.02,3.02-6.98,4.52-10.94,4.52Zm0-29.73c-3.81,0-7.4,1.48-10.09,4.18-2.7,2.7-4.18,6.28-4.18,10.09s1.48,7.4,4.18,10.09c5.56,5.56,14.62,5.56,20.18,0,5.56-5.56,5.56-14.62,0-20.18-2.7-2.7-6.28-4.18-10.09-4.18Z"/>
              </g>
            </g>
          </g>
          <g>
            <g>
              <g>
                <path class="cls-3" d="m33.43,24.25c-.15,0-.3-.04-.44-.11-2.65-1.47-4.01-3.82-3.55-6.14.45-3.17,3.57-6.28,6.95-6.9,2.88-.53,5.01,1.29,5.87,5,.11.48-.19.97-.67,1.08-.48.11-.97-.19-1.08-.67-.64-2.76-1.91-3.99-3.79-3.64-2.63.48-5.15,2.97-5.5,5.43-.31,1.57.71,3.19,2.65,4.27.43.24.59.79.35,1.22-.16.3-.47.46-.79.46Z"/>
                <path class="cls-3" d="m60.55,24.54c-.34,0-.67-.19-.82-.52-.21-.45-.01-.99.44-1.2,2.26-1.05,3.51-2.81,3.18-4.49-.36-2.51-2.88-4.99-5.51-5.47-1.96-.36-3.25.97-3.86,3.96-.1.49-.58.8-1.06.7-.49-.1-.8-.57-.7-1.06.8-3.96,2.97-5.92,5.95-5.37,3.37.62,6.49,3.73,6.96,6.94.49,2.47-1.16,5.01-4.2,6.42-.12.06-.25.08-.38.08Z"/>
                <path class="cls-3" d="m49.51,41.46c-1.53,0-2.6-.16-2.72-.17-.5-.02-1.13-.02-1.78-.03-3.5-.04-7.85-.1-10.7-3.03-1.99-2.04-2.92-5.11-2.85-9.38.22-13.37,14.93-14.6,15.07-14.61.04,0,.09,0,.13,0,3.93,0,13.18,1.36,15.76,13.71.5,4.48-.48,7.88-2.9,10.2-2.92,2.81-7.24,3.32-10.02,3.32Zm-2.87-25.43c-.87.07-13.19,1.3-13.38,12.84-.06,3.77.7,6.42,2.34,8.1,2.33,2.39,6.1,2.44,9.43,2.48.68,0,1.33.02,1.94.04.17.02,7.43,1.07,11.32-2.66,1.99-1.91,2.79-4.81,2.36-8.62-2.21-10.58-9.67-12.19-13.97-12.19h-.03Z"/>
                <path class="cls-3" d="m48.02,41.83c-.36,0-.73,0-1.11-.01-6.46.14-10.66-.97-13.23-3.48-1.94-1.9-2.88-4.49-2.88-7.91-.04-5.09,2.27-9.93,6.24-13.12-.06-.18-.09-.38-.07-.58.04-.46.3-.86.68-1.09.01-.11.04-.22.08-.33.21-.55.73-.89,1.31-.89s1.22.2,1.83.59c1.98-.84,4.03-1.23,6.12-1.17,4.05-.1,7.98,1.49,11.04,4.48,3.27,3.2,5.12,7.62,5.08,12.13,0,3.41-.94,6-2.88,7.9-2.44,2.39-6.31,3.5-12.19,3.5Zm-7.68-23.5c-.08.09-.18.17-.28.24-4.03,2.56-6.5,7.1-6.47,11.85,0,2.64.67,4.57,2.04,5.92,2,1.96,5.58,2.81,11.27,2.69.01,0,.03,0,.04,0,5.69.13,9.29-.72,11.3-2.69,1.38-1.35,2.04-3.28,2.04-5.91.03-3.76-1.52-7.44-4.24-10.12-2.52-2.47-5.76-3.79-9.06-3.68-2-.06-3.9.37-5.71,1.26-.12.06-.24.1-.36.12-.08.07-.17.14-.26.19-.08.05-.19.1-.32.14Zm-.61-1.91c0,.06-.02.13-.04.19.03-.05.07-.1.11-.15-.02-.01-.05-.03-.07-.04Z"/>
                <g>
                  <path class="cls-3" d="m61.24,27.55c-.49,0-.89-.39-.9-.88-.01-.5.38-.91.88-.92.25,0,.51-.08.73-.21.36-.21.61-.54.72-.94.11-.4.05-.82-.15-1.17l-2.04-3.53c-.43-.74-1.38-.99-2.11-.57-.22.12-.39.29-.53.51-.27.42-.82.54-1.24.27-.42-.27-.54-.83-.27-1.24.29-.45.68-.83,1.14-1.09,1.6-.92,3.65-.37,4.57,1.22l2.04,3.53c.45.77.57,1.68.33,2.54-.23.86-.79,1.59-1.56,2.03-.48.28-1.03.43-1.58.45,0,0-.02,0-.02,0Z"/>
                  <path class="cls-3" d="m61.25,27.92c-.49,0-.89-.39-.9-.88l-.02-.75c0-.24.08-.47.25-.64s.39-.27.63-.28c.19,0,.38-.06.55-.16.27-.16.46-.41.55-.71.08-.3.04-.62-.12-.89l-2.04-3.53c-.32-.56-1.04-.75-1.6-.43-.17.1-.3.22-.4.38-.13.2-.33.34-.56.4-.24.05-.48,0-.68-.12l-.63-.4c-.2-.13-.34-.33-.39-.56-.05-.23,0-.48.12-.68.32-.5.76-.92,1.27-1.22,1.78-1.03,4.06-.41,5.08,1.36l2.04,3.53c1.03,1.78.41,4.06-1.36,5.08-.54.31-1.14.48-1.76.5,0,0-.02,0-.02,0Z"/>
                </g>
                <g>
                  <path class="cls-3" d="m32.67,27.48s-.02,0-.03,0c-.54-.02-1.08-.17-1.55-.45-.77-.45-1.33-1.17-1.56-2.03-.23-.86-.11-1.77.33-2.54l2-3.46c.92-1.6,2.97-2.15,4.57-1.22.47.27.87.65,1.16,1.11.27.42.14.98-.28,1.24-.42.27-.98.14-1.24-.28-.13-.21-.31-.38-.53-.51-.74-.43-1.69-.17-2.11.57l-2,3.46c-.21.36-.26.77-.15,1.17.11.4.36.73.72.94.22.13.46.2.71.21.5.02.88.44.87.93-.02.49-.42.87-.9.87Z"/>
                  <path class="cls-3" d="m32.66,27.85s-.02,0-.03,0c-.6-.02-1.2-.19-1.72-.5-1.78-1.03-2.39-3.31-1.36-5.08l2-3.46c.5-.86,1.3-1.47,2.26-1.73.96-.26,1.96-.13,2.82.37.52.3.96.73,1.28,1.23.27.42.14.98-.28,1.24l-.63.4c-.42.27-.98.14-1.24-.28-.1-.16-.24-.29-.4-.39-.27-.16-.59-.2-.89-.12-.3.08-.56.27-.71.55l-2,3.46c-.32.56-.13,1.28.43,1.6.17.1.35.15.54.16.5.02.88.44.87.93l-.03.75c-.02.49-.42.87-.9.87Z"/>
                </g>
                <path class="cls-3" d="m39.57,33.98c-.13,0-.26,0-.39-.03-.62-.08-1.17-.48-1.54-1.14-.77-1.32-.8-3.48-.08-5.24.53-1.24,1.48-2.15,2.68-2.57,1.15-.4,2.44-.3,3.46.25.82.45,1.35,1.17,1.54,2.08.26,1.2-.13,2.62-1.02,3.82,0,0,0,.01-.01.02-1.13,1.44-2.95,2.8-4.63,2.8Zm2.12-7.43c-.29,0-.58.05-.87.15-.51.18-1.2.59-1.61,1.56-.54,1.33-.45,2.8-.08,3.55.13.27.25.35.28.35.75.1,2.19-.6,3.37-2.1.58-.77.84-1.68.7-2.36-.08-.4-.3-.69-.66-.88-.33-.18-.73-.28-1.13-.28Zm1.8,4.07h0,0Z"/>
                <path class="cls-3" d="m54.32,33.98c-1.68,0-3.5-1.36-4.63-2.8,0,0,0-.01-.01-.02-.89-1.2-1.28-2.62-1.02-3.82.19-.91.73-1.63,1.54-2.08,1.02-.56,2.32-.66,3.46-.26,1.21.42,2.16,1.33,2.68,2.56.73,1.77.69,3.93-.08,5.25-.38.65-.93,1.06-1.55,1.14-.13.02-.26.03-.39.03Zm-3.21-3.91c1.18,1.5,2.6,2.2,3.37,2.1.03,0,.15-.09.28-.36.37-.76.46-2.22-.08-3.55-.41-.96-1.1-1.38-1.61-1.55-.68-.23-1.42-.19-2,.13-.35.2-.57.48-.65.88-.15.68.12,1.58.7,2.36Z"/>
                <path class="cls-3" d="m46.95,36.66c-1,0-2.2-.53-2.79-1.23-.33-.39-.41-.88-.21-1.31.33-.72,1.34-1.08,3-1.08h0c1.66,0,2.67.36,3,1.09.2.43.12.92-.21,1.31-.6.7-1.8,1.23-2.79,1.23Zm-.24-1.82c.17.03.32.03.48,0-.08,0-.11,0-.25,0-.08,0-.16,0-.24,0Zm1.67-.58h0s0,0,0,0Z"/>
                <path class="cls-3" d="m46.95,37.59c-.69,0-1.24-.63-1.24-1.43s.54-1.43,1.24-1.43,1.24.63,1.24,1.43-.54,1.43-1.24,1.43Zm0-1.8c-.35,0-.57.26-.57.37s.21.37.57.37.56-.26.56-.37-.21-.37-.56-.37Z"/>
                <g>
                  <g>
                    <path class="cls-3" d="m41.98,30.73c-.7,0-1.27-.56-1.27-1.24s.57-1.24,1.27-1.24,1.27.56,1.27,1.24-.57,1.24-1.27,1.24Zm0-1.8c-.29,0-.54.25-.54.56s.24.56.54.56.54-.25.54-.56-.24-.56-.54-.56Z"/>
                    <path class="cls-3" d="m41.98,30.92c-.8,0-1.45-.64-1.45-1.43s.65-1.43,1.45-1.43,1.45.64,1.45,1.43-.65,1.43-1.45,1.43Zm0-1.8c-.19,0-.35.17-.35.37s.16.37.35.37.35-.17.35-.37-.16-.37-.35-.37Z"/>
                  </g>
                  <g>
                    <path class="cls-3" d="m41.98,30.85c-.76,0-1.38-.61-1.38-1.35s.62-1.35,1.38-1.35,1.38.61,1.38,1.35-.62,1.35-1.38,1.35Zm0-1.8c-.23,0-.42.2-.42.45s.19.45.42.45.42-.2.42-.45-.19-.45-.42-.45Z"/>
                    <path class="cls-3" d="m41.98,31.03c-.86,0-1.56-.69-1.56-1.54s.7-1.54,1.56-1.54,1.56.69,1.56,1.54-.7,1.54-1.56,1.54Z"/>
                  </g>
                </g>
                <g>
                  <g>
                    <path class="cls-3" d="m51.66,30.73c-.7,0-1.27-.56-1.27-1.24s.57-1.24,1.27-1.24,1.27.56,1.27,1.24-.57,1.24-1.27,1.24Zm0-1.8c-.29,0-.54.25-.54.56s.24.56.54.56.54-.25.54-.56-.24-.56-.54-.56Z"/>
                    <path class="cls-3" d="m51.66,30.92c-.8,0-1.45-.64-1.45-1.43s.65-1.43,1.45-1.43,1.45.64,1.45,1.43-.65,1.43-1.45,1.43Zm0-1.8c-.19,0-.35.17-.35.37s.16.37.35.37.35-.17.35-.37-.16-.37-.35-.37Z"/>
                  </g>
                  <g>
                    <path class="cls-3" d="m51.66,30.85c-.76,0-1.38-.61-1.38-1.35s.62-1.35,1.38-1.35,1.38.61,1.38,1.35-.62,1.35-1.38,1.35Zm0-1.8c-.23,0-.42.2-.42.45s.19.45.42.45.42-.2.42-.45-.19-.45-.42-.45Z"/>
                    <path class="cls-3" d="m51.66,31.03c-.86,0-1.56-.69-1.56-1.54s.7-1.54,1.56-1.54,1.56.69,1.56,1.54-.7,1.54-1.56,1.54Zm0-1.54h0,0Z"/>
                  </g>
                </g>
                <path class="cls-3" d="m49.03,38.5c-1.03,0-2.17-.49-2.61-.7-.62-.29-.88-1.03-.59-1.64.29-.62,1.03-.88,1.64-.59.51.24,1.06.4,1.38.44.08-.13.19-.24.31-.33.27-.2.6-.27.92-.22.32.05.61.22.8.49.2.27.27.59.22.92-.09.61-.44,1.09-.96,1.37-.31.17-.69.25-1.12.25Zm-.36-2h0s0,0,0,0Z"/>
                <path class="cls-3" d="m44.86,38.5c-.43,0-.81-.08-1.12-.25-.53-.28-.87-.77-.96-1.37-.05-.33.03-.65.22-.92.2-.27.48-.44.81-.49.32-.05.65.03.92.22.12.09.23.2.31.33.32-.05.87-.2,1.38-.44.62-.29,1.35-.03,1.64.59.29.61.03,1.35-.59,1.64-.44.21-1.58.7-2.61.7Zm.36-2s0,0,0,0c0,0,0,0,0,0Z"/>
                <g>
                  <path class="cls-3" d="m43.9,31.87c-.22,0-.51-.11-.68-.26-.41-.37-.45-1.01-.08-1.43.97-1.08,2.35-1.7,3.8-1.7.56,0,1.01.45,1.01,1.01s-.45,1.01-1.01,1.01c-.87,0-1.71.37-2.29,1.02-.17.19-.5.34-.75.34Z"/>
                  <path class="cls-3" d="m49.99,31.87c-.25,0-.58-.14-.75-.33-.59-.66-1.42-1.03-2.3-1.03-.56,0-1.01-.45-1.01-1.01s.45-1.01,1.01-1.01c1.45,0,2.83.62,3.8,1.7.37.42.34,1.06-.08,1.43-.17.15-.46.26-.68.26Z"/>
                </g>
              </g>
              <g>
                <path class="cls-3" d="m58.59,19.78c-.67,0-1.26-.45-1.42-1.1-.05-.17-1.35-4.49-10.22-4.49s-9.94,4.26-9.99,4.45c-.18.79-.96,1.28-1.75,1.11-.79-.17-1.29-.96-1.12-1.74.06-.27,1.58-6.75,12.85-6.75s13,6.43,13.07,6.7c.1.38.04.77-.16,1.11-.2.34-.52.58-.9.67-.12.03-.24.05-.36.05Zm.32-1.57s0,0,0,.01h0Z"/>
                <path class="cls-3" d="m58.59,20.03c-.78,0-1.47-.53-1.66-1.29-.05-.17-1.28-4.3-9.98-4.3s-9.7,4.08-9.74,4.25c-.21.92-1.13,1.5-2.05,1.3-.92-.2-1.5-1.12-1.3-2.04.06-.28,1.62-6.94,13.1-6.94s13.23,6.6,13.31,6.88c.11.45.05.91-.19,1.3-.23.4-.61.68-1.05.79-.14.04-.28.05-.43.05Z"/>
              </g>
              <g>
                <path class="cls-3" d="m54.29,39.83c-.71,0-1.32-.51-1.44-1.21-.14-.8.39-1.56,1.18-1.71,3.95-.72,6.5-2.26,7.58-4.58,1.91-4.1-1.16-9.65-1.19-9.7-.19-.33-.24-.73-.14-1.11.1-.38.35-.69.69-.89.34-.2.74-.24,1.12-.14.38.1.69.35.88.69.16.27,3.88,6.86,1.3,12.39-1.5,3.24-4.77,5.33-9.72,6.23-.1.02-.18.02-.26.02Zm7.11-17.75s0,0,0,0c0,0,0,0,0,0Zm.58-.33s0,0,0,0c0,0,0,0,0,0Z"/>
                <path class="cls-3" d="m54.29,40.08c-.83,0-1.54-.59-1.69-1.41-.17-.93.45-1.83,1.38-2,3.86-.7,6.35-2.19,7.4-4.43,1.85-3.97-1.06-9.26-1.19-9.48-.22-.39-.28-.85-.16-1.29.12-.44.41-.81.81-1.04.4-.23.86-.29,1.31-.16.44.12.81.41,1.04.81.16.27,3.94,6.96,1.31,12.61-1.54,3.31-4.87,5.46-9.9,6.37-.12.02-.21.03-.31.03Z"/>
              </g>
              <path class="cls-3" d="m55.57,39c-.41,0-.78-.28-.88-.69-.11-.48.18-.97.67-1.08,3.46-.82,5.81-3.14,5.83-3.17,3.51-3.78.22-10.97.19-11.04-.21-.45-.02-.99.43-1.2.45-.21.98-.02,1.2.43.16.34,3.84,8.36-.52,13.05-.13.13-2.74,2.73-6.71,3.67-.07.02-.14.02-.21.02Z"/>
              <path class="cls-3" d="m61.97,25.65c-.4,0-.76-.27-.87-.67-.25-.92-1.04-2.41-1.64-3.41-.17-.28-.17-.63-.02-.91.16-.28.45-.46.78-.46h1.54c.36-.03.62.16.78.44.86,1.24,1.46,2.44,1.74,3.5.06.23.03.48-.09.68-.12.21-.32.36-.55.42l-1.45.39c-.08.02-.16.03-.23.03Z"/>
              <g>
                <path class="cls-3" d="m53.5,41.11c-1.51,0-2.74-1.23-2.74-2.74s1.23-2.74,2.74-2.74,2.74,1.23,2.74,2.74-1.23,2.74-2.74,2.74Zm0-3.68c-.52,0-.94.42-.94.94s.42.94.94.94.94-.42.94-.94-.42-.94-.94-.94Z"/>
                <path class="cls-3" d="m53.5,41.36c-1.65,0-2.99-1.34-2.99-2.99s1.34-2.99,2.99-2.99,2.99,1.34,2.99,2.99-1.34,2.99-2.99,2.99Zm0-3.68c-.38,0-.69.31-.69.69s.31.69.69.69.69-.31.69-.69-.31-.69-.69-.69Z"/>
              </g>
            </g>
            <g>
              <g>
                <path class="cls-8" d="m33.43,23.35c-2.22-1.23-3.49-3.2-3.1-5.18.4-2.8,3.16-5.63,6.23-6.19,2.57-.47,4.13,1.31,4.83,4.32"/>
                <path class="cls-8" d="m53.1,16.64c.65-3.21,2.24-5.15,4.9-4.66,3.07.56,5.83,3.39,6.23,6.19.42,2.14-1.11,4.28-3.68,5.48"/>
                <path class="cls-5" d="m46.61,15.13s-14.04,1.03-14.24,13.73,8.96,11.29,14.56,11.54c0,0,16.26,2.5,14.62-12.28-2.14-10.27-9.16-13.01-14.94-12.99Z"/>
                <path class="cls-8" d="m48.02,40.93c-.35,0-.72,0-1.08-.01-6.21.13-10.23-.89-12.62-3.23-1.76-1.72-2.61-4.1-2.61-7.27-.04-5.14,2.51-10.07,6.71-13.04-.07-.03-.14-.05-.21-.08-.22-.07-.36-.28-.34-.51.02-.23.19-.42.42-.45.02,0,.23-.03.56-.02-.06-.06-.11-.11-.15-.15-.15-.14-.2-.36-.13-.55.07-.19.26-.32.47-.32.55,0,1.13.24,1.72.73,1.99-.92,4.07-1.37,6.2-1.31,3.86-.1,7.55,1.4,10.43,4.23,3.09,3.03,4.85,7.22,4.81,11.48,0,3.16-.85,5.54-2.61,7.26-2.25,2.2-5.94,3.24-11.56,3.24Zm-1.08-1.01c5.97.14,9.76-.8,11.95-2.94,1.56-1.52,2.31-3.67,2.31-6.55.03-3.99-1.61-7.91-4.52-10.76-2.69-2.64-6.13-4.05-9.72-3.94h-.03c-2.08-.06-4.11.4-6.05,1.35-.14.07-.29.07-.43,0-.03.13-.11.26-.24.33-.1.05-.28.11-.42.12-.03.11-.11.21-.21.28-4.29,2.72-6.92,7.56-6.88,12.62,0,2.89.76,5.03,2.31,6.56,2.19,2.14,5.98,3.08,11.93,2.94Z"/>
                <g>
                  <path class="cls-4" d="m57.07,19.35c.2-.32.49-.6.84-.8h0c1.17-.68,2.67-.27,3.34.9l2.04,3.53c.68,1.17.27,2.67-.9,3.34h0c-.36.21-.76.32-1.15.33"/>
                  <path class="cls-9" d="m61.25,27.02l-.02-.75c.34,0,.68-.1.98-.28.99-.57,1.33-1.84.76-2.83l-2.04-3.53c-.57-.99-1.84-1.33-2.83-.76-.29.17-.53.4-.71.68l-.63-.4c.24-.38.57-.7.97-.92,1.35-.78,3.08-.31,3.85,1.03l2.04,3.53c.78,1.35.31,3.08-1.03,3.85-.41.23-.87.36-1.33.38Z"/>
                </g>
                <g>
                  <path class="cls-4" d="m36.83,19.36c-.2-.32-.49-.6-.84-.81-1.17-.68-2.67-.27-3.34.9l-2,3.46c-.68,1.17-.27,2.67.9,3.34.36.21.75.31,1.13.33"/>
                  <path class="cls-9" d="m32.66,26.95c-.46-.02-.91-.15-1.31-.38-1.35-.78-1.81-2.51-1.03-3.85l2-3.46c.78-1.35,2.5-1.81,3.85-1.03.39.23.73.55.97.93l-.63.4c-.18-.29-.42-.52-.71-.69-.99-.57-2.26-.23-2.83.76l-2,3.46c-.57.99-.23,2.26.76,2.83.29.17.62.26.96.28l-.03.75Z"/>
                </g>
                <path class="cls-8" d="m43.49,30.62c-1.21,1.54-2.94,2.61-4.2,2.44-1.23-.16-1.85-2.86-.91-5.15.94-2.22,3.33-2.72,4.87-1.87,1.56.87,1.44,2.96.24,4.58Z"/>
                <path class="cls-8" d="m50.4,30.62c1.21,1.54,2.94,2.61,4.2,2.44,1.23-.16,1.85-2.86.91-5.15-.94-2.22-3.33-2.72-4.87-1.87-1.56.87-1.44,2.96-.24,4.58Z"/>
                <path class="cls-8" d="m49.06,34.85c-.43.5-1.37.91-2.11.91-.74,0-1.68-.41-2.11-.91-.43-.5.52-.91,2.11-.91,1.59,0,2.54.41,2.11.91Z"/>
                <ellipse class="cls-8" cx="46.95" cy="36.16" rx=".34" ry=".53"/>
                <g>
                  <g>
                    <ellipse class="cls-5" cx="41.98" cy="29.49" rx=".37" ry=".34"/>
                    <path class="cls-5" d="m41.98,30.02c-.3,0-.55-.24-.55-.53s.25-.53.55-.53.55.24.55.53-.25.53-.55.53Zm0-.68c-.1,0-.18.07-.18.16s.08.16.18.16.18-.07.18-.16-.08-.16-.18-.16Z"/>
                  </g>
                  <g>
                    <path class="cls-5" d="m41.98,29.95c-.26,0-.48-.2-.48-.45s.21-.45.48-.45.48.2.48.45-.21.45-.48.45Zm0-.68c-.14,0-.25.1-.25.23s.11.23.25.23.25-.1.25-.23-.11-.23-.25-.23Z"/>
                    <path class="cls-5" d="m41.98,30.13c-.37,0-.66-.29-.66-.64s.3-.64.66-.64.66.29.66.64-.3.64-.66.64Zm0-.68s-.07.02-.07.04c0,.04.14.04.14,0,0-.02-.03-.04-.07-.04Z"/>
                  </g>
                </g>
                <g>
                  <g>
                    <ellipse class="cls-5" cx="51.66" cy="29.49" rx=".37" ry=".34"/>
                    <path class="cls-5" d="m51.66,30.02c-.3,0-.55-.24-.55-.53s.25-.53.55-.53.55.24.55.53-.25.53-.55.53Zm0-.68c-.1,0-.18.07-.18.16s.08.16.18.16.18-.07.18-.16-.08-.16-.18-.16Z"/>
                  </g>
                  <g>
                    <path class="cls-5" d="m51.66,29.95c-.26,0-.48-.2-.48-.45s.21-.45.48-.45.48.2.48.45-.21.45-.48.45Zm0-.68c-.14,0-.25.1-.25.23s.11.23.25.23.25-.1.25-.23-.11-.23-.25-.23Z"/>
                    <path class="cls-5" d="m51.66,30.13c-.37,0-.66-.29-.66-.64s.3-.64.66-.64.66.29.66.64-.3.64-.66.64Zm0-.68s-.07.02-.07.04c0,.04.14.03.14,0,0-.02-.03-.04-.07-.04Z"/>
                  </g>
                </g>
                <path class="cls-8" d="m49.03,37.6c-.88,0-1.97-.49-2.23-.61-.17-.08-.24-.28-.16-.45.08-.17.28-.24.45-.16.71.33,1.9.7,2.33.48.06-.03.12-.08.14-.22.03-.18.2-.31.38-.28.18.03.31.2.28.38-.05.32-.22.57-.49.71-.2.11-.44.15-.7.15Z"/>
                <path class="cls-8" d="m44.86,37.6c-.26,0-.5-.04-.7-.15-.27-.14-.44-.39-.49-.71-.03-.18.1-.35.28-.38.18-.03.35.1.38.28.02.14.09.19.14.22.43.23,1.62-.14,2.33-.48.17-.08.37,0,.45.16.08.17,0,.37-.16.45-.26.12-1.34.61-2.23.61Z"/>
                <g>
                  <path class="cls-8" d="m43.9,30.97s-.05,0-.07-.03c-.05-.04-.05-.11,0-.16.8-.89,1.94-1.4,3.13-1.4.06,0,.11.05.11.11s-.05.11-.11.11c-1.13,0-2.21.48-2.96,1.32-.02.02-.05.04-.08.04Z"/>
                  <path class="cls-8" d="m49.99,30.97s-.06-.01-.08-.04c-.75-.84-1.83-1.32-2.96-1.32-.06,0-.11-.05-.11-.11s.05-.11.11-.11c1.19,0,2.33.51,3.13,1.4.04.05.04.12,0,.16-.02.02-.05.03-.07.03Z"/>
                </g>
              </g>
              <g>
                <path class="cls-4" d="m58.59,18.88c-.25,0-.48-.17-.55-.43-.06-.21-1.5-5.17-11.09-5.17s-10.82,4.94-10.86,5.15c-.07.31-.38.5-.68.43-.31-.07-.5-.37-.43-.67.05-.25,1.43-6.04,11.97-6.04s12.13,5.77,12.19,6.02c.08.3-.11.61-.41.69-.05.01-.09.02-.14.02Z"/>
                <path class="cls-6" d="m58.59,19.26c-.43,0-.81-.29-.91-.71-.05-.2-1.41-4.89-10.73-4.89s-10.45,4.66-10.5,4.85c-.12.51-.62.82-1.12.71-.5-.11-.83-.61-.72-1.12.06-.26,1.49-6.34,12.34-6.34s12.49,6.04,12.56,6.3c.06.24.03.5-.1.71-.13.22-.33.37-.58.43-.08.02-.15.03-.23.03Zm-11.64-5.84c9.51,0,10.92,4.86,10.97,5.07.09.36.47.59.84.5.18-.05.33-.16.42-.32s.12-.35.08-.53c-.06-.25-1.7-6.11-12.31-6.11s-12.04,5.89-12.09,6.14c-.08.37.16.74.53.82.36.08.74-.15.83-.52.05-.21,1.26-5.05,10.74-5.05Zm11.65,5.34c-.2,0-.38-.13-.43-.34-.06-.21-1.52-5.26-11.21-5.26s-10.94,5.03-10.99,5.24c-.05.24-.31.39-.53.34-.24-.05-.39-.29-.34-.52.05-.24,1.41-5.94,11.85-5.94s12.01,5.68,12.07,5.93c.03.11.01.23-.05.33-.06.1-.16.17-.27.2-.04,0-.07.01-.11.01Zm-11.65-5.84c9.88,0,11.4,5.22,11.46,5.44.03.11.13.17.24.14.05-.01.09-.04.12-.09s.03-.1.02-.15c-.01-.05-.1-.38-.36-.85.21.46.26.77.26.79l-.25.04c0-.05-.97-5.39-11.38-5.39-5.45,0-8.27,1.5-9.67,2.76-1.51,1.36-1.75,2.73-1.76,2.75l-.25-.04c0-.06.25-1.46,1.82-2.88,1.44-1.29,4.31-2.84,9.85-2.84,2.5,0,4.45.31,5.97.76-1.57-.51-3.56-.84-6.08-.84-10.24,0-11.56,5.51-11.61,5.74-.02.1.04.2.15.23.1.02.21-.05.23-.15.05-.22,1.36-5.44,11.23-5.44Z"/>
              </g>
              <g>
                <path class="cls-4" d="m54.29,38.93c-.27,0-.51-.19-.56-.47-.06-.31.15-.6.46-.66,4.25-.77,7.02-2.48,8.23-5.08,2.13-4.56-1.19-10.47-1.23-10.53-.16-.27-.06-.62.21-.77.27-.16.62-.06.77.21.15.26,3.64,6.47,1.27,11.57-1.38,2.96-4.42,4.88-9.06,5.72-.03,0-.07,0-.1,0Z"/>
                <path class="cls-6" d="m54.29,39.18c-.4,0-.73-.28-.8-.67-.08-.44.22-.87.66-.95,4.17-.76,6.87-2.42,8.05-4.94,2.05-4.39-1.08-10.06-1.22-10.3-.11-.19-.14-.41-.08-.62.06-.21.19-.39.38-.5s.41-.14.62-.08c.21.06.39.19.49.38.15.26,3.71,6.58,1.28,11.79-1.41,3.03-4.52,5.01-9.24,5.86-.05,0-.1.01-.15.01Zm7.4-17.58c-.06,0-.11.01-.16.04-.07.04-.13.11-.15.19-.02.08-.01.17.03.24.14.25,3.39,6.13,1.24,10.76-1.25,2.68-4.08,4.43-8.41,5.22-.17.03-.29.2-.26.37.03.17.2.28.38.26,4.55-.82,7.54-2.7,8.87-5.58,2.32-4.98-1.12-11.08-1.26-11.34-.04-.07-.11-.13-.19-.15-.03,0-.06-.01-.09-.01Z"/>
              </g>
              <path class="cls-6" d="m55.6,38.23l-.06-.24c3.69-.88,6.18-3.35,6.2-3.37,3.89-4.19.38-11.84.34-11.92l.23-.11c.04.08,3.62,7.88-.39,12.2-.03.03-2.56,2.55-6.32,3.44Z"/>
              <path class="cls-4" d="m61.98,24.75c-.38-1.42-1.73-3.64-1.74-3.65h1.54c.04.06,1.22,1.65,1.65,3.26l-1.45.39Z"/>
              <g>
                <rect class="cls-4" x="51.67" y="36.53" width="3.68" height="3.68" rx="1.84" ry="1.84"/>
                <path class="cls-6" d="m53.5,40.46c-1.15,0-2.09-.94-2.09-2.09s.94-2.09,2.09-2.09,2.09.94,2.09,2.09-.94,2.09-2.09,2.09Zm0-3.68c-.88,0-1.59.71-1.59,1.59s.71,1.59,1.59,1.59,1.59-.71,1.59-1.59-.71-1.59-1.59-1.59Z"/>
              </g>
            </g>
          </g>
        </g>
      </g>
      <g>
        <path class="cls-7" d="m78.66,39.67V14.09h6.92l12.77,15.64v-15.64h6.88v25.58h-6.88l-12.77-15.64v15.64h-6.92Z"/>
        <path class="cls-7" d="m128.27,23.82v5.1h-9.19v4.76h9.9v5.44h-16.97V14.3h16.97v5.44h-9.9v4.08h9.19Z"/>
        <path class="cls-7" d="m155.53,14.3v5.61h-7v19.21h-7.21v-19.21h-7v-5.61h21.22Z"/>
        <path class="cls-7" d="m180.58,22.64c-1.6-1.88-3.58-2.82-5.93-2.82-1.04,0-1.99.18-2.88.54-.88.36-1.64.85-2.28,1.48-.64.62-1.14,1.36-1.5,2.22-.37.86-.55,1.79-.55,2.78s.18,1.96.55,2.82c.36.86.87,1.61,1.52,2.24.65.63,1.41,1.13,2.28,1.49.87.36,1.81.54,2.82.54,2.21,0,4.2-.9,5.96-2.71v7.87l-.71.24c-1.06.36-2.05.63-2.96.8-.92.17-1.82.25-2.72.25-1.83,0-3.59-.33-5.28-1-1.68-.67-3.16-1.61-4.45-2.82s-2.31-2.65-3.09-4.31c-.78-1.66-1.16-3.48-1.16-5.45s.38-3.77,1.15-5.41c.76-1.64,1.79-3.05,3.07-4.24,1.28-1.19,2.77-2.11,4.46-2.78,1.69-.67,3.47-1,5.33-1,1.06,0,2.1.11,3.12.32,1.02.22,2.1.55,3.23,1v7.94Z"/>
        <path class="cls-7" d="m200.66,28.92h-7.43v10.2h-7.07V14.3h7.07v9.52h7.43v-9.52h7.07v24.82h-7.07v-10.2Z"/>
        <path class="cls-7" d="m214.66,39.12V14.3h7.78v24.82h-7.78Z"/>
        <path class="cls-7" d="m229.57,39.67V14.09h6.92l12.77,15.64v-15.64h6.88v25.58h-6.88l-12.77-15.64v15.64h-6.92Z"/>
        <path class="cls-7" d="m269.67,34.36l-1.17,4.76h-7.35l8.49-24.82h7.43l8.49,24.82h-7.5l-1.2-4.76h-7.18Zm1.27-5.1h4.67l-2.3-9.18h-.07l-2.3,9.18Z"/>
      </g>
    </g>
  </g>
</svg>