<?xml version="1.0" encoding="UTF-8"?>
<svg id="_レイヤー_2" data-name="レイヤー 2" xmlns="http://www.w3.org/2000/svg" viewBox="0 0 299.37 43.36">
  <defs>
    <style>
      .cls-1 {
        fill: #fac014;
      }

      .cls-2 {
        fill: #fff;
      }

      .cls-3 {
        fill: #ffc73b;
      }

      .cls-4 {
        fill: #ce001e;
      }

      .cls-5 {
        fill: #232323;
      }

      .cls-6 {
        fill: #595959;
      }
    </style>
  </defs>
  <g id="layer">
    <g>
      <g>
        <g id="_リピートラジアル_" data-name="&amp;lt;リピートラジアル&amp;gt;">
          <rect class="cls-3" x="20.98" y="1.94" width="1.55" height="15.54" transform="translate(-1.91 12.45) rotate(-30.66)"/>
        </g>
        <g id="_リピートラジアル_-2" data-name="&amp;lt;リピートラジアル&amp;gt;">
          <rect class="cls-3" x="27.87" y="0" width="1.55" height="15.54" transform="translate(-.09 .33) rotate(-.66)"/>
        </g>
        <g id="_リピートラジアル_-3" data-name="&amp;lt;リピートラジアル&amp;gt;">
          <rect class="cls-3" x="34.81" y="1.78" width="1.55" height="15.54" transform="translate(9.24 -16.21) rotate(29.34)"/>
        </g>
        <g id="_リピートラジアル_-4" data-name="&amp;lt;リピートラジアル&amp;gt;">
          <rect class="cls-3" x="39.93" y="6.79" width="1.55" height="15.54" transform="translate(32.47 -27.88) rotate(59.34)"/>
        </g>
        <g id="_リピートラジアル_-5" data-name="&amp;lt;リピートラジアル&amp;gt;">
          <rect class="cls-3" x="41.86" y="13.68" width="1.55" height="15.54" transform="translate(63.59 -21.43) rotate(89.34)"/>
        </g>
        <g id="_リピートラジアル_-6" data-name="&amp;lt;リピートラジアル&amp;gt;">
          <rect class="cls-3" x="40.09" y="20.62" width="1.55" height="15.54" transform="translate(85.63 6.67) rotate(119.34)"/>
        </g>
      </g>
      <g>
        <path class="cls-4" d="m67.98,38.1V9.49h7.73l14.28,17.49V9.49h7.69v28.61h-7.69l-14.28-17.49v17.49h-7.73Z"/>
        <path class="cls-4" d="m123.46,20.37v5.7h-10.28v5.32h11.07v6.08h-18.98V9.72h18.98v6.08h-11.07v4.56h10.28Z"/>
        <path class="cls-4" d="m153.95,9.72v6.27h-7.83v21.48h-8.07V16h-7.83v-6.27h23.73Z"/>
        <path class="cls-4" d="m181.97,19.05c-1.79-2.1-4-3.15-6.63-3.15-1.16,0-2.23.2-3.22.61-.99.4-1.83.95-2.54,1.65-.71.7-1.27,1.52-1.68,2.49-.41.96-.61,2-.61,3.11s.2,2.19.61,3.15c.41.96.97,1.8,1.7,2.5.72.71,1.57,1.27,2.54,1.67.97.4,2.03.61,3.16.61,2.47,0,4.7-1.01,6.67-3.04v8.8l-.79.27c-1.18.4-2.29.7-3.31.89-1.03.19-2.04.28-3.04.28-2.05,0-4.02-.37-5.9-1.12-1.88-.75-3.54-1.8-4.97-3.15-1.43-1.35-2.58-2.96-3.45-4.82-.87-1.86-1.3-3.89-1.3-6.09s.43-4.22,1.28-6.05c.85-1.83,2-3.41,3.43-4.74,1.43-1.33,3.1-2.36,4.99-3.11,1.89-.75,3.88-1.12,5.96-1.12,1.18,0,2.35.12,3.49.36,1.14.24,2.35.61,3.61,1.12v8.88Z"/>
        <path class="cls-4" d="m204.43,26.07h-8.3v11.41h-7.91V9.72h7.91v10.65h8.3v-10.65h7.91v27.76h-7.91v-11.41Z"/>
        <path class="cls-4" d="m220.09,37.48V9.72h8.7v27.76h-8.7Z"/>
        <path class="cls-4" d="m236.77,38.1V9.49h7.73l14.28,17.49V9.49h7.69v28.61h-7.69l-14.28-17.49v17.49h-7.73Z"/>
        <path class="cls-4" d="m281.61,32.16l-1.3,5.32h-8.23l9.49-27.76h8.3l9.49,27.76h-8.38l-1.34-5.32h-8.03Zm1.42-5.7h5.22l-2.57-10.27h-.08l-2.57,10.27Z"/>
      </g>
      <g>
        <g>
          <g>
            <path class="cls-2" d="m21.67,42.91c-.3,0-.57,0-.79,0-.59-.01-.97-.03-1.24-.06-8.02-.23-12.73-1.41-15.17-3.81-1.82-1.73-2.91-5.07-2.85-8.71.07-4.2,1.66-8.31,4.47-11.56,5.89-6.98,13.48-6.92,14.33-6.89,2.17.09,4.53.74,5.21.93,0,0,0,0,.01,0,.12.03.23.08.34.13,7.74,3.76,11.88,9.95,12.3,18.4.2,4.33-2,7.76-6.2,9.68-2.23,1.02-5,1.63-8.23,1.83-.71.04-1.44.07-2.17.07Zm-1.56-29.04c-1.44,0-7.59.36-12.51,6.19-2.51,2.91-3.92,6.56-3.99,10.3-.05,3.06.83,5.9,2.24,7.24,2.01,1.98,6.56,3.04,13.94,3.25.32.04.64.04,1.13.05.66.02,1.64.02,2.8-.05,2.98-.19,5.51-.74,7.52-1.66,3.51-1.6,5.2-4.21,5.03-7.76-.38-7.66-4.14-13.28-11.18-16.7h0s-.02,0-.02,0c-.24.02-.5-.05-.69-.19-.96-.25-2.56-.6-4.03-.67-.05,0-.13,0-.24,0Zm1.57,26.9c-1.04,0-1.72-.05-1.82-.06,0,0-.02,0-.03,0l.1-.99-.1.99c-7.36-.21-11.9-1.26-13.87-3.21-1.39-1.32-2.25-4.12-2.2-7.14.06-3.7,1.47-7.33,3.96-10.21,5.24-6.21,11.89-6.16,12.63-6.13,1.87.08,4,.65,4.61.83.06.02.11.04.17.06,6.93,3.39,10.63,8.95,11.01,16.53.11,2.36-.62,4.31-2.18,5.8-3.24,3.11-9.25,3.53-12.27,3.53Zm-1.67-2.05c.09,0,8.84.64,12.55-2.92,1.15-1.11,1.65-2.46,1.57-4.26-.34-6.76-3.64-11.74-9.81-14.79-.55-.15-2.47-.66-4.06-.73-.64-.02-6.39-.06-11.03,5.43-2.19,2.54-3.42,5.71-3.48,8.95-.05,2.81.78,4.9,1.58,5.65,1.11,1.1,4.16,2.42,12.56,2.66.02,0,.09,0,.13,0h0Z"/>
            <g>
              <g>
                <g>
                  <path class="cls-2" d="m5.84,24.59c-.37,0-.74-.1-1.06-.29-3.09-1.84-4.45-4.86-3.55-7.89.98-3.76,4.65-7.32,8.35-8.06,1.48-.3,2.81-.06,3.95.72,1.49,1.01,2.49,2.88,2.97,5.56.1.54-.02,1.09-.34,1.55-.32.45-.79.76-1.34.85-.54.1-1.09-.02-1.55-.34-.45-.32-.76-.79-.85-1.34-.38-2.15-1.03-2.73-1.22-2.86-.12-.08-.34-.18-.81-.08-2.17.43-4.58,2.81-5.17,5.09-.37,1.24.24,2.39,1.67,3.23.98.58,1.3,1.86.72,2.84-.37.62-1.05,1.01-1.78,1.01Zm4.93-14.36c-.25,0-.52.03-.79.08-2.91.58-6.03,3.62-6.82,6.64-.65,2.17.34,4.26,2.64,5.63h.04s.04,0,.06-.02c.02-.03,0-.08-.02-.1-2.21-1.32-3.2-3.4-2.58-5.45.78-3.03,3.79-5.97,6.71-6.55.89-.18,1.68-.05,2.33.39,1,.68,1.69,2.08,2.06,4.16,0,.03.05.06.08.06.03,0,.06-.05.06-.08-.38-2.12-1.09-3.56-2.12-4.26-.49-.33-1.03-.5-1.64-.5Z"/>
                  <path class="cls-2" d="m5.54,25.05c-.37,0-.74-.1-1.06-.29C1.19,22.81-.24,19.57.75,16.3c1.06-4.02,4.84-7.68,8.78-8.48,1.6-.32,3.03-.06,4.27.78,1.6,1.09,2.68,3.07,3.19,5.9.19,1.07-.48,2.12-1.54,2.38l-.98.24c-.55.14-1.15.03-1.63-.28-.48-.31-.81-.82-.91-1.38-.34-1.98-.87-2.43-.98-2.5-.04-.03-.15-.1-.51-.03-1.95.39-4.2,2.6-4.72,4.63,0,.02-.02.08-.03.1-.39,1.3.92,2.26,1.5,2.6.48.28.82.76.95,1.3.13.54.03,1.12-.27,1.59l-.6.94c-.38.6-1.04.95-1.75.95Zm5.28-15.36c-.28,0-.58.03-.89.09-3.14.63-6.39,3.8-7.25,7.06-.73,2.41.33,4.72,2.83,6.2h.04s.04,0,.06-.02l.6-.93-.02-.1c-2.02-1.21-2.93-3.09-2.39-4.91.71-2.77,3.58-5.57,6.27-6.1.8-.16,1.47-.05,2.03.34.87.6,1.48,1.88,1.82,3.81l.32,1.03-.24-.97.98-.24c-.36-2.36-1.15-3.91-2.29-4.69-.56-.38-1.17-.56-1.86-.56Z"/>
                </g>
                <g>
                  <path class="cls-2" d="m34.26,24.9c-.8,0-1.51-.44-1.86-1.16-.24-.5-.28-1.06-.1-1.58.18-.52.55-.95,1.05-1.19,1.72-.85,2.51-2.11,2.13-3.39-.61-2.36-3.03-4.74-5.19-5.17-.47-.1-.69,0-.82.09-.2.14-.89.79-1.26,3.17-.08.55-.38,1.03-.82,1.36-.45.33-.99.46-1.54.38-.55-.08-1.03-.38-1.36-.82s-.46-.99-.38-1.54c.44-2.86,1.44-4.86,2.98-5.94,1.15-.8,2.5-1.06,4.01-.75,3.69.74,7.37,4.3,8.36,8.09.97,3.24-.71,6.49-4.28,8.25-.29.14-.59.21-.91.21Zm-4.34-14.53c.24,0,.49.03.75.08,2.92.59,5.93,3.52,6.71,6.55.68,2.23-.56,4.49-3.16,5.76-.03.02-.05.07-.03.1l.06.04s.02,0,.03,0c2.65-1.3,3.92-3.62,3.24-5.91-.8-3.05-3.92-6.09-6.83-6.67-.96-.19-1.77-.05-2.47.43-1.07.75-1.8,2.3-2.15,4.6,0,.03.03.08.06.08.04,0,.08-.03.08-.06.35-2.26,1.05-3.78,2.09-4.51.47-.33,1.01-.49,1.61-.49Z"/>
                  <path class="cls-2" d="m34.53,25.38c-.76,0-1.45-.41-1.82-1.07l-.53-.97c-.27-.49-.32-1.08-.16-1.62.17-.54.56-.98,1.06-1.23,1.16-.57,2.27-1.61,1.91-2.81-.55-2.13-2.8-4.35-4.75-4.74-.35-.07-.45,0-.49.03-.12.08-.71.59-1.04,2.81-.08.56-.4,1.07-.87,1.39-.47.32-1.05.44-1.61.32l-.99-.21c-1.07-.23-1.78-1.26-1.61-2.35.48-3.02,1.55-5.14,3.2-6.29,1.24-.87,2.7-1.14,4.33-.82,3.94.79,7.72,4.46,8.8,8.54,1.05,3.48-.71,6.95-4.51,8.81-.28.14-.6.21-.91.21Zm-4.57-14.48c.21,0,.44.02.67.07,2.69.54,5.56,3.34,6.27,6.13.59,1.98-.56,4.01-2.94,5.18l-.03.1.59,1.01s.02,0,.03,0c2.91-1.43,4.24-3.91,3.46-6.47-.88-3.31-4.13-6.49-7.27-7.12-1.08-.22-2-.06-2.79.5-1.19.83-1.98,2.5-2.37,4.96l1.04.29s.09-.06.09-.06c.32-2.11.95-3.51,1.88-4.15.4-.28.85-.42,1.36-.42Z"/>
                </g>
                <path class="cls-2" d="m21.22,43.36h0c-.4,0-.82,0-1.29-.01-7.93.15-13.02-1.14-15.96-4.04-2.31-2.28-3.23-5.37-2.79-9.45.54-5.32,3.4-10.62,7.67-14.29,0-.11.01-.22.03-.33.08-.63.39-1.2.86-1.62.02-.05.04-.1.06-.15.41-.97,1.35-1.6,2.39-1.6.64,0,1.27.16,1.88.48,2.01-.82,3.97-1.18,5.99-1.1,4.18-.15,8.36,1.61,11.98,5.09,3.83,3.7,6.29,8.63,6.75,13.55.42,4.06-.51,7.15-2.83,9.43-2.81,2.76-7.49,4.05-14.73,4.05Zm-1.29-2.01c.5,0,.91.01,1.29.01,6.69,0,10.92-1.11,13.33-3.48,1.86-1.83,2.6-4.38,2.25-7.8-.42-4.45-2.66-8.94-6.15-12.3-3.22-3.09-6.88-4.66-10.59-4.53-1.95-.07-3.77.3-5.66,1.14-.31.14-.68.11-.96-.08-.42-.28-.84-.43-1.25-.43-.23,0-.45.15-.55.39-.02.04-.03.09-.04.14-.05.27-.21.51-.44.66-.16.1-.27.27-.29.46-.01.09,0,.17,0,.24.09.38-.04.77-.34,1.02-4.1,3.34-6.86,8.31-7.36,13.29-.37,3.44.35,5.99,2.21,7.82,2.53,2.5,7.15,3.61,14.55,3.47Zm1.22-1.2c-.39,0-.79,0-1.19-.01-7,.13-11.33-.86-13.61-3.12-1.63-1.61-2.25-3.81-1.93-6.94.49-5.19,3.72-10.46,8.22-13.4.04-.03.07-.05.1-.08.1-.1.22-.18.35-.23l.19-.1s.09-.05.12-.08c.13-.11.28-.19.45-.23.05-.01.09-.03.13-.05,2.04-1.04,4-1.51,6.03-1.43,3.5-.13,6.91,1.32,9.89,4.18,3.24,3.13,5.31,7.3,5.67,11.45.3,3.11-.33,5.32-1.97,6.93-2.13,2.1-6.21,3.13-12.45,3.13Zm-1.2-2.01s.02,0,.03,0c6.26.12,10.37-.73,12.21-2.54,1.18-1.16,1.62-2.85,1.38-5.32-.32-3.68-2.17-7.39-5.07-10.19-2.58-2.48-5.47-3.73-8.39-3.63-.02,0-.09,0-.1,0h-.08c-1.66-.06-3.32.33-5.04,1.21-.11.06-.23.11-.35.15-.09.07-.18.12-.28.18l-.1.06c-.05.03-.11.06-.16.09-.09.07-.18.14-.28.21-4.01,2.62-6.88,7.3-7.32,11.92-.25,2.48.18,4.17,1.35,5.32,1.82,1.81,5.91,2.66,12.16,2.55,0,0,.03,0,.04,0Z"/>
                <g>
                  <path class="cls-2" d="m31.82,19.82h0c-1.15,0-2.17-.75-2.55-1.85-.15-.39-1.78-4.12-9.25-4.12s-8.89,3.65-9.03,4.07c-.42,1.34-1.81,2.15-3.17,1.83-.69-.17-1.27-.6-1.63-1.22-.36-.63-.46-1.39-.25-2.1.26-.79,1.02-2.62,2.98-4.36,2.69-2.38,6.43-3.58,11.11-3.58,10.8,0,13.75,6.46,14.23,7.76,0,.02.03.1.04.12.22.69.16,1.46-.19,2.09-.34.63-.91,1.08-1.59,1.27-.23.06-.46.09-.69.09Zm-11.8-7.97c8.82,0,10.92,4.89,11.13,5.45.11.32.38.52.67.52v1s0-1,0-1c.05,0,.11,0,.16-.02.16-.04.28-.14.36-.29.08-.16.1-.36.04-.54-.41-1.1-2.89-6.48-12.36-6.48-4.18,0-7.47,1.04-9.78,3.08-1.6,1.42-2.2,2.86-2.39,3.41-.06.19-.03.39.05.54.08.14.21.24.37.28.33.08.7-.15.81-.5.19-.58,2.09-5.45,10.94-5.45Z"/>
                  <path class="cls-2" d="m31.84,20.09h0c-1.26,0-2.41-.85-2.81-2.06-.14-.37-1.68-3.91-9.01-3.91-7.29,0-8.66,3.46-8.79,3.85-.45,1.47-1.97,2.37-3.46,2.04-.81-.19-1.49-.72-1.87-1.44-.35-.67-.43-1.45-.21-2.2.27-.8,1.04-2.68,3.04-4.46,2.74-2.44,6.54-3.68,11.29-3.68,10.92,0,13.97,6.62,14.47,7.95,0,.01.03.09.04.11.24.74.19,1.52-.14,2.21-.35.73-1.01,1.28-1.8,1.5-.23.06-.48.1-.75.1h0Zm-11.82-7.97c8.68,0,10.69,4.71,10.89,5.24.15.44.52.73.93.73h0c.1,0,.17-.02.21-.03.24-.07.43-.22.53-.44.11-.22.12-.47.04-.72-.43-1.14-3-6.68-12.6-6.68-4.25,0-7.6,1.07-9.96,3.18-1.64,1.46-2.26,2.95-2.45,3.52-.08.26-.05.51.06.72.11.21.31.36.55.42.47.1.96-.2,1.11-.7.19-.56,2.01-5.25,10.69-5.25Z"/>
                </g>
                <g>
                  <path class="cls-2" d="m35.29,28.11c-1.13,0-2.04-.88-2.07-2.01-.02-.55.19-1.08.57-1.48.38-.4.89-.63,1.45-.65.07,0,.13-.02.17-.04.02-.01.06-.03.07-.12.03-.15-.02-.35-.14-.53-.85-1.26-1.69-2.54-2.51-3.8-.21-.32-.5-.41-.62-.33-.02.02-.05.04-.08.09-.26.49-.7.84-1.23,1-.53.16-1.09.1-1.58-.17-.49-.26-.84-.7-1-1.23-.16-.53-.1-1.09.17-1.58.36-.66.88-1.21,1.5-1.61,2.1-1.34,4.88-.65,6.33,1.58.8,1.24,1.63,2.5,2.46,3.74.75,1.11,1.02,2.47.75,3.72-.25,1.17-.95,2.15-1.96,2.77-.66.41-1.43.63-2.22.65,0,0-.05,0-.06,0Zm-2.97-10.99c.83,0,1.67.45,2.2,1.27.81,1.25,1.64,2.52,2.49,3.77.42.63.58,1.38.44,2.07-.13.59-.48,1.09-.98,1.4-.35.21-.74.33-1.16.34-.03,0-.07.04-.07.07l.07.07c.45-.01.88-.14,1.24-.36.54-.33.91-.86,1.05-1.49.16-.72,0-1.52-.46-2.18-.84-1.25-1.68-2.52-2.48-3.77-.84-1.29-2.41-1.72-3.57-.98-.34.22-.62.52-.82.88-.02.03,0,.08.03.1.04.02.08,0,.1-.03.19-.34.44-.62.77-.83.36-.23.77-.34,1.17-.34Z"/>
                  <path class="cls-2" d="m35.34,28.51c-1.05,0-1.93-.78-2.06-1.82l-.1-.8c-.07-.58.11-1.16.49-1.6.36-.41.86-.67,1.4-.71-.01-.03-.03-.06-.05-.1-.85-1.26-1.69-2.54-2.5-3.8-.04-.05-.08-.1-.12-.13-.24.44-.7.78-1.23.92-.55.14-1.15.05-1.64-.26l-.68-.44c-.91-.58-1.22-1.78-.7-2.73.39-.71.95-1.31,1.62-1.74,1.13-.72,2.48-.92,3.8-.55,1.24.34,2.33,1.15,3.05,2.28.8,1.24,1.63,2.5,2.47,3.73.82,1.21,1.12,2.69.82,4.06-.27,1.26-1.02,2.32-2.11,2.99-.72.44-1.55.68-2.41.71,0,0-.05,0-.06,0Zm-.17-2.86l.1.8.07.06c.51-.01,1.01-.16,1.43-.41.62-.38,1.04-.98,1.2-1.7.18-.83-.01-1.75-.53-2.51-.84-1.25-1.68-2.51-2.49-3.76-.46-.71-1.14-1.22-1.91-1.43-.77-.21-1.55-.1-2.19.31-.39.25-.71.6-.94,1.01l.7.53.98.45-.88-.47c.15-.28.38-.53.65-.7.45-.28.99-.36,1.52-.21.53.15,1.01.5,1.33,1,.8,1.25,1.64,2.52,2.48,3.77.34.5.47,1.08.39,1.63-.09.55-.39,1.01-.85,1.29-.29.18-.63.28-.98.28l-1.06.2.99-.12Z"/>
                </g>
                <g>
                  <path class="cls-2" d="m4.71,28.04s-.05,0-.06,0c-.8-.03-1.56-.26-2.21-.66-1-.62-1.7-1.6-1.95-2.76-.27-1.26,0-2.62.77-3.73.82-1.22,1.64-2.45,2.43-3.66,1.45-2.22,4.23-2.91,6.33-1.57.63.4,1.15.97,1.51,1.64.26.49.31,1.05.15,1.58-.16.53-.52.96-1.01,1.22-.49.26-1.05.31-1.58.15-.53-.16-.96-.52-1.22-1.01-.03-.05-.06-.08-.08-.09-.12-.08-.42.02-.63.34-.8,1.23-1.63,2.48-2.47,3.72-.12.18-.18.38-.14.53.02.08.05.09.07.11.03.02.08.04.17.04,1.14.04,2.04,1,2,2.14-.04,1.12-.95,2-2.07,2Zm2.99-11.06c-.88,0-1.76.48-2.33,1.34-.79,1.22-1.62,2.46-2.45,3.69-.45.67-.62,1.46-.47,2.19.14.63.5,1.15,1.04,1.48.36.22.78.34,1.21.36v1s0-1,0-1c.04,0,.07-.03.07-.07,0-.04-.03-.07-.07-.07-.42-.01-.8-.13-1.14-.34-.5-.31-.85-.8-.97-1.39-.15-.69.01-1.44.44-2.08.83-1.23,1.66-2.47,2.45-3.69.8-1.23,2.29-1.64,3.38-.94.32.21.58.49.77.84.02.03.07.05.1.03.03-.02.05-.07.03-.1-.19-.37-.48-.67-.82-.89-.39-.25-.82-.36-1.25-.36Z"/>
                  <path class="cls-2" d="m4.65,28.44s-.05,0-.06,0c-.86-.03-1.68-.28-2.38-.71-1.08-.67-1.83-1.72-2.1-2.98-.29-1.36.01-2.85.84-4.06.82-1.22,1.64-2.45,2.43-3.66.73-1.12,1.81-1.93,3.05-2.27,1.33-.37,2.68-.17,3.81.55.68.44,1.24,1.05,1.63,1.76.51.95.19,2.15-.72,2.73l-.68.43c-.48.31-1.08.4-1.64.25-.51-.14-.96-.47-1.23-.92-.04.03-.08.07-.12.12-.8,1.24-1.63,2.49-2.47,3.72-.02.04-.04.07-.05.1.53.04,1.03.3,1.39.72.38.45.55,1.03.47,1.61l-.11.8c-.14,1.02-1.02,1.79-2.05,1.79Zm3.08-11.86c-.25,0-.51.03-.77.11-.77.21-1.44.72-1.91,1.43-.8,1.22-1.62,2.46-2.46,3.69-.52.77-.72,1.68-.54,2.52.15.72.58,1.32,1.19,1.7.41.25.89.39,1.39.41v1s0-1,0-1c.04,0,.07-.03.07-.06l.11-.8-.04-1.08-.03,1c-.35-.01-.67-.11-.96-.29-.42-.26-.71-.68-.82-1.17-.12-.58.01-1.21.37-1.74.83-1.22,1.65-2.46,2.45-3.69.32-.5.79-.85,1.33-1,.53-.15,1.07-.07,1.52.21.27.18.49.41.65.7h0s.1.03.1.03h0l.68-.43c-.2-.51-.52-.87-.92-1.12-.43-.27-.92-.41-1.42-.41Z"/>
                </g>
                <path class="cls-2" d="m11.69,34.97c-.19,0-.36-.01-.53-.03-1.03-.13-1.94-.78-2.49-1.8-.95-1.73-.87-4.4.2-6.65.8-1.64,2.14-2.81,3.77-3.32,1.5-.47,3.12-.32,4.43.41,1.15.65,1.91,1.72,2.16,3,.31,1.61-.22,3.47-1.43,4.98-2.09,2.52-4.52,3.4-6.11,3.4Zm2.71-10.07c-.39,0-.78.06-1.17.18-1.1.34-2.01,1.16-2.57,2.28-.78,1.63-.88,3.65-.25,4.81.17.32.49.71.99.77.09.01.19.02.28.02,1.08,0,2.92-.69,4.54-2.65.85-1.06,1.23-2.32,1.03-3.36-.14-.71-.55-1.28-1.18-1.64-.5-.28-1.08-.42-1.68-.42Zm-2.69,7.93c-.09,0-.18,0-.27-.02-.13-.02-.26-.06-.38-.13-.99-.57-1.33-3.04-.27-5.26.54-1.1,1.42-1.88,2.48-2.21.93-.29,1.96-.21,2.74.23.6.34.98.87,1.11,1.54.19.99-.18,2.2-.99,3.23-1.3,1.56-3.1,2.61-4.42,2.61Zm2.69-5.78c-.17,0-.35.03-.53.08-.53.17-.99.58-1.28,1.17-.47.98-.48,1.9-.41,2.43.59-.2,1.53-.74,2.4-1.77.48-.61.64-1.26.58-1.58-.02-.11-.05-.13-.13-.18-.17-.1-.4-.15-.63-.15Z"/>
                <path class="cls-2" d="m28.25,34.97c-1.59,0-4.01-.89-6.07-3.38-1.22-1.54-1.75-3.4-1.44-5.01.25-1.29,1.02-2.36,2.16-3,1.32-.74,2.94-.88,4.45-.41,1.63.51,2.96,1.69,3.74,3.31,1.07,2.25,1.14,4.93.18,6.66-.57,1.03-1.46,1.67-2.51,1.8-.16.02-.34.03-.53.03Zm-2.66-10.07c-.6,0-1.19.14-1.7.43-.62.35-1.04.93-1.18,1.64-.2,1.04.18,2.29,1.01,3.35,1.76,2.13,3.74,2.77,4.81,2.63.51-.06.83-.46,1.01-.78.64-1.16.54-3.19-.24-4.83-.54-1.11-1.44-1.92-2.54-2.26-.39-.12-.78-.18-1.17-.18Zm2.64,7.93c-1.32,0-3.11-1.04-4.39-2.59,0,0-.01-.01-.02-.02-.81-1.02-1.17-2.23-.98-3.22.13-.68.52-1.21,1.11-1.54.79-.44,1.82-.53,2.76-.24,1.06.33,1.93,1.11,2.45,2.19.9,1.91.78,4,.1,4.92-.17.28-.47.48-.82.49-.07,0-.15.01-.22.01Zm-2.84-3.85c.86,1.04,1.8,1.57,2.38,1.76.08-.53.07-1.46-.41-2.46-.28-.57-.72-.98-1.25-1.14-.41-.13-.86-.1-1.18.07-.07.04-.1.07-.12.18-.06.33.09.96.58,1.59Z"/>
                <path class="cls-2" d="m19.97,37.84h0c-1.42,0-3.08-.71-3.93-1.67-.65-.74-.81-1.73-.42-2.59.56-1.23,1.98-1.83,4.36-1.83,2.38,0,3.81.6,4.36,1.83.39.86.22,1.85-.43,2.59-.86.97-2.52,1.67-3.94,1.67Zm0-4.09c-1.65,0-2.4.34-2.54.66-.06.14-.03.29.1.44.48.55,1.58,1,2.44,1,.86,0,1.95-.45,2.44-1,.13-.15.17-.3.1-.44-.14-.32-.88-.65-2.54-.65Z"/>
                <path class="cls-2" d="m19.96,38.83h0c-.74,0-1.45-.3-1.96-.81-.49-.5-.76-1.15-.76-1.84.01-1.45,1.23-2.62,2.72-2.62,1.5,0,2.72,1.18,2.72,2.63,0,.69-.27,1.34-.76,1.84-.51.51-1.22.8-1.96.8Zm0-3.13c-.32,0-.58.22-.58.5,0,.12.05.23.14.32.11.11.27.18.44.18.14-.02.33-.06.44-.18.09-.09.14-.2.14-.32h-1s1,0,1,0c0-.27-.26-.49-.58-.49Z"/>
                <g>
                  <g>
                    <path class="cls-2" d="m14.55,31.51h0c-.67,0-1.32-.27-1.78-.75-.46-.48-.7-1.1-.67-1.76.05-1.32,1.14-2.35,2.48-2.35.67,0,1.32.27,1.78.75.46.47.7,1.1.68,1.75-.04,1.33-1.13,2.37-2.48,2.37Z"/>
                    <path class="cls-2" d="m14.54,31.71h0c-.73,0-1.43-.3-1.93-.81-.5-.52-.75-1.19-.72-1.9.06-1.43,1.24-2.55,2.69-2.55.72,0,1.42.29,1.92.81.5.51.76,1.18.73,1.89-.04,1.41-1.25,2.57-2.69,2.57Z"/>
                  </g>
                  <g>
                    <path class="cls-2" d="m14.55,31.63h0c-.71,0-1.39-.29-1.87-.79-.48-.5-.73-1.16-.7-1.85.06-1.39,1.2-2.47,2.61-2.47.7,0,1.38.29,1.86.79.48.5.73,1.15.71,1.84-.04,1.37-1.21,2.49-2.61,2.49Z"/>
                    <path class="cls-2" d="m14.54,31.83h0c-.76,0-1.5-.31-2.02-.85-.52-.54-.78-1.24-.75-1.98.06-1.49,1.3-2.67,2.82-2.67.75,0,1.49.31,2,.84.52.53.79,1.23.77,1.97-.04,1.48-1.31,2.69-2.82,2.69Z"/>
                  </g>
                </g>
                <g>
                  <g>
                    <path class="cls-2" d="m25.13,31.51h0c-1.33,0-2.45-1.07-2.48-2.38-.02-.66.23-1.28.68-1.75.46-.47,1.11-.74,1.77-.74,1.35,0,2.44,1.04,2.48,2.37.02.66-.22,1.28-.68,1.75-.46.48-1.11.75-1.78.75Z"/>
                    <path class="cls-2" d="m25.14,31.71c-1.45,0-2.65-1.16-2.69-2.58-.02-.71.25-1.37.74-1.88.5-.51,1.19-.8,1.91-.8,1.44,0,2.64,1.15,2.69,2.56.02.71-.23,1.38-.73,1.89-.5.52-1.2.81-1.92.81h0Zm0-1h0,0Z"/>
                  </g>
                  <g>
                    <path class="cls-2" d="m25.13,31.63h0c-1.4,0-2.57-1.12-2.61-2.5-.02-.69.24-1.33.72-1.83.48-.5,1.16-.78,1.86-.78,1.39,0,2.56,1.11,2.61,2.49.02.69-.23,1.34-.71,1.84-.48.5-1.16.79-1.87.79Z"/>
                    <path class="cls-2" d="m25.14,31.83h0c-1.52,0-2.78-1.21-2.81-2.7-.02-.74.26-1.43.77-1.96.52-.53,1.25-.84,2-.84,1.5,0,2.76,1.2,2.81,2.68.03.74-.24,1.44-.76,1.98-.52.54-1.25.85-2.01.85Zm0-1.36v.36-.36h0Z"/>
                  </g>
                </g>
                <path class="cls-2" d="m22.36,39.8c-1.38,0-2.84-.58-3.4-.83-.61-.27-1.09-.79-1.31-1.41-.22-.62-.17-1.31.13-1.9.59-1.16,2-1.65,3.19-1.12.29.13.59.23.85.3.52-.4,1.19-.58,1.87-.48.62.09,1.17.41,1.56.89.42.52.61,1.2.51,1.86-.15,1.02-.76,1.86-1.68,2.32-.5.25-1.08.37-1.72.37Zm-2.4-3.48c-.17,0-.33.09-.41.25-.05.1-.06.22-.02.32.04.11.13.2.24.25.72.32,1.77.66,2.59.66h0c.33,0,.61-.06.83-.16.04-.02.08-.04.12-.07-.18-.18-.29-.43-.29-.71,0-.13.02-.26.07-.37.02-.04.04-.09.06-.13-.08.04-.15.09-.19.15-.22.3-.58.46-.95.4-.43-.06-1.14-.24-1.85-.55-.06-.03-.13-.04-.19-.04Z"/>
                <path class="cls-2" d="m17.56,39.8h0c-.65,0-1.23-.13-1.73-.38-.92-.46-1.53-1.31-1.67-2.33-.19-1.32.75-2.56,2.09-2.75.64-.09,1.3.07,1.82.46.01,0,.02.02.03.02.26-.07.57-.17.86-.3,1.2-.53,2.6-.03,3.19,1.13.3.59.34,1.28.12,1.9-.22.63-.7,1.14-1.32,1.41-.56.25-2.02.83-3.4.83Zm-.96-3.48s-.04,0-.06,0c-.25.04-.43.26-.4.49.05.36.26.65.59.82.76.38,2.42-.04,3.42-.49.11-.05.2-.14.24-.25.01-.03.02-.07.02-.1-.39.41-1.19.36-1.53-.1-.38.11-.72.19-.96.22-.37.05-.74-.1-.95-.41-.02-.03-.06-.07-.09-.09-.08-.06-.18-.09-.28-.09Z"/>
                <g>
                  <path class="cls-2" d="m16.62,32.72h0c-.54,0-1.06-.2-1.46-.56-.44-.39-.7-.95-.73-1.54-.03-.59.19-1.17.6-1.6,1.29-1.36,3.09-2.13,4.95-2.13.59,0,1.14.23,1.55.64.42.42.64.97.64,1.55,0,1.21-.99,2.19-2.19,2.19-.66,0-1.3.28-1.77.77-.42.44-1,.69-1.6.69Zm0-1.88v.88s0-.88,0-.88Zm.69.34h.01-.01Zm2.67-2.3c-1.31,0-2.59.55-3.5,1.51-.04.04-.06.09-.05.14,0,.04.02.08.04.11.04-.07.1-.14.16-.19l.16.17c.67-.69,1.54-1.15,2.48-1.3.18-.18.43-.3.71-.3h0c.06,0,.13,0,.19.02,0-.04-.02-.07-.05-.11-.04-.04-.08-.06-.13-.06Z"/>
                  <path class="cls-2" d="m23.34,32.72h0c-.6,0-1.19-.25-1.6-.69-.46-.48-1.1-.76-1.75-.76-.59,0-1.14-.23-1.56-.65-.41-.42-.64-.97-.64-1.55,0-1.2.99-2.18,2.19-2.18,1.86,0,3.66.78,4.95,2.14.41.43.62,1.01.6,1.61-.03.59-.3,1.16-.74,1.54-.39.35-.91.54-1.44.54Zm-.67-2.54c.16,0,.31.04.45.12-.05-.1-.08-.21-.09-.32-.86-.7-1.94-1.1-3.04-1.1-.1,0-.18.07-.19.16.06-.01.13-.02.19-.02h0c.28,0,.53.11.71.3.71.12,1.39.41,1.97.86Z"/>
                </g>
              </g>
              <g>
                <path class="cls-2" d="m28.47,41.22h0c-1.27,0-2.39-.88-2.68-2.09-.17-.72-.04-1.45.36-2.06.41-.61,1.06-1.04,1.8-1.17,4.09-.69,6.56-2.08,7.34-4.12.81-2.18.02-5.56-2.17-9.25-.05-.09-.1-.17-.14-.25-.33-.53-.45-1.26-.3-1.93.15-.69.56-1.28,1.16-1.65,1.22-.77,2.86-.38,3.66.86.04.07.08.14.12.21l.03.04c3.14,5.21,4.1,10.14,2.73,13.93-1.47,3.92-5.32,6.42-11.44,7.45-.18.03-.32.04-.46.04Zm6.73-20.91c-.11,0-.21.03-.31.09-.14.09-.23.22-.27.39-.04.17,0,.36.09.52l.11.2c2.53,4.28,3.36,8.18,2.32,10.98-1.05,2.76-4.04,4.57-8.88,5.39-.19.03-.36.14-.47.3-.1.15-.13.32-.09.5.08.31.39.55.74.55v1s0-1,0-1c.05,0,.09,0,.14-.01,5.36-.9,8.69-2.97,9.88-6.16,1.16-3.19.26-7.51-2.53-12.14-.05-.07-.1-.14-.14-.23-.16-.24-.4-.37-.63-.37Z"/>
                <path class="cls-2" d="m28.49,41.49h0c-1.41,0-2.66-.97-2.98-2.31-.19-.78-.04-1.58.4-2.25.45-.68,1.17-1.14,1.98-1.28,3.99-.68,6.39-2.01,7.14-3.97.37-.99.9-3.87-2.12-9.02-.05-.08-.09-.15-.13-.23-.35-.56-.49-1.3-.37-2.01.14-.81.61-1.52,1.3-1.94.66-.42,1.47-.54,2.26-.33.73.2,1.36.66,1.76,1.29.04.06.08.13.11.2l.05.09c3.22,5.33,4.18,10.21,2.76,14.13-1.49,4-5.41,6.55-11.65,7.6-.18.03-.34.04-.51.04Zm6.71-21.45c-.16,0-.31.04-.44.12-.2.13-.34.34-.39.58-.04.23.01.48.14.69l.11.2c3.34,5.68,2.86,9.17,2.27,10.74-1.03,2.68-3.94,4.44-8.67,5.24-.27.05-.51.2-.65.41-.14.21-.18.45-.12.69.1.44.55.77,1.03.77h0c.06,0,.12,0,.18-.02,5.48-.92,8.87-3.04,10.1-6.31,1.2-3.31.31-7.6-2.58-12.37-.06-.07-.1-.15-.14-.23-.17-.27-.37-.41-.62-.48-.08-.02-.16-.03-.24-.03Z"/>
              </g>
              <path class="cls-2" d="m35.88,26.08c-.86,0-1.65-.55-1.94-1.36-.41-1.13-1.22-2.44-1.46-2.82-.05-.08-.08-.14-.09-.15-.31-.58-.32-1.27-.05-1.85l.12-.25c.14-.3.35-.56.61-.77l.64-.5c.65-.51,1.47-.61,2.16-.31.64.12,1.17.47,1.51,1.01.49.78,1.38,2.3,1.93,3.78.2.54.17,1.15-.09,1.66-.26.52-.73.9-1.29,1.06l-1.49.41c-.18.05-.37.08-.55.08Zm-.89-6.16h0l-.7.55-.14.28c.28.51,1.18,1.97,1.66,3.29l.07.05s.01,0,.02,0l1.49-.41s.05-.09.05-.09c-.43-1.14-1.1-2.34-1.57-3.11-.2-.07-.37-.2-.5-.39h0s0,0,0,0c-.04-.02-.08-.05-.12-.08-.04-.01-.08-.03-.11-.05h0s-.14-.03-.15-.03Z"/>
              <g>
                <path class="cls-2" d="m27.62,42.59h0c-2.3,0-4.22-1.78-4.28-3.98-.03-1.06.37-2.07,1.12-2.84.77-.79,1.86-1.25,3-1.25,2.23,0,4.15,1.76,4.28,3.92.06,1.07-.31,2.08-1.05,2.86-.77.82-1.89,1.29-3.06,1.29Zm-.17-6.07c-.6,0-1.17.23-1.56.64-.37.38-.56.87-.55,1.39.03,1.12,1.05,2.03,2.28,2.03.62,0,1.21-.24,1.61-.66.36-.38.54-.86.51-1.38-.06-1.1-1.11-2.03-2.28-2.03Zm.17,3.93c-1.15,0-2.11-.85-2.14-1.89-.01-.48.17-.94.51-1.29.37-.38.9-.6,1.46-.6,1.12,0,2.08.85,2.14,1.9.03.47-.14.92-.47,1.27-.37.39-.92.62-1.5.62Z"/>
                <path class="cls-2" d="m27.63,42.85h0c-2.47,0-4.52-1.91-4.58-4.25-.03-1.13.4-2.2,1.19-3.02.82-.85,1.99-1.33,3.2-1.33,2.39,0,4.44,1.87,4.58,4.18.07,1.13-.33,2.21-1.11,3.04-.83.88-2.02,1.38-3.28,1.38Zm-.19-6.6c-.67,0-1.32.26-1.77.73-.42.43-.64.99-.63,1.58.03,1.27,1.19,2.3,2.58,2.3.71,0,1.37-.27,1.82-.75.4-.43.6-.98.57-1.55-.08-1.27-1.23-2.3-2.58-2.3Zm.16,3.92c-.99,0-1.81-.73-1.84-1.63-.01-.41.14-.8.43-1.1.32-.33.78-.52,1.26-.52.96,0,1.79.73,1.84,1.63.02.41-.12.79-.4,1.09-.32.34-.79.53-1.29.53Zm0-2s-.1.03-.16.1c-.09.1-.15.25-.14.39,0,.11.06.27.16.27.06,0,.12-.03.18-.09.08-.09.13-.22.13-.35,0-.18-.11-.31-.16-.31Z"/>
              </g>
            </g>
          </g>
          <g>
            <path class="cls-2" d="m21.76,41.86c-.81,0-1.49-.05-1.96-.13v.05c-7.76-.22-12.39-1.34-14.6-3.52-3.18-3.01-4.14-12.05,1.69-18.8,5.56-6.6,12.69-6.54,13.48-6.51,0,0,.02,0,.02,0,2.08.09,4.47.76,4.93.89h0c.06.02.12.04.18.07,7.36,3.57,11.3,9.46,11.7,17.49.18,3.92-1.75,6.91-5.59,8.65-2.88,1.31-7.12,1.82-9.85,1.82Zm-1.83-2.08c.27.02,9.32.67,13.38-3.22,1.37-1.32,1.99-2.98,1.9-5.09-.36-7.22-3.89-12.51-10.5-15.75-.55-.15-2.62-.71-4.39-.79,0,0,0,0,0,0-.69-.02-6.93-.07-11.89,5.81-5.25,6.08-4.16,13.86-1.82,16.07,2.68,2.65,10.65,2.88,13.26,2.96.02,0,.05,0,.07,0Z"/>
            <g>
              <g>
                <g>
                  <path class="cls-2" d="m5.84,23.51c-.17,0-.35-.05-.51-.14-2.66-1.58-3.83-4.14-3.06-6.68.86-3.35,4.24-6.64,7.53-7.29,1.19-.24,2.25-.05,3.14.56,1.24.85,2.09,2.48,2.51,4.86.1.54-.26,1.06-.81,1.16-.55.1-1.06-.26-1.16-.81-.32-1.8-.9-3.03-1.67-3.56-.44-.3-.97-.38-1.62-.25-2.56.51-5.31,3.2-6,5.87-.51,1.68.3,3.32,2.16,4.42.47.28.63.9.35,1.37-.19.31-.52.49-.86.49Z"/>
                  <path class="cls-2" d="m5.54,23.98c-.17,0-.35-.05-.51-.14-2.85-1.7-4.1-4.48-3.24-7.25.92-3.54,4.5-7.02,7.96-7.71,1.31-.26,2.47-.06,3.46.61,1.36.92,2.28,2.67,2.74,5.21.09.52-.23,1.02-.75,1.15l-.98.24c-.27.06-.55.02-.79-.13-.23-.15-.39-.39-.44-.67-.29-1.65-.78-2.76-1.43-3.2-.22-.15-.6-.34-1.33-.19-2.34.47-4.94,3-5.55,5.42-.43,1.45.3,2.89,1.96,3.88.23.14.4.36.46.63s.02.54-.13.77l-.6.94c-.19.3-.51.46-.84.46Z"/>
                </g>
                <g>
                  <path class="cls-2" d="m34.26,23.83c-.37,0-.72-.21-.9-.56-.24-.5-.04-1.09.46-1.34,2.2-1.08,3.22-2.86,2.68-4.66-.7-2.71-3.45-5.4-6.01-5.91-.66-.13-1.2-.05-1.64.26-.81.57-1.4,1.91-1.71,3.89-.08.55-.6.92-1.14.84-.55-.08-.92-.59-.84-1.14.39-2.56,1.25-4.32,2.54-5.22.9-.63,1.97-.83,3.18-.58,3.28.66,6.66,3.95,7.54,7.33.82,2.71-.63,5.47-3.72,6.99-.14.07-.29.1-.44.1Z"/>
                  <path class="cls-2" d="m34.53,24.31c-.35,0-.7-.19-.88-.52l-.53-.97c-.13-.24-.16-.52-.08-.78.08-.26.27-.47.51-.59,1.98-.98,2.92-2.54,2.46-4.08-.63-2.47-3.23-5.02-5.57-5.49-.54-.11-.96-.05-1.32.2-.49.34-1.14,1.23-1.49,3.53-.04.27-.19.52-.42.67-.23.16-.51.21-.78.15l-.99-.21c-.52-.11-.86-.61-.78-1.13.43-2.72,1.36-4.6,2.76-5.58.99-.69,2.17-.91,3.5-.64,3.52.71,7.02,4.13,7.98,7.78.91,2.95-.64,5.94-3.95,7.56-.14.07-.29.1-.44.1Z"/>
                </g>
                <path class="cls-2" d="m21.22,42.28h0c-.42,0-.85,0-1.29-.01-7.64.15-12.48-1.04-15.21-3.73-2.07-2.04-2.88-4.84-2.48-8.57.53-5.23,3.46-10.48,7.74-13.95-.06-.2-.07-.41-.04-.63.06-.48.35-.89.74-1.13.02-.12.05-.25.1-.36.25-.58.8-.95,1.4-.95h0c.61,0,1.21.2,1.8.61,2.05-.91,4.04-1.31,6.07-1.23,3.9-.15,7.81,1.5,11.23,4.79,3.64,3.52,5.99,8.21,6.43,12.88.38,3.72-.44,6.53-2.52,8.56-2.59,2.55-7.04,3.74-13.98,3.74Zm-1.27-3.08s.01,0,.02,0c6.65.13,10.89-.8,12.97-2.85,1.43-1.4,1.96-3.36,1.7-6.19-.35-3.93-2.31-7.89-5.39-10.86-2.79-2.68-5.98-4.04-9.18-3.93-.03,0-.08,0-.1,0-1.86-.07-3.68.36-5.57,1.33-.12.06-.24.1-.37.13-.09.08-.2.16-.31.22l-.09.05c-.07.04-.15.08-.22.11-.08.08-.17.15-.26.22-4.27,2.8-7.34,7.79-7.81,12.72-.28,2.83.25,4.79,1.66,6.19,2.06,2.04,6.3,2.98,12.94,2.85,0,0,.01,0,.02,0Z"/>
                <g>
                  <path class="cls-2" d="m31.82,18.75h0c-.69,0-1.33-.48-1.54-1.16-.17-.46-2.05-4.81-10.26-4.81s-9.89,4.31-10.05,4.8c-.24.8-1.1,1.32-1.91,1.12-.41-.1-.75-.35-.96-.71-.22-.37-.27-.83-.15-1.26.41-1.24,2.89-7.17,13.06-7.17,10.09,0,12.79,5.88,13.23,7.06.16.48.12.94-.09,1.32-.2.37-.53.63-.93.75-.13.04-.27.05-.4.05Zm-23.76-1.79s0,.02,0,.02c0,0,0-.02,0-.02Zm24.09-.05s0,.01,0,.02c0,0,0-.01,0-.02Z"/>
                  <path class="cls-2" d="m31.84,19.02h0c-.81,0-1.56-.56-1.81-1.36-.16-.44-1.94-4.61-10.02-4.61-8.06,0-9.65,4.12-9.81,4.59-.28.95-1.25,1.54-2.21,1.33-.5-.12-.92-.44-1.15-.89-.22-.43-.27-.92-.13-1.4.42-1.27,2.98-7.38,13.31-7.38,10.22,0,13.01,6.04,13.46,7.25.18.54.15,1.04-.06,1.47-.22.46-.62.8-1.11.93-.14.04-.3.06-.46.06Z"/>
                </g>
                <g>
                  <path class="cls-2" d="m35.29,27.04c-.54,0-.98-.43-1-.97-.02-.55.42-1.01.97-1.03.26,0,.5-.08.71-.2.37-.23.51-.56.56-.8.1-.44-.01-.93-.3-1.35-.85-1.26-1.68-2.52-2.49-3.78-.51-.79-1.43-1.08-2.1-.66-.19.12-.34.28-.45.49-.26.49-.87.67-1.36.4-.49-.26-.67-.87-.4-1.36.27-.5.66-.92,1.13-1.22,1.6-1.02,3.73-.47,4.85,1.26.81,1.25,1.63,2.5,2.47,3.75.59.87.8,1.93.59,2.9-.19.88-.71,1.62-1.47,2.08-.5.31-1.09.48-1.69.5,0,0-.02,0-.03,0Z"/>
                  <path class="cls-2" d="m35.34,27.44c-.5,0-.93-.38-.99-.88l-.1-.8c-.03-.28.05-.56.24-.77s.45-.34.73-.35c.19,0,.37-.06.52-.15.23-.14.38-.36.42-.65.05-.32-.04-.66-.24-.96-.85-1.26-1.68-2.52-2.49-3.78-.2-.3-.48-.52-.8-.61-.28-.08-.55-.04-.77.1-.14.09-.25.21-.33.35-.13.25-.36.42-.63.49-.27.07-.56.02-.79-.13l-.67-.43c-.44-.28-.59-.86-.34-1.32.3-.55.73-1.02,1.25-1.35.87-.55,1.91-.7,2.94-.42.99.27,1.85.92,2.44,1.82.81,1.25,1.63,2.5,2.48,3.75.66.97.9,2.15.67,3.23-.21.97-.79,1.79-1.62,2.3-.56.34-1.21.53-1.88.55,0,0-.02,0-.03,0Z"/>
                </g>
                <g>
                  <path class="cls-2" d="m4.71,26.96s-.02,0-.04,0c-.6-.02-1.17-.19-1.66-.5-.75-.46-1.27-1.2-1.46-2.08-.21-.97.01-2.03.6-2.9.83-1.22,1.64-2.45,2.44-3.67,1.13-1.72,3.26-2.27,4.85-1.25.47.3.87.73,1.14,1.24.26.49.07,1.09-.41,1.35-.49.26-1.09.07-1.35-.41-.11-.21-.26-.37-.45-.49-.66-.42-1.59-.13-2.1.66-.8,1.23-1.62,2.47-2.46,3.71-.29.43-.4.92-.31,1.36.05.24.19.57.55.79.2.13.43.19.69.2.55.02.98.48.96,1.04-.02.54-.46.96-1,.96Z"/>
                  <path class="cls-2" d="m4.65,27.36s-.02,0-.04,0c-.66-.02-1.3-.21-1.85-.55-.83-.51-1.41-1.32-1.61-2.29-.23-1.08.01-2.26.68-3.24.83-1.22,1.65-2.45,2.45-3.68.59-.9,1.45-1.55,2.44-1.82,1.03-.28,2.07-.13,2.94.42.53.34.96.81,1.26,1.37.25.46.1,1.04-.35,1.32l-.68.43c-.23.15-.52.19-.79.12-.27-.07-.5-.25-.63-.5-.08-.15-.19-.27-.33-.36-.23-.14-.49-.18-.77-.1-.32.09-.6.3-.8.61-.8,1.24-1.62,2.47-2.46,3.71-.22.32-.3.7-.23,1.03.04.18.14.42.4.58.15.09.32.14.5.15.28,0,.55.14.73.35.18.22.26.5.23.78l-.11.8c-.07.5-.49.87-.99.87Z"/>
                </g>
                <path class="cls-2" d="m11.74,33.9c-.15,0-.3,0-.44-.03-.7-.09-1.3-.53-1.69-1.25-.78-1.42-.69-3.75.23-5.67.67-1.36,1.77-2.34,3.12-2.76,1.23-.38,2.53-.27,3.59.32.87.49,1.45,1.3,1.63,2.27.25,1.3-.2,2.84-1.21,4.11,0,0,0,.01-.01.02-1.28,1.54-3.33,2.99-5.21,2.99Zm2.66-7.92c-.28,0-.57.04-.84.13-.82.26-1.5.87-1.92,1.72-.69,1.45-.68,3.09-.27,3.84.1.18.18.22.19.22.88.11,2.57-.69,3.86-2.24.64-.81.95-1.75.81-2.47-.08-.41-.29-.71-.65-.91-.34-.19-.74-.29-1.17-.29Zm1.79,4.3h0,0Z"/>
                <path class="cls-2" d="m28.2,33.9c-1.88,0-3.93-1.45-5.2-2.99,0,0,0-.01-.01-.02-1-1.27-1.45-2.8-1.2-4.1.19-.98.77-1.78,1.64-2.27,1.06-.59,2.37-.71,3.6-.32,1.34.42,2.44,1.4,3.1,2.75.91,1.92.99,4.25.21,5.67-.4.72-1,1.16-1.7,1.25-.15.02-.29.03-.44.03Zm-3.65-4.26c1.28,1.55,2.96,2.36,3.84,2.24.02,0,.1-.05.2-.23.41-.75.43-2.39-.26-3.84-.41-.84-1.08-1.45-1.9-1.71-.69-.22-1.45-.16-2.02.16-.36.2-.57.5-.65.91-.14.72.16,1.67.8,2.47Z"/>
                <path class="cls-2" d="m19.97,36.76c-1.13,0-2.47-.56-3.13-1.31-.37-.42-.46-.96-.25-1.44.36-.8,1.5-1.2,3.38-1.2h0c1.89,0,3.02.4,3.38,1.2.22.48.12,1.01-.25,1.44-.66.75-2.01,1.31-3.13,1.31Z"/>
                <path class="cls-2" d="m19.96,37.76c-.46,0-.89-.18-1.2-.49-.29-.29-.45-.68-.45-1.08,0-.86.75-1.56,1.65-1.56s1.65.7,1.65,1.56h0c0,.4-.16.79-.45,1.08-.31.31-.75.49-1.2.49Zm-.35-1.56c0,.23.16.43.35.43s.35-.19.35-.43c0-.13-.05-.26-.13-.34-.13-.13-.31-.12-.43,0-.08.08-.13.21-.13.34h0Z"/>
                <g>
                  <g>
                    <path class="cls-2" d="m14.55,30.44c-.38,0-.75-.16-1.01-.43-.26-.26-.39-.61-.37-.98.03-.74.65-1.32,1.41-1.32h0c.38,0,.75.15,1.01.42.26.26.39.61.38.97h0c-.03.75-.65,1.33-1.41,1.33h0Zm.03-.73h0c.31,0,.57-.26.59-.6,0-.18-.06-.36-.18-.49-.11-.12-.27-.19-.43-.19h0c-.32,0-.57.27-.59.6l1,.03-1-.03c0,.18.06.35.19.48.11.12.27.19.43.19h0Z"/>
                    <path class="cls-2" d="m14.54,30.64c-.44,0-.86-.18-1.15-.49-.29-.3-.44-.7-.43-1.11.03-.85.75-1.52,1.62-1.52.43,0,.85.18,1.15.48.29.3.44.69.43,1.11-.03.84-.75,1.53-1.62,1.53v-.39s0,.39,0,.39h0Zm0-.73v-.27.27Zm.03-.39c.21,0,.38-.17.39-.4,0-.13-.04-.26-.13-.35-.08-.08-.18-.13-.29-.13h0c-.2,0-.37.18-.38.41,0,.13.04.25.13.34.07.08.17.12.27.13v-.6s0,.6,0,.6Z"/>
                  </g>
                  <g>
                    <path class="cls-2" d="m14.54,30.56c-.42,0-.81-.17-1.1-.46-.28-.29-.42-.66-.4-1.06.03-.79.72-1.44,1.54-1.44h0c.41,0,.81.17,1.09.46.28.29.42.66.41,1.06-.03.8-.72,1.45-1.54,1.45h0Zm0-.97s.02,0,.03,0h0c.25,0,.45-.21.46-.48,0-.15-.05-.3-.15-.4-.09-.09-.2-.14-.32-.15v.27-.27c-.26-.01-.48.2-.49.48,0,.15.05.3.15.4.08.09.19.14.31.15v-.03.03Zm0-1.03h0,0Zm0,0h0,0,0Z"/>
                    <path class="cls-2" d="m14.54,30.76c-.47,0-.92-.19-1.24-.52-.31-.32-.47-.75-.45-1.2.04-.92.8-1.64,1.75-1.64.47,0,.92.19,1.23.52.31.32.48.75.46,1.19-.03.91-.81,1.65-1.75,1.65Z"/>
                  </g>
                </g>
                <g>
                  <g>
                    <path class="cls-2" d="m25.13,30.44c-.76,0-1.39-.6-1.41-1.34,0-.36.13-.71.38-.97.26-.27.63-.42,1.01-.42h0c.76,0,1.38.58,1.41,1.33h0c.01.37-.12.71-.38.97-.26.27-.63.42-1.01.42h0Zm-.02-.73h0c.15,0,.31-.07.42-.18.12-.13.19-.3.19-.48,0-.34-.27-.61-.59-.61h0c-.16,0-.31.07-.43.19-.12.13-.19.3-.19.48l1-.03-1,.03c.01.34.27.6.59.6h0Z"/>
                    <path class="cls-2" d="m25.14,30.64c-.87,0-1.6-.69-1.62-1.54-.01-.41.14-.8.43-1.1.3-.31.72-.48,1.15-.48.86,0,1.59.68,1.62,1.53.01.42-.14.81-.43,1.11-.3.31-.72.48-1.15.48h0Zm0-2h0c-.1,0-.21.05-.28.13-.09.09-.14.22-.13.35,0,.23.18.42.39.41v-.6s0,.6,0,.6c.1,0,.2-.05.27-.12.09-.09.13-.21.13-.34,0-.23-.17-.41-.38-.41Z"/>
                  </g>
                  <g>
                    <path class="cls-2" d="m25.13,30.56c-.83,0-1.51-.65-1.53-1.46-.01-.39.14-.77.41-1.05.28-.29.68-.46,1.09-.46h0c.83,0,1.51.64,1.53,1.45.01.4-.13.77-.41,1.06-.28.29-.68.46-1.1.46h0Zm-.02-2c-.12,0-.23.06-.32.15-.1.11-.16.25-.15.4,0,.27.21.48.46.48h0s.02,0,.03,0v-.03.03c.11,0,.23-.06.31-.15.1-.1.16-.25.15-.4,0-.28-.23-.51-.49-.49v.27-.27Zm.02,0h0,0Zm0,0h0,0,0Z"/>
                    <path class="cls-2" d="m25.14,30.76c-.94,0-1.72-.74-1.74-1.66-.01-.45.16-.87.47-1.19.32-.33.77-.51,1.23-.51.93,0,1.71.74,1.74,1.65.02.45-.15.87-.46,1.19-.32.33-.77.52-1.24.52Zm-.14-1.96l.1.17.11-.2c-.07-.03-.15-.02-.22.03Z"/>
                  </g>
                </g>
                <path class="cls-2" d="m22.36,38.73c-1.21,0-2.57-.56-2.96-.74-.34-.15-.61-.44-.74-.79-.12-.34-.1-.73.07-1.06.33-.65,1.13-.93,1.8-.63.61.27,1.27.44,1.64.49.08-.13.19-.24.32-.33.29-.22.67-.31,1.04-.26.35.05.66.23.89.5.23.29.34.67.29,1.04-.1.67-.49,1.21-1.1,1.51-.35.17-.77.26-1.25.26h0Zm1.58-1.88s0,0,0,.01c0,0,0,0,0-.01Z"/>
                <path class="cls-2" d="m17.56,38.73c-.48,0-.9-.09-1.25-.26-.6-.3-1-.85-1.09-1.52-.1-.74.43-1.43,1.18-1.54.36-.05.74.04,1.03.26.13.1.24.22.33.35.33-.06,1-.23,1.63-.51.68-.3,1.47-.02,1.81.63.17.33.19.71.07,1.05-.12.35-.39.64-.74.79-.39.17-1.75.73-2.96.73Zm-1.58-1.88s0,0,0,0c0,0,0,0,0,0Zm3.74-.68s0,0,0,0c0,0,0,0,0,0Z"/>
                <g>
                  <path class="cls-2" d="m16.62,31.65h0c-.24,0-.56-.12-.74-.28-.2-.18-.36-.51-.37-.78-.01-.27.12-.62.31-.82,1.09-1.15,2.61-1.8,4.17-1.8h0c.27,0,.61.14.8.33.21.21.33.5.33.8,0,.61-.5,1.11-1.12,1.11-.95,0-1.88.4-2.54,1.1-.21.22-.51.35-.82.35Zm3.36-1.69s0,0,0,0h0Zm-3.99-.04s0,0,0,0c0,0,0,0,0,0Z"/>
                  <path class="cls-2" d="m23.33,31.65c-.31,0-.61-.13-.82-.35-.66-.7-1.58-1.1-2.53-1.1-.27,0-.61-.14-.8-.33-.21-.21-.33-.5-.32-.8,0-.26.14-.6.33-.78.21-.21.49-.33.79-.33h0c1.56,0,3.08.66,4.17,1.8.19.2.32.55.31.82-.01.3-.15.59-.38.79-.18.16-.5.28-.74.28Zm.63-1.73h0,0Z"/>
                </g>
              </g>
              <g>
                <path class="cls-2" d="m28.47,40.15c-.78,0-1.47-.53-1.64-1.27-.1-.43-.02-.86.22-1.22.24-.37.64-.62,1.08-.7,4.49-.76,7.23-2.37,8.16-4.79.94-2.53.14-6.15-2.25-10.18-.04-.06-.08-.13-.11-.2-.22-.36-.3-.8-.21-1.21.09-.41.33-.75.68-.97.72-.46,1.71-.22,2.19.53.03.05.06.11.09.16l.07.1c2.95,4.89,3.88,9.5,2.62,12.97-1.32,3.52-4.89,5.79-10.61,6.75-.1.02-.19.02-.28.02Z"/>
                <path class="cls-2" d="m28.49,40.41c-.92,0-1.73-.62-1.94-1.49-.12-.49-.03-.99.25-1.42.28-.43.75-.73,1.27-.82,4.38-.74,7.06-2.31,7.96-4.64.91-2.45.13-5.98-2.2-9.94-.04-.06-.07-.12-.11-.19-.25-.4-.34-.87-.27-1.33.09-.51.38-.95.81-1.21.42-.26.92-.33,1.42-.2.47.13.87.43,1.14.84.03.05.06.11.09.17l.07.1c3.05,5.04,3.97,9.6,2.67,13.21-1.35,3.61-4.98,5.93-10.82,6.91-.12.02-.22.03-.33.03Z"/>
              </g>
              <path class="cls-2" d="m35.88,25.01c-.41,0-.79-.25-.94-.66-.45-1.23-1.31-2.62-1.56-3.02-.18-.29-.22-.67-.07-.98l.12-.25c.07-.15.17-.27.29-.37l.7-.54c.3-.24.71-.28,1.05-.11l.08.04c.52.05.79.35.91.54.57.91,1.35,2.27,1.84,3.58.1.26.08.55-.04.8-.13.25-.35.43-.62.51l-1.49.41c-.09.02-.18.04-.27.04Z"/>
              <g>
                <path class="cls-2" d="m27.62,41.51c-1.72,0-3.16-1.32-3.21-2.93-.02-.77.27-1.51.81-2.07.57-.59,1.38-.92,2.23-.92h0c1.68,0,3.11,1.3,3.21,2.91.04.77-.23,1.5-.76,2.07-.57.61-1.4.95-2.28.95h0Zm-.17-3.92c-.31,0-.6.12-.8.32-.12.12-.25.32-.25.62.01.54.57.99,1.21.99h0c.33,0,.63-.12.83-.33.11-.11.23-.31.22-.58-.03-.55-.58-1.02-1.21-1.02Z"/>
                <path class="cls-2" d="m27.63,41.78c-1.89,0-3.46-1.44-3.51-3.2-.02-.84.29-1.64.89-2.25.62-.64,1.51-1.01,2.43-1.01h0c1.83,0,3.4,1.42,3.5,3.17.05.83-.24,1.63-.82,2.25-.63.66-1.54,1.04-2.5,1.04h0Zm-.17-3.92c-.23,0-.45.09-.59.24-.08.08-.18.23-.17.43.01.39.43.73.91.73.25,0,.47-.09.61-.24.07-.08.16-.21.15-.4-.02-.41-.44-.75-.91-.75Z"/>
              </g>
            </g>
          </g>
        </g>
        <g>
          <g>
            <path class="cls-2" d="m21.67,41.91c-.29,0-.55,0-.77,0-.54-.01-.89-.02-1.14-.05-7.74-.23-12.38-1.35-14.6-3.53-1.63-1.55-2.61-4.61-2.55-7.98.07-3.97,1.57-7.85,4.23-10.93,5.59-6.62,12.74-6.57,13.54-6.54,0,0,.01,0,.02,0,2.04.09,4.3.7,4.95.89-.07-.02-.21-.05-.36-.03.19-.01.38.02.55.1,7.39,3.58,11.34,9.49,11.74,17.55.19,3.94-1.76,6.96-5.62,8.72-2.12.97-4.77,1.55-7.87,1.75-.8.05-1.52.06-2.11.06Zm-1.74-2.2c.28.02,9.29.66,13.32-3.2,1.36-1.3,1.97-2.95,1.87-5.03-.36-7.19-3.87-12.46-10.45-15.68-.55-.16-2.61-.71-4.37-.79,0,0,0,0,0,0-.69-.02-6.89-.07-11.83,5.79-2.34,2.71-3.65,6.1-3.71,9.57-.05,3.13.91,5.47,1.89,6.4,0,0,.01.01.02.02,1.76,1.74,6.2,2.72,13.2,2.92.03,0,.05,0,.08,0Zm5.01-25.98s0,0,0,0c0,0,0,0,0,0Zm0,0s0,0,0,0c0,0,0,0,0,0Zm0,0s0,0,0,0c0,0,0,0,0,0Zm0,0s0,0,0,0c0,0,0,0,0,0Zm0,0s0,0,0,0c0,0,0,0,0,0Zm0,0s0,0,0,0c0,0,0,0,0,0Zm0,0s0,0,0,0c0,0,0,0,0,0Zm0,0s0,0,0,0c0,0,0,0,0,0Zm0,0s0,0,0,0c0,0,0,0,0,0Zm0,0s0,0,0,0c0,0,0,0,0,0Zm0,0s0,0,0,0c0,0,0,0,0,0Zm0,0s0,0,0,0c0,0,0,0,0,0Zm0,0s0,0,0,0c0,0,0,0,0,0Zm0,0s0,0,0,0c0,0,0,0,0,0Zm0,0s0,0,0,0c0,0,0,0,0,0Zm0,0s0,0,0,0c0,0,0,0,0,0Zm0,0s0,0,0,0c0,0,0,0,0,0Z"/>
            <g>
              <g>
                <g>
                  <path class="cls-2" d="m5.84,23.59c-.19,0-.38-.05-.55-.15-2.68-1.59-3.87-4.18-3.1-6.74.89-3.4,4.29-6.7,7.59-7.37,1.21-.24,2.28-.05,3.2.57,1.26.86,2.12,2.51,2.54,4.91.1.58-.28,1.14-.87,1.24-.58.1-1.14-.28-1.24-.87-.32-1.78-.89-3-1.64-3.51-.42-.29-.94-.37-1.57-.24-2.54.51-5.26,3.17-5.94,5.82,0,.01,0,.03-.01.04-.49,1.61.31,3.21,2.14,4.3.51.3.68.96.37,1.47-.2.34-.56.52-.92.52Z"/>
                  <path class="cls-2" d="m5.54,24.05c-.19,0-.38-.05-.55-.15-2.87-1.71-4.13-4.51-3.28-7.31.97-3.66,4.48-7.07,8.02-7.79,1.33-.27,2.51-.06,3.51.62,1.37.93,2.31,2.7,2.77,5.25.1.56-.25,1.1-.8,1.23l-.98.24c-.29.07-.59.02-.84-.14-.25-.16-.42-.42-.47-.71-.36-2.06-.96-2.85-1.4-3.16-.21-.14-.57-.32-1.27-.18-2.32.46-4.89,2.97-5.5,5.37,0,.01,0,.03-.01.04-.41,1.38.31,2.79,1.94,3.76.25.15.43.39.49.67.07.28.02.58-.14.82-.2.31-.4.63-.6.94-.2.32-.55.49-.9.49Z"/>
                </g>
                <g>
                  <path class="cls-2" d="m34.26,23.9c-.4,0-.78-.22-.96-.6-.26-.53-.04-1.17.49-1.43,2.16-1.06,3.18-2.82,2.64-4.57,0-.01,0-.03-.01-.04-.68-2.65-3.4-5.31-5.94-5.82-.64-.13-1.16-.05-1.59.25-.8.56-1.38,1.88-1.68,3.84-.09.58-.64.99-1.22.9-.58-.09-.99-.64-.9-1.22.4-2.58,1.26-4.36,2.57-5.27.92-.64,2.01-.84,3.24-.59,3.3.66,6.7,3.96,7.59,7.36.83,2.78-.64,5.57-3.75,7.1-.15.07-.31.11-.47.11Z"/>
                  <path class="cls-2" d="m34.53,24.38c-.38,0-.75-.2-.94-.56-.18-.32-.36-.65-.53-.97-.14-.26-.17-.56-.08-.84s.29-.51.55-.64c1.94-.96,2.87-2.49,2.42-3.99,0-.01,0-.03-.01-.04-.62-2.41-3.19-4.93-5.5-5.39-.69-.14-1.05.04-1.26.19-.47.33-1.11,1.2-1.46,3.48-.04.29-.21.55-.45.72-.24.17-.54.23-.83.17l-.99-.21c-.56-.12-.92-.65-.83-1.21.43-2.74,1.37-4.64,2.79-5.63,1.01-.7,2.21-.93,3.56-.66,3.54.71,7.06,4.14,8.03,7.81.92,3.02-.65,6.03-3.98,7.66-.15.07-.31.11-.47.11Z"/>
                </g>
                <path class="cls-2" d="m21.22,42.36h0c-.39,0-.81,0-1.28-.01-7.68.14-12.54-1.05-15.27-3.76-2.08-2.05-2.9-4.88-2.5-8.63.53-5.24,3.46-10.49,7.73-13.97-.05-.2-.06-.4-.03-.62.07-.49.35-.91.75-1.17.02-.12.06-.23.1-.35.26-.61.83-1,1.47-1h0c.61,0,1.22.2,1.81.6,2.03-.9,4.01-1.3,6.03-1.22,3.99-.14,7.9,1.52,11.32,4.81,3.66,3.53,6.01,8.24,6.45,12.92.38,3.74-.45,6.57-2.54,8.62-2.61,2.57-7.07,3.76-14.03,3.77Zm-1.27-3.22s.01,0,.02,0c6.63.13,10.85-.8,12.92-2.83,1.41-1.38,1.94-3.33,1.67-6.13-.34-3.91-2.3-7.85-5.37-10.81-2.78-2.67-5.93-4.02-9.12-3.91-.02,0-.04,0-.06,0-.02,0-.03,0-.05,0-1.85-.07-3.66.36-5.53,1.32-.12.06-.24.11-.37.13-.09.08-.19.15-.29.21l-.11.06c-.07.04-.14.08-.22.1-.08.08-.17.15-.26.21-4.25,2.79-7.31,7.76-7.78,12.67-.28,2.81.24,4.75,1.64,6.13,2.05,2.03,6.26,2.96,12.88,2.83,0,0,.01,0,.02,0Z"/>
                <g>
                  <path class="cls-2" d="m31.82,18.82h0c-.71,0-1.37-.48-1.6-1.17-.2-.53-2.07-4.8-10.2-4.8-8.13,0-9.81,4.24-9.98,4.75-.26.85-1.15,1.37-1.99,1.17-.43-.1-.78-.37-1-.75-.23-.39-.28-.87-.15-1.31,0-.01,0-.03.01-.04.21-.63.89-2.26,2.67-3.84,2.5-2.21,6.02-3.33,10.45-3.33,10.14,0,12.85,5.92,13.29,7.11,0,.02.02.05.02.06.14.44.1.92-.11,1.32-.21.39-.56.66-.98.78-.14.04-.28.06-.42.06Z"/>
                  <path class="cls-2" d="m31.84,19.09c-.84,0-1.6-.57-1.86-1.38-.19-.51-1.97-4.59-9.96-4.59-7.97,0-9.57,4.04-9.74,4.54-.3,1-1.31,1.6-2.3,1.38-.52-.12-.96-.46-1.2-.93-.23-.44-.28-.96-.13-1.45,0-.01,0-.03.01-.04.22-.65.91-2.33,2.73-3.95,2.55-2.28,6.13-3.43,10.63-3.43,10.26,0,13.07,6.08,13.53,7.3,0,.02.02.05.02.07.16.49.13,1.01-.09,1.46-.23.48-.65.83-1.16.97-.15.04-.31.06-.48.06h0Z"/>
                </g>
                <g>
                  <path class="cls-2" d="m35.29,27.11c-.58,0-1.05-.46-1.07-1.04-.02-.59.45-1.08,1.04-1.1.25,0,.47-.07.67-.19.35-.21.48-.53.53-.76.09-.42-.01-.89-.29-1.3-.85-1.26-1.69-2.53-2.5-3.78-.49-.76-1.37-1.03-2-.63-.18.11-.32.27-.43.46-.28.52-.93.71-1.45.43-.52-.28-.71-.93-.43-1.45.28-.51.68-.94,1.16-1.24,1.64-1.04,3.81-.48,4.95,1.28.8,1.24,1.63,2.5,2.47,3.75.6.89.82,1.96.6,2.95-.2.9-.73,1.65-1.5,2.13-.51.31-1.11.49-1.73.51-.01,0-.02,0-.03,0Z"/>
                  <path class="cls-2" d="m35.34,27.51c-.54,0-1-.4-1.06-.94l-.1-.8c-.04-.3.06-.6.25-.83.2-.23.48-.36.78-.37.18,0,.34-.05.48-.14.21-.13.35-.34.39-.6.05-.3-.03-.62-.23-.91-.84-1.26-1.68-2.53-2.49-3.78-.19-.29-.45-.5-.75-.58-.26-.07-.51-.04-.71.09-.13.08-.23.19-.3.33-.14.26-.39.45-.67.53-.29.07-.6.03-.85-.13-.23-.14-.45-.29-.68-.43-.47-.3-.63-.92-.36-1.41.31-.56.75-1.04,1.28-1.37.89-.57,1.95-.72,3-.43,1.01.28,1.89.94,2.48,1.86.81,1.25,1.64,2.51,2.48,3.75.67.99.92,2.19.68,3.28-.22.99-.8,1.82-1.66,2.35-.57.35-1.23.54-1.92.56,0,0-.02,0-.03,0Z"/>
                </g>
                <g>
                  <path class="cls-2" d="m4.71,27.04s-.03,0-.04,0c-.61-.02-1.2-.2-1.7-.51-.77-.47-1.3-1.23-1.49-2.12-.21-.99.01-2.07.62-2.96.83-1.22,1.65-2.46,2.44-3.67,1.15-1.76,3.32-2.32,4.95-1.27.49.31.89.75,1.16,1.26.28.52.08,1.17-.44,1.45-.52.28-1.17.08-1.45-.44-.1-.19-.25-.35-.42-.46-.63-.4-1.51-.12-2,.64-.8,1.22-1.62,2.47-2.46,3.71-.28.41-.38.88-.29,1.3.05.23.18.54.52.75.19.12.41.18.65.19.59.02,1.05.52,1.03,1.11-.02.58-.5,1.03-1.07,1.03Z"/>
                  <path class="cls-2" d="m4.65,27.44s-.03,0-.04,0c-.67-.02-1.32-.22-1.88-.56-.85-.52-1.43-1.35-1.65-2.34-.24-1.1.01-2.3.69-3.29.83-1.22,1.65-2.46,2.44-3.67.6-.92,1.48-1.57,2.48-1.85,1.05-.29,2.11-.14,3,.43.54.34.98.83,1.28,1.39.27.5.1,1.11-.37,1.41-.23.14-.45.29-.68.43-.25.16-.56.21-.85.13s-.53-.27-.67-.53c-.07-.14-.17-.25-.3-.33-.26-.17-.53-.14-.72-.09-.3.08-.57.29-.76.58-.8,1.23-1.63,2.48-2.46,3.71-.21.31-.29.66-.22.97.03.16.13.38.37.53.14.09.29.13.47.14.3.01.59.15.78.38.2.23.28.53.24.84l-.11.8c-.07.53-.53.93-1.06.93Z"/>
                </g>
                <path class="cls-2" d="m11.69,33.97c-.14,0-.28,0-.41-.03-.72-.09-1.34-.55-1.75-1.28-.79-1.44-.7-3.8.23-5.73.68-1.38,1.8-2.37,3.17-2.8,1.25-.39,2.57-.27,3.64.33.89.5,1.48,1.32,1.67,2.32.26,1.32-.2,2.88-1.23,4.17,0,0,0,.01-.01.02-1.76,2.12-3.85,3.01-5.31,3.01Zm-.13-2.15c.87.1,2.51-.7,3.78-2.22.63-.79.93-1.71.79-2.42-.07-.39-.28-.67-.62-.86-.54-.3-1.28-.36-1.95-.15-.8.25-1.46.85-1.88,1.69-.91,1.91-.48,3.76-.13,3.96Zm-.01,0h0,0Zm4.63-1.54h0,0Z"/>
                <path class="cls-2" d="m28.25,33.97c-1.46,0-3.55-.89-5.3-3.01,0,0,0-.01-.01-.02-1.02-1.29-1.47-2.84-1.21-4.16.2-1,.79-1.82,1.67-2.32,1.08-.6,2.41-.72,3.66-.33,1.36.43,2.48,1.42,3.14,2.79.92,1.94,1,4.3.21,5.74-.41.74-1.03,1.2-1.75,1.29-.13.02-.26.02-.4.02Zm-3.64-4.37c1.26,1.53,2.91,2.32,3.77,2.22.36-.2.8-2.05-.11-3.97-.4-.82-1.06-1.42-1.85-1.67-.68-.21-1.41-.16-1.97.15-.34.19-.54.47-.62.86-.14.7.16,1.62.78,2.41Zm3.78,2.22h0,0Z"/>
                <path class="cls-2" d="m19.96,36.84c-1.14,0-2.51-.58-3.19-1.34-.39-.44-.49-1.01-.26-1.51.37-.82,1.53-1.24,3.45-1.24h0c1.92,0,3.08.42,3.45,1.24.23.5.13,1.07-.26,1.51h0c-.67.76-2.04,1.33-3.19,1.33Zm2.39-2.05h0,0Z"/>
                <path class="cls-2" d="m19.96,37.83c-.47,0-.93-.19-1.25-.51-.3-.31-.47-.71-.47-1.13,0-.9.78-1.63,1.72-1.63.95,0,1.72.73,1.72,1.64h0c0,.42-.17.82-.47,1.13-.32.32-.78.51-1.25.51Zm-.42-1.64c0,.27.19.5.42.5.23,0,.42-.23.42-.5,0-.15-.06-.29-.15-.39-.15-.16-.38-.15-.54,0-.1.1-.15.24-.15.39h0Z"/>
                <g>
                  <g>
                    <path class="cls-2" d="m14.55,30.51c-.4,0-.79-.16-1.06-.45-.27-.28-.41-.64-.39-1.03.03-.78.68-1.39,1.48-1.39h0c.4,0,.78.16,1.06.44.27.28.41.64.4,1.03h0c-.03.78-.68,1.4-1.48,1.4h0Zm.03-.73h0c.35,0,.64-.29.66-.67,0-.2-.07-.4-.2-.54-.13-.13-.3-.21-.48-.21h0c-.36,0-.65.3-.66.67l1.07.04-1.07-.04c0,.2.07.39.21.54.13.13.3.21.48.21h0Z"/>
                    <path class="cls-2" d="m14.54,30.71c-.46,0-.9-.19-1.21-.51-.3-.32-.46-.73-.44-1.17.04-.89.78-1.59,1.69-1.59.45,0,.89.18,1.2.5.3.31.46.73.45,1.16-.03.88-.79,1.6-1.69,1.6,0,0,0,0,0,0Zm0-1.07h0,0Zm.03-.05c.24,0,.45-.2.46-.47,0-.15-.05-.3-.15-.4-.09-.1-.22-.15-.34-.15h0v1.02s.02,0,.03,0v-.68s0,.68,0,.68Zm-.03-1.02c-.24,0-.44.21-.45.48,0,.15.05.29.15.4.08.08.19.14.3.15v-1.02Z"/>
                  </g>
                  <g>
                    <path class="cls-2" d="m14.54,30.63c-.43,0-.85-.18-1.15-.48-.29-.3-.44-.7-.42-1.11.03-.85.74-1.51,1.61-1.51,0,0,0,0,0,0,.43,0,.85.18,1.14.48.29.3.44.69.43,1.11-.03.84-.75,1.52-1.61,1.52h0Zm.04-.97h0c.29,0,.52-.24.53-.55,0-.17-.06-.34-.17-.46-.1-.1-.23-.17-.37-.17v.34s0-.34,0-.34c0,0-.02,0-.03,0-.29,0-.52.24-.53.55,0,.17.06.33.17.45.1.1.23.16.36.17v-.11s0,.11,0,.11c.01,0,.02,0,.03,0Zm-.03-1.18h0,0Zm0,0h0,0,0Z"/>
                    <path class="cls-2" d="m14.54,30.83h0c-.49,0-.96-.2-1.29-.55-.33-.34-.49-.78-.47-1.25.04-.96.84-1.71,1.82-1.71.49,0,.95.2,1.29.54.33.34.5.78.48,1.25-.03.95-.84,1.72-1.82,1.72Zm0-1.36c.19.03.36-.13.37-.34,0-.12-.04-.24-.12-.32-.06-.07-.14-.11-.23-.11v.34s0-.34,0-.34c0,0-.02,0-.02,0v.78Zm0-.78c-.18,0-.32.16-.32.36,0,.12.04.23.12.31.06.06.13.1.2.11v-.78Z"/>
                  </g>
                </g>
                <g>
                  <g>
                    <path class="cls-2" d="m25.13,30.51c-.8,0-1.46-.63-1.48-1.41-.01-.38.13-.75.4-1.02.27-.28.66-.44,1.06-.44h0c.8,0,1.45.61,1.48,1.4h0c.01.38-.13.75-.4,1.02-.27.28-.66.45-1.06.45h0Zm-.02-.73h0c.17,0,.35-.07.48-.21.13-.14.21-.32.21-.51h-.27s.27,0,.27,0c0,0,0-.01,0-.02-.01-.38-.3-.68-.66-.68h0c-.18,0-.35.08-.48.21-.14.14-.21.34-.2.54h0c.01.38.3.67.66.67h0Z"/>
                    <path class="cls-2" d="m25.14,30.71c-.91,0-1.67-.72-1.69-1.61-.01-.43.15-.85.46-1.16.31-.32.75-.5,1.2-.5.9,0,1.66.72,1.69,1.6.01.43-.14.85-.45,1.16-.31.32-.75.51-1.21.51,0,0,0,0,0,0Zm0-1.07h0,0Zm0-1.07c-.12,0-.24.05-.33.15-.1.11-.16.25-.15.4,0,.27.21.48.46.47v-.68s0,.68,0,.68c0,0,.01,0,.02,0v-1.02Zm0,0h0v1.02c.11,0,.22-.06.3-.14.1-.1.16-.25.15-.39,0-.27-.21-.48-.45-.48Z"/>
                  </g>
                  <g>
                    <path class="cls-2" d="m25.13,30.63c-.86,0-1.58-.68-1.61-1.53-.01-.41.14-.81.43-1.1.3-.3.71-.48,1.14-.48h0c.86,0,1.58.68,1.61,1.52.01.41-.14.81-.43,1.11-.3.31-.71.48-1.15.48h0Zm-.03-.97s.02,0,.03,0v-.11s0,.11,0,.11c.13,0,.26-.07.36-.17.11-.12.18-.28.17-.45,0-.31-.24-.56-.54-.56,0,0-.01,0-.02,0v.34s0-.34,0-.34c-.14,0-.27.07-.37.17-.12.12-.18.28-.17.45.01.31.25.55.54.55h0Zm.03-1.18h0,0Zm0,0h0,0,0Z"/>
                    <path class="cls-2" d="m25.14,30.83h0c-.98,0-1.79-.77-1.81-1.73-.01-.47.16-.91.49-1.24.33-.34.8-.54,1.28-.54.97,0,1.78.77,1.81,1.71.02.47-.15.91-.48,1.25-.33.35-.8.54-1.29.54Zm0-2.14c-.09,0-.18.04-.25.11-.08.08-.12.2-.12.32,0,.21.16.36.35.35v-.44s0,.44,0,.44c0,0,.01,0,.02,0v-.78Zm0,0v.78c.08-.01.15-.05.21-.11.08-.08.12-.19.12-.31,0-.21-.15-.37-.33-.37Z"/>
                  </g>
                </g>
                <path class="cls-2" d="m22.36,38.8h0c-1.22,0-2.6-.57-2.99-.74-.36-.16-.64-.46-.77-.83-.13-.36-.1-.77.07-1.11.35-.69,1.19-.98,1.9-.66.58.26,1.21.42,1.58.47.31-.42.84-.67,1.4-.58.37.05.7.24.93.53.25.31.36.71.3,1.09-.1.69-.51,1.26-1.14,1.57-.36.18-.79.27-1.28.27Zm1.65-1.94s0,0,0,0c0,0,0,0,0,0Z"/>
                <path class="cls-2" d="m17.56,38.8h0c-.49,0-.92-.09-1.28-.27-.62-.31-1.03-.88-1.13-1.57-.11-.78.45-1.5,1.24-1.62.38-.06.78.04,1.09.27.12.09.22.19.31.31.37-.05,1-.22,1.58-.47.71-.32,1.55-.02,1.9.67.17.34.2.75.07,1.11-.13.37-.41.67-.78.83-.39.17-1.77.74-2.99.74Zm2.13-2.7s0,0,0,0c0,0,0,0,0,0Z"/>
                <g>
                  <path class="cls-2" d="m16.62,31.72h0c-.29,0-.57-.11-.79-.3-.24-.21-.38-.52-.4-.84-.01-.32.11-.64.33-.87,1.1-1.16,2.64-1.82,4.22-1.82h0c.32,0,.62.12.84.35.23.23.35.52.35.84,0,.66-.54,1.19-1.19,1.19-.93,0-1.84.39-2.49,1.08-.23.24-.54.37-.87.37Zm.69-.54s0,0,0,0c0,0,0,0,0,0Zm2.67-1.16s0,0,0,0c0,0,0,0,0,0Z"/>
                  <path class="cls-2" d="m23.33,31.72c-.33,0-.65-.14-.87-.38-.65-.68-1.55-1.08-2.48-1.08h0c-.32,0-.62-.12-.85-.35-.22-.23-.35-.53-.35-.84,0-.66.54-1.19,1.19-1.19h0c1.58,0,3.12.67,4.22,1.83.22.23.34.55.32.87-.01.32-.16.63-.4.84-.21.19-.49.3-.79.3h0Zm-.69-.54s0,0,0,0c0,0,0,0,0,0Zm-2.66-1.16s0,0,0,0h0Zm4.04-.16s0,0,0,0c0,0,0,0,0,0Z"/>
                </g>
              </g>
              <g>
                <path class="cls-2" d="m28.47,40.22h0c-.81,0-1.53-.56-1.71-1.32-.11-.45-.03-.9.22-1.28.25-.38.67-.65,1.13-.73,4.46-.75,7.19-2.35,8.1-4.75.93-2.51.13-6.11-2.24-10.12-.04-.06-.08-.13-.11-.2-.23-.38-.31-.83-.22-1.26.09-.43.35-.79.71-1.02.76-.48,1.79-.23,2.29.55.02.03.04.07.06.11.02.03.05.09.09.15,2.96,4.91,3.89,9.54,2.62,13.03-1.33,3.55-4.92,5.83-10.67,6.8-.11.02-.2.02-.3.02Zm8.25-20s.02.04.03.06c0-.01-.01-.03-.03-.06Z"/>
                <path class="cls-2" d="m28.49,40.49c-.95,0-1.79-.65-2.01-1.54-.12-.51-.03-1.03.26-1.47.3-.45.78-.76,1.32-.85,4.36-.74,7.02-2.29,7.9-4.6.52-1.4.93-4.57-2.19-9.88-.04-.06-.07-.12-.11-.19-.26-.42-.35-.91-.27-1.38.09-.53.4-.99.84-1.26.43-.27.96-.35,1.47-.21.49.14.9.44,1.18.87.02.03.04.07.06.11.02.03.05.09.1.16,3.06,5.06,3.98,9.64,2.67,13.27-1.36,3.63-5.01,5.97-10.87,6.95-.12.02-.23.03-.34.03h0Zm8.45-20.4s.02.04.03.06c0-.01-.01-.03-.03-.06Z"/>
              </g>
              <path class="cls-2" d="m35.88,25.08c-.44,0-.85-.27-1.01-.7-.45-1.22-1.3-2.61-1.55-3.01-.04-.06-.05-.09-.06-.09-.16-.3-.17-.65-.02-.95l.12-.25c.07-.16.18-.29.32-.4.23-.18.47-.36.7-.54.32-.25.76-.3,1.13-.12l.07.03c.54.06.82.37.95.57.47.75,1.32,2.21,1.84,3.6.11.28.09.59-.05.86-.14.27-.38.47-.67.55-.5.14-.99.28-1.49.41-.1.03-.19.04-.29.04Zm-1.66-4.3h0,0Zm1.99-1.26s0,0,0,0c0,0,0,0,0,0Zm-.38-.35c.15.08.28.2.38.35-.11-.16-.24-.27-.38-.35Z"/>
              <g>
                <path class="cls-2" d="m27.62,41.58c-1.76,0-3.23-1.35-3.28-3-.02-.79.27-1.54.83-2.12.58-.6,1.42-.95,2.28-.95,0,0,0,0,0,0,1.71,0,3.18,1.33,3.28,2.97.04.79-.23,1.54-.78,2.12-.59.62-1.44.98-2.33.98h0Zm-.17-3.92c-.29,0-.56.11-.74.3-.11.11-.23.3-.23.56.01.5.53.92,1.14.92h0c.31,0,.59-.11.78-.3.1-.1.21-.28.2-.53-.03-.52-.55-.95-1.14-.95h0Z"/>
                <path class="cls-2" d="m27.63,41.85c-1.93,0-3.53-1.47-3.58-3.27-.02-.86.3-1.68.91-2.3.64-.65,1.54-1.03,2.48-1.03,0,0,0,0,0,0,1.87,0,3.47,1.45,3.58,3.24.05.85-.25,1.67-.84,2.3-.64.68-1.57,1.07-2.55,1.07h0Zm-.17-3.92c-.21,0-.41.08-.54.21-.07.07-.16.2-.15.38.01.35.4.66.84.66.23,0,.43-.08.56-.22.09-.1.14-.22.13-.35-.02-.36-.41-.68-.84-.68Z"/>
              </g>
            </g>
          </g>
          <g>
            <path class="cls-2" d="m20.35,13.94c-.06,0-7.19-.37-12.7,6.17-5.64,6.54-4.35,14.97-1.74,17.44,2.5,2.47,8.64,3.08,13.92,3.23-.06,0,16.88,1.41,16.37-9.34-.54-10.75-7.69-14.97-11.14-16.64,0,0-2.54-.76-4.71-.85Z"/>
            <g>
              <g>
                <g>
                  <path class="cls-5" d="m5.84,22.51c-2.21-1.32-3.25-3.42-2.62-5.53.77-2.98,3.79-6.01,6.77-6.6,2.5-.51,3.9,1.4,4.47,4.61"/>
                  <path class="cls-5" d="m5.54,22.98c-2.48-1.47-3.5-3.81-2.8-6.1.85-3.24,4.09-6.4,7.2-7.03,2.6-.53,4.33,1.26,5.01,5.02-.33.08-.65.16-.98.24-.56-3.21-1.85-4.62-3.93-4.21-2.71.54-5.61,3.36-6.33,6.15-.55,1.85.34,3.75,2.42,4.99-.2.31-.4.62-.59.93Z"/>
                </g>
                <g>
                  <path class="cls-5" d="m26.16,15.36c.53-3.43,1.94-5.5,4.53-4.98,2.98.6,6,3.62,6.77,6.6.69,2.29-.59,4.57-3.19,5.85"/>
                  <path class="cls-5" d="m34.53,23.31c-.18-.32-.35-.64-.53-.97,2.45-1.21,3.57-3.27,2.98-5.26-.72-2.82-3.62-5.64-6.33-6.18-2.69-.55-3.63,2.18-3.99,4.56-.33-.07-.66-.14-.99-.21.63-4.02,2.38-5.94,5.08-5.4,3.11.63,6.35,3.79,7.21,7.05.75,2.46-.53,4.99-3.42,6.41Z"/>
                </g>
                <path class="cls-5" d="m21.22,41.28c-.42,0-.84,0-1.28-.01-7.31.14-12-.95-14.52-3.45-1.87-1.84-2.55-4.37-2.19-7.76.56-5.49,3.83-10.75,8.21-13.92-.06-.03-.13-.06-.21-.08-.22-.08-.34-.3-.31-.55.03-.25.22-.45.45-.48.02,0,.23-.04.56-.02-.08-.1-.14-.15-.14-.16-.14-.15-.18-.38-.09-.59.09-.2.28-.34.48-.34.54,0,1.1.26,1.67.77,2.02-.99,4.06-1.48,6.17-1.4,3.76-.14,7.44,1.49,10.58,4.51,3.35,3.24,5.7,7.7,6.13,12.25.35,3.38-.35,5.91-2.22,7.75-2.39,2.35-6.68,3.46-13.28,3.46Zm-1.27-1.08c6.99.14,11.38-.86,13.69-3.14,1.66-1.63,2.28-3.91,1.99-6.99-.37-4.26-2.55-8.45-5.69-11.48-2.93-2.82-6.38-4.33-9.91-4.21,0,0-.02,0-.03,0-2.08-.08-4.08.42-6.06,1.44-.14.07-.3.07-.43,0,0,.01,0,.03-.01.04-.04.14-.14.25-.26.32-.04.02-.08.04-.12.07-.1.06-.21.08-.31.07-.04.12-.12.22-.22.28-4.44,2.91-7.75,8.06-8.26,13.47-.31,3.08.31,5.37,1.96,7,2.31,2.28,6.7,3.27,13.66,3.14Z"/>
                <g>
                  <path class="cls-1" d="m31.82,17.75c-.26,0-.51-.18-.59-.46-.08-.22-1.94-5.52-11.21-5.51-9.25,0-10.93,5.27-11,5.49-.1.33-.43.53-.72.46-.3-.07-.47-.39-.38-.72.09-.26,2.01-6.45,12.1-6.45,10.08,0,12.2,6.16,12.3,6.43.1.32-.05.65-.36.74-.05.01-.09.02-.14.02Z"/>
                  <path class="cls-1" d="m31.84,18.02c-.38,0-.73-.27-.85-.66-.08-.21-1.84-5.31-10.97-5.31-9.09,0-10.69,5.07-10.76,5.29-.14.47-.6.76-1.04.66-.21-.05-.38-.19-.49-.38-.1-.19-.12-.43-.06-.65.09-.27,2.07-6.66,12.35-6.66,10.23,0,12.43,6.36,12.53,6.63.07.23.06.46-.04.66-.1.2-.27.34-.48.4-.06.02-.13.03-.2.03Zm-11.82-6.5c9.46,0,11.36,5.48,11.45,5.71.06.18.26.29.41.25.08-.02.15-.08.19-.16.04-.08.04-.17.01-.26-.1-.25-2.14-6.23-12.06-6.23-9.94,0-11.78,5.98-11.86,6.24-.05.18.04.36.21.4.17.04.35-.08.41-.26.08-.23,1.81-5.7,11.24-5.7Z"/>
                </g>
                <g>
                  <path class="cls-1" d="m30.32,18.25c.19-.34.45-.64.79-.85t0,0c1.13-.72,2.66-.29,3.47.96.81,1.26,1.64,2.51,2.48,3.77.84,1.25.61,2.85-.57,3.57,0,0,0,0,0,0-.37.22-.78.34-1.2.35"/>
                  <path class="cls-6" d="m35.34,26.44c-.03-.27-.06-.53-.1-.8.36,0,.71-.11,1.01-.3.48-.29.8-.77.89-1.34.09-.57-.05-1.17-.4-1.68-.84-1.26-1.67-2.51-2.48-3.77-.33-.51-.81-.88-1.37-1.03-.55-.15-1.11-.07-1.58.22-.28.18-.51.43-.67.72-.22-.14-.45-.29-.67-.43.22-.4.53-.74.91-.98.63-.4,1.39-.51,2.14-.3.75.21,1.41.71,1.86,1.4.81,1.26,1.64,2.51,2.49,3.77.97,1.44.71,3.28-.65,4.12-.41.25-.89.39-1.39.4Z"/>
                </g>
                <g>
                  <path class="cls-1" d="m9.7,18.27c-.18-.35-.45-.65-.79-.86-1.13-.72-2.66-.29-3.48.96-.8,1.23-1.62,2.46-2.45,3.69-.85,1.25-.62,2.85.55,3.57.36.22.76.33,1.18.35"/>
                  <path class="cls-6" d="m4.65,26.36c-.49-.02-.96-.16-1.36-.4-1.36-.83-1.61-2.68-.63-4.11.84-1.23,1.65-2.46,2.46-3.69.45-.7,1.12-1.2,1.87-1.4.75-.21,1.51-.1,2.14.3.38.24.7.59.92,1-.22.14-.45.28-.68.43-.16-.3-.39-.55-.67-.73-.46-.3-1.02-.37-1.57-.22-.56.15-1.04.52-1.37,1.03-.8,1.23-1.61,2.46-2.45,3.69-.72,1.06-.52,2.41.47,3.02.3.18.63.28.99.3-.04.27-.07.53-.11.8Z"/>
                </g>
                <path class="cls-5" d="m16.18,30.28c-1.36,1.64-3.35,2.79-4.76,2.61-1.38-.17-1.85-3.05-.69-5.49,1.16-2.37,3.7-2.9,5.32-2,1.64.93,1.5,3.16.13,4.88Z"/>
                <path class="cls-5" d="m23.77,30.28c1.36,1.64,3.34,2.79,4.75,2.61,1.38-.17,1.87-3.05.71-5.49-1.15-2.37-3.69-2.9-5.31-2-1.64.93-1.51,3.16-.15,4.88Z"/>
                <path class="cls-5" d="m22.35,34.79c-.48.54-1.55.97-2.39.97-.84,0-1.91-.44-2.38-.97-.47-.54.6-.97,2.39-.97,1.79,0,2.86.44,2.38.97Z"/>
                <path class="cls-5" d="m20.61,36.19c0,.31-.29.57-.65.57-.36,0-.65-.25-.65-.57,0-.31.29-.57.65-.57.36,0,.65.25.65.57Z"/>
                <g>
                  <g>
                    <path class="cls-2" d="m14.96,29.08c0,.2-.19.36-.41.36-.22,0-.39-.16-.39-.36,0-.2.19-.36.41-.36.22,0,.39.16.39.36Z"/>
                    <path class="cls-2" d="m14.54,29.64c-.33,0-.59-.25-.58-.56.01-.31.29-.56.62-.56.33,0,.59.25.58.56,0,.31-.29.56-.62.56Zm.03-.73c-.11,0-.2.07-.2.17,0,.09.08.17.19.17.11,0,.2-.07.2-.17,0-.09-.08-.17-.19-.17Z"/>
                  </g>
                  <g>
                    <path class="cls-2" d="m14.55,29.56c-.29,0-.51-.22-.5-.48.01-.27.25-.48.54-.48.29,0,.51.22.5.48,0,.27-.25.48-.54.48Zm.03-.73c-.15,0-.28.11-.29.24,0,.13.12.24.27.24.15,0,.28-.11.29-.24,0-.13-.12-.24-.27-.24Z"/>
                    <path class="cls-2" d="m14.54,29.76c-.4,0-.71-.31-.7-.68.02-.38.35-.68.75-.68.4,0,.71.3.7.68-.01.37-.35.68-.75.68Zm.03-.73s-.08.03-.08.05c0,.04.15.04.15,0,0-.02-.03-.05-.07-.05Z"/>
                  </g>
                </g>
                <g>
                  <g>
                    <path class="cls-2" d="m25.52,29.08c0,.2-.17.36-.39.36-.22,0-.4-.16-.41-.36,0-.2.17-.36.39-.36.22,0,.4.16.41.36Z"/>
                    <path class="cls-2" d="m25.14,29.64c-.33,0-.61-.25-.62-.56,0-.31.25-.56.58-.56.33,0,.61.25.62.56.01.31-.25.56-.58.56Zm-.02-.73c-.11,0-.19.07-.19.17,0,.09.09.17.2.17.11,0,.2-.07.19-.17,0-.09-.09-.17-.2-.17Z"/>
                  </g>
                  <g>
                    <path class="cls-2" d="m25.13,29.56c-.29,0-.53-.22-.54-.48,0-.27.22-.48.51-.48.29,0,.53.22.54.48,0,.27-.22.48-.51.48Zm-.02-.73c-.15,0-.27.11-.27.24,0,.13.13.24.28.24.15,0,.27-.11.27-.24,0-.13-.13-.24-.28-.24Z"/>
                    <path class="cls-2" d="m25.14,29.76c-.4,0-.73-.31-.74-.68,0-.38.31-.68.7-.68.4,0,.73.3.74.68.01.37-.3.68-.7.68Zm-.02-.73s-.07.03-.07.05c0,.04.15.04.15,0,0-.02-.03-.05-.08-.05Z"/>
                  </g>
                </g>
                <path class="cls-5" d="m22.36,37.73c-1.02,0-2.26-.52-2.56-.65-.19-.08-.27-.3-.18-.48.09-.18.32-.25.51-.17.81.36,2.17.75,2.66.51.07-.03.14-.09.16-.24.03-.2.22-.33.43-.3.21.03.36.21.33.41-.05.34-.24.61-.55.76-.23.11-.5.16-.8.16Z"/>
                <path class="cls-5" d="m17.56,37.73c-.3,0-.58-.04-.8-.16-.31-.15-.5-.42-.55-.76-.03-.2.12-.38.33-.41.21-.03.4.1.43.3.02.15.09.2.16.24.49.24,1.86-.15,2.66-.51.19-.08.42,0,.51.17.09.18,0,.39-.18.48-.3.13-1.54.65-2.56.65Z"/>
                <g>
                  <path class="cls-5" d="m16.62,30.65s-.06,0-.08-.03c-.05-.04-.05-.12,0-.17.9-.95,2.15-1.49,3.45-1.49.07,0,.12.05.12.12,0,.07-.05.12-.12.12-1.23,0-2.42.51-3.27,1.41-.02.03-.06.04-.09.04Z"/>
                  <path class="cls-5" d="m23.33,30.65s-.07-.01-.09-.04c-.85-.9-2.03-1.41-3.26-1.41-.07,0-.12-.05-.12-.12,0-.07.05-.12.12-.12,1.3,0,2.55.54,3.44,1.49.05.05.04.12,0,.17-.02.02-.05.03-.08.03Z"/>
                </g>
              </g>
              <g>
                <path class="cls-6" d="m28.47,39.15c-.31,0-.6-.2-.67-.5-.08-.33.14-.64.5-.7,4.86-.82,7.86-2.65,8.92-5.42,1.8-4.87-2.44-11.17-2.43-11.24-.19-.29-.12-.66.14-.83.26-.17.63-.07.82.22.11.28,4.64,6.91,2.67,12.35-1.18,3.16-4.5,5.21-9.84,6.11-.04,0-.08,0-.12,0Z"/>
                <path class="cls-1" d="m28.49,39.41c-.46,0-.87-.3-.96-.72-.11-.47.21-.93.72-1.02,4.76-.81,7.69-2.58,8.72-5.27,1.75-4.72-2.39-10.93-2.38-10.99-.13-.2-.18-.44-.14-.66.04-.23.16-.41.35-.53.18-.12.41-.14.64-.08.22.06.42.21.55.41.11.28,4.74,7.01,2.72,12.59-1.21,3.24-4.59,5.34-10.04,6.26-.06,0-.11.01-.17.01Zm6.76-18.77c-.06,0-.11.01-.16.04-.07.04-.12.12-.13.21-.01.09,0,.18.06.26-.02.07,4.3,6.52,2.48,11.48-1.09,2.86-4.16,4.73-9.12,5.57-.2.03-.32.21-.28.4.04.18.24.3.44.27,5.24-.88,8.48-2.89,9.64-5.96,1.94-5.33-2.5-11.83-2.61-12.1-.05-.08-.13-.14-.21-.16-.03,0-.06-.01-.09-.01Z"/>
              </g>
              <path class="cls-1" d="m35.88,24.01c-.56-1.52-1.66-3.21-1.67-3.23.04-.08.08-.17.12-.25.23-.18.47-.36.7-.55.09.05.19.09.28.14,0,.01.23-.04.31.08.34.54,1.23,2,1.75,3.4-.49.14-.99.28-1.49.41Z"/>
              <g>
                <path class="cls-6" d="m27.62,40.51h0c-1.19,0-2.18-.88-2.21-1.96t0,0c-.03-1.08.88-1.96,2.04-1.96h0c1.16,0,2.15.88,2.21,1.96t0,0c.06,1.08-.85,1.96-2.04,1.96Z"/>
                <path class="cls-1" d="m27.63,40.78c-1.35,0-2.48-1-2.51-2.23-.03-1.23,1.01-2.23,2.32-2.23,1.31,0,2.44,1,2.51,2.23.07,1.23-.97,2.23-2.32,2.23Zm-.17-3.92c-1,0-1.79.76-1.76,1.69.03.93.88,1.7,1.91,1.7,1.02,0,1.82-.76,1.76-1.7-.05-.94-.91-1.69-1.91-1.69Z"/>
              </g>
            </g>
          </g>
        </g>
      </g>
    </g>
  </g>
</svg>