<?xml version="1.0" encoding="UTF-8"?>
<svg id="_レイヤー_2" data-name="レイヤー 2" xmlns="http://www.w3.org/2000/svg" xmlns:xlink="http://www.w3.org/1999/xlink" viewBox="0 0 316.95 52.33">
  <defs>
    <style>
      .cls-1 {
        fill: none;
      }

      .cls-2 {
        clip-path: url(#clippath);
      }

      .cls-3 {
        fill: #f4b913;
      }

      .cls-4 {
        fill: #f9bf14;
      }

      .cls-5 {
        fill: #f7bc14;
      }

      .cls-6 {
        fill: #f8be14;
      }

      .cls-7 {
        fill: #f8bd14;
      }

      .cls-8 {
        fill: #f3b813;
      }

      .cls-9 {
        fill: #f3b713;
      }

      .cls-10 {
        fill: #fabb00;
      }

      .cls-11 {
        fill: #fac014;
      }

      .cls-12 {
        fill: #efb213;
      }

      .cls-13 {
        fill: #efb313;
      }

      .cls-14 {
        fill: #ecae12;
      }

      .cls-15 {
        fill: #f1b513;
      }

      .cls-16 {
        fill: #ebad12;
      }

      .cls-17 {
        fill: #f5ba13;
      }

      .cls-18 {
        fill: #eaab12;
      }

      .cls-19 {
        fill: #eaac12;
      }

      .cls-20 {
        fill: #f6bb13;
      }

      .cls-21 {
        fill: #e7a812;
      }

      .cls-22 {
        fill: #e8a912;
      }

      .cls-23 {
        fill: #e4a411;
      }

      .cls-24 {
        fill: #e9aa12;
      }

      .cls-25 {
        fill: #eeb012;
      }

      .cls-26 {
        fill: #e3a311;
      }

      .cls-27 {
        fill: #fff;
      }

      .cls-28 {
        fill: #f2b613;
      }

      .cls-29 {
        fill: #e6a711;
      }

      .cls-30 {
        fill: #edaf12;
      }

      .cls-31 {
        fill: #f0b413;
      }

      .cls-32 {
        fill: #e5a611;
      }

      .cls-33 {
        fill: #e5a511;
      }

      .cls-34 {
        fill: #bababa;
      }

      .cls-35 {
        fill: #b12332;
      }

      .cls-36 {
        fill: #232323;
      }

      .cls-37 {
        fill: #595959;
      }

      .cls-38 {
        clip-path: url(#clippath-1);
      }

      .cls-39 {
        clip-path: url(#clippath-4);
      }

      .cls-40 {
        clip-path: url(#clippath-3);
      }

      .cls-41 {
        clip-path: url(#clippath-2);
      }

      .cls-42 {
        clip-path: url(#clippath-5);
      }

      .cls-43 {
        opacity: .5;
      }
    </style>
    <clipPath id="clippath">
      <polygon class="cls-1" points="16.38 24.39 30.77 44.02 34.62 44.18 17.52 20.77 16.38 24.39"/>
    </clipPath>
    <clipPath id="clippath-1">
      <polygon class="cls-1" points="12.75 35.9 18.71 44.03 21.86 44.03 13.67 33 12.75 35.9"/>
    </clipPath>
    <clipPath id="clippath-2">
      <polygon class="cls-1" points="14.56 30.15 24.74 44.03 28.27 44.02 15.66 26.69 14.56 30.15"/>
    </clipPath>
    <clipPath id="clippath-3">
      <path class="cls-1" d="m56.82,7.12H23.81c-1.18,0-2.23.77-2.58,1.9l-1.22,3.86,22.83,31.14h4.05c1.18,0,2.23-.77,2.58-1.89l9.93-31.48c.55-1.74-.75-3.52-2.58-3.52Z"/>
    </clipPath>
    <clipPath id="clippath-4">
      <path class="cls-1" d="m11.3,40.51c-.55,1.74.75,3.52,2.58,3.52h1.31s-3.5-4.77-3.5-4.77l-.39,1.25Z"/>
    </clipPath>
    <clipPath id="clippath-5">
      <polygon class="cls-1" points="18.19 18.64 36.81 44.02 41.19 44.02 19.55 14.34 18.19 18.64"/>
    </clipPath>
  </defs>
  <g id="layer">
    <g>
      <g>
        <rect class="cls-1" width="316.95" height="52.33"/>
        <g>
          <g class="cls-2">
            <rect class="cls-26" x="16.38" y="43.52" width="18.52" height=".51"/>
            <rect class="cls-23" x="16.38" y="43.01" width="18.31" height=".51"/>
            <rect class="cls-33" x="16.38" y="42.51" width="17.82" height=".51"/>
            <rect class="cls-32" x="16.38" y="42" width="17.93" height=".51"/>
            <rect class="cls-29" x="16.38" y="41.49" width="16.91" height=".51"/>
            <rect class="cls-21" x="16.38" y="40.99" width="16.91" height=".51"/>
            <rect class="cls-22" x="16.38" y="40.48" width="16.91" height=".51"/>
            <rect class="cls-24" x="16.38" y="39.98" width="16.91" height=".51"/>
            <rect class="cls-18" x="16.38" y="39.47" width="16.91" height=".51"/>
            <rect class="cls-19" x="16.38" y="38.97" width="16.91" height=".51"/>
            <rect class="cls-16" x="16.38" y="38.46" width="16.91" height=".51"/>
            <rect class="cls-14" x="16.38" y="37.95" width="16.91" height=".51"/>
            <rect class="cls-30" x="16.38" y="37.45" width="16.91" height=".51"/>
            <rect class="cls-25" x="16.38" y="36.94" width="16.91" height=".51"/>
            <rect class="cls-12" x="16.38" y="36.44" width="16.91" height=".51"/>
            <rect class="cls-13" x="16.38" y="35.93" width="16.91" height=".51"/>
            <rect class="cls-31" x="16.38" y="35.42" width="16.91" height=".51"/>
            <rect class="cls-15" x="16.38" y="34.92" width="16.91" height=".51"/>
            <rect class="cls-28" x="16.38" y="34.41" width="16.91" height=".51"/>
            <rect class="cls-9" x="16.38" y="33.91" width="16.91" height=".51"/>
            <rect class="cls-8" x="16.38" y="33.4" width="16.91" height=".51"/>
            <rect class="cls-3" x="16.38" y="32.89" width="16.91" height=".51"/>
            <rect class="cls-17" x="16.38" y="32.39" width="16.91" height=".51"/>
            <rect class="cls-20" x="16.38" y="31.88" width="16.91" height=".51"/>
            <rect class="cls-5" x="16.38" y="31.38" width="16.91" height=".51"/>
            <rect class="cls-7" x="16.38" y="30.87" width="16.91" height=".51"/>
            <rect class="cls-6" x="16.38" y="30.37" width="16.91" height=".51"/>
            <rect class="cls-4" x="16.38" y="29.86" width="16.91" height=".51"/>
            <rect class="cls-11" x="16.38" y="29.35" width="16.91" height=".51"/>
            <rect class="cls-11" x="16.38" y="20.3" width="16.91" height="9.06"/>
          </g>
          <g class="cls-38">
            <rect class="cls-26" x="12.75" y="43.79" width="10.01" height=".24"/>
            <rect class="cls-23" x="12.75" y="43.54" width="10.01" height=".24"/>
            <rect class="cls-33" x="12.75" y="43.3" width="10.01" height=".24"/>
            <rect class="cls-32" x="12.75" y="43.06" width="10.01" height=".24"/>
            <rect class="cls-29" x="12.75" y="42.82" width="8.47" height=".24"/>
            <rect class="cls-21" x="12.75" y="42.58" width="8.47" height=".24"/>
            <rect class="cls-22" x="12.75" y="42.34" width="8.47" height=".24"/>
            <rect class="cls-24" x="12.75" y="42.09" width="8.47" height=".24"/>
            <rect class="cls-18" x="12.75" y="41.85" width="8.47" height=".24"/>
            <rect class="cls-19" x="12.75" y="41.61" width="8.47" height=".24"/>
            <rect class="cls-16" x="12.75" y="41.37" width="8.47" height=".24"/>
            <rect class="cls-14" x="12.75" y="41.13" width="8.47" height=".24"/>
            <rect class="cls-30" x="12.75" y="40.89" width="8.47" height=".24"/>
            <rect class="cls-25" x="12.75" y="40.64" width="8.47" height=".24"/>
            <rect class="cls-12" x="12.75" y="40.4" width="8.47" height=".24"/>
            <rect class="cls-13" x="12.75" y="40.16" width="8.47" height=".24"/>
            <rect class="cls-31" x="12.75" y="39.92" width="8.47" height=".24"/>
            <rect class="cls-15" x="12.75" y="39.68" width="8.47" height=".24"/>
            <rect class="cls-28" x="12.75" y="39.44" width="8.47" height=".24"/>
            <rect class="cls-9" x="12.75" y="39.19" width="8.47" height=".24"/>
            <rect class="cls-8" x="12.75" y="38.95" width="8.47" height=".24"/>
            <rect class="cls-3" x="12.75" y="38.71" width="8.47" height=".24"/>
            <rect class="cls-17" x="12.75" y="38.47" width="8.47" height=".24"/>
            <rect class="cls-20" x="12.75" y="38.23" width="8.47" height=".24"/>
            <rect class="cls-5" x="12.75" y="37.99" width="8.47" height=".24"/>
            <rect class="cls-7" x="12.75" y="37.74" width="8.47" height=".24"/>
            <rect class="cls-6" x="12.75" y="37.5" width="8.47" height=".24"/>
            <rect class="cls-4" x="12.75" y="37.26" width="8.47" height=".24"/>
            <rect class="cls-11" x="12.75" y="37.02" width="8.47" height=".24"/>
            <rect class="cls-11" x="12.75" y="32.48" width="8.47" height="4.54"/>
          </g>
          <g class="cls-41">
            <rect class="cls-26" x="14.56" y="43.65" width="14.08" height=".37"/>
            <rect class="cls-23" x="14.56" y="43.28" width="14.08" height=".37"/>
            <rect class="cls-33" x="14.56" y="42.9" width="14.08" height=".37"/>
            <rect class="cls-32" x="14.56" y="42.53" width="13.26" height=".37"/>
            <rect class="cls-29" x="14.56" y="42.16" width="12.69" height=".37"/>
            <rect class="cls-21" x="14.56" y="41.78" width="12.69" height=".37"/>
            <rect class="cls-22" x="14.56" y="41.41" width="12.69" height=".37"/>
            <rect class="cls-24" x="14.56" y="41.04" width="12.69" height=".37"/>
            <rect class="cls-18" x="14.56" y="40.66" width="12.69" height=".37"/>
            <rect class="cls-19" x="14.56" y="40.29" width="12.69" height=".37"/>
            <rect class="cls-16" x="14.56" y="39.91" width="12.69" height=".37"/>
            <rect class="cls-14" x="14.56" y="39.54" width="12.69" height=".37"/>
            <rect class="cls-30" x="14.56" y="39.17" width="12.69" height=".37"/>
            <rect class="cls-25" x="14.56" y="38.79" width="12.69" height=".37"/>
            <rect class="cls-12" x="14.56" y="38.42" width="12.69" height=".37"/>
            <rect class="cls-13" x="14.56" y="38.05" width="12.69" height=".37"/>
            <rect class="cls-31" x="14.56" y="37.67" width="12.69" height=".37"/>
            <rect class="cls-15" x="14.56" y="37.3" width="12.69" height=".37"/>
            <rect class="cls-28" x="14.56" y="36.92" width="12.69" height=".37"/>
            <rect class="cls-9" x="14.56" y="36.55" width="12.69" height=".37"/>
            <rect class="cls-8" x="14.56" y="36.18" width="12.69" height=".37"/>
            <rect class="cls-3" x="14.56" y="35.8" width="12.69" height=".37"/>
            <rect class="cls-17" x="14.56" y="35.43" width="12.69" height=".37"/>
            <rect class="cls-20" x="14.56" y="35.06" width="12.69" height=".37"/>
            <rect class="cls-5" x="14.56" y="34.68" width="12.69" height=".37"/>
            <rect class="cls-7" x="14.56" y="34.31" width="12.69" height=".37"/>
            <rect class="cls-6" x="14.56" y="33.93" width="12.69" height=".37"/>
            <rect class="cls-4" x="14.56" y="33.56" width="12.69" height=".37"/>
            <rect class="cls-11" x="14.56" y="33.19" width="12.69" height=".37"/>
            <rect class="cls-11" x="14.56" y="26.5" width="12.69" height="6.69"/>
          </g>
          <g class="cls-40">
            <rect class="cls-26" x="20.01" y="43.17" width="39.94" height=".85"/>
            <rect class="cls-23" x="20.01" y="42.33" width="39.94" height=".85"/>
            <rect class="cls-33" x="20.01" y="41.48" width="39.94" height=".85"/>
            <rect class="cls-32" x="20.01" y="40.63" width="39.94" height=".85"/>
            <rect class="cls-29" x="20.01" y="39.78" width="39.94" height=".85"/>
            <rect class="cls-21" x="20.01" y="38.94" width="39.94" height=".85"/>
            <rect class="cls-22" x="20.01" y="38.09" width="39.94" height=".85"/>
            <rect class="cls-24" x="20.01" y="37.24" width="39.94" height=".85"/>
            <rect class="cls-18" x="20.01" y="36.4" width="39.94" height=".85"/>
            <rect class="cls-19" x="20.01" y="35.55" width="39.94" height=".85"/>
            <rect class="cls-16" x="20.01" y="34.7" width="39.94" height=".85"/>
            <rect class="cls-14" x="20.01" y="33.85" width="39.94" height=".85"/>
            <rect class="cls-30" x="20.01" y="33.01" width="39.94" height=".85"/>
            <rect class="cls-25" x="20.01" y="32.16" width="39.94" height=".85"/>
            <rect class="cls-12" x="20.01" y="31.31" width="39.94" height=".85"/>
            <rect class="cls-13" x="20.01" y="30.46" width="39.94" height=".85"/>
            <rect class="cls-31" x="20.01" y="29.62" width="39.94" height=".85"/>
            <rect class="cls-15" x="20.01" y="28.77" width="39.94" height=".85"/>
            <rect class="cls-28" x="20.01" y="27.92" width="39.94" height=".85"/>
            <rect class="cls-9" x="20.01" y="27.08" width="39.94" height=".85"/>
            <rect class="cls-8" x="20.01" y="26.23" width="39.94" height=".85"/>
            <rect class="cls-3" x="20.01" y="25.38" width="39.94" height=".85"/>
            <rect class="cls-17" x="20.01" y="24.53" width="39.94" height=".85"/>
            <rect class="cls-20" x="20.01" y="23.69" width="39.94" height=".85"/>
            <rect class="cls-5" x="20.01" y="22.84" width="39.94" height=".85"/>
            <rect class="cls-7" x="20.01" y="21.99" width="39.94" height=".85"/>
            <rect class="cls-6" x="20.01" y="21.14" width="39.94" height=".85"/>
            <rect class="cls-4" x="20.01" y="20.3" width="39.94" height=".85"/>
            <rect class="cls-11" x="20.01" y="19.45" width="39.94" height=".85"/>
            <rect class="cls-11" x="20.01" y="7.12" width="39.94" height="12.33"/>
          </g>
          <g class="cls-43">
            <g class="cls-39">
              <rect class="cls-26" x="10.75" y="44.03" width="4.44" height="0"/>
              <rect class="cls-26" x="10.75" y="43.92" width="4.44" height=".11"/>
              <rect class="cls-23" x="10.75" y="43.81" width="4.44" height=".11"/>
              <rect class="cls-33" x="10.75" y="43.7" width="4.44" height=".11"/>
              <rect class="cls-32" x="10.75" y="43.59" width="4.44" height=".11"/>
              <rect class="cls-29" x="10.75" y="43.48" width="4.44" height=".11"/>
              <rect class="cls-21" x="10.75" y="43.37" width="4.44" height=".11"/>
              <rect class="cls-22" x="10.75" y="43.26" width="4.44" height=".11"/>
              <rect class="cls-24" x="10.75" y="43.15" width="4.44" height=".11"/>
              <rect class="cls-18" x="10.75" y="43.04" width="4.44" height=".11"/>
              <rect class="cls-19" x="10.75" y="42.93" width="4.44" height=".11"/>
              <rect class="cls-16" x="10.75" y="42.82" width="4.44" height=".11"/>
              <rect class="cls-14" x="10.75" y="42.71" width="4.44" height=".11"/>
              <rect class="cls-30" x="10.75" y="42.6" width="4.44" height=".11"/>
              <rect class="cls-25" x="10.75" y="42.49" width="4.44" height=".11"/>
              <rect class="cls-12" x="10.75" y="42.38" width="4.44" height=".11"/>
              <rect class="cls-13" x="10.75" y="42.28" width="4.44" height=".11"/>
              <rect class="cls-31" x="10.75" y="42.17" width="4.44" height=".11"/>
              <rect class="cls-15" x="10.75" y="42.06" width="4.44" height=".11"/>
              <rect class="cls-28" x="10.75" y="41.95" width="4.44" height=".11"/>
              <rect class="cls-9" x="10.75" y="41.84" width="4.44" height=".11"/>
              <rect class="cls-8" x="10.75" y="41.73" width="4.44" height=".11"/>
              <rect class="cls-3" x="10.75" y="41.62" width="4.44" height=".11"/>
              <rect class="cls-17" x="10.75" y="41.51" width="4.44" height=".11"/>
              <rect class="cls-20" x="10.75" y="41.4" width="4.44" height=".11"/>
              <rect class="cls-5" x="10.75" y="41.29" width="4.44" height=".11"/>
              <rect class="cls-7" x="10.75" y="41.18" width="4.44" height=".11"/>
              <rect class="cls-6" x="10.75" y="41.07" width="4.44" height=".11"/>
              <rect class="cls-4" x="10.75" y="40.96" width="4.44" height=".11"/>
              <rect class="cls-11" x="10.75" y="40.85" width="4.44" height=".11"/>
              <rect class="cls-11" x="10.75" y="39.26" width="4.44" height="1.59"/>
            </g>
          </g>
          <g class="cls-42">
            <rect class="cls-26" x="18.19" y="43.38" width="24.06" height=".64"/>
            <rect class="cls-23" x="18.19" y="42.75" width="23.06" height=".64"/>
            <rect class="cls-33" x="18.19" y="42.11" width="23.12" height=".64"/>
            <rect class="cls-32" x="18.19" y="41.47" width="22.54" height=".64"/>
            <rect class="cls-29" x="18.19" y="40.83" width="21.13" height=".64"/>
            <rect class="cls-21" x="18.19" y="40.19" width="21.13" height=".64"/>
            <rect class="cls-22" x="18.19" y="39.56" width="21.13" height=".64"/>
            <rect class="cls-24" x="18.19" y="38.92" width="21.13" height=".64"/>
            <rect class="cls-18" x="18.19" y="38.28" width="21.13" height=".64"/>
            <rect class="cls-19" x="18.19" y="37.64" width="21.13" height=".64"/>
            <rect class="cls-16" x="18.19" y="37" width="21.13" height=".64"/>
            <rect class="cls-14" x="18.19" y="36.37" width="21.13" height=".64"/>
            <rect class="cls-30" x="18.19" y="35.73" width="21.13" height=".64"/>
            <rect class="cls-25" x="18.19" y="35.09" width="21.13" height=".64"/>
            <rect class="cls-12" x="18.19" y="34.45" width="21.13" height=".64"/>
            <rect class="cls-13" x="18.19" y="33.81" width="21.13" height=".64"/>
            <rect class="cls-31" x="18.19" y="33.18" width="21.13" height=".64"/>
            <rect class="cls-15" x="18.19" y="32.54" width="21.13" height=".64"/>
            <rect class="cls-28" x="18.19" y="31.9" width="21.13" height=".64"/>
            <rect class="cls-9" x="18.19" y="31.26" width="21.13" height=".64"/>
            <rect class="cls-8" x="18.19" y="30.63" width="21.13" height=".64"/>
            <rect class="cls-3" x="18.19" y="29.99" width="21.13" height=".64"/>
            <rect class="cls-17" x="18.19" y="29.35" width="21.13" height=".64"/>
            <rect class="cls-20" x="18.19" y="28.71" width="21.13" height=".64"/>
            <rect class="cls-5" x="18.19" y="28.07" width="21.13" height=".64"/>
            <rect class="cls-7" x="18.19" y="27.44" width="21.13" height=".64"/>
            <rect class="cls-6" x="18.19" y="26.8" width="21.13" height=".64"/>
            <rect class="cls-4" x="18.19" y="26.16" width="21.13" height=".64"/>
            <rect class="cls-11" x="18.19" y="25.52" width="21.13" height=".64"/>
            <rect class="cls-11" x="18.19" y="13.99" width="21.13" height="11.53"/>
          </g>
        </g>
        <g>
          <g>
            <g>
              <path class="cls-10" d="m26.43,24.25c-.15,0-.3-.04-.44-.11-2.65-1.47-4.01-3.82-3.55-6.14.45-3.17,3.57-6.28,6.95-6.9,2.87-.53,5.01,1.29,5.87,5,.11.48-.19.97-.67,1.08-.48.11-.97-.19-1.08-.67-.64-2.76-1.91-3.99-3.79-3.64-2.63.48-5.15,2.96-5.5,5.43-.31,1.57.71,3.19,2.65,4.27.43.24.59.79.35,1.22-.16.3-.47.46-.79.46Z"/>
              <path class="cls-10" d="m53.55,24.54c-.34,0-.67-.19-.82-.52-.21-.45-.01-.99.44-1.2,2.26-1.05,3.51-2.81,3.18-4.49-.36-2.51-2.88-4.99-5.51-5.47-1.95-.36-3.25.97-3.86,3.96-.1.49-.58.8-1.06.7-.49-.1-.8-.57-.7-1.06.8-3.96,2.98-5.92,5.95-5.37,3.37.62,6.49,3.73,6.96,6.94.49,2.47-1.16,5.01-4.2,6.42-.12.06-.25.08-.38.08Z"/>
              <path class="cls-10" d="m42.51,41.46c-1.53,0-2.6-.16-2.72-.17-.5-.02-1.13-.02-1.78-.03-3.5-.04-7.85-.1-10.7-3.03-1.99-2.04-2.92-5.11-2.85-9.38.22-13.37,14.93-14.6,15.07-14.61.04,0,.09,0,.13,0,3.93,0,13.18,1.36,15.76,13.71.5,4.48-.48,7.88-2.9,10.2-2.92,2.81-7.24,3.32-10.02,3.32Zm-2.87-25.44c-.87.07-13.19,1.3-13.38,12.84-.06,3.77.7,6.42,2.34,8.1,2.33,2.39,6.1,2.44,9.43,2.48.68,0,1.33.02,1.94.04.17.02,7.44,1.07,11.32-2.66,1.99-1.91,2.79-4.81,2.36-8.62-2.21-10.58-9.67-12.19-13.97-12.19h-.04Z"/>
              <path class="cls-10" d="m41.02,41.83c-.36,0-.73,0-1.11-.01-6.46.13-10.66-.97-13.23-3.48-1.94-1.9-2.88-4.49-2.88-7.91-.04-5.09,2.27-9.93,6.24-13.12-.06-.18-.09-.38-.07-.58.04-.46.3-.86.68-1.09.01-.11.04-.22.08-.33.21-.55.73-.9,1.31-.9s1.22.2,1.83.59c1.98-.84,4.03-1.24,6.12-1.17,4.04-.1,7.98,1.49,11.04,4.48,3.27,3.2,5.12,7.62,5.08,12.13,0,3.41-.94,6-2.88,7.9-2.44,2.39-6.31,3.5-12.19,3.5Zm-7.68-23.5c-.08.09-.18.17-.28.23-4.03,2.56-6.5,7.1-6.47,11.85,0,2.64.67,4.57,2.04,5.92,2.01,1.96,5.58,2.82,11.27,2.69h.04c5.69.13,9.29-.72,11.3-2.69,1.38-1.35,2.04-3.28,2.04-5.91.03-3.76-1.52-7.44-4.24-10.12-2.52-2.47-5.74-3.77-9.06-3.68-2.01-.05-3.9.37-5.71,1.26-.12.06-.24.1-.36.12-.08.07-.17.14-.26.19-.08.05-.19.1-.32.14Zm-.61-1.91c0,.06-.02.13-.04.19.03-.05.07-.1.11-.15-.02-.01-.05-.03-.07-.04Z"/>
              <g>
                <path class="cls-10" d="m54.24,27.55c-.49,0-.89-.39-.9-.88-.01-.5.38-.91.88-.92.26,0,.5-.08.73-.21.36-.21.61-.54.72-.94.11-.4.05-.82-.15-1.17l-2.04-3.53c-.21-.36-.54-.61-.94-.72-.4-.11-.82-.05-1.17.15-.22.13-.4.3-.53.5-.27.42-.83.54-1.24.27-.42-.27-.54-.82-.27-1.24.29-.45.68-.83,1.15-1.09.77-.45,1.67-.57,2.54-.33.86.23,1.58.79,2.03,1.56l2.04,3.53c.45.77.57,1.68.33,2.54-.23.86-.79,1.58-1.56,2.03-.48.28-1.03.43-1.58.45h-.02Z"/>
                <path class="cls-10" d="m54.25,27.92c-.49,0-.89-.39-.9-.88l-.02-.75c0-.24.08-.47.25-.64s.39-.27.63-.28c.19,0,.38-.06.55-.16.27-.16.46-.41.55-.71.08-.3.04-.62-.12-.89l-2.04-3.53c-.32-.56-1.04-.75-1.6-.43-.17.1-.3.22-.4.38-.13.2-.33.34-.56.4-.24.05-.48,0-.68-.12l-.63-.4c-.2-.13-.34-.33-.39-.57-.05-.23,0-.48.12-.68.32-.5.76-.92,1.27-1.22,1.78-1.03,4.06-.41,5.08,1.36l2.04,3.53c1.03,1.78.41,4.06-1.36,5.08-.54.31-1.14.48-1.76.5h-.02Z"/>
              </g>
              <g>
                <path class="cls-10" d="m25.67,27.48s-.02,0-.03,0c-.54-.02-1.08-.17-1.55-.45-1.6-.92-2.15-2.97-1.23-4.57l2-3.46c.92-1.6,2.97-2.15,4.57-1.22.47.27.87.65,1.16,1.11.27.42.14.98-.28,1.24-.42.27-.98.14-1.24-.28-.13-.21-.31-.38-.53-.51-.74-.43-1.69-.17-2.11.57l-2,3.46c-.43.74-.17,1.69.57,2.11.22.13.46.2.72.21.5.02.88.44.87.93-.02.49-.42.87-.9.87Z"/>
                <path class="cls-10" d="m25.66,27.85s-.02,0-.03,0c-.6-.02-1.2-.19-1.72-.5-1.78-1.03-2.39-3.31-1.36-5.08l2-3.46c.5-.86,1.3-1.48,2.26-1.73.96-.26,1.96-.13,2.82.37.52.3.96.73,1.28,1.23.27.42.14.98-.28,1.24l-.63.4c-.42.27-.98.14-1.24-.28-.1-.16-.24-.29-.4-.39-.27-.16-.59-.2-.89-.12-.3.08-.56.27-.71.55l-2,3.46c-.32.56-.13,1.28.43,1.6.17.1.35.15.54.16.5.02.88.44.87.93l-.03.75c-.02.49-.42.87-.9.87Z"/>
              </g>
              <path class="cls-10" d="m32.57,33.98c-.13,0-.26,0-.39-.03-.62-.08-1.17-.48-1.54-1.14-.77-1.32-.8-3.48-.08-5.24.53-1.24,1.48-2.15,2.68-2.57,1.15-.4,2.44-.3,3.46.25.82.45,1.35,1.17,1.54,2.08.26,1.2-.13,2.62-1.02,3.82,0,0,0,.01-.01.02-1.13,1.44-2.95,2.8-4.63,2.8Zm2.12-7.42c-.29,0-.59.05-.87.15-.51.18-1.2.59-1.61,1.56-.54,1.33-.45,2.8-.08,3.55.13.27.25.35.28.35.75.1,2.19-.6,3.37-2.1.58-.77.84-1.67.7-2.36-.08-.4-.3-.69-.66-.88-.33-.18-.73-.28-1.13-.28Zm1.8,4.07h0,0Z"/>
              <path class="cls-10" d="m47.32,33.98c-1.68,0-3.5-1.36-4.63-2.81,0,0,0-.01-.01-.02-.89-1.2-1.28-2.62-1.02-3.82.19-.91.73-1.63,1.54-2.08,1.02-.56,2.32-.66,3.46-.26,1.21.42,2.16,1.33,2.68,2.56.73,1.77.69,3.93-.08,5.25-.38.65-.93,1.06-1.55,1.14-.13.02-.26.03-.39.03Zm-3.21-3.91c1.18,1.5,2.61,2.2,3.36,2.1.03,0,.15-.09.28-.36.37-.76.46-2.22-.08-3.56-.41-.96-1.1-1.38-1.61-1.55-.68-.24-1.42-.18-2,.13-.35.2-.57.49-.65.88-.15.68.12,1.58.7,2.36Z"/>
              <path class="cls-10" d="m39.95,36.66c-1,0-2.2-.53-2.79-1.23-.33-.39-.41-.88-.21-1.31.33-.72,1.34-1.08,3-1.08h0c1.66,0,2.67.36,3,1.08.2.43.12.92-.21,1.31t0,0c-.6.7-1.8,1.23-2.79,1.23Zm-.24-1.82c.16.03.32.03.48,0-.08,0-.14,0-.24,0-.08,0-.16,0-.24,0Zm2.35,0h0,0Z"/>
              <path class="cls-10" d="m39.95,37.59c-.69,0-1.24-.63-1.24-1.43s.54-1.43,1.24-1.43,1.24.63,1.24,1.43-.54,1.43-1.24,1.43Zm0-1.8c-.35,0-.57.26-.57.37s.21.37.57.37.56-.26.56-.37-.21-.37-.56-.37Z"/>
              <g>
                <g>
                  <path class="cls-10" d="m34.98,30.73c-.7,0-1.27-.56-1.27-1.24s.57-1.24,1.27-1.24,1.27.56,1.27,1.24-.57,1.24-1.27,1.24Zm0-1.8c-.29,0-.54.25-.54.56s.24.56.54.56.53-.25.53-.56-.24-.56-.53-.56Z"/>
                  <path class="cls-10" d="m34.98,30.92c-.8,0-1.45-.64-1.45-1.43s.65-1.42,1.45-1.42,1.45.64,1.45,1.42-.65,1.43-1.45,1.43Zm0-1.8c-.19,0-.35.17-.35.37s.16.38.35.38.35-.17.35-.38-.16-.37-.35-.37Z"/>
                </g>
                <g>
                  <path class="cls-10" d="m34.98,30.85c-.76,0-1.38-.61-1.38-1.35s.62-1.35,1.38-1.35,1.38.61,1.38,1.35-.62,1.35-1.38,1.35Zm0-1.8c-.23,0-.42.2-.42.45s.19.45.42.45.42-.2.42-.45-.19-.45-.42-.45Z"/>
                  <path class="cls-10" d="m34.98,31.03c-.86,0-1.56-.69-1.56-1.54s.7-1.54,1.56-1.54,1.56.69,1.56,1.54-.7,1.54-1.56,1.54Zm0-1.54h0,0Z"/>
                </g>
              </g>
              <g>
                <g>
                  <path class="cls-10" d="m44.66,30.73c-.7,0-1.27-.56-1.27-1.24s.57-1.24,1.27-1.24,1.27.56,1.27,1.24-.57,1.24-1.27,1.24Zm0-1.8c-.29,0-.54.25-.54.56s.24.56.54.56.54-.25.54-.56-.24-.56-.54-.56Z"/>
                  <path class="cls-10" d="m44.66,30.92c-.8,0-1.45-.64-1.45-1.43s.65-1.42,1.45-1.42,1.45.64,1.45,1.42-.65,1.43-1.45,1.43Zm0-1.8c-.19,0-.35.17-.35.37s.16.38.35.38.35-.17.35-.38-.16-.37-.35-.37Z"/>
                </g>
                <g>
                  <path class="cls-10" d="m44.66,30.85c-.76,0-1.38-.61-1.38-1.35s.62-1.35,1.38-1.35,1.38.61,1.38,1.35-.62,1.35-1.38,1.35Zm0-1.8c-.23,0-.42.2-.42.45s.19.45.42.45.42-.2.42-.45-.19-.45-.42-.45Z"/>
                  <path class="cls-10" d="m44.66,31.03c-.86,0-1.56-.69-1.56-1.54s.7-1.54,1.56-1.54,1.56.69,1.56,1.54-.7,1.54-1.56,1.54Zm0-1.54h0,0Z"/>
                </g>
              </g>
              <path class="cls-10" d="m42.03,38.5c-1.03,0-2.17-.49-2.61-.7-.62-.29-.88-1.03-.59-1.64.29-.61,1.03-.88,1.64-.59.51.24,1.06.4,1.38.44.08-.12.18-.23.31-.32.27-.2.59-.28.92-.22.32.05.61.22.8.49.2.27.28.59.23.92-.09.6-.43,1.09-.96,1.37-.31.17-.69.25-1.12.25Zm1.42-1.73h0s0,0,0,0Z"/>
              <path class="cls-10" d="m37.86,38.5c-.43,0-.81-.08-1.12-.25-.53-.28-.87-.77-.96-1.37-.05-.32.03-.65.23-.92.2-.27.48-.44.81-.49.32-.05.65.03.91.22.12.09.23.2.31.33.32-.05.87-.2,1.38-.44.62-.29,1.35-.03,1.64.59.29.61.03,1.35-.58,1.64-.45.21-1.59.7-2.62.7Zm.36-2s0,0,0,0c0,0,0,0,0,0Z"/>
              <g>
                <path class="cls-10" d="m36.9,31.87c-.22,0-.51-.11-.67-.26-.42-.37-.46-1.01-.08-1.43.97-1.08,2.35-1.7,3.8-1.7.56,0,1.01.45,1.01,1.01s-.45,1.01-1.01,1.01c-.87,0-1.71.37-2.29,1.02-.17.19-.5.34-.75.34Z"/>
                <path class="cls-10" d="m42.99,31.87c-.25,0-.58-.14-.75-.33-.59-.66-1.43-1.03-2.3-1.03-.56,0-1.01-.45-1.01-1.01s.45-1.01,1.01-1.01c1.45,0,2.83.62,3.8,1.7.16.18.27.49.26.73-.01.27-.14.52-.34.7-.17.15-.45.26-.67.26Z"/>
              </g>
            </g>
            <g>
              <path class="cls-10" d="m51.59,19.78c-.67,0-1.26-.45-1.42-1.1-.05-.17-1.35-4.49-10.22-4.49s-9.94,4.27-9.99,4.45c-.18.79-.97,1.28-1.75,1.11-.79-.17-1.29-.96-1.11-1.74.06-.27,1.58-6.75,12.85-6.75s12.99,6.42,13.06,6.7c.1.38.04.78-.16,1.11-.2.34-.52.58-.9.67-.12.03-.24.05-.36.05Zm-22.74-1.4h0s0,0,0,0Zm23.05-.16s0,0,0,0c0,0,0,0,0,0Z"/>
              <path class="cls-10" d="m51.59,20.03c-.78,0-1.47-.53-1.66-1.29-.05-.17-1.28-4.3-9.98-4.3s-9.7,4.08-9.74,4.25c-.21.92-1.13,1.5-2.05,1.3-.92-.2-1.5-1.12-1.3-2.04.06-.28,1.62-6.94,13.1-6.94s13.23,6.6,13.31,6.88c.11.45.05.91-.19,1.3-.23.4-.61.68-1.05.79-.14.04-.28.05-.43.05Z"/>
            </g>
            <g>
              <path class="cls-10" d="m47.29,39.83c-.71,0-1.31-.51-1.44-1.2-.14-.8.39-1.56,1.18-1.71,3.95-.72,6.5-2.26,7.58-4.58,1.91-4.1-1.16-9.65-1.19-9.71-.19-.33-.24-.73-.14-1.1.1-.38.35-.7.69-.89.34-.2.74-.24,1.12-.14.38.1.69.35.88.69.16.27,3.87,6.87,1.3,12.39-1.5,3.24-4.77,5.33-9.72,6.23-.1.02-.18.02-.26.02Zm7.11-17.75s0,0,0,0c0,0,0,0,0,0Zm.58-.34s0,0,0,0c0,0,0,0,0,0Z"/>
              <path class="cls-10" d="m47.29,40.08c-.83,0-1.54-.59-1.69-1.41-.17-.93.45-1.83,1.38-2,3.86-.7,6.35-2.19,7.4-4.43,1.85-3.97-1.06-9.26-1.19-9.48-.22-.39-.28-.85-.16-1.29.12-.44.41-.81.81-1.04.4-.23.86-.29,1.31-.17.44.12.81.41,1.04.81.16.27,3.94,6.96,1.31,12.61-1.54,3.31-4.87,5.46-9.9,6.37-.12.02-.21.03-.31.03Z"/>
            </g>
            <path class="cls-10" d="m54.98,25.65c-.4,0-.76-.27-.87-.67-.27-1-1.15-2.61-1.64-3.41-.17-.28-.17-.63-.02-.91.16-.28.45-.46.78-.46h1.54s0,0,0,0c.32,0,.62.17.78.45.86,1.24,1.46,2.44,1.74,3.5.13.48-.16.97-.64,1.1l-1.45.39c-.08.02-.16.03-.23.03Z"/>
            <g>
              <path class="cls-10" d="m46.5,41.11c-1.51,0-2.74-1.23-2.74-2.74s1.23-2.74,2.74-2.74,2.74,1.23,2.74,2.74-1.23,2.74-2.74,2.74Zm0-3.68c-.52,0-.94.42-.94.94s.42.94.94.94.94-.42.94-.94-.42-.94-.94-.94Z"/>
              <path class="cls-10" d="m46.5,41.36c-1.65,0-2.99-1.34-2.99-2.99s1.34-2.99,2.99-2.99,2.99,1.34,2.99,2.99-1.34,2.99-2.99,2.99Zm0-3.68c-.38,0-.69.31-.69.69s.31.69.69.69.69-.31.69-.69-.31-.69-.69-.69Z"/>
            </g>
          </g>
          <g>
            <g>
              <path class="cls-36" d="m26.43,23.35c-2.22-1.23-3.49-3.2-3.1-5.18.4-2.8,3.16-5.63,6.23-6.19,2.57-.47,4.13,1.31,4.83,4.32"/>
              <path class="cls-36" d="m46.1,16.64c.65-3.21,2.24-5.15,4.9-4.66,3.07.56,5.83,3.39,6.23,6.19.42,2.14-1.11,4.28-3.68,5.48"/>
              <path class="cls-27" d="m39.61,15.13s-14.04,1.03-14.24,13.73,8.96,11.29,14.56,11.54c0,0,16.26,2.5,14.62-12.28-2.14-10.27-9.16-13.01-14.94-12.99Z"/>
              <path class="cls-36" d="m41.02,40.93c-.35,0-.72,0-1.08-.01-6.21.13-10.23-.89-12.62-3.23-1.76-1.72-2.61-4.1-2.61-7.27-.04-5.14,2.51-10.07,6.71-13.04-.07-.03-.14-.05-.21-.08-.22-.07-.36-.28-.34-.51.02-.23.19-.42.42-.45.02,0,.23-.03.56-.02-.06-.06-.11-.11-.15-.15-.15-.14-.2-.36-.13-.55.07-.19.26-.32.47-.32.55,0,1.13.24,1.72.73,1.99-.92,4.07-1.37,6.2-1.31,3.86-.1,7.55,1.4,10.43,4.23,3.09,3.03,4.85,7.22,4.81,11.48,0,3.16-.85,5.54-2.61,7.26-2.25,2.2-5.94,3.24-11.56,3.24Zm-1.08-1.01c5.97.14,9.76-.8,11.95-2.94,1.56-1.52,2.31-3.67,2.31-6.55.03-3.99-1.61-7.91-4.52-10.76-2.69-2.64-6.13-4.05-9.72-3.94h-.03c-2.08-.06-4.11.4-6.05,1.35-.14.07-.29.07-.43,0-.03.13-.11.26-.24.33-.1.05-.28.11-.42.12-.03.11-.11.21-.21.28-4.29,2.72-6.92,7.56-6.88,12.62,0,2.89.76,5.03,2.31,6.56,2.19,2.14,5.98,3.08,11.93,2.94Z"/>
              <g>
                <path class="cls-11" d="m50.07,19.35c.2-.32.49-.6.84-.8h0c1.17-.68,2.67-.27,3.34.9l2.04,3.53c.68,1.17.27,2.67-.9,3.34h0c-.36.21-.76.32-1.15.33"/>
                <path class="cls-37" d="m54.25,27.02l-.02-.75c.34,0,.68-.1.98-.28.99-.57,1.33-1.84.76-2.83l-2.04-3.53c-.57-.99-1.84-1.33-2.83-.76-.29.17-.53.4-.71.68l-.63-.4c.24-.38.57-.7.97-.92,1.35-.78,3.08-.31,3.85,1.03l2.04,3.53c.78,1.35.31,3.08-1.03,3.85-.41.23-.87.36-1.33.38Z"/>
              </g>
              <g>
                <path class="cls-11" d="m29.83,19.36c-.2-.32-.49-.6-.84-.81-1.17-.68-2.67-.27-3.34.9l-2,3.46c-.68,1.17-.27,2.67.9,3.34.36.21.75.31,1.13.33"/>
                <path class="cls-37" d="m25.66,26.95c-.46-.02-.91-.15-1.31-.38-1.35-.78-1.81-2.51-1.03-3.85l2-3.46c.78-1.35,2.5-1.81,3.85-1.03.39.23.73.55.97.93l-.63.4c-.18-.29-.42-.52-.71-.69-.99-.57-2.26-.23-2.83.76l-2,3.46c-.57.99-.23,2.26.76,2.83.29.17.62.26.96.28l-.03.75Z"/>
              </g>
              <path class="cls-36" d="m36.49,30.62c-1.21,1.54-2.94,2.61-4.2,2.44-1.23-.16-1.85-2.86-.91-5.15.94-2.22,3.33-2.72,4.87-1.87,1.56.87,1.44,2.96.24,4.58Z"/>
              <path class="cls-36" d="m43.4,30.62c1.21,1.54,2.94,2.61,4.2,2.44,1.23-.16,1.85-2.86.91-5.15-.94-2.22-3.33-2.72-4.87-1.87-1.56.87-1.44,2.96-.24,4.58Z"/>
              <path class="cls-36" d="m42.06,34.85c-.43.5-1.37.91-2.11.91-.74,0-1.68-.41-2.11-.91-.43-.5.52-.91,2.11-.91,1.59,0,2.54.41,2.11.91Z"/>
              <ellipse class="cls-36" cx="39.95" cy="36.16" rx=".34" ry=".53"/>
              <g>
                <g>
                  <ellipse class="cls-27" cx="34.98" cy="29.49" rx=".37" ry=".34"/>
                  <path class="cls-27" d="m34.98,30.02c-.3,0-.55-.24-.55-.53s.25-.53.55-.53.55.24.55.53-.25.53-.55.53Zm0-.68c-.1,0-.18.07-.18.16s.08.16.18.16.18-.07.18-.16-.08-.16-.18-.16Z"/>
                </g>
                <g>
                  <path class="cls-27" d="m34.98,29.95c-.26,0-.48-.2-.48-.45s.21-.45.48-.45.48.2.48.45-.21.45-.48.45Zm0-.68c-.14,0-.25.1-.25.23s.11.23.25.23.25-.1.25-.23-.11-.23-.25-.23Z"/>
                  <path class="cls-27" d="m34.98,30.13c-.37,0-.66-.29-.66-.64s.3-.64.66-.64.66.29.66.64-.3.64-.66.64Zm0-.68s-.07.02-.07.04c0,.04.14.04.14,0,0-.02-.03-.04-.07-.04Z"/>
                </g>
              </g>
              <g>
                <g>
                  <ellipse class="cls-27" cx="44.66" cy="29.49" rx=".37" ry=".34"/>
                  <path class="cls-27" d="m44.66,30.02c-.3,0-.55-.24-.55-.53s.25-.53.55-.53.55.24.55.53-.25.53-.55.53Zm0-.68c-.1,0-.18.07-.18.16s.08.16.18.16.18-.07.18-.16-.08-.16-.18-.16Z"/>
                </g>
                <g>
                  <path class="cls-27" d="m44.66,29.95c-.26,0-.48-.2-.48-.45s.21-.45.48-.45.48.2.48.45-.21.45-.48.45Zm0-.68c-.14,0-.25.1-.25.23s.11.23.25.23.25-.1.25-.23-.11-.23-.25-.23Z"/>
                  <path class="cls-27" d="m44.66,30.13c-.37,0-.66-.29-.66-.64s.3-.64.66-.64.66.29.66.64-.3.64-.66.64Zm0-.68s-.07.02-.07.04c0,.04.14.03.14,0,0-.02-.03-.04-.07-.04Z"/>
                </g>
              </g>
              <path class="cls-36" d="m42.03,37.6c-.88,0-1.97-.49-2.23-.61-.17-.08-.24-.28-.16-.45.08-.17.28-.24.45-.16.71.33,1.9.7,2.33.48.06-.03.12-.08.14-.22.03-.18.2-.31.38-.28.18.03.31.2.28.38-.05.32-.22.57-.49.71-.2.11-.44.15-.7.15Z"/>
              <path class="cls-36" d="m37.86,37.6c-.26,0-.5-.04-.7-.15-.27-.14-.44-.39-.49-.71-.03-.18.1-.35.28-.38.18-.03.35.1.38.28.02.14.09.19.14.22.43.23,1.62-.14,2.33-.48.17-.08.37,0,.45.16.08.17,0,.37-.16.45-.26.12-1.34.61-2.23.61Z"/>
              <g>
                <path class="cls-36" d="m36.9,30.97s-.05,0-.07-.03c-.05-.04-.05-.11,0-.16.8-.89,1.94-1.4,3.13-1.4.06,0,.11.05.11.11s-.05.11-.11.11c-1.13,0-2.21.48-2.96,1.32-.02.02-.05.04-.08.04Z"/>
                <path class="cls-36" d="m42.99,30.97s-.06-.01-.08-.04c-.75-.84-1.83-1.32-2.96-1.32-.06,0-.11-.05-.11-.11s.05-.11.11-.11c1.19,0,2.33.51,3.13,1.4.04.05.04.12,0,.16-.02.02-.05.03-.07.03Z"/>
              </g>
            </g>
            <g>
              <path class="cls-11" d="m51.59,18.88c-.25,0-.48-.17-.55-.43-.06-.21-1.5-5.17-11.09-5.17s-10.82,4.94-10.86,5.15c-.07.31-.38.5-.68.43-.31-.07-.5-.37-.43-.67.05-.25,1.43-6.04,11.97-6.04s12.13,5.77,12.19,6.02c.08.3-.11.61-.41.69-.05.01-.09.02-.14.02Z"/>
              <path class="cls-34" d="m51.59,19.13c-.37,0-.7-.25-.79-.61-.05-.2-1.43-4.98-10.85-4.98s-10.57,4.75-10.62,4.95c-.1.44-.54.72-.98.62-.44-.1-.72-.53-.62-.97.05-.25,1.47-6.24,12.22-6.24s12.37,5.96,12.44,6.21c.11.44-.15.88-.59,1-.07.02-.13.03-.2.03Zm-11.64-6.09c9.8,0,11.28,5.13,11.33,5.35.04.17.21.28.39.23.17-.04.27-.22.23-.39-.06-.24-1.62-5.83-11.95-5.83s-11.68,5.6-11.73,5.84c-.04.17.07.34.24.38.17.04.34-.07.38-.24.05-.22,1.32-5.34,11.11-5.34Z"/>
            </g>
            <g>
              <path class="cls-11" d="m47.29,38.93c-.27,0-.51-.19-.56-.47-.06-.31.15-.6.46-.66,4.25-.77,7.02-2.48,8.23-5.08,2.13-4.56-1.19-10.47-1.23-10.53-.16-.27-.06-.62.21-.77.27-.16.62-.06.77.21.15.26,3.64,6.47,1.27,11.57-1.38,2.96-4.42,4.88-9.06,5.72-.03,0-.07,0-.1,0Z"/>
              <path class="cls-34" d="m47.29,39.18c-.4,0-.73-.28-.8-.67-.08-.44.22-.87.66-.95,4.17-.76,6.87-2.42,8.05-4.94,2.05-4.39-1.08-10.06-1.22-10.3-.11-.19-.14-.41-.08-.62.06-.21.19-.39.38-.5s.41-.14.62-.08c.21.06.39.19.49.38.15.26,3.71,6.58,1.28,11.79-1.41,3.03-4.52,5.01-9.24,5.86-.05,0-.1.01-.15.01Zm7.4-17.58c-.06,0-.11.01-.16.04-.07.04-.13.11-.15.19-.02.08-.01.17.03.24.14.25,3.39,6.13,1.24,10.76-1.25,2.68-4.08,4.43-8.41,5.22-.17.03-.29.2-.26.37.03.17.2.28.38.26,4.55-.82,7.54-2.7,8.87-5.58,2.32-4.98-1.12-11.08-1.26-11.34-.04-.07-.11-.13-.19-.15-.03,0-.06-.01-.09-.01Z"/>
            </g>
            <path class="cls-11" d="m54.98,24.75c-.38-1.42-1.73-3.64-1.74-3.65h1.54c.04.06,1.22,1.65,1.65,3.26l-1.45.39Z"/>
            <g>
              <rect class="cls-11" x="44.67" y="36.53" width="3.68" height="3.68" rx="1.84" ry="1.84"/>
              <path class="cls-34" d="m46.5,40.46c-1.15,0-2.09-.94-2.09-2.09s.94-2.09,2.09-2.09,2.09.94,2.09,2.09-.94,2.09-2.09,2.09Zm0-3.68c-.88,0-1.59.71-1.59,1.59s.71,1.59,1.59,1.59,1.59-.71,1.59-1.59-.71-1.59-1.59-1.59Z"/>
            </g>
          </g>
        </g>
      </g>
      <g>
        <path class="cls-35" d="m78.66,39.67V14.1h6.92l12.77,15.64v-15.64h6.88v25.58h-6.88l-12.77-15.64v15.64h-6.92Z"/>
        <path class="cls-35" d="m128.27,23.83v5.1h-9.19v4.76h9.9v5.44h-16.97V14.31h16.97v5.44h-9.9v4.08h9.19Z"/>
        <path class="cls-35" d="m155.53,14.31v5.61h-7v19.21h-7.21v-19.21h-7v-5.61h21.22Z"/>
        <path class="cls-35" d="m180.58,22.64c-1.6-1.88-3.58-2.82-5.93-2.82-1.04,0-1.99.18-2.88.54-.88.36-1.64.85-2.28,1.48-.64.62-1.14,1.36-1.5,2.22-.37.86-.55,1.79-.55,2.78s.18,1.96.55,2.82c.36.86.87,1.61,1.52,2.24.65.63,1.4,1.13,2.28,1.49.87.36,1.81.54,2.82.54,2.21,0,4.2-.9,5.96-2.71v7.87l-.71.24c-1.06.36-2.05.63-2.96.8-.92.17-1.82.25-2.72.25-1.83,0-3.59-.33-5.27-1-1.68-.67-3.16-1.61-4.45-2.82s-2.31-2.65-3.09-4.31c-.78-1.66-1.16-3.48-1.16-5.45s.38-3.77,1.15-5.41c.76-1.64,1.79-3.05,3.07-4.24,1.28-1.19,2.77-2.11,4.46-2.78,1.69-.67,3.47-1,5.33-1,1.06,0,2.1.11,3.12.32,1.02.22,2.1.55,3.23,1v7.94Z"/>
        <path class="cls-35" d="m200.66,28.92h-7.43v10.2h-7.07V14.31h7.07v9.52h7.43v-9.52h7.07v24.82h-7.07v-10.2Z"/>
        <path class="cls-35" d="m214.66,39.12V14.31h7.78v24.82h-7.78Z"/>
        <path class="cls-35" d="m229.57,39.67V14.1h6.92l12.77,15.64v-15.64h6.88v25.58h-6.88l-12.77-15.64v15.64h-6.92Z"/>
        <path class="cls-35" d="m269.67,34.37l-1.17,4.76h-7.35l8.49-24.82h7.43l8.49,24.82h-7.5l-1.2-4.76h-7.18Zm1.27-5.1h4.67l-2.3-9.18h-.07l-2.3,9.18Z"/>
      </g>
    </g>
  </g>
</svg>