<?xml version="1.0" encoding="UTF-8"?>
<svg id="_レイヤー_2" data-name="レイヤー 2" xmlns="http://www.w3.org/2000/svg" xmlns:xlink="http://www.w3.org/1999/xlink" viewBox="0 0 447 79.96">
  <defs>
    <style>
      .cls-1 {
        fill: none;
      }

      .cls-2 {
        fill: #fff;
      }

      .cls-3 {
        fill: #ffc73b;
      }

      .cls-4 {
        fill: #ce001e;
      }

      .cls-5 {
        fill: #e2a92b;
      }

      .cls-6 {
        fill: #232323;
      }

      .cls-7 {
        fill: url(#_名称未設定グラデーション_31-21);
      }

      .cls-8 {
        fill: url(#_名称未設定グラデーション_31-22);
      }

      .cls-9 {
        fill: url(#_名称未設定グラデーション_31-29);
      }

      .cls-10 {
        fill: url(#_名称未設定グラデーション_31-58);
      }

      .cls-11 {
        fill: url(#_名称未設定グラデーション_31-57);
      }

      .cls-12 {
        fill: url(#_名称未設定グラデーション_31-56);
      }

      .cls-13 {
        fill: url(#_名称未設定グラデーション_31-53);
      }

      .cls-14 {
        fill: url(#_名称未設定グラデーション_31-52);
      }

      .cls-15 {
        fill: url(#_名称未設定グラデーション_31-55);
      }

      .cls-16 {
        fill: url(#_名称未設定グラデーション_31-54);
      }

      .cls-17 {
        fill: url(#_名称未設定グラデーション_31-51);
      }

      .cls-18 {
        fill: url(#_名称未設定グラデーション_31-50);
      }

      .cls-19 {
        fill: url(#_名称未設定グラデーション_31-15);
      }

      .cls-20 {
        fill: url(#_名称未設定グラデーション_31-17);
      }

      .cls-21 {
        fill: url(#_名称未設定グラデーション_31-18);
      }

      .cls-22 {
        fill: url(#_名称未設定グラデーション_31-16);
      }

      .cls-23 {
        fill: url(#_名称未設定グラデーション_31-13);
      }

      .cls-24 {
        fill: url(#_名称未設定グラデーション_31-10);
      }

      .cls-25 {
        fill: url(#_名称未設定グラデーション_31-20);
      }

      .cls-26 {
        fill: url(#_名称未設定グラデーション_31-26);
      }

      .cls-27 {
        fill: url(#_名称未設定グラデーション_31-27);
      }

      .cls-28 {
        fill: url(#_名称未設定グラデーション_31-28);
      }

      .cls-29 {
        fill: url(#_名称未設定グラデーション_31-25);
      }

      .cls-30 {
        fill: url(#_名称未設定グラデーション_31-24);
      }

      .cls-31 {
        fill: url(#_名称未設定グラデーション_31-23);
      }

      .cls-32 {
        fill: url(#_名称未設定グラデーション_31-12);
      }

      .cls-33 {
        fill: url(#_名称未設定グラデーション_31-11);
      }

      .cls-34 {
        fill: url(#_名称未設定グラデーション_31-14);
      }

      .cls-35 {
        fill: url(#_名称未設定グラデーション_31-19);
      }

      .cls-36 {
        fill: url(#_名称未設定グラデーション_31-46);
      }

      .cls-37 {
        fill: url(#_名称未設定グラデーション_31-47);
      }

      .cls-38 {
        fill: url(#_名称未設定グラデーション_31-44);
      }

      .cls-39 {
        fill: url(#_名称未設定グラデーション_31-45);
      }

      .cls-40 {
        fill: url(#_名称未設定グラデーション_31-42);
      }

      .cls-41 {
        fill: url(#_名称未設定グラデーション_31-43);
      }

      .cls-42 {
        fill: url(#_名称未設定グラデーション_31-40);
      }

      .cls-43 {
        fill: url(#_名称未設定グラデーション_31-41);
      }

      .cls-44 {
        fill: url(#_名称未設定グラデーション_31-48);
      }

      .cls-45 {
        fill: url(#_名称未設定グラデーション_31-49);
      }

      .cls-46 {
        fill: url(#_名称未設定グラデーション_31-36);
      }

      .cls-47 {
        fill: url(#_名称未設定グラデーション_31-31);
      }

      .cls-48 {
        fill: url(#_名称未設定グラデーション_31-34);
      }

      .cls-49 {
        fill: url(#_名称未設定グラデーション_31-37);
      }

      .cls-50 {
        fill: url(#_名称未設定グラデーション_31-32);
      }

      .cls-51 {
        fill: url(#_名称未設定グラデーション_31-30);
      }

      .cls-52 {
        fill: url(#_名称未設定グラデーション_31-33);
      }

      .cls-53 {
        fill: url(#_名称未設定グラデーション_31-38);
      }

      .cls-54 {
        fill: url(#_名称未設定グラデーション_31-35);
      }

      .cls-55 {
        fill: url(#_名称未設定グラデーション_31-39);
      }

      .cls-56 {
        fill: url(#_名称未設定グラデーション_31-7);
      }

      .cls-57 {
        fill: url(#_名称未設定グラデーション_31-9);
      }

      .cls-58 {
        fill: url(#_名称未設定グラデーション_31-8);
      }

      .cls-59 {
        fill: url(#_名称未設定グラデーション_31-3);
      }

      .cls-60 {
        fill: url(#_名称未設定グラデーション_31-6);
      }

      .cls-61 {
        fill: url(#_名称未設定グラデーション_31-4);
      }

      .cls-62 {
        fill: url(#_名称未設定グラデーション_31-5);
      }

      .cls-63 {
        fill: url(#_名称未設定グラデーション_31-2);
      }

      .cls-64 {
        fill: url(#_名称未設定グラデーション_31);
      }
    </style>
    <linearGradient id="_名称未設定グラデーション_31" data-name="名称未設定グラデーション 31" x1="58.59" y1="62.8" x2="58.59" y2="16.54" gradientUnits="userSpaceOnUse">
      <stop offset="0" stop-color="#e1ff49"/>
      <stop offset=".35" stop-color="#aff952"/>
      <stop offset=".5" stop-color="#87f559"/>
      <stop offset=".67" stop-color="#6cf598"/>
      <stop offset="1" stop-color="#43f5f5"/>
    </linearGradient>
    <linearGradient id="_名称未設定グラデーション_31-2" data-name="名称未設定グラデーション 31" x1="54.17" y1="18.29" x2="54.17" y2="12.66" xlink:href="#_名称未設定グラデーション_31"/>
    <linearGradient id="_名称未設定グラデーション_31-3" data-name="名称未設定グラデーション 31" x1="62.99" y1="18.29" x2="62.99" y2="12.66" xlink:href="#_名称未設定グラデーション_31"/>
    <linearGradient id="_名称未設定グラデーション_31-4" data-name="名称未設定グラデーション 31" x1="71.81" y1="62.38" x2="71.81" y2="56.8" xlink:href="#_名称未設定グラデーション_31"/>
    <linearGradient id="_名称未設定グラデーション_31-5" data-name="名称未設定グラデーション 31" x1="45.34" y1="62.39" x2="45.34" y2="56.8" xlink:href="#_名称未設定グラデーション_31"/>
    <linearGradient id="_名称未設定グラデーション_31-6" data-name="名称未設定グラデーション 31" x1="58.58" y1="66.74" x2="58.58" y2="61.27" xlink:href="#_名称未設定グラデーション_31"/>
    <linearGradient id="_名称未設定グラデーション_31-7" data-name="名称未設定グラデーション 31" x1="80.63" y1="53.49" x2="80.63" y2="48.05" xlink:href="#_名称未設定グラデーション_31"/>
    <linearGradient id="_名称未設定グラデーション_31-8" data-name="名称未設定グラデーション 31" x1="36.52" y1="53.47" x2="36.52" y2="48.07" xlink:href="#_名称未設定グラデーション_31"/>
    <linearGradient id="_名称未設定グラデーション_31-9" data-name="名称未設定グラデーション 31" x1="76.22" y1="22.41" x2="76.22" y2="17.37" xlink:href="#_名称未設定グラデーション_31"/>
    <linearGradient id="_名称未設定グラデーション_31-10" data-name="名称未設定グラデーション 31" x1="40.93" y1="22.41" x2="40.93" y2="17.37" xlink:href="#_名称未設定グラデーション_31"/>
    <linearGradient id="_名称未設定グラデーション_31-11" data-name="名称未設定グラデーション 31" x1="67.4" y1="66.52" x2="67.4" y2="61.49" xlink:href="#_名称未設定グラデーション_31"/>
    <linearGradient id="_名称未設定グラデーション_31-12" data-name="名称未設定グラデーション 31" x1="49.75" y1="66.51" x2="49.75" y2="61.5" xlink:href="#_名称未設定グラデーション_31"/>
    <linearGradient id="_名称未設定グラデーション_31-13" data-name="名称未設定グラデーション 31" x1="85.05" y1="40.01" x2="85.05" y2="35.07" xlink:href="#_名称未設定グラデーション_31"/>
    <linearGradient id="_名称未設定グラデーション_31-14" data-name="名称未設定グラデーション 31" x1="32.11" y1="40" x2="32.11" y2="35.07" xlink:href="#_名称未設定グラデーション_31"/>
    <linearGradient id="_名称未設定グラデーション_31-15" data-name="名称未設定グラデーション 31" x1="80.63" y1="26.76" x2="80.63" y2="21.84" xlink:href="#_名称未設定グラデーション_31"/>
    <linearGradient id="_名称未設定グラデーション_31-16" data-name="名称未設定グラデーション 31" x1="36.52" y1="26.75" x2="36.52" y2="21.85" xlink:href="#_名称未設定グラデーション_31"/>
    <linearGradient id="_名称未設定グラデーション_31-17" data-name="名称未設定グラデーション 31" x1="71.81" y1="17.85" x2="71.81" y2="13.11" xlink:href="#_名称未設定グラデーション_31"/>
    <linearGradient id="_名称未設定グラデーション_31-18" data-name="名称未設定グラデーション 31" x1="45.34" y1="17.84" x2="45.34" y2="13.11" xlink:href="#_名称未設定グラデーション_31"/>
    <linearGradient id="_名称未設定グラデーション_31-19" data-name="名称未設定グラデーション 31" x1="85.05" y1="48.69" x2="85.05" y2="44.03" xlink:href="#_名称未設定グラデーション_31"/>
    <linearGradient id="_名称未設定グラデーション_31-20" data-name="名称未設定グラデーション 31" x1="32.11" y1="48.68" x2="32.11" y2="44.03" xlink:href="#_名称未設定グラデーション_31"/>
    <linearGradient id="_名称未設定グラデーション_31-21" data-name="名称未設定グラデーション 31" x1="58.58" y1="13.27" x2="58.58" y2="8.87" xlink:href="#_名称未設定グラデーション_31"/>
    <linearGradient id="_名称未設定グラデーション_31-22" data-name="名称未設定グラデーション 31" x1="85.05" y1="30.86" x2="85.05" y2="26.56" xlink:href="#_名称未設定グラデーション_31"/>
    <linearGradient id="_名称未設定グラデーション_31-23" data-name="名称未設定グラデーション 31" x1="32.11" y1="30.85" x2="32.11" y2="26.57" xlink:href="#_名称未設定グラデーション_31"/>
    <linearGradient id="_名称未設定グラデーション_31-24" data-name="名称未設定グラデーション 31" x1="54.17" y1="70.37" x2="54.17" y2="66.46" xlink:href="#_名称未設定グラデーション_31"/>
    <linearGradient id="_名称未設定グラデーション_31-25" data-name="名称未設定グラデーション 31" x1="62.99" y1="70.37" x2="62.99" y2="66.46" xlink:href="#_名称未設定グラデーション_31"/>
    <linearGradient id="_名称未設定グラデーション_31-26" data-name="名称未設定グラデーション 31" x1="67.4" y1="13.02" x2="67.4" y2="9.11" xlink:href="#_名称未設定グラデーション_31"/>
    <linearGradient id="_名称未設定グラデーション_31-27" data-name="名称未設定グラデーション 31" x1="49.75" y1="13.01" x2="49.75" y2="9.12" xlink:href="#_名称未設定グラデーション_31"/>
    <linearGradient id="_名称未設定グラデーション_31-28" data-name="名称未設定グラデーション 31" x1="36.52" y1="61.44" x2="36.52" y2="57.74" xlink:href="#_名称未設定グラデーション_31"/>
    <linearGradient id="_名称未設定グラデーション_31-29" data-name="名称未設定グラデーション 31" x1="80.63" y1="61.45" x2="80.63" y2="57.74" xlink:href="#_名称未設定グラデーション_31"/>
    <linearGradient id="_名称未設定グラデーション_31-30" data-name="名称未設定グラデーション 31" x1="76.22" y1="65.78" x2="76.22" y2="62.23" xlink:href="#_名称未設定グラデーション_31"/>
    <linearGradient id="_名称未設定グラデーション_31-31" data-name="名称未設定グラデーション 31" x1="40.93" y1="65.78" x2="40.93" y2="62.23" xlink:href="#_名称未設定グラデーション_31"/>
    <linearGradient id="_名称未設定グラデーション_31-32" data-name="名称未設定グラデーション 31" x1="85.05" y1="56.86" x2="85.05" y2="53.51" xlink:href="#_名称未設定グラデーション_31"/>
    <linearGradient id="_名称未設定グラデーション_31-33" data-name="名称未設定グラデーション 31" x1="32.11" y1="56.85" x2="32.11" y2="53.52" xlink:href="#_名称未設定グラデーション_31"/>
    <linearGradient id="_名称未設定グラデーション_31-34" data-name="名称未設定グラデーション 31" x1="89.46" y1="43.59" x2="89.46" y2="40.3" gradientTransform="translate(57.45 -51.53) rotate(45.98)" xlink:href="#_名称未設定グラデーション_31"/>
    <linearGradient id="_名称未設定グラデーション_31-35" data-name="名称未設定グラデーション 31" x1="27.7" y1="43.58" x2="27.7" y2="40.31" xlink:href="#_名称未設定グラデーション_31"/>
    <linearGradient id="_名称未設定グラデーション_31-36" data-name="名称未設定グラデーション 31" x1="89.46" y1="34.67" x2="89.46" y2="31.58" xlink:href="#_名称未設定グラデーション_31"/>
    <linearGradient id="_名称未設定グラデーション_31-37" data-name="名称未設定グラデーション 31" x1="27.7" y1="34.67" x2="27.7" y2="31.58" xlink:href="#_名称未設定グラデーション_31"/>
    <linearGradient id="_名称未設定グラデーション_31-38" data-name="名称未設定グラデーション 31" x1="71.81" y1="69.84" x2="71.81" y2="66.99" xlink:href="#_名称未設定グラデーション_31"/>
    <linearGradient id="_名称未設定グラデーション_31-39" data-name="名称未設定グラデーション 31" x1="45.34" y1="69.83" x2="45.34" y2="67" xlink:href="#_名称未設定グラデーション_31"/>
    <linearGradient id="_名称未設定グラデーション_31-40" data-name="名称未設定グラデーション 31" x1="80.63" y1="16.83" x2="80.63" y2="14.12" xlink:href="#_名称未設定グラデーション_31"/>
    <linearGradient id="_名称未設定グラデーション_31-41" data-name="名称未設定グラデーション 31" x1="36.52" y1="16.82" x2="36.52" y2="14.14" xlink:href="#_名称未設定グラデーション_31"/>
    <linearGradient id="_名称未設定グラデーション_31-42" data-name="名称未設定グラデーション 31" x1="62.99" y1="7.97" x2="62.99" y2="5.34" xlink:href="#_名称未設定グラデーション_31"/>
    <linearGradient id="_名称未設定グラデーション_31-43" data-name="名称未設定グラデーション 31" x1="54.17" y1="7.97" x2="54.17" y2="5.34" xlink:href="#_名称未設定グラデーション_31"/>
    <linearGradient id="_名称未設定グラデーション_31-44" data-name="名称未設定グラデーション 31" x1="85.05" y1="21.16" x2="85.05" y2="18.62" xlink:href="#_名称未設定グラデーション_31"/>
    <linearGradient id="_名称未設定グラデーション_31-45" data-name="名称未設定グラデーション 31" x1="32.11" y1="21.15" x2="32.11" y2="18.63" xlink:href="#_名称未設定グラデーション_31"/>
    <linearGradient id="_名称未設定グラデーション_31-46" data-name="名称未設定グラデーション 31" x1="89.46" y1="52.01" x2="89.46" y2="49.53" xlink:href="#_名称未設定グラデーション_31"/>
    <linearGradient id="_名称未設定グラデーション_31-47" data-name="名称未設定グラデーション 31" x1="27.7" y1="52" x2="27.7" y2="49.54" xlink:href="#_名称未設定グラデーション_31"/>
    <linearGradient id="_名称未設定グラデーション_31-48" data-name="名称未設定グラデーション 31" x1="58.58" y1="73.76" x2="58.58" y2="71.58" xlink:href="#_名称未設定グラデーション_31"/>
    <linearGradient id="_名称未設定グラデーション_31-49" data-name="名称未設定グラデーション 31" x1="40.93" y1="12.22" x2="40.93" y2="9.91" xlink:href="#_名称未設定グラデーション_31"/>
    <linearGradient id="_名称未設定グラデーション_31-50" data-name="名称未設定グラデーション 31" x1="76.22" y1="12.23" x2="76.22" y2="9.9" xlink:href="#_名称未設定グラデーション_31"/>
    <linearGradient id="_名称未設定グラデーション_31-51" data-name="名称未設定グラデーション 31" x1="89.29" y1="25.29" x2="89.29" y2="23.38" xlink:href="#_名称未設定グラデーション_31"/>
    <linearGradient id="_名称未設定グラデーション_31-52" data-name="名称未設定グラデーション 31" x1="27.85" y1="25.24" x2="27.85" y2="23.4" xlink:href="#_名称未設定グラデーション_31"/>
    <linearGradient id="_名称未設定グラデーション_31-53" data-name="名称未設定グラデーション 31" x1="67.35" y1="72.88" x2="67.35" y2="71.85" xlink:href="#_名称未設定グラデーション_31"/>
    <linearGradient id="_名称未設定グラデーション_31-54" data-name="名称未設定グラデーション 31" x1="49.8" y1="72.87" x2="49.8" y2="71.85" xlink:href="#_名称未設定グラデーション_31"/>
    <linearGradient id="_名称未設定グラデーション_31-55" data-name="名称未設定グラデーション 31" x1="71.59" y1="7.46" x2="71.59" y2="7" xlink:href="#_名称未設定グラデーション_31"/>
    <linearGradient id="_名称未設定グラデーション_31-56" data-name="名称未設定グラデーション 31" x1="45.56" y1="7.46" x2="45.56" y2="6.98" xlink:href="#_名称未設定グラデーション_31"/>
    <linearGradient id="_名称未設定グラデーション_31-57" data-name="名称未設定グラデーション 31" x1="93.01" y1="38.14" x2="93.01" y2="37.02" xlink:href="#_名称未設定グラデーション_31"/>
    <linearGradient id="_名称未設定グラデーション_31-58" data-name="名称未設定グラデーション 31" x1="24.15" y1="38.05" x2="24.15" y2="37.05" xlink:href="#_名称未設定グラデーション_31"/>
  </defs>
  <g id="logo">
    <g>
      <g>
        <rect class="cls-1" width="447" height="79.96"/>
        <g>
          <path class="cls-64" d="m47.19,57.49c-.03-.06-.05-.12-.09-.17-.73-.96-.92-2.01-.59-3.16,0-.03.01-.06.03-.12-.54.17-1.07.24-1.62.17-.55-.07-1.05-.27-1.53-.56.39.73.53,1.48.31,2.27-.22.8-.7,1.4-1.43,1.79-1.15.61-2.55.36-3.43-.6-.87-.95-1-2.38-.29-3.47.42-.65,1.02-1.07,1.78-1.24.76-.17,1.47-.02,2.16.34-.63-1.02-.75-2.09-.35-3.24-1.48.43-2.78.16-3.76-1.04-.97-1.19-.99-2.51-.26-3.91-.9.47-1.77.56-2.66.22-.6-.23-1.08-.62-1.44-1.15-.72-1.07-.67-2.48.11-3.51.87-1.14,2.12-1.44,3.82-.89-.28-.56-.45-1.13-.43-1.74.01-.61.18-1.18.52-1.78-.93.46-1.82.52-2.72.12-.6-.27-1.06-.7-1.38-1.28-.64-1.17-.41-2.63.55-3.55.95-.92,2.4-1.1,3.55-.43.69.4,1.15,1,1.37,1.77.21.77.11,1.51-.28,2.28.95-.54,1.9-.65,2.92-.35-.26-.88-.24-1.71.11-2.55-1.84.48-3.3,0-4.12-1.76-.56-1.22-.34-2.42.58-3.4,1.09-1.16,2.42-1.31,3.88-.67-.66-1.46-.53-2.82.64-3.93,1.16-1.11,2.52-1.17,3.97-.45-.43-.8-.56-1.6-.33-2.44.17-.62.5-1.14.99-1.56.98-.84,2.39-1.02,3.5-.36,1.55.91,1.93,2.28,1.43,3.98.91-.41,1.83-.43,2.77-.1-.43-1.69-.02-3.07,1.48-3.98,1.16-.7,2.38-.66,3.5.11,1.36.94,1.72,2.27,1.32,3.8.45-.05.92-.16,1.37-.14.46.02.92.15,1.36.24-.49-1.73-.05-3.15,1.67-4,1.14-.57,2.53-.28,3.45.61.77.74,1.38,2.2.52,3.84,1.55-.75,2.97-.63,4.14.66.99,1.09,1.06,2.37.45,3.71,1.66-.68,3.12-.42,4.17,1.07.79,1.12.8,2.36.04,3.5-.92,1.4-2.26,1.75-3.88,1.28.34.83.37,1.67.1,2.55,1.02-.31,1.96-.19,2.9.34-.44-.88-.5-1.73-.16-2.59.25-.62.66-1.1,1.24-1.45,1.14-.68,2.61-.51,3.57.41.97.93,1.2,2.39.55,3.57-.39.72-.99,1.2-1.77,1.43-.78.23-1.54.13-2.31-.26.65,1.18.67,2.32.09,3.49,1.62-.61,2.97-.31,3.95,1.12.71,1.03.66,2.45-.12,3.43-1.07,1.34-2.43,1.54-3.97.86.71,1.4.67,2.75-.37,3.94-.98,1.12-2.24,1.38-3.69.96.38,1.13.28,2.19-.36,3.21.75-.4,1.52-.53,2.34-.29.82.25,1.42.76,1.79,1.53.56,1.19.24,2.6-.78,3.43-1.01.83-2.46.87-3.52.08-1.17-.86-1.42-2.16-.73-3.87-.5.32-.99.52-1.54.58-.54.06-1.07.02-1.63-.18.03.1.04.17.06.23.29,1.09.1,2.1-.57,3.01-.05.07-.09.15-.13.22-.09.09-.18.18-.26.27-.06.03-.13.06-.19.11-1.07.79-2.22.95-3.46.46-.05-.02-.09-.03-.16-.05.56,1.68.22,3.09-1.31,4.04-1.13.71-2.32.62-3.43-.12-.61-.4-1.01-.98-1.22-1.68-.21-.7-.17-1.39.1-2.13-.99.41-1.95.41-2.92,0,.48,1.64.12,2.99-1.33,3.91-1.13.71-2.34.68-3.42-.1-1.38-.98-1.67-2.33-1.13-3.91-.32.09-.62.2-.93.25-.97.16-1.85-.06-2.64-.65-.07-.05-.15-.09-.22-.13-.09-.09-.18-.18-.27-.26Zm-5.18-14.3c-.06-.41-.15-.8-.16-1.18,0-.39.07-.78.12-1.18-.92.28-1.83.18-2.75-.29.49,1.03.44,2-.04,2.96.92-.5,1.85-.6,2.83-.3Zm33.1,0c1.02-.32,1.96-.22,2.91.32-.53-1-.55-1.96-.09-2.98-.92.48-1.82.56-2.79.28.25.81.23,1.58-.03,2.38Zm-8.96-20.43c.39.87.44,1.71.2,2.6.82-.23,1.61-.2,2.42.11-.35-1.02-.26-1.96.28-2.91-.95.52-1.88.59-2.89.2Zm-15.34,2.59c-.25-.88-.19-1.73.19-2.59-1.01.39-1.93.32-2.78-.14.12.44.27.9.36,1.37.09.49-.02.97-.17,1.45q1.37-.3,2.4-.09Zm-7.04,1.84c.43.89.47,1.78.13,2.73.84-.36,1.65-.39,2.5-.15-.23-.82-.2-1.61.11-2.42-.96.34-1.86.27-2.74-.16Zm26.87.16c.33.82.34,1.6.12,2.42.85-.25,1.66-.19,2.49.14-.35-.96-.28-1.85.17-2.76-.92.47-1.81.53-2.78.2Zm-17.64,26.74c.28.89.21,1.74-.18,2.62.87-.37,1.69-.38,2.57-.06-.36-.85-.4-1.68-.17-2.52-1.1.19-1.23.19-2.23-.04Zm8.94.03c.25.87.19,1.69-.15,2.54.89-.34,1.71-.3,2.57.05-.41-.88-.45-1.74-.19-2.63-.75.24-1.47.25-2.23.04Zm-17.84-8.89c.25.8.24,1.54-.03,2.32.79-.3,1.56-.31,2.36-.08-.22-.74-.22-1.44-.01-2.17-.78.22-1.53.2-2.32-.07Zm29,2.3c-.28-.77-.26-1.52-.03-2.3-.78.27-1.52.28-2.3.07.22.74.2,1.44,0,2.15q1.29-.18,2.34.08Zm-13.44-22.17c-.24-.81-.2-1.57.08-2.36-.78.26-1.51.25-2.28,0,.29.79.31,1.56.09,2.35.72-.2,1.4-.2,2.12,0Zm-8.82,24.34c-.74.22-1.45.19-2.18,0,.23.78.21,1.5-.04,2.27.77-.26,1.5-.25,2.26-.03-.24-.75-.25-1.47-.04-2.23Zm15.53.05c.21.72.19,1.44-.05,2.19.77-.23,1.49-.23,2.26.02-.26-.77-.26-1.5-.06-2.23-.37.04-.72.12-1.07.12-.35,0-.71-.06-1.08-.1Zm-22.15-11.13c.75-.24,1.46-.23,2.21-.03-.21-.72-.2-1.41,0-2.12-.75.22-1.46.2-2.2-.02.22.73.22,1.43,0,2.17Zm28.75-2.18c-.75.24-1.47.23-2.2.04.21.72.2,1.41,0,2.12.75-.22,1.46-.19,2.2.02-.23-.74-.22-1.43,0-2.17Zm-8.92,10.93c-.19-.68-.19-1.36,0-2.08-.72.21-1.4.2-2.12,0,.21.72.2,1.4.01,2.08.36-.04.7-.11,1.04-.11.34,0,.68.07,1.05.1Zm-8.82,0c-.2-.69-.19-1.37,0-2.08-.72.21-1.41.2-2.12,0,.21.72.2,1.41.02,2.07.36-.04.71-.1,1.05-.1.34,0,.68.07,1.05.11Zm2.31,2.37c.2.69.19,1.37,0,2.08.72-.21,1.41-.2,2.12,0-.22-.72-.2-1.41-.02-2.07-.36.04-.71.1-1.05.1-.34,0-.68-.07-1.05-.11Zm10.93-6.74c-.2-.72-.2-1.4,0-2.12-.72.2-1.4.2-2.12,0,.2.72.2,1.4,0,2.12.72-.2,1.4-.2,2.12,0Zm-10.93-2.08c.21.69.19,1.37,0,2.08.72-.22,1.41-.2,2.12,0-.22-.72-.2-1.41-.02-2.07-.37.04-.71.1-1.05.1-.34,0-.68-.07-1.04-.11Zm-6.71-.04c-.72.21-1.41.2-2.12,0,.21.72.2,1.4,0,2.12.72-.21,1.4-.2,2.12,0-.2-.71-.21-1.4,0-2.12Zm11.11-4.41c.21.72.2,1.41,0,2.12.72-.21,1.4-.2,2.12,0-.21-.72-.2-1.4,0-2.12-.71.2-1.39.21-2.12,0Zm-8.82,2.13c.73-.22,1.41-.2,2.12,0-.22-.72-.2-1.41,0-2.12-.72.22-1.41.2-2.12,0,.21.72.2,1.4,0,2.12Zm15.31-6.52c-.68.19-1.36.19-2.08,0,.21.72.2,1.4,0,2.12.72-.21,1.41-.2,2.08-.02-.04-.36-.11-.7-.11-1.04,0-.34.07-.68.1-1.05Zm-10.9,2.11c.73-.22,1.41-.2,2.12,0-.22-.72-.2-1.41,0-2.12-.72.22-1.41.2-2.12,0,.21.72.2,1.4,0,2.12Zm-6.7,0c-.22-.73-.2-1.41,0-2.12-.72.22-1.41.2-2.12,0,.22.72.2,1.41,0,2.12.72-.21,1.4-.2,2.12,0Zm11.12-6.49c.2.68.19,1.37,0,2.08.72-.22,1.41-.2,2.12,0-.21-.72-.2-1.41-.02-2.07-.36.04-.7.1-1.05.1-.34,0-.68-.07-1.05-.11Zm-8.83,2.08c.73-.22,1.41-.2,2.12,0-.21-.72-.2-1.41,0-2.12-.72.22-1.41.2-2.12,0,.21.72.2,1.4,0,2.12Z"/>
          <path class="cls-63" d="m56.98,15.48c0,1.55-1.27,2.82-2.83,2.81-1.54,0-2.8-1.27-2.8-2.82,0-1.55,1.27-2.82,2.83-2.81,1.54,0,2.8,1.27,2.8,2.82Z"/>
          <path class="cls-59" d="m62.99,18.29c-1.55,0-2.82-1.27-2.82-2.82,0-1.54,1.27-2.81,2.81-2.81,1.55,0,2.82,1.27,2.82,2.82,0,1.54-1.27,2.81-2.81,2.81Z"/>
          <path class="cls-61" d="m69.71,57.75c.09-.09.18-.18.26-.27,1.69-1.4,4.16-.54,4.58,1.6.29,1.47-.69,2.94-2.17,3.24-1.51.31-3-.64-3.3-2.13-.19-.91.02-1.73.63-2.45Z"/>
          <path class="cls-62" d="m47.19,57.49c.09.09.18.18.27.26,1.4,1.69.54,4.16-1.6,4.58-1.47.29-2.94-.69-3.24-2.17-.31-1.51.64-3,2.13-3.3.91-.19,1.73.02,2.45.63Z"/>
          <path class="cls-60" d="m58.58,61.27c1.51,0,2.73,1.23,2.73,2.74,0,1.51-1.23,2.73-2.74,2.73-1.51,0-2.73-1.23-2.73-2.74,0-1.51,1.23-2.73,2.74-2.73Z"/>
          <path class="cls-56" d="m83.35,50.77c0,1.49-1.24,2.72-2.73,2.72-1.5,0-2.72-1.24-2.71-2.73.01-1.49,1.23-2.7,2.72-2.7,1.49,0,2.72,1.23,2.72,2.72Z"/>
          <path class="cls-58" d="m39.22,50.78c0,1.5-1.22,2.7-2.71,2.7-1.5,0-2.7-1.22-2.7-2.71,0-1.5,1.22-2.7,2.71-2.7,1.5,0,2.7,1.22,2.7,2.71Z"/>
          <path class="cls-57" d="m78.75,19.89c0,1.4-1.11,2.52-2.52,2.53-1.41,0-2.54-1.12-2.53-2.53,0-1.4,1.13-2.52,2.53-2.51,1.4,0,2.52,1.12,2.52,2.52Z"/>
          <path class="cls-24" d="m40.95,17.37c1.4,0,2.51,1.13,2.5,2.54,0,1.4-1.14,2.51-2.55,2.5-1.39-.01-2.49-1.13-2.49-2.53,0-1.4,1.13-2.51,2.53-2.51Z"/>
          <path class="cls-33" d="m69.91,64.01c0,1.38-1.13,2.5-2.51,2.5-1.39,0-2.51-1.13-2.51-2.53,0-1.38,1.14-2.5,2.53-2.49,1.38,0,2.5,1.13,2.5,2.52Z"/>
          <path class="cls-32" d="m49.75,61.5c1.38,0,2.51,1.13,2.51,2.51,0,1.37-1.13,2.5-2.5,2.5-1.38,0-2.51-1.13-2.51-2.51,0-1.37,1.13-2.5,2.5-2.5Z"/>
          <path class="cls-23" d="m87.52,37.54c0,1.37-1.1,2.47-2.47,2.47-1.38,0-2.48-1.1-2.47-2.48,0-1.37,1.11-2.46,2.48-2.46,1.37,0,2.46,1.1,2.46,2.47Z"/>
          <path class="cls-34" d="m32.11,40c-1.36,0-2.47-1.1-2.47-2.46,0-1.36,1.11-2.47,2.47-2.46,1.35,0,2.45,1.1,2.46,2.45,0,1.36-1.1,2.47-2.46,2.47Z"/>
          <path class="cls-19" d="m80.63,26.76c-1.36,0-2.46-1.12-2.46-2.48,0-1.35,1.12-2.45,2.47-2.45,1.36,0,2.46,1.12,2.46,2.48,0,1.35-1.12,2.45-2.47,2.45Z"/>
          <path class="cls-22" d="m38.97,24.3c0,1.35-1.11,2.46-2.45,2.46-1.35,0-2.46-1.11-2.45-2.46,0-1.34,1.1-2.44,2.44-2.45,1.35,0,2.46,1.1,2.46,2.45Z"/>
          <path class="cls-20" d="m71.83,13.11c1.3,0,2.36,1.09,2.35,2.39,0,1.3-1.09,2.36-2.39,2.35-1.3,0-2.36-1.09-2.35-2.39,0-1.3,1.09-2.36,2.39-2.35Z"/>
          <path class="cls-21" d="m45.35,17.84c-1.3,0-2.38-1.07-2.37-2.37,0-1.29,1.07-2.36,2.36-2.36,1.3,0,2.38,1.07,2.37,2.37,0,1.29-1.07,2.36-2.36,2.36Z"/>
          <path class="cls-35" d="m85.05,44.03c1.28,0,2.33,1.05,2.33,2.33,0,1.29-1.05,2.34-2.35,2.33-1.28,0-2.32-1.05-2.32-2.34,0-1.28,1.05-2.32,2.34-2.32Z"/>
          <path class="cls-25" d="m32.1,48.68c-1.28,0-2.33-1.06-2.31-2.35.01-1.27,1.06-2.31,2.33-2.3,1.28,0,2.33,1.06,2.31,2.35-.01,1.27-1.06,2.31-2.33,2.3Z"/>
          <path class="cls-7" d="m58.57,13.27c-1.21,0-2.19-.99-2.19-2.21,0-1.21.99-2.19,2.21-2.19,1.21,0,2.19.99,2.19,2.21,0,1.21-.99,2.19-2.21,2.19Z"/>
          <path class="cls-8" d="m87.2,28.71c0,1.18-.96,2.15-2.14,2.15-1.19,0-2.16-.97-2.16-2.16,0-1.18.97-2.14,2.15-2.14,1.18,0,2.15.97,2.15,2.15Z"/>
          <path class="cls-31" d="m34.25,28.71c0,1.17-.96,2.13-2.13,2.14-1.18,0-2.15-.97-2.14-2.15.01-1.18.97-2.13,2.15-2.13,1.18,0,2.13.97,2.13,2.14Z"/>
          <path class="cls-30" d="m54.15,66.46c1.09,0,1.96.86,1.96,1.95,0,1.08-.86,1.95-1.94,1.95-1.09,0-1.96-.86-1.96-1.95,0-1.08.86-1.95,1.94-1.95Z"/>
          <path class="cls-29" d="m64.94,68.42c0,1.09-.88,1.96-1.97,1.95-1.08,0-1.94-.88-1.94-1.96,0-1.09.88-1.96,1.97-1.95,1.08,0,1.94.88,1.94,1.96Z"/>
          <path class="cls-26" d="m69.35,11.07c0,1.09-.88,1.96-1.97,1.95-1.08-.01-1.94-.88-1.93-1.96,0-1.09.88-1.96,1.97-1.95,1.08.01,1.94.88,1.93,1.96Z"/>
          <path class="cls-27" d="m51.7,11.08c0,1.08-.87,1.94-1.96,1.93-1.08,0-1.93-.88-1.93-1.96,0-1.07.87-1.92,1.95-1.92,1.08,0,1.94.87,1.94,1.95Z"/>
          <path class="cls-28" d="m36.51,57.74c1.03,0,1.86.81,1.86,1.84,0,1.04-.82,1.87-1.85,1.87-1.03,0-1.85-.82-1.85-1.85,0-1.03.82-1.85,1.84-1.85Z"/>
          <path class="cls-9" d="m82.49,59.6c0,1.02-.83,1.85-1.85,1.85-1.03,0-1.86-.83-1.85-1.87,0-1.02.84-1.84,1.86-1.84,1.02,0,1.84.83,1.84,1.86Z"/>
          <path class="cls-51" d="m76.21,62.23c.99,0,1.78.78,1.78,1.77,0,.98-.78,1.76-1.76,1.77-.99,0-1.78-.78-1.78-1.77,0-.98.78-1.76,1.76-1.77Z"/>
          <path class="cls-47" d="m42.7,64c0,.99-.79,1.78-1.78,1.78-.98,0-1.76-.79-1.76-1.77,0-.99.79-1.78,1.78-1.78.98,0,1.76.79,1.76,1.77Z"/>
          <path class="cls-50" d="m85.05,53.51c.93,0,1.67.76,1.67,1.69,0,.92-.76,1.66-1.68,1.66-.93,0-1.67-.76-1.67-1.69,0-.92.76-1.66,1.68-1.66Z"/>
          <path class="cls-52" d="m32.1,53.52c.92,0,1.67.75,1.67,1.67,0,.91-.75,1.66-1.66,1.66-.92,0-1.67-.75-1.67-1.67,0-.91.75-1.66,1.66-1.66Z"/>
          <circle class="cls-48" cx="89.46" cy="41.95" r="1.65" transform="translate(-2.87 77.12) rotate(-45.98)"/>
          <path class="cls-54" d="m26.06,41.94c0-.91.74-1.64,1.65-1.63.9,0,1.62.74,1.62,1.63,0,.91-.74,1.64-1.65,1.63-.9,0-1.62-.74-1.62-1.63Z"/>
          <path class="cls-46" d="m89.46,31.58c.86,0,1.55.69,1.54,1.56,0,.86-.7,1.54-1.57,1.53-.85,0-1.53-.69-1.53-1.55,0-.86.69-1.55,1.56-1.55Z"/>
          <path class="cls-49" d="m27.69,31.58c.85,0,1.54.69,1.54,1.54,0,.85-.69,1.54-1.54,1.54-.85,0-1.54-.69-1.54-1.54,0-.85.69-1.54,1.54-1.54Z"/>
          <path class="cls-53" d="m73.24,68.42c0,.79-.64,1.43-1.44,1.42-.79,0-1.42-.65-1.42-1.44,0-.78.64-1.41,1.42-1.41.79,0,1.43.64,1.43,1.43Z"/>
          <path class="cls-55" d="m45.35,67c.79,0,1.42.64,1.41,1.44,0,.78-.64,1.4-1.43,1.4-.79,0-1.42-.64-1.41-1.44,0-.78.64-1.4,1.43-1.4Z"/>
          <path class="cls-42" d="m81.99,15.48c0,.75-.62,1.36-1.36,1.36-.74,0-1.34-.61-1.35-1.35,0-.75.62-1.36,1.36-1.36.74,0,1.34.61,1.35,1.35Z"/>
          <path class="cls-43" d="m36.51,14.14c.75,0,1.35.59,1.35,1.34,0,.74-.59,1.33-1.33,1.34-.75,0-1.35-.59-1.35-1.34,0-.74.59-1.33,1.33-1.34Z"/>
          <path class="cls-40" d="m64.31,6.66c0,.72-.6,1.32-1.32,1.32-.72,0-1.32-.6-1.32-1.32,0-.72.6-1.32,1.32-1.32.72,0,1.32.6,1.32,1.32Z"/>
          <path class="cls-41" d="m55.48,6.65c0,.72-.59,1.32-1.32,1.32-.72,0-1.32-.59-1.32-1.32,0-.72.59-1.32,1.32-1.32.72,0,1.32.59,1.32,1.32Z"/>
          <path class="cls-38" d="m86.32,19.88c0,.7-.57,1.28-1.27,1.28-.69,0-1.26-.57-1.27-1.26,0-.7.57-1.28,1.27-1.28.69,0,1.26.57,1.27,1.26Z"/>
          <path class="cls-39" d="m30.85,19.86c.02-.7.61-1.26,1.3-1.23.7.03,1.25.62,1.22,1.3-.03.7-.6,1.24-1.29,1.22-.7-.02-1.26-.6-1.24-1.29Z"/>
          <path class="cls-36" d="m89.46,49.53c.69,0,1.24.56,1.23,1.26,0,.68-.56,1.22-1.24,1.22-.69,0-1.24-.56-1.23-1.26,0-.68.56-1.22,1.24-1.22Z"/>
          <path class="cls-37" d="m27.71,52c-.66,0-1.22-.54-1.24-1.21-.01-.67.55-1.24,1.23-1.24.67,0,1.22.56,1.22,1.22,0,.67-.55,1.22-1.22,1.23Z"/>
          <path class="cls-44" d="m58.57,73.75c-.21,0-.41-.01-.62,0-.18.01-.29-.06-.39-.19-.38-.52-.3-1.25.19-1.68.48-.42,1.2-.41,1.67.03.47.44.53,1.17.14,1.68-.09.11-.18.17-.33.16-.22-.01-.44,0-.66,0Z"/>
          <path class="cls-45" d="m40.94,9.91c.65,0,1.15.52,1.15,1.17,0,.65-.52,1.15-1.17,1.15-.65,0-1.15-.52-1.15-1.17,0-.65.52-1.15,1.17-1.15Z"/>
          <path class="cls-18" d="m76.21,12.23c-.64,0-1.16-.53-1.16-1.17,0-.65.54-1.18,1.19-1.16.65.01,1.16.54,1.15,1.18,0,.65-.53,1.16-1.18,1.15Z"/>
          <path class="cls-17" d="m89.47,25.29c-.47-.03-.86-.36-.95-.81-.09-.45.16-.9.58-1.07.13-.05.2-.05.27.1.21.46.43.91.66,1.36.06.12.04.2-.08.24-.16.06-.33.12-.49.18Z"/>
          <path class="cls-14" d="m27.07,25c.25-.5.5-.99.73-1.48.07-.14.15-.13.26-.08.35.16.55.43.57.82.02.4-.15.7-.51.88-.36.18-.71.13-1.05-.13Z"/>
          <path class="cls-13" d="m66.44,72.88c-.04-.49.27-.9.74-1.01.44-.1.92.12,1.08.54-.6.16-1.2.31-1.81.47Z"/>
          <path class="cls-16" d="m48.88,72.4c.26-.47.74-.65,1.19-.5.42.15.7.56.63.97-.6-.16-1.2-.31-1.82-.47Z"/>
          <path class="cls-15" d="m71.1,7c.34.13.65.26.99.4-.38.18-.83,0-.99-.4Z"/>
          <path class="cls-12" d="m46.07,6.98c-.18.4-.55.56-1.01.43.35-.15.66-.28,1.01-.43Z"/>
          <path class="cls-11" d="m93.06,37.02c.02.38.04.73.07,1.12-.29-.33-.31-.77-.07-1.12Z"/>
          <path class="cls-10" d="m24.07,38.05v-1c.23.32.22.7,0,1Z"/>
        </g>
        <g>
          <g>
            <path class="cls-6" d="m79.03,44.61c-.34,15.87-18.05,17.14-20.45,17.33-2.41-.19-20.06-1.27-20.41-17.39,13.61-.55,27.25-.54,40.86.06Z"/>
            <path class="cls-6" d="m39.1,45.42c12.99-.52,26-.51,38.99.05-.2,3.09-1.14,5.77-2.78,7.98-1.48,1.99-3.55,3.62-6.14,4.89-4.63,2.25-9.53,2.71-10.6,2.72-1.33,0-6.1-.49-10.57-2.65-2.58-1.25-4.64-2.89-6.12-4.89-1.65-2.23-2.58-4.95-2.78-8.09m-.94-.86c.35,16.12,18,17.2,20.41,17.39,2.41-.19,20.11-1.46,20.45-17.33-13.61-.59-27.25-.61-40.86-.06t0,0Z"/>
          </g>
          <g>
            <path class="cls-6" d="m39.99,34.81c-3.06-1.71-4.56-4.55-3.73-7.44.98-4.09,5.09-8.2,9.23-9,3.48-.68,5.44,1.88,6.26,6.18"/>
            <path class="cls-6" d="m77.21,34.81c3.06-1.71,4.56-4.55,3.73-7.44-.98-4.09-5.09-8.2-9.23-9-3.48-.68-5.44,1.88-6.26,6.18"/>
            <g>
              <path class="cls-2" d="m78.88,44.11c-.18,3.67-1.39,6.66-2.91,8.02-3.17,2.95-10.8,3.39-17.36,3.61-6.56-.21-14.19-.66-17.36-3.61-1.52-1.36-2.73-4.35-2.91-8.02,0,0,.39-21.21,20.27-21.15,19.89-.07,20.27,21.15,20.27,21.15Z"/>
              <path class="cls-6" d="m58.61,56.62s-.02,0-.03,0c-9.53-.26-15.22-1.27-17.95-3.82-1.78-1.6-3.01-4.9-3.2-8.63,0-.01,0-.02,0-.03,0-.01,0-.02,0-.03,0-.22.13-5.56,2.76-10.99,1.56-3.22,3.69-5.78,6.33-7.61,3.29-2.29,7.37-3.44,12.09-3.44,4.72,0,8.8,1.15,12.09,3.44,2.64,1.83,4.76,4.39,6.33,7.61,2.63,5.43,2.75,10.77,2.76,10.99,0,.01,0,.02,0,.03,0,.01,0,.02,0,.03-.19,3.73-1.42,7.03-3.2,8.63-2.72,2.55-8.42,3.56-17.95,3.82,0,0-.02,0-.03,0Zm-19.37-12.54c.16,3.2,1.19,6.09,2.62,7.37,0,0,0,0,.01.01,2.34,2.21,7.81,3.14,16.74,3.39,8.93-.24,14.4-1.18,16.74-3.38,0,0,0,0,.01-.01,1.43-1.28,2.46-4.17,2.62-7.37-.02-.42-.23-5.37-2.62-10.24-1.44-2.93-3.37-5.24-5.76-6.9-2.98-2.06-6.68-3.1-11-3.1-4.33,0-8.04,1.04-11.02,3.12-2.39,1.66-4.32,3.99-5.75,6.93-2.37,4.87-2.58,9.77-2.59,10.19Z"/>
            </g>
            <g>
              <path class="cls-6" d="m53.72,42.95c-1.75,2.1-4.29,3.59-6.1,3.41-1.77-.17-2.43-3.83-.96-6.97,1.47-3.05,4.76-3.76,6.86-2.63,2.13,1.16,1.95,4,.19,6.19Z"/>
              <path class="cls-6" d="m63.5,42.95c1.74,2.1,4.28,3.59,6.08,3.41,1.77-.17,2.45-3.83.99-6.97-1.45-3.05-4.74-3.76-6.85-2.63-2.14,1.16-1.97,4-.22,6.19Z"/>
              <path class="cls-6" d="m61.65,48.65c-.61.68-1.99,1.22-3.06,1.22-1.07,0-2.44-.55-3.05-1.22-.61-.68.76-1.24,3.06-1.24,2.3,0,3.67.57,3.05,1.24Z"/>
              <path class="cls-6" d="m59.43,50.41c0,.4-.37.72-.83.72-.46,0-.83-.32-.83-.72,0-.4.38-.72.83-.72s.83.32.83.72Z"/>
              <g>
                <g>
                  <path class="cls-2" d="m52.14,41.44c0,.26-.24.46-.53.47-.28,0-.51-.2-.5-.45,0-.26.24-.47.53-.47.28,0,.51.2.5.45Z"/>
                  <path class="cls-2" d="m51.6,42.16c-.43,0-.77-.31-.75-.7.01-.39.37-.72.8-.72.43,0,.76.31.75.7-.01.39-.37.72-.8.72Zm.03-.92c-.14,0-.26.1-.26.21,0,.12.11.21.25.21.14,0,.26-.1.26-.21,0-.12-.11-.21-.25-.21Z"/>
                </g>
                <g>
                  <path class="cls-2" d="m51.61,42.06c-.37,0-.66-.27-.65-.6.01-.34.32-.62.69-.62.37,0,.66.27.65.6,0,.34-.32.62-.69.62Zm.03-.92c-.2,0-.36.14-.37.31,0,.17.15.31.35.3.2,0,.36-.14.37-.31,0-.17-.15-.31-.35-.31Z"/>
                  <path class="cls-2" d="m51.6,42.31c-.52,0-.92-.37-.91-.85.02-.48.45-.87.96-.88.51,0,.92.38.91.85-.01.48-.44.87-.96.87Zm.03-.92c-.05,0-.1.03-.1.06,0,.05.19.05.19,0,0-.03-.04-.06-.09-.06Z"/>
                </g>
              </g>
              <g>
                <g>
                  <path class="cls-2" d="m65.76,41.45c0,.26-.22.46-.5.45-.28,0-.52-.21-.53-.47,0-.25.22-.46.5-.46.28,0,.52.21.53.47Z"/>
                  <path class="cls-2" d="m65.26,42.16c-.43,0-.78-.33-.79-.72,0-.39.33-.71.76-.7.43,0,.78.33.79.72.01.39-.33.71-.76.7Zm-.02-.92c-.14,0-.25.09-.25.21,0,.12.12.21.26.21.14,0,.25-.09.25-.21,0-.12-.12-.21-.26-.21Z"/>
                </g>
                <g>
                  <path class="cls-2" d="m65.26,42.06c-.37,0-.68-.28-.69-.62,0-.34.29-.61.66-.6.37,0,.68.28.69.62,0,.34-.29.61-.66.6Zm-.02-.92c-.2,0-.35.13-.35.31,0,.17.17.31.36.31.2,0,.35-.13.35-.31,0-.17-.17-.31-.36-.31Z"/>
                  <path class="cls-2" d="m65.27,42.31c-.52,0-.94-.4-.95-.87,0-.48.4-.86.91-.85.51,0,.94.4.95.88.01.48-.4.86-.91.85Zm-.02-.92c-.05,0-.1.03-.1.06,0,.06.19.05.19,0,0-.02-.04-.06-.1-.06Z"/>
                </g>
              </g>
              <path class="cls-6" d="m61.65,52.38c-1.3-.01-2.89-.67-3.27-.84-.24-.11-.35-.38-.23-.6.12-.23.41-.32.65-.22,1.03.45,2.78.96,3.4.66.09-.04.18-.11.21-.3.04-.25.29-.42.55-.37.27.04.46.28.42.52-.07.44-.31.77-.71.96-.29.14-.65.19-1.03.19Z"/>
              <path class="cls-6" d="m55.53,52.38c-.38,0-.74-.05-1.03-.19-.4-.19-.64-.52-.7-.96-.04-.25.15-.48.42-.52.27-.04.52.13.55.37.03.19.12.26.21.3.62.3,2.37-.21,3.41-.66.25-.11.54,0,.65.22.12.23.01.5-.23.6-.38.16-1.97.82-3.27.84Z"/>
              <g>
                <path class="cls-6" d="m54.29,43.41s-.08-.01-.11-.04c-.06-.06-.07-.15,0-.21,1.15-1.21,2.77-1.91,4.44-1.91.09,0,.16.07.16.15,0,.08-.07.15-.16.15-1.59,0-3.12.66-4.21,1.81-.03.03-.08.05-.12.05Z"/>
                <path class="cls-6" d="m62.93,43.41s-.09-.02-.12-.05c-1.09-1.15-2.61-1.81-4.2-1.81-.09,0-.16-.07-.16-.15,0-.08.07-.15.16-.15,1.68,0,3.29.7,4.43,1.91.06.06.06.16,0,.21-.03.03-.07.04-.11.04Z"/>
              </g>
            </g>
          </g>
        </g>
        <g>
          <g>
            <path class="cls-5" d="m72.81,25.56c-.32,0-.62-.19-.73-.47-.1-.23-2.38-5.71-13.76-5.71-11.36,0-13.41,5.45-13.5,5.68-.12.34-.52.55-.89.47-.37-.07-.58-.41-.46-.74.11-.27,2.46-6.67,14.86-6.67,12.37,0,14.97,6.38,15.09,6.65.13.34-.07.68-.44.76-.06.01-.12.02-.17.02Z"/>
            <path class="cls-5" d="m72.84,25.84c-.47,0-.9-.28-1.05-.68-.1-.22-2.26-5.5-13.47-5.5-11.16,0-13.12,5.25-13.21,5.47-.17.48-.74.78-1.28.68-.26-.05-.47-.19-.6-.39-.13-.2-.15-.44-.07-.68.11-.28,2.54-6.89,15.15-6.89,12.56,0,15.26,6.58,15.39,6.86.09.23.08.48-.04.68-.12.21-.33.35-.59.41-.08.02-.16.03-.25.03Zm-14.51-6.73c11.61,0,13.94,5.67,14.05,5.91.07.19.32.3.5.26.1-.02.18-.08.23-.16.05-.08.05-.17.02-.27-.12-.26-2.63-6.44-14.8-6.44-12.2,0-14.45,6.19-14.56,6.45-.06.19.05.37.26.41.21.04.43-.08.5-.27.1-.24,2.22-5.9,13.8-5.9Z"/>
          </g>
          <path class="cls-3" d="m71.31,26.41c.19-.45.48-.84.88-1.13t0,0c1.33-.98,3.3-.48,4.47,1.11,1.17,1.6,2.37,3.2,3.59,4.79,1.21,1.59,1.12,3.67-.26,4.65,0,0,0,0,0,0-.43.31-.93.47-1.46.5"/>
          <path class="cls-3" d="m45.81,26.38c-.19-.45-.5-.85-.9-1.14-1.34-.95-3.32-.4-4.48,1.24-1.14,1.61-2.3,3.22-3.48,4.83-1.2,1.63-1.09,3.73.31,4.68.43.29.92.44,1.44.46"/>
          <path class="cls-5" d="m69.17,53.69c-.38,0-.73-.25-.82-.61-.1-.4.18-.79.61-.86,5.97-1.01,9.65-3.25,10.95-6.66,2.21-5.97-3-13.72-2.98-13.79-.23-.36-.15-.81.17-1.01.32-.2.78-.08,1.01.28.14.34,5.7,8.48,3.28,15.15-1.45,3.87-5.52,6.4-12.08,7.5-.05,0-.1.01-.14.01Z"/>
          <path class="cls-3" d="m78.64,36.33c-.91-2.4-3.01-6.15-3.02-6.18.06-.13.13-.27.19-.4.38-.29.76-.58,1.14-.86.15.07.3.14.45.21.02.02.37-.07.5.13.55.86,1.99,3.17,2.85,5.37-.5,1.33-1.31,1.51-2.12,1.73Z"/>
          <path class="cls-3" d="m68.12,55.36h0c-1.46,0-2.67-1.08-2.71-2.41t0,0c-.04-1.33,1.09-2.41,2.51-2.41h0c1.42,0,2.63,1.08,2.71,2.41t0,0c.08,1.33-1.05,2.41-2.51,2.41Z"/>
          <path class="cls-5" d="m68.14,55.69c-1.66,0-3.04-1.23-3.08-2.74-.04-1.51,1.24-2.74,2.85-2.74,1.61,0,2.99,1.23,3.08,2.74.09,1.51-1.19,2.74-2.85,2.74Zm-.2-4.82c-1.23,0-2.2.93-2.17,2.08.03,1.15,1.08,2.08,2.34,2.08,1.26,0,2.23-.93,2.17-2.08-.06-1.15-1.11-2.08-2.34-2.08Z"/>
        </g>
      </g>
      <g>
        <path class="cls-4" d="m140.08,42.03h.12v-22.09h11.2v40.31h-11.2l-12.52-22.09h-.11v22.09h-11.2V19.94h11.2l12.52,22.09Z"/>
        <path class="cls-4" d="m188.49,35.4v8.28h-14.93v7.73h16.08v8.84h-27.56V19.94h27.56v8.84h-16.08v6.63h14.93Z"/>
        <path class="cls-4" d="m232.76,19.94v9.11h-11.37v31.2h-11.71v-31.2h-11.37v-9.11h34.46Z"/>
        <path class="cls-4" d="m261.82,60.8c-6.78,0-12.2-1.85-16.28-5.55-4.08-3.7-6.12-8.75-6.12-15.16s1.96-11.55,5.89-15.21c3.92-3.66,9.43-5.49,16.51-5.49,5.4,0,9.99,1.29,13.78,3.87l-3.16,8.01c-3.18-2.02-6.34-3.04-9.48-3.04-3.71,0-6.6,1.02-8.67,3.06-2.07,2.04-3.1,4.98-3.1,8.81s1.08,6.58,3.24,8.7c2.16,2.12,5,3.17,8.53,3.17,3.14,0,6.3-1.01,9.48-3.04l3.16,8.01c-3.79,2.58-8.38,3.87-13.78,3.87Z"/>
        <path class="cls-4" d="m308.68,43.68h-12.06v16.56h-11.49V19.94h11.49v15.46h12.06v-15.46h11.49v40.31h-11.49v-16.56Z"/>
        <path class="cls-4" d="m331.42,60.25V19.94h12.63v40.31h-12.63Z"/>
        <path class="cls-4" d="m379.02,42.03h.12v-22.09h11.2v40.31h-11.2l-12.52-22.09h-.11v22.09h-11.2V19.94h11.2l12.52,22.09Z"/>
        <path class="cls-4" d="m411.98,52.52l-1.89,7.73h-11.94l13.78-40.31h12.06l13.78,40.31h-12.17l-1.95-7.73h-11.66Zm2.07-8.28h7.58l-3.73-14.91h-.12l-3.73,14.91Z"/>
      </g>
    </g>
  </g>
</svg>