<?xml version="1.0" encoding="UTF-8"?>
<svg id="_レイヤー_2" data-name="レイヤー 2" xmlns="http://www.w3.org/2000/svg" viewBox="0 0 156.65 22.1">
  <defs>
    <style>
      .cls-1 {
        fill: #b12332;
      }
    </style>
  </defs>
  <g id="SPmenu">
    <g>
      <path class="cls-1" d="m12.17,12.08h.06V.29h5.75v21.51h-5.75l-6.42-11.78h-.06v11.78H0V.29h5.75l6.42,11.78Z"/>
      <path class="cls-1" d="m35.83,8.54v4.42h-7.66v4.12h8.25v4.71h-14.14V.29h14.14v4.71h-8.25v3.54h7.66Z"/>
      <path class="cls-1" d="m57.36.29v4.86h-5.83v16.65h-6.01V5.16h-5.83V.29h17.68Z"/>
      <path class="cls-1" d="m71.09,22.1c-3.48,0-6.26-.99-8.35-2.96-2.09-1.97-3.14-4.67-3.14-8.09s1.01-6.16,3.02-8.12c2.01-1.95,4.84-2.93,8.47-2.93,2.77,0,5.13.69,7.07,2.06l-1.62,4.27c-1.63-1.08-3.25-1.62-4.86-1.62-1.91,0-3.39.54-4.45,1.63-1.06,1.09-1.59,2.66-1.59,4.7s.55,3.51,1.67,4.64c1.11,1.13,2.57,1.69,4.38,1.69,1.61,0,3.23-.54,4.86-1.62l1.62,4.27c-1.94,1.38-4.3,2.06-7.07,2.06Z"/>
      <path class="cls-1" d="m93.95,12.96h-6.19v8.84h-5.89V.29h5.89v8.25h6.19V.29h5.89v21.51h-5.89v-8.84Z"/>
      <path class="cls-1" d="m104.44,21.8V.29h6.48v21.51h-6.48Z"/>
      <path class="cls-1" d="m127.69,12.08h.06V.29h5.75v21.51h-5.75l-6.42-11.78h-.06v11.78h-5.75V.29h5.75l6.42,11.78Z"/>
      <path class="cls-1" d="m143.42,17.68l-.97,4.12h-6.13L143.39.29h6.19l7.07,21.51h-6.25l-1-4.12h-5.98Zm1.06-4.42h3.89l-1.92-7.95h-.06l-1.91,7.95Z"/>
    </g>
  </g>
</svg>