<?xml version="1.0" encoding="UTF-8"?>
<svg id="_レイヤー_2" data-name="レイヤー 2" xmlns="http://www.w3.org/2000/svg" viewBox="0 0 53.16 52.16">
  <defs>
    <style>
      .cls-1 {
        fill: #fff;
      }

      .cls-2 {
        fill: #e78005;
      }
    </style>
  </defs>
  <g id="_レイヤー_4" data-name="レイヤー 4">
    <g>
      <polygon class="cls-2" points="5.32 36.83 0 52.16 13.06 46.73 5.32 36.83"/>
      <g>
        <circle class="cls-2" cx="27.08" cy="26.08" r="26.08"/>
        <g>
          <path class="cls-1" d="m25.12,21.17v2.25h-8.75v-2.25h2.81v-8.73l-3.1,1.17v-2.48l4.63-1.73h1.62v11.78h2.79Z"/>
          <path class="cls-1" d="m19.24,39.85v2.7h-9.81v-1.93c5.02-4.99,6.27-6.55,6.27-8.57,0-.88-.43-1.51-1.3-1.51-1.12,0-1.71.86-2,2.86l-2.93-.86c.5-2.72,2.27-4.21,4.97-4.21,2.88,0,4.61,1.48,4.61,3.93,0,2.18-1.35,3.87-5.42,7.6h5.62Z"/>
          <path class="cls-1" d="m23.9,34.85c.74-.7,1.64-1.04,2.79-1.04,2.74,0,4.52,1.67,4.52,4.27,0,2.81-1.98,4.75-4.97,4.75-2.63,0-4.32-1.1-5.11-3.22l2.93-1.01c.23,1.21,1.01,2.02,2.07,2.02,1.21,0,1.93-.9,1.93-2.3,0-1.51-.72-2.27-2.05-2.27-.72,0-1.33.32-1.96,1.03l-2.43-.76.47-7.8h8.34v2.88h-6.3l-.22,3.46Z"/>
        </g>
        <path class="cls-1" d="m29.97,13.11c0-.58-.03-1.05-.07-1.54.47.06.95.07,1.63.07h6.95c.7,0,1.12-.01,1.57-.07-.06.49-.07.92-.07,1.45v9.54c0,.74.03,1.2.09,1.7h-1.49v-.92h-7.19v.92h-1.49c.06-.49.09-1.04.09-1.7v-9.45Zm1.4,3.56h7.19v-3.73h-7.19v3.73Zm0,5.38h7.19v-4.1h-7.19v4.1Z"/>
        <path class="cls-1" d="m38.21,36.13c-.52,0-.96.03-1.36.07v-1.2c-.68.72-1.15,1.14-1.95,1.73-.24-.4-.53-.77-.98-1.18,1.82-1.23,3.06-2.59,3.95-4.27.35-.67.52-1.11.59-1.52l1.51.55c-.13.19-.22.35-.41.75-.65,1.39-1.4,2.51-2.53,3.76.33.04.74.06,1.2.06h5.2c.59,0,.92-.01,1.36-.04-1.09-1.17-1.97-2.44-2.65-3.87-.07-.15-.24-.46-.33-.62l1.39-.53c.1.37.24.69.56,1.27,1.02,1.82,2.34,3.21,4.2,4.41-.35.37-.61.71-.95,1.32-.89-.67-1.39-1.09-2.06-1.77q-.02.25-.03.92c-.03,3.22-.25,5.38-.64,6.14-.3.56-.77.75-1.88.75-.37,0-.67-.01-1.7-.07-.06-.55-.15-.86-.35-1.46.77.13,1.43.21,1.91.21.56,0,.71-.07.83-.37.16-.47.27-1.2.35-2.41.06-.74.09-1.51.09-2.1v-.49h-3.09c-.12,1.58-.44,2.65-1.15,3.81-.81,1.35-2.01,2.38-3.76,3.25-.24-.47-.44-.74-.89-1.2.9-.37,1.54-.75,2.28-1.4,1.08-.92,1.76-2.13,2.03-3.55.04-.28.07-.43.1-.92h-.86Z"/>
      </g>
    </g>
  </g>
</svg>