<?xml version="1.0" encoding="UTF-8"?>
<svg id="_レイヤー_2" data-name="レイヤー 2" xmlns="http://www.w3.org/2000/svg" viewBox="0 0 65.8 65.8">
  <defs>
    <style>
      .cls-1 {
        fill: #fff;
      }

      .cls-2 {
        fill: #e78005;
      }
    </style>
  </defs>
  <g id="_レイヤー_4" data-name="レイヤー 4">
    <g>
      <g>
        <polygon class="cls-2" points="6.71 46.46 0 65.8 16.47 58.95 6.71 46.46"/>
        <circle class="cls-2" cx="32.9" cy="32.9" r="32.9"/>
      </g>
      <g>
        <path class="cls-1" d="m31.36,26.85v2.39h-9.3v-2.39h2.98v-9.28l-3.29,1.24v-2.64l4.92-1.84h1.72v12.51h2.96Z"/>
        <path class="cls-1" d="m25.14,46.14v3h-10.9v-2.14c5.58-5.54,6.96-7.28,6.96-9.52,0-.98-.48-1.68-1.44-1.68-1.24,0-1.9.96-2.22,3.18l-3.26-.96c.56-3.02,2.52-4.68,5.52-4.68,3.2,0,5.12,1.64,5.12,4.36,0,2.42-1.5,4.3-6.02,8.44h6.24Z"/>
        <path class="cls-1" d="m30.32,40.58c.82-.78,1.82-1.16,3.1-1.16,3.04,0,5.02,1.86,5.02,4.74,0,3.12-2.2,5.28-5.52,5.28-2.92,0-4.8-1.22-5.68-3.58l3.26-1.12c.26,1.34,1.12,2.24,2.3,2.24,1.34,0,2.14-1,2.14-2.56,0-1.68-.8-2.52-2.28-2.52-.8,0-1.48.36-2.18,1.14l-2.7-.84.52-8.66h9.26v3.2h-7l-.24,3.84Z"/>
      </g>
      <path class="cls-1" d="m44.53,16.23c.71,0,1.15-.02,1.61-.07-.06.62-.07,1.08-.07,1.58v9.58c0,.8.03,1.33.09,1.89h-2.12v-.81h-6.54v.81h-2.08c.06-.56.09-1.18.09-1.89v-9.54c0-.56-.03-1.08-.07-1.63.47.04.99.07,1.67.07h7.42Zm-.49,5.03v-3.16h-6.54v3.16h6.54Zm-6.54,1.83v3.45h6.54v-3.45h-6.54Z"/>
      <path class="cls-1" d="m43.93,43.1c-.44,0-.77.01-1.12.07v-.92c-.61.64-1.04,1.03-1.8,1.61-.35-.68-.71-1.14-1.32-1.76,1.76-1.21,2.88-2.47,3.8-4.2.34-.64.49-1.02.58-1.46l2.07.77c-.15.24-.22.37-.38.75-.49,1.05-1.29,2.31-2.14,3.37h6.39c-.9-1.08-1.6-2.2-2.17-3.5-.07-.16-.22-.44-.31-.62l1.92-.74c.1.4.24.71.58,1.33.95,1.7,2.19,3,3.96,4.11-.67.81-.8,1.02-1.29,1.92-.72-.53-1.02-.78-1.55-1.29,0,2.6-.18,4.76-.49,5.86-.29,1.03-.93,1.36-2.63,1.36-.25,0-.34,0-1.33-.03-.1-.77-.22-1.18-.55-2.03.65.09,1.3.15,1.67.15.63,0,.83-.09.95-.38.24-.64.4-2.19.4-4.01v-.37h-2.54c-.09.81-.12.96-.24,1.42-.4,1.7-1.24,3.09-2.54,4.21-.68.59-1.21.93-2.19,1.4-.37-.7-.64-1.05-1.26-1.72,1.7-.69,2.84-1.61,3.5-2.84.44-.8.62-1.45.7-2.48h-.65Z"/>
    </g>
  </g>
</svg>