<?xml version="1.0" encoding="UTF-8"?>
<svg id="_レイヤー_2" data-name="レイヤー 2" xmlns="http://www.w3.org/2000/svg" xmlns:xlink="http://www.w3.org/1999/xlink" viewBox="0 0 896.79 204.36">
  <defs>
    <style>
      .cls-1 {
        fill: none;
      }

      .cls-2 {
        clip-path: url(#clippath);
      }

      .cls-3 {
        fill: #fff;
      }

      .cls-4 {
        fill: #ffc73b;
      }

      .cls-5 {
        fill: #9f616a;
      }

      .cls-6 {
        fill: #8ec31f;
      }

      .cls-7 {
        fill: #ccc;
      }

      .cls-8 {
        fill: #3f3d56;
      }

      .cls-9 {
        fill: #2f2e41;
      }
    </style>
    <clipPath id="clippath">
      <rect class="cls-1" x="112.41" y="48.09" width="195.83" height="142.68"/>
    </clipPath>
  </defs>
  <g id="layerCont">
    <g>
      <g>
        <rect class="cls-3" x=".5" y="10.7" width="895.79" height="180.08" rx="6" ry="6"/>
        <path class="cls-4" d="m890.29,191.28H6.5c-3.58,0-6.5-2.92-6.5-6.5V16.7c0-3.58,2.92-6.5,6.5-6.5h883.79c3.58,0,6.5,2.92,6.5,6.5v168.08c0,3.58-2.92,6.5-6.5,6.5ZM6.5,11.2c-3.03,0-5.5,2.47-5.5,5.5v168.08c0,3.03,2.47,5.5,5.5,5.5h883.79c3.03,0,5.5-2.47,5.5-5.5V16.7c0-3.03-2.47-5.5-5.5-5.5H6.5Z"/>
      </g>
      <path id="bec063ed-0fa9-413a-bd83-d8526fa41b8c-1845" class="cls-6" d="m144.43,108.56l6.84,11.85,6.84,11.85h-27.37l6.84-11.85,6.84-11.85Z"/>
      <path id="a646102d-3f95-413e-a731-a5030e030d8b-1846" class="cls-7" d="m137.64,81.57c0-1.68,1.36-3.05,3.05-3.05s3.05,1.36,3.05,3.05-1.36,3.05-3.05,3.05-3.05-1.36-3.05-3.05Zm.51,0c0,1.4,1.14,2.54,2.54,2.54s2.54-1.14,2.54-2.54-1.14-2.54-2.54-2.54-2.54,1.14-2.54,2.54Z"/>
      <path id="a7867f82-9da8-49b7-a62f-5fc2df52f7dd-1847" class="cls-7" d="m111.4,134.59l-4.49-4.81,4.81-4.49,4.49,4.81-4.81,4.49Zm-3.77-4.79l3.8,4.07,4.07-3.8-3.8-4.07-4.07,3.8Z"/>
      <path id="abfd432a-addf-48b7-a638-56871f84cdda-1848" class="cls-7" d="m74.35,66.16l-3.65-3.91,3.92-3.65,3.65,3.91-3.92,3.65Zm-3.07-3.89l3.09,3.31,3.31-3.09-3.09-3.31-3.31,3.09Z"/>
      <path id="ec996080-b25c-43f9-95b1-17d83c771fa1-1850" class="cls-8" d="m108.62,116.48h-37.08v-37.08h37.08v37.08Zm-36.57-.51h36.07v-36.07h-36.07v36.07Z"/>
      <path id="e64eb5c0-2762-4bb4-99c9-e384d48b09ae-1851" class="cls-8" d="m163.61,134.77h-38.36l19.18-33.22,19.18,33.22Zm-37.48-.51h36.6l-18.3-31.69-18.3,31.69Z"/>
      <circle id="f311804e-8539-4d4f-8733-0b334c90657a" class="cls-6" cx="96.89" cy="130.06" r="3.8"/>
      <path id="a4f0274e-f5b3-4a0e-a250-2f78ed178189-1864" class="cls-7" d="m85.79,139.42c0-1.68,1.36-3.05,3.05-3.05s3.05,1.36,3.05,3.05-1.36,3.05-3.05,3.05-3.05-1.36-3.05-3.05Zm.51,0c0,1.4,1.14,2.54,2.54,2.54s2.54-1.14,2.54-2.54-1.14-2.54-2.54-2.54-2.54,1.14-2.54,2.54Z"/>
      <g>
        <path d="m361.35,108.89c0,1.57-.54,1.91-2.94,1.91-.47,0-1.04-.02-1.85-.04-.18-1.01-.32-1.46-.68-2.27.95.09,1.67.14,2.21.14.76,0,.88-.05.88-.38v-2.21h-4.66c-.96,0-1.75.04-2.32.11v-2.36c.67.09,1.42.13,2.3.13h4.68c0-.4-.02-.7-.05-.97h.88c.59-.32,1.06-.65,1.66-1.17h-4.34c-.81,0-1.26.02-1.85.07v-2.12c.54.05,1.06.07,1.87.07h5.69c.7,0,1.04-.02,1.39-.07l1.15,1.28c-.2.16-.27.23-.47.41-.9.83-1.89,1.6-3.21,2.5h4.02c.94,0,1.8-.04,2.38-.13v2.36c-.58-.07-1.4-.11-2.39-.11h-4.34v2.84Zm-6.45-12.1c-.38-.72-.61-1.12-1.24-1.94l2.21-.54c.58.77,1.01,1.46,1.53,2.48h1.57c-.23-.7-.56-1.4-1.01-2.18l2.29-.5c.63,1.24.81,1.66,1.15,2.68h1.3c.58-.85.99-1.69,1.31-2.59l2.32.56c-.29.59-.85,1.55-1.17,2.03h.58c1.17,0,1.64-.02,2.23-.07-.05.45-.07.81-.07,1.5v1.84c0,.54.04.97.09,1.42h-2.32v-2.68h-11.29v2.68h-2.34c.07-.4.09-.83.09-1.44v-1.82c0-.63-.02-1.04-.07-1.5.68.05,1.01.07,2.18.07h.67Z"/>
        <path d="m387.36,100.35c0,.95-.09,1.29-.43,1.57-.34.29-.9.39-2.12.39-.27,0-.81-.02-1.35-.04-.05-.54-.09-.76-.22-1.26-.83.36-1.19.5-1.8.74-.36.12-.45.16-.59.23-.25.42-.32.52-.59.92h3.71c1.1,0,1.44-.02,2-.05-.07.65-.07.9-.07,2.07v3.75c0,1.13.02,1.67.09,2.2h-2.39v-.72h-7.83v.72h-2.38c.07-.58.11-1.08.11-2.2v-3.73c0-1.13-.02-1.51-.07-2.09.59.04.92.05,1.98.05h2.41c.16-.25.23-.34.45-.72-.36.07-.74.11-1.3.11-.4,0-.92-.02-1.3-.04-.05-.58-.09-.79-.25-1.33-.95.43-1.51.65-2.34.97-.43.14-.54.2-.85.36l-.7-2.11c.83-.14,1.71-.41,2.95-.88-.67-.61-1.19-.99-2.23-1.58l1.06-1.17c-.86,0-1.15.02-1.6.09v-2.18c.63.07,1.21.11,2.05.11h3.78c.97,0,1.35-.02,1.85-.09-.05.41-.05.83-.05,1.87v4c0,.38-.02.63-.07.94l.97.16-.45-1.38c.92-.16,1.71-.38,2.63-.72-.86-.74-1.3-1.04-2.3-1.62l.99-1.15c-.7.02-.86.02-1.31.07v-2.16c.59.07,1.28.11,2.11.11h3.82c.9,0,1.39-.04,1.73-.07-.05.41-.07.99-.07,1.89v3.98Zm-12.62-1.17c.54-.21.88-.36,1.84-.81l.04,1.96c.54-.02.59-.04.59-.38v-3.44h-3.33c.85.45,1.26.74,2.05,1.33l-1.19,1.33Zm1.01,6.45h7.85v-.94h-7.85v.94Zm0,2.7h7.85v-.94h-7.85v.94Zm6.9-9.11c.68-.27,1.01-.41,1.93-.85l.04,1.98c.56-.02.59-.04.59-.38v-3.46h-3.55c.76.4,1.28.74,2.09,1.37l-1.1,1.33Z"/>
        <path d="m395.38,108.58v1.24h-2.77c.05-.7.09-1.46.09-2.54v-8.89c0-1.28,0-1.49-.07-2.38.74.07,1.03.07,2.59.07h8.41c1.51,0,1.96-.02,2.7-.07-.05.63-.07,1.42-.07,2.47v8.7c0,1.3.02,2,.09,2.63h-2.77v-1.22h-8.19Zm8.19-10.07h-8.21v7.63h8.21v-7.63Z"/>
        <path d="m411.42,100.96c.81.11,1.46.14,3.29.14h9.11c1.82,0,2.47-.02,3.29-.13v2.95c-.72-.05-1.91-.09-3.31-.09h-9.09c-1.57,0-2.59.04-3.29.11v-2.99Z"/>
        <path d="m434.32,110.29c.09-.68.11-1.31.11-2.54v-10.66c0-1.28-.02-1.78-.11-2.41h2.94c-.09.68-.11,1.1-.11,2.41v2.74c2.79.96,5.26,2.07,8.19,3.78l-1.48,2.59c-1.6-1.1-3.96-2.38-6.03-3.28-.34-.14-.42-.18-.68-.32v5.19c0,1.15.04,1.82.11,2.5h-2.94Zm7.94-14.49c.7.87,1.15,1.57,1.6,2.58l-1.57.77c-.43-.97-.97-1.87-1.6-2.66l1.57-.69Zm2.09-.97c.77.94,1.08,1.42,1.64,2.49l-1.57.77c-.45-.92-.95-1.76-1.58-2.56l1.51-.7Z"/>
        <path d="m454.13,98.61c-1.42,0-1.95.02-2.74.09v-2.7c.76.11,1.39.12,2.79.12h9.79c.67,0,.95-.04,1.37-.16l1.48,1.66c-.27.29-.38.43-.79,1.12-1.73,2.86-3.48,4.93-5.76,6.86.83.97,1.28,1.55,2.27,2.86l-2.29,1.8c-1.04-1.69-1.98-2.92-3.47-4.61-1.42-1.6-2.3-2.47-3.6-3.53l2.09-1.49c1.39,1.13,2.39,2.07,3.24,3.01,1.17-1.03,2.12-2,2.99-3.06.52-.65.86-1.15,1.22-1.76q.11-.18.13-.22l-8.71.02Z"/>
        <path d="m474.56,98.77c.79,1.48,1.15,2.38,1.78,4.41l-2.41.74c-.49-1.96-.83-2.9-1.62-4.5l2.25-.65Zm10.42.22c-.11.31-.13.36-.27,1.01-.52,2.43-1.3,4.41-2.36,5.96-1.28,1.84-2.88,3.11-5.73,4.55-.56-.96-.81-1.28-1.71-2.14,1.37-.52,2.14-.94,3.17-1.66,2.09-1.51,3.28-3.37,4.01-6.25.22-.88.31-1.48.32-2.07l2.56.59Zm-6.52-.96c.95,1.82,1.3,2.63,1.75,4.27l-2.36.72c-.34-1.42-.92-2.97-1.62-4.38l2.23-.61Z"/>
        <path d="m502.32,96.1c.22,0,.43,0,.77-.04.07-1.04.94-1.86,1.98-1.86,1.12,0,2,.9,2,2s-.88,2-1.98,2h-.07l-.07.25c-.76,3.02-1.91,5.37-3.56,7.29-1.66,1.95-3.69,3.35-6.79,4.74-.59-1.15-.88-1.55-1.91-2.58,1.57-.48,2.56-.95,3.87-1.78,2.77-1.77,4.54-4.23,5.37-7.51h-7.89c-1.48,0-2.05.02-2.79.11v-2.76c.77.11,1.33.13,2.83.13h8.25Zm1.87.11c0,.49.4.88.88.88s.88-.4.88-.88-.4-.88-.88-.88-.88.39-.88.88Z"/>
        <path d="m523.78,94.64c-.18.43-.22.5-.4,1.03-.34.94-.49,1.29-1.22,2.88v10.03c0,.86.04,1.58.11,2.27h-2.5c.07-.7.11-1.28.11-2.25v-4.74c0-.16.02-.81.04-1.96-.49.69-.94,1.19-1.49,1.75-.27-1.1-.52-1.75-1.03-2.65,1.28-1.12,2.39-2.75,3.28-4.79.4-.92.63-1.66.74-2.34l2.38.77Zm2.95,4.09c-.86,1.66-1.82,3.08-2.99,4.38-.47-.88-.74-1.26-1.48-2.11,1.35-1.35,2.16-2.59,2.94-4.41.49-1.15.76-1.98.85-2.65l2.45.63c-.18.45-.25.61-.38.97-.23.65-.29.81-.4,1.08h4.52c.97,0,1.58-.04,2.09-.11v2.3c-.52-.07-1.28-.11-2.09-.11h-3.19v2h2.75c.77,0,1.31-.04,1.87-.09v2.25c-.65-.05-1.21-.09-1.89-.09h-2.74v2h2.75c.81,0,1.28-.02,1.89-.09v2.27c-.65-.05-1.19-.09-1.89-.09h-2.75v1.75c0,1.17.04,1.8.11,2.3h-2.54c.09-.56.11-1.13.11-2.29v-9.9Z"/>
        <path d="m553.23,100.52c-.11.27-.2.47-.38.92-.2.5-.7,1.6-1.06,2.3-.41.81-.81,1.49-1.33,2.23.43.79.86,1.37,1.22,1.66.13.11.2.18.2.18.05.05.11.07.13.07.18,0,.32-.65.56-2.39.68.67,1.03.94,1.84,1.4-.25,1.37-.41,1.93-.76,2.61-.36.72-.77,1.04-1.35,1.04-1.01,0-2.23-.99-3.38-2.7-1.12,1.1-2.21,1.91-3.82,2.83-.67-.97-.9-1.26-1.58-1.89,1.78-.76,3.15-1.67,4.38-2.94-.79-1.98-1.13-3.85-1.35-7.18h-5.24c0,1.03,0,1.39-.02,2.16h3.22c.65,0,.85-.02,1.24-.05q-.05.39-.2,3.47c-.11,2.11-.32,3.03-.83,3.53-.32.3-.63.41-1.33.49-.34.05-.83.07-1.19.07-.13,0-.41,0-.85-.02-.13-.88-.25-1.46-.52-2.12-.34,2.04-.83,3.35-1.73,4.7-.68-.88-1.08-1.28-1.84-1.87.61-.92.9-1.58,1.17-2.7.38-1.53.58-4.05.58-7.17,0-1.37-.02-1.93-.11-2.7.67.05,1.42.09,2.38.09h5.17q-.05-1.94-.13-2.34h2.52c-.05.34-.11,1.01-.11,1.48,0,.04,0,.5.02.86h2c-.54-.65-.7-.79-1.46-1.39l1.67-1.04c.61.49,1.17,1.04,1.76,1.75l-1.03.68h.47c.95,0,1.39-.02,1.89-.09v2.32c-.65-.07-1.39-.11-2.27-.11h-2.97c.14,2.14.34,3.62.68,4.92.83-1.55,1.3-2.79,1.46-3.91l2.27.85Zm-12.05,2.38c-.09,1.33-.18,2.18-.34,3.17.83.11,1.12.14,1.51.14.5,0,.67-.09.77-.47.16-.52.18-.74.23-2.85h-2.18Z"/>
        <path d="m562.19,95.13c-.38.76-.92,3.31-1.19,5.47-.14,1.17-.22,2.43-.23,3.47,0,.36-.02,1.06-.02,1.35.4-.97.52-1.29.81-1.87l1.53.61c-.95,1.89-1.62,4.12-1.62,5.49,0,.07.02.25.04.58l-2.58.12c-.02-.23-.02-.34-.07-.72-.36-2.39-.49-3.98-.49-5.9,0-1.69.11-3.29.34-4.84q.07-.54.43-2.48c.14-.74.2-1.13.22-1.53l2.83.25Zm.96,3.04c.79.18,1.89.27,3.37.27.5,0,.83,0,1.44-.02q0-1.33-.02-2.54c0-.34-.02-.72-.07-.94h2.67c-.11.59-.13,1.33-.13,3.29,1.19-.14,2.16-.34,2.92-.59l.09,2.45c-.22.02-.25.02-.7.11-.63.14-1.33.25-2.29.36.02,1.46.04,1.86.18,4.16,1.33.63,1.85.92,2.75,1.57.27.18.32.21.52.34l-.99,2.59c-.41-.5-1.28-1.19-2.32-1.85.02.16.02.2.02.31,0,1.58-1.44,2.59-3.73,2.59-2.49,0-4-1.19-4-3.13s1.57-3.22,3.94-3.22c.49,0,.79.04,1.3.14-.02-.61-.05-1.42-.11-3.33-.52.02-.83.02-1.22.02-.65,0-2.25-.05-3.02-.11q-.29-.02-.52-.02s-.05,0-.11.02l.04-2.47Zm3.69,7.94c-.95,0-1.58.39-1.58,1.01,0,.58.54.94,1.42.94,1.04,0,1.5-.4,1.5-1.3,0-.16,0-.38-.02-.38-.52-.2-.83-.27-1.31-.27Z"/>
        <path d="m583.46,103.25c-1.1.88-1.62,1.64-1.62,2.34,0,1.04,1.24,1.51,4.05,1.51,2.21,0,4.65-.32,5.85-.79l.2,2.95q-.43.02-1.62.16c-1.6.21-2.75.29-4.07.29-2.16,0-3.73-.2-4.74-.59-1.62-.61-2.41-1.66-2.41-3.13s.74-2.74,2.45-4.11l1.91,1.37Zm-3.19-7.76c1.1.29,3.19.45,5.82.45,2.18,0,3.75-.11,4.72-.32l.09,2.38c-1.08.49-3.19,1.8-4.92,3.08l-1.84-1.37c.63-.41,1.85-1.17,2.38-1.48-.85.09-1.24.11-2.05.11-1.22,0-2.7-.09-3.73-.22-.38-.05-.4-.05-.63-.05l.16-2.57Z"/>
        <path d="m597.99,96.88c.81.2,2.11.29,3.89.31.32-1.46.43-2.11.47-2.84l2.84.21c-.04.14-.25.99-.67,2.59,3.17-.11,5.58-.38,6.81-.74l.11,2.59q-.5.04-2.29.22c-1.78.18-3.21.27-5.24.32-.34,1.17-.77,2.29-1.22,3.22,1.28-.68,2.58-.99,4.25-.99,3.29,0,5.22,1.4,5.22,3.82,0,2.77-2.66,4.56-6.81,4.56-1.58,0-3.17-.22-4.61-.61,0-1.15-.04-1.6-.25-2.68,1.71.58,3.28.86,4.75.86,2.52,0,4.12-.83,4.12-2.14,0-.99-1.01-1.55-2.77-1.55-1.39,0-2.67.29-3.8.87-.65.32-.94.54-1.24.99l-2.59-.87c.68-1.06,1.85-3.82,2.34-5.51h-.79c-.18,0-.29-.02-1.8-.12-.27-.02-.45-.02-.59-.02h-.16l.04-2.49Z"/>
        <path d="m622.22,98.19c-.2.7-.61,3.04-.83,4.68,1.55-1.1,3.1-1.57,5.26-1.57,3.21,0,5.26,1.57,5.26,4,0,1.44-.72,2.79-1.94,3.64-1.28.88-2.83,1.28-4.92,1.28-1.51,0-2.66-.14-4.57-.58-.02-1.15-.07-1.64-.32-2.74,1.78.58,3.31.87,4.74.87,2.52,0,4.21-.96,4.21-2.38,0-1.1-1.03-1.75-2.75-1.75-1.55,0-3.04.43-4.27,1.21-.4.25-.56.4-.92.81l-2.61-.09c.04-.23.04-.25.07-.49.16-1.33.47-3.6.83-5.98.05-.43.07-.67.11-1.08l2.67.16Zm-.02-3.74c1.3.7,4.9,1.75,6.99,2.04l-.86,2.48c-3.13-.69-5.29-1.35-7.38-2.3l1.26-2.21Z"/>
      </g>
      <rect class="cls-8" x="75.62" y="60.69" width="38.3" height="1" transform="translate(14.79 140.75) rotate(-77.7)"/>
      <rect class="cls-8" x="116.87" y="102.94" width="1" height="32.98" transform="translate(-45.91 82.3) rotate(-32.69)"/>
      <rect class="cls-8" x="124.43" y="148.43" width="30.03" height="1" transform="translate(-40.8 244.52) rotate(-74.82)"/>
      <path class="cls-8" d="m128.46,204.36c-11.76,0-21.34-9.57-21.34-21.34s9.57-21.34,21.34-21.34,21.34,9.57,21.34,21.34-9.57,21.34-21.34,21.34Zm0-41.67c-11.21,0-20.34,9.12-20.34,20.34s9.12,20.34,20.34,20.34,20.34-9.12,20.34-20.34-9.12-20.34-20.34-20.34Z"/>
      <g class="cls-2">
        <g id="baec859b-4664-4042-84b3-8b12dc19197c">
          <path id="a8e8d335-bc79-4a28-94f9-614ba261e126-1865" class="cls-5" d="m227.2,146.56c-1.33.95-3.01,1.26-4.6.84h0c-2.92-.78-4.66-3.77-3.88-6.69.02-.07.04-.14.06-.21.08-.26.18-.51.3-.75l-10.75-48.26c-.69-2.32.63-4.76,2.94-5.45,2.32-.69,4.76.63,5.45,2.94h0s.02.06.03.09l10.15,48.41c2.56,1.59,3.35,4.96,1.75,7.52-.38.61-.87,1.14-1.45,1.55h0Z"/>
          <circle id="e7e9d44e-3da8-4950-b68f-3fc4466331ff" class="cls-5" cx="209.18" cy="68.63" r="9.84"/>
          <path id="a5c6c761-247a-4902-a0d4-baf8f46a74e0-1870" class="cls-9" d="m222.4,106.87c1.37-5.08-4.9-21.01-5.41-23.04-2.44-.56-8.1.52-11.58-.2-4.95,4.13-8.88,10.04-11.6,12.84-2.83,2.91-4.65,4.89-1.73,11.7,3.54,8.26,2.75,16.92,2.75,16.92l2.36,20.85s-9.84,27.54-9.05,46.04l-9.05,45.25s2.75,4.72,8.26,2.36c0,0,12.98-23.21,11.8-40.13l14.17-31.48s9.84,29.9,12.59,32.66l7.08,42.5s6.69,1.97,9.84,0c0,0,1.18-40.92-5.51-47.61,0,0-6.69-28.33-5.12-35.81,1.57-7.48,1.97-18.89-9.84-29.12,0,0,.12.05-3.54-6.69l3.56-17.04Z"/>
          <path id="af145ef0-0255-4739-8879-297ab98a0d16-1871" class="cls-9" d="m214.31,53.42h0c-.55,0-1.1.06-1.64.16-.98-.47-2.05-.72-3.14-.72h-.28c-5.49,0-9.94,4.97-9.94,11.09h1.84l.3-2.26.44,2.26h1.53c-.48,1.81-.72,3.68-.71,5.56v11.29h2.78l1.61-4.18-.4,4.18h17.87l1.46-3.8-.37,3.8h2.01v-8.87c0-10.23-5.98-18.52-13.36-18.52Z"/>
          <path id="ea9385fa-bd74-4f9e-87fe-47e8c2aeba8a-1872" class="cls-5" d="m193.8,152.15c-1.62.24-3.26-.25-4.47-1.35h0c-2.24-2.02-2.42-5.48-.4-7.72.05-.06.1-.11.15-.16.19-.19.39-.37.61-.53l12.46-47.85c.44-2.38,2.72-3.95,5.1-3.51s3.95,2.72,3.51,5.1h0s-.01.07-.02.1l-13.07,47.7c1.55,2.59.71,5.94-1.87,7.49-.61.37-1.29.61-2,.72h0Z"/>
        </g>
      </g>
      <g>
        <circle class="cls-3" cx="109.86" cy="21.39" r="20.89"/>
        <path class="cls-8" d="m109.86,42.77c-11.79,0-21.39-9.59-21.39-21.39S98.07,0,109.86,0s21.39,9.59,21.39,21.39-9.59,21.39-21.39,21.39Zm0-41.77c-11.24,0-20.39,9.15-20.39,20.39s9.15,20.39,20.39,20.39,20.39-9.14,20.39-20.39S121.1,1,109.86,1Z"/>
      </g>
      <g>
        <circle class="cls-6" cx="827.22" cy="103.74" r="19.33"/>
        <g>
          <path class="cls-3" d="m836.68,104.24h-41.35c-.28,0-.5-.22-.5-.5s.22-.5.5-.5h41.35c.28,0,.5.22.5.5s-.22.5-.5.5Z"/>
          <path class="cls-3" d="m827.68,113.59c-.13,0-.26-.05-.35-.15-.2-.2-.2-.51,0-.71l9-9-9-9c-.2-.2-.2-.51,0-.71s.51-.2.71,0l9.35,9.35c.09.09.15.22.15.35s-.05.26-.15.35l-9.35,9.35c-.1.1-.23.15-.35.15Z"/>
        </g>
      </g>
      <circle class="cls-6" cx="109.86" cy="21.39" r="17.29"/>
    </g>
  </g>
</svg>