<?xml version="1.0" encoding="UTF-8"?>
<svg id="_レイヤー_2" data-name="レイヤー 2" xmlns="http://www.w3.org/2000/svg" viewBox="0 0 13.95 26.17">
  <defs>
    <style>
      .cls-1 {
        fill: #fff;
      }
    </style>
  </defs>
  <g id="_レイヤー_4" data-name="レイヤー 4">
    <path class="cls-1" d="m7.44,25.37L.26,14c-.35-.56-.35-1.27,0-1.83L7.44.8C7.76.3,8.3,0,8.89,0h3.35c.64,0,1.22.35,1.52.91.3.56.26,1.24-.1,1.77l-6.85,10c-.17.24-.17.56,0,.81l6.85,10c.36.53.4,1.2.1,1.77-.3.56-.88.91-1.52.91h-3.35c-.59,0-1.13-.3-1.45-.8ZM8.89,1c-.25,0-.47.12-.6.33L1.11,12.7c-.15.23-.15.53,0,.76l7.18,11.37c.13.21.36.33.6.33h3.35c.27,0,.51-.14.63-.38.13-.24.11-.51-.04-.73l-6.85-10c-.4-.58-.4-1.36,0-1.94L12.83,2.12c.15-.22.17-.5.04-.74s-.36-.38-.63-.38h-3.35Z"/>
  </g>
</svg>