<?xml version="1.0" encoding="UTF-8"?>
<svg id="_レイヤー_2" data-name="レイヤー 2" xmlns="http://www.w3.org/2000/svg" viewBox="0 0 13.95 26.17">
  <defs>
    <style>
      .cls-1 {
        fill: #fff;
      }
    </style>
  </defs>
  <g id="_レイヤー_4" data-name="レイヤー 4">
    <path class="cls-1" d="m5.07,26.17H1.71c-.64,0-1.22-.35-1.52-.91-.3-.56-.26-1.24.1-1.77l6.85-10c.17-.24.17-.56,0-.81L.3,2.68C-.06,2.16-.1,1.48.2.91c.3-.56.88-.91,1.52-.91h3.35c.59,0,1.13.3,1.45.8l7.18,11.37c.35.56.35,1.27,0,1.83l-7.18,11.37c-.32.5-.86.8-1.45.8ZM1.71,1c-.27,0-.51.14-.63.38s-.11.51.04.74l6.85,10c.4.58.4,1.36,0,1.94L1.13,24.05c-.15.22-.17.5-.04.73.13.24.36.38.63.38h3.35c.25,0,.47-.12.6-.33l7.18-11.37c.15-.23.15-.53,0-.76L5.67,1.33c-.13-.21-.36-.33-.6-.33H1.71Z"/>
  </g>
</svg>