<?xml version="1.0" encoding="UTF-8"?>
<svg id="_レイヤー_2" data-name="レイヤー 2" xmlns="http://www.w3.org/2000/svg" viewBox="0 0 68 14">
  <defs>
    <style>
      .cls-1 {
        fill: none;
      }

      .cls-2 {
        fill: #f2d338;
      }
    </style>
  </defs>
  <g id="layerCont">
    <g>
      <g>
        <polygon class="cls-2" points="9.15 9.8 12.32 11.47 11.72 7.94 14.28 5.44 10.74 4.93 9.15 1.72 7.57 4.93 4.03 5.44 6.59 7.94 5.98 11.47 9.15 9.8"/>
        <polygon class="cls-2" points="21.55 9.8 24.72 11.47 24.12 7.94 26.68 5.44 23.14 4.93 21.55 1.72 19.97 4.93 16.43 5.44 18.99 7.94 18.38 11.47 21.55 9.8"/>
        <polygon class="cls-2" points="33.95 9.8 37.12 11.47 36.52 7.94 39.08 5.44 35.54 4.93 33.95 1.72 32.37 4.93 28.83 5.44 31.39 7.94 30.78 11.47 33.95 9.8"/>
        <polygon class="cls-2" points="46.35 9.8 49.52 11.47 48.92 7.94 51.48 5.44 47.94 4.93 46.35 1.72 44.77 4.93 41.23 5.44 43.79 7.94 43.18 11.47 46.35 9.8"/>
        <path class="cls-2" d="m62.42,12.16l-3.67-1.93-3.67,1.93.7-4.08-2.97-2.89,4.1-.6,1.83-3.71,1.83,3.71,4.1.6-2.97,2.89.7,4.08Zm-7.99-6.45l2.16,2.11-.51,2.97,2.67-1.4,2.67,1.4-.51-2.97,2.16-2.11-2.98-.43-1.33-2.71-1.34,2.71-2.98.43Z"/>
      </g>
      <rect class="cls-1" width="68" height="14"/>
    </g>
  </g>
</svg>