<?xml version="1.0" encoding="UTF-8"?>
<svg id="_レイヤー_2" data-name="レイヤー 2" xmlns="http://www.w3.org/2000/svg" viewBox="0 0 44.25 44.25">
  <defs>
    <style>
      .cls-1 {
        fill: #fff;
      }

      .cls-2 {
        fill: #8ec31f;
      }
    </style>
  </defs>
  <g id="newDesign">
    <g>
      <circle class="cls-2" cx="22.13" cy="22.13" r="22.13"/>
      <g>
        <path class="cls-1" d="m32.96,22.63H.61c-.28,0-.5-.22-.5-.5s.22-.5.5-.5h32.34c.28,0,.5.22.5.5s-.22.5-.5.5Z"/>
        <path class="cls-1" d="m22.65,33.34c-.13,0-.26-.05-.35-.15-.2-.2-.2-.51,0-.71l10.36-10.36-10.36-10.36c-.2-.2-.2-.51,0-.71s.51-.2.71,0l10.71,10.71c.2.2.2.51,0,.71l-10.71,10.71c-.1.1-.23.15-.35.15Z"/>
      </g>
    </g>
  </g>
</svg>