<?xml version="1.0" encoding="UTF-8"?>
<svg id="_圖層_1" data-name="圖層_1" xmlns="http://www.w3.org/2000/svg" version="1.1" viewBox="0 0 512 512">
  <!-- Generator: Adobe Illustrator 29.4.0, SVG Export Plug-In . SVG Version: 2.1.0 Build 152)  -->
  <defs>
    <style>
      .st0 {
        fill: #c33;
      }
    </style>
  </defs>
  <path class="st0" d="M502.6,278.6c12.5-12.5,12.5-32.8,0-45.3l-128-128c-12.5-12.5-32.8-12.5-45.3,0s-12.5,32.8,0,45.3l73.4,73.4h-210.7c-17.7,0-32,14.3-32,32s14.3,32,32,32h210.7l-73.4,73.4c-12.5,12.5-12.5,32.8,0,45.3s32.8,12.5,45.3,0l128-128h0ZM160,96c17.7,0,32-14.3,32-32s-14.3-32-32-32h-64C43,32,0,75,0,128v256c0,53,43,96,96,96h64c17.7,0,32-14.3,32-32s-14.3-32-32-32h-64c-17.7,0-32-14.3-32-32V128c0-17.7,14.3-32,32-32h64Z"/>
</svg>