<?xml version="1.0" encoding="UTF-8"?>
<svg id="_圖層_1" xmlns="http://www.w3.org/2000/svg" version="1.1" viewBox="0 0 640 512">
  <!-- Generator: Adobe Illustrator 29.5.1, SVG Export Plug-In . SVG Version: 2.1.0 Build 141)  -->
  <defs>
    <style>
      .st0 {
        fill: #EF6D20;
      }
    </style>
  </defs>
  <path class="st0" d="M95,75.3c-8.3-6.6-20.4-5-27,3.3-6.6,8.3-5,20.4,3.3,27l473.6,371.2c8.3,6.6,20.4,5,27-3.3,6.6-8.3,5-20.4-3.3-27l-127-99.5c12.2-20.8,19.1-45,19.1-71v-32c0-10.6-8.6-19.2-19.2-19.2s-19.2,8.6-19.2,19.2v32c0,17-4.1,32.9-11.4,47l-14.2-11.1v-163.8c0-42.4-34.4-76.8-76.8-76.8s-76.8,34.4-76.8,76.8v43.4L95,75.3ZM339.2,415.5c16.3-2.2,31.8-7.3,45.8-14.6l-34.5-27.1c-9.7,3-19.9,4.6-30.6,4.6-56.6,0-102.4-45.8-102.4-102.4v-7l-37.8-29.8c-.4,1.5-.6,3.1-.6,4.8v32c0,71.3,53,130.2,121.6,139.5v26.9h-38.4c-10.6,0-19.2,8.6-19.2,19.2s8.6,19.2,19.2,19.2h115.2c10.6,0,19.2-8.6,19.2-19.2s-8.6-19.2-19.2-19.2h-38.4v-26.9h0Z"/>
</svg>