<svg width="39" height="39" viewBox="0 0 39 39" fill="none" xmlns="http://www.w3.org/2000/svg">
<g clip-path="url(#clip0_5851_54)">
<path d="M19.33 38.66C30.0057 38.66 38.66 30.0057 38.66 19.33C38.66 8.65434 30.0057 0 19.33 0C8.65434 0 0 8.65434 0 19.33C0 30.0057 8.65434 38.66 19.33 38.66Z" fill="#65ABE9"/>
<path d="M28.78 19.8301H0.540039C0.260039 19.8301 0.0400391 19.6101 0.0400391 19.3301C0.0400391 19.0501 0.260039 18.8301 0.540039 18.8301H28.78C29.06 18.8301 29.28 19.0501 29.28 19.3301C29.28 19.6101 29.06 19.8301 28.78 19.8301Z" fill="white"/>
<path d="M19.79 29.18C19.66 29.18 19.53 29.13 19.44 29.03C19.24 28.83 19.24 28.52 19.44 28.32L28.44 19.32L19.44 10.32C19.24 10.12 19.24 9.80996 19.44 9.60996C19.64 9.40996 19.95 9.40996 20.15 9.60996L29.5 18.96C29.7 19.16 29.7 19.47 29.5 19.67L20.15 29.02C20.05 29.12 19.92 29.17 19.8 29.17L19.79 29.18Z" fill="white"/>
</g>
<defs>
<clipPath id="clip0_5851_54">
<rect width="38.65" height="38.65" fill="white"/>
</clipPath>
</defs>
</svg>
