<?xml version="1.0" encoding="UTF-8"?>
<svg xmlns="http://www.w3.org/2000/svg" version="1.1" viewBox="0 0 16 14">
  <defs>
    <style>
      .cls-1 {
        fill: #e78005;
      }
    </style>
  </defs>
  <!-- Generator: Adobe Illustrator 28.6.0, SVG Export Plug-In . SVG Version: 1.2.0 Build 709)  -->
  <g>
    <g id="_レイヤー_2">
      <g id="_2023Design">
        <path class="cls-1" d="M11.6,1c.9,0,1.8.3,2.4,1,.6.6,1,1.5,1,2.3,0,.9-.4,1.7-1,2.4l-6,5.9L2,6.7c-.6-.6-1-1.5-1-2.3,0-.9.4-1.7,1-2.4.6-.6,1.5-1,2.4-1s1.8.3,2.4,1l.5.4h1.4l.5-.5c.6-.6,1.5-1,2.4-1M11.6,0C10.5,0,9.3.4,8.5,1.3l-.5.5-.5-.5C6.7.4,5.5,0,4.4,0S2.2.4,1.3,1.3C-.4,3-.4,5.7,1.3,7.4l6.7,6.6,6.7-6.6c1.7-1.7,1.7-4.4,0-6.1C13.8.4,12.7,0,11.6,0h0ZM8,14h0s0,0,0,0h0Z"/>
      </g>
    </g>
  </g>
</svg>