<?xml version="1.0" encoding="UTF-8"?>
<svg id="_圖層_1" xmlns="http://www.w3.org/2000/svg" version="1.1" viewBox="0 0 512 512">
  <!-- Generator: Adobe Illustrator 29.4.0, SVG Export Plug-In . SVG Version: 2.1.0 Build 152)  -->
  <defs>
    <style>
      .st0 {
        fill: #424242;
      }
    </style>
  </defs>
  <path class="st0" d="M40,48c-13.3,0-24,10.7-24,24v48c0,13.3,10.7,24,24,24h48c13.3,0,24-10.7,24-24v-48c0-13.3-10.7-24-24-24h-48ZM192,64c-17.7,0-32,14.3-32,32s14.3,32,32,32h288c17.7,0,32-14.3,32-32s-14.3-32-32-32H192ZM192,224c-17.7,0-32,14.3-32,32s14.3,32,32,32h288c17.7,0,32-14.3,32-32s-14.3-32-32-32H192ZM192,384c-17.7,0-32,14.3-32,32s14.3,32,32,32h288c17.7,0,32-14.3,32-32s-14.3-32-32-32H192ZM16,232v48c0,13.3,10.7,24,24,24h48c13.3,0,24-10.7,24-24v-48c0-13.3-10.7-24-24-24h-48c-13.3,0-24,10.7-24,24ZM40,368c-13.3,0-24,10.7-24,24v48c0,13.3,10.7,24,24,24h48c13.3,0,24-10.7,24-24v-48c0-13.3-10.7-24-24-24h-48Z"/>
</svg>