<svg width="48" height="48" viewBox="0 0 48 48" fill="none" xmlns="http://www.w3.org/2000/svg">
<rect width="48" height="48" fill="white"/>
<path d="M21.3125 18.1875C21.3125 17.3421 21.6483 16.5314 22.2461 15.9336C22.8439 15.3358 23.6546 15 24.5 15C25.3454 15 26.1561 15.3358 26.7539 15.9336C27.3517 16.5314 27.6875 17.3421 27.6875 18.1875C27.6875 19.0329 27.3517 19.8436 26.7539 20.4414C26.1561 21.0392 25.3454 21.375 24.5 21.375C23.6546 21.375 22.8439 21.0392 22.2461 20.4414C21.6483 19.8436 21.3125 19.0329 21.3125 18.1875ZM23.9688 23.2344V32L22.3617 31.1965C21.6678 30.8512 20.9174 30.632 20.1438 30.5557L16.9562 30.2369C16.415 30.1805 16 29.7256 16 29.1777V22.4375C16 21.8498 16.4748 21.375 17.0625 21.375H18.0686C20.1803 21.375 22.2389 22.0258 23.9688 23.2344ZM25.0312 32V23.2344C26.7611 22.0258 28.8197 21.375 30.9314 21.375H31.9375C32.5252 21.375 33 21.8498 33 22.4375V29.1777C33 29.7223 32.585 30.1805 32.0438 30.2336L28.8563 30.5523C28.0859 30.6287 27.3322 30.8479 26.6383 31.1932L25.0312 32Z" fill="white"/>
</svg>
