<svg width="48" height="48" viewBox="0 0 48 48" fill="none" xmlns="http://www.w3.org/2000/svg">
<rect width="48" height="48" fill="white"/>
<path d="M16 18.2142C16 17.5426 16.5426 17 17.2142 17H31.7842C32.4558 17 32.9983 17.5426 32.9983 18.2142C32.9983 18.8858 32.4558 19.4283 31.7842 19.4283H17.2142C16.5426 19.4283 16 18.8858 16 18.2142ZM16 24.285C16 23.6134 16.5426 23.0708 17.2142 23.0708H31.7842C32.4558 23.0708 32.9983 23.6134 32.9983 24.285C32.9983 24.9566 32.4558 25.4992 31.7842 25.4992H17.2142C16.5426 25.4992 16 24.9566 16 24.285ZM32.9983 30.3558C32.9983 31.0274 32.4558 31.57 31.7842 31.57H17.2142C16.5426 31.57 16 31.0274 16 30.3558C16 29.6842 16.5426 29.1417 17.2142 29.1417H31.7842C32.4558 29.1417 32.9983 29.6842 32.9983 30.3558Z" fill="white"/>
</svg>
