<?xml version="1.0" encoding="UTF-8"?>
<svg id="_圖層_1" xmlns="http://www.w3.org/2000/svg" version="1.1" viewBox="0 0 576 512">
  <!-- Generator: Adobe Illustrator 29.4.0, SVG Export Plug-In . SVG Version: 2.1.0 Build 152)  -->
  <defs>
    <style>
      .st0 {
        fill: #ccc;
      }
    </style>
  </defs>
  <path class="st0" d="M0,128c0-35.3,28.7-64,64-64h256c35.3,0,64,28.7,64,64v256c0,35.3-28.7,64-64,64H64c-35.3,0-64-28.7-64-64V128ZM559.1,99.8c10.4,5.6,16.9,16.4,16.9,28.2v256c0,11.8-6.5,22.6-16.9,28.2s-23,5-32.9-1.6l-96-64-14.2-9.5v-162.2l14.2-9.5,96-64c9.8-6.5,22.4-7.2,32.9-1.6h0Z"/>
</svg>