<svg width="237" height="348" viewBox="0 0 237 348" fill="none" xmlns="http://www.w3.org/2000/svg">
<g clip-path="url(#clip0_8237_1431)">
<path d="M82.239 311.65L111.329 344.39C116.889 348.23 119.729 347.86 124.839 343.89L154.439 311.65C178.129 311.27 201.849 311.45 225.529 311.45C246.949 273.52 235.929 218.76 202.579 191.23C202.579 189.22 209.789 183.38 211.539 181.24C232.639 155.35 233.109 122.9 225.459 91.5598C224.129 86.1098 217.529 69.8798 219.069 66.0898C219.909 64.0198 224.229 59.7098 225.699 56.7398C243.749 20.3098 196.419 -16.4302 165.789 7.76984C163.319 9.71984 161.909 12.6098 160.419 13.8698C157.639 16.1998 141.979 10.9598 137.159 10.2998C117.339 7.56984 97.419 9.73984 78.219 14.9298C72.689 11.4298 69.709 6.35984 63.219 3.46984C31.689 -10.5702 -3.59101 22.3798 9.66899 55.0598C11.219 58.8798 17.979 66.7698 18.049 68.5198C18.159 71.0098 13.419 82.0298 12.419 85.7898C2.23899 124.16 2.14899 161.59 32.999 190.39C25.579 199.32 17.499 207.66 11.959 218.02C-1.01101 242.28 -3.86101 274.7 5.43899 300.7C6.87899 304.72 8.17899 308.3 11.129 311.46C34.809 311.46 58.529 311.29 82.219 311.66L82.239 311.65ZM142.749 307.94C140.179 311.4 123.269 331.2 120.889 331.96C118.479 332.73 115.169 332.74 113.139 331.1C109.529 324.05 88.729 305.8 88.959 299.08C89.029 297.22 90.359 294.92 91.059 293.14C97.379 277.23 108.489 262.01 114.669 245.85C116.009 237.76 95.999 225.13 109.459 219.78C113.689 218.1 126.219 217.63 129.519 220.95C135.649 227.12 126.079 234.52 123.649 239.95C121.459 244.84 122.119 246.16 123.949 250.97C128.949 264.11 138.579 277.59 143.929 290.83C147.319 299.21 148.449 300.23 142.739 307.94H142.749ZM202.619 208.18C221.379 229.02 229.049 266.4 220.559 293.01C219.589 296.04 218.719 300.75 215.039 301.45L158.819 301.37C158.259 296.71 156.369 292.49 154.449 288.29C149.229 276.91 137.149 258.59 134.249 247.62C132.489 240.98 140.329 234.33 143.269 228.66C149.849 233.29 163.849 246.66 172.079 241.5C177.649 238.01 185.159 211.99 188.149 204.72C188.689 203.41 190.549 198.08 192.099 198.74C193.939 199.52 200.899 206.26 202.619 208.17V208.18ZM140.779 213.18L176.669 204.72C174.569 208.31 168.599 229.87 166.059 230.59C163.729 231.25 143.739 216.03 140.779 213.18ZM104.679 20.4598C177.039 14.2498 224.409 64.5998 218.539 136.36C213.099 202.85 125.729 212.1 74.959 198.24C-23.891 171.25 14.089 28.2298 104.679 20.4598ZM93.249 215.52C89.189 219 78.639 226.85 74.139 229.31C72.709 230.1 71.399 231.1 69.609 230.72C68.249 230.43 60.619 208.02 60.019 204.71C71.319 208.44 82.999 211.44 94.899 212.7C95.329 214.55 94.279 214.64 93.239 215.52H93.249ZM13.439 282.72C9.35899 258.15 16.339 229.61 32.109 210.21C34.289 207.53 42.259 198.71 45.419 199.79C48.549 200.86 56.069 236.03 64.479 241.61C73.149 247.36 85.369 232.86 93.329 229.66C94.139 229.85 102.089 242.11 102.459 243.61C103.129 246.33 101.959 247.85 101.049 250.27C96.129 263.39 86.419 276.98 80.919 289.98C79.369 293.64 77.549 297.34 77.939 301.46L21.629 301.44C16.679 300.48 14.189 287.32 13.429 282.71L13.439 282.72Z" fill="#2D2E2F"/>
<path d="M74.9506 198.241C125.721 212.101 213.091 202.851 218.531 136.361C224.411 64.6007 177.031 14.2507 104.671 20.4607C14.0906 28.2307 -23.8894 171.251 74.9506 198.241ZM150.481 72.2707C166.991 69.5107 186.651 79.8207 190.191 96.9107C198.021 134.751 147.521 130.281 137.501 100.741C133.511 88.9807 136.591 74.5907 150.481 72.2607V72.2707ZM105.381 123.911C109.571 120.021 139.181 120.221 130.511 130.611C128.651 132.831 120.631 135.801 117.591 135.641C112.881 135.381 99.6606 129.221 105.381 123.911ZM130.461 155.981C135.491 154.671 149.301 145.601 149.761 155.421C150.151 163.811 125.871 168.681 119.371 168.841C112.311 169.021 92.7206 165.001 88.2306 159.531C86.4406 157.351 86.1806 152.691 88.9306 151.331C93.3806 149.141 99.2706 153.911 103.891 155.331C113.121 158.161 121.111 158.421 130.471 155.981H130.461ZM46.1106 96.5307C48.9706 85.8607 61.8006 73.9907 72.7206 72.2707C106.461 66.9707 107.731 103.071 83.8706 118.341C64.3906 130.801 39.0606 122.851 46.1206 96.5307H46.1106Z" fill="#FEFEFE"/>
<path d="M192.101 198.74C190.551 198.09 188.691 203.41 188.151 204.72C185.151 211.99 177.641 238.02 172.081 241.5C163.851 246.66 149.851 233.29 143.271 228.66C140.331 234.33 132.491 240.98 134.251 247.62C137.151 258.59 149.231 276.91 154.451 288.29C156.381 292.49 158.261 296.71 158.821 301.37L215.041 301.45C218.721 300.75 219.591 296.04 220.561 293.01C229.051 266.39 221.391 229.02 202.621 208.18C200.901 206.27 193.941 199.52 192.101 198.75V198.74Z" fill="#FEFEFE"/>
<path d="M80.9282 289.99C86.4182 276.99 96.1282 263.4 101.058 250.28C101.968 247.86 103.138 246.34 102.468 243.62C102.098 242.12 94.1482 229.86 93.3382 229.67C85.3782 232.87 73.1582 247.38 64.4882 241.62C56.0682 236.03 48.5582 200.87 45.4282 199.8C42.2582 198.72 34.2882 207.54 32.1182 210.22C16.3482 229.62 9.36818 258.16 13.4482 282.73C14.2082 287.34 16.6982 300.5 21.6482 301.46L77.9582 301.48C77.5682 297.36 79.3882 293.66 80.9382 290L80.9282 289.99Z" fill="#FEFEFE"/>
<path d="M123.961 250.97C122.131 246.16 121.461 244.83 123.661 239.95C126.101 234.52 135.661 227.12 129.531 220.95C126.231 217.63 113.701 218.1 109.471 219.78C96.0108 225.13 116.021 237.76 114.681 245.85C108.501 262.02 97.3908 277.23 91.0708 293.14C90.3608 294.92 89.0308 297.22 88.9708 299.08C88.7308 305.8 109.541 324.05 113.151 331.1C115.181 332.74 118.491 332.72 120.901 331.96C123.291 331.2 140.191 311.4 142.761 307.94C148.471 300.23 147.341 299.21 143.951 290.83C138.591 277.6 128.971 264.11 123.971 250.97H123.961Z" fill="#5B95CF"/>
<path d="M69.5995 230.721C71.3895 231.101 72.6995 230.091 74.1295 229.311C78.6295 226.851 89.1795 218.991 93.2395 215.521C94.2795 214.631 95.3295 214.551 94.8995 212.701C82.9995 211.441 71.3095 208.441 60.0195 204.711C60.6095 208.021 68.2495 230.441 69.6095 230.721H69.5995Z" fill="#F8F8F8"/>
<path d="M166.061 230.591C168.601 229.871 174.571 208.311 176.671 204.721L140.781 213.181C143.751 216.031 163.731 231.251 166.061 230.591Z" fill="#F8F8F8"/>
<path d="M190.19 96.9198C186.65 79.8198 166.99 69.5098 150.48 72.2798C136.59 74.6098 133.51 88.9898 137.5 100.76C147.52 130.29 198.02 134.77 190.19 96.9298V96.9198ZM151.98 92.2298C156.45 87.7498 165.19 94.3798 160.79 100.54C155.83 107.48 146.52 97.6898 151.98 92.2298Z" fill="#2D2E2F"/>
<path d="M83.8598 118.341C107.72 103.081 106.46 66.9705 72.7098 72.2705C61.7898 73.9905 48.9698 85.8605 46.0998 96.5305C39.0398 122.851 64.3698 130.801 83.8498 118.341H83.8598ZM82.9498 91.4905C89.6598 94.7505 82.7298 106.971 76.2598 101.651C70.9498 97.2905 75.9798 88.0905 82.9498 91.4905Z" fill="#2D2E2F"/>
<path d="M88.9198 151.341C86.1698 152.701 86.4298 157.361 88.2198 159.541C92.7198 165.011 112.3 169.031 119.36 168.851C125.86 168.691 150.15 163.811 149.75 155.431C149.29 145.611 135.49 154.671 130.45 155.991C121.09 158.431 113.1 158.171 103.87 155.341C99.2498 153.931 93.3598 149.151 88.9098 151.341H88.9198Z" fill="#2D2E2F"/>
<path d="M117.588 135.639C120.618 135.809 128.648 132.829 130.508 130.609C139.178 120.219 109.578 120.019 105.378 123.909C99.6583 129.219 112.888 135.379 117.588 135.639Z" fill="#2D2E2F"/>
<path d="M160.79 100.541C165.2 94.3807 156.46 87.7507 151.98 92.2307C146.52 97.7007 155.83 107.481 160.79 100.541Z" fill="#F8F8F8"/>
<path d="M76.2515 101.649C82.7215 106.959 89.6515 94.749 82.9415 91.489C75.9715 88.099 70.9315 97.289 76.2515 101.649Z" fill="#F8F8F8"/>
</g>
<defs>
<clipPath id="clip0_8237_1431">
<rect width="236.53" height="347.08" fill="white"/>
</clipPath>
</defs>
</svg>
