<svg width="31" height="36" viewBox="0 0 31 36" fill="none" xmlns="http://www.w3.org/2000/svg">
<path d="M3.21576 26.9037H0.233643V24.7168H8.79231V26.9037H5.81019V35.6711H3.21576V26.9037Z" fill="black"/>
<path d="M10.005 30.1456C10.005 26.5571 11.9931 24.5293 14.9752 24.5293C17.9573 24.5293 19.9454 26.5174 19.9454 30.1456C19.9454 33.7739 17.9573 35.8812 14.9752 35.8812C11.9931 35.8812 10.005 33.7341 10.005 30.1456ZM17.3609 30.1456C17.3609 28.0283 16.4663 26.7758 15.0249 26.7758C13.5835 26.7758 12.6988 28.0283 12.6988 30.1456C12.6988 32.2629 13.5835 33.6148 15.0249 33.6148C16.4663 33.6148 17.3609 32.2629 17.3609 30.1456Z" fill="black"/>
<path d="M22.0428 24.7168H25.9196C28.3152 24.7168 30.3033 25.5816 30.3033 28.2854C30.3033 30.9892 28.3152 32.0429 25.9792 32.0429H24.6969V35.6711H22.0428V24.7168ZM25.8301 29.9653C27.1025 29.9653 27.7287 29.359 27.7287 28.2854C27.7287 27.2118 27.013 26.844 25.7705 26.844H24.6969V30.0051L25.8301 29.9653Z" fill="black"/>
<path fill-rule="evenodd" clip-rule="evenodd" d="M14.6943 8.44386L23.1561 16.9165L21.5994 18.4712L14.6933 11.5561L7.7778 18.4717L6.22217 16.916L14.6943 8.44386Z" fill="black"/>
<path fill-rule="evenodd" clip-rule="evenodd" d="M14.6943 0.443863L23.1561 8.91654L21.5994 10.4712L14.6933 3.55614L7.7778 10.4717L6.22217 8.91604L14.6943 0.443863Z" fill="black" fill-opacity="0.6"/>
</svg>
